<svg xmlns="http://www.w3.org/2000/svg" width="1454" height="271.41" viewBox="0 0 1454 271.41"><defs><style>.cls-1{fill:#a8a9ad;}</style></defs><title>Asset 2</title><g id="Layer_2" data-name="Layer 2"><g id="Layer_1-2" data-name="Layer 1"><g id="asxrYc.tif"><path class="cls-1" d="M0,114.16c5.17-3.65,9.44-8.31,14-12.62C49.9,67.84,91,42.5,136.9,24.8A369.25,369.25,0,0,1,229.15,2.44,389.23,389.23,0,0,1,312.35,2a380.92,380.92,0,0,1,92,21,373.86,373.86,0,0,1,89.34,47.25,410.42,410.42,0,0,1,50.78,43.45,13.71,13.71,0,0,1,1.33,2l-34,32.81c-18.87-18.34-38.5-35.15-60.56-49a349.11,349.11,0,0,0-70.89-34.12c11.53,30,14,60.13,14.53,91.37H216.47c-1,5.08.52,9.19,1.49,13.31,6.58,27.74,27.21,46.22,55.52,50.18,26.52,3.7,51.6-1.39,75.88-11.82a289.46,289.46,0,0,0,26-12.9v55c-13.74,8.25-28.57,13.07-43.87,16.45-18.63,4.12-37.62,5-56.59,4-34.4-1.87-65.83-11.64-90.5-37.19-16.59-17.18-25.87-38.28-30.16-61.44-6.18-33.33-4.21-66.2,7.7-98.19.92-2.47,1.93-4.92,3.35-8.51C139.66,74,116.63,85.51,94.71,99.34A337.83,337.83,0,0,0,34,148.71L0,116.16Zm216.25-4.44H329.72c-1.27-32.53-18.6-60.6-55.49-60.06S217.62,78.71,216.25,109.72Z"/><path class="cls-1" d="M1454,147.16h-95.33c-.69,16.61,13.65,31.92,31.06,34.12s33.18-2.79,48.4-10.5c1.34-.68,2.66-1.38,4-2a6.17,6.17,0,0,1,1.7-.16v29.21a85.71,85.71,0,0,1-30.07,9.77c-15.83,2.24-31.49,2-46.8-3.1-25.66-8.48-39-27.14-42.87-53.13-2.83-19.14-1-37.84,7.6-55.48,13-26.85,38.44-35.47,64.22-33.35,11.74,1,22.9,3.93,32.65,11,12.73,9.24,18.67,22.53,22.45,37.19,1.23,4.77,1.12,9.8,3,14.42Zm-34.76-25.52c-.83-12.34-3.77-23-14.75-28.95s-22.44-5-32.72,1.89c-9.35,6.22-12.63,16-13.58,27.06Z"/><path class="cls-1" d="M1007.89,81.92V2.53h35.82v202.4h-34.21c-1.36-4.45-.09-9.15-.75-13.74-1.75-.55-2.3,1.05-3.06,1.92-20.67,23.55-76.91,24.42-92.4-20-9-25.86-9.2-52,.84-77.59,9.73-24.86,32.79-35.41,58.37-32.8C986.51,64.18,997.78,70.32,1007.89,81.92ZM945,135.17c.29,9.43,1.51,18.62,5.35,27.24,4.32,9.71,11.18,16.59,22.26,17.66,11.62,1.12,21.33-3,26.88-13.4,11.14-20.8,11.67-42.22-.73-62.55-10.86-17.8-36.55-18.37-47,1.32C946.8,114.79,945.31,124.86,945,135.17Z"/><path class="cls-1" d="M726.56,167.78v29.8a89.25,89.25,0,0,1-30.67,10c-14.13,2-28.19,1.92-42-1.73-25-6.59-40.56-22.54-46.25-47.79-4.63-20.52-3.35-40.75,5.23-60C625.61,69.4,651.53,60,679.62,62.71c14.24,1.4,27.31,5.73,37.6,16.35a56.07,56.07,0,0,1,10.73,16.12c7.36,16.27,8.54,33.58,9.05,51.77H641.59c-2,11.75,7.7,26.51,20,31.33,16.6,6.52,32.67,3.31,48.49-2.75C715.43,173.47,720.52,170.65,726.56,167.78Zm-25-46.25c-1.17-21.26-12.26-32.68-30.72-32.36-17,.3-29.71,13.82-30,32.36Z"/><path class="cls-1" d="M885.09,205H849.72c-1.21-1.91-.69-3.79-.7-5.56q-.06-37.5,0-75a64.65,64.65,0,0,0-1.56-14.35c-4.07-18.11-21.09-25-36.91-15-10,6.33-13.36,16.63-15.47,27.41-2.29,11.7-1,23.58-1.12,35.38-.2,15.16-.08,30.33-.11,45.49a6.9,6.9,0,0,1-.42,1.4H757.49v-139h34.32V84.4c6.75-8,13.38-14.2,22.1-17.62,14.48-5.67,29.29-6.55,43.83-1,17.53,6.75,25.5,21.49,26.92,38.92,2.69,32.89.78,65.92,1,98.9C885.67,203.95,885.42,204.25,885.09,205Z"/><path class="cls-1" d="M1082.22,104.31c-.63-10.94-1.67-21-1-31.53a124.35,124.35,0,0,1,26-8.14c15.36-3,30.71-3.57,46,.19,21.92,5.4,33.72,19.41,35.81,41.82,2,20.95,0,42,1.2,62.9.64,11.61.14,23.27,2,35.27H1159.7a89.8,89.8,0,0,1-1.63-18.64c-1.5-.25-1.75,1-2.25,1.7-15.21,21.83-46.27,27.08-69.72,13.61-16.45-9.45-22.14-24.14-20-42.29,2.13-17.74,14.83-30.9,33.51-36.07,15.15-4.2,30.58-4.17,46.06-4,3.29,0,6.58,0,9.75,0,2.8-14.9-5.87-26.94-20-29.09-18.45-2.81-34.87,2.19-50.13,12.23Zm73.52,37.14c-9.11,0-17.92-.39-26.67.14a42,42,0,0,0-15.84,4.06c-8.07,3.93-12.43,10.14-12.37,19.36,0,7.27,3.62,12.06,10.08,14.56,5.44,2.1,11.19,3.26,17.09,2.08C1147.07,177.84,1158.09,162,1155.74,141.45Z"/><path class="cls-1" d="M1312.07,67.06c.19,9.43-2.08,18.5-2.47,28.21-5.43-.32-9.92-2.67-14.73-3.58-23.49-4.4-41.8,8-45.9,31.44-2.1,12-1.46,23.83,3.19,35.25,6.5,15.94,22.58,24.46,39.66,21.47a136.76,136.76,0,0,0,21.64-6.1l1.52,30.13c-5.58,2.4-11.06,3-16.44,3.75-14.42,2-28.83,2.16-43-1.87-21.66-6.18-35.43-20.7-41.86-41.83-6.26-20.55-6.32-41.37,1.78-61.55,10.34-25.75,30.47-38,57.49-40a82,82,0,0,1,14,.21C1295.17,63.36,1303.49,63.86,1312.07,67.06Z"/></g></g></g></svg>