<svg xmlns="http://www.w3.org/2000/svg" viewBox="0 0 247.81 249.17" width="247.81" height="249.17"><defs><style>.cls-1{fill:#fc9f14;}</style></defs><title>Asset 1</title><g id="Layer_2" data-name="Layer 2"><g id="Layer_1-2" data-name="Layer 1"><path class="cls-1" d="M247.8,249H201.3c-1.17-55.23-20.14-103.15-59.16-142.3S55.62,48.47.22,47V0C134.72-2.67,249.41,113.73,247.8,249Z"/><path class="cls-1" d="M163.07,248.89a20.44,20.44,0,0,1-2.21.27h-44.5c-.34-32-11.45-59.58-33.77-82.27S32.72,132.71.4,132V85.76C73.6,80.8,164,148.38,163.07,248.89Z"/><path class="cls-1" d="M65.23,216.56c.57,15-11.42,32.17-32.83,32.51C14.14,249.37-.1,234,0,215.06c.09-17.12,15.25-31.89,32.66-31.82C51,183.3,65.36,198,65.23,216.56Z"/></g></g></svg>