<?xml version="1.0" encoding="UTF-8" standalone="no"?>
<svg
   xmlns="http://www.w3.org/2000/svg"
   xmlns:xlink="http://www.w3.org/1999/xlink"
   width="561.04724"
   height="271.13385"
   id="svg1960"
   version="1.0">
  <defs
     id="defs1962">
      <linearGradient
   xlink:href="#id1"
   id="linearGradient2096"
   gradientUnits="userSpaceOnUse"
   x1="128.69"
   y1="29.0394"
   x2="144.537"
   y2="29.0394"
   gradientTransform="matrix(3.543307,0,0,3.543307,7.306461,211.1602)" />
<radialGradient
   xlink:href="#id8"
   id="radialGradient2092"
   gradientUnits="userSpaceOnUse"
   cx="171.939"
   cy="45.402302"
   fx="171.939"
   fy="45.402302"
   r="2.0107"
   gradientTransform="matrix(3.543307,0,0,3.543307,7.306461,211.1602)" />
<linearGradient
   xlink:href="#id0"
   id="linearGradient2088"
   gradientUnits="userSpaceOnUse"
   x1="164.778"
   y1="45.458302"
   x2="182.709"
   y2="45.458302"
   gradientTransform="matrix(3.543307,0,0,3.543307,7.306461,211.1602)" />
<linearGradient
   xlink:href="#id3"
   id="linearGradient2084"
   gradientUnits="userSpaceOnUse"
   x1="159.77901"
   y1="55.147701"
   x2="177.571"
   y2="24.3311"
   gradientTransform="matrix(3.543307,0,0,3.543307,7.306461,211.1602)" />
<radialGradient
   xlink:href="#id6"
   id="radialGradient2080"
   gradientUnits="userSpaceOnUse"
   cx="146.664"
   cy="70.029503"
   fx="146.664"
   fy="70.029503"
   r="4.3785"
   gradientTransform="matrix(3.543307,0,0,3.543307,7.306461,211.1602)" />
<radialGradient
   xlink:href="#id7"
   id="radialGradient2076"
   gradientUnits="userSpaceOnUse"
   cx="132.765"
   cy="54.221699"
   fx="132.765"
   fy="54.221699"
   r="6.9898"
   gradientTransform="matrix(3.543307,0,0,3.543307,7.306461,211.1602)" />
<radialGradient
   xlink:href="#id5"
   id="radialGradient2072"
   gradientUnits="userSpaceOnUse"
   cx="134.32001"
   cy="55.4529"
   fx="134.32001"
   fy="55.4529"
   r="4.0524001"
   gradientTransform="matrix(3.543307,0,0,3.543307,7.306461,211.1602)" />
<linearGradient
   xlink:href="#id2"
   id="linearGradient2068"
   gradientUnits="userSpaceOnUse"
   x1="153.31"
   y1="98.379303"
   x2="153.31"
   y2="86.519501"
   gradientTransform="matrix(3.543307,0,0,3.543307,7.306461,211.1602)" />
<linearGradient
   xlink:href="#id4"
   id="linearGradient2064"
   gradientUnits="userSpaceOnUse"
   x1="137.004"
   y1="98.172302"
   x2="141.077"
   y2="86.979698"
   gradientTransform="matrix(3.543307,0,0,3.543307,7.306461,211.1602)" />
<linearGradient
   id="id4"
   gradientUnits="userSpaceOnUse"
   x1="137.004"
   y1="98.172302"
   x2="141.077"
   y2="86.979698">
   <stop
   offset="0"
   style="stop-color:#00585B"
   id="stop29" />

   <stop
   offset="1"
   style="stop-color:#00BBC7"
   id="stop31" />

  </linearGradient>
<linearGradient
   id="id2"
   gradientUnits="userSpaceOnUse"
   x1="153.31"
   y1="98.379303"
   x2="153.31"
   y2="86.519501">
   <stop
   offset="0"
   style="stop-color:#00662E"
   id="stop19" />

   <stop
   offset="1"
   style="stop-color:#00B06C"
   id="stop21" />

  </linearGradient>
<radialGradient
   id="id5"
   gradientUnits="userSpaceOnUse"
   cx="134.32001"
   cy="55.4529"
   r="4.0524001"
   fx="134.32001"
   fy="55.4529">
   <stop
   offset="0"
   style="stop-color:#5493C9"
   id="stop34" />

   <stop
   offset="1"
   style="stop-color:#3756A2"
   id="stop36" />

  </radialGradient>
<radialGradient
   id="id7"
   gradientUnits="userSpaceOnUse"
   cx="132.765"
   cy="54.221699"
   r="6.9898"
   fx="132.765"
   fy="54.221699">
   <stop
   offset="0"
   style="stop-color:#57B0DC"
   id="stop44" />

   <stop
   offset="1"
   style="stop-color:#1F3E78"
   id="stop46" />

  </radialGradient>
<radialGradient
   id="id6"
   gradientUnits="userSpaceOnUse"
   cx="146.664"
   cy="70.029503"
   r="4.3785"
   fx="146.664"
   fy="70.029503">
   <stop
   offset="0"
   style="stop-color:#CDC5E2"
   id="stop39" />

   <stop
   offset="1"
   style="stop-color:#625DA6"
   id="stop41" />

  </radialGradient>
<linearGradient
   id="id3"
   gradientUnits="userSpaceOnUse"
   x1="159.77901"
   y1="55.147701"
   x2="177.571"
   y2="24.3311">
   <stop
   offset="0"
   style="stop-color:#F15B52"
   id="stop24" />

   <stop
   offset="1"
   style="stop-color:#D2232A"
   id="stop26" />

  </linearGradient>
<linearGradient
   id="id0"
   gradientUnits="userSpaceOnUse"
   x1="164.778"
   y1="45.458302"
   x2="182.709"
   y2="45.458302">
   <stop
   offset="0"
   style="stop-color:#FFDD00"
   id="stop9" />

   <stop
   offset="1"
   style="stop-color:#DE7D50"
   id="stop11" />

  </linearGradient>
<radialGradient
   id="id8"
   gradientUnits="userSpaceOnUse"
   cx="171.939"
   cy="45.402302"
   r="2.0107"
   fx="171.939"
   fy="45.402302">
   <stop
   offset="0"
   style="stop-color:#FFF799"
   id="stop49" />

   <stop
   offset="1"
   style="stop-color:#F2BF39"
   id="stop51" />

  </radialGradient>
<linearGradient
   id="id1"
   gradientUnits="userSpaceOnUse"
   x1="128.69"
   y1="29.0394"
   x2="144.537"
   y2="29.0394">
   <stop
   offset="0"
   style="stop-color:#91215C"
   id="stop14" />

   <stop
   offset="1"
   style="stop-color:#EC3993"
   id="stop16" />

  </linearGradient>
 </defs>
  <g
     id="layer1"
     transform="translate(-113.3573,-299.2618)">
    <g
       id="g2148"
       transform="translate(5.309496,5.32368)">
      <path
         class="fil0"
         d="M 517.81904,303.74829 C 519.44471,307.92656 508.914,315.9355 494.29255,321.60514 C 479.71786,327.30739 466.54562,328.53621 464.91605,324.36184 C 463.2918,320.18321 473.82251,312.20298 488.44255,306.50463 C 503.01865,300.8077 516.18948,299.57357 517.81904,303.74829 z "
         id="path2108"
         style="fill:#91215c;fill-rule:nonzero" />
      <path
         class="fil1"
         d="M 517.81904,303.74829 C 519.44471,307.92656 508.914,315.9355 494.29255,321.60514 C 479.71786,327.30739 466.54562,328.53621 464.91605,324.36184 C 463.2918,320.18321 473.82251,312.20298 488.44255,306.50463 C 503.01865,300.8077 516.18948,299.57357 517.81904,303.74829 L 517.81904,303.74829 z "
         id="path2110"
         style="fill:url(#linearGradient2096);fill-rule:evenodd" />
      <path
         class="fil2"
         d="M 654.02731,403.99943 C 653.2825,414.04967 649.08971,422.22797 641.72672,425.93817 C 627.69841,433.00246 607.4803,421.16498 596.574,399.52069 C 589.91436,386.29353 588.2575,372.464 591.17046,362.10939 L 591.1655,362.11329 C 592.36313,363.24573 593.58664,364.39235 594.82467,365.54321 C 618.04361,387.06207 641.2792,401.79443 654.02341,404.00829 L 654.02731,403.99943 L 654.02731,403.99943 z "
         id="path2112"
         style="fill:#f2bf39;fill-rule:nonzero" />
      <path
         class="fil3"
         d="M 654.02731,403.99943 C 653.2825,414.04967 649.08971,422.22797 641.72672,425.93817 C 627.69841,433.00246 607.4803,421.16498 596.574,399.52069 C 589.91436,386.29353 588.2575,372.464 591.17046,362.10939 L 591.1655,362.11329 C 592.36313,363.24573 593.58664,364.39235 594.82467,365.54321 C 618.04361,387.06207 641.2792,401.79443 654.02341,404.00829 L 654.02731,403.99943 L 654.02731,403.99943 z "
         id="path2114"
         style="fill:url(#radialGradient2092);fill-rule:evenodd" />
      <path
         class="fil4"
         d="M 654.02376,404.00829 C 641.27955,401.79443 618.04396,387.06207 594.82502,365.54321 C 593.58699,364.39235 592.36349,363.24573 591.16585,362.11329 L 591.17081,362.10939 C 593.02999,355.48624 596.74939,350.27191 602.21672,347.52054 C 616.24361,340.45624 636.4564,352.29266 647.36943,373.94191 C 652.55116,384.22707 654.69983,394.89065 654.02766,403.99943 L 654.02376,404.00829 L 654.02376,404.00829 z "
         id="path2116"
         style="fill:#fd0;fill-rule:nonzero" />
      <path
         class="fil5"
         d="M 654.02376,404.00829 C 641.27955,401.79443 618.04396,387.06207 594.82502,365.54321 C 593.58699,364.39235 592.36349,363.24573 591.16585,362.11329 L 591.17081,362.10939 C 593.02999,355.48624 596.74939,350.27191 602.21672,347.52054 C 616.24361,340.45624 636.4564,352.29266 647.36943,373.94191 C 652.55116,384.22707 654.69983,394.89065 654.02766,403.99943 L 654.02376,404.00829 L 654.02376,404.00829 L 654.02376,404.00829 z "
         id="path2118"
         style="fill:url(#linearGradient2088);fill-rule:evenodd" />
      <path
         class="fil6"
         d="M 654.02731,403.99943 C 654.69947,394.89065 652.55081,384.22707 647.36908,373.94191 C 636.45605,352.29266 616.24325,340.45624 602.21636,347.52054 C 596.74904,350.27191 593.02963,355.48624 591.17046,362.10939 L 591.17046,362.1225 C 591.17046,362.1225 591.1655,362.11861 591.1655,362.11329 C 563.14325,335.2001 546.1655,308.3181 552.97148,300.97353 L 553.04199,300.89912 L 553.04979,300.89239 L 553.08877,300.85341 L 553.1164,300.82471 L 553.25459,300.6929 L 553.26877,300.68121 L 553.33006,300.62628 L 553.34069,300.61849 L 553.34601,300.61317 L 553.38357,300.57951 L 553.42538,300.54408 L 553.4268,300.54408 L 553.43849,300.5338 L 553.59121,300.41227 L 553.60821,300.39951 L 553.65499,300.36408 L 553.67341,300.35097 L 553.74782,300.29747 L 553.75951,300.28861 L 553.79459,300.26628 L 553.8116,300.25459 L 553.93278,300.1738 L 553.9381,300.16991 L 553.94058,300.16849 L 553.94731,300.16317 L 554.06353,300.09266 L 554.21341,300.0055 L 554.24353,299.98849 C 554.3803,299.91266 554.52132,299.84109 554.66873,299.77589 L 554.67121,299.77447 L 554.70274,299.75995 L 554.72613,299.75109 C 555.22715,299.53424 555.78522,299.37018 556.38794,299.26317 L 556.39609,299.26176 L 560.51447,299.26176 L 560.51979,299.26176 C 610.10908,308.40562 649.97802,345.4268 663.25585,393.49601 L 663.25089,393.50132 C 663.31219,393.72703 663.36676,393.95026 663.42026,394.17065 L 663.4766,394.41337 L 663.47766,394.41833 L 663.47908,394.42648 L 663.47908,394.42896 L 663.49325,394.48636 L 663.4975,394.50053 L 663.5053,394.54376 L 663.5666,394.81766 L 663.56766,394.82298 L 663.57546,394.86585 L 663.63038,395.13727 L 663.63038,395.14258 C 663.6853,395.43207 663.73101,395.7166 663.77246,395.99439 L 663.77388,395.99581 L 663.78451,396.06738 L 663.78451,396.0688 L 663.78451,399.52317 C 663.72711,399.85057 663.64597,400.16522 663.54959,400.4625 L 663.54959,400.4664 C 663.4975,400.62443 663.4401,400.77715 663.37738,400.92561 L 663.37455,400.93093 L 663.37065,400.94262 L 663.34868,400.98975 L 663.3292,401.03404 L 663.32636,401.04325 L 663.30935,401.08081 L 663.27427,401.15274 L 663.26648,401.17081 L 663.24416,401.21546 L 663.22219,401.26081 L 663.22077,401.26223 L 663.21546,401.27392 L 663.15309,401.39262 L 663.12935,401.43585 L 663.10845,401.47376 L 663.10597,401.47872 L 663.10207,401.48404 L 663.03014,401.60805 L 663.00676,401.64986 L 662.98975,401.67715 L 662.97947,401.69274 L 662.95325,401.73313 L 662.92597,401.77494 L 662.92455,401.77884 L 662.90116,401.81427 L 662.87105,401.85715 L 662.85794,401.87664 L 662.84376,401.89648 L 662.81506,401.93687 L 662.78884,401.97337 L 662.78778,401.97585 L 662.78105,401.98364 L 662.67014,402.12998 L 662.64676,402.16116 L 662.63896,402.16896 L 662.60778,402.20687 L 662.57624,402.24585 L 662.57235,402.25116 L 662.54754,402.28128 L 662.51353,402.31884 L 662.49546,402.33868 L 662.48235,402.35427 L 662.44975,402.38935 L 662.41857,402.42479 C 660.77483,404.2053 657.87994,404.67514 654.02341,404.00829 L 654.02731,403.99943 L 654.02731,403.99943 z "
         id="path2120"
         style="fill:#f15b52;fill-rule:nonzero" />
      <path
         class="fil7"
         d="M 663.78557,399.52317 L 663.78557,396.0688 C 663.67467,395.26376 663.49857,394.40416 663.25195,393.50132 L 663.25691,393.49601 C 649.97908,345.4268 610.11014,308.40562 560.52085,299.26176 L 556.39715,299.26176 C 554.95928,299.51475 553.80735,300.07565 552.97255,300.97353 C 546.16656,308.3181 563.14432,335.2001 591.16656,362.11329 C 591.16656,362.11861 591.17152,362.1225 591.17152,362.1225 L 591.17152,362.10939 C 593.03069,355.48624 596.7501,350.27191 602.21743,347.52054 C 616.24432,340.45624 636.45711,352.29266 647.37014,373.94191 C 652.55187,384.22707 654.70053,394.89065 654.02837,403.99943 L 654.02837,403.99943 L 654.02447,404.00829 C 657.88101,404.67514 660.77589,404.2053 662.41963,402.42479 C 663.12935,401.66014 663.57935,400.68715 663.78557,399.52317 L 663.78557,399.52317 z "
         id="path2122"
         style="fill:url(#linearGradient2084);fill-rule:evenodd" />
      <path
         class="fil8"
         d="M 534.69581,505.23915 C 567.44447,503.4675 593.41089,476.35482 593.41089,443.20931 C 593.41089,408.87715 565.62215,381.06609 531.28573,381.06609 C 519.25514,381.06609 508.03066,384.48927 498.51227,390.40837 C 504.45475,398.78475 510.31751,408.80416 515.47692,420.73305 C 525.82762,444.66419 536.19605,477.70376 534.69581,505.23915 L 534.69581,505.23915 z "
         id="path2124"
         style="fill:#625da6;fill-rule:nonzero" />
      <path
         class="fil9"
         d="M 534.69581,505.23915 C 567.44447,503.4675 593.41089,476.35482 593.41089,443.20931 C 593.41089,408.87715 565.62215,381.06609 531.28573,381.06609 C 519.25514,381.06609 508.03066,384.48927 498.51227,390.40837 C 504.45475,398.78475 510.31751,408.80416 515.47692,420.73305 C 525.82762,444.66419 536.19605,477.70376 534.69581,505.23915 L 534.69581,505.23915 L 534.69581,505.23915 z "
         id="path2126"
         style="fill:url(#radialGradient2080);fill-rule:evenodd" />
      <path
         class="fil10"
         d="M 488.39542,529.2851 C 498.30357,525.61281 514.8207,522.56663 532.48833,520.67486 C 532.96349,518.57581 533.39507,516.35805 533.77739,514.00211 C 534.23802,511.16215 534.53282,508.23077 534.69829,505.23915 C 533.5701,505.29939 532.43377,505.33589 531.28821,505.33589 C 496.95463,505.33589 469.16731,477.50144 469.16731,443.20931 C 469.16731,420.90774 480.91621,401.37986 498.51475,390.40837 C 485.03991,371.34573 471.09026,360.96809 463.97105,356.83128 C 451.43022,349.53065 431.81979,344.52006 419.11208,369.52341 C 410.11952,387.20026 405.23649,407.27132 405.23649,428.42734 C 405.23649,480.68191 435.68023,525.86191 479.82948,547.15648 C 470.76393,542.64124 467.45412,537.0173 488.39542,529.2851 L 488.39542,529.2851 z "
         id="path2128"
         style="fill:#1f3e78;fill-rule:nonzero" />
      <path
         class="fil11"
         d="M 488.39542,529.2851 C 498.30357,525.61281 514.8207,522.56663 532.48833,520.67486 C 532.96349,518.57581 533.39507,516.35805 533.77739,514.00211 C 534.23802,511.16215 534.53282,508.23077 534.69829,505.23915 C 533.5701,505.29939 532.43377,505.33589 531.28821,505.33589 C 496.95463,505.33589 469.16731,477.50144 469.16731,443.20931 C 469.16731,420.90774 480.91621,401.37986 498.51475,390.40837 C 485.03991,371.34573 471.09026,360.96809 463.97105,356.83128 C 451.43022,349.53065 431.81979,344.52006 419.11208,369.52341 C 410.11952,387.20026 405.23649,407.27132 405.23649,428.42734 C 405.23649,480.68191 435.68023,525.86191 479.82948,547.15648 C 470.76393,542.64124 467.45412,537.0173 488.39542,529.2851 L 488.39542,529.2851 L 488.39542,529.2851 z "
         id="path2130"
         style="fill:url(#radialGradient2076);fill-rule:evenodd" />
      <path
         class="fil12"
         d="M 469.16589,443.20931 C 469.16589,477.50144 496.95322,505.33589 531.2868,505.33589 C 532.43235,505.33589 533.56869,505.29939 534.69688,505.23915 C 536.19711,477.70376 525.82869,444.66419 515.47798,420.73305 C 510.31857,408.80416 504.45581,398.78475 498.51333,390.40837 C 480.91479,401.37986 469.16589,420.90774 469.16589,443.20931 L 469.16589,443.20931 z "
         id="path2132"
         style="fill:#3756a2;fill-rule:nonzero" />
      <path
         class="fil13"
         d="M 531.28715,505.33589 L 531.87286,505.33589 C 532.81892,505.32526 533.76321,505.28876 534.69723,505.23915 C 536.19747,477.70376 525.82904,444.66419 515.47833,420.73305 C 510.31892,408.80416 504.45617,398.78475 498.51369,390.40837 C 480.91515,401.37986 469.16625,420.90774 469.16625,443.20931 C 469.16625,477.50144 496.95357,505.33589 531.28715,505.33589 L 531.28715,505.33589 z "
         id="path2134"
         style="fill:url(#radialGradient2072);fill-rule:evenodd" />
      <path
         class="fil14"
         d="M 594.59542,520.21955 C 579.63735,517.72541 555.1166,518.24982 532.48727,520.67486 C 524.08857,557.69462 501.45959,556.11218 488.52192,550.97085 C 485.70676,549.85683 483.12121,548.7414 480.42333,547.45128 C 481.36267,547.91191 482.30979,548.35801 483.26188,548.7949 L 483.3455,548.83281 L 484.40601,549.31045 L 484.89924,549.52695 L 485.36377,549.72892 L 485.72235,549.88553 L 485.85806,549.94293 L 487.3792,550.58356 L 487.39869,550.59277 L 488.08361,550.87057 L 488.21152,550.92266 L 488.33696,550.97368 L 488.99176,551.23588 L 489.11684,551.28407 L 490.47499,551.8099 L 491.09613,552.04482 C 492.38093,552.52742 493.67778,552.98663 494.98349,553.42742 L 495.02672,553.44301 L 495.73113,553.67935 L 495.84345,553.71585 L 496.43944,553.90896 L 496.70554,553.99506 L 497.14668,554.13714 L 497.27424,554.17754 L 498.01266,554.40714 L 499.1164,554.74234 L 499.28471,554.79195 L 499.3081,554.79974 L 499.43991,554.83766 L 500.92207,555.26711 L 501.05778,555.30608 L 501.43727,555.41167 L 501.93581,555.5488 L 502.16011,555.60868 L 502.81633,555.78762 L 502.88152,555.80569 L 503.70074,556.01829 L 504.33215,556.18163 L 504.58514,556.24541 L 504.77436,556.29112 C 507.63806,557.00474 510.53932,557.62163 513.47707,558.14108 L 513.57629,558.15915 L 513.92459,558.21903 L 515.40144,558.46707 L 515.42093,558.47096 C 516.63416,558.66655 517.85518,558.84655 519.08046,559.0099 L 519.19385,559.02549 C 521.31097,559.3047 523.44404,559.53041 525.59129,559.70899 L 526.06892,559.74833 L 547.65581,559.74833 L 548.7631,559.65549 L 549.83282,559.55628 L 549.87073,559.5538 L 550.97447,559.44148 L 551.09955,559.42836 L 551.43617,559.39081 L 552.3351,559.29018 L 552.43963,559.27707 L 553.41156,559.1612 L 553.99727,559.08679 L 554.52947,559.01628 L 555.174,558.92876 L 555.70373,558.85329 L 556.3114,558.76577 C 557.87825,558.53474 559.43589,558.27785 560.98573,557.99226 L 561.27912,557.93734 C 561.94739,557.81333 562.6153,557.68293 563.28038,557.54722 L 563.85191,557.42994 L 564.2679,557.34242 C 564.89152,557.21061 565.51266,557.07632 566.13239,556.93565 L 567.19148,556.69151 L 567.24499,556.6784 L 568.24703,556.43959 L 568.31754,556.42293 L 569.22817,556.19581 L 569.31924,556.17242 C 569.96128,556.01049 570.6005,555.8436 571.23829,555.6714 L 571.39632,555.62959 L 572.06955,555.44569 L 572.15282,555.4223 L 572.83916,555.22919 L 573.47979,555.04636 L 574.4542,554.76325 L 574.51408,554.74518 L 575.54625,554.43195 L 576.12522,554.25195 L 576.79455,554.04325 L 576.82325,554.03403 L 577.60065,553.78494 L 577.77817,553.72612 L 578.55451,553.47065 L 578.66152,553.43522 C 582.72392,552.07848 586.70164,550.53148 590.57731,548.80022 L 590.60211,548.78959 L 591.54782,548.36191 C 592.40636,547.96931 593.25959,547.56856 594.10892,547.15896 L 595.00644,546.72207 L 595.04684,546.70258 L 595.85187,546.30183 L 596.11798,546.16896 L 596.33695,546.05805 L 596.62538,545.91065 L 597.28408,545.57262 L 598.22199,545.08364 L 598.28329,545.05211 L 599.15884,544.58651 L 599.35975,544.47809 L 600.08896,544.08159 L 600.42699,543.89628 L 600.64349,543.7751 C 601.9088,543.07317 603.16384,542.35317 604.40435,541.61191 L 604.64211,541.47124 L 604.68109,541.44644 L 605.58392,540.8997 L 605.6803,540.84088 L 606.48286,540.34411 L 607.00195,540.01919 L 607.64117,539.61348 L 607.90975,539.44128 L 608.6014,538.99518 L 608.88699,538.80844 L 609.51451,538.39636 L 609.77034,538.22805 L 610.03254,538.05301 L 610.77735,537.55234 L 611.77939,536.866 C 619.98109,531.19104 621.10432,524.62388 594.59542,520.21955 L 594.59542,520.21955 z M 480.42333,547.45128 L 480.29011,547.38608 L 480.26672,547.37439 L 480.04491,547.26738 L 480.02684,547.25675 L 480.04491,547.26738 L 480.02684,547.25675 L 480.04491,547.26738 M 480.02684,547.25675 L 480.02542,547.25675 L 480.00452,547.24789 L 480.02684,547.25675 z M 480.04491,547.26738 L 480.25892,547.37155 L 480.29011,547.38608 L 480.42333,547.45128"
         id="path2136"
         style="fill:#00662e;fill-rule:nonzero" />
      <path
         class="fil15"
         d="M 526.06786,559.74833 L 547.65475,559.74833 C 571.35877,557.84203 593.27022,549.65982 611.77833,536.866 C 619.98002,531.19104 621.10325,524.62388 594.59436,520.21955 L 594.59436,520.21955 C 579.63628,517.72541 555.11554,518.24982 532.48621,520.67486 C 524.08751,557.69462 501.45853,556.11218 488.52085,550.97085 C 485.56751,549.80226 482.86963,548.62943 480.02578,547.25675 C 480.09487,547.28935 479.95633,547.22025 480.02578,547.25675 C 494.0757,554.17896 509.65385,558.44085 526.06786,559.74833 L 526.06786,559.74833 z "
         id="path2138"
         style="fill:url(#linearGradient2068);fill-rule:evenodd" />
      <path
         class="fil16"
         d="M 532.48833,520.67486 C 514.8207,522.56663 498.30357,525.61281 488.39542,529.2851 C 467.45412,537.0173 470.76393,542.64124 479.82948,547.15648 C 482.67475,548.52738 485.56963,549.80226 488.52298,550.97085 C 501.46066,556.11218 524.08963,557.69462 532.48833,520.67486 z "
         id="path2140"
         style="fill:#00585b;fill-rule:nonzero" />
      <path
         class="fil17"
         d="M 532.48833,520.67486 C 514.8207,522.56663 498.30357,525.61281 488.39542,529.2851 C 467.45412,537.0173 470.76393,542.64124 479.82948,547.15648 C 482.67475,548.52738 485.56963,549.80226 488.52298,550.97085 C 501.46066,556.11218 524.08963,557.69462 532.48833,520.67486 z "
         id="path2142"
         style="fill:url(#linearGradient2064);fill-rule:evenodd" />
      <path
         class="fil18"
         d="M 229.66492,437.04786 C 251.08881,424.03223 246.97928,385.64014 208.45787,385.64014 L 125.17527,385.64014 C 118.71901,385.64014 113.35728,390.95616 113.35728,397.42164 L 113.35728,488.29825 C 113.35728,494.75061 118.71901,500.09782 125.17527,500.09782 L 197.70712,500.09782 C 255.3872,500.09782 262.58968,448.77868 229.66492,437.04786 L 229.66492,437.04786 z M 156.8163,403.5427 L 201.57748,403.5427 C 227.10665,403.5427 225.84523,431.23471 198.18192,431.23471 L 156.8163,431.23471 L 156.8163,403.5427 L 156.8163,403.5427 z M 192.93499,480.92994 L 156.8163,480.92994 L 156.8163,449.24817 L 203.08303,449.24817 C 229.27905,449.26128 229.52673,480.92994 192.93499,480.92994 z "
         id="path2144"
         style="fill:#004896;fill-rule:nonzero" />
      <path
         class="fil18"
         d="M 375.88125,385.65821 L 255.10551,385.65821 C 249.83484,385.65821 244.37673,389.94774 244.37673,395.23116 C 244.37673,400.50573 249.83484,404.78073 255.10551,404.78073 L 295.21822,404.78073 L 295.21822,488.29825 C 295.21822,494.72297 300.58031,500.09782 307.04153,500.09782 L 325.81326,500.09782 C 332.31629,500.09782 337.62346,494.72297 337.62346,488.29825 L 337.62346,404.78073 L 375.88125,404.78073 C 381.12818,404.78073 386.56326,400.50573 386.56326,395.23116 C 386.56326,389.94774 381.12818,385.65821 375.88125,385.65821 L 375.88125,385.65821 z "
         id="path2146"
         style="fill:#004896;fill-rule:nonzero" />
    </g>
  </g>
</svg>
