<svg xmlns="http://www.w3.org/2000/svg" width="482.85" height="109.38" viewBox="0 0 482.85 109.38"><defs><style>.cls-1{fill:#2c88f9;}</style></defs><title>Asset 1</title><g id="Layer_2" data-name="Layer 2"><g id="Layer_1-2" data-name="Layer 1"><g id="vAoFGg.tif"><path class="cls-1" d="M335.1,1,351,6.84A44.29,44.29,0,0,1,379.53.76c10.69,1.43,19.47,6.31,27,14.13C413.68,7.56,421.93,2.54,432,1c26.2-4,49.63,14.69,50.5,41.17.7,21.42.16,42.87.15,64.31a10,10,0,0,1-.35,1.84c-12.29,1.84-20.9-4.94-21.17-17-.3-13.12-.12-26.25-.24-39.38a112,112,0,0,0-.67-11.43A21.17,21.17,0,0,0,438.9,22c-10.83.12-20.25,8.2-20.82,19-.7,13.42-.6,26.89-.75,40.34-.1,9,0,17.89,0,26.75-12,2.24-20.92-4.66-21.23-16.4-.43-16.1-.35-32.22-.79-48.33-.34-12.19-9-20.95-20.63-21.32a20.71,20.71,0,0,0-21.73,20.07c-.77,16.58-.55,33.21-.84,49.82-.14,7.58-3.76,12.9-10.91,15.69a4.45,4.45,0,0,1-1,.13l-7.45-1.62c-.18-.39-.44-.68-.44-1-.07-33.75-.15-67.49-.05-101.23C332.27,3,334.11,2,335.1,1Z"/><path class="cls-1" d="M108,108.61c-1.27.1-2.23.24-3.19.24-26.3,0-52.6.09-78.89-.06C11,108.7,5.21,102.62,5.19,86.9L70.48,22H63.85c-15.31,0-30.62.09-45.93-.16C5.51,21.66-1.42,13.21.24.29h77.7c1.66,0,3.33,0,5,.1,14.5.75,20.18,7.08,19.45,22.15L38.62,85.88l.29,1.25c1.67,0,3.34,0,5,0,15.47.13,31-.11,46.4.51C102.78,88.15,108.35,95.11,108,108.61Z"/><path class="cls-1" d="M271.15,108.84a54.28,54.28,0,1,1,54-54.38A54.17,54.17,0,0,1,271.15,108.84Zm32.27-54.26A32.53,32.53,0,1,0,270.9,87.12,32.18,32.18,0,0,0,303.42,54.58Z"/><path class="cls-1" d="M157.09,108.84a54.28,54.28,0,1,1,54.19-54.25A54.09,54.09,0,0,1,157.09,108.84Zm.11-21.72a32.24,32.24,0,0,0,32.32-32.77,32.54,32.54,0,0,0-65.08.38A32.35,32.35,0,0,0,157.2,87.12Z"/><path class="cls-1" d="M335.1,1c-1,1-2.83,1.93-2.84,2.91-.1,33.74,0,67.48.05,101.23,0,.29.26.58.44,1l7.45,1.62-9.5,1.63V0Z"/></g></g></g></svg>