<svg xmlns="http://www.w3.org/2000/svg" width="491.65" height="98.33" viewBox="0 0 491.65 98.33"><defs><style>.cls-1{fill:#f1d031;}.cls-2{fill:#171734;}</style></defs><title>Asset 1</title><g id="Layer_2" data-name="Layer 2"><g id="Layer_1-2" data-name="Layer 1"><g id="TC5z1Y.tif"><path class="cls-1" d="M307.38,53.63V79.9H290.87V12.43h16.41V38.59h28.55V12.42h16.58V80H335.93V53.63Z"/><path class="cls-2" d="M197.83,80c0-8.89,0-17.53,0-26.18a22.35,22.35,0,0,0-.43-4.7,7.83,7.83,0,0,0-6.74-6.48c-3.91-.63-7.53.32-9.5,3.91a18.84,18.84,0,0,0-2.34,8c-.33,7.48-.15,15-.17,22.48v2.91H162.49V7.52h16.09V34l2.12-1.59c7.86-6,19.17-6,26.37,0a17.41,17.41,0,0,1,6.53,13c.32,11.47.1,23,.1,34.57Z"/><path class="cls-2" d="M243.69,58.8c1.39,5,3.68,8.76,8.62,9.61,5.39.92,10.13-.37,13.26-5.7l14.08,2.9C276.71,76.74,262.41,84,249.14,81.18c-14.47-3.07-23.16-16-20.85-31,2.17-14.07,14.93-23.68,29.38-22.11,15.19,1.64,24.4,13.63,23.4,30.74ZM264.81,49a10,10,0,0,0-10.58-7.92c-4.87.22-9.08,3.62-9.78,7.92Z"/><path class="cls-1" d="M454.3,58.87c1.27,5,3.54,8.57,8.35,9.48,5.37,1,10.12-.24,13.46-5.6l13.95,2.82c-3.57,11.61-15.92,17.56-28.78,15.74-15.43-2.19-25-15.7-22.46-31.13C441.4,34.25,455,26.6,467.8,27.8c18.55,1.75,25.08,17.58,23.67,31.07Zm.55-10h20.27a9.93,9.93,0,0,0-10.29-7.82C460,41.19,455.67,44.51,454.85,48.87Z"/><path class="cls-2" d="M133.22,80H116.55V26.87H94.75V12.46H155V26.65H133.22Z"/><path class="cls-1" d="M382.05,29.48h17.11c4,10.24,8,20.5,12.19,31.3,4.15-10.79,8.09-21,12-31.29h17.1c-7.08,17-14.05,33.75-21,50.51H402.9Z"/><path class="cls-1" d="M361.86,29.51h15.76V79.94H361.86Z"/><path class="cls-1" d="M58.89,4.48H22.23L4,35.83l9.29,15.83a16.15,16.15,0,0,1-1.59,1.45,7.85,7.85,0,0,1-1.49.5,25,25,0,0,1-1.91-2.39C5.63,46.89,2.9,42.6.5,38.14a5.28,5.28,0,0,1-.07-4.33q9-16,18.42-31.75A4.9,4.9,0,0,1,22.43.11Q40.55-.11,58.66.1a4.66,4.66,0,0,1,3.46,1.76c6.47,10.87,12.76,21.85,19.1,32.8a14.87,14.87,0,0,1,.57,1.47c-3.11,5.61-6.4,11.52-9.93,17.86l-3.5-2.15L77.1,36Z"/><path class="cls-1" d="M46.27,45.6c3.47,1.47,7.06,2.69,10.37,4.45,7.53,4,14,9.32,18.39,16.77,1.71,2.87,2.79,5.87,2,9.25a9.53,9.53,0,0,1-7.79,7.46c-4.56.54-8.78-1.41-10.53-5.47C55.22,69.9,52,61.62,48.64,53.38c-1-2.36-1.86-4.73-2.8-7.11Z"/><path class="cls-1" d="M35.82,46.12c-1.55,3.75-3,7.35-4.5,10.93-2.8,6.67-5.6,13.35-8.45,20a10,10,0,0,1-8.24,6.47c-7,.92-13-6.74-9.85-13.27a46.81,46.81,0,0,1,8.1-11.53A45.53,45.53,0,0,1,33.13,46.4,9.31,9.31,0,0,1,34.58,46,6.16,6.16,0,0,1,35.82,46.12Z"/><path class="cls-1" d="M360.69,14.39c0-5.08,4.1-9.32,8.87-9.25,5.55.09,9.7,4,9.7,9.27s-4.07,9.13-9.73,9.11A8.83,8.83,0,0,1,360.69,14.39Z"/><path class="cls-1" d="M26.87,86.27H54c-.41,5-5.48,11.82-13.88,12.06C34.23,98.49,28,92.9,26.87,86.27Z"/><path class="cls-1" d="M40.72,39.57a52.53,52.53,0,0,1-6-1.34c-3-1-4.11-3.57-3.2-6.6a9.83,9.83,0,0,1,9.39-6.89,10.64,10.64,0,0,1,9.42,8c.47,2.47-.33,4.35-2.72,5.21A61.13,61.13,0,0,1,40.72,39.57Z"/><path class="cls-1" d="M30.22,75.68H50.48l1.61,4.25H28.57Z"/><path class="cls-1" d="M46.09,64.69,47.77,69H33.13l1.61-4.28Z"/><path class="cls-1" d="M32.15,24.76l-5-9.85,2.28-2.2c1.27,1.22,2.13,1.75,2.56,2.52,1,1.86,1.92,3.83,2.84,5.77S35.07,24.12,32.15,24.76Z"/><path class="cls-1" d="M50.71,13.42c2.44.64,3.08,1.85,2.1,3.63-1.4,2.54-1.94,5.62-4.34,7.47-2.68-.61-3.15-1.3-2.25-3.35S48,17.26,49,15.37A10.82,10.82,0,0,1,50.71,13.42Z"/><path class="cls-1" d="M43.63,58.22H37.42l3.1-7.53Z"/></g></g></g></svg>