<?xml version="1.0"?>
<svg xmlns="http://www.w3.org/2000/svg" viewBox="0 0 90.31 24.38" width="90.31" height="24.38">
  <defs>
    <style>.cls-1{fill:#fdb511;}</style>
  </defs>
  <title>Asset 1</title>
  <g id="Layer_2">
    <g id="svg2">
      <path id="rect3886" class="cls-1" d="M22.84,0V.75h.75V0Zm0,1.5v.75h.75V1.5Zm-2.25.75V3h.75V2.25Z"/>
      <path id="path3095" class="cls-1" d="M10.78,2.81A10.78,10.78,0,1,0,21.56,13.59,10.78,10.78,0,0,0,10.78,2.81Zm0,3.44a7.34,7.34,0,1,1-7.31,7.34A7.35,7.35,0,0,1,10.78,6.25Z"/>
      <g id="text58">
        <path id="path2820" d="M27.82,19.3a6.42,6.42,0,0,1-3.9-1.16l1-1.65a4.84,4.84,0,0,0,2.85.89,2.19,2.19,0,0,0,1.23-.3,1,1,0,0,0,.45-.87,1.12,1.12,0,0,0,0-.27.66.66,0,0,0-.1-.23,1.1,1.1,0,0,0-.15-.19.83.83,0,0,0-.24-.18l-.27-.15L28.31,15l-.41-.14-.47-.17-.52-.18a6.68,6.68,0,0,1-.94-.41,5.39,5.39,0,0,1-.8-.57,2.29,2.29,0,0,1-.61-.9,3.54,3.54,0,0,1-.21-1.26,2.65,2.65,0,0,1,1-2.2A4,4,0,0,1,28,8.42a6.15,6.15,0,0,1,3.17.72l-.76,1.73A5.38,5.38,0,0,0,28,10.33q-1.56,0-1.56,1a.93.93,0,0,0,.09.42,1.41,1.41,0,0,0,.19.3,1.1,1.1,0,0,0,.38.24l.47.18.63.19.3.09q.52.17.9.31a5.14,5.14,0,0,1,.82.43,2.83,2.83,0,0,1,.74.61,3,3,0,0,1,.48.87,3.34,3.34,0,0,1,.19,1.17,2.83,2.83,0,0,1-1,2.26,4.21,4.21,0,0,1-2.83.85"/>
        <path id="path2822" d="M35.36,19.51l-2.83-8.11h2.35l1.46,5.67,1.23-5.67h2.2l-2.33,7.86A3.32,3.32,0,0,1,34.07,22a6.51,6.51,0,0,1-1.28-.14L33,20.26l.76.06a2,2,0,0,0,1-.19,1.55,1.55,0,0,0,.6-.61"/>
        <path id="path2824" d="M47.21,12.41a3.28,3.28,0,0,1,2.4-1.2,1.77,1.77,0,0,1,1.67.81,3.82,3.82,0,0,1,.49,2v5.1H49.49V14q0-.93-.72-.93a2,2,0,0,0-1.28.63v5.43H45.21V14q0-.93-.72-.93a1.76,1.76,0,0,0-1.28.66v5.4H40.94V11.39h1.41l.45,1.19a3.38,3.38,0,0,1,2.53-1.36,1.88,1.88,0,0,1,1.88,1.2"/>
        <path id="path2826" d="M57.46,14.18V14a1,1,0,0,0-.24-.76,1.06,1.06,0,0,0-.79-.24,5.39,5.39,0,0,0-2.17.6l-.78-1.5a6.19,6.19,0,0,1,3.15-.87,3.19,3.19,0,0,1,2.33.77,2.81,2.81,0,0,1,.79,2.15v5H58.33q-.39-.82-.4-.83a3.33,3.33,0,0,1-2.28,1,2.59,2.59,0,0,1-1.74-.6A2.12,2.12,0,0,1,53.22,17a2.06,2.06,0,0,1,.79-1.8,8.13,8.13,0,0,1,3.45-1m0,3V15.59a3.75,3.75,0,0,0-1.8.66.87.87,0,0,0-.21.61q0,.83.79.83a1.85,1.85,0,0,0,1.22-.47"/>
        <path id="path2828" d="M61.56,19.15V11.39H63l.45,1.19A3.42,3.42,0,0,1,66,11.21q2.22,0,2.22,2.84v5.1H66V14q0-.93-.78-.93a1.81,1.81,0,0,0-1.33.66v5.4H61.56"/>
        <path id="path2830" d="M70.6,13H69.46V11.39h1.17L71,9.19h1.86v2.2h1.65V13H72.88v3.74a1.12,1.12,0,0,0,.17.7.88.88,0,0,0,.68.19,3,3,0,0,0,.79-.15L74.78,19A5.47,5.47,0,0,1,73,19.3a2.18,2.18,0,0,1-2.44-2.49V13"/>
        <path id="path2832" d="M78.07,15.94a1.91,1.91,0,0,0,.43,1.17,1.51,1.51,0,0,0,1.11.38,2.84,2.84,0,0,0,.81-.12,3.31,3.31,0,0,0,.61-.23l.61-.33.9,1.44a9.48,9.48,0,0,1-.79.54,4.46,4.46,0,0,1-.94.34,5.26,5.26,0,0,1-1.36.17,3.63,3.63,0,0,1-2.73-1,4,4,0,0,1-1-2.9,4.51,4.51,0,0,1,1-3,3.25,3.25,0,0,1,2.64-1.15,3,3,0,0,1,2.58,1.15,4.86,4.86,0,0,1,.86,3v.6H78.07m0-1.33h2.36q0-1.75-1.12-1.76a1,1,0,0,0-.84.42,2.75,2.75,0,0,0-.39,1.34"/>
        <path id="path2834" d="M87.63,19.3a3.5,3.5,0,0,1-2.81-1.09,4.36,4.36,0,0,1-.93-2.9,4.4,4.4,0,0,1,1-2.94,3.41,3.41,0,0,1,2.76-1.15,3.74,3.74,0,0,1,2.57.87L89.13,13.6a2.81,2.81,0,0,0-.71-.41,2.13,2.13,0,0,0-.78-.12q-1.4,0-1.39,2.2t1.43,2.16a2.5,2.5,0,0,0,1.54-.61l1.1,1.41a3.64,3.64,0,0,1-2.68,1.07"/>
      </g>
      <path id="path3876" d="M13.84,8.25a17.34,17.34,0,0,0-3.23,5.5A7.39,7.39,0,0,0,6.84,9.91c-.35-.09-.52-.14-.75.19s-.09.62.19,1a20.25,20.25,0,0,1,2.12,2.78c.67,1.21,1.5,3.2,1.78,3.72a1.29,1.29,0,0,0,1,.59c1.11-.13,1.11-.69,1.32-1.67a8.93,8.93,0,0,1,2.87-5.24v-3Z"/>
      <path id="rect3951" d="M22.09.75V1.5h.75V.75Zm0,.75h-1.5v.75h1.5Zm-1.5.75h-.75v1.5h.75Zm0,1.5V4.5h.75V3.75Zm.75,0h.75V3h-.75Zm-.75.75h-.75v.75h-.75V4.5h-1.5v.75h-.75V6h.75v.75h-.75V6h-.75v.75h-.75V7.5h-.75v3h1.5V9.75h.75V9h.75V8.25h-.75V7.5h.75v.75h.75V7.5h.75V6.75h.75V6h.75Zm-1.5,0h.75V3.75h-.75Zm0-.75V3h-.75v.75Z"/>
    </g>
  </g>
</svg>
