<svg xmlns="http://www.w3.org/2000/svg" width="1592.9" height="537.42" viewBox="0 0 1592.9 537.42"><defs><style>.cls-1{fill:#017dc1;}</style></defs><title>Asset 1</title><g id="Layer_2" data-name="Layer 2"><g id="Layer_1-2" data-name="Layer 1"><path class="cls-1" d="M1413.58,161.15c0-3.51-.16-6.17,0-8.8.69-9.54,7.81-16.39,17.39-16.43q33.74-.16,67.49,0c9.16,0,16,6.72,16.71,15.88.13,1.66.1,3.33.1,5,0,58-.12,116,.08,174,.07,20.13-.1,40.32,3.69,60.24.52,2.78,1.25,5.51,2,8.25,4.86,18.53,17.23,28.53,35.81,31.52a171.22,171.22,0,0,0,22.38,1.8c8.13.24,13.61,5.83,13.63,14q.09,34.74,0,69.49c0,6.61-3.91,10.74-9.35,13.6-7.23,3.79-15.17,4.94-23.16,5.52-20.23,1.45-40.29.7-59.85-5.4a99.53,99.53,0,0,1-53.09-38.69c-2-2.78-3-2.85-5.54-.77-114.54,92.62-284.16,36.8-321.13-105.63-28.82-111,44.09-225.36,157-246.06q69.58-12.75,132.14,20.41C1410.86,159.63,1411.85,160.19,1413.58,161.15Zm-98.41,74.3c-54.44-.09-99.93,44.48-100.07,98-.14,56.72,44,101.91,99.62,102.09,54.52.18,100.24-44.66,100.34-98.39C1415.16,280.4,1371.12,235.55,1315.17,235.45Z"/><path class="cls-1" d="M450.47,267.7c0-82.82.16-165.65-.19-248.47C450.23,7.29,457.9.11,469.45.08c21.33,0,42.66-.18,64,.05,12.06.12,19,7.5,18.92,18.84-.32,74-.17,148-.16,222,0,10,3.66,16.22,11.28,19.26,7.3,2.91,14,1.44,19.92-4.91q26.13-27.92,52.06-56c17-18.32,34.1-36.55,50.92-55,5.31-5.84,11.26-8.6,19.26-8.51,26.67.29,53.33.19,80,.06,7.87,0,14.14,2.43,17.46,9.9,3.41,7.67,1.69,14.39-4,20.62Q739,232.91,679,299.63A87.86,87.86,0,0,0,670.08,311c-4.69,7.33-4.72,14.58-.41,22.1,4.45,7.76,10.59,14.09,16.75,20.4q73.29,75.15,146.66,150.22c5.95,6.08,7.51,12.75,4.52,20.5-2.77,7.17-8.51,10.46-17.57,10.47-29.49,0-59-.09-88.49.06-7.27,0-12.85-2.15-18-7.61q-64.61-67.87-129.68-135.32c-6.45-6.73-13.28-8.51-20.71-5.45s-10.9,9.06-10.9,18.43q0,55.5,0,111c0,11.9-6.2,18.12-18.16,18.13q-32.74,0-65.5,0c-13,0-18.06-5.22-18.06-18.26Z"/><path class="cls-1" d="M400.79,335.71c0,109.49-89.64,199.37-197.93,200.27C96.26,536.87-1.4,452.78,0,332.76,1.35,219.34,92.8,135.32,200.33,135.08,311.09,134.83,400.78,224.87,400.79,335.71ZM200.4,235.46c-55.22,0-100.37,45.18-100.15,100.14a100.39,100.39,0,0,0,100.38,100c55.53,0,99.68-45,99.65-101.45C300.24,280.08,255,235.42,200.4,235.46Z"/><path class="cls-1" d="M856.79,184.53c0-55,.25-110-.18-165C856.51,6.87,864-.06,876.27,0c20.66.14,41.33,0,62,0,12.08,0,19,6.83,19.06,18.75q.12,47.75.19,95.48c0,14.74,6.89,21.58,21.8,21.58h85c9.35,0,15.19,5,16.92,14.26.77,4.14.57,8.3.58,12.46q0,26.49,0,53c0,13.95-6.22,20.15-20.09,20.13q-41.24,0-82.49-.09c-14.33,0-21.36,7.11-21.41,21.5-.08,28-.51,56-.2,84,.45,41.17,31.28,80.12,71.9,91.6a101.76,101.76,0,0,0,42.55,2.87c10.45-1.5,18.08,4.09,19.29,14.54,2.58,22.33,5,44.69,7.29,67,.89,8.53-5.24,16.28-14.08,17.8a162.7,162.7,0,0,1-59.16-.52c-84.64-16.58-139-66.57-162.8-149.45-4.33-15.08-5.83-30.73-5.82-46.47Q856.81,261.52,856.79,184.53Z"/></g></g></svg>