<?xml version="1.0" encoding="utf-8"?>
<!-- Generator: Adobe Illustrator 25.3.1, SVG Export Plug-In . SVG Version: 6.00 Build 0)  -->
<svg version="1.1" id="Layer_1" xmlns="http://www.w3.org/2000/svg" xmlns:xlink="http://www.w3.org/1999/xlink" x="0px" y="0px"
	 viewBox="0 0 400 300" width="400" height="300" style="enable-background:new 0 0 400 300;" xml:space="preserve">
<style type="text/css">
	.st0{fill:#1D1D1B;}
</style>
<g>
	<path class="st0" d="M20.4,105.1h-5.7V195h5.7V105.1z"/>
	<path class="st0" d="M385.3,105.1h-5.7V195h5.7V105.1z"/>
	<path class="st0" d="M300.9,75.9h-5.7v148.2h5.7V75.9z"/>
	<path class="st0" d="M52.3,154.7v-4.5h23.5c0,0.4,0,0.7,0,1.1c0,0.4,0,0.7,0,0.9v1.1v1.1c0,6.3-0.7,10.9-2.1,14
		c-1.4,3.1-5.2,4.5-11.2,4.5h-8.9H52c-0.5,0-1.1,0-1.6,0h-1.6h-1.6c-6.8,0-11.2-1.3-13.6-3.8c-2.3-2.5-3.4-7.9-3.4-16.5V150
		c0-7.7,0.7-13.5,2.1-17.2c1.4-3.8,5.5-5.6,12.5-5.6l9.1-0.2c0.4,0,0.7,0,1.1,0c0.4,0,0.7,0,1.1,0h1.1h1.1H60c0.5,0,1.2,0,1.8,0
		c0.5,0,1.2,0,1.8,0.2c0.5,0,1.2,0,1.8,0.2c3.6,0.4,6.1,1.4,7.5,3.6c1.4,2.2,2.1,5.4,2.1,9.7h-4.3c0-4.1-0.7-6.6-2.3-7.4
		c-1.6-0.7-3.7-1.1-6.6-1.3h-0.2h-0.2l-7.3-0.2c-0.4,0-0.7,0-1.1,0c-0.4,0-0.7,0-1.1,0h-1.1h-1.1h-1.8c-0.5,0-1.2,0-1.8,0
		c-0.5,0-1.2,0-1.8,0.2c-0.5,0-1.2,0-1.8,0.2h-0.2c-0.2,0-0.2,0-0.2,0c-2,0.2-3.6,0.7-4.8,1.6c-1.2,0.9-2,3.4-2.1,7.7
		c0,0.9,0,2-0.2,2.9c0,0.9,0,2,0,2.9s0,2,0,2.9v2.9c0,5.4,0.4,9.3,1.2,11.5c0.7,2.2,3.6,3.2,8.4,3.4h9.3c0.4,0,0.7,0,0.9,0h0.7
		c0.4,0,0.7,0,0.9,0h0.9h1.8c0.5,0,1.1,0,1.6,0c0.5,0,1.1,0,1.6-0.2c0.5,0,1.1-0.2,1.6-0.2c3.4-0.5,5.4-1.6,6.1-3.4
		c0.7-1.8,1.1-4.5,1.1-7.5c0-0.4,0-0.7,0-0.9c0-0.4,0-0.7,0-1.1H52.3z"/>
	<path class="st0" d="M115.5,127.6c4.5,0,7.7,0.9,9.8,2.5c2.1,1.6,3.2,5.2,3.2,10.8c0,3.9-0.5,6.6-1.6,8.3c-1.1,1.6-3.2,2.7-6.8,3.2
		c2.3,0.4,4.1,0.9,5.5,2c1.4,1.1,2.1,3.1,2.1,5.9v12h-4.6v-9.9c0-3.4-0.7-5.6-2-6.6c-1.2-1.1-3.4-1.4-6.2-1.4H88.5v18.1h-4.6v-44.9
		H115.5z M114.6,149.8c3.2,0,5.7-0.5,7-1.6c1.4-1.3,2.1-3.6,2.1-7.5c0-3.8-0.7-6.1-2.3-7c-1.6-0.9-3.9-1.4-6.8-1.4h-26v17.6H114.6z"
		/>
	<path class="st0" d="M135.4,150.4v-2.2c0-0.7,0-1.4,0-2.2c0-1.4,0-3.1,0.2-4.5c0.2-1.4,0.4-3.1,0.5-4.5c0.7-3.9,2.1-6.6,4.3-7.7
		c2.1-1.1,4.6-1.8,7.5-1.8c1.2,0,2.7,0,3.9-0.2c1.2,0,2.7,0,3.9,0h3.9h3.9c7.3,0,12.1,1.3,14.1,3.8c2.1,2.5,3,8.3,3,17.4
		c0,2,0,3.9,0,6.1c0,2-0.2,3.9-0.4,6.1c-0.4,4.3-1.4,7.4-3.2,9c-1.8,1.8-4.3,2.7-7.7,3.1c-1.4,0.2-2.9,0.4-4.5,0.4
		c-1.4,0-2.9,0-4.5,0h-7.8c-1.2,0-2.5,0-3.7,0s-2.5-0.2-3.7-0.4c-0.2,0-0.4,0-0.5,0c-0.2,0-0.4,0-0.5,0c-1.4-0.2-2.7-0.7-3.9-1.4
		c-1.2-0.7-2.3-1.8-3-3.4c-0.5-1.3-1.1-2.7-1.2-4.3c-0.4-1.6-0.5-3.4-0.5-5c-0.2-1.4-0.2-2.7-0.2-4.1
		C135.4,152.7,135.4,151.4,135.4,150.4z M139.9,153.4c0,4.8,0.4,8.6,1.2,10.9c0.9,2.3,3.4,3.6,7.8,3.6l9.1,0.2h3.2
		c0.7,0,1.4,0,2.1,0s1.4,0,2.1,0s1.4,0,2.1-0.2c0.7,0,1.4-0.2,2.1-0.2c2.9-0.4,4.6-1.6,5.3-3.6c0.7-2,1.1-4.7,1.1-7.7
		c0-0.7,0-1.4,0-2.3c0-0.7,0-1.6,0-2.3c0-0.7,0-1.4,0-2.3v-2.3c0-0.7,0-1.4,0-2.2c0-0.7,0-1.6,0-2.3c0-1.4-0.2-3.1-0.4-4.3
		c-0.2-1.4-0.5-2.5-1.1-3.4c-0.2-0.5-0.5-0.9-1.1-1.3c-0.4-0.4-0.9-0.5-1.2-0.7c0,0,0,0-0.2-0.2h-0.2c-0.5-0.2-1.2-0.4-1.8-0.5
		c-0.7,0-1.2-0.2-2-0.2c-0.4,0-0.7,0-1.1,0h-1.1l-8.4-0.2l-8.2,0.2c-3.7,0-6.4,0.7-7.7,2c-1.2,1.3-2,4.3-2.1,9.5l-0.2,6.6v3.2H139.9
		z"/>
	<path class="st0" d="M233,127.6v31c0,6.8-1.2,10.9-3.6,12.2c-2.5,1.3-6.2,2-11.4,2.2h-0.2h-0.2c-1.2,0-2.5,0-3.7,0H210
		c-1.8,0-3.6,0-5.4,0c-1.8,0-3.6,0-5.5-0.2c-3.7-0.2-6.4-1.3-8.2-3.1c-1.8-1.8-2.7-5-2.7-9.5v-32.7h4.6v32.1c0,3.9,0.7,6.3,2.3,7.2
		c1.6,0.9,3.7,1.3,6.8,1.4h8.2l8.7-0.2c3.2,0,5.5-0.5,7.1-1.3c1.6-0.9,2.3-3.4,2.3-7.4v-1.1v-30.5h4.6V127.6z"/>
	<path class="st0" d="M273.7,127.6c4.3,0,7.3,0.9,9.1,2.7c1.8,1.8,2.7,5.2,2.7,10c0,0.7,0,1.4,0,2.3c0,0.9-0.2,1.6-0.2,2.5
		c-0.2,1.3-0.4,2.5-0.7,3.8c-0.4,1.3-0.9,2.2-1.4,2.9c-0.9,1.1-2,1.6-3,2.2c-1.1,0.4-2.3,0.7-3.6,0.7c-0.5,0-1.1,0-1.4,0
		c-0.5,0-0.9,0-1.4,0H246v17.4h-4.8v-44.9h32.5V127.6z M270.4,150.4c3.7,0,6.2-0.4,7.7-1.4c1.4-1.1,2.1-3.8,2.1-8.3
		c0-3.1-0.5-5.2-1.4-6.5c-1.1-1.3-2.9-2-5.7-2h-27.5v18.1H270.4z"/>
	<path class="st0" d="M357.8,127.6c3.4,0,5.9,0.9,7.8,2.5c2,1.6,2.9,4.7,2.9,8.8c0,3.4-0.5,5.7-1.4,7.2c-0.9,1.3-2.9,2.2-5.9,2.9
		c3.4,0.2,5.5,1.1,6.8,2.5c1.2,1.6,1.8,4.3,1.8,8.1c0,5-1.1,8.4-3,10.2c-2.1,1.8-5.2,2.7-9.5,2.7h-31.9v-44.9H357.8z M356,146.8
		c2.5,0,4.5-0.4,5.7-1.4c1.2-0.9,2-3.1,2-6.1c0-2.9-0.5-4.8-1.8-5.7c-1.2-0.9-2.9-1.3-5.3-1.3h-26.8v14.5H356z M356.4,167.9
		c2.7,0,4.8-0.4,6.4-1.3c1.6-0.9,2.3-3.1,2.3-6.3v-1.1c0-0.4,0-0.7,0-1.3c0-1.1-0.4-2.2-0.5-3.1c-0.4-0.9-0.9-1.8-1.8-2.3
		c-0.7-0.4-1.4-0.7-2.1-0.9c-0.7-0.2-1.4-0.2-2.1-0.4h-0.7h-0.7h-0.7h-26.2v16.5H356.4z"/>
	<path class="st0" d="M317,127.6h-5.4v44.9h5.4V127.6z"/>
	<path class="st0" d="M318.4,115.5H310v8.4h8.4V115.5z"/>
</g>
</svg>
