<?xml version="1.0" encoding="utf-8"?>
<!-- Generator: Adobe Illustrator 24.0.1, SVG Export Plug-In . SVG Version: 6.00 Build 0)  -->
<svg version="1.1" id="Layer_1" xmlns="http://www.w3.org/2000/svg" xmlns:xlink="http://www.w3.org/1999/xlink" x="0px" y="0px"
	 width="1808.14px" height="701.75px" viewBox="0 0 1808.14 701.75" style="enable-background:new 0 0 1808.14 701.75;" xml:space="preserve">
<style type="text/css">
	.st0{fill:#102538;}
	.st1{fill:#FFFFFF;}
	.st2{fill:#D72A2F;}
</style>
<g>
	<path class="st0" d="M689.89,351.85c0,186.39-151.1,337.48-337.48,337.48S14.93,538.24,14.93,351.85S166.03,14.37,352.41,14.37
		S689.89,165.46,689.89,351.85"/>
	<path class="st1" d="M283.68,277.46c-13.48,0-25.59,3.35-36.35,10.07c-10.77,6.71-19.1,15.69-25,26.96
		c-5.91,11.26-8.87,23.49-8.87,36.68c0,13.65,3.02,26.22,9.05,37.71c6.02,11.49,14.42,20.59,25.17,27.3
		c10.75,6.71,22.87,10.07,36.35,10.07s25.65-3.64,36.53-10.93c10.87-7.27,19.73-17.86,26.59-31.73h70.21
		c-5.44,20.02-14.66,37.48-27.65,52.38c-13.01,14.91-28.61,26.45-46.82,34.63c-18.2,8.2-37.58,12.28-58.15,12.28
		c-18.67,0-36.35-3.18-53-9.56c-16.67-6.36-31.63-15.81-44.87-28.31c-13.94-12.98-24.18-27.47-30.66-43.51
		c-6.5-16.04-9.76-33.84-9.76-53.4c0-22.07,6.04-42.89,18.08-62.45c12.06-19.56,28.5-35.26,49.29-47.09
		c20.81-11.83,43.38-17.74,67.74-17.74c18.2,0,34.75,2.5,49.64,7.5c14.89,5.01,28.84,12.86,41.83,23.56
		c25.06,20.69,39.83,43.9,44.32,69.61h-70.21c-5.67-13.65-14.24-24.4-25.7-32.26C309.97,281.39,297.38,277.46,283.68,277.46"/>
	<polygon class="st2" points="887.32,225.6 887.32,282.23 791.95,282.23 791.95,325.24 883.91,325.24 883.91,381.88 791.95,381.88 
		791.95,478.11 714.53,478.11 714.53,225.6 	"/>
	<polygon class="st2" points="1089.33,225.6 1089.33,282.23 990.96,282.23 990.96,321.49 1086.34,321.49 1086.34,378.13 
		990.96,378.13 990.96,421.46 1089.33,421.46 1089.33,478.11 913.55,478.11 913.55,225.6 	"/>
	<polygon class="st2" points="1795.17,225.38 1795.17,282.02 1696.8,282.02 1696.8,321.27 1792.17,321.27 1792.17,377.92 
		1696.8,377.92 1696.8,421.25 1795.17,421.25 1795.17,477.91 1619.38,477.91 1619.38,225.38 	"/>
	<polygon class="st2" points="1185.94,478.11 1115.52,478.11 1115.52,225.59 1178.95,225.59 1291,385.3 1287.89,225.59 
		1358.31,225.59 1358.31,478.11 1294.5,478.11 1184.01,323.87 	"/>
	<path class="st2" d="M1489.77,274.52c-7.7,0-14.27,1.94-19.68,5.8c-5.42,3.88-8.12,8.54-8.12,13.99c0,7.06,3.7,12.76,11.11,17.07
		c7.43,4.33,20.97,9.9,40.63,16.73c23.11,7.96,40.92,15.7,53.47,23.2c12.55,7.51,21.32,15.48,26.3,23.89
		c4.99,8.41,7.48,18.42,7.48,30.03c0,24.35-9.83,43.33-29.5,56.99c-19.68,13.65-46.61,20.46-80.85,20.46
		c-35.07,0-62.86-7.16-83.39-21.5c-20.51-14.33-30.79-34.8-30.79-61.42v-5.46h80.41c0.29,10.46,3.43,18.83,9.4,25.08
		c6,6.26,13.98,9.38,23.96,9.38c8.27,0,15.4-2.32,21.39-6.99c5.98-4.67,8.97-10.41,8.97-17.24c0-7.96-4.78-14.5-14.32-19.61
		c-9.56-5.12-23.17-10.41-40.84-15.88c-1.15-0.45-2.5-0.85-4.07-1.18c-1.57-0.34-3.06-0.86-4.49-1.55
		c-25.95-8.41-44.97-18.3-57.11-29.68c-12.11-11.38-18.17-25.26-18.17-41.64c0-13.88,5.06-26.5,15.18-37.87
		c10.12-11.38,23.66-20.31,40.64-26.79c16.96-6.49,35.14-9.73,54.53-9.73c20.24,0,38.91,3.54,56.02,10.58
		c17.1,7.04,29.73,15.98,37.85,26.79c8.12,10.8,12.33,24.5,12.62,41.12h-79.98c-1.72-8.87-4.86-15.18-9.41-18.94
		C1504.44,276.4,1498.03,274.52,1489.77,274.52"/>
	<path class="st1" d="M412.94,357.65c0-25.7,5.98-48.97,17.91-69.78c11.94-20.81,28.42-37.19,49.47-49.14
		c21.04-11.95,44.68-17.92,70.92-17.92c25.05,0,48.23,5.75,69.49,17.24c21.28,11.5,38.13,27.13,50.53,46.92
		c12.42,19.79,18.62,41.52,18.62,65.18c0,24.56-6.03,46.97-18.08,67.22c-12.06,20.26-28.44,36.23-49.11,47.94
		c-20.68,11.72-43.42,17.57-68.26,17.57c-24.59,0-47.69-5.29-69.32-15.87c-21.62-10.58-39.06-25.42-52.3-44.53
		C419.57,403.38,412.94,381.77,412.94,357.65 M622.87,352.19c0-13.19-3.07-25.53-9.22-37.02c-6.15-11.48-14.66-20.64-25.53-27.47
		c-10.88-6.82-23.18-10.23-36.87-10.23c-13.72,0-25.95,3.35-36.7,10.07c-10.76,6.71-19.21,15.69-25.36,26.94
		c-6.14,11.27-9.21,23.5-9.21,36.69c0,13.88,3.07,26.5,9.21,37.87c6.15,11.38,14.72,20.42,25.72,27.13
		c10.99,6.71,23.46,10.07,37.4,10.07c13.48,0,25.59-3.35,36.36-10.07c10.75-6.71,19.14-15.69,25.17-26.96
		C619.85,377.96,622.87,365.61,622.87,352.19 M622.87,352.19c0-13.19-3.07-25.53-9.22-37.02c-6.15-11.48-14.66-20.64-25.53-27.47
		c-10.88-6.82-23.18-10.23-36.87-10.23c-13.72,0-25.95,3.35-36.7,10.07c-10.76,6.71-19.21,15.69-25.36,26.94
		c-6.14,11.27-9.21,23.5-9.21,36.69c0,13.88,3.07,26.5,9.21,37.87c6.15,11.38,14.72,20.42,25.72,27.13
		c10.99,6.71,23.46,10.07,37.4,10.07c13.48,0,25.59-3.35,36.36-10.07c10.75-6.71,19.14-15.69,25.17-26.96
		C619.85,377.96,622.87,365.61,622.87,352.19"/>
	<path class="st2" d="M622.87,352.19c0-13.19-3.07-25.53-9.22-37.02c-6.15-11.48-14.66-20.64-25.53-27.47
		c-10.88-6.82-23.18-10.23-36.87-10.23c-13.72,0-25.95,3.35-36.7,10.07c-10.76,6.71-19.21,15.69-25.36,26.94
		c-6.14,11.27-9.21,23.5-9.21,36.69c0,13.88,3.07,26.5,9.21,37.87c6.15,11.38,14.72,20.42,25.72,27.13
		c10.99,6.71,23.46,10.07,37.4,10.07c13.48,0,25.59-3.35,36.36-10.07c10.75-6.71,19.14-15.69,25.17-26.96
		C619.85,377.96,622.87,365.61,622.87,352.19"/>
	<g>
		<path class="st0" d="M863.85,634.51h-13.22V529.55h13.22V634.51z"/>
		<path class="st0" d="M901.62,634.51H888.4V529.55h12.12l56.02,79v-79h13.22v104.96h-11.64l-56.49-80.26v80.26H901.62z"/>
		<path class="st0" d="M1022.32,634.51h-13.22v-93.63h-26.75v-11.33h66.57v11.33h-26.6V634.51z"/>
		<path class="st0" d="M1074.09,575.97h41.39v11.33h-41.39v35.88h41.39v11.33h-54.6V529.55h54.6v11.33h-41.39V575.97z"/>
		<path class="st0" d="M1185.19,622.55v11.96h-50.2V529.55h13.22v93H1185.19z"/>
		<path class="st0" d="M1250.81,622.55v11.96h-50.2V529.55h13.22v93H1250.81z"/>
		<path class="st0" d="M1279.45,634.51h-13.22V529.55h13.22V634.51z"/>
		<path class="st0" d="M1399.84,577.7c0.16,2.2,0.16,5.04,0.16,5.98c0,14-3.15,23.76-10.86,33.52c-10.07,12.59-23.6,19.2-39.5,19.2
			c-29.9,0-51.77-22.82-51.77-54.13c0-31.79,21.72-54.6,51.77-54.6c15.89,0,29.58,6.61,39.5,19.04l-9.91,8.03
			c-4.09-4.56-5.98-6.45-8.81-8.34c-5.82-4.25-13.22-6.61-20.77-6.61c-21.72,0-38.24,18.25-38.24,42.33
			c0,23.76,16.52,42.17,37.93,42.17c11.64,0,23.76-6.14,30.21-15.42c4.09-5.51,5.67-10.7,6.77-19.83h-36.51v-11.33h50.03
			L1399.84,577.7L1399.84,577.7z"/>
		<path class="st0" d="M1429.58,575.97h41.39v11.33h-41.39v35.88h41.39v11.33h-54.6V529.55h54.6v11.33h-41.39V575.97z"/>
		<path class="st0" d="M1503.7,634.51h-13.22V529.55h12.12l56.02,79v-79h13.22v104.96h-11.64l-56.49-80.26v80.26H1503.7z"/>
		<path class="st0" d="M1679.01,618.62c-10.54,12.43-22.19,17.78-38.4,17.78c-14.63,0-27.07-5.35-36.04-15.42
			c-8.81-9.91-14.01-24.23-14.01-38.87c0-31.47,21.24-54.45,50.2-54.45c9.44,0,18.73,2.52,26.28,7.08
			c4.25,2.67,7.08,5.19,12.27,10.86l-9.13,8.5c-10.23-10.54-17.94-14.32-29.11-14.32c-21.4,0-36.98,17.78-36.98,42.33
			c0,24.39,15.89,42.17,37.61,42.17c11.49,0,20.3-4.56,28.48-14.48L1679.01,618.62z"/>
		<path class="st0" d="M1706.23,575.97h41.39v11.33h-41.39v35.88h41.39v11.33h-54.6V529.55h54.6v11.33h-41.39V575.97z"/>
	</g>
	<g>
		<path class="st0" d="M1766.17,544.84h-2.1v-14.87h-4.25v-1.8h10.57v1.8h-4.22V544.84z"/>
		<path class="st0" d="M1774.49,544.84h-2.1v-16.67h2.07l6.17,12.5l6.25-12.5h2.05v16.67h-2.1v-12.2l-6.2,12.37l-6.15-12.4v12.23
			H1774.49z"/>
	</g>
</g>
</svg>
