<svg xmlns="http://www.w3.org/2000/svg" viewBox="0 0 369.52 117.54" width="369.52" height="117.54"><defs><style>.cls-1{fill:#fff;}</style></defs><title>Asset 2</title><g id="Layer_2" data-name="Layer 2"><g id="Layer_1-2" data-name="Layer 1"><path class="cls-1" d="M271.73,25l0,0,0,0a.56.56,0,0,0,.44.62,3.08,3.08,0,0,0,1.95,0s-1.28-.41-3.29-.93C270.93,25.2,271.41,25,271.73,25Z"/><polygon class="cls-1" points="258.49 37.13 258.49 37.13 258.49 37.13 258.49 37.13"/><polygon class="cls-1" points="266.01 47.96 266.01 47.96 266.01 47.96 266.01 47.96"/><polygon class="cls-1" points="250.91 35.13 250.91 35.13 250.91 35.13 250.91 35.13"/><path class="cls-1" d="M369.52,3.23l0,0c-.26.1-.32,0-.27-.25l0,0a9.68,9.68,0,0,0-3.82-.36c-.14,0-.28,0-.37-.14l-.54.06a2,2,0,0,1-1.87.38l-.26.05a1.07,1.07,0,0,1-1.31.36l-.26,0a.65.65,0,0,1-1,.33c-.34-.18-.08-.51.06-.79A1.82,1.82,0,0,0,358.26.14c-.59,0-1.21.2-1.78-.14l-.26.05c-.39.26-.77.58-1.3.39l-.43.13a1.64,1.64,0,0,1-1.5.74l-.13.06c0,.44-.23.49-.58.35l-.14.07a.22.22,0,0,1-.07.31,17.43,17.43,0,0,0-2.7,2,.45.45,0,0,1-.46.11l-.29.26c0,.32-.09.49-.44.42h0c0,.34-.09.47-.42.37l0,0a.19.19,0,0,1,0,.26,22.63,22.63,0,0,1-2.29,1.72s-.17,0-.25,0a.14.14,0,0,0-.12.06,1.24,1.24,0,0,1-1.28.82l0,0c.06.38-.14.37-.4.28a.08.08,0,0,0-.09,0c0,.31-.15.48-.49.32l-.22.1c0,.58-.62.6-1,.8-1.78,1.07-3.61,2.06-5.42,3.08a.45.45,0,0,1-.52,0l-.22.08c0,.49-.44.44-.68.58-.81.48-1.65.89-2.48,1.33a.41.41,0,0,1-.47,0l-.22.08a1.35,1.35,0,0,1-1.49.76l-.22.09a1.06,1.06,0,0,1-1.2.64l-.21.08c-.06.4-.29.5-.64.34l-.22.08c-.07.49-.53.63-.85.73-.72.22-1.35.64-2,.89-.25.09-.51.38-.77.1s-.14-.63,0-.94c0-.15.11-.32.31-.34l0-.41a2,2,0,0,0-1.55-1.29l-.23.1c0,.26-.08.35-.33.24l-.2.09c-.11.47-.46.57-.88.53h0a.87.87,0,0,1-1,.62l-.13.06a1.47,1.47,0,0,1-1.79.74l-.26.06c-.14.4-.37.51-.73.24l-.26.05c-.11.26-.26.31-.45.07l-.27,0a.75.75,0,0,1-1.15.24l-1.11.1c-.11.27-.39.28-.59.3a29.35,29.35,0,0,1-4.34.17c-.08,0-.15-.09-.22-.14-2.69,0-5.39-.09-8.08.09a4.74,4.74,0,0,1-3.16.34l-.69.08a.75.75,0,0,1-1.16.21l-.4.09c-.07.23-.17.25-.31.05l-.55.07c-.19.45-.49.5-.87.24l-.26,0c-.45.27-.86.67-1.45.34l-.73.15c-.2.49-.55.53-1,.31l-.59.13c-.15.46-.45.5-.84.29l-.26.06c-.25.65-.92.5-1.39.66s-1.05.63-1.7.44l-.37.11a1.81,1.81,0,0,1-1.69.71l-.34.11a1.55,1.55,0,0,1-1.44.68l-.34.12c-.06.31-.2.46-.52.26l-.49.15c-.05.39-.23.51-.57.25l-.26.06c-.33.71-.86.65-1.44.36l-.83.09a1.77,1.77,0,0,1-2.17,0l-.68-.07a3.08,3.08,0,0,1-1.95,0,.56.56,0,0,1-.44-.62l0,0,0,0c-.32-.07-.8.18-.9-.35,2,.52,3.29.93,3.29.93l-8.38-7L268.62,14l-4.87,1.25,2.38-5-6,4.5c.38-4.62,6-9.38,6-9.38-4.5.88-11.62,9.63-11.62,9.63V10.39l-6.14,10.12a3.67,3.67,0,0,0-.61,2.08A2,2,0,0,0,247,24c0,.3-.07.67-.47.79l0,.26a1.54,1.54,0,0,1-.6,1.84A2.37,2.37,0,0,0,245,28a1.8,1.8,0,0,1-1.36,1.19A27.25,27.25,0,0,0,240,30.44c-.56.22-1.12.47-1.68.71-.17.08-.33.22-.48,0l-.33.11a.26.26,0,0,1-.11.31c-.68.43-1.36.85-2,1.27-.06,0-.18,0-.27,0l0,0c.05.33-.08.47-.41.4l0,0c.13.47-.63.74-.27,1.31a7.88,7.88,0,0,1,1.82-1.16,11.62,11.62,0,0,1,3-.74c.86-.1,1.74,0,2.61-.16.2,0,.5-.1.57.25l.28,0a1.61,1.61,0,0,1,1.44,0l.42,0a2.4,2.4,0,0,1,3.12.41,2.76,2.76,0,0,1,.66,2.74,2.82,2.82,0,0,0-.09.48s0,.08.05.14c.65-.11.78-.92,1.41-1.05l.07-.22a16,16,0,0,0-.22-2.38.09.09,0,0,0-.08-.05c-.72,0-.87-.38-.6-1a1.68,1.68,0,0,1,1.25-1.15.09.09,0,0,0,.05-.08c.2-.36,0-1.08.78-.94l.42,0c.43-.31.54.12.74.33a4,4,0,0,0,1.23,0c.27-.24.5-.6,1-.41a.1.1,0,0,0,.09-.05c0-.31.14-.45.45-.42a.13.13,0,0,0,.06-.11.25.25,0,0,1,0-.06c-.24-1.63-.09-1.82,1.54-1.83.49,0,1-.22,1.47.23a1.53,1.53,0,0,1,.26,2.17c-.25.45,0,.44.26.49l0,0c-.05-.32.06-.47.4-.38l0,0c-.08-.33.06-.45.38-.39l0,0c-.08-.24,0-.34.26-.28l.23-.32c.06-.53.48-.85.76-1.25a7.49,7.49,0,0,0,.88-1.42c-.19-.2-.49,0-.66-.19l-.26,0a.66.66,0,0,1-.65.45c-.92,0-1.77.45-2.69.41a21.19,21.19,0,0,0-3.13.35c-.26,0-.56.12-.8-.11l-1.25.06c-.19.3-.39.58-.82.39a.12.12,0,0,0-.1.07c0,.31-.12.45-.42.45a.09.09,0,0,0-.05.09c.18.48-.13.79-.41,1.1l-.07.26c0,.39-.35.67-.89.81s-1.45-.41-1.4-1v-.42c-.22-.23-.06-.42,0-.63a9.2,9.2,0,0,1,4.35-4.06,17.58,17.58,0,0,1,3.94-1.32l.75-.14a51.6,51.6,0,0,1,7.59.82,5.82,5.82,0,0,1,.48,3.83,6,6,0,0,0,1.74-2,6.34,6.34,0,0,0,.53-1.06.38.38,0,0,1,.16-.23L268,24l0,0a23.62,23.62,0,0,0,5.2,2.9,12.08,12.08,0,0,0,3.18,1,1.67,1.67,0,0,1,1,.47h.42a27.56,27.56,0,0,1,4.11,0l.26,0c1.39-.68,2.79-1.35,4.16-2.06a9.72,9.72,0,0,0,1.56-.79,10.85,10.85,0,0,1,2.26-.85,28.09,28.09,0,0,1,4.26-1.05,5.13,5.13,0,0,1,2.44-.05h.41c.36-.57,1-.42,1.47-.44a30.64,30.64,0,0,1,4.71.09c.25,0,.46.08.56.34H305c.65-.58,1.47-.36,2.22-.46,1.08-.15,2.12-.49,3.17-.67.77-.14,1.41-.72,2.27-.55.33.07.7-.3,1.08-.43,1.28-.43,2.53-1,3.79-1.44.9-.34,1.3,0,1.28.92a4,4,0,0,1-.47,1.61c-.94,2-2.05,4-3.12,6a15.85,15.85,0,0,1-4.51,4.76,41,41,0,0,1-4.83,3.09c-.84.49-1.73.9-2.62,1.31-1.43.66-2.85,1.38-4.32,1.92-1.24.45-2.5.89-3.76,1.31s-2.36.74-3.54,1.06c-.82.22-1.7.37-2.52.59-1.49.41-3,.24-4.52.59a4.69,4.69,0,0,1-3-.15,2,2,0,0,0-.7-.07,12.5,12.5,0,0,1-4.53-1.13,3.2,3.2,0,0,0-1.33-.54A18.1,18.1,0,0,0,279.42,45,19.23,19.23,0,0,0,284,47.06a33.63,33.63,0,0,0,4,.85,13.8,13.8,0,0,0,3.8.21,16.61,16.61,0,0,0,4.43-.62,1.32,1.32,0,0,1,.49-.05,12.43,12.43,0,0,0,3-.68,20.92,20.92,0,0,0,2.94-.94,22.4,22.4,0,0,0,2.69-1.3,31.73,31.73,0,0,0,9.32-7.85,37.31,37.31,0,0,0,3.91-5.75c.79-1.42,1.54-2.86,2.22-4.32a20.2,20.2,0,0,0,1.3-3.31,1.91,1.91,0,0,1,.95-1.18c1.4-.76,2.66-1.72,4-2.56,1.85-1.16,3.68-2.36,5.53-3.53l4.54-2.86,5.51-3.46c1.87-1.17,3.75-2.31,5.6-3.5s3.67-2.33,5.43-3.61A2.4,2.4,0,0,1,355,2c.23,0,.5,0,.63.22a.75.75,0,0,1,0,.8,7.58,7.58,0,0,1-2.72,2.31,77.31,77.31,0,0,0-9.67,6.73c-.34.27-.85.38-1,1A23.1,23.1,0,0,0,345,11.34a67.19,67.19,0,0,1,6.08-3.27.36.36,0,0,1,.4,0,1.06,1.06,0,0,0,.66-.21.17.17,0,0,1,0-.24.13.13,0,0,1,.21.07L353,7.6c0-.38.2-.53.55-.26l.62-.13c.1-.53.4-.55.8-.32l.27,0c.36-.59.88-.53,1.44-.38l.28,0c.17-.45.46-.55.85-.26h.69a.32.32,0,0,1,.57,0c.19.27-.12.34-.28.44s-.37.55-.72.19l-.59.15c0,.34-.17.55-.55.3l-.26.06c-.17.27-.33.57-.74.35l-.26.07c-.16.3-.32.6-.73.33l-.38.11a1.18,1.18,0,0,1-1.19.59l-.45.16a1.43,1.43,0,0,1-1.4.71l-.46.14c0,.45-.26.49-.61.33a.73.73,0,0,0-.48.29c-.2.27-.37.59-.8.4l-.37.12c0,.25-.05.51-.41.27l-.44.16c0,.1,0,.27-.11.31-.77.42-1.54.83-2.32,1.23,0,0-.12,0-.19-.06l-.23.09c0,.29-.13.5-.48.31a.71.71,0,0,0-.51.27c0,.27-.13.3-.35.19a.46.46,0,0,0-.37.23c0,.27-.13.29-.34.18l-.15.07c0,.55-.48.4-.79.49l-.25.18c-.13.22-.18.59-.59.35l-.32.14c0,.4-.26.48-.61.36l-.13.05c0,.37-.14.52-.51.32-.25,0-.39.2-.55.35a4.75,4.75,0,0,1-2.74,1.36.77.77,0,0,0-.58.2A29.71,29.71,0,0,1,331,21.33a45.19,45.19,0,0,0-9.25,7.87,36.51,36.51,0,0,0-4.37,6.29,34.94,34.94,0,0,0-2.2,4.92,34.12,34.12,0,0,1-2.23,5,25,25,0,0,1-6.1,7.11,17.76,17.76,0,0,1-4.37,2.64c-.46.2-1,.11-1.48.37-1.86.95-1.36,1.88-.75,3.07a24.84,24.84,0,0,0,2,2.73c.11.16.25.28.19.5l0,0,0,0c.63.16.9.76,1.34,1.15,1,.91.76,1.35.14,2.2-1,1.33-1.82,2.72-2.73,4.08s-1.91,2.83-2.87,4.25l-3.87,5.76a9.39,9.39,0,0,1-3.83,3.64,1.71,1.71,0,0,1-.52.19,5.32,5.32,0,0,1-2.75-.53c-1-.43-1.33-.6-.34-1.82-1.37-.09-2.06-1.26-3.06-1.94a.7.7,0,0,1-.22-.58A4.31,4.31,0,0,1,284.83,75a50.13,50.13,0,0,1,6.36-5.17c1.3-.91,2.65-1.77,4-2.63a3.51,3.51,0,0,1,1.36-.56c.47-.07.55-.28.32-.75a23.84,23.84,0,0,1-1.66-3.25,6.29,6.29,0,0,1-.09-2.81c.08-.51.48-.23.7,0,.59.54,1.18,1.08,1.72,1.67,1.06,1.19,2.35,2.2,3,3.69.11.23.21.47.32.71,1.07-1.15,1.08-1.71.34-3-1.06-1.87-2.14-3.72-3.31-5.52a.81.81,0,0,1,.21-1.23,12.86,12.86,0,0,0,1.33-1.26c.16-.16.39-.3.28-.59l.39,0c-.09-.23-.15-.23-.39,0h0a16.18,16.18,0,0,1-4.28,2.39c-.66.24-1.33.71-2.12.49l-.41,0a.78.78,0,0,1-.74.44,5.34,5.34,0,0,1-2.13,0h-1.71c-1.36.11-2.73.4-4-.38l-.55,0a2.17,2.17,0,0,1-1.87-.39l-.26,0a4.8,4.8,0,0,1-2.3-.5c-.39-.13-1,.05-1.14-.61l-.26,0c-.45.24-.69,0-.88-.37l-.26-.05c-.52.24-.89-.21-1.26-.38a32,32,0,0,1-5.41-3.08c-.17-.12-.3-.22-.27-.45a.1.1,0,0,0-.09,0A1.78,1.78,0,0,1,268.38,50l0,0c-.39.15-.55-.22-.75-.39-.58-.5-1.28-.9-1.58-1.67-.29,0-.54,0-.3-.42v-.28c-.1-.06-.09-.15,0-.19s.15,0,.22,0a.05.05,0,0,0,.05,0q-.13-.5.38-.4l0,0c.11-.5.25-1,.83-1.14a.14.14,0,0,0,0-.12c-.16-.45.21-.78.38-1.07.33-.56.11-1.34.76-1.73l0-.27a2.2,2.2,0,0,1,0-1.38,3.37,3.37,0,0,0,0-1.3,4.25,4.25,0,0,1-1.67,1.89c-.17.11-.32.32-.54.08l-.4.06a1.16,1.16,0,0,1-1.75,0l-.4,0c-.53.32-.91-.2-1.25-.37a6.7,6.7,0,0,1-2.15-1.57c-.09-.11-.18-.22-.1-.38h0a.93.93,0,0,1-.78-1l-.11-.22c-.49-.07-.57-.49-.72-.86A7,7,0,0,1,256.61,36l-.27,0a1.18,1.18,0,0,1-1.15,0l-.27,0c-.38.61-1.14.52-1.66.88-.25.17-.52.56-.91.22l-.46.1c0,.35-.16.55-.54.3l-.26.07a3.81,3.81,0,0,1-2.16,1.06l-.26.08a.45.45,0,0,1-.29.45c-.2.07-.45.13-.6,0s0-.35.17-.47c.32-.3.47-.84,1.07-.75l.79-.62A3.13,3.13,0,0,1,251.87,36l.21-.1c0-.34.14-.47.48-.36l0,0c-.06-.24,0-.33.26-.26l0,0c-.11-.36,0-.56.39-.59l0-.59a.4.4,0,0,1-.19-.48h0c-.26,0-.29-.11-.22-.31l0,0c-.34.09-.44-.09-.43-.39a.14.14,0,0,0-.11-.05c-.06,0-.16.07-.19,0-.51-.42-.64,0-.78.36l.05.26c.59.47.35,1.32-.48,1.7a.37.37,0,0,1-.43.43c-.08.49-.45.63-.87.71a.11.11,0,0,0-.1,0,.44.44,0,0,1-.25.4c-.85.59-1.72,1.16-2.57,1.75a14.58,14.58,0,0,0-3.8,3.19,3.63,3.63,0,0,0-.94,2.81c.45-.13.6-.53.84-.82a8.65,8.65,0,0,1,6.39-3.41,13.56,13.56,0,0,0,3.89-.68A2.63,2.63,0,0,1,256.18,41a9.44,9.44,0,0,1,.88,2.87,7.35,7.35,0,0,0,1.29,2.93,27.12,27.12,0,0,0,9,8.24,34.82,34.82,0,0,0,5.43,2.64,37.6,37.6,0,0,0,4.72,1.41,30.92,30.92,0,0,0,7.94.72,1.19,1.19,0,0,1,1.12.59c.93,1.42,2.17,2.6,3.1,4a2.36,2.36,0,0,1,.33,1.79c.46-.38.82-.65,1.14-1,.65-.63-.07-1.14-.29-1.56a26.57,26.57,0,0,0-2-3.07c-.27-.39-.38-.72,0-1s1.28-.27,1.44.07a19.49,19.49,0,0,0,2.42,3.69.27.27,0,0,1,0,.33.09.09,0,0,0,.06.09c.57.14.82.66,1.11,1.06a.43.43,0,0,1-.39.72h0c.09.35-.24.44-.42.59-1.53,1.26-3.07,2.49-4.61,3.74a.35.35,0,0,1-.39.08l-.13.13c-.22.67-.88.93-1.34,1.35-.87.81-1.84,1.51-2.76,2.25-.19.15-.36.32-.62.2l0,0c0,.09,0,.22,0,.26a11.29,11.29,0,0,1-3.85,2.58c-.42.13-.8.57-1.3.24h-.71c-.47.31-.86-.08-1.27-.18a4.69,4.69,0,0,1-1.71-.8c-.52-.4-.42-.85.19-1.09.18-.07.47,0,.5-.32s-.25-.24-.4-.33a24.59,24.59,0,0,0-6-2.31A47.06,47.06,0,0,0,264,70.86c-1.2-.21-2.43-.31-3.65-.41s-2.5-.44-3.78-.48c-3.9-.12-7.8-.34-11.71-.11-1.56.09-3.12,0-4.69.15s-2.88.21-4.32.31c-.23,0-.47.09-.69-.07l-.41,0a8.44,8.44,0,0,1-2.69.44c-2,.15-4,.43-6,.68l-4,.51c-1.21.15-2.38.5-3.6.63-1.48.15-3,.35-4.41.64a46.12,46.12,0,0,0-5.74,1.18,15,15,0,0,1-2.08.31c-3.1.57-6.21,1.23-9.34,1.57a64.07,64.07,0,0,1-13.39.27,56.42,56.42,0,0,1-6.92-1,38.84,38.84,0,0,1-5-1.35,46.58,46.58,0,0,1-5-2.11,37.53,37.53,0,0,1-6.65-4.31,34.78,34.78,0,0,1-4-3.85,29.57,29.57,0,0,1-3.75-5.43c-.82-1.5-1.71-3-2.58-4.44l-3.78-6.43c-1-1.73-2-3.49-3-5.21a.92.92,0,0,1,.11-1.31c2.54-2.69,5.11-5.35,7.57-8.11,1.87-2.1,3.88-4.06,5.72-6.17.16-.19.48-.33.36-.63s-.44-.22-.7-.22h-6.9c-1.19,0-2.37,0-3.56,0a1.87,1.87,0,0,0-1.65.77c-2.37,2.83-4.8,5.62-7.25,8.39-1.5,1.7-3,3.43-4.43,5.14a3.48,3.48,0,0,1-.48.52c-.35.27-.62.2-.7-.27a2.91,2.91,0,0,1,0-.5q0-10.46,0-20.91a5,5,0,0,0-3.42-4.92,4.77,4.77,0,0,0-1.65-.29c-1.54,0-3.08,0-4.62,0-.65,0-.79.22-.79.82,0,4.93,0,9.86,0,14.79q0,18.32,0,36.63c0,1,0,1,1,1h8.46c1,0,1,0,1-1q0-6.69,0-13.37c0-.45,0-.9.07-1.34a2,2,0,0,1,1.46-1.76,2.11,2.11,0,0,1,2.31.43,13.2,13.2,0,0,1,2.51,3.55c.51,1,1.07,2,1.61,3,.95,1.75,1.86,3.51,2.86,5.23a59,59,0,0,0,3.36,5.2,39.07,39.07,0,0,0,6.54,7A30.37,30.37,0,0,0,157,77.61a40.65,40.65,0,0,0,5.15,2.2,36.44,36.44,0,0,0,5,1.38c1.32.26,2.71.37,4,.59,3.92.63,7.85.35,11.77.27,2.44,0,4.89-.37,7.33-.66,1.52-.18,3-.41,4.56-.57a23.71,23.71,0,0,0,3.91-.58c.63-.18,1.29,0,1.9-.19a21.86,21.86,0,0,1,3.76-.59c2.38-.31,4.75-.72,7.14-1,1.7-.17,3.38-.6,5.08-.87s3.3-.51,4.93-.82c2.27-.42,4.56-.72,6.85-1,1.6-.19,3.22-.43,4.83-.59,1.9-.18,3.81-.27,5.7-.6,1-.18,2.08-.1,3.12-.19a132.81,132.81,0,0,1,14.7-.27,50.41,50.41,0,0,1,6.12.61c1,.16,2.11.3,3.12.55a18.45,18.45,0,0,1,4.4,1.44.81.81,0,0,1,.52.89,10.41,10.41,0,0,0,0,1.21c0,.6.35.91.92.78s.68.15.68.63a2.2,2.2,0,0,0,1.05,1.88,1,1,0,0,0,1.19.09.67.67,0,0,1,.95.16,3,3,0,0,0,2.72.86c.21,0,.35-.05.33-.33,0-.55.33-.59.7-.43a30.87,30.87,0,0,0,3,1,.65.65,0,0,1,.12.07c.35.2.95-.07,1.09.48a6.22,6.22,0,0,1,0,1.2,6.23,6.23,0,0,0,.23,1.88c.23.66.64.65,1,.44.76-.43.75,0,.76.54a3,3,0,0,0,.82,1.91,1.06,1.06,0,0,0,1.57.22,1,1,0,0,1,1.34.05c.89.76,1.91.51,2.9.22.35-.1.18-.28.06-.48a3.41,3.41,0,0,1-.52-2.15c.05-.58.42-.85.9-.56a5.93,5.93,0,0,0,2.63.7,47.93,47.93,0,0,0,6.65.37c1.34-.09,2.68-.16,4-.29a2.5,2.5,0,0,1,1.66.51A11.86,11.86,0,0,1,312.28,94a34.08,34.08,0,0,0,6.57,10.25,26.63,26.63,0,0,0,9.51,6.81,24.63,24.63,0,0,0,8.64,1.82c1.88.07,3.78.15,5.65.4,1.56.21,3.14.41,4.65.77,1.86.44,3.75.82,5.6,1.37s3.68,1.21,5.55,1.7c.4.11.69.54,1.25.33a30,30,0,0,0-3.53-2.11c-1.22-.64-2.47-1.23-3.75-1.75-.8-.32-1.61-.65-2.43-.93a38.43,38.43,0,0,0-4.17-1.21c-1-.22-2.09-.38-3.12-.58-1.81-.35-3.66-.27-5.48-.59-1-.18-2.09-.36-3.11-.58a23.79,23.79,0,0,1-4-1.27,25.76,25.76,0,0,1-5.68-3.17,22.29,22.29,0,0,1-3.4-3.19,25.73,25.73,0,0,1-4.09-6.78A26,26,0,0,0,313.5,89c-.15-.18-.38-.43-.27-.69s.45-.2.71-.2a34.3,34.3,0,0,1,6.6.69,31.51,31.51,0,0,1,5.3,1.37,28.11,28.11,0,0,1,6.44,3.24,29.24,29.24,0,0,1,4.79,4.47,12.6,12.6,0,0,0,5,3.27,2,2,0,0,0,1,0A16.71,16.71,0,0,1,338.43,97a31.53,31.53,0,0,0-8-7.14,34.23,34.23,0,0,0-5.26-2.67A37.51,37.51,0,0,0,321,85.82a34.43,34.43,0,0,0-10.44-1.15,67.6,67.6,0,0,1-7.23.21,34.11,34.11,0,0,1-5.57-.48c-.48-.11-1-.08-1.48-.15-.2,0-.48,0-.56-.24a.53.53,0,0,1,.28-.6.69.69,0,0,0,.32-.85c-.46-1.92.26-3.55,1.23-5.13a94.31,94.31,0,0,1,7.1-9.85,8.75,8.75,0,0,1,2.4-2.37.83.83,0,0,0,.22-1.25c-.41-.68-.9-1.31-1.32-2a9.05,9.05,0,0,1-1.36-4.17c0-.16,0-.34.14-.45V55.93c-.1,0-.17-.16-.12-.22a2.29,2.29,0,0,1,1.58-1.07.09.09,0,0,0,.07-.07c0-.51.33-.67.77-.68l0,0c-.07-.34.05-.47.39-.39l0,0q-.11-.51.4-.36A.08.08,0,0,0,308,53c-.12-.34.07-.36.32-.32h0c0-.45.21-.79.74-.78l0,0c-.08-.34,0-.47.39-.39l0,0c-.11-.34.1-.35.34-.34a.6.6,0,0,1,.61-.69.08.08,0,0,0,.08-.06c0-.21,0-.42.33-.37,0-.34.13-.62.57-.58a.09.09,0,0,0,.06-.08c0-.54.33-.78.8-.9h0c.09-.51.2-1,.87-1l.35-.37c-.14-.34.07-.38.33-.36a.08.08,0,0,0,.06-.07c-.11-.32.08-.37.33-.37l.46-.55c-.16-.35.1-.28.28-.28a.08.08,0,0,0,.06-.08,2.4,2.4,0,0,1,1.38-1.62l.22-.22c-.1-.35.06-.48.4-.45l.45-.55c-.11-.58.44-.8.7-1.14s.6-1,1.22-1.06a.08.08,0,0,0,.06-.08c-.07-.41.16-.57.52-.62a1.36,1.36,0,0,1,1-1.14.08.08,0,0,0,.06-.08c-.09-.34,0-.49.39-.43l0,0c0-.45.2-.76.7-.79a.06.06,0,0,0,0-.06c-.11-.34,0-.46.37-.41l0,0a.26.26,0,0,1,0-.32c.49-.6,1-1.19,1.46-1.79a.37.37,0,0,1,.49-.13l0,0c-.08-.34.08-.46.4-.44a.12.12,0,0,0,.08-.1c-.15-.36.09-.36.33-.35a.09.09,0,0,0,.06-.09c-.09-.25,0-.35.25-.26l0,0a2.62,2.62,0,0,1,1.62-1.75.08.08,0,0,0,.05-.08.29.29,0,0,1,.07-.38c1.19-1.17,2.19-2.53,3.46-3.63.14-.12.26-.21.44-.1l0,0c-.07-.41.15-.56.51-.59l0,0,0,0c0-.3.13-.45.44-.43l.16-.1c0-.33.08-.49.43-.4l0,0c-.11-.37.18-.54.38-.75s.71-.68,1.06-1c.19-.18.38-.37.67-.2l.54-.45c-.05-.43.21-.49.55-.47l.7-.56c.06-.36.22-.6.64-.48a.13.13,0,0,0,.11-.06c0-.35.11-.5.46-.35l.12-.07a.7.7,0,0,1,.87-.64l.21-.11c0-.23.11-.34.28-.44L342,18.47a.26.26,0,0,1,.32,0l.22-.09c0-.42.27-.5.63-.35l.21-.09c.05-.42.28-.59.7-.73.88-.29,1.72-.7,2.57-1.08.17-.08.32-.22.51-.05l.36-.11c0-.37.23-.47.56-.28l.26-.08a.51.51,0,0,1,.36-.4c1.35-.54,2.7-1.09,4.06-1.6s3-1.06,4.49-1.59c.14,0,.28-.09.36.09l.26-.07c.23-.41.54-.62,1-.39l.32-.09c.2-.66.87-.53,1.31-.74a17.91,17.91,0,0,0,2.77-1.35,1.4,1.4,0,0,1,1.24-.27l.21-.1a1,1,0,0,1,1.06-.63l.21-.09c.09-.5.46-.55.86-.56h0c.2-.36.41-.71.92-.64L368,7c0-.25.1-.31.32-.24l0,0c-.08-.35.08-.46.41-.41l0,0s0-.06,0-.06C369.54,5.39,369.46,4.29,369.52,3.23Z"/><polygon class="cls-1" points="309.83 51.1 309.83 51.1 309.83 51.1 309.83 51.1"/><polygon class="cls-1" points="319.95 39.59 319.95 39.59 319.95 39.59 319.95 39.59"/><polygon class="cls-1" points="250.48 35.56 250.48 35.56 250.48 35.56 250.48 35.56"/><path class="cls-1" d="M156.47,55.89a15.8,15.8,0,0,0,4.28,7.22,18.38,18.38,0,0,0,10.32,4.62,21,21,0,0,0,12.33-1.79c4.48-2.16,7-5.92,8.57-10.51a27.38,27.38,0,0,0,1.28-8.76,26.63,26.63,0,0,0-2.08-11.42,18,18,0,0,0-3.82-5.74,16.74,16.74,0,0,0-10.84-4.66,22.35,22.35,0,0,0-11.07,1.53,15.92,15.92,0,0,0-7.65,7.21,26.3,26.3,0,0,0-2.74,11.79A33.28,33.28,0,0,0,156.47,55.89Zm9.3-12.59a11.68,11.68,0,0,1,2.67-7,8.4,8.4,0,0,1,7.78-2.09c2.86.9,4.44,3,5.45,5.63a16.61,16.61,0,0,1,.86,5.62,23.18,23.18,0,0,1-1,7.62c-1.12,3.26-3.9,6.39-8,6-3.4-.36-5.56-1.88-6.67-5.1A25.66,25.66,0,0,1,165.77,43.29Z"/><path class="cls-1" d="M197.08,56.33a15.28,15.28,0,0,0,3.71,6.36c3.36,3.37,7.59,4.77,12.2,5.18a21.76,21.76,0,0,0,7.46-.69,16.24,16.24,0,0,0,5.92-2.77c4.2-3.22,6.13-7.72,7-12.75a30.18,30.18,0,0,0-.67-13.51,20.18,20.18,0,0,0-3.87-7.57A15.72,15.72,0,0,0,219,25.14a23.54,23.54,0,0,0-12,.8A15.91,15.91,0,0,0,197.19,36a27.08,27.08,0,0,0-1.65,9.76A33.93,33.93,0,0,0,197.08,56.33ZM206.2,44a14.19,14.19,0,0,1,1.29-5.56,7.24,7.24,0,0,1,4.76-4.12,7.14,7.14,0,0,1,6.5.86,9.16,9.16,0,0,1,3.47,4.88A19,19,0,0,1,223,46a21.34,21.34,0,0,1-1.18,7.61c-1.28,3.23-4.1,6-8.12,5.44a7.18,7.18,0,0,1-6.19-4.64A26.09,26.09,0,0,1,206.2,44Z"/><path class="cls-1" d="M36.66,54.3c-2.25,0-4.51.05-6.76,0A4.56,4.56,0,0,0,26,56a7.48,7.48,0,0,1-6,2.79,8.31,8.31,0,0,1-5-1.13,8.94,8.94,0,0,1-3.76-6,25.15,25.15,0,0,1,.28-11.75c.9-3.24,3.05-5.77,7.11-5.92,3.22-.12,5.8.92,7.37,3.89a1.07,1.07,0,0,0,1.08.63c1.54,0,3.08,0,4.62,0h4.84c.56,0,.77-.15.58-.76a23.89,23.89,0,0,0-1.67-4.05,15.33,15.33,0,0,0-7.92-7.28,21.91,21.91,0,0,0-7.74-1.58A20.11,20.11,0,0,0,10,26.55C5,29,2.15,33.31.83,38.66A31.4,31.4,0,0,0,0,47.41,25.58,25.58,0,0,0,2.77,59a16.35,16.35,0,0,0,13.1,8.81,25.33,25.33,0,0,0,7.86-.26,18.32,18.32,0,0,0,8-3.63,17.28,17.28,0,0,0,5.67-8.64C37.64,54.44,37.52,54.3,36.66,54.3Z"/><path class="cls-1" d="M116,54.3c-2.35,0-4.69,0-7,0a4.4,4.4,0,0,0-3.74,1.65,7.49,7.49,0,0,1-5.79,2.84,8.47,8.47,0,0,1-5.26-1.11,8.74,8.74,0,0,1-3.7-5.75,24.68,24.68,0,0,1,.36-12.51,7,7,0,0,1,4.93-5.13c3.69-1,7.64,0,9.43,3.6a1,1,0,0,0,1,.58c1.56,0,3.13,0,4.69,0h4.69c.8,0,.89-.09.65-.87a24.32,24.32,0,0,0-1.51-3.66c-2.42-4.88-6.46-7.59-11.67-8.67a24.71,24.71,0,0,0-9.39-.11A16,16,0,0,0,84,30.63c-3.09,3.63-4.28,8-4.65,12.62A35.06,35.06,0,0,0,79.68,52a21.48,21.48,0,0,0,2.52,7.41,16.1,16.1,0,0,0,11.45,8.15,22.85,22.85,0,0,0,13.17-1.19,16.86,16.86,0,0,0,9.82-11.23C116.84,54.45,116.71,54.31,116,54.3Z"/><path class="cls-1" d="M280.72,73.89a13,13,0,0,0,2.63-1.83c.65-.46,1.24-1,1.85-1.5,0-.22.07-.32.29-.27a6.19,6.19,0,0,0,1.32-1.09c-.26-.19-.43,0-.62.14-.91.66-1.8,1.35-2.74,2-.46.31-.82.77-1.41.87a.06.06,0,0,0-.07,0,12,12,0,0,1-2.23,1.65s-.17,0-.26,0l-.25,0c-.1.25-.45.11-.57.34a4.39,4.39,0,0,0,1.42-.07A.46.46,0,0,1,280.72,73.89Z"/><path class="cls-1" d="M76,26c-1.66,0-3.32,0-5,0a4.22,4.22,0,0,0-1.46.22,5,5,0,0,0-3.29,5c-.06,7.32,0,14.65,0,22a5.4,5.4,0,0,1-.6,2.51,7.35,7.35,0,0,1-6,3.86,7.73,7.73,0,0,1-5.38-1.46,5.48,5.48,0,0,1-2.58-4.61c-.09-4.41,0-8.82,0-13.23h0c0-4.46,0-8.91,0-13.37,0-.76-.25-.9-.93-.89-2.89,0-5.78,0-8.68,0-1,0-1,0-1,1q0,11.56,0,23.11a28.74,28.74,0,0,0,.78,6.94,13.1,13.1,0,0,0,1.75,4.19,12.94,12.94,0,0,0,6.18,4.52A25.59,25.59,0,0,0,53.85,67a32.42,32.42,0,0,0,4.44.68,14,14,0,0,0,3.52-.22c1.13-.19,2.28-.36,3.38-.66a23.1,23.1,0,0,0,5.36-2.22,9.81,9.81,0,0,0,3.93-3.9,17,17,0,0,0,1.58-4.31,19.22,19.22,0,0,0,.58-4.12c.09-8.53.05-17.07.07-25.6C76.73,26.17,76.55,26,76,26Z"/><path class="cls-1" d="M341.75,13.36a1,1,0,0,0-.24.1s.1.1.14.1a1.39,1.39,0,0,0,.31-.09C341.85,13.41,341.79,13.35,341.75,13.36Z"/><path class="cls-1" d="M295.72,73.11a6.41,6.41,0,0,1-1.78,2.33.11.11,0,0,0-.07.09c0,.39-.29.62-.51.89l-1.64,2.07c.39.12.58-.11.78-.31a38.94,38.94,0,0,0,3.7-5c.22-.3,0-.34-.28-.33Z"/><path class="cls-1" d="M287.53,80.25c-.11,0-.23.05-.24.19s.08.07.12.1.26,0,.3-.16S287.61,80.25,287.53,80.25Z"/><path class="cls-1" d="M288.14,80s.08.07.11.07.29,0,.23-.11S288.25,79.92,288.14,80Z"/><path class="cls-1" d="M296.53,72.52l0,0,0-.11s0,0,0,0A.63.63,0,0,0,296.53,72.52Z"/><polygon class="cls-1" points="257.52 30.25 257.56 30.28 257.57 30.23 257.52 30.25"/></g></g></svg>