<?xml version="1.0" encoding="utf-8"?>
<!-- Generator: Adobe Illustrator 24.1.2, SVG Export Plug-In . SVG Version: 6.00 Build 0)  -->
<svg version="1.2" baseProfile="tiny" id="Layer_1" xmlns="http://www.w3.org/2000/svg" xmlns:xlink="http://www.w3.org/1999/xlink"
	 x="0px" y="0px" viewBox="0 0 121.03 35" overflow="visible" xml:space="preserve">
<g id="Artwork_7_">
	<g>
		<path fill="#0174C3" d="M0.49,17.29c0-2.98,0.8-5.33,2.35-7.11c1.6-1.78,3.6-2.67,6.09-2.67c0.8,0,1.56,0.09,2.27,0.31
			c0.71,0.18,1.24,0.44,1.64,0.76s0.76,0.58,1.07,0.89s0.53,0.53,0.67,0.76l0.13,0.31h0.09c-0.04-0.36-0.09-0.8-0.09-1.24V0.54h3.6
			v26.13h-3.42v-1.78l0.04-1.24h-0.09c-0.04,0.09-0.13,0.22-0.22,0.36s-0.31,0.44-0.62,0.84c-0.31,0.4-0.71,0.76-1.16,1.07
			c-0.44,0.31-1.02,0.58-1.78,0.84c-0.76,0.27-1.56,0.36-2.4,0.36c-2.53,0-4.53-0.89-6-2.71C1.25,22.58,0.49,20.23,0.49,17.29z
			 M4.18,17.29c0,2.04,0.49,3.64,1.47,4.89C6.63,23.38,7.91,24,9.47,24c1.51,0,2.8-0.58,3.87-1.69c1.02-1.11,1.56-2.8,1.56-5.07
			c0-1.82-0.44-3.38-1.38-4.67c-0.93-1.33-2.22-2-3.91-2c-1.51,0-2.8,0.58-3.87,1.78C4.67,13.61,4.18,15.21,4.18,17.29z"/>
		<path fill="#0174C3" d="M21.38,4.19V0.54h3.64v3.64H21.38z M21.42,26.67V7.92h3.6v18.75H21.42z"/>
		<path fill="#0174C3" d="M30.49,30.05c1.56,0.84,3.29,1.24,5.15,1.24c1.78,0,3.2-0.44,4.31-1.29c1.07-0.84,1.64-2.18,1.64-4v-1.38
			l0.04-1.2h-0.09c-1.16,1.95-3.02,2.93-5.55,2.93s-4.58-0.89-6.09-2.71s-2.27-4.09-2.27-6.89c0-2.75,0.71-5.02,2.18-6.75
			c1.47-1.73,3.47-2.62,6-2.62c0.84,0,1.6,0.09,2.31,0.27c0.71,0.18,1.29,0.4,1.69,0.71c0.4,0.27,0.76,0.58,1.07,0.84
			s0.49,0.49,0.58,0.71l0.18,0.27h0.09c-0.04-0.18-0.04-0.36-0.04-0.58V7.87h3.42v17.95c0,1.47-0.27,2.8-0.8,3.91
			c-0.53,1.16-1.24,2.04-2.18,2.67c-0.93,0.67-1.91,1.16-2.98,1.47s-2.27,0.49-3.47,0.49c-2.27,0-4.4-0.53-6.4-1.56L30.49,30.05z
			 M36.66,23.34c1.47,0,2.67-0.49,3.55-1.51c0.93-1.02,1.38-2.67,1.38-4.93c0-4.18-1.78-6.31-5.29-6.31c-1.6,0-2.84,0.53-3.78,1.64
			c-0.89,1.11-1.33,2.62-1.33,4.53c0,1.95,0.49,3.55,1.47,4.75C33.64,22.71,34.97,23.34,36.66,23.34z"/>
		<path fill="#0174C3" d="M48.08,4.19V0.54h3.64v3.64H48.08z M48.12,26.67V7.92h3.6v18.75H48.12z"/>
		<path fill="#0174C3" d="M54.34,17.29c0-2.8,0.93-5.11,2.84-6.98c1.87-1.87,4.27-2.8,7.2-2.8c1.38,0,2.67,0.22,3.82,0.67
			c1.16,0.44,2,0.93,2.49,1.38l0.71,0.67l-1.69,2.53c-0.13-0.13-0.36-0.36-0.67-0.58c-0.27-0.27-0.89-0.58-1.78-0.98
			c-0.89-0.4-1.82-0.58-2.75-0.58c-1.87,0-3.42,0.62-4.67,1.87c-1.24,1.24-1.87,2.84-1.87,4.75s0.62,3.51,1.87,4.8
			c1.24,1.29,2.84,1.91,4.75,1.91c1.02,0,2.04-0.22,2.98-0.62c0.98-0.4,1.64-0.84,2.09-1.24l0.67-0.62l1.42,2.62
			c-0.09,0.09-0.18,0.18-0.31,0.31c-0.13,0.13-0.44,0.36-0.89,0.71c-0.49,0.36-0.98,0.67-1.51,0.89c-0.53,0.27-1.24,0.49-2.09,0.71
			c-0.84,0.22-1.73,0.31-2.67,0.31c-2.93,0-5.33-0.93-7.2-2.75C55.28,22.49,54.34,20.14,54.34,17.29z"/>
		<path fill="#0174C3" d="M72.29,17.29c0-2.93,0.89-5.29,2.67-7.11s4-2.71,6.71-2.71c2.53,0,4.53,0.84,5.95,2.49
			c1.42,1.64,2.13,3.73,2.13,6.31l-0.09,1.56H76.03c0.09,1.95,0.76,3.51,2,4.58c1.2,1.07,2.71,1.6,4.44,1.6
			c0.98,0,1.91-0.18,2.84-0.53c0.93-0.36,1.6-0.71,2.04-1.07l0.67-0.53l1.47,2.62c-0.18,0.18-0.49,0.44-0.89,0.76
			s-1.2,0.71-2.49,1.2c-1.24,0.49-2.53,0.76-3.87,0.76c-2.93,0-5.29-0.93-7.15-2.8C73.23,22.45,72.29,20.09,72.29,17.29z
			 M76.12,15.12h10c-0.04-1.56-0.49-2.75-1.33-3.55c-0.84-0.8-1.91-1.2-3.15-1.2c-1.42,0-2.62,0.4-3.6,1.24
			C76.96,12.45,76.34,13.61,76.12,15.12z"/>
		<path fill="#0174C3" d="M92.33,26.67V7.92h3.47v3.24l-0.09,1.42h0.09c0.44-1.42,1.2-2.62,2.22-3.51c1.07-0.93,2.27-1.38,3.69-1.38
			l0.93,0.09v3.55c-0.31-0.09-0.67-0.09-1.02-0.09c-1.16,0-2.22,0.4-3.2,1.2c-0.98,0.8-1.64,1.87-2.09,3.2
			c-0.31,0.98-0.44,2.09-0.44,3.38v7.64L92.33,26.67L92.33,26.67z"/>
		<path fill="#0174C3" d="M107.26,19.83v-8.75h-2.44V8.19h2.53V2.77h3.47v5.42h4.53v2.89h-4.53v8.31c0,0.71,0.09,1.33,0.31,1.87
			c0.18,0.53,0.44,0.93,0.71,1.24c0.27,0.31,0.62,0.53,0.98,0.71c0.4,0.18,0.71,0.27,1.02,0.31c0.31,0.04,0.62,0.09,0.93,0.09
			l0.84-0.09v3.2c-0.36,0.04-0.76,0.09-1.24,0.09c-0.58,0-1.16-0.04-1.69-0.09c-0.53-0.09-1.16-0.27-1.87-0.53
			c-0.71-0.31-1.29-0.67-1.78-1.16c-0.49-0.49-0.93-1.16-1.29-2.04C107.44,22.05,107.26,20.98,107.26,19.83z"/>
		<path fill="#0174C3" d="M117.7,0.5c-1.51,0-2.71,1.2-2.71,2.71s1.2,2.71,2.71,2.71s2.71-1.2,2.71-2.71
			C120.41,1.7,119.21,0.5,117.7,0.5 M117.7,5.39c-1.2,0-2.18-0.98-2.18-2.18c0-1.2,0.98-2.18,2.18-2.18s2.18,0.98,2.18,2.18
			S118.9,5.39,117.7,5.39"/>
		<g>
			<path fill="#0174C3" d="M116.77,4.68V1.7h0.93c0.27,0,0.44,0.04,0.58,0.09s0.27,0.18,0.36,0.31c0.09,0.13,0.13,0.31,0.13,0.49
				c0,0.18-0.04,0.36-0.13,0.49c-0.09,0.13-0.22,0.27-0.4,0.31l0,0c0.04,0.04,0.04,0.09,0.09,0.13l0.62,1.16h-0.49l-0.62-1.2h-0.62
				v1.2C117.21,4.68,116.77,4.68,116.77,4.68z M117.17,3.12h0.62c0.18,0,0.31-0.04,0.4-0.13c0.09-0.09,0.13-0.22,0.13-0.4
				c0-0.22-0.09-0.36-0.22-0.44c-0.09-0.04-0.22-0.09-0.4-0.09h-0.49L117.17,3.12L117.17,3.12z"/>
		</g>
	</g>
</g>
</svg>
