<?xml version="1.0" encoding="utf-8"?>
<!-- Generator: Adobe Illustrator 25.2.1, SVG Export Plug-In . SVG Version: 6.00 Build 0)  -->
<svg version="1.1" id="Layer_1" xmlns="http://www.w3.org/2000/svg" xmlns:xlink="http://www.w3.org/1999/xlink" x="0px" y="0px"
	 viewBox="0 0 282 78" style="enable-background:new 0 0 282 78;" xml:space="preserve">
<style type="text/css">
	.st0{clip-path:url(#SVGID_2_);}
	.st1{fill:url(#SVGID_3_);}
	.st2{fill:url(#SVGID_4_);}
	.st3{fill:url(#SVGID_5_);}
	.st4{fill:url(#SVGID_6_);}
	.st5{fill:url(#SVGID_7_);}
	.st6{fill:url(#SVGID_8_);}
	.st7{fill:url(#SVGID_9_);}
	.st8{fill:url(#SVGID_10_);}
	.st9{fill:url(#SVGID_11_);}
	.st10{fill:url(#SVGID_12_);}
	.st11{fill:url(#SVGID_13_);}
	.st12{fill:url(#SVGID_14_);}
	.st13{fill:url(#SVGID_15_);}
	.st14{fill:url(#SVGID_16_);}
	.st15{fill:url(#SVGID_17_);}
	.st16{fill:url(#SVGID_18_);}
	.st17{fill:url(#SVGID_19_);}
	.st18{fill:url(#SVGID_20_);}
	.st19{fill:url(#SVGID_21_);}
	.st20{fill:url(#SVGID_22_);}
	.st21{fill:url(#SVGID_23_);}
	.st22{fill:url(#SVGID_24_);}
	.st23{fill:url(#SVGID_25_);}
	.st24{fill:url(#SVGID_26_);}
	.st25{fill:url(#SVGID_27_);}
	.st26{fill:url(#SVGID_28_);}
	.st27{fill:url(#SVGID_29_);}
	.st28{fill:url(#SVGID_30_);}
	.st29{fill:url(#SVGID_31_);}
	.st30{fill:url(#SVGID_32_);}
	.st31{fill:url(#SVGID_33_);}
	.st32{fill:url(#SVGID_34_);}
	.st33{fill:url(#SVGID_35_);}
	.st34{fill:url(#SVGID_36_);}
	.st35{fill:url(#SVGID_37_);}
</style>
<g>
	<defs>
		<rect id="SVGID_1_" y="0" width="282" height="77.6"/>
	</defs>
	<clipPath id="SVGID_2_">
		<use xlink:href="#SVGID_1_"  style="overflow:visible;"/>
	</clipPath>
	<g class="st0">
		<path d="M134.1,14h7.5l-10.9,32.8h-8.6L114,22.1l-8.1,24.8h-8.4L86.6,14h7.6L102,39L110,14h8.1l8.2,25.1L134.1,14z"/>
		<path d="M173.6,33.1h-24.2c0.2,1.7,0.9,3.3,1.8,4.7c0.9,1.2,2.1,2.2,3.4,2.8c1.4,0.6,2.9,0.9,4.4,0.9c1.7,0,3.4-0.3,5-0.9
			c1.6-0.6,3.2-1.5,4.5-2.6l3.6,5.1c-1.8,1.6-3.9,2.8-6.2,3.5c-2.4,0.7-4.8,1.1-7.3,1.1c-3,0.1-6-0.7-8.7-2.1
			c-2.5-1.4-4.6-3.5-5.9-6.1c-1.4-2.6-2.1-5.6-2.1-9.1c-0.1-3.1,0.7-6.2,2.1-9c1.3-2.5,3.3-4.6,5.8-6.1c2.6-1.5,5.5-2.2,8.5-2.2
			c2.8-0.1,5.6,0.7,8.1,2.2c2.4,1.5,4.3,3.6,5.5,6.1c1.4,2.8,2,5.9,2,9C173.7,31.1,173.7,32,173.6,33.1z M166.4,27.6
			c-0.4-2.6-1.3-4.5-2.8-6c-1.4-1.4-3.3-2.1-5.5-2.1c-2.4,0-4.4,0.7-5.9,2.2s-2.4,3.4-2.8,5.9L166.4,27.6z"/>
		<path d="M204.2,15.4c2.5,1.5,4.5,3.6,5.9,6.2c1.5,2.7,2.2,5.8,2.2,8.9c0,3.1-0.7,6.2-2.2,8.9c-1.4,2.6-3.4,4.7-5.9,6.2
			c-2.5,1.5-5.4,2.3-8.3,2.2c-2,0-4.1-0.4-5.9-1.2c-1.7-0.8-3.2-2-4.4-3.5v3.9h-7.2V0.1h7.2v17.9c1.2-1.5,2.7-2.7,4.4-3.5
			c1.9-0.9,3.9-1.3,5.9-1.2C198.8,13.2,201.7,13.9,204.2,15.4L204.2,15.4z M200.3,39.6c1.5-0.9,2.7-2.2,3.5-3.8
			c0.8-1.7,1.2-3.5,1.2-5.3c0-1.8-0.4-3.7-1.2-5.3c-0.8-1.6-2-2.9-3.5-3.8c-1.6-1-3.4-1.4-5.2-1.4c-1.8,0-3.6,0.4-5.2,1.4
			c-1.5,0.9-2.7,2.2-3.5,3.8c-0.8,1.7-1.3,3.5-1.2,5.4c0,1.9,0.4,3.7,1.2,5.4c0.8,1.6,2,2.9,3.5,3.8c1.6,0.9,3.3,1.4,5.2,1.4
			C196.9,41,198.7,40.5,200.3,39.6L200.3,39.6z"/>
		<path d="M247.8,33.1h-24.2c0.2,1.7,0.9,3.3,1.8,4.7c0.9,1.2,2.1,2.2,3.4,2.8c1.4,0.6,2.9,0.9,4.4,0.9c1.7,0,3.4-0.3,5-0.9
			c1.6-0.6,3.2-1.5,4.5-2.6l3.6,5.1c-1.8,1.6-3.9,2.8-6.2,3.5c-2.4,0.7-4.8,1.1-7.3,1.1c-3,0.1-6-0.7-8.7-2.1
			c-2.5-1.4-4.6-3.5-5.9-6.1c-1.4-2.6-2.1-5.6-2.1-9.1c-0.1-3.1,0.7-6.2,2.1-9c1.3-2.5,3.3-4.6,5.8-6.1c2.6-1.5,5.5-2.2,8.5-2.2
			c2.8-0.1,5.6,0.7,8.1,2.2c2.4,1.5,4.3,3.6,5.5,6.1c1.4,2.8,2,5.9,2,9C248,31.1,247.9,32,247.8,33.1z M240.6,27.6
			c-0.4-2.6-1.3-4.5-2.8-6c-1.4-1.4-3.3-2.1-5.6-2.1c-2.4,0-4.4,0.7-5.9,2.2c-1.5,1.4-2.4,3.4-2.8,5.9L240.6,27.6z"/>
		<path d="M282,46.9h-8.8l-8.3-11.4l-8.2,11.4h-8.4l12.4-16.8L248.4,14h8.8l8,11l8-11h8.5l-12.1,16L282,46.9z"/>
		<path d="M195.7,74h-1.5V60.8h1.8v5c0.4-0.5,0.8-0.9,1.4-1.2c0.6-0.3,1.2-0.4,1.8-0.4c0.6,0,1.2,0.1,1.8,0.3c0.6,0.3,1,0.6,1.4,1.1
			c0.7,0.9,1,2.1,1,3.5c0,1.7-0.5,3-1.4,4c-0.4,0.4-0.9,0.7-1.4,0.9c-0.5,0.2-1.1,0.3-1.6,0.3c-0.6,0-1.2-0.1-1.8-0.4
			c-0.5-0.3-1-0.7-1.4-1.2L195.7,74z M201.6,69.1c0-1.2-0.3-2.1-0.9-2.7c-0.2-0.2-0.5-0.4-0.9-0.6c-0.3-0.1-0.7-0.2-1-0.2
			c-0.4,0-0.8,0.1-1.2,0.2c-0.4,0.2-0.7,0.4-0.9,0.7c-0.5,0.7-0.8,1.6-0.7,2.5c0,1.2,0.3,2.2,0.9,2.8c0.2,0.3,0.6,0.5,0.9,0.6
			c0.3,0.1,0.7,0.2,1.1,0.2c0.4,0,0.8-0.1,1.2-0.2c0.4-0.2,0.7-0.4,0.9-0.8C201.4,71.2,201.6,70.3,201.6,69.1L201.6,69.1z"/>
		<path d="M212.9,64.5l-3.3,9.7c-0.4,1.3-0.9,2.2-1.3,2.6c-0.2,0.3-0.5,0.5-0.8,0.6c-0.3,0.1-0.7,0.2-1,0.2c-0.4,0-0.8-0.1-1.1-0.2
			V76c0.3,0.1,0.6,0.1,0.9,0.1c0.2,0,0.3,0,0.5-0.1c0.2-0.1,0.3-0.2,0.4-0.3c0.3-0.5,0.6-1.1,0.8-1.7h-0.6l-3.5-9.6h1.9l2.7,8.1
			l2.7-8.1L212.9,64.5z"/>
		<path d="M237.1,60.8h-3.3v13.3h3.3V60.8z"/>
		<path d="M264.1,64.6c-0.9-0.5-1.8-0.7-2.8-0.7c-2.2,0-3.7,1.5-3.7,3.5c0,2,1.4,3.5,3.7,3.5c1,0,1.9-0.2,2.8-0.7v3.6
			c-1,0.3-2,0.5-3,0.5c-3.8,0-7.1-2.6-7.1-6.9c0-4,3-6.9,7.1-6.9c1,0,2.1,0.2,3,0.5V64.6z"/>
		<path d="M229.2,64.6c-0.9-0.5-1.8-0.7-2.8-0.7c-2.2,0-3.7,1.5-3.7,3.5c0,2,1.4,3.5,3.7,3.5c1,0,1.9-0.2,2.8-0.7v3.6
			c-1,0.3-2,0.5-3.1,0.5c-3.8,0-7.1-2.6-7.1-6.9c0-4,3-6.9,7.1-6.9c1,0,2.1,0.2,3.1,0.5V64.6z"/>
		<path d="M274.6,64c-0.5,0-0.9,0.1-1.3,0.3c-0.4,0.2-0.8,0.4-1.1,0.8c-0.3,0.3-0.6,0.7-0.7,1.1c-0.2,0.4-0.3,0.9-0.2,1.3
			c0,0.5,0.1,0.9,0.2,1.3c0.2,0.4,0.4,0.8,0.7,1.1c0.3,0.3,0.7,0.6,1.1,0.8c0.4,0.2,0.9,0.3,1.3,0.3c0.5,0,0.9-0.1,1.3-0.3
			c0.4-0.2,0.8-0.4,1.1-0.8c0.3-0.3,0.6-0.7,0.7-1.1c0.2-0.4,0.3-0.9,0.2-1.3c0-0.5-0.1-0.9-0.2-1.3c-0.2-0.4-0.4-0.8-0.7-1.1
			c-0.3-0.3-0.7-0.6-1.1-0.8C275.5,64,275.1,64,274.6,64L274.6,64z M281.6,67.4c0,3.8-2.9,6.9-7,6.9c-4.1,0-7-3.1-7-6.9
			c0-3.8,2.9-6.9,7-6.9C278.7,60.6,281.6,63.7,281.6,67.4z"/>
		<path d="M249.8,63.8c-0.9-0.2-1.7-0.4-2.6-0.4c-1.3,0-2.1,0.4-2.1,1.1c0,0.8,1,1.1,1.5,1.3l0.9,0.3c2.2,0.7,3.2,2.2,3.2,3.8
			c0,3.3-2.9,4.4-5.5,4.4c-1.2,0-2.4-0.1-3.6-0.4v-3.1c1,0.3,2.1,0.5,3.2,0.5c1.7,0,2.4-0.5,2.4-1.2c0-0.7-0.7-1.1-1.5-1.3l-0.7-0.2
			c-1.8-0.6-3.4-1.7-3.4-3.9c0-2.5,1.8-4.1,4.9-4.1c1.1,0,2.2,0.2,3.3,0.4L249.8,63.8z"/>
		
			<linearGradient id="SVGID_3_" gradientUnits="userSpaceOnUse" x1="3.1695" y1="45.2038" x2="57.9895" y2="67.3627" gradientTransform="matrix(1 0 0 -1 0 79.2756)">
			<stop  offset="0.13" style="stop-color:#1CBBF3"/>
			<stop  offset="0.34" style="stop-color:#1F99A5"/>
			<stop  offset="0.45" style="stop-color:#209CA6"/>
			<stop  offset="0.51" style="stop-color:#24A4AA"/>
			<stop  offset="0.57" style="stop-color:#2BB3B0"/>
			<stop  offset="0.6" style="stop-color:#30BDB4"/>
			<stop  offset="0.79" style="stop-color:#38BA90"/>
			<stop  offset="1" style="stop-color:#60F05A"/>
		</linearGradient>
		<path class="st1" d="M16.1,25.5c0.8,2.7,1.8,5.4,3.2,7.9c0.6,1.1,1.2,2.2,2.3,2.9c0.2,0.1,0.4,0.2,0.6,0.3c1.6,0.3,2.5-1,3.1-2.1
			c0.8-1.9,1.5-3.8,2.1-5.8c0.1-0.4,0.2-0.7,0.3-1.1c0.2-0.7,0.4-1.4,0.5-2.1l7.1-19c1.5-2,3.4-3.6,5.6-4.7C43,0.6,45.4,0,47.9,0
			c3.5,0,7,1.2,9.8,3.4c4.7,3.5,7.4,10.5,7.4,10.5c0.4,0.9,0.6,1.9,0.6,2.9c0,0.9-0.2,1.8-0.5,2.7c-0.4,0.8-0.9,1.6-1.5,2.3
			c-0.6,0.6-1.4,1.2-2.3,1.5c-0.8,0.3-1.8,0.5-2.7,0.5c-1,0-2-0.2-2.9-0.7c-0.9-0.4-1.7-1.1-2.4-1.8c0,0,0-0.1-0.1-0.1
			c-0.4-0.6-0.8-1.3-1.1-2c-0.4-0.9-0.8-1.7-1.3-2.5c-0.3-0.4-0.5-0.8-0.8-1.2c-0.2-0.4-0.5-0.7-0.9-1c-0.7-0.5-1.5-0.7-2.2-0.3
			l-0.1,0.1c-0.8,0.5-1.3,1.6-1.7,2.5c-1.1,2.4-1.7,4.8-2.4,7.4c-0.1,0.5-0.2,1-0.3,1.5l-3,9.6l-4.1,9.1c-1.5,1.9-3.4,3.5-5.6,4.5
			c-2.2,1.1-4.6,1.6-7,1.7c-10.1,0.2-14.8-8.9-14.8-8.9c-5.7-9.4-7.4-21.8-7.8-25.8C0,15,0,14.5,0,14.5c0-1.2,0.3-2.5,1-3.5
			C1.6,9.9,2.5,9,3.6,8.4C4.8,7.8,6,7.6,7.3,7.6c1.2,0,2.3,0.4,3.4,1c0.8,0.5,1.5,1.1,2,1.8c0.9,1.3,1.2,3,1.3,4.6
			C14.4,18.6,15.1,22.1,16.1,25.5L16.1,25.5z"/>
		
			<radialGradient id="SVGID_4_" cx="-90.4776" cy="338.6573" r="1" gradientTransform="matrix(7.0811 25.2258 19.1716 -5.3817 -5812.2178 4125.9497)" gradientUnits="userSpaceOnUse">
			<stop  offset="0" style="stop-color:#227B60"/>
			<stop  offset="0.14" style="stop-color:#227B60;stop-opacity:0.81"/>
			<stop  offset="0.58" style="stop-color:#227B60;stop-opacity:0.23"/>
			<stop  offset="0.78" style="stop-color:#227B60;stop-opacity:0"/>
		</radialGradient>
		<path class="st2" d="M16.1,25.5c0.8,2.7,1.8,5.4,3.2,7.9c0.6,1.1,1.2,2.2,2.3,2.9c0.2,0.1,0.4,0.2,0.6,0.3c1.6,0.3,2.5-1,3.1-2.1
			c0.8-1.9,1.5-3.8,2.1-5.8c0.1-0.4,0.2-0.7,0.3-1.1c0.2-0.7,0.4-1.4,0.5-2.1l7.1-19c1.5-2,3.4-3.6,5.6-4.7C43,0.6,45.4,0,47.9,0
			c3.5,0,7,1.2,9.8,3.4c4.7,3.5,7.4,10.5,7.4,10.5c0.4,0.9,0.6,1.9,0.6,2.9c0,0.9-0.2,1.8-0.5,2.7c-0.4,0.8-0.9,1.6-1.5,2.3
			c-0.6,0.6-1.4,1.2-2.3,1.5c-0.8,0.3-1.8,0.5-2.7,0.5c-1,0-2-0.2-2.9-0.7c-0.9-0.4-1.7-1.1-2.4-1.8c0,0,0-0.1-0.1-0.1
			c-0.4-0.6-0.8-1.3-1.1-2c-0.4-0.9-0.8-1.7-1.3-2.5c-0.3-0.4-0.5-0.8-0.8-1.2c-0.2-0.4-0.5-0.7-0.9-1c-0.7-0.5-1.5-0.7-2.2-0.3
			l-0.1,0.1c-0.8,0.5-1.3,1.6-1.7,2.5c-1.1,2.4-1.7,4.8-2.4,7.4c-0.1,0.5-0.2,1-0.3,1.5l-3,9.6l-4.1,9.1c-1.5,1.9-3.4,3.5-5.6,4.5
			c-2.2,1.1-4.6,1.6-7,1.7c-10.1,0.2-14.8-8.9-14.8-8.9c-5.7-9.4-7.4-21.8-7.8-25.8C0,15,0,14.5,0,14.5c0-1.2,0.3-2.5,1-3.5
			C1.6,9.9,2.5,9,3.6,8.4C4.8,7.8,6,7.6,7.3,7.6c1.2,0,2.3,0.4,3.4,1c0.8,0.5,1.5,1.1,2,1.8c0.9,1.3,1.2,3,1.3,4.6
			C14.4,18.6,15.1,22.1,16.1,25.5L16.1,25.5z"/>
		
			<radialGradient id="SVGID_5_" cx="-86.5549" cy="345.1591" r="1" gradientTransform="matrix(-0.3543 17.7138 13.4606 0.2692 -4633.1011 1459.4431)" gradientUnits="userSpaceOnUse">
			<stop  offset="0" style="stop-color:#227B60"/>
			<stop  offset="0.25" style="stop-color:#227B60;stop-opacity:0.7"/>
			<stop  offset="0.71" style="stop-color:#227B60;stop-opacity:0.2"/>
			<stop  offset="0.92" style="stop-color:#227B60;stop-opacity:0"/>
		</radialGradient>
		<path class="st3" d="M16.1,25.5c0.8,2.7,1.8,5.4,3.2,7.9c0.6,1.1,1.2,2.2,2.3,2.9c0.2,0.1,0.4,0.2,0.6,0.3c1.6,0.3,2.5-1,3.1-2.1
			c0.8-1.9,1.5-3.8,2.1-5.8c0.1-0.4,0.2-0.7,0.3-1.1c0.2-0.7,0.4-1.4,0.5-2.1l7.1-19c1.5-2,3.4-3.6,5.6-4.7C43,0.6,45.4,0,47.9,0
			c3.5,0,7,1.2,9.8,3.4c4.7,3.5,7.4,10.5,7.4,10.5c0.4,0.9,0.6,1.9,0.6,2.9c0,0.9-0.2,1.8-0.5,2.7c-0.4,0.8-0.9,1.6-1.5,2.3
			c-0.6,0.6-1.4,1.2-2.3,1.5c-0.8,0.3-1.8,0.5-2.7,0.5c-1,0-2-0.2-2.9-0.7c-0.9-0.4-1.7-1.1-2.4-1.8c0,0,0-0.1-0.1-0.1
			c-0.4-0.6-0.8-1.3-1.1-2c-0.4-0.9-0.8-1.7-1.3-2.5c-0.3-0.4-0.5-0.8-0.8-1.2c-0.2-0.4-0.5-0.7-0.9-1c-0.7-0.5-1.5-0.7-2.2-0.3
			l-0.1,0.1c-0.8,0.5-1.3,1.6-1.7,2.5c-1.1,2.4-1.7,4.8-2.4,7.4c-0.1,0.5-0.2,1-0.3,1.5l-3,9.6l-4.1,9.1c-1.5,1.9-3.4,3.5-5.6,4.5
			c-2.2,1.1-4.6,1.6-7,1.7c-10.1,0.2-14.8-8.9-14.8-8.9c-5.7-9.4-7.4-21.8-7.8-25.8C0,15,0,14.5,0,14.5c0-1.2,0.3-2.5,1-3.5
			C1.6,9.9,2.5,9,3.6,8.4C4.8,7.8,6,7.6,7.3,7.6c1.2,0,2.3,0.4,3.4,1c0.8,0.5,1.5,1.1,2,1.8c0.9,1.3,1.2,3,1.3,4.6
			C14.4,18.6,15.1,22.1,16.1,25.5L16.1,25.5z"/>
		
			<radialGradient id="SVGID_6_" cx="-85.2337" cy="345.3488" r="1" gradientTransform="matrix(0.4035 16.5107 11.7225 -0.2865 -3971.1855 1526.0898)" gradientUnits="userSpaceOnUse">
			<stop  offset="0" style="stop-color:#227B60"/>
			<stop  offset="7.000000e-02" style="stop-color:#227B60;stop-opacity:0.9"/>
			<stop  offset="0.34" style="stop-color:#227B60;stop-opacity:0.51"/>
			<stop  offset="0.59" style="stop-color:#227B60;stop-opacity:0.23"/>
			<stop  offset="0.79" style="stop-color:#227B60;stop-opacity:6.000000e-02"/>
			<stop  offset="0.92" style="stop-color:#227B60;stop-opacity:0"/>
		</radialGradient>
		<path class="st4" d="M16.1,25.5c0.8,2.7,1.8,5.4,3.2,7.9c0.6,1.1,1.2,2.2,2.3,2.9c0.2,0.1,0.4,0.2,0.6,0.3c1.6,0.3,2.5-1,3.1-2.1
			c0.8-1.9,1.5-3.8,2.1-5.8c0.1-0.4,0.2-0.7,0.3-1.1c0.2-0.7,0.4-1.4,0.5-2.1l7.1-19c1.5-2,3.4-3.6,5.6-4.7C43,0.6,45.4,0,47.9,0
			c3.5,0,7,1.2,9.8,3.4c4.7,3.5,7.4,10.5,7.4,10.5c0.4,0.9,0.6,1.9,0.6,2.9c0,0.9-0.2,1.8-0.5,2.7c-0.4,0.8-0.9,1.6-1.5,2.3
			c-0.6,0.6-1.4,1.2-2.3,1.5c-0.8,0.3-1.8,0.5-2.7,0.5c-1,0-2-0.2-2.9-0.7c-0.9-0.4-1.7-1.1-2.4-1.8c0,0,0-0.1-0.1-0.1
			c-0.4-0.6-0.8-1.3-1.1-2c-0.4-0.9-0.8-1.7-1.3-2.5c-0.3-0.4-0.5-0.8-0.8-1.2c-0.2-0.4-0.5-0.7-0.9-1c-0.7-0.5-1.5-0.7-2.2-0.3
			l-0.1,0.1c-0.8,0.5-1.3,1.6-1.7,2.5c-1.1,2.4-1.7,4.8-2.4,7.4c-0.1,0.5-0.2,1-0.3,1.5l-3,9.6l-4.1,9.1c-1.5,1.9-3.4,3.5-5.6,4.5
			c-2.2,1.1-4.6,1.6-7,1.7c-10.1,0.2-14.8-8.9-14.8-8.9c-5.7-9.4-7.4-21.8-7.8-25.8C0,15,0,14.5,0,14.5c0-1.2,0.3-2.5,1-3.5
			C1.6,9.9,2.5,9,3.6,8.4C4.8,7.8,6,7.6,7.3,7.6c1.2,0,2.3,0.4,3.4,1c0.8,0.5,1.5,1.1,2,1.8c0.9,1.3,1.2,3,1.3,4.6
			C14.4,18.6,15.1,22.1,16.1,25.5L16.1,25.5z"/>
		
			<radialGradient id="SVGID_7_" cx="-81.4734" cy="347.2741" r="1" gradientTransform="matrix(0.3258 13.3312 9.4652 -0.2313 -3217.4163 1185.6022)" gradientUnits="userSpaceOnUse">
			<stop  offset="0" style="stop-color:#227B60"/>
			<stop  offset="0.36" style="stop-color:#227B60;stop-opacity:0.63"/>
			<stop  offset="0.92" style="stop-color:#227B60;stop-opacity:0"/>
		</radialGradient>
		<path class="st5" d="M16.1,25.5c0.8,2.7,1.8,5.4,3.2,7.9c0.6,1.1,1.2,2.2,2.3,2.9c0.2,0.1,0.4,0.2,0.6,0.3c1.6,0.3,2.5-1,3.1-2.1
			c0.8-1.9,1.5-3.8,2.1-5.8c0.1-0.4,0.2-0.7,0.3-1.1c0.2-0.7,0.4-1.4,0.5-2.1l7.1-19c1.5-2,3.4-3.6,5.6-4.7C43,0.6,45.4,0,47.9,0
			c3.5,0,7,1.2,9.8,3.4c4.7,3.5,7.4,10.5,7.4,10.5c0.4,0.9,0.6,1.9,0.6,2.9c0,0.9-0.2,1.8-0.5,2.7c-0.4,0.8-0.9,1.6-1.5,2.3
			c-0.6,0.6-1.4,1.2-2.3,1.5c-0.8,0.3-1.8,0.5-2.7,0.5c-1,0-2-0.2-2.9-0.7c-0.9-0.4-1.7-1.1-2.4-1.8c0,0,0-0.1-0.1-0.1
			c-0.4-0.6-0.8-1.3-1.1-2c-0.4-0.9-0.8-1.7-1.3-2.5c-0.3-0.4-0.5-0.8-0.8-1.2c-0.2-0.4-0.5-0.7-0.9-1c-0.7-0.5-1.5-0.7-2.2-0.3
			l-0.1,0.1c-0.8,0.5-1.3,1.6-1.7,2.5c-1.1,2.4-1.7,4.8-2.4,7.4c-0.1,0.5-0.2,1-0.3,1.5l-3,9.6l-4.1,9.1c-1.5,1.9-3.4,3.5-5.6,4.5
			c-2.2,1.1-4.6,1.6-7,1.7c-10.1,0.2-14.8-8.9-14.8-8.9c-5.7-9.4-7.4-21.8-7.8-25.8C0,15,0,14.5,0,14.5c0-1.2,0.3-2.5,1-3.5
			C1.6,9.9,2.5,9,3.6,8.4C4.8,7.8,6,7.6,7.3,7.6c1.2,0,2.3,0.4,3.4,1c0.8,0.5,1.5,1.1,2,1.8c0.9,1.3,1.2,3,1.3,4.6
			C14.4,18.6,15.1,22.1,16.1,25.5L16.1,25.5z"/>
		
			<radialGradient id="SVGID_8_" cx="-76.5171" cy="351.1832" r="1" gradientTransform="matrix(0.2599 10.6324 6.8048 -0.1663 -2326.21 891.8405)" gradientUnits="userSpaceOnUse">
			<stop  offset="0" style="stop-color:#20735A"/>
			<stop  offset="0.15" style="stop-color:#20745A;stop-opacity:0.93"/>
			<stop  offset="0.38" style="stop-color:#21755C;stop-opacity:0.74"/>
			<stop  offset="0.67" style="stop-color:#21785D;stop-opacity:0.43"/>
			<stop  offset="1" style="stop-color:#227B60;stop-opacity:0"/>
		</radialGradient>
		<path class="st6" d="M16.1,25.5c0.8,2.7,1.8,5.4,3.2,7.9c0.6,1.1,1.2,2.2,2.3,2.9c0.2,0.1,0.4,0.2,0.6,0.3c1.6,0.3,2.5-1,3.1-2.1
			c0.8-1.9,1.5-3.8,2.1-5.8c0.1-0.4,0.2-0.7,0.3-1.1c0.2-0.7,0.4-1.4,0.5-2.1l7.1-19c1.5-2,3.4-3.6,5.6-4.7C43,0.6,45.4,0,47.9,0
			c3.5,0,7,1.2,9.8,3.4c4.7,3.5,7.4,10.5,7.4,10.5c0.4,0.9,0.6,1.9,0.6,2.9c0,0.9-0.2,1.8-0.5,2.7c-0.4,0.8-0.9,1.6-1.5,2.3
			c-0.6,0.6-1.4,1.2-2.3,1.5c-0.8,0.3-1.8,0.5-2.7,0.5c-1,0-2-0.2-2.9-0.7c-0.9-0.4-1.7-1.1-2.4-1.8c0,0,0-0.1-0.1-0.1
			c-0.4-0.6-0.8-1.3-1.1-2c-0.4-0.9-0.8-1.7-1.3-2.5c-0.3-0.4-0.5-0.8-0.8-1.2c-0.2-0.4-0.5-0.7-0.9-1c-0.7-0.5-1.5-0.7-2.2-0.3
			l-0.1,0.1c-0.8,0.5-1.3,1.6-1.7,2.5c-1.1,2.4-1.7,4.8-2.4,7.4c-0.1,0.5-0.2,1-0.3,1.5l-3,9.6l-4.1,9.1c-1.5,1.9-3.4,3.5-5.6,4.5
			c-2.2,1.1-4.6,1.6-7,1.7c-10.1,0.2-14.8-8.9-14.8-8.9c-5.7-9.4-7.4-21.8-7.8-25.8C0,15,0,14.5,0,14.5c0-1.2,0.3-2.5,1-3.5
			C1.6,9.9,2.5,9,3.6,8.4C4.8,7.8,6,7.6,7.3,7.6c1.2,0,2.3,0.4,3.4,1c0.8,0.5,1.5,1.1,2,1.8c0.9,1.3,1.2,3,1.3,4.6
			C14.4,18.6,15.1,22.1,16.1,25.5L16.1,25.5z"/>
		
			<radialGradient id="SVGID_9_" cx="-89.5171" cy="322.0604" r="1" gradientTransform="matrix(15.6592 6.9065 5.1799 -11.7444 -221.4193 4422.2559)" gradientUnits="userSpaceOnUse">
			<stop  offset="0" style="stop-color:#227A61"/>
			<stop  offset="0.36" style="stop-color:#227A61;stop-opacity:0.56"/>
			<stop  offset="0.72" style="stop-color:#227A61;stop-opacity:0.16"/>
			<stop  offset="0.9" style="stop-color:#227A61;stop-opacity:0"/>
		</radialGradient>
		<path class="st7" d="M16.1,25.5c0.8,2.7,1.8,5.4,3.2,7.9c0.6,1.1,1.2,2.2,2.3,2.9c0.2,0.1,0.4,0.2,0.6,0.3c1.6,0.3,2.5-1,3.1-2.1
			c0.8-1.9,1.5-3.8,2.1-5.8c0.1-0.4,0.2-0.7,0.3-1.1c0.2-0.7,0.4-1.4,0.5-2.1l7.1-19c1.5-2,3.4-3.6,5.6-4.7C43,0.6,45.4,0,47.9,0
			c3.5,0,7,1.2,9.8,3.4c4.7,3.5,7.4,10.5,7.4,10.5c0.4,0.9,0.6,1.9,0.6,2.9c0,0.9-0.2,1.8-0.5,2.7c-0.4,0.8-0.9,1.6-1.5,2.3
			c-0.6,0.6-1.4,1.2-2.3,1.5c-0.8,0.3-1.8,0.5-2.7,0.5c-1,0-2-0.2-2.9-0.7c-0.9-0.4-1.7-1.1-2.4-1.8c0,0,0-0.1-0.1-0.1
			c-0.4-0.6-0.8-1.3-1.1-2c-0.4-0.9-0.8-1.7-1.3-2.5c-0.3-0.4-0.5-0.8-0.8-1.2c-0.2-0.4-0.5-0.7-0.9-1c-0.7-0.5-1.5-0.7-2.2-0.3
			l-0.1,0.1c-0.8,0.5-1.3,1.6-1.7,2.5c-1.1,2.4-1.7,4.8-2.4,7.4c-0.1,0.5-0.2,1-0.3,1.5l-3,9.6l-4.1,9.1c-1.5,1.9-3.4,3.5-5.6,4.5
			c-2.2,1.1-4.6,1.6-7,1.7c-10.1,0.2-14.8-8.9-14.8-8.9c-5.7-9.4-7.4-21.8-7.8-25.8C0,15,0,14.5,0,14.5c0-1.2,0.3-2.5,1-3.5
			C1.6,9.9,2.5,9,3.6,8.4C4.8,7.8,6,7.6,7.3,7.6c1.2,0,2.3,0.4,3.4,1c0.8,0.5,1.5,1.1,2,1.8c0.9,1.3,1.2,3,1.3,4.6
			C14.4,18.6,15.1,22.1,16.1,25.5L16.1,25.5z"/>
		
			<radialGradient id="SVGID_10_" cx="-90.8598" cy="329.9773" r="1" gradientTransform="matrix(18.6342 13.1803 12.0515 -17.0383 -2244.46 6813.6001)" gradientUnits="userSpaceOnUse">
			<stop  offset="0" style="stop-color:#3CD9C3"/>
			<stop  offset="7.000000e-02" style="stop-color:#3BD7C1;stop-opacity:0.9"/>
			<stop  offset="0.41" style="stop-color:#38CEB9;stop-opacity:0.42"/>
			<stop  offset="0.65" style="stop-color:#36C8B4;stop-opacity:0.12"/>
			<stop  offset="0.76" style="stop-color:#35C6B2;stop-opacity:0"/>
		</radialGradient>
		<path class="st8" d="M16.1,25.5c0.8,2.7,1.8,5.4,3.2,7.9c0.6,1.1,1.2,2.2,2.3,2.9c0.2,0.1,0.4,0.2,0.6,0.3c1.6,0.3,2.5-1,3.1-2.1
			c0.8-1.9,1.5-3.8,2.1-5.8c0.1-0.4,0.2-0.7,0.3-1.1c0.2-0.7,0.4-1.4,0.5-2.1l7.1-19c1.5-2,3.4-3.6,5.6-4.7C43,0.6,45.4,0,47.9,0
			c3.5,0,7,1.2,9.8,3.4c4.7,3.5,7.4,10.5,7.4,10.5c0.4,0.9,0.6,1.9,0.6,2.9c0,0.9-0.2,1.8-0.5,2.7c-0.4,0.8-0.9,1.6-1.5,2.3
			c-0.6,0.6-1.4,1.2-2.3,1.5c-0.8,0.3-1.8,0.5-2.7,0.5c-1,0-2-0.2-2.9-0.7c-0.9-0.4-1.7-1.1-2.4-1.8c0,0,0-0.1-0.1-0.1
			c-0.4-0.6-0.8-1.3-1.1-2c-0.4-0.9-0.8-1.7-1.3-2.5c-0.3-0.4-0.5-0.8-0.8-1.2c-0.2-0.4-0.5-0.7-0.9-1c-0.7-0.5-1.5-0.7-2.2-0.3
			l-0.1,0.1c-0.8,0.5-1.3,1.6-1.7,2.5c-1.1,2.4-1.7,4.8-2.4,7.4c-0.1,0.5-0.2,1-0.3,1.5l-3,9.6l-4.1,9.1c-1.5,1.9-3.4,3.5-5.6,4.5
			c-2.2,1.1-4.6,1.6-7,1.7c-10.1,0.2-14.8-8.9-14.8-8.9c-5.7-9.4-7.4-21.8-7.8-25.8C0,15,0,14.5,0,14.5c0-1.2,0.3-2.5,1-3.5
			C1.6,9.9,2.5,9,3.6,8.4C4.8,7.8,6,7.6,7.3,7.6c1.2,0,2.3,0.4,3.4,1c0.8,0.5,1.5,1.1,2,1.8c0.9,1.3,1.2,3,1.3,4.6
			C14.4,18.6,15.1,22.1,16.1,25.5L16.1,25.5z"/>
		
			<radialGradient id="SVGID_11_" cx="-100.9429" cy="337.222" r="1" gradientTransform="matrix(3310.5498 2341.6067 1643.2212 -2323.1768 -257383.0312 968934.0625)" gradientUnits="userSpaceOnUse">
			<stop  offset="0" style="stop-color:#3CD9C3"/>
			<stop  offset="7.000000e-02" style="stop-color:#3BD7C1;stop-opacity:0.9"/>
			<stop  offset="0.41" style="stop-color:#38CEB9;stop-opacity:0.42"/>
			<stop  offset="0.65" style="stop-color:#36C8B4;stop-opacity:0.12"/>
			<stop  offset="0.76" style="stop-color:#35C6B2;stop-opacity:0"/>
		</radialGradient>
		<path class="st9" d="M16.1,25.5c0.8,2.7,1.8,5.4,3.2,7.9c0.6,1.1,1.2,2.2,2.3,2.9c0.2,0.1,0.4,0.2,0.6,0.3c1.6,0.3,2.5-1,3.1-2.1
			c0.8-1.9,1.5-3.8,2.1-5.8c0.1-0.4,0.2-0.7,0.3-1.1c0.2-0.7,0.4-1.4,0.5-2.1l7.1-19c1.5-2,3.4-3.6,5.6-4.7C43,0.6,45.4,0,47.9,0
			c3.5,0,7,1.2,9.8,3.4c4.7,3.5,7.4,10.5,7.4,10.5c0.4,0.9,0.6,1.9,0.6,2.9c0,0.9-0.2,1.8-0.5,2.7c-0.4,0.8-0.9,1.6-1.5,2.3
			c-0.6,0.6-1.4,1.2-2.3,1.5c-0.8,0.3-1.8,0.5-2.7,0.5c-1,0-2-0.2-2.9-0.7c-0.9-0.4-1.7-1.1-2.4-1.8c0,0,0-0.1-0.1-0.1
			c-0.4-0.6-0.8-1.3-1.1-2c-0.4-0.9-0.8-1.7-1.3-2.5c-0.3-0.4-0.5-0.8-0.8-1.2c-0.2-0.4-0.5-0.7-0.9-1c-0.7-0.5-1.5-0.7-2.2-0.3
			l-0.1,0.1c-0.8,0.5-1.3,1.6-1.7,2.5c-1.1,2.4-1.7,4.8-2.4,7.4c-0.1,0.5-0.2,1-0.3,1.5l-3,9.6l-4.1,9.1c-1.5,1.9-3.4,3.5-5.6,4.5
			c-2.2,1.1-4.6,1.6-7,1.7c-10.1,0.2-14.8-8.9-14.8-8.9c-5.7-9.4-7.4-21.8-7.8-25.8C0,15,0,14.5,0,14.5c0-1.2,0.3-2.5,1-3.5
			C1.6,9.9,2.5,9,3.6,8.4C4.8,7.8,6,7.6,7.3,7.6c1.2,0,2.3,0.4,3.4,1c0.8,0.5,1.5,1.1,2,1.8c0.9,1.3,1.2,3,1.3,4.6
			C14.4,18.6,15.1,22.1,16.1,25.5L16.1,25.5z"/>
		
			<radialGradient id="SVGID_12_" cx="-89.3727" cy="343.2356" r="1" gradientTransform="matrix(-3.8314 19.7622 24.4207 4.7345 -8676.1631 167.1098)" gradientUnits="userSpaceOnUse">
			<stop  offset="0" style="stop-color:#237F66;stop-opacity:0.8"/>
			<stop  offset="6.000000e-02" style="stop-color:#2C8C70;stop-opacity:0.65"/>
			<stop  offset="0.21" style="stop-color:#3DA785;stop-opacity:0.37"/>
			<stop  offset="0.35" style="stop-color:#4ABA93;stop-opacity:0.17"/>
			<stop  offset="0.47" style="stop-color:#51C59C;stop-opacity:4.000000e-02"/>
			<stop  offset="0.56" style="stop-color:#54C99F;stop-opacity:0"/>
		</radialGradient>
		<path class="st10" d="M16.1,25.5c0.8,2.7,1.8,5.4,3.2,7.9c0.6,1.1,1.2,2.2,2.3,2.9c0.2,0.1,0.4,0.2,0.6,0.3c1.6,0.3,2.5-1,3.1-2.1
			c0.8-1.9,1.5-3.8,2.1-5.8c0.1-0.4,0.2-0.7,0.3-1.1c0.2-0.7,0.4-1.4,0.5-2.1l7.1-19c1.5-2,3.4-3.6,5.6-4.7C43,0.6,45.4,0,47.9,0
			c3.5,0,7,1.2,9.8,3.4c4.7,3.5,7.4,10.5,7.4,10.5c0.4,0.9,0.6,1.9,0.6,2.9c0,0.9-0.2,1.8-0.5,2.7c-0.4,0.8-0.9,1.6-1.5,2.3
			c-0.6,0.6-1.4,1.2-2.3,1.5c-0.8,0.3-1.8,0.5-2.7,0.5c-1,0-2-0.2-2.9-0.7c-0.9-0.4-1.7-1.1-2.4-1.8c0,0,0-0.1-0.1-0.1
			c-0.4-0.6-0.8-1.3-1.1-2c-0.4-0.9-0.8-1.7-1.3-2.5c-0.3-0.4-0.5-0.8-0.8-1.2c-0.2-0.4-0.5-0.7-0.9-1c-0.7-0.5-1.5-0.7-2.2-0.3
			l-0.1,0.1c-0.8,0.5-1.3,1.6-1.7,2.5c-1.1,2.4-1.7,4.8-2.4,7.4c-0.1,0.5-0.2,1-0.3,1.5l-3,9.6l-4.1,9.1c-1.5,1.9-3.4,3.5-5.6,4.5
			c-2.2,1.1-4.6,1.6-7,1.7c-10.1,0.2-14.8-8.9-14.8-8.9c-5.7-9.4-7.4-21.8-7.8-25.8C0,15,0,14.5,0,14.5c0-1.2,0.3-2.5,1-3.5
			C1.6,9.9,2.5,9,3.6,8.4C4.8,7.8,6,7.6,7.3,7.6c1.2,0,2.3,0.4,3.4,1c0.8,0.5,1.5,1.1,2,1.8c0.9,1.3,1.2,3,1.3,4.6
			C14.4,18.6,15.1,22.1,16.1,25.5L16.1,25.5z"/>
		
			<radialGradient id="SVGID_13_" cx="-106.1773" cy="328.7822" r="1" gradientTransform="matrix(16.618 -20.3902 -22.0214 -17.9474 9041.8467 3762.7642)" gradientUnits="userSpaceOnUse">
			<stop  offset="0" style="stop-color:#167C8A"/>
			<stop  offset="4.000000e-02" style="stop-color:#167C8A;stop-opacity:0.93"/>
			<stop  offset="0.33" style="stop-color:#177F8D;stop-opacity:0.43"/>
			<stop  offset="0.54" style="stop-color:#17818F;stop-opacity:0.12"/>
			<stop  offset="0.65" style="stop-color:#178290;stop-opacity:0"/>
		</radialGradient>
		<path class="st11" d="M16.1,25.5c0.8,2.7,1.8,5.4,3.2,7.9c0.6,1.1,1.2,2.2,2.3,2.9c0.2,0.1,0.4,0.2,0.6,0.3c1.6,0.3,2.5-1,3.1-2.1
			c0.8-1.9,1.5-3.8,2.1-5.8c0.1-0.4,0.2-0.7,0.3-1.1c0.2-0.7,0.4-1.4,0.5-2.1l7.1-19c1.5-2,3.4-3.6,5.6-4.7C43,0.6,45.4,0,47.9,0
			c3.5,0,7,1.2,9.8,3.4c4.7,3.5,7.4,10.5,7.4,10.5c0.4,0.9,0.6,1.9,0.6,2.9c0,0.9-0.2,1.8-0.5,2.7c-0.4,0.8-0.9,1.6-1.5,2.3
			c-0.6,0.6-1.4,1.2-2.3,1.5c-0.8,0.3-1.8,0.5-2.7,0.5c-1,0-2-0.2-2.9-0.7c-0.9-0.4-1.7-1.1-2.4-1.8c0,0,0-0.1-0.1-0.1
			c-0.4-0.6-0.8-1.3-1.1-2c-0.4-0.9-0.8-1.7-1.3-2.5c-0.3-0.4-0.5-0.8-0.8-1.2c-0.2-0.4-0.5-0.7-0.9-1c-0.7-0.5-1.5-0.7-2.2-0.3
			l-0.1,0.1c-0.8,0.5-1.3,1.6-1.7,2.5c-1.1,2.4-1.7,4.8-2.4,7.4c-0.1,0.5-0.2,1-0.3,1.5l-3,9.6l-4.1,9.1c-1.5,1.9-3.4,3.5-5.6,4.5
			c-2.2,1.1-4.6,1.6-7,1.7c-10.1,0.2-14.8-8.9-14.8-8.9c-5.7-9.4-7.4-21.8-7.8-25.8C0,15,0,14.5,0,14.5c0-1.2,0.3-2.5,1-3.5
			C1.6,9.9,2.5,9,3.6,8.4C4.8,7.8,6,7.6,7.3,7.6c1.2,0,2.3,0.4,3.4,1c0.8,0.5,1.5,1.1,2,1.8c0.9,1.3,1.2,3,1.3,4.6
			C14.4,18.6,15.1,22.1,16.1,25.5L16.1,25.5z"/>
		
			<radialGradient id="SVGID_14_" cx="-102.927" cy="323.8277" r="1" gradientTransform="matrix(21.842 -13.4688 -10.6404 -17.2552 5729.3394 4230.9814)" gradientUnits="userSpaceOnUse">
			<stop  offset="5.000000e-02" style="stop-color:#177D87"/>
			<stop  offset="0.11" style="stop-color:#177E89;stop-opacity:0.8"/>
			<stop  offset="0.21" style="stop-color:#177F8B;stop-opacity:0.52"/>
			<stop  offset="0.32" style="stop-color:#17818D;stop-opacity:0.29"/>
			<stop  offset="0.42" style="stop-color:#17818F;stop-opacity:0.13"/>
			<stop  offset="0.51" style="stop-color:#178290;stop-opacity:3.000000e-02"/>
			<stop  offset="0.6" style="stop-color:#178290;stop-opacity:0"/>
		</radialGradient>
		<path class="st12" d="M16.1,25.5c0.8,2.7,1.8,5.4,3.2,7.9c0.6,1.1,1.2,2.2,2.3,2.9c0.2,0.1,0.4,0.2,0.6,0.3c1.6,0.3,2.5-1,3.1-2.1
			c0.8-1.9,1.5-3.8,2.1-5.8c0.1-0.4,0.2-0.7,0.3-1.1c0.2-0.7,0.4-1.4,0.5-2.1l7.1-19c1.5-2,3.4-3.6,5.6-4.7C43,0.6,45.4,0,47.9,0
			c3.5,0,7,1.2,9.8,3.4c4.7,3.5,7.4,10.5,7.4,10.5c0.4,0.9,0.6,1.9,0.6,2.9c0,0.9-0.2,1.8-0.5,2.7c-0.4,0.8-0.9,1.6-1.5,2.3
			c-0.6,0.6-1.4,1.2-2.3,1.5c-0.8,0.3-1.8,0.5-2.7,0.5c-1,0-2-0.2-2.9-0.7c-0.9-0.4-1.7-1.1-2.4-1.8c0,0,0-0.1-0.1-0.1
			c-0.4-0.6-0.8-1.3-1.1-2c-0.4-0.9-0.8-1.7-1.3-2.5c-0.3-0.4-0.5-0.8-0.8-1.2c-0.2-0.4-0.5-0.7-0.9-1c-0.7-0.5-1.5-0.7-2.2-0.3
			l-0.1,0.1c-0.8,0.5-1.3,1.6-1.7,2.5c-1.1,2.4-1.7,4.8-2.4,7.4c-0.1,0.5-0.2,1-0.3,1.5l-3,9.6l-4.1,9.1c-1.5,1.9-3.4,3.5-5.6,4.5
			c-2.2,1.1-4.6,1.6-7,1.7c-10.1,0.2-14.8-8.9-14.8-8.9c-5.7-9.4-7.4-21.8-7.8-25.8C0,15,0,14.5,0,14.5c0-1.2,0.3-2.5,1-3.5
			C1.6,9.9,2.5,9,3.6,8.4C4.8,7.8,6,7.6,7.3,7.6c1.2,0,2.3,0.4,3.4,1c0.8,0.5,1.5,1.1,2,1.8c0.9,1.3,1.2,3,1.3,4.6
			C14.4,18.6,15.1,22.1,16.1,25.5L16.1,25.5z"/>
		
			<radialGradient id="SVGID_15_" cx="-118.1185" cy="344.8292" r="1" gradientTransform="matrix(-9.9371 -11.6188 -9.1488 7.8246 2011.2411 -4041.2964)" gradientUnits="userSpaceOnUse">
			<stop  offset="0.26" style="stop-color:#177F8A"/>
			<stop  offset="0.27" style="stop-color:#177F8A;stop-opacity:0.98"/>
			<stop  offset="0.38" style="stop-color:#17808C;stop-opacity:0.68"/>
			<stop  offset="0.5" style="stop-color:#17818D;stop-opacity:0.43"/>
			<stop  offset="0.62" style="stop-color:#17818F;stop-opacity:0.24"/>
			<stop  offset="0.74" style="stop-color:#17828F;stop-opacity:0.11"/>
			<stop  offset="0.86" style="stop-color:#178290;stop-opacity:3.000000e-02"/>
			<stop  offset="1" style="stop-color:#178290;stop-opacity:0"/>
		</radialGradient>
		<path class="st13" d="M16.1,25.5c0.8,2.7,1.8,5.4,3.2,7.9c0.6,1.1,1.2,2.2,2.3,2.9c0.2,0.1,0.4,0.2,0.6,0.3c1.6,0.3,2.5-1,3.1-2.1
			c0.8-1.9,1.5-3.8,2.1-5.8c0.1-0.4,0.2-0.7,0.3-1.1c0.2-0.7,0.4-1.4,0.5-2.1l7.1-19c1.5-2,3.4-3.6,5.6-4.7C43,0.6,45.4,0,47.9,0
			c3.5,0,7,1.2,9.8,3.4c4.7,3.5,7.4,10.5,7.4,10.5c0.4,0.9,0.6,1.9,0.6,2.9c0,0.9-0.2,1.8-0.5,2.7c-0.4,0.8-0.9,1.6-1.5,2.3
			c-0.6,0.6-1.4,1.2-2.3,1.5c-0.8,0.3-1.8,0.5-2.7,0.5c-1,0-2-0.2-2.9-0.7c-0.9-0.4-1.7-1.1-2.4-1.8c0,0,0-0.1-0.1-0.1
			c-0.4-0.6-0.8-1.3-1.1-2c-0.4-0.9-0.8-1.7-1.3-2.5c-0.3-0.4-0.5-0.8-0.8-1.2c-0.2-0.4-0.5-0.7-0.9-1c-0.7-0.5-1.5-0.7-2.2-0.3
			l-0.1,0.1c-0.8,0.5-1.3,1.6-1.7,2.5c-1.1,2.4-1.7,4.8-2.4,7.4c-0.1,0.5-0.2,1-0.3,1.5l-3,9.6l-4.1,9.1c-1.5,1.9-3.4,3.5-5.6,4.5
			c-2.2,1.1-4.6,1.6-7,1.7c-10.1,0.2-14.8-8.9-14.8-8.9c-5.7-9.4-7.4-21.8-7.8-25.8C0,15,0,14.5,0,14.5c0-1.2,0.3-2.5,1-3.5
			C1.6,9.9,2.5,9,3.6,8.4C4.8,7.8,6,7.6,7.3,7.6c1.2,0,2.3,0.4,3.4,1c0.8,0.5,1.5,1.1,2,1.8c0.9,1.3,1.2,3,1.3,4.6
			C14.4,18.6,15.1,22.1,16.1,25.5L16.1,25.5z"/>
		
			<radialGradient id="SVGID_16_" cx="-110.15" cy="354.291" r="1" gradientTransform="matrix(-14.2375 -1.7204 -1.7204 14.2375 -932.2625 -5199.9551)" gradientUnits="userSpaceOnUse">
			<stop  offset="0" style="stop-color:#13656E"/>
			<stop  offset="0.11" style="stop-color:#13646E;stop-opacity:0.73"/>
			<stop  offset="0.27" style="stop-color:#12646E;stop-opacity:0.41"/>
			<stop  offset="0.42" style="stop-color:#12636E;stop-opacity:0.18"/>
			<stop  offset="0.55" style="stop-color:#12636E;stop-opacity:5.000000e-02"/>
			<stop  offset="0.66" style="stop-color:#12636E;stop-opacity:0"/>
		</radialGradient>
		<path class="st14" d="M16.1,25.5c0.8,2.7,1.8,5.4,3.2,7.9c0.6,1.1,1.2,2.2,2.3,2.9c0.2,0.1,0.4,0.2,0.6,0.3c1.6,0.3,2.5-1,3.1-2.1
			c0.8-1.9,1.5-3.8,2.1-5.8c0.1-0.4,0.2-0.7,0.3-1.1c0.2-0.7,0.4-1.4,0.5-2.1l7.1-19c1.5-2,3.4-3.6,5.6-4.7C43,0.6,45.4,0,47.9,0
			c3.5,0,7,1.2,9.8,3.4c4.7,3.5,7.4,10.5,7.4,10.5c0.4,0.9,0.6,1.9,0.6,2.9c0,0.9-0.2,1.8-0.5,2.7c-0.4,0.8-0.9,1.6-1.5,2.3
			c-0.6,0.6-1.4,1.2-2.3,1.5c-0.8,0.3-1.8,0.5-2.7,0.5c-1,0-2-0.2-2.9-0.7c-0.9-0.4-1.7-1.1-2.4-1.8c0,0,0-0.1-0.1-0.1
			c-0.4-0.6-0.8-1.3-1.1-2c-0.4-0.9-0.8-1.7-1.3-2.5c-0.3-0.4-0.5-0.8-0.8-1.2c-0.2-0.4-0.5-0.7-0.9-1c-0.7-0.5-1.5-0.7-2.2-0.3
			l-0.1,0.1c-0.8,0.5-1.3,1.6-1.7,2.5c-1.1,2.4-1.7,4.8-2.4,7.4c-0.1,0.5-0.2,1-0.3,1.5l-3,9.6l-4.1,9.1c-1.5,1.9-3.4,3.5-5.6,4.5
			c-2.2,1.1-4.6,1.6-7,1.7c-10.1,0.2-14.8-8.9-14.8-8.9c-5.7-9.4-7.4-21.8-7.8-25.8C0,15,0,14.5,0,14.5c0-1.2,0.3-2.5,1-3.5
			C1.6,9.9,2.5,9,3.6,8.4C4.8,7.8,6,7.6,7.3,7.6c1.2,0,2.3,0.4,3.4,1c0.8,0.5,1.5,1.1,2,1.8c0.9,1.3,1.2,3,1.3,4.6
			C14.4,18.6,15.1,22.1,16.1,25.5L16.1,25.5z"/>
		
			<radialGradient id="SVGID_17_" cx="-128.3609" cy="341.8192" r="1" gradientTransform="matrix(-4.9112 -8.7444 -7.3453 4.1254 1906.4636 -2496.6357)" gradientUnits="userSpaceOnUse">
			<stop  offset="0.13" style="stop-color:#146A73"/>
			<stop  offset="0.24" style="stop-color:#156F79;stop-opacity:0.79"/>
			<stop  offset="0.45" style="stop-color:#167783;stop-opacity:0.45"/>
			<stop  offset="0.65" style="stop-color:#167D8A;stop-opacity:0.2"/>
			<stop  offset="0.82" style="stop-color:#17818E;stop-opacity:5.000000e-02"/>
			<stop  offset="0.95" style="stop-color:#178290;stop-opacity:0"/>
		</radialGradient>
		<path class="st15" d="M16.1,25.5c0.8,2.7,1.8,5.4,3.2,7.9c0.6,1.1,1.2,2.2,2.3,2.9c0.2,0.1,0.4,0.2,0.6,0.3c1.6,0.3,2.5-1,3.1-2.1
			c0.8-1.9,1.5-3.8,2.1-5.8c0.1-0.4,0.2-0.7,0.3-1.1c0.2-0.7,0.4-1.4,0.5-2.1l7.1-19c1.5-2,3.4-3.6,5.6-4.7C43,0.6,45.4,0,47.9,0
			c3.5,0,7,1.2,9.8,3.4c4.7,3.5,7.4,10.5,7.4,10.5c0.4,0.9,0.6,1.9,0.6,2.9c0,0.9-0.2,1.8-0.5,2.7c-0.4,0.8-0.9,1.6-1.5,2.3
			c-0.6,0.6-1.4,1.2-2.3,1.5c-0.8,0.3-1.8,0.5-2.7,0.5c-1,0-2-0.2-2.9-0.7c-0.9-0.4-1.7-1.1-2.4-1.8c0,0,0-0.1-0.1-0.1
			c-0.4-0.6-0.8-1.3-1.1-2c-0.4-0.9-0.8-1.7-1.3-2.5c-0.3-0.4-0.5-0.8-0.8-1.2c-0.2-0.4-0.5-0.7-0.9-1c-0.7-0.5-1.5-0.7-2.2-0.3
			l-0.1,0.1c-0.8,0.5-1.3,1.6-1.7,2.5c-1.1,2.4-1.7,4.8-2.4,7.4c-0.1,0.5-0.2,1-0.3,1.5l-3,9.6l-4.1,9.1c-1.5,1.9-3.4,3.5-5.6,4.5
			c-2.2,1.1-4.6,1.6-7,1.7c-10.1,0.2-14.8-8.9-14.8-8.9c-5.7-9.4-7.4-21.8-7.8-25.8C0,15,0,14.5,0,14.5c0-1.2,0.3-2.5,1-3.5
			C1.6,9.9,2.5,9,3.6,8.4C4.8,7.8,6,7.6,7.3,7.6c1.2,0,2.3,0.4,3.4,1c0.8,0.5,1.5,1.1,2,1.8c0.9,1.3,1.2,3,1.3,4.6
			C14.4,18.6,15.1,22.1,16.1,25.5L16.1,25.5z"/>
		
			<radialGradient id="SVGID_18_" cx="-117.6818" cy="306.7671" r="1" gradientTransform="matrix(5.2767 -7.8208 -6.1958 -4.1803 2545.5078 393.3918)" gradientUnits="userSpaceOnUse">
			<stop  offset="0" style="stop-color:#198E9C"/>
			<stop  offset="0.1" style="stop-color:#198E9C;stop-opacity:0.87"/>
			<stop  offset="0.41" style="stop-color:#198E9C;stop-opacity:0.5"/>
			<stop  offset="0.67" style="stop-color:#198E9C;stop-opacity:0.23"/>
			<stop  offset="0.88" style="stop-color:#198E9C;stop-opacity:6.000000e-02"/>
			<stop  offset="1" style="stop-color:#198E9C;stop-opacity:0"/>
		</radialGradient>
		<path class="st16" d="M16.1,25.5c0.8,2.7,1.8,5.4,3.2,7.9c0.6,1.1,1.2,2.2,2.3,2.9c0.2,0.1,0.4,0.2,0.6,0.3c1.6,0.3,2.5-1,3.1-2.1
			c0.8-1.9,1.5-3.8,2.1-5.8c0.1-0.4,0.2-0.7,0.3-1.1c0.2-0.7,0.4-1.4,0.5-2.1l7.1-19c1.5-2,3.4-3.6,5.6-4.7C43,0.6,45.4,0,47.9,0
			c3.5,0,7,1.2,9.8,3.4c4.7,3.5,7.4,10.5,7.4,10.5c0.4,0.9,0.6,1.9,0.6,2.9c0,0.9-0.2,1.8-0.5,2.7c-0.4,0.8-0.9,1.6-1.5,2.3
			c-0.6,0.6-1.4,1.2-2.3,1.5c-0.8,0.3-1.8,0.5-2.7,0.5c-1,0-2-0.2-2.9-0.7c-0.9-0.4-1.7-1.1-2.4-1.8c0,0,0-0.1-0.1-0.1
			c-0.4-0.6-0.8-1.3-1.1-2c-0.4-0.9-0.8-1.7-1.3-2.5c-0.3-0.4-0.5-0.8-0.8-1.2c-0.2-0.4-0.5-0.7-0.9-1c-0.7-0.5-1.5-0.7-2.2-0.3
			l-0.1,0.1c-0.8,0.5-1.3,1.6-1.7,2.5c-1.1,2.4-1.7,4.8-2.4,7.4c-0.1,0.5-0.2,1-0.3,1.5l-3,9.6l-4.1,9.1c-1.5,1.9-3.4,3.5-5.6,4.5
			c-2.2,1.1-4.6,1.6-7,1.7c-10.1,0.2-14.8-8.9-14.8-8.9c-5.7-9.4-7.4-21.8-7.8-25.8C0,15,0,14.5,0,14.5c0-1.2,0.3-2.5,1-3.5
			C1.6,9.9,2.5,9,3.6,8.4C4.8,7.8,6,7.6,7.3,7.6c1.2,0,2.3,0.4,3.4,1c0.8,0.5,1.5,1.1,2,1.8c0.9,1.3,1.2,3,1.3,4.6
			C14.4,18.6,15.1,22.1,16.1,25.5L16.1,25.5z"/>
		
			<linearGradient id="SVGID_19_" gradientUnits="userSpaceOnUse" x1="6.6956" y1="80.4208" x2="30.8846" y2="58.0364" gradientTransform="matrix(1 0 0 -1 0 79.2756)">
			<stop  offset="0.13" style="stop-color:#2BF9FF"/>
			<stop  offset="0.27" style="stop-color:#29F9FF;stop-opacity:0.64"/>
			<stop  offset="0.4" style="stop-color:#27FAFF;stop-opacity:0.3"/>
			<stop  offset="0.49" style="stop-color:#26FAFF;stop-opacity:8.000000e-02"/>
			<stop  offset="0.54" style="stop-color:#26FAFF;stop-opacity:0"/>
		</linearGradient>
		<path class="st17" d="M16.1,25.5c0.8,2.7,1.8,5.4,3.2,7.9c0.6,1.1,1.2,2.2,2.3,2.9c0.2,0.1,0.4,0.2,0.6,0.3c1.6,0.3,2.5-1,3.1-2.1
			c0.8-1.9,1.5-3.8,2.1-5.8c0.1-0.4,0.2-0.7,0.3-1.1c0.2-0.7,0.4-1.4,0.5-2.1l7.1-19c1.5-2,3.4-3.6,5.6-4.7C43,0.6,45.4,0,47.9,0
			c3.5,0,7,1.2,9.8,3.4c4.7,3.5,7.4,10.5,7.4,10.5c0.4,0.9,0.6,1.9,0.6,2.9c0,0.9-0.2,1.8-0.5,2.7c-0.4,0.8-0.9,1.6-1.5,2.3
			c-0.6,0.6-1.4,1.2-2.3,1.5c-0.8,0.3-1.8,0.5-2.7,0.5c-1,0-2-0.2-2.9-0.7c-0.9-0.4-1.7-1.1-2.4-1.8c0,0,0-0.1-0.1-0.1
			c-0.4-0.6-0.8-1.3-1.1-2c-0.4-0.9-0.8-1.7-1.3-2.5c-0.3-0.4-0.5-0.8-0.8-1.2c-0.2-0.4-0.5-0.7-0.9-1c-0.7-0.5-1.5-0.7-2.2-0.3
			l-0.1,0.1c-0.8,0.5-1.3,1.6-1.7,2.5c-1.1,2.4-1.7,4.8-2.4,7.4c-0.1,0.5-0.2,1-0.3,1.5l-3,9.6l-4.1,9.1c-1.5,1.9-3.4,3.5-5.6,4.5
			c-2.2,1.1-4.6,1.6-7,1.7c-10.1,0.2-14.8-8.9-14.8-8.9c-5.7-9.4-7.4-21.8-7.8-25.8C0,15,0,14.5,0,14.5c0-1.2,0.3-2.5,1-3.5
			C1.6,9.9,2.5,9,3.6,8.4C4.8,7.8,6,7.6,7.3,7.6c1.2,0,2.3,0.4,3.4,1c0.8,0.5,1.5,1.1,2,1.8c0.9,1.3,1.2,3,1.3,4.6
			C14.4,18.6,15.1,22.1,16.1,25.5L16.1,25.5z"/>
		
			<linearGradient id="SVGID_20_" gradientUnits="userSpaceOnUse" x1="-6.9979" y1="43.8954" x2="21.2553" y2="51.9054" gradientTransform="matrix(1 0 0 -1 0 79.2756)">
			<stop  offset="0" style="stop-color:#26FAFF"/>
			<stop  offset="6.000000e-02" style="stop-color:#26FAFF;stop-opacity:0.88"/>
			<stop  offset="0.24" style="stop-color:#26FAFF;stop-opacity:0.51"/>
			<stop  offset="0.39" style="stop-color:#26FAFF;stop-opacity:0.23"/>
			<stop  offset="0.5" style="stop-color:#26FAFF;stop-opacity:6.000000e-02"/>
			<stop  offset="0.55" style="stop-color:#26FAFF;stop-opacity:0"/>
		</linearGradient>
		<path class="st18" d="M16.1,25.5c0.8,2.7,1.8,5.4,3.2,7.9c0.6,1.1,1.2,2.2,2.3,2.9c0.2,0.1,0.4,0.2,0.6,0.3c1.6,0.3,2.5-1,3.1-2.1
			c0.8-1.9,1.5-3.8,2.1-5.8c0.1-0.4,0.2-0.7,0.3-1.1c0.2-0.7,0.4-1.4,0.5-2.1l7.1-19c1.5-2,3.4-3.6,5.6-4.7C43,0.6,45.4,0,47.9,0
			c3.5,0,7,1.2,9.8,3.4c4.7,3.5,7.4,10.5,7.4,10.5c0.4,0.9,0.6,1.9,0.6,2.9c0,0.9-0.2,1.8-0.5,2.7c-0.4,0.8-0.9,1.6-1.5,2.3
			c-0.6,0.6-1.4,1.2-2.3,1.5c-0.8,0.3-1.8,0.5-2.7,0.5c-1,0-2-0.2-2.9-0.7c-0.9-0.4-1.7-1.1-2.4-1.8c0,0,0-0.1-0.1-0.1
			c-0.4-0.6-0.8-1.3-1.1-2c-0.4-0.9-0.8-1.7-1.3-2.5c-0.3-0.4-0.5-0.8-0.8-1.2c-0.2-0.4-0.5-0.7-0.9-1c-0.7-0.5-1.5-0.7-2.2-0.3
			l-0.1,0.1c-0.8,0.5-1.3,1.6-1.7,2.5c-1.1,2.4-1.7,4.8-2.4,7.4c-0.1,0.5-0.2,1-0.3,1.5l-3,9.6l-4.1,9.1c-1.5,1.9-3.4,3.5-5.6,4.5
			c-2.2,1.1-4.6,1.6-7,1.7c-10.1,0.2-14.8-8.9-14.8-8.9c-5.7-9.4-7.4-21.8-7.8-25.8C0,15,0,14.5,0,14.5c0-1.2,0.3-2.5,1-3.5
			C1.6,9.9,2.5,9,3.6,8.4C4.8,7.8,6,7.6,7.3,7.6c1.2,0,2.3,0.4,3.4,1c0.8,0.5,1.5,1.1,2,1.8c0.9,1.3,1.2,3,1.3,4.6
			C14.4,18.6,15.1,22.1,16.1,25.5L16.1,25.5z"/>
		
			<linearGradient id="SVGID_21_" gradientUnits="userSpaceOnUse" x1="0.4875" y1="44.877" x2="32.3278" y2="56.2264" gradientTransform="matrix(1 0 0 -1 0 79.2756)">
			<stop  offset="0" style="stop-color:#21DEFF"/>
			<stop  offset="4.000000e-02" style="stop-color:#21DEFF;stop-opacity:0.88"/>
			<stop  offset="0.17" style="stop-color:#21DEFF;stop-opacity:0.51"/>
			<stop  offset="0.27" style="stop-color:#21DEFF;stop-opacity:0.23"/>
			<stop  offset="0.34" style="stop-color:#21DEFF;stop-opacity:6.000000e-02"/>
			<stop  offset="0.38" style="stop-color:#21DEFF;stop-opacity:0"/>
		</linearGradient>
		<path class="st19" d="M16.1,25.5c0.8,2.7,1.8,5.4,3.2,7.9c0.6,1.1,1.2,2.2,2.3,2.9c0.2,0.1,0.4,0.2,0.6,0.3c1.6,0.3,2.5-1,3.1-2.1
			c0.8-1.9,1.5-3.8,2.1-5.8c0.1-0.4,0.2-0.7,0.3-1.1c0.2-0.7,0.4-1.4,0.5-2.1l7.1-19c1.5-2,3.4-3.6,5.6-4.7C43,0.6,45.4,0,47.9,0
			c3.5,0,7,1.2,9.8,3.4c4.7,3.5,7.4,10.5,7.4,10.5c0.4,0.9,0.6,1.9,0.6,2.9c0,0.9-0.2,1.8-0.5,2.7c-0.4,0.8-0.9,1.6-1.5,2.3
			c-0.6,0.6-1.4,1.2-2.3,1.5c-0.8,0.3-1.8,0.5-2.7,0.5c-1,0-2-0.2-2.9-0.7c-0.9-0.4-1.7-1.1-2.4-1.8c0,0,0-0.1-0.1-0.1
			c-0.4-0.6-0.8-1.3-1.1-2c-0.4-0.9-0.8-1.7-1.3-2.5c-0.3-0.4-0.5-0.8-0.8-1.2c-0.2-0.4-0.5-0.7-0.9-1c-0.7-0.5-1.5-0.7-2.2-0.3
			l-0.1,0.1c-0.8,0.5-1.3,1.6-1.7,2.5c-1.1,2.4-1.7,4.8-2.4,7.4c-0.1,0.5-0.2,1-0.3,1.5l-3,9.6l-4.1,9.1c-1.5,1.9-3.4,3.5-5.6,4.5
			c-2.2,1.1-4.6,1.6-7,1.7c-10.1,0.2-14.8-8.9-14.8-8.9c-5.7-9.4-7.4-21.8-7.8-25.8C0,15,0,14.5,0,14.5c0-1.2,0.3-2.5,1-3.5
			C1.6,9.9,2.5,9,3.6,8.4C4.8,7.8,6,7.6,7.3,7.6c1.2,0,2.3,0.4,3.4,1c0.8,0.5,1.5,1.1,2,1.8c0.9,1.3,1.2,3,1.3,4.6
			C14.4,18.6,15.1,22.1,16.1,25.5L16.1,25.5z"/>
		
			<linearGradient id="SVGID_22_" gradientUnits="userSpaceOnUse" x1="30.7434" y1="61.3019" x2="48.5533" y2="32.2536" gradientTransform="matrix(1 0 0 -1 0 79.2756)">
			<stop  offset="0.62" style="stop-color:#21DEFF;stop-opacity:0"/>
			<stop  offset="0.66" style="stop-color:#21DEFF;stop-opacity:6.000000e-02"/>
			<stop  offset="0.73" style="stop-color:#21DEFF;stop-opacity:0.23"/>
			<stop  offset="0.83" style="stop-color:#21DEFF;stop-opacity:0.51"/>
			<stop  offset="0.96" style="stop-color:#21DEFF;stop-opacity:0.88"/>
			<stop  offset="1" style="stop-color:#21DEFF"/>
		</linearGradient>
		<path class="st20" d="M16.1,25.5c0.8,2.7,1.8,5.4,3.2,7.9c0.6,1.1,1.2,2.2,2.3,2.9c0.2,0.1,0.4,0.2,0.6,0.3c1.6,0.3,2.5-1,3.1-2.1
			c0.8-1.9,1.5-3.8,2.1-5.8c0.1-0.4,0.2-0.7,0.3-1.1c0.2-0.7,0.4-1.4,0.5-2.1l7.1-19c1.5-2,3.4-3.6,5.6-4.7C43,0.6,45.4,0,47.9,0
			c3.5,0,7,1.2,9.8,3.4c4.7,3.5,7.4,10.5,7.4,10.5c0.4,0.9,0.6,1.9,0.6,2.9c0,0.9-0.2,1.8-0.5,2.7c-0.4,0.8-0.9,1.6-1.5,2.3
			c-0.6,0.6-1.4,1.2-2.3,1.5c-0.8,0.3-1.8,0.5-2.7,0.5c-1,0-2-0.2-2.9-0.7c-0.9-0.4-1.7-1.1-2.4-1.8c0,0,0-0.1-0.1-0.1
			c-0.4-0.6-0.8-1.3-1.1-2c-0.4-0.9-0.8-1.7-1.3-2.5c-0.3-0.4-0.5-0.8-0.8-1.2c-0.2-0.4-0.5-0.7-0.9-1c-0.7-0.5-1.5-0.7-2.2-0.3
			l-0.1,0.1c-0.8,0.5-1.3,1.6-1.7,2.5c-1.1,2.4-1.7,4.8-2.4,7.4c-0.1,0.5-0.2,1-0.3,1.5l-3,9.6l-4.1,9.1c-1.5,1.9-3.4,3.5-5.6,4.5
			c-2.2,1.1-4.6,1.6-7,1.7c-10.1,0.2-14.8-8.9-14.8-8.9c-5.7-9.4-7.4-21.8-7.8-25.8C0,15,0,14.5,0,14.5c0-1.2,0.3-2.5,1-3.5
			C1.6,9.9,2.5,9,3.6,8.4C4.8,7.8,6,7.6,7.3,7.6c1.2,0,2.3,0.4,3.4,1c0.8,0.5,1.5,1.1,2,1.8c0.9,1.3,1.2,3,1.3,4.6
			C14.4,18.6,15.1,22.1,16.1,25.5L16.1,25.5z"/>
		
			<linearGradient id="SVGID_23_" gradientUnits="userSpaceOnUse" x1="50.5636" y1="50.4494" x2="47.7642" y2="64.1136" gradientTransform="matrix(1 0 0 -1 0 79.2756)">
			<stop  offset="0" style="stop-color:#44B044"/>
			<stop  offset="0.11" style="stop-color:#44B044;stop-opacity:0.8"/>
			<stop  offset="0.27" style="stop-color:#44B044;stop-opacity:0.52"/>
			<stop  offset="0.43" style="stop-color:#44B044;stop-opacity:0.29"/>
			<stop  offset="0.58" style="stop-color:#44B044;stop-opacity:0.13"/>
			<stop  offset="0.7" style="stop-color:#44B044;stop-opacity:3.000000e-02"/>
			<stop  offset="0.8" style="stop-color:#44B044;stop-opacity:0"/>
		</linearGradient>
		<path class="st21" d="M30.7,18.4l4.5-12.1c1.5-2,3.4-3.6,5.6-4.7C43,0.6,45.4,0,47.9,0c3.5,0,7,1.2,9.8,3.4
			c4.7,3.5,7.4,10.5,7.4,10.5c0.4,0.9,0.6,1.9,0.6,2.9c0,0.9-0.2,1.8-0.5,2.7c-0.4,0.8-0.9,1.6-1.5,2.3c-0.6,0.6-1.4,1.2-2.3,1.5
			c-0.8,0.3-1.8,0.5-2.7,0.5c-1,0-2-0.2-2.9-0.7c-0.9-0.4-1.7-1.1-2.4-1.8c0,0,0-0.1-0.1-0.1c-0.4-0.6-0.8-1.3-1.1-2
			c-0.4-0.9-0.8-1.7-1.3-2.5c-0.3-0.4-0.5-0.8-0.8-1.2c-0.2-0.4-0.5-0.7-0.9-1c-0.7-0.5-1.5-0.7-2.2-0.3l-0.1,0.1
			c-0.8,0.5-1.3,1.6-1.7,2.5c-1.1,2.4-1.7,4.8-2.4,7.4c-0.1,0.5-0.2,1-0.3,1.5l-3,9.6L30.7,18.4z"/>
		
			<linearGradient id="SVGID_24_" gradientUnits="userSpaceOnUse" x1="11.4875" y1="64.6293" x2="70.4457" y2="45.1109" gradientTransform="matrix(1 0 0 -1 0 79.2756)">
			<stop  offset="0" style="stop-color:#3066FB"/>
			<stop  offset="0.38" style="stop-color:#2F64F7"/>
			<stop  offset="0.74" style="stop-color:#2857D9"/>
			<stop  offset="1" style="stop-color:#3C7EFF"/>
		</linearGradient>
		<path class="st22" d="M63.5,7.6c-0.6,0-1.2,0.1-1.7,0.2c1.3,1.9,2.4,3.9,3.3,6c0.4,0.9,0.6,1.9,0.6,2.9c0,0.9-0.2,1.8-0.5,2.7
			c-0.4,0.8-0.9,1.6-1.5,2.3s-1.4,1.2-2.3,1.5c-0.8,0.3-1.8,0.5-2.7,0.5c-1.2,0-2.5-0.3-3.5-1l-0.7,2.7c-1.3,4.4-2.2,6-2.2,6
			c-0.5,1.2-1.1,2.3-1.8,3.4c-0.5,0.7-1.1,1.4-1.9,1.7c-0.3,0.1-0.6,0.1-0.9,0.1c-0.3,0-0.6-0.1-0.9-0.3c-0.5-0.4-1-1-1.3-1.6
			c-0.4-0.7-0.7-1.4-1-2.1c-0.6-1.5-1.6-5.2-1.6-5.2l-1-3.9l-1-3.9L40.2,17c-1.8-6.7-4.4-10-4.4-10c-2-2.9-4.9-5-8.2-6.2
			c-3.8-1.4-7.8-0.6-7.8-0.6c-6.3,1.2-9.6,5.5-11,7.6c0.7,0.2,1.3,0.4,1.9,0.8c0.8,0.5,1.5,1.1,2,1.8c0.9,1.3,1.2,3,1.3,4.6
			c0.4,3.5,1.1,6.9,2,10.3c2.1-7.1,4.7-10.4,4.7-10.4c0.3-0.4,0.6-0.7,1-0.9c0.2-0.1,0.4-0.2,0.7-0.2c0.4,0,0.9,0.1,1.2,0.3
			c0.1,0,0.1,0.1,0.2,0.1c0.3,0.3,0.6,0.6,0.9,1c0.5,1,1,1.9,1.4,3c0.8,2.2,1.5,5,1.5,5l2,8c1.5,5.5,2.7,8.1,2.7,8.1
			c3.1,7.1,7.8,9.1,7.8,9.1c2.3,1.2,4.9,1.9,7.5,2c2.5,0.1,5-0.4,7.2-1.5c2.4-1.2,4.6-3,6.3-5.1c1.1-1.3,2.8-4.5,2.8-4.5
			c1.9-3.7,3.3-7.6,4.3-11.6c0.7-2.5,1.2-5,1.6-7.6c0.2-1.3,0.4-2.5,0.5-3.8c0.2-1.2,0.2-2.4-0.1-3.6c-0.1-0.2-0.1-0.4-0.2-0.6
			c-0.6-1.5-1.7-2.7-3.1-3.5C65.9,7.9,64.7,7.6,63.5,7.6z"/>
		
			<radialGradient id="SVGID_25_" cx="-93.3952" cy="343.9466" r="1" gradientTransform="matrix(-4.7638 31.1677 20.5707 3.1441 -7467.0112 1853.0936)" gradientUnits="userSpaceOnUse">
			<stop  offset="0" style="stop-color:#1A3D9C"/>
			<stop  offset="0.4" style="stop-color:#1A3D9C;stop-opacity:0.42"/>
			<stop  offset="0.7" style="stop-color:#1A3D9C;stop-opacity:0"/>
		</radialGradient>
		<path class="st23" d="M63.5,7.6c-0.6,0-1.2,0.1-1.7,0.2c1.3,1.9,2.4,3.9,3.3,6c0.4,0.9,0.6,1.9,0.6,2.9c0,0.9-0.2,1.8-0.5,2.7
			c-0.4,0.8-0.9,1.6-1.5,2.3s-1.4,1.2-2.3,1.5c-0.8,0.3-1.8,0.5-2.7,0.5c-1.2,0-2.5-0.3-3.5-1l-0.7,2.7c-1.3,4.4-2.2,6-2.2,6
			c-0.5,1.2-1.1,2.3-1.8,3.4c-0.5,0.7-1.1,1.4-1.9,1.7c-0.3,0.1-0.6,0.1-0.9,0.1c-0.3,0-0.6-0.1-0.9-0.3c-0.5-0.4-1-1-1.3-1.6
			c-0.4-0.7-0.7-1.4-1-2.1c-0.6-1.5-1.6-5.2-1.6-5.2l-1-3.9l-1-3.9L40.2,17c-1.8-6.7-4.4-10-4.4-10c-2-2.9-4.9-5-8.2-6.2
			c-3.8-1.4-7.8-0.6-7.8-0.6c-6.3,1.2-9.6,5.5-11,7.6c0.7,0.2,1.3,0.4,1.9,0.8c0.8,0.5,1.5,1.1,2,1.8c0.9,1.3,1.2,3,1.3,4.6
			c0.4,3.5,1.1,6.9,2,10.3c2.1-7.1,4.7-10.4,4.7-10.4c0.3-0.4,0.6-0.7,1-0.9c0.2-0.1,0.4-0.2,0.7-0.2c0.4,0,0.9,0.1,1.2,0.3
			c0.1,0,0.1,0.1,0.2,0.1c0.3,0.3,0.6,0.6,0.9,1c0.5,1,1,1.9,1.4,3c0.8,2.2,1.5,5,1.5,5l2,8c1.5,5.5,2.7,8.1,2.7,8.1
			c3.1,7.1,7.8,9.1,7.8,9.1c2.3,1.2,4.9,1.9,7.5,2c2.5,0.1,5-0.4,7.2-1.5c2.4-1.2,4.6-3,6.3-5.1c1.1-1.3,2.8-4.5,2.8-4.5
			c1.9-3.7,3.3-7.6,4.3-11.6c0.7-2.5,1.2-5,1.6-7.6c0.2-1.3,0.4-2.5,0.5-3.8c0.2-1.2,0.2-2.4-0.1-3.6c-0.1-0.2-0.1-0.4-0.2-0.6
			c-0.6-1.5-1.7-2.7-3.1-3.5C65.9,7.9,64.7,7.6,63.5,7.6z"/>
		
			<radialGradient id="SVGID_26_" cx="-100.9382" cy="337.3419" r="1" gradientTransform="matrix(-586.04 3834.2625 2067.4011 315.9877 -737387.25 230914.1875)" gradientUnits="userSpaceOnUse">
			<stop  offset="0" style="stop-color:#1A3D9C"/>
			<stop  offset="0.4" style="stop-color:#1A3D9C;stop-opacity:0.42"/>
			<stop  offset="0.7" style="stop-color:#1A3D9C;stop-opacity:0"/>
		</radialGradient>
		<path class="st24" d="M63.5,7.6c-0.6,0-1.2,0.1-1.7,0.2c1.3,1.9,2.4,3.9,3.3,6c0.4,0.9,0.6,1.9,0.6,2.9c0,0.9-0.2,1.8-0.5,2.7
			c-0.4,0.8-0.9,1.6-1.5,2.3s-1.4,1.2-2.3,1.5c-0.8,0.3-1.8,0.5-2.7,0.5c-1.2,0-2.5-0.3-3.5-1l-0.7,2.7c-1.3,4.4-2.2,6-2.2,6
			c-0.5,1.2-1.1,2.3-1.8,3.4c-0.5,0.7-1.1,1.4-1.9,1.7c-0.3,0.1-0.6,0.1-0.9,0.1c-0.3,0-0.6-0.1-0.9-0.3c-0.5-0.4-1-1-1.3-1.6
			c-0.4-0.7-0.7-1.4-1-2.1c-0.6-1.5-1.6-5.2-1.6-5.2l-1-3.9l-1-3.9L40.2,17c-1.8-6.7-4.4-10-4.4-10c-2-2.9-4.9-5-8.2-6.2
			c-3.8-1.4-7.8-0.6-7.8-0.6c-6.3,1.2-9.6,5.5-11,7.6c0.7,0.2,1.3,0.4,1.9,0.8c0.8,0.5,1.5,1.1,2,1.8c0.9,1.3,1.2,3,1.3,4.6
			c0.4,3.5,1.1,6.9,2,10.3c2.1-7.1,4.7-10.4,4.7-10.4c0.3-0.4,0.6-0.7,1-0.9c0.2-0.1,0.4-0.2,0.7-0.2c0.4,0,0.9,0.1,1.2,0.3
			c0.1,0,0.1,0.1,0.2,0.1c0.3,0.3,0.6,0.6,0.9,1c0.5,1,1,1.9,1.4,3c0.8,2.2,1.5,5,1.5,5l2,8c1.5,5.5,2.7,8.1,2.7,8.1
			c3.1,7.1,7.8,9.1,7.8,9.1c2.3,1.2,4.9,1.9,7.5,2c2.5,0.1,5-0.4,7.2-1.5c2.4-1.2,4.6-3,6.3-5.1c1.1-1.3,2.8-4.5,2.8-4.5
			c1.9-3.7,3.3-7.6,4.3-11.6c0.7-2.5,1.2-5,1.6-7.6c0.2-1.3,0.4-2.5,0.5-3.8c0.2-1.2,0.2-2.4-0.1-3.6c-0.1-0.2-0.1-0.4-0.2-0.6
			c-0.6-1.5-1.7-2.7-3.1-3.5C65.9,7.9,64.7,7.6,63.5,7.6z"/>
		
			<radialGradient id="SVGID_27_" cx="-100.9481" cy="337.3481" r="1" gradientTransform="matrix(-692.0117 4567.3027 1886.8551 285.8855 -689536.75 314335.5625)" gradientUnits="userSpaceOnUse">
			<stop  offset="0" style="stop-color:#1A3D9C"/>
			<stop  offset="0.4" style="stop-color:#1A3D9C;stop-opacity:0.42"/>
			<stop  offset="0.7" style="stop-color:#1A3D9C;stop-opacity:0"/>
		</radialGradient>
		<path class="st25" d="M63.5,7.6c-0.6,0-1.2,0.1-1.7,0.2c1.3,1.9,2.4,3.9,3.3,6c0.4,0.9,0.6,1.9,0.6,2.9c0,0.9-0.2,1.8-0.5,2.7
			c-0.4,0.8-0.9,1.6-1.5,2.3s-1.4,1.2-2.3,1.5c-0.8,0.3-1.8,0.5-2.7,0.5c-1.2,0-2.5-0.3-3.5-1l-0.7,2.7c-1.3,4.4-2.2,6-2.2,6
			c-0.5,1.2-1.1,2.3-1.8,3.4c-0.5,0.7-1.1,1.4-1.9,1.7c-0.3,0.1-0.6,0.1-0.9,0.1c-0.3,0-0.6-0.1-0.9-0.3c-0.5-0.4-1-1-1.3-1.6
			c-0.4-0.7-0.7-1.4-1-2.1c-0.6-1.5-1.6-5.2-1.6-5.2l-1-3.9l-1-3.9L40.2,17c-1.8-6.7-4.4-10-4.4-10c-2-2.9-4.9-5-8.2-6.2
			c-3.8-1.4-7.8-0.6-7.8-0.6c-6.3,1.2-9.6,5.5-11,7.6c0.7,0.2,1.3,0.4,1.9,0.8c0.8,0.5,1.5,1.1,2,1.8c0.9,1.3,1.2,3,1.3,4.6
			c0.4,3.5,1.1,6.9,2,10.3c2.1-7.1,4.7-10.4,4.7-10.4c0.3-0.4,0.6-0.7,1-0.9c0.2-0.1,0.4-0.2,0.7-0.2c0.4,0,0.9,0.1,1.2,0.3
			c0.1,0,0.1,0.1,0.2,0.1c0.3,0.3,0.6,0.6,0.9,1c0.5,1,1,1.9,1.4,3c0.8,2.2,1.5,5,1.5,5l2,8c1.5,5.5,2.7,8.1,2.7,8.1
			c3.1,7.1,7.8,9.1,7.8,9.1c2.3,1.2,4.9,1.9,7.5,2c2.5,0.1,5-0.4,7.2-1.5c2.4-1.2,4.6-3,6.3-5.1c1.1-1.3,2.8-4.5,2.8-4.5
			c1.9-3.7,3.3-7.6,4.3-11.6c0.7-2.5,1.2-5,1.6-7.6c0.2-1.3,0.4-2.5,0.5-3.8c0.2-1.2,0.2-2.4-0.1-3.6c-0.1-0.2-0.1-0.4-0.2-0.6
			c-0.6-1.5-1.7-2.7-3.1-3.5C65.9,7.9,64.7,7.6,63.5,7.6z"/>
		
			<radialGradient id="SVGID_28_" cx="-91.2655" cy="340.8753" r="1" gradientTransform="matrix(3.3163 27.3592 19.0896 -2.3139 -6155.3208 3308.1001)" gradientUnits="userSpaceOnUse">
			<stop  offset="0" style="stop-color:#1A3D9C"/>
			<stop  offset="0.16" style="stop-color:#1A3D9C;stop-opacity:0.69"/>
			<stop  offset="0.33" style="stop-color:#1A3D9C;stop-opacity:0.4"/>
			<stop  offset="0.49" style="stop-color:#1A3D9C;stop-opacity:0.18"/>
			<stop  offset="0.61" style="stop-color:#1A3D9C;stop-opacity:5.000000e-02"/>
			<stop  offset="0.7" style="stop-color:#1A3D9C;stop-opacity:0"/>
		</radialGradient>
		<path class="st26" d="M63.5,7.6c-0.6,0-1.2,0.1-1.7,0.2c1.3,1.9,2.4,3.9,3.3,6c0.4,0.9,0.6,1.9,0.6,2.9c0,0.9-0.2,1.8-0.5,2.7
			c-0.4,0.8-0.9,1.6-1.5,2.3s-1.4,1.2-2.3,1.5c-0.8,0.3-1.8,0.5-2.7,0.5c-1.2,0-2.5-0.3-3.5-1l-0.7,2.7c-1.3,4.4-2.2,6-2.2,6
			c-0.5,1.2-1.1,2.3-1.8,3.4c-0.5,0.7-1.1,1.4-1.9,1.7c-0.3,0.1-0.6,0.1-0.9,0.1c-0.3,0-0.6-0.1-0.9-0.3c-0.5-0.4-1-1-1.3-1.6
			c-0.4-0.7-0.7-1.4-1-2.1c-0.6-1.5-1.6-5.2-1.6-5.2l-1-3.9l-1-3.9L40.2,17c-1.8-6.7-4.4-10-4.4-10c-2-2.9-4.9-5-8.2-6.2
			c-3.8-1.4-7.8-0.6-7.8-0.6c-6.3,1.2-9.6,5.5-11,7.6c0.7,0.2,1.3,0.4,1.9,0.8c0.8,0.5,1.5,1.1,2,1.8c0.9,1.3,1.2,3,1.3,4.6
			c0.4,3.5,1.1,6.9,2,10.3c2.1-7.1,4.7-10.4,4.7-10.4c0.3-0.4,0.6-0.7,1-0.9c0.2-0.1,0.4-0.2,0.7-0.2c0.4,0,0.9,0.1,1.2,0.3
			c0.1,0,0.1,0.1,0.2,0.1c0.3,0.3,0.6,0.6,0.9,1c0.5,1,1,1.9,1.4,3c0.8,2.2,1.5,5,1.5,5l2,8c1.5,5.5,2.7,8.1,2.7,8.1
			c3.1,7.1,7.8,9.1,7.8,9.1c2.3,1.2,4.9,1.9,7.5,2c2.5,0.1,5-0.4,7.2-1.5c2.4-1.2,4.6-3,6.3-5.1c1.1-1.3,2.8-4.5,2.8-4.5
			c1.9-3.7,3.3-7.6,4.3-11.6c0.7-2.5,1.2-5,1.6-7.6c0.2-1.3,0.4-2.5,0.5-3.8c0.2-1.2,0.2-2.4-0.1-3.6c-0.1-0.2-0.1-0.4-0.2-0.6
			c-0.6-1.5-1.7-2.7-3.1-3.5C65.9,7.9,64.7,7.6,63.5,7.6z"/>
		
			<radialGradient id="SVGID_29_" cx="-90.5967" cy="338.8887" r="1" gradientTransform="matrix(7.0156 25.5395 17.3669 -4.7706 -5195.6958 3957.0959)" gradientUnits="userSpaceOnUse">
			<stop  offset="0" style="stop-color:#18388F"/>
			<stop  offset="0.37" style="stop-color:#193B96;stop-opacity:0.45"/>
			<stop  offset="0.7" style="stop-color:#1A3D9C;stop-opacity:0"/>
		</radialGradient>
		<path class="st27" d="M63.5,7.6c-0.6,0-1.2,0.1-1.7,0.2c1.3,1.9,2.4,3.9,3.3,6c0.4,0.9,0.6,1.9,0.6,2.9c0,0.9-0.2,1.8-0.5,2.7
			c-0.4,0.8-0.9,1.6-1.5,2.3s-1.4,1.2-2.3,1.5c-0.8,0.3-1.8,0.5-2.7,0.5c-1.2,0-2.5-0.3-3.5-1l-0.7,2.7c-1.3,4.4-2.2,6-2.2,6
			c-0.5,1.2-1.1,2.3-1.8,3.4c-0.5,0.7-1.1,1.4-1.9,1.7c-0.3,0.1-0.6,0.1-0.9,0.1c-0.3,0-0.6-0.1-0.9-0.3c-0.5-0.4-1-1-1.3-1.6
			c-0.4-0.7-0.7-1.4-1-2.1c-0.6-1.5-1.6-5.2-1.6-5.2l-1-3.9l-1-3.9L40.2,17c-1.8-6.7-4.4-10-4.4-10c-2-2.9-4.9-5-8.2-6.2
			c-3.8-1.4-7.8-0.6-7.8-0.6c-6.3,1.2-9.6,5.5-11,7.6c0.7,0.2,1.3,0.4,1.9,0.8c0.8,0.5,1.5,1.1,2,1.8c0.9,1.3,1.2,3,1.3,4.6
			c0.4,3.5,1.1,6.9,2,10.3c2.1-7.1,4.7-10.4,4.7-10.4c0.3-0.4,0.6-0.7,1-0.9c0.2-0.1,0.4-0.2,0.7-0.2c0.4,0,0.9,0.1,1.2,0.3
			c0.1,0,0.1,0.1,0.2,0.1c0.3,0.3,0.6,0.6,0.9,1c0.5,1,1,1.9,1.4,3c0.8,2.2,1.5,5,1.5,5l2,8c1.5,5.5,2.7,8.1,2.7,8.1
			c3.1,7.1,7.8,9.1,7.8,9.1c2.3,1.2,4.9,1.9,7.5,2c2.5,0.1,5-0.4,7.2-1.5c2.4-1.2,4.6-3,6.3-5.1c1.1-1.3,2.8-4.5,2.8-4.5
			c1.9-3.7,3.3-7.6,4.3-11.6c0.7-2.5,1.2-5,1.6-7.6c0.2-1.3,0.4-2.5,0.5-3.8c0.2-1.2,0.2-2.4-0.1-3.6c-0.1-0.2-0.1-0.4-0.2-0.6
			c-0.6-1.5-1.7-2.7-3.1-3.5C65.9,7.9,64.7,7.6,63.5,7.6z"/>
		
			<radialGradient id="SVGID_30_" cx="-78.6251" cy="339.7589" r="1" gradientTransform="matrix(3.2619 11.8747 11.2809 -3.0988 -3524.8049 2020.1703)" gradientUnits="userSpaceOnUse">
			<stop  offset="0" style="stop-color:#18388F"/>
			<stop  offset="9.000000e-02" style="stop-color:#183992;stop-opacity:0.78"/>
			<stop  offset="0.22" style="stop-color:#193B96;stop-opacity:0.5"/>
			<stop  offset="0.35" style="stop-color:#193C98;stop-opacity:0.28"/>
			<stop  offset="0.47" style="stop-color:#1A3C9A;stop-opacity:0.13"/>
			<stop  offset="0.59" style="stop-color:#1A3D9C;stop-opacity:3.000000e-02"/>
			<stop  offset="0.7" style="stop-color:#1A3D9C;stop-opacity:0"/>
		</radialGradient>
		<path class="st28" d="M63.5,7.6c-0.6,0-1.2,0.1-1.7,0.2c1.3,1.9,2.4,3.9,3.3,6c0.4,0.9,0.6,1.9,0.6,2.9c0,0.9-0.2,1.8-0.5,2.7
			c-0.4,0.8-0.9,1.6-1.5,2.3s-1.4,1.2-2.3,1.5c-0.8,0.3-1.8,0.5-2.7,0.5c-1.2,0-2.5-0.3-3.5-1l-0.7,2.7c-1.3,4.4-2.2,6-2.2,6
			c-0.5,1.2-1.1,2.3-1.8,3.4c-0.5,0.7-1.1,1.4-1.9,1.7c-0.3,0.1-0.6,0.1-0.9,0.1c-0.3,0-0.6-0.1-0.9-0.3c-0.5-0.4-1-1-1.3-1.6
			c-0.4-0.7-0.7-1.4-1-2.1c-0.6-1.5-1.6-5.2-1.6-5.2l-1-3.9l-1-3.9L40.2,17c-1.8-6.7-4.4-10-4.4-10c-2-2.9-4.9-5-8.2-6.2
			c-3.8-1.4-7.8-0.6-7.8-0.6c-6.3,1.2-9.6,5.5-11,7.6c0.7,0.2,1.3,0.4,1.9,0.8c0.8,0.5,1.5,1.1,2,1.8c0.9,1.3,1.2,3,1.3,4.6
			c0.4,3.5,1.1,6.9,2,10.3c2.1-7.1,4.7-10.4,4.7-10.4c0.3-0.4,0.6-0.7,1-0.9c0.2-0.1,0.4-0.2,0.7-0.2c0.4,0,0.9,0.1,1.2,0.3
			c0.1,0,0.1,0.1,0.2,0.1c0.3,0.3,0.6,0.6,0.9,1c0.5,1,1,1.9,1.4,3c0.8,2.2,1.5,5,1.5,5l2,8c1.5,5.5,2.7,8.1,2.7,8.1
			c3.1,7.1,7.8,9.1,7.8,9.1c2.3,1.2,4.9,1.9,7.5,2c2.5,0.1,5-0.4,7.2-1.5c2.4-1.2,4.6-3,6.3-5.1c1.1-1.3,2.8-4.5,2.8-4.5
			c1.9-3.7,3.3-7.6,4.3-11.6c0.7-2.5,1.2-5,1.6-7.6c0.2-1.3,0.4-2.5,0.5-3.8c0.2-1.2,0.2-2.4-0.1-3.6c-0.1-0.2-0.1-0.4-0.2-0.6
			c-0.6-1.5-1.7-2.7-3.1-3.5C65.9,7.9,64.7,7.6,63.5,7.6z"/>
		
			<radialGradient id="SVGID_31_" cx="-78.6251" cy="339.7589" r="1" gradientTransform="matrix(3.2619 11.8747 11.2809 -3.0988 -3524.5095 2022.271)" gradientUnits="userSpaceOnUse">
			<stop  offset="0" style="stop-color:#1A3D9C;stop-opacity:0.8"/>
			<stop  offset="1.000000e-02" style="stop-color:#1A3D9C;stop-opacity:0.78"/>
			<stop  offset="0.24" style="stop-color:#1A3D9C;stop-opacity:0.45"/>
			<stop  offset="0.44" style="stop-color:#1A3D9C;stop-opacity:0.2"/>
			<stop  offset="0.6" style="stop-color:#1A3D9C;stop-opacity:5.000000e-02"/>
			<stop  offset="0.7" style="stop-color:#1A3D9C;stop-opacity:0"/>
		</radialGradient>
		<path class="st29" d="M63.5,7.6c-0.6,0-1.2,0.1-1.7,0.2c1.3,1.9,2.4,3.9,3.3,6c0.4,0.9,0.6,1.9,0.6,2.9c0,0.9-0.2,1.8-0.5,2.7
			c-0.4,0.8-0.9,1.6-1.5,2.3s-1.4,1.2-2.3,1.5c-0.8,0.3-1.8,0.5-2.7,0.5c-1.2,0-2.5-0.3-3.5-1l-0.7,2.7c-1.3,4.4-2.2,6-2.2,6
			c-0.5,1.2-1.1,2.3-1.8,3.4c-0.5,0.7-1.1,1.4-1.9,1.7c-0.3,0.1-0.6,0.1-0.9,0.1c-0.3,0-0.6-0.1-0.9-0.3c-0.5-0.4-1-1-1.3-1.6
			c-0.4-0.7-0.7-1.4-1-2.1c-0.6-1.5-1.6-5.2-1.6-5.2l-1-3.9l-1-3.9L40.2,17c-1.8-6.7-4.4-10-4.4-10c-2-2.9-4.9-5-8.2-6.2
			c-3.8-1.4-7.8-0.6-7.8-0.6c-6.3,1.2-9.6,5.5-11,7.6c0.7,0.2,1.3,0.4,1.9,0.8c0.8,0.5,1.5,1.1,2,1.8c0.9,1.3,1.2,3,1.3,4.6
			c0.4,3.5,1.1,6.9,2,10.3c2.1-7.1,4.7-10.4,4.7-10.4c0.3-0.4,0.6-0.7,1-0.9c0.2-0.1,0.4-0.2,0.7-0.2c0.4,0,0.9,0.1,1.2,0.3
			c0.1,0,0.1,0.1,0.2,0.1c0.3,0.3,0.6,0.6,0.9,1c0.5,1,1,1.9,1.4,3c0.8,2.2,1.5,5,1.5,5l2,8c1.5,5.5,2.7,8.1,2.7,8.1
			c3.1,7.1,7.8,9.1,7.8,9.1c2.3,1.2,4.9,1.9,7.5,2c2.5,0.1,5-0.4,7.2-1.5c2.4-1.2,4.6-3,6.3-5.1c1.1-1.3,2.8-4.5,2.8-4.5
			c1.9-3.7,3.3-7.6,4.3-11.6c0.7-2.5,1.2-5,1.6-7.6c0.2-1.3,0.4-2.5,0.5-3.8c0.2-1.2,0.2-2.4-0.1-3.6c-0.1-0.2-0.1-0.4-0.2-0.6
			c-0.6-1.5-1.7-2.7-3.1-3.5C65.9,7.9,64.7,7.6,63.5,7.6z"/>
		
			<radialGradient id="SVGID_32_" cx="-91.576" cy="336.8805" r="1" gradientTransform="matrix(11.4702 27.0578 17.9555 -7.6116 -4977.1445 5070.2827)" gradientUnits="userSpaceOnUse">
			<stop  offset="0" style="stop-color:#1A3D9C"/>
			<stop  offset="0.4" style="stop-color:#1A3D9C;stop-opacity:0.56"/>
			<stop  offset="0.48" style="stop-color:#1A3D9C;stop-opacity:0.43"/>
			<stop  offset="0.69" style="stop-color:#1A3D9C;stop-opacity:0.12"/>
			<stop  offset="0.79" style="stop-color:#1A3D9C;stop-opacity:0"/>
		</radialGradient>
		<path class="st30" d="M63.5,7.6c-0.6,0-1.2,0.1-1.7,0.2c1.3,1.9,2.4,3.9,3.3,6c0.4,0.9,0.6,1.9,0.6,2.9c0,0.9-0.2,1.8-0.5,2.7
			c-0.4,0.8-0.9,1.6-1.5,2.3s-1.4,1.2-2.3,1.5c-0.8,0.3-1.8,0.5-2.7,0.5c-1.2,0-2.5-0.3-3.5-1l-0.7,2.7c-1.3,4.4-2.2,6-2.2,6
			c-0.5,1.2-1.1,2.3-1.8,3.4c-0.5,0.7-1.1,1.4-1.9,1.7c-0.3,0.1-0.6,0.1-0.9,0.1c-0.3,0-0.6-0.1-0.9-0.3c-0.5-0.4-1-1-1.3-1.6
			c-0.4-0.7-0.7-1.4-1-2.1c-0.6-1.5-1.6-5.2-1.6-5.2l-1-3.9l-1-3.9L40.2,17c-1.8-6.7-4.4-10-4.4-10c-2-2.9-4.9-5-8.2-6.2
			c-3.8-1.4-7.8-0.6-7.8-0.6c-6.3,1.2-9.6,5.5-11,7.6c0.7,0.2,1.3,0.4,1.9,0.8c0.8,0.5,1.5,1.1,2,1.8c0.9,1.3,1.2,3,1.3,4.6
			c0.4,3.5,1.1,6.9,2,10.3c2.1-7.1,4.7-10.4,4.7-10.4c0.3-0.4,0.6-0.7,1-0.9c0.2-0.1,0.4-0.2,0.7-0.2c0.4,0,0.9,0.1,1.2,0.3
			c0.1,0,0.1,0.1,0.2,0.1c0.3,0.3,0.6,0.6,0.9,1c0.5,1,1,1.9,1.4,3c0.8,2.2,1.5,5,1.5,5l2,8c1.5,5.5,2.7,8.1,2.7,8.1
			c3.1,7.1,7.8,9.1,7.8,9.1c2.3,1.2,4.9,1.9,7.5,2c2.5,0.1,5-0.4,7.2-1.5c2.4-1.2,4.6-3,6.3-5.1c1.1-1.3,2.8-4.5,2.8-4.5
			c1.9-3.7,3.3-7.6,4.3-11.6c0.7-2.5,1.2-5,1.6-7.6c0.2-1.3,0.4-2.5,0.5-3.8c0.2-1.2,0.2-2.4-0.1-3.6c-0.1-0.2-0.1-0.4-0.2-0.6
			c-0.6-1.5-1.7-2.7-3.1-3.5C65.9,7.9,64.7,7.6,63.5,7.6z"/>
		
			<radialGradient id="SVGID_33_" cx="-88.3979" cy="339.7824" r="1" gradientTransform="matrix(5.2356 21.1604 13.9699 -3.4565 -4264.4629 3066.5762)" gradientUnits="userSpaceOnUse">
			<stop  offset="0" style="stop-color:#1A3D9C"/>
			<stop  offset="6.000000e-02" style="stop-color:#1A3D9C;stop-opacity:0.88"/>
			<stop  offset="0.21" style="stop-color:#1A3D9C;stop-opacity:0.61"/>
			<stop  offset="0.36" style="stop-color:#1A3D9C;stop-opacity:0.39"/>
			<stop  offset="0.51" style="stop-color:#1A3D9C;stop-opacity:0.22"/>
			<stop  offset="0.67" style="stop-color:#1A3D9C;stop-opacity:0.1"/>
			<stop  offset="0.83" style="stop-color:#1A3D9C;stop-opacity:2.000000e-02"/>
			<stop  offset="1" style="stop-color:#1A3D9C;stop-opacity:0"/>
		</radialGradient>
		<path class="st31" d="M63.5,7.6c-0.6,0-1.2,0.1-1.7,0.2c1.3,1.9,2.4,3.9,3.3,6c0.4,0.9,0.6,1.9,0.6,2.9c0,0.9-0.2,1.8-0.5,2.7
			c-0.4,0.8-0.9,1.6-1.5,2.3s-1.4,1.2-2.3,1.5c-0.8,0.3-1.8,0.5-2.7,0.5c-1.2,0-2.5-0.3-3.5-1l-0.7,2.7c-1.3,4.4-2.2,6-2.2,6
			c-0.5,1.2-1.1,2.3-1.8,3.4c-0.5,0.7-1.1,1.4-1.9,1.7c-0.3,0.1-0.6,0.1-0.9,0.1c-0.3,0-0.6-0.1-0.9-0.3c-0.5-0.4-1-1-1.3-1.6
			c-0.4-0.7-0.7-1.4-1-2.1c-0.6-1.5-1.6-5.2-1.6-5.2l-1-3.9l-1-3.9L40.2,17c-1.8-6.7-4.4-10-4.4-10c-2-2.9-4.9-5-8.2-6.2
			c-3.8-1.4-7.8-0.6-7.8-0.6c-6.3,1.2-9.6,5.5-11,7.6c0.7,0.2,1.3,0.4,1.9,0.8c0.8,0.5,1.5,1.1,2,1.8c0.9,1.3,1.2,3,1.3,4.6
			c0.4,3.5,1.1,6.9,2,10.3c2.1-7.1,4.7-10.4,4.7-10.4c0.3-0.4,0.6-0.7,1-0.9c0.2-0.1,0.4-0.2,0.7-0.2c0.4,0,0.9,0.1,1.2,0.3
			c0.1,0,0.1,0.1,0.2,0.1c0.3,0.3,0.6,0.6,0.9,1c0.5,1,1,1.9,1.4,3c0.8,2.2,1.5,5,1.5,5l2,8c1.5,5.5,2.7,8.1,2.7,8.1
			c3.1,7.1,7.8,9.1,7.8,9.1c2.3,1.2,4.9,1.9,7.5,2c2.5,0.1,5-0.4,7.2-1.5c2.4-1.2,4.6-3,6.3-5.1c1.1-1.3,2.8-4.5,2.8-4.5
			c1.9-3.7,3.3-7.6,4.3-11.6c0.7-2.5,1.2-5,1.6-7.6c0.2-1.3,0.4-2.5,0.5-3.8c0.2-1.2,0.2-2.4-0.1-3.6c-0.1-0.2-0.1-0.4-0.2-0.6
			c-0.6-1.5-1.7-2.7-3.1-3.5C65.9,7.9,64.7,7.6,63.5,7.6z"/>
		
			<radialGradient id="SVGID_34_" cx="-88.3979" cy="339.7824" r="1" gradientTransform="matrix(5.2356 21.1604 13.9699 -3.4565 -4264.4629 3066.5762)" gradientUnits="userSpaceOnUse">
			<stop  offset="0" style="stop-color:#1B3E9E"/>
			<stop  offset="6.000000e-02" style="stop-color:#1B3E9E;stop-opacity:0.87"/>
			<stop  offset="0.21" style="stop-color:#1B3E9D;stop-opacity:0.61"/>
			<stop  offset="0.36" style="stop-color:#1A3D9D;stop-opacity:0.39"/>
			<stop  offset="0.52" style="stop-color:#1A3D9C;stop-opacity:0.22"/>
			<stop  offset="0.67" style="stop-color:#1A3D9C;stop-opacity:0.1"/>
			<stop  offset="0.83" style="stop-color:#1A3D9C;stop-opacity:2.000000e-02"/>
			<stop  offset="1" style="stop-color:#1A3D9C;stop-opacity:0"/>
		</radialGradient>
		<path class="st32" d="M63.5,7.6c-0.6,0-1.2,0.1-1.7,0.2c1.3,1.9,2.4,3.9,3.3,6c0.4,0.9,0.6,1.9,0.6,2.9c0,0.9-0.2,1.8-0.5,2.7
			c-0.4,0.8-0.9,1.6-1.5,2.3s-1.4,1.2-2.3,1.5c-0.8,0.3-1.8,0.5-2.7,0.5c-1.2,0-2.5-0.3-3.5-1l-0.7,2.7c-1.3,4.4-2.2,6-2.2,6
			c-0.5,1.2-1.1,2.3-1.8,3.4c-0.5,0.7-1.1,1.4-1.9,1.7c-0.3,0.1-0.6,0.1-0.9,0.1c-0.3,0-0.6-0.1-0.9-0.3c-0.5-0.4-1-1-1.3-1.6
			c-0.4-0.7-0.7-1.4-1-2.1c-0.6-1.5-1.6-5.2-1.6-5.2l-1-3.9l-1-3.9L40.2,17c-1.8-6.7-4.4-10-4.4-10c-2-2.9-4.9-5-8.2-6.2
			c-3.8-1.4-7.8-0.6-7.8-0.6c-6.3,1.2-9.6,5.5-11,7.6c0.7,0.2,1.3,0.4,1.9,0.8c0.8,0.5,1.5,1.1,2,1.8c0.9,1.3,1.2,3,1.3,4.6
			c0.4,3.5,1.1,6.9,2,10.3c2.1-7.1,4.7-10.4,4.7-10.4c0.3-0.4,0.6-0.7,1-0.9c0.2-0.1,0.4-0.2,0.7-0.2c0.4,0,0.9,0.1,1.2,0.3
			c0.1,0,0.1,0.1,0.2,0.1c0.3,0.3,0.6,0.6,0.9,1c0.5,1,1,1.9,1.4,3c0.8,2.2,1.5,5,1.5,5l2,8c1.5,5.5,2.7,8.1,2.7,8.1
			c3.1,7.1,7.8,9.1,7.8,9.1c2.3,1.2,4.9,1.9,7.5,2c2.5,0.1,5-0.4,7.2-1.5c2.4-1.2,4.6-3,6.3-5.1c1.1-1.3,2.8-4.5,2.8-4.5
			c1.9-3.7,3.3-7.6,4.3-11.6c0.7-2.5,1.2-5,1.6-7.6c0.2-1.3,0.4-2.5,0.5-3.8c0.2-1.2,0.2-2.4-0.1-3.6c-0.1-0.2-0.1-0.4-0.2-0.6
			c-0.6-1.5-1.7-2.7-3.1-3.5C65.9,7.9,64.7,7.6,63.5,7.6z"/>
		
			<radialGradient id="SVGID_35_" cx="-84.5276" cy="340.5523" r="1" gradientTransform="matrix(4.0054 16.1886 10.6876 -2.6444 -3280.8323 2288.3921)" gradientUnits="userSpaceOnUse">
			<stop  offset="0" style="stop-color:#183991"/>
			<stop  offset="3.000000e-02" style="stop-color:#183992;stop-opacity:0.95"/>
			<stop  offset="0.18" style="stop-color:#193A95;stop-opacity:0.66"/>
			<stop  offset="0.34" style="stop-color:#193B97;stop-opacity:0.42"/>
			<stop  offset="0.5" style="stop-color:#1A3C99;stop-opacity:0.24"/>
			<stop  offset="0.66" style="stop-color:#1A3D9B;stop-opacity:0.1"/>
			<stop  offset="0.82" style="stop-color:#1A3D9C;stop-opacity:3.000000e-02"/>
			<stop  offset="1" style="stop-color:#1A3D9C;stop-opacity:0"/>
		</radialGradient>
		<path class="st33" d="M63.5,7.6c-0.6,0-1.2,0.1-1.7,0.2c1.3,1.9,2.4,3.9,3.3,6c0.4,0.9,0.6,1.9,0.6,2.9c0,0.9-0.2,1.8-0.5,2.7
			c-0.4,0.8-0.9,1.6-1.5,2.3s-1.4,1.2-2.3,1.5c-0.8,0.3-1.8,0.5-2.7,0.5c-1.2,0-2.5-0.3-3.5-1l-0.7,2.7c-1.3,4.4-2.2,6-2.2,6
			c-0.5,1.2-1.1,2.3-1.8,3.4c-0.5,0.7-1.1,1.4-1.9,1.7c-0.3,0.1-0.6,0.1-0.9,0.1c-0.3,0-0.6-0.1-0.9-0.3c-0.5-0.4-1-1-1.3-1.6
			c-0.4-0.7-0.7-1.4-1-2.1c-0.6-1.5-1.6-5.2-1.6-5.2l-1-3.9l-1-3.9L40.2,17c-1.8-6.7-4.4-10-4.4-10c-2-2.9-4.9-5-8.2-6.2
			c-3.8-1.4-7.8-0.6-7.8-0.6c-6.3,1.2-9.6,5.5-11,7.6c0.7,0.2,1.3,0.4,1.9,0.8c0.8,0.5,1.5,1.1,2,1.8c0.9,1.3,1.2,3,1.3,4.6
			c0.4,3.5,1.1,6.9,2,10.3c2.1-7.1,4.7-10.4,4.7-10.4c0.3-0.4,0.6-0.7,1-0.9c0.2-0.1,0.4-0.2,0.7-0.2c0.4,0,0.9,0.1,1.2,0.3
			c0.1,0,0.1,0.1,0.2,0.1c0.3,0.3,0.6,0.6,0.9,1c0.5,1,1,1.9,1.4,3c0.8,2.2,1.5,5,1.5,5l2,8c1.5,5.5,2.7,8.1,2.7,8.1
			c3.1,7.1,7.8,9.1,7.8,9.1c2.3,1.2,4.9,1.9,7.5,2c2.5,0.1,5-0.4,7.2-1.5c2.4-1.2,4.6-3,6.3-5.1c1.1-1.3,2.8-4.5,2.8-4.5
			c1.9-3.7,3.3-7.6,4.3-11.6c0.7-2.5,1.2-5,1.6-7.6c0.2-1.3,0.4-2.5,0.5-3.8c0.2-1.2,0.2-2.4-0.1-3.6c-0.1-0.2-0.1-0.4-0.2-0.6
			c-0.6-1.5-1.7-2.7-3.1-3.5C65.9,7.9,64.7,7.6,63.5,7.6z"/>
		
			<radialGradient id="SVGID_36_" cx="-81.0635" cy="344.8606" r="1" gradientTransform="matrix(0.6581 13.1615 11.586 -0.5793 -3918.9788 1287.8403)" gradientUnits="userSpaceOnUse">
			<stop  offset="4.000000e-02" style="stop-color:#2453D6;stop-opacity:0.6"/>
			<stop  offset="0.2" style="stop-color:#2453D6;stop-opacity:0.49"/>
			<stop  offset="0.52" style="stop-color:#2453D6;stop-opacity:0.2"/>
			<stop  offset="0.73" style="stop-color:#2453D6;stop-opacity:0"/>
		</radialGradient>
		<path class="st34" d="M63.5,7.6c-0.6,0-1.2,0.1-1.7,0.2c1.3,1.9,2.4,3.9,3.3,6c0.4,0.9,0.6,1.9,0.6,2.9c0,0.9-0.2,1.8-0.5,2.7
			c-0.4,0.8-0.9,1.6-1.5,2.3s-1.4,1.2-2.3,1.5c-0.8,0.3-1.8,0.5-2.7,0.5c-1.2,0-2.5-0.3-3.5-1l-0.7,2.7c-1.3,4.4-2.2,6-2.2,6
			c-0.5,1.2-1.1,2.3-1.8,3.4c-0.5,0.7-1.1,1.4-1.9,1.7c-0.3,0.1-0.6,0.1-0.9,0.1c-0.3,0-0.6-0.1-0.9-0.3c-0.5-0.4-1-1-1.3-1.6
			c-0.4-0.7-0.7-1.4-1-2.1c-0.6-1.5-1.6-5.2-1.6-5.2l-1-3.9l-1-3.9L40.2,17c-1.8-6.7-4.4-10-4.4-10c-2-2.9-4.9-5-8.2-6.2
			c-3.8-1.4-7.8-0.6-7.8-0.6c-6.3,1.2-9.6,5.5-11,7.6c0.7,0.2,1.3,0.4,1.9,0.8c0.8,0.5,1.5,1.1,2,1.8c0.9,1.3,1.2,3,1.3,4.6
			c0.4,3.5,1.1,6.9,2,10.3c2.1-7.1,4.7-10.4,4.7-10.4c0.3-0.4,0.6-0.7,1-0.9c0.2-0.1,0.4-0.2,0.7-0.2c0.4,0,0.9,0.1,1.2,0.3
			c0.1,0,0.1,0.1,0.2,0.1c0.3,0.3,0.6,0.6,0.9,1c0.5,1,1,1.9,1.4,3c0.8,2.2,1.5,5,1.5,5l2,8c1.5,5.5,2.7,8.1,2.7,8.1
			c3.1,7.1,7.8,9.1,7.8,9.1c2.3,1.2,4.9,1.9,7.5,2c2.5,0.1,5-0.4,7.2-1.5c2.4-1.2,4.6-3,6.3-5.1c1.1-1.3,2.8-4.5,2.8-4.5
			c1.9-3.7,3.3-7.6,4.3-11.6c0.7-2.5,1.2-5,1.6-7.6c0.2-1.3,0.4-2.5,0.5-3.8c0.2-1.2,0.2-2.4-0.1-3.6c-0.1-0.2-0.1-0.4-0.2-0.6
			c-0.6-1.5-1.7-2.7-3.1-3.5C65.9,7.9,64.7,7.6,63.5,7.6z"/>
		
			<linearGradient id="SVGID_37_" gradientUnits="userSpaceOnUse" x1="49.7787" y1="88.6916" x2="34.8866" y2="51.881" gradientTransform="matrix(1 0 0 -1 0 79.2756)">
			<stop  offset="0" style="stop-color:#3774FF"/>
			<stop  offset="5.000000e-02" style="stop-color:#3774FF;stop-opacity:0.91"/>
			<stop  offset="0.16" style="stop-color:#3774FF;stop-opacity:0.66"/>
			<stop  offset="0.32" style="stop-color:#3774FF;stop-opacity:0.28"/>
			<stop  offset="0.43" style="stop-color:#3774FF;stop-opacity:0"/>
		</linearGradient>
		<path class="st35" d="M63.5,7.6c-0.6,0-1.2,0.1-1.7,0.2c1.3,1.9,2.4,3.9,3.3,6c0.4,0.9,0.6,1.9,0.6,2.9c0,0.9-0.2,1.8-0.5,2.7
			c-0.4,0.8-0.9,1.6-1.5,2.3s-1.4,1.2-2.3,1.5c-0.8,0.3-1.8,0.5-2.7,0.5c-1.2,0-2.5-0.3-3.5-1l-0.7,2.7c-1.3,4.4-2.2,6-2.2,6
			c-0.5,1.2-1.1,2.3-1.8,3.4c-0.5,0.7-1.1,1.4-1.9,1.7c-0.3,0.1-0.6,0.1-0.9,0.1c-0.3,0-0.6-0.1-0.9-0.3c-0.5-0.4-1-1-1.3-1.6
			c-0.4-0.7-0.7-1.4-1-2.1c-0.6-1.5-1.6-5.2-1.6-5.2l-1-3.9l-1-3.9L40.2,17c-1.8-6.7-4.4-10-4.4-10c-2-2.9-4.9-5-8.2-6.2
			c-3.8-1.4-7.8-0.6-7.8-0.6c-6.3,1.2-9.6,5.5-11,7.6c0.7,0.2,1.3,0.4,1.9,0.8c0.8,0.5,1.5,1.1,2,1.8c0.9,1.3,1.2,3,1.3,4.6
			c0.4,3.5,1.1,6.9,2,10.3c2.1-7.1,4.7-10.4,4.7-10.4c0.3-0.4,0.6-0.7,1-0.9c0.2-0.1,0.4-0.2,0.7-0.2c0.4,0,0.9,0.1,1.2,0.3
			c0.1,0,0.1,0.1,0.2,0.1c0.3,0.3,0.6,0.6,0.9,1c0.5,1,1,1.9,1.4,3c0.8,2.2,1.5,5,1.5,5l2,8c1.5,5.5,2.7,8.1,2.7,8.1
			c3.1,7.1,7.8,9.1,7.8,9.1c2.3,1.2,4.9,1.9,7.5,2c2.5,0.1,5-0.4,7.2-1.5c2.4-1.2,4.6-3,6.3-5.1c1.1-1.3,2.8-4.5,2.8-4.5
			c1.9-3.7,3.3-7.6,4.3-11.6c0.7-2.5,1.2-5,1.6-7.6c0.2-1.3,0.4-2.5,0.5-3.8c0.2-1.2,0.2-2.4-0.1-3.6c-0.1-0.2-0.1-0.4-0.2-0.6
			c-0.6-1.5-1.7-2.7-3.1-3.5C65.9,7.9,64.7,7.6,63.5,7.6z"/>
	</g>
</g>
</svg>
