<?xml version="1.0" encoding="UTF-8"?>
<svg width="115px" height="35px" viewBox="0 0 115 35" version="1.1" xmlns="http://www.w3.org/2000/svg" xmlns:xlink="http://www.w3.org/1999/xlink">
    <!-- Generator: Sketch 46.2 (44496) - http://www.bohemiancoding.com/sketch -->
    <title>Logo</title>
    <desc>Created with Sketch.</desc>
    <defs></defs>
    <g id="Landing-Page-B" stroke="none" stroke-width="1" fill="none" fill-rule="evenodd">
        <g id="Landing-Page-A" transform="translate(-135.000000, -42.000000)" fill="#000000">
            <g id="Header">
                <g transform="translate(0.000000, 19.000000)" id="Logo">
                    <g transform="translate(135.000000, 23.000000)">
                        <path d="M36.1546891,7.01809764 C36.6569948,7.01809764 37.0910751,7.20097773 37.4535039,7.56331261 C37.8123575,7.9292217 37.9917098,8.370338 37.9917098,8.88695934 C37.9917098,9.39985755 37.8159326,9.83754856 37.457079,10.1961603 C37.0983744,10.5584952 36.6714443,10.73795 36.1762889,10.73795 C35.6631088,10.73795 35.2254534,10.554921 34.8665997,10.1854377 C34.504171,9.81952862 34.3246697,9.371115 34.3246697,8.84749417 C34.3246697,8.34174437 34.504171,7.91120176 34.8594495,7.55259 C35.2183031,7.19740352 35.6486593,7.01809764 36.1546891,7.01809764 Z M34.7122733,23.1599456 L34.7122733,11.7242813 L37.5935298,11.7242813 L37.5935298,23.1599456 L34.7122733,23.1599456 Z M43.0365155,11.7242813 L43.0365155,12.9870176 C43.5566969,12.4703963 44.1165026,12.0794678 44.7193588,11.8212315 C45.3220661,11.5628464 45.9679728,11.4301541 46.653206,11.4301541 C48.1459715,11.4301541 49.4160363,11.9969632 50.4601231,13.1232841 C51.5042098,14.2531792 52.0245402,15.6987956 52.0245402,17.4637076 C52.0245402,19.1675602 51.4863342,20.5915825 50.4063472,21.7359233 C49.3263601,22.8802642 48.0489961,23.4542217 46.5706801,23.4542217 C45.9104728,23.4542217 45.2970402,23.3358262 44.7300842,23.1026094 C44.1631282,22.8658184 43.5998964,22.4856125 43.0365155,21.9511202 L43.0365155,27.3425084 L40.1875842,27.3425084 L40.1875842,11.7242813 L43.0365155,11.7242813 Z M55.5265285,7.01809764 C56.0288342,7.01809764 56.4629145,7.20097773 56.8253433,7.56331261 C57.1841969,7.9292217 57.3635492,8.370338 57.3635492,8.88695934 C57.3635492,9.39985755 57.187772,9.83754856 56.8289184,10.1961603 C56.4700648,10.5584952 56.0431347,10.73795 55.5479793,10.73795 C55.0349482,10.73795 54.5971438,10.554921 54.2382902,10.1854377 C53.8760104,9.81952862 53.6965091,9.371115 53.6965091,8.84749417 C53.6965091,8.34174437 53.8760104,7.91120176 54.2311399,7.55259 C54.5899935,7.19740352 55.0204987,7.01809764 55.5265285,7.01809764 Z M54.0841127,23.1599456 L54.0841127,11.7242813 L56.9653692,11.7242813 L56.9653692,23.1599456 L54.0841127,23.1599456 Z M59.5594236,11.7242813 L62.4190803,11.7242813 L62.4190803,12.8937905 C63.0721373,12.3450013 63.660544,11.9646465 64.1915997,11.7530238 C64.7190803,11.537827 65.2607124,11.4301541 65.8133679,11.4301541 C66.950706,11.4301541 67.9124158,11.82838 68.7053497,12.6211085 C69.3727073,13.2918674 69.7028109,14.285496 69.7028109,15.6055685 L69.7028109,23.1599456 L66.8646049,23.1599456 L66.8646049,18.1487633 C66.8646049,16.7820772 66.8036788,15.8746762 66.6816775,15.4262626 C66.5596762,14.977849 66.3444236,14.6371083 66.0393459,14.4003173 C65.7344171,14.1671005 65.361263,14.048705 64.9127332,14.048705 C64.3279016,14.048705 63.829171,14.2424566 63.4129663,14.6335341 C62.9967617,15.0208884 62.7061334,15.5589549 62.5446567,16.2440106 C62.4621308,16.6027713 62.4190803,17.3776289 62.4190803,18.5685833 L62.4190803,23.1599456 L59.5594236,23.1599456 L59.5594236,11.7242813 Z M71.1129016,11.7242813 L72.1353886,11.7242813 C72.1426878,10.2284771 72.1641386,9.33894716 72.2071891,9.06626522 C72.2861399,8.43497151 72.5481671,7.93637011 73.0001231,7.57046102 C73.452228,7.20097773 74.0945596,7.01809764 74.9198187,7.01809764 C75.5153756,7.01809764 76.1898834,7.15436415 76.9361917,7.42689718 L76.9361917,9.61520332 C76.5237111,9.49308469 76.1863083,9.43574851 75.9172798,9.43574851 C75.583601,9.43574851 75.3360233,9.50395623 75.1816969,9.64379694 C75.070421,9.75146983 75.0130699,9.96666667 75.0130699,10.2966848 L75.0023446,11.7242813 L76.8213407,11.7242813 L76.8213407,14.1635263 L75.0023446,14.1635263 L75.0023446,23.1599456 L72.1353886,23.1599456 L72.1353886,14.1635263 L71.1129016,14.1635263 L71.1129016,11.7242813 Z M83.8755181,11.4301541 C84.9555052,11.4301541 85.970842,11.7028361 86.9216775,12.2409026 C87.8689378,12.7789692 88.611671,13.5143616 89.1427267,14.4362082 C89.6773575,15.3616291 89.9428109,16.3588319 89.9428109,17.4313908 C89.9428109,18.5110982 89.6737824,19.5190236 89.1390026,20.4588902 C88.6009456,21.3987568 87.872513,22.130575 86.9468523,22.6613442 C86.0210427,23.1886882 85.0021308,23.4542217 83.8862435,23.4542217 C82.2465997,23.4542217 80.8472345,22.8693926 79.6882966,21.7036066 C78.5293588,20.5378205 77.9481023,19.1209466 77.9481023,17.452985 C77.9481023,15.6664789 78.6047345,14.177972 79.9142746,12.9870176 C81.062487,11.9503497 82.3829016,11.4301541 83.8755181,11.4301541 Z M93.8538536,20.164763 C94.3093847,20.164763 94.6969883,20.3226237 95.0199417,20.6419192 C95.3427461,20.9610658 95.5042228,21.3484201 95.5042228,21.8039821 C95.5042228,22.2596931 95.3427461,22.6470474 95.0199417,22.9699171 C94.6969883,23.2927868 94.3093847,23.4542217 93.8538536,23.4542217 C93.3981736,23.4542217 93.0069948,23.2927868 92.6876166,22.9699171 C92.3648122,22.6470474 92.2033355,22.2596931 92.2033355,21.8039821 C92.2033355,21.3484201 92.3648122,20.9610658 92.6876166,20.6419192 C93.0069948,20.3226237 93.3981736,20.164763 93.8538536,20.164763 Z M99.4367163,7.01809764 C99.939022,7.01809764 100.373251,7.20097773 100.73568,7.56331261 C101.094385,7.9292217 101.273886,8.370338 101.273886,8.88695934 C101.273886,9.39985755 101.09796,9.83754856 100.739255,10.1961603 C100.380402,10.5584952 99.9534715,10.73795 99.4583161,10.73795 C98.945136,10.73795 98.5074806,10.554921 98.1486269,10.1854377 C97.7861982,9.81952862 97.6068459,9.371115 97.6068459,8.84749417 C97.6068459,8.34174437 97.7861982,7.91120176 98.1414767,7.55259 C98.5003303,7.19740352 98.9308355,7.01809764 99.4367163,7.01809764 Z M97.9943005,23.1599456 L97.9943005,11.7242813 L100.875557,11.7242813 L100.875557,23.1599456 L97.9943005,23.1599456 Z M108.840946,11.4301541 C109.920933,11.4301541 110.936418,11.7028361 111.887254,12.2409026 C112.834365,12.7789692 113.577098,13.5143616 114.108154,14.4362082 C114.642785,15.3616291 114.908387,16.3588319 114.908387,17.4313908 C114.908387,18.5110982 114.63921,19.5190236 114.104579,20.4588902 C113.566373,21.3987568 112.83794,22.130575 111.91228,22.6613442 C110.986619,23.1886882 109.967707,23.4542217 108.851671,23.4542217 C107.212027,23.4542217 105.812662,22.8693926 104.653724,21.7036066 C103.494786,20.5378205 102.91353,19.1209466 102.91353,17.452985 C102.91353,15.6664789 103.570162,14.177972 104.879851,12.9870176 C106.027915,11.9503497 107.348329,11.4301541 108.840946,11.4301541 Z M46.0540738,14.0810218 C45.149864,14.0810218 44.3999806,14.3895947 43.8044236,15.0064426 C43.2087176,15.6198653 42.9109391,16.4270396 42.9109391,17.4206682 C42.9109391,18.4394652 43.2087176,19.2607874 43.8044236,19.8849327 C44.3999806,20.5126522 45.149864,20.8283735 46.0540738,20.8283735 C46.9295337,20.8283735 47.6686917,20.509078 48.2678238,19.8706358 C48.8671049,19.2320448 49.1648834,18.4214452 49.1648834,17.4313908 C49.1648834,16.4520591 48.8706801,15.6486079 48.2821244,15.0208884 C47.6938666,14.3931689 46.9511334,14.0810218 46.0540738,14.0810218 Z M83.9185687,14.1312095 C83.0286593,14.1312095 82.2860751,14.4433566 81.6939443,15.0639277 C81.1019624,15.6844988 80.8077591,16.4772274 80.8077591,17.4422624 C80.8077591,18.4394652 81.0983873,19.2429163 81.686794,19.8599132 C82.2716256,20.4769101 83.0107837,20.7853341 83.9078433,20.7853341 C84.8047539,20.7853341 85.5510622,20.4733359 86.1467681,19.8491906 C86.7423251,19.2248964 87.0401036,18.4250194 87.0401036,17.4422624 C87.0401036,16.4629306 86.7494754,15.6664789 86.1646438,15.0530562 C85.576237,14.4397824 84.8299288,14.1312095 83.9185687,14.1312095 Z M108.883996,14.1312095 C107.994236,14.1312095 107.251503,14.4433566 106.659372,15.0639277 C106.06739,15.6844988 105.773187,16.4772274 105.773187,17.4422624 C105.773187,18.4394652 106.063815,19.2429163 106.652222,19.8599132 C107.237053,20.4769101 107.976211,20.7853341 108.873271,20.7853341 C109.77033,20.7853341 110.51649,20.4733359 111.112196,19.8491906 C111.707753,19.2248964 112.005531,18.4250194 112.005531,17.4422624 C112.005531,16.4629306 111.714903,15.6664789 111.130071,15.0530562 C110.541665,14.4397824 109.795356,14.1312095 108.883996,14.1312095 Z" id="ipinfo.io"></path>
                        <path d="M17.4780635,28.4381507 L22.6040544,24.0036066 C28.2728692,19.0995014 28.8974741,10.4505245 23.9922474,4.78317793 C19.0868718,-0.884168609 10.4356541,-1.50861176 4.76683938,3.3954934 C-0.901975389,8.29944962 -1.52643135,16.9485755 3.37879534,22.615922 L12.3245142,32.9510295 C13.1235557,33.8743654 13.964158,34.8741 15.2650583,33.8085405 L15.3411788,33.7427156 C16.5827915,32.6086506 15.713886,31.6334887 14.9146956,30.7103017 L5.96912565,20.3750453 C2.30089378,16.1370824 2.76938472,9.65228568 7.00829663,5.98515281 C11.2473575,2.31801994 17.7336852,2.78624061 21.4019171,7.02420357 C25.069851,11.2620176 24.601658,17.7466654 20.3625972,21.4139472 L17.8267876,23.6076146 L11.1496373,15.8932919 C9.9561399,14.514245 10.111807,12.3576599 11.4912111,11.1643227 C12.8704663,9.97113442 15.0277591,10.1267612 16.2214054,11.5058081 C17.2435946,12.6869334 17.2760687,14.4384421 16.3976295,15.6666278 C16.3773705,15.6949236 16.3565155,15.7229215 16.3353627,15.7506216 C15.8881736,16.3948718 15.9134974,17.2885716 16.4488731,17.9070578 C17.574294,19.2074722 18.8163536,18.3128788 19.4779016,17.2120241 C20.9477267,14.7663753 20.7683744,11.5257641 18.8115868,9.26508029 C16.3807966,6.45650091 12.0589119,6.14450272 9.24975389,8.57481222 C6.44059585,11.0049728 6.12851684,15.3255892 8.55945596,18.1340197 L15.2366062,25.8484913 L17.4780635,28.4381507 Z" id="icon"></path>
                    </g>
                </g>
            </g>
        </g>
    </g>
</svg>
