<svg xmlns="http://www.w3.org/2000/svg" width="336.4" height="54.3" viewBox="0 0 336.4 54.3"><defs><style>.cls-1{fill:#fff;}</style></defs><title>Asset 1</title><g id="Layer_2" data-name="Layer 2"><g id="Layer_1-2" data-name="Layer 1"><path class="cls-1" d="M45.7,0a.43.43,0,0,1,.4.4V10a.43.43,0,0,1-.4.4H10.8a.43.43,0,0,0-.4.4V53.1a.43.43,0,0,1-.4.4H.4a.43.43,0,0,1-.4-.4V.4A.43.43,0,0,1,.4,0ZM22.8,21.6c-.3-.3-.6,0-.6.3V51.5c0,.5.3.6.6.2L38,37.6a.48.48,0,0,0,0-.7Z"/><path class="cls-1" d="M76.4,30.9H60.5v5.7H73.7c.4,0,.6.2.6.5v5.8c0,.4-.2.5-.6.5H60.5v9.4c0,.5,0,.6-.4.6h-7c-.3,0-.3,0-.3-.6v-28c0-.5,0-.6.3-.6H76.4c.3,0,.3.4.3.4v5.8C76.8,30.6,76.8,30.9,76.4,30.9ZM110.1,39A15.3,15.3,0,1,0,94.8,54.2,15.17,15.17,0,0,0,110.1,39Zm-8,0c0,4.4-2.7,7.9-7.2,7.9s-7.2-3.4-7.2-7.9,2.6-7.9,7.2-7.9S102.1,34.5,102.1,39Zm38.3,13.3c-2.5-4-4.9-8.4-6.1-10.1,2.6-1.2,4-4,4-8,0-5.3-3.5-9.8-10.1-9.8H114.9c-.1,0-.3,0-.3.4V53.2c0,.4,0,.4.3.4h7c.3,0,.3,0,.3-.4V45.1l4.9-.1s3.1,4.9,4.6,7.7c.4.8.6.9.9.9h7.6C140.8,53.4,140.9,53.1,140.4,52.3ZM130.2,34.7c0,2.5-1.3,4.2-3.6,4.3l-4.3.1V30.7h4.3C129,30.7,130.2,32.4,130.2,34.7Zm27.4,19.6c8.1,0,13-5.6,14-10.9.1-.5,0-.6-.2-.6h-7c-.3,0-.4.2-.4.3a6.35,6.35,0,0,1-6.2,3.8c-4.3,0-7-3.4-7-8V39c0-4.6,2.8-8,7-8a6.17,6.17,0,0,1,6.2,3.8c0,.1.1.3.4.3h7c.2,0,.3-.1.2-.6a13.87,13.87,0,0,0-14-10.9,14.86,14.86,0,0,0-15,15.3C142.6,47.8,149.2,54.3,157.6,54.3Zm39.1-1.5V47.3c0-.5-.1-.6-.6-.6H183.6V41.8h12c.4,0,.4-.1.4-.6V36c0-.5,0-.6-.4-.6h-12V30.5h12.3c.3,0,.5-.1.5-.5V24.8c0-.5,0-.6-.5-.6H176.5c-.4,0-.4,0-.4.4V52.7c0,.5,0,.6.5.6h19.7C196.7,53.4,196.7,53.4,196.7,52.8Zm32.6-17.3c0-6.6-3.8-11.2-10.2-11.2H203.4c-.2,0-.4,0-.4.4V53.1c0,.4,0,.4.4.4h7c.3,0,.4,0,.4-.4V46s7.7.2,8.9,0C225.2,45.3,229.3,42.5,229.3,35.5Zm-7.9-.3a4.11,4.11,0,0,1-4.2,4.5h-6.4v-9h6.3C219.7,30.7,221.4,32.3,221.4,35.2Zm42,3.8a15.3,15.3,0,1,0-15.3,15.2A15.17,15.17,0,0,0,263.4,39Zm-8.1,0c0,4.4-2.7,7.9-7.2,7.9s-7.2-3.4-7.2-7.9,2.6-7.9,7.2-7.9S255.3,34.5,255.3,39Zm20.3,14.1V24.7c0-.3,0-.4-.4-.4h-7.1c-.4,0-.4,0-.4.4V53.1c0,.4,0,.4.4.4h7.1C275.6,53.4,275.6,53.4,275.6,53.1Zm60.8-21.5V24.7c0-.3,0-.4-.3-.4h-25c-.3,0-.3.1-.3.4v6.9c0,.3,0,.3.3.3l8.7-.1V53c0,.4,0,.4.4.4h7.1c.3,0,.4,0,.4-.4V31.8l8.5.1C336.3,31.9,336.4,31.9,336.4,31.6ZM306.3,52.4V24.8c0-.4,0-.5-.4-.5h-6.5c-.3,0-.3,0-.3.5V38.5s-10.7-9.8-15.8-13.8c-1.3-1.1-1.4.1-1.4.5v4.2h0V53a.37.37,0,0,0,.4.4h6.5c.4,0,.4,0,.4-.4V40.4s8.8,7.4,15.3,12.3C306.1,54.2,306.3,53.2,306.3,52.4Z"/></g></g></svg>