<?xml version="1.0" encoding="UTF-8"?>
<!-- Generator: Adobe Illustrator 22.0.1, SVG Export Plug-In . SVG Version: 6.00 Build 0)  -->
<svg version="1.1" width="336.4" height="54.3" id="Layer_1" xmlns="http://www.w3.org/2000/svg" xmlns:xlink="http://www.w3.org/1999/xlink" x="0px" y="0px" viewBox="0 0 390 115" style="enable-background:new 0 0 390 115;" xml:space="preserve">
<style type="text/css">
	.st0{fill:#28A505;}
</style>
<g>
	<g>
		<g>
			<path class="st0" d="M49.3,20.8c0.2,0,0.4,0.2,0.4,0.4v9.6c0,0.2-0.2,0.4-0.4,0.4H14.4c-0.2,0-0.4,0.2-0.4,0.4v42.3     c0,0.2-0.2,0.4-0.4,0.4H4c-0.2,0-0.4-0.2-0.4-0.4V21.2c0-0.2,0.2-0.4,0.4-0.4C4,20.8,49.3,20.8,49.3,20.8z M26.4,42.4     c-0.3-0.3-0.6,0-0.6,0.3v29.6c0,0.5,0.3,0.6,0.6,0.2l15.2-14.1c0.2-0.2,0.2-0.5,0-0.7L26.4,42.4z"/>
			<path d="M80,51.7H64.1v5.7h13.2c0.4,0,0.6,0.2,0.6,0.5c0,3.7,0,5,0,5.8c0,0.4-0.2,0.5-0.6,0.5H64.1c0,0,0,6.3,0,9.4     c0,0.5,0,0.6-0.4,0.6h-7c-0.3,0-0.3,0-0.3-0.6c0-8.2,0-18.5,0-28c0-0.5,0-0.6,0.3-0.6H80c0.3,0,0.3,0.4,0.3,0.4v5.8     C80.4,51.4,80.4,51.7,80,51.7z M113.7,59.8c0-8.4-6.6-15.3-15.3-15.3s-15.3,6.8-15.3,15.3c0,8.4,6.6,15.2,15.3,15.2     S113.7,68.2,113.7,59.8z M105.7,59.8c0,4.4-2.7,7.9-7.2,7.9c-4.6,0-7.2-3.4-7.2-7.9c0-4.4,2.6-7.9,7.2-7.9     C103,51.8,105.7,55.3,105.7,59.8z M144,73.1c-2.5-4-4.9-8.4-6.1-10.1c2.6-1.2,4-4,4-8c0-5.3-3.5-9.8-10.1-9.8h-13.3     c-0.1,0-0.3,0-0.3,0.4c0,10.3,0,17.3,0,28.4c0,0.4,0,0.4,0.3,0.4c2.6,0,4.3,0,7,0c0.3,0,0.3,0,0.3-0.4c0-3.4,0-8.1,0-8.1l4.9-0.1     c0,0,3.1,4.9,4.6,7.7c0.4,0.8,0.6,0.9,0.9,0.9h7.6C144.4,74.2,144.5,73.9,144,73.1z M133.8,55.5c0,2.5-1.3,4.2-3.6,4.3l-4.3,0.1     v-8.4h4.3C132.6,51.5,133.8,53.2,133.8,55.5z M161.2,75.1c8.1,0,13-5.6,14-10.9c0.1-0.5,0-0.6-0.2-0.6h-7c-0.3,0-0.4,0.2-0.4,0.3     c-1.3,2.6-3.3,3.8-6.2,3.8c-4.3,0-7-3.4-7-8v0.1c0-4.6,2.8-8,7-8c3,0,5,1.2,6.2,3.8c0,0.1,0.1,0.3,0.4,0.3h7     c0.2,0,0.3-0.1,0.2-0.6c-1.1-5.3-5.9-10.9-14-10.9c-8.4,0-15,6.5-15,15.3C146.2,68.6,152.8,75.1,161.2,75.1z M200.3,73.6     c0-1.8,0-3.4,0-5.5c0-0.5-0.1-0.6-0.6-0.6h-12.5v-4.9h12c0.4,0,0.4-0.1,0.4-0.6c0-1.7,0-3.1,0-5.2c0-0.5,0-0.6-0.4-0.6h-12v-4.9     h12.3c0.3,0,0.5-0.1,0.5-0.5c0-1.9,0-3.1,0-5.2c0-0.5,0-0.6-0.5-0.6h-19.4c-0.4,0-0.4,0-0.4,0.4c0,8.3,0,20.6,0,28.1     c0,0.5,0,0.6,0.5,0.6h19.7C200.3,74.2,200.3,74.2,200.3,73.6z M232.9,56.3c0-6.6-3.8-11.2-10.2-11.2H207c-0.2,0-0.4,0-0.4,0.4     c0,10.3,0,17.3,0,28.4c0,0.4,0,0.4,0.4,0.4c2.5,0,4.3,0,7,0c0.3,0,0.4,0,0.4-0.4c0-3.4,0-7.1,0-7.1s7.7,0.2,8.9,0     C228.8,66.1,232.9,63.3,232.9,56.3z M225,56c0,2.4-1.2,4.3-4.2,4.5h-6.4v-9h6.3C223.3,51.5,225,53.1,225,56z M267,59.8     c0-8.4-6.6-15.3-15.3-15.3s-15.3,6.8-15.3,15.3c0,8.4,6.6,15.2,15.3,15.2S267,68.2,267,59.8z M258.9,59.8c0,4.4-2.7,7.9-7.2,7.9     c-4.6,0-7.2-3.4-7.2-7.9c0-4.4,2.6-7.9,7.2-7.9C256.3,51.8,258.9,55.3,258.9,59.8z M279.2,73.9c0-6.8,0-21.7,0-28.4     c0-0.3,0-0.4-0.4-0.4c-2.8,0-4.4,0-7.1,0c-0.4,0-0.4,0-0.4,0.4c0,10.3,0,17.3,0,28.4c0,0.4,0,0.4,0.4,0.4c2.7,0,4.3,0,7.1,0     C279.2,74.2,279.2,74.2,279.2,73.9z M340,52.4c0-2.4,0-4,0-6.9c0-0.3,0-0.4-0.3-0.4h-25c-0.3,0-0.3,0.1-0.3,0.4     c0,2.9,0,4.5,0,6.9c0,0.3,0,0.3,0.3,0.3l8.7-0.1c0,0,0,15.9,0,21.2c0,0.4,0,0.4,0.4,0.4c2.7,0,4.2,0,7.1,0c0.3,0,0.4,0,0.4-0.4     c0-3.4,0-21.2,0-21.2l8.5,0.1C339.9,52.7,340,52.7,340,52.4z M309.9,73.2v-4.1c0-7.8,0-16.5,0-23.5c0-0.4,0-0.5-0.4-0.5     c-2.7,0-4,0-6.5,0c-0.3,0-0.3,0-0.3,0.5v13.7c0,0-10.7-9.8-15.8-13.8c-1.3-1.1-1.4,0.1-1.4,0.5v0.1v4.1l0,0c0,8.5,0,14.3,0,23.6     c0,0.2,0.1,0.4,0.4,0.4c2.6,0,3.8,0,6.5,0c0.4,0,0.4,0,0.4-0.4V61.2c0,0,8.8,7.4,15.3,12.3C309.7,75,309.9,74,309.9,73.2z"/>
		</g>
	</g>
</g>
</svg>