<svg xmlns="http://www.w3.org/2000/svg" width="255.17px" height="80.25px" viewBox="0 0 255.17 80.25"><defs><style>.cls-1{fill:#fff;}</style></defs><title>Asset 2</title><g id="Layer_2" data-name="Layer 2"><g id="Layer_1-2" data-name="Layer 1"><g id="_Group_" data-name="&lt;Group&gt;"><path id="_Path_" data-name="&lt;Path&gt;" class="cls-1" d="M31.87,28.59v8.59H52.4C51.77,42,50.16,45.52,47.72,48c-3,3-7.68,6.28-15.85,6.28A22.53,22.53,0,0,1,9.36,31.45,22.53,22.53,0,0,1,31.87,8.62a21.82,21.82,0,0,1,15.46,6.14l6-6A29.65,29.65,0,0,0,31.87,0C14.56,0,0,14.1,0,31.42S14.56,62.83,31.87,62.83c9.36,0,16.41-3.07,21.92-8.8S61.23,40.39,61.23,34a27.59,27.59,0,0,0-.45-5.38Z"/><path id="_Compound_Path_" data-name="&lt;Compound Path&gt;" class="cls-1" d="M86.88,21.61A20,20,0,0,0,66.53,41.89a20.35,20.35,0,0,0,40.7,0A20,20,0,0,0,86.88,21.61Zm0,32.57c-6.14,0-11.45-5.06-11.45-12.29S80.74,29.6,86.88,29.6s11.45,5,11.45,12.29S93,54.18,86.88,54.18Z"/><path id="_Compound_Path_2" data-name="&lt;Compound Path&gt;" class="cls-1" d="M186.65,26.15h-.31a14.06,14.06,0,0,0-10.68-4.54c-10.12,0-19,8.83-19,20.28s8.83,20.28,19,20.28a13.85,13.85,0,0,0,10.68-4.61h.31v2.83c0,7.75-4.15,11.9-10.82,11.9-5.45,0-8.83-3.91-10.23-7.23l-7.75,3.21a19.32,19.32,0,0,0,18,12c10.44,0,19.27-6.14,19.27-21.12V22.65h-8.45Zm-10.23,28c-6.14,0-10.82-5.24-10.82-12.29s4.68-12.29,10.82-12.29S187.24,34.84,187.24,42,182.49,54.18,176.42,54.18Z"/><path id="_Compound_Path_3" data-name="&lt;Compound Path&gt;" class="cls-1" d="M132.26,21.61a20,20,0,0,0-20.35,20.28,20.35,20.35,0,0,0,40.7,0A20,20,0,0,0,132.26,21.61Zm0,32.57c-6.14,0-11.45-5.06-11.45-12.29s5.31-12.29,11.45-12.29,11.45,5,11.45,12.29S138.41,54.18,132.26,54.18Z"/><path id="_Path_2" data-name="&lt;Path&gt;" class="cls-1" d="M202.08.84h8.76V62.17h-8.76Z"/><path id="_Compound_Path_4" data-name="&lt;Compound Path&gt;" class="cls-1" d="M237.89,54.18c-4.54,0-7.75-2.06-9.84-6.14l27.12-11.21-.91-2.3c-1.68-4.54-6.84-12.92-17.35-12.92s-19.13,8.2-19.13,20.28c0,11.38,8.59,20.28,20.11,20.28a20.23,20.23,0,0,0,16.9-9l-6.91-4.61c-2.3,3.35-5.45,5.59-10,5.59Zm-.63-25c3.6,0,6.67,1.85,7.68,4.47l-18.33,7.57C226.62,32.74,232.66,29.22,237.26,29.22Z"/></g></g></g></svg>