<svg xmlns="http://www.w3.org/2000/svg" viewBox="0 0 767 140" width="767" height="140"><defs><style>.cls-1{fill:#fff;}</style></defs><title>Asset 2</title><g id="Layer_2" data-name="Layer 2"><g id="Layer_1-2" data-name="Layer 1"><path class="cls-1" d="M0,36c1.63-.58,1.2-2.22,1.61-3.36C5.05,23,12.9,17.06,23.13,17c20.49-.11,41-.15,61.46,0,13.18.1,22.49,9.81,22.45,23q-.09,29.48-.23,59c-.08,15.07-9.31,24.32-24.31,24.35-18.82,0-37.65-.18-56.47.08-12.09.17-20.52-4.53-24.65-16.19C1.2,106.71.47,106.4,0,106Q0,71,0,36ZM47.32,76.17c0,5.57-.1,10.39,0,15.2.13,4.61,2.71,7.43,6.43,7.36s6.06-3,6.13-7.63,0-9.56,0-14.93c5.4,0,10.2.06,15,0s7.36-2.31,7.34-6.22-2.58-6-7.47-6.11-9.54,0-14.58,0c0-5.4.07-10,0-14.69-.09-4.81-2.34-7.38-6.24-7.34s-6,2.6-6.13,7.47.3,9.54-1.21,14.57c-4.81,0-9.46-.08-14.11,0S25,66.48,25.33,70.25c.42,4.19,3,6,7.2,5.94C37.17,76.11,41.81,76.17,47.32,76.17Z"/><path class="cls-1" d="M609,140c-1.57-1.87-3.94-1.31-5.92-1.9-3.66-1.07-6-3.1-5.2-7.18s3.64-5.21,7.53-4.51c8.21,1.48,16.46,2.72,24.78.81,11.05-2.53,16.81-10.13,16.45-22.11-5.71,1.81-11.29,3.68-17.18,4.41-21.32,2.65-35.94-9.18-37.73-30.62a119.66,119.66,0,0,1,.2-21.95c1.72-17.16,14.47-29,31.67-29.22A60.06,60.06,0,0,1,653.84,35c3.76,2.05,5.37,4.73,5.36,9.17q-.11,29.23.38,58.46c.42,23.53-12,34-28.49,36.54-.4.06-.73.56-1.09.85Zm37.82-94.73A40.16,40.16,0,0,0,621,40.2c-8.57,1.13-14.27,6.41-15.92,15a74,74,0,0,0,.08,28.25C606.43,90,610,95.36,616.79,97.13c10.63,2.78,20.65.76,30-4.86Z"/><path class="cls-1" d="M767,52a4.12,4.12,0,0,0-1.2.74c-4.35,5.67-8.85,5.38-12.21-.8C748.2,42,741.31,38.43,730.29,39.78,720,41,713,48,712,58.44a120.81,120.81,0,0,0,0,22.41,20.7,20.7,0,0,0,17.12,18.9c10.44,2.06,19.83-2.11,24.58-10.92C758,81,762.18,80.73,767,88v4c-.47.42-1.17.75-1.37,1.27-5,12.89-21.71,22-40.52,17.68-15.58-3.6-25.4-16-25.91-33-.23-7.65-.66-15.33.61-22.94,2.43-14.53,14-25.26,28.89-26.93,17.58-2,30.8,4.94,36.81,19.23.32.75.45,1.63,1.5,1.74Z"/><path class="cls-1" d="M496,0c3.7,2.14,4.72,5.39,4.71,9.56-.11,30.83-.06,61.65-.07,92.48a22,22,0,0,1-.33,4.47c-.66,3.16-2.75,5-6,5s-5.26-2-6.06-5a17.77,17.77,0,0,1-.25-4.47c0-30.83.06-61.65-.09-92.48,0-4,1-7.1,4.05-9.57Z"/><path class="cls-1" d="M683,0c3.67,2.21,6.95,4.76,5.77,9.71-.82,3.49-3,5.93-6.79,6.34a7,7,0,0,1-7.6-4.44A7.56,7.56,0,0,1,676,2.47c.93-.91,2-1.65,3-2.47Z"/><path class="cls-1" d="M340.37,37.39a37.29,37.29,0,0,1,27-9.38c16.72.69,26.56,9.5,27.45,26.22.89,17,0,34-.5,50.94-.11,3.89-2.24,6.46-6.22,6.33-4.19-.14-6.15-2.94-6.16-7,0-11.16,0-22.32,0-33.48,0-3.83.06-7.66,0-11.49-.25-10.26-3.65-16.2-10.57-18.61-8.6-3-18.3-.32-24.82,7.23,0,13.66,0,27.8,0,41.93,0,4.66,0,9.33,0,14-.07,4-1.67,6.84-6.06,7.07-3.79.19-6.36-2.64-6.39-7.29-.09-14.49-.05-29,0-43.47a32.34,32.34,0,0,0-1-8.9c-1.5-5.34-4.74-9-10.17-10.71-7.36-2.27-17.26-.63-24.22,4.39V63.7q0,18.74,0,37.47c0,1.33,0,2.67-.09,4-.33,3.83-2.26,6.44-6.27,6.34s-6.07-2.69-6.15-6.52c-.16-7.32-.06-14.65-.06-22,0-13.16.08-26.31-.05-39.47,0-3.32.94-5.9,3.72-7.64,13-8.15,26.83-10.34,41.52-5.2C334.69,31.92,337.35,34.48,340.37,37.39Z"/><path class="cls-1" d="M406.12,69.57c0-5-.41-10,.53-14.94,3.21-16.87,17.31-27.56,35.59-26.92,18,.63,31.18,12.2,33,29.23a116.29,116.29,0,0,1,0,25.42c-2,18-16.74,30.14-35.85,29.61-18.21-.5-32.17-13.64-33.26-31.43C405.93,76.91,406.12,73.23,406.12,69.57Zm11.94-.51c.11,4.82-.18,9.65.89,14.41,2.34,10.43,10.57,16.73,21.83,16.64,10.91-.09,19.27-6.46,21.15-16.78a76.19,76.19,0,0,0,0-27.31c-1.84-10.14-10.5-16.2-22.13-16.16-10.94,0-18.83,6.19-20.92,16.27C418,60.42,418.17,64.75,418.06,69.07Z"/><path class="cls-1" d="M582.07,69.86c0,3.33.12,6.66,0,10-.72,17.33-13.5,30.48-31,32-18.25,1.61-34-8.93-37.4-25.88a83.16,83.16,0,0,1,0-32.76C517.09,36,532.73,26.09,552.26,28c16.79,1.62,29.1,14.56,29.79,31.42C582.19,62.87,582.07,66.37,582.07,69.86ZM525,69.54c.13,4.82-.17,9.66,1,14.41,2.49,10.29,10.86,16.4,22.23,16.17C559,99.9,567.29,93.22,569,82.86a81.33,81.33,0,0,0,0-26.37c-1.63-10-10.13-16.44-21.28-16.62-11.61-.18-19.46,5.51-21.81,15.74C524.85,60.21,525.14,64.88,525,69.54Z"/><path class="cls-1" d="M257.61,94.19c0-18.58,0-36.74,0-54.89a38.27,38.27,0,0,1,.17-5c.42-3.19,2.25-5.19,5.54-5.42,3.53-.25,5.63,1.7,6.54,4.95a13.09,13.09,0,0,1,.23,3.48c0,19.5-.08,39,.08,58.49,0,4-1.38,6.54-4.83,8.44-13.41,7.4-27.49,10.19-42.36,5.69-11.88-3.6-19.15-12.11-19.82-24.36-.91-16.78-.44-33.65-.4-50.47,0-3.87,2.23-6.33,6.3-6.21,4.38.14,6,3,6.05,7,0,13.83,0,27.66,0,41.5,0,16.42,7.29,23.35,23.8,22.64A35.9,35.9,0,0,0,257.61,94.19Z"/><path class="cls-1" d="M162.4,112.28a39.26,39.26,0,0,1-23.76-7.46c-4-2.95-5.1-6.77-2.63-9.74,3-3.59,6.44-2.87,9.71-.39,8,6,16.94,7.44,26.49,5.43,6.47-1.36,10.32-5.93,10.51-11.66.17-5.27-3-8.81-9.94-10.72-6.09-1.68-12.34-2.84-18.33-4.8-12.59-4.1-18.05-11.37-17.4-22.36.64-10.71,8.47-19.1,20.27-21.62A40,40,0,0,1,185.81,33c4.28,2.36,5.82,6.21,3.72,9.42-2.58,3.92-6.15,3.42-9.64,1.4-6.28-3.64-12.88-5.25-20.11-3.93-6.39,1.17-10,4.6-10.56,10.24-.55,5.25,1.75,8.52,8.34,10.75,4.87,1.64,9.92,2.78,14.94,3.94a46.3,46.3,0,0,1,9,3c7.85,3.6,13,9.29,13.38,18.26.4,9.43-3.46,16.8-11.64,21.69C177.16,111.4,170.47,112.48,162.4,112.28Z"/><path class="cls-1" d="M687.59,70c0,11,0,22,0,33,0,5.54-2.29,8.56-6.23,8.6s-6.34-3.19-6.34-8.5q0-33,0-66c0-5.41,2-8.08,5.91-8.24,4.1-.17,6.61,2.73,6.65,8.13C687.65,48,687.59,59,687.59,70Z"/></g></g></svg>