<svg xmlns="http://www.w3.org/2000/svg" viewBox="0 0 294.27 157.21" width="294.27" height="157.21"><defs><style>.cls-1{fill:#008cc1;}</style></defs><title>Asset 1</title><g id="Layer_2" data-name="Layer 2"><g id="Layer_1-2" data-name="Layer 1"><path class="cls-1" d="M105.61,79.19c-4.66,1-4.51,5.19-3.52,9.86s2.57,8.62,7.23,7.63,4.44-5.23,3.45-9.9S110.26,78.2,105.61,79.19Z"/><path class="cls-1" d="M76.52,86.05a2.72,2.72,0,0,0-2.05,2.69l.38,9.92a1.8,1.8,0,0,0,2.23,1.78,2.72,2.72,0,0,0,2-2.69l-.38-9.92A1.8,1.8,0,0,0,76.52,86.05Z"/><path class="cls-1" d="M137.07,83.24l-6,1.28c-3,.65-4.31,2.38-3.8,4.77s2.26,3.42,5.5,2.74c2-.42,3.41-.89,4.49-2.53.59-.94.68-2.26.29-4.13Z"/><path class="cls-1" d="M69.08,83A2.73,2.73,0,0,0,67,85.72l.74,19A1.8,1.8,0,0,0,70,106.51a2.72,2.72,0,0,0,2-2.69l-.74-19A1.8,1.8,0,0,0,69.08,83Z"/><path class="cls-1" d="M172,66.66a5.28,5.28,0,0,0-4.12-.7,5.16,5.16,0,0,0-3.43,2.3c-1.23,1.94-.85,4.73-.24,7.59s1.39,5.56,3.31,6.83a5.21,5.21,0,0,0,4.08.76A5.33,5.33,0,0,0,175,81.08c1.23-1.94.85-4.74.24-7.59S173.89,67.93,172,66.66Z"/><path class="cls-1" d="M246.33,65.93a5.21,5.21,0,0,0,4.08.76,5.33,5.33,0,0,0,3.47-2.36c1.23-1.94.85-4.74.24-7.59s-1.39-5.56-3.31-6.83a5.28,5.28,0,0,0-4.12-.7,5.16,5.16,0,0,0-3.43,2.3c-1.23,1.94-.85,4.73-.24,7.59S244.42,64.65,246.33,65.93Z"/><path class="cls-1" d="M61.92,87a2.72,2.72,0,0,0-2,2.68l1,25.62a1.79,1.79,0,0,0,2.22,1.78,2.72,2.72,0,0,0,2.05-2.69l-1-25.62A1.8,1.8,0,0,0,61.92,87Z"/><path class="cls-1" d="M195.25,78.74c2-.42,3.41-.89,4.49-2.53.6-.94.69-2.26.29-4.13L199.57,70l-6,1.28c-3,.65-4.31,2.38-3.8,4.77S192,79.43,195.25,78.74Z"/><path class="cls-1" d="M40.66,105.2a2.72,2.72,0,0,0-2,2.69l.11,2.83a1.8,1.8,0,0,0,2.22,1.78A2.72,2.72,0,0,0,43,109.81L42.88,107A1.8,1.8,0,0,0,40.66,105.2Z"/><path class="cls-1" d="M47.92,103.65a2.72,2.72,0,0,0-2,2.69l.38,9.92a1.8,1.8,0,0,0,2.22,1.79,2.72,2.72,0,0,0,2-2.69l-.38-9.92A1.8,1.8,0,0,0,47.92,103.65Z"/><path class="cls-1" d="M55,97.59a2.72,2.72,0,0,0-2,2.69l.74,19a1.8,1.8,0,0,0,2.23,1.78,2.71,2.71,0,0,0,2-2.69l-.73-19A1.8,1.8,0,0,0,55,97.59Z"/><path class="cls-1" d="M268.79,78.84a2.22,2.22,0,1,0,2.55,1.73A2.18,2.18,0,0,0,268.79,78.84Zm1.36,3.43-.87-1-.41.09.24,1.14-.38.08-.59-2.79.93-.2a.86.86,0,0,1,1,.65.79.79,0,0,1-.42.89l.91,1Z"/><path class="cls-1" d="M269.72,80.33a.5.5,0,0,0-.62-.38l-.51.11.21,1,.51-.11A.49.49,0,0,0,269.72,80.33Z"/><path class="cls-1" d="M243.56,85.21l-3.18.67.49,2.29,3.14-.66c1.12-.24,1.14-1,1-1.42A1.12,1.12,0,0,0,243.56,85.21Z"/><path class="cls-1" d="M273.2,0,0,58.07l21.07,99.14,273.2-58.07ZM238.7,49.22a10.37,10.37,0,0,1,7-4.74A10.49,10.49,0,0,1,254,46c3,2.07,4.3,5.27,5.23,9.68s1,7.91-.83,11a10.5,10.5,0,0,1-7,4.75,10.38,10.38,0,0,1-8.31-1.49c-3-2.08-4.29-5.27-5.24-9.73S236.83,52.33,238.7,49.22Zm-31.27-8.77a3.31,3.31,0,0,1,2.87.77l6.24,29.36c.43,2,1.36,2.91,3.43,2.47l2.28-.48,1,4.51-3.19.68c-4.91,1-7.76-1.88-8.58-5.77l-6.31-29.67A3.24,3.24,0,0,1,207.43,40.45Zm-125.78,78-33.76,7.18a7.88,7.88,0,0,1-9.31-6.12L31.33,85.35a7.88,7.88,0,0,1,6-9.37L71.11,68.8a7.88,7.88,0,0,1,9.31,6.12l3.53,16.61a2.73,2.73,0,0,0-2,2.67L82.1,97a1.8,1.8,0,0,0,2.22,1.78,2.4,2.4,0,0,0,1.06-.54L87.67,109A7.88,7.88,0,0,1,81.65,118.42Zm35.77-21a8.83,8.83,0,0,1-5.73,3.66,8.08,8.08,0,0,1-7.37-1.58l2.83,13.33L102,114,94.4,78.27a3.18,3.18,0,0,1,2.25-1.83,3.26,3.26,0,0,1,2.82.75l.33,1.55a8,8,0,0,1,6.12-4.56,9,9,0,0,1,6.77,1c3.15,2.1,4.4,6.49,5.25,10.49S119.45,94.25,117.42,97.45Zm22.22-2.61-.51-2.39c-1.47,2.32-3.07,3.47-6.26,4.15s-5.48.35-7.39-.92a8.38,8.38,0,0,1-3.23-5.22c-.94-4.41,1.38-8.21,7.26-9.46l6.78-1.44-.4-1.87c-.71-3.32-2.67-4.58-6.67-3.73-2.84.6-4.06,1.57-5.08,3.74l-4.09-2.55c1.81-3.42,4.16-4.84,8.41-5.75,7-1.5,11.23.81,12.5,6.78l3.74,17.59Zm17.19-3.65c-4.91,1-7.76-1.88-8.58-5.77l-6.31-29.67a3.24,3.24,0,0,1,2.29-1.87,3.31,3.31,0,0,1,2.87.77L153.34,84c.43,2,1.36,2.91,3.44,2.47l2.28-.48,1,4.51Zm22.78-7.77a10.5,10.5,0,0,1-7,4.75,10.37,10.37,0,0,1-8.31-1.49c-3-2.08-4.3-5.27-5.25-9.73s-1-7.86.85-11a10.36,10.36,0,0,1,7-4.74,10.49,10.49,0,0,1,8.36,1.48c3,2.07,4.29,5.27,5.23,9.68S181.49,80.3,179.61,83.42Zm5.14-6.24c-.94-4.41,1.38-8.21,7.25-9.46l6.79-1.44-.4-1.87c-.71-3.32-2.67-4.58-6.67-3.73-2.84.6-4.06,1.57-5.08,3.74l-4.09-2.55c1.81-3.42,4.16-4.84,8.41-5.75,7-1.5,11.23.81,12.5,6.78l3.74,17.59-5.06,1.08-.51-2.39c-1.47,2.32-3.07,3.47-6.26,4.15s-5.48.35-7.39-.92A8.38,8.38,0,0,1,184.75,77.17Zm11.6,25.44-6.23-5.18,1.32,6.22L190,104l-1.78-8.41,1.57-.33,6.23,5.18-1.32-6.22,1.46-.31,1.78,8.41Zm3.53-.75-1.78-8.41,6.65-1.41.28,1.33-5.19,1.1.44,2.07,5-1.07.28,1.33-5,1.07.5,2.34,5.3-1.13.28,1.34Zm12.54-2.66-1.46.31-1.5-7.07-3,.64-.28-1.34,7.45-1.58.28,1.34-3,.63Zm14.06-3-1.49.32-3.47-6c-.08.72-.73,6.9-.73,6.9l-1.5.32-4.49-7.83,1.58-.33,3.28,5.89c.08-.74.69-6.73.69-6.73l1.6-.34,3.42,5.87.59-6.72,1.52-.32Zm-.6-27.36-3.08-14.48-2.94.62L219,51l2.94-.62-1.69-8a3.24,3.24,0,0,1,2.29-1.87,3.32,3.32,0,0,1,2.88.77l1.69,8,5-1.05.86,4-5,1.05,3,14.22c.41,1.92,1.56,2.87,3.48,2.46l2.13-.45,1,4.51-3.09.66C229.67,75.71,226.69,72.65,225.89,68.86Zm8.41,25.91A4.51,4.51,0,1,1,232.43,86a4.51,4.51,0,1,1,1.87,8.81ZM246.53,92l-.05,0c-.25-.2-.33-.5-.55-1.31l-.07-.26c-.39-1.46-.94-1.64-1.76-1.47l-2.93.62.73,3.45-1.46.31-1.78-8.41,5-1.07a2.21,2.21,0,0,1,2.79,1.81,2.14,2.14,0,0,1-.72,2.24,1.89,1.89,0,0,1,1.34,1.55c.37,1.45.49,1.81.79,2l.25.2Zm9.26-2-4-3.22-1,1.44.58,2.73-1.46.31-1.78-8.41,1.46-.31.83,3.9,3.41-4.8,2.09-.44-3.19,4.36,5.12,4Zm9.36-2.78a4.2,4.2,0,0,1-2.66,1.57,4.36,4.36,0,0,1-3.25-.36,2.83,2.83,0,0,1-1.17-1.86l0-.14,1.45-.31,0,.14c.33,1.46,1.88,1.36,2.77,1.18a2.46,2.46,0,0,0,1.61-.9,1,1,0,0,0,.13-.76c-.12-.59-.58-.81-1.58-.78l-1.86.08c-.63,0-2.56.11-3-1.74-.34-1.61.72-2.88,2.76-3.32s3.62.25,4.08,1.94l0,.15-1.45.3,0-.12c-.22-.57-.72-1.29-2.51-.91a2.07,2.07,0,0,0-1.32.78,1,1,0,0,0-.13.76c.07.31.28.72,1.38.68l2-.07c.64,0,2.58-.07,3,1.69A2.59,2.59,0,0,1,265.15,87.23Zm4.64-3.67a2.6,2.6,0,1,1,1.94-3.07A2.57,2.57,0,0,1,269.79,83.56Z"/><path class="cls-1" d="M232.72,87.3h0a3.17,3.17,0,0,0-2.11,1.35,3.11,3.11,0,0,0-.33,2.38h0a3.12,3.12,0,0,0,1.26,2,3.19,3.19,0,0,0,2.48.37,3.14,3.14,0,1,0-1.3-6.15Z"/></g></g></svg>