<svg xmlns="http://www.w3.org/2000/svg" width="599.6" height="97.41" viewBox="0 0 599.6 97.41"><defs><style>.cls-1{fill:#fff;}</style></defs><title>Asset 6</title><g id="Layer_2" data-name="Layer 2"><g id="Layer_1-2" data-name="Layer 1"><g id="k9GzAE.tif"><path class="cls-1" d="M195.57,53.67C200,60,204.31,66.11,209,72.74h-11.9c-4.22-5.89-8.57-12-13.12-18.35H158.33V72.9H148.21V21.29c15.3,0,30.43-.35,45.52.15,7.74.26,13.19,6.18,14,13.24C208.94,44.4,205.8,49.46,195.57,53.67Zm-37-9.09c10.6,0,20.85.05,31.1,0,4.34,0,7.41-1.95,7.75-6.64.3-4-2.86-7.27-7.73-7.38-10.26-.25-20.53-.08-31.12-.08Z"/><path class="cls-1" d="M0,73.12V21.47c13.4,0,26.73-.88,39.88.23,14.41,1.22,24.15,12.19,23.66,25-.44,11.64-7.45,25-25,26.17-11.43.78-23,.23-34.44.28Zm10.17-9.7c9.5,0,18.77.39,28-.12,7.84-.44,13.16-6.23,14-13.81.92-8.44-3.17-16.5-11-17.73C31,30.17,20.49,30.51,10.17,30Z"/><path class="cls-1" d="M529.32,73H514.18q-8.5-10.41-17-20.85L479.35,30.3V72.88H469.19V21.31h15.23L519,63.64V21.27h10.34Z"/><path class="cls-1" d="M304.82,72.89h-10V21.65c.21-.11.63-.5,1-.5,14,0,28-.27,42,.09C350.22,21.55,357,31,353.75,42.8a13.39,13.39,0,0,1-12.12,10.39c-8.26.82-16.61.69-24.92.9-3.8.1-7.61,0-11.89,0Zm.06-28.34c10.8,0,21.23.13,31.65-.07,4-.07,7.08-1.8,7.22-6.51s-2.64-7.08-6.61-7.21c-10.71-.35-21.43-.12-32.26-.12Z"/><path class="cls-1" d="M256.13,41l29.72,31.84H272.39L248,47,233.55,57.36V72.84H223.17V21.47h10.34V46c2.67-1.88,34.91-24,34.91-24l15.12-.66Z"/><path class="cls-1" d="M97.3,21.21h13c9.26,17,18.51,34,28.06,51.55H126.93l-5.81-10.47H86.49L80.56,73H69.19Zm18.24,30.92L103.81,30.22C99.64,38,96,44.9,92.08,52.13Z"/><path class="cls-1" d="M437.91,93.11l-7.53,4.3c-.51-.73-.92-1.24-1.24-1.8-5-8.63-10-17.27-15.14-26.21,10.34-10.79,13.33-22.77,4.53-35.87-6.35-9.47-17.09-12.64-30.55-9.39l-4.18-7.06c12.29-6.34,29.09-3,39,7.42S437.36,52.58,425,70.6Z"/><path class="cls-1" d="M407,73.49l3.9,6.73c-8.31,6-27.89,4.17-38.45-6.74-10.31-10.65-14.54-29.72-2.58-46.5L357,4.56,364.48,0c2.85,4.86,5.62,9.54,8.35,14.25s5.27,9.22,7.88,13.77c-10.63,14.09-12.16,24-5.45,34.58C381.75,72.86,391.83,76.36,407,73.49Z"/><path class="cls-1" d="M599.6,21.26v9.17H575.26V72.89H565V30.64H540.55V21.26Z"/><path class="cls-1" d="M414.76,49a17.35,17.35,0,1,1-16.7-17.55C407.21,31.6,414.87,39.65,414.76,49Z"/><path class="cls-1" d="M441.43,72.79V21.4h9.92V72.79Z"/></g></g></g></svg>