<svg xmlns="http://www.w3.org/2000/svg" viewBox="0 0 2500.01 748.92" width="2500.01" height="748.92"><defs><style>.cls-1{fill:#fff;}</style></defs><title>Asset 1</title><g id="Layer_2" data-name="Layer 2"><g id="Layer_1-2" data-name="Layer 1"><path class="cls-1" d="M888.28,293.8c0-74.36,54.22-126.29,152.75-126.29,60.12,0,109.32,19.2,136,38,3.81,2.68,10.62,9.2,6.54,21.31-5.23,13-14.82,32.67-21.7,45.42-4,7.43-14.23,6.45-19.47,3.79-19-9.62-50.13-25.9-78.73-28.9a167.51,167.51,0,0,0-21.82-.94c-25.19.56-46.24,9.31-53.65,28.53a33.83,33.83,0,0,0-2.39,11.41c-.69,25.33,34.56,34.49,77.26,41.82,79.39,13.6,139.45,36.88,139.45,118.59,0,69.39-55.15,132.1-163.2,130.18-71.23-1.44-121.77-25.51-148.85-48.87-.92-.79-11.23-11.29-5.71-23.92,6.32-16.26,17-34.88,25.37-44.78,4.66-6.35,16.95-7.36,23.34-3.4,22.32,13.87,59.06,36.11,101.4,37.59,3.34.12,6.65.14,9.91.05,38.09-.92,61.14-15.37,60.65-39.7-.41-21.43-30.61-34-78.71-43C950,396.25,888.29,371,888.29,293.8m696.83,105.89c-54.09.71-103.68,15.49-105.11,57.76,0,33.54,27.2,50,65.39,47.86,36.64-3.53,64.57-19.42,76.88-40.5,4.55-7.81,5.24-37.05,5-49.55-.07-2.66-5.33-7.69-7.63-8.66-11.49-4.84-20-6.34-34.5-6.93m-180-170.32c25.29-22.63,75.44-57.86,155.37-56C1666,175.55,1721.7,225,1726.89,343.28c2.14,48.78-1.41,184.84-2.25,218.74-.13,4.86-1.77,8.23-8.33,8.35-17.37.7-57.5.42-75.94.18-9.3-.45-10.38-5.07-10.5-9.9-.08-3.16-.35-12.54-.55-20.18-.11-4.05-3.91-3.94-4.89-2.9-24.74,26.42-65.26,39.17-108.35,39.17-65.49,0-130.78-38.53-130.58-114.82.2-78.14,55.61-116.68,116.47-125.77,39-5.8,82.91-.64,116.17,12.58,2.13.85,6.47-.38,6.51-3.4.14-10-.35-28.93-2.26-37.93-4.88-22.91-24-41.35-64.16-46.32a123.57,123.57,0,0,0-24.93-.69c-31.92,2.51-70.34,27.4-86.25,36.72-3.74,2.19-9.61.59-11.5-1.86-9.28-12-32.62-47.07-34.46-52.68s.75-10.3,4-13.24v0Zm356.53,145.46c-.63-109,75.3-200.91,198.6-201.72,76.93-.5,132.83,34.38,142.68,50.83,2,3.86,1,7.09-.41,11-6.51,13.75-23,40.32-34.69,55.37-5,6.41-10.41.92-16.71-3.27-17.48-11.64-50.69-25.88-83.38-25.88-59.3,0-103.46,40.67-103,115.48.46,71.79,42.76,111.24,103.17,112.67,31.58.79,62.18-17.36,78.64-32.23,5.17-4.51,10.52-2.25,16.43,2.36,11.59,11.85,28.22,30.14,37.44,42.73,6,7,1.52,13.84-.65,16.59-25,31.65-73.32,58.29-137.25,58.65-133.86.94-200.27-93.18-200.89-202.55m639,197.64c6.28-.47,73.34-9.73,93.92-14.44,5.11-1.16,6.93-5.46,4.07-9.72-11.49-17.23-41.71-66.17-73.36-110-29.11-40.28-59.79-75.71-69.71-89.35-2.42-3.31-2.29-6.57.35-9.14,18.87-18.47,97.83-95.88,127.51-127.85,11.49-12.44,4.59-17.79-5.17-20.69-18.85-5.62-49.35-12.63-66.7-16.29-7.31-1.55-16.12-1-22.51,5.57-29.68,27.68-120.26,118.59-147.3,145.76-4.87,4.9-7.7,3.81-7.73-3.19-.22-52.39-1.25-276.71-3.13-313.61-.13-4.88-6-8.58-9.3-8.76-17-.89-60-1.14-76.88-.15-4.74.54-9.27,5.37-9.69,9.45-3.9,59,1.66,492.09,4,552.67a8.15,8.15,0,0,0,7.59,8c16.89,1,58.66.91,78.16.55,9.6,0,10.77-6.74,10.77-6.74L2237,448.38s1-5.17,2.59-6.88c6.88-7.4,25.9-27.79,34-35.67,1.95-1.89,5-1.76,7,.92,9.64,13,37.11,55.25,62.58,93,23.4,34.67,45.25,65.44,46.77,67.61,3.52,5,7.64,5.22,10.74,5.12v0Zm-1140.38-.4c5.9.2,50.64.15,70.46.12a9.82,9.82,0,0,0,10.36-9.38c4.21-84.94,2.41-489.37-.25-553.23-.22-5.52-2.58-7.59-6.35-8.09-17-2.28-65.36-1.75-80.86,2.31a6.23,6.23,0,0,0-4.91,6.05c-3.79,164.61-1.23,544.11-.43,551.3s4.56,10.68,12,10.93h0Z"/><path class="cls-1" d="M62.9,403.17C35.33,403.38,12,387,3.36,361.31q-.48-1.45-.89-2.93a64,64,0,0,1,41.43-78.2L567,104.92a70.9,70.9,0,0,1,19.11-2.79c28.3-.22,52.3,16.57,61.13,42.76l.78,2.53c9.79,34.21-14.53,64.74-43.66,74.53L84.15,399.55a67.7,67.7,0,0,1-21.25,3.62Z"/><path class="cls-1" d="M150.09,660.45c-27.79.2-51.22-16-59.74-41.28q-.48-1.44-.9-2.91a64.46,64.46,0,0,1,41.39-79L654,360.43A67.37,67.37,0,0,1,674.76,357c27.86-.21,52.34,16.81,61,42.38l.8,2.66a66.2,66.2,0,0,1-8,53.2c-7.49,11.65-31.1,21.91-31.1,21.91L172.32,656.66a72,72,0,0,1-22.22,3.8Z"/><path class="cls-1" d="M585.58,661.57a64.23,64.23,0,0,1-61.5-43.78L349.49,99.17l-.87-2.91a64.31,64.31,0,0,1,122.8-38.12L646,576.71l.51,1.67c9.81,34.34-8.35,68.85-41,79.85a64.92,64.92,0,0,1-20,3.34Z"/><path class="cls-1" d="M326.06,748.92a64.25,64.25,0,0,1-61.53-43.81L90,186.51a64.22,64.22,0,0,1,40.27-81.41l.13,0a65,65,0,0,1,20-3.35,64.22,64.22,0,0,1,61.51,43.78L386.45,664.1a64.22,64.22,0,0,1-40.27,81.41l-.18.06a64.64,64.64,0,0,1-20,3.35h0Z"/><path class="cls-1" d="M499.51,544.77l121.74-41.62L581.45,385,459.57,426.15Z"/><path class="cls-1" d="M240.39,633.37l121.73-41.62L322,472.66l-121.85,41.2Z"/><path class="cls-1" d="M412.84,287.34l121.75-41.57L495.26,129l-122,40.87Z"/><path class="cls-1" d="M153.69,375.82l121.75-41.57L235.63,216l-122,40.86Z"/></g></g></svg>