<?xml version="1.0" encoding="utf-8"?>
<!-- Generator: Adobe Illustrator 16.0.0, SVG Export Plug-In . SVG Version: 6.00 Build 0)  -->
<svg version="1.2" baseProfile="tiny" id="Layer_1" xmlns="http://www.w3.org/2000/svg" xmlns:xlink="http://www.w3.org/1999/xlink"
	 x="0px" y="0px" width="3000px" height="3000px" viewBox="0 0 3000 3000" xml:space="preserve">
<g>
	<path fill="#0F0500" d="M331.507,1593.127c0,19.75-4.2,37.973-12.547,54.725c-8.347,16.777-20.031,30.941-34.942,42.6
		c-14.938,11.652-32.689,20.777-53.275,27.342c-20.591,6.568-43.125,9.85-67.609,9.85c-29.298,0-55.56-4-78.813-12.045
		c-23.289-8.018-46.573-21.254-69.835-39.734l38.48-62.617c18.524,15.488,35.222,26.871,50.129,34.023
		c14.911,7.172,30.16,10.732,45.711,10.732c19.084,0,34.445-4.898,46.103-14.801c11.653-9.848,17.471-23.141,17.471-39.84
		c0-7.178-1.054-13.938-3.143-20.195s-5.956-12.715-11.631-19.283c-5.649-6.57-13.382-13.742-23.258-21.477
		c-9.849-7.791-22.502-17.363-38.004-28.715c-11.938-8.369-23.538-17.027-34.862-25.957c-11.351-8.986-21.613-18.56-30.88-28.737
		c-9.235-10.129-16.662-21.48-22.364-34.005c-5.675-12.595-8.458-26.924-8.458-43.062c0-18.503,3.84-35.364,11.6-50.636
		c7.702-15.254,18.28-28.214,31.715-38.982c13.387-10.742,29.436-19.111,48.218-25.066c18.782-6.009,39.146-9.009,61.182-9.009
		c23.258,0,45.765,3.146,67.578,9.351c21.76,6.227,41.929,15.267,60.458,27.151l-34.943,56.2
		c-23.871-16.689-48.938-25.066-75.227-25.066c-16.111,0-29.409,4.235-39.844,12.577c-10.462,8.378-15.662,18.84-15.662,31.387
		c0,11.965,4.618,22.729,13.853,32.275c9.156,9.564,25.093,23.036,47.711,40.343c22.791,16.742,41.68,31.408,56.644,43.955
		c14.974,12.573,26.795,24.396,35.471,35.417c8.738,11.104,14.725,22.316,18.031,33.662
		C329.809,1566.834,331.507,1579.406,331.507,1593.127"/>
	<path fill="#0F0500" d="M852.715,1483.095c0,35.249-5.422,67.659-16.222,97.213c-10.765,29.568-25.76,55.414-44.929,77.484
		c-19.164,22.121-41.902,39.254-68.298,51.529c-26.347,12.213-54.809,18.328-85.355,18.328c-13.8,0-26.681-1.199-38.676-3.559
		c-11.986-2.424-23.338-6.455-34.164-12.104c-10.77-5.711-21.396-13.021-31.858-22.008c-10.484-8.961-21.417-20.037-32.8-33.17
		v283.871H385.311v-671.675h115.099l0.608,65.378c20.956-26.263,43.653-45.516,68.195-57.782
		c24.538-12.213,52.942-18.333,85.249-18.333c29.294,0,56.026,5.511,80.267,16.556c24.2,11.049,45.125,26.436,62.791,46.155
		c17.641,19.697,31.276,43.293,40.84,70.782C847.902,1419.215,852.715,1449.677,852.715,1483.095 M727.52,1487.628
		c0-48.991-9.906-87.72-29.769-116.124c-19.809-28.378-46.88-42.601-81.16-42.601c-36.08,0-64.631,15.107-85.631,45.298
		c-21.066,30.214-31.578,71-31.578,122.414c0,50.218,10.378,89.666,31.076,118.324c20.782,28.738,49.187,43.063,85.244,43.063
		c21.645,0,39.479-5.506,53.64-16.574c14.134-11.07,25.573-25.127,34.275-42.146c8.738-17.004,14.885-35.559,18.498-55.59
		C725.707,1523.656,727.52,1504.988,727.52,1487.628"/>
	<rect x="903.938" y="1059.318" fill="#0F0500" width="118.103" height="657.29"/>
	<path fill="#0F0500" d="M1408.427,1716.766l-0.28-59.98c-22.725,25.119-46.063,43.203-69.965,54.279
		c-23.929,11.07-51.772,16.555-83.439,16.555c-35.303,0-65.045-7.014-89.307-21.008c-24.2-14.076-41.707-34.857-52.444-62.379
		c-3.005-6.537-5.258-13.43-6.733-20.617c-1.507-7.174-2.867-15.377-4.063-24.676c-1.164-9.289-1.946-19.898-2.227-31.854
		c-0.307-11.965-0.444-26.6-0.444-43.965v-254.786h118.103v256.573c0,22.76,1.053,40.035,3.146,52.023
		c2.111,11.963,5.862,22.76,11.262,32.275c13.773,25.15,38.12,37.693,72.894,37.693c44.396,0,75-18.525,91.782-55.613
		c4.2-9.574,7.205-20.17,9.005-31.859c1.813-11.656,2.702-28.234,2.702-49.764v-241.333h118.133v448.431h-118.124V1716.766z"/>
	<path fill="#0F0500" d="M1917.871,1716.57v-255.875c0-22.676-1.031-39.979-3.146-51.89c-2.085-11.906-5.871-22.671-11.236-32.213
		c-13.777-25.04-38.093-37.591-72.893-37.591c-22.2,0-41.258,4.617-57.143,13.884c-15.916,9.214-27.769,22.813-35.529,40.702
		c-4.258,10.156-7.093,21.031-8.568,32.667c-1.533,11.596-2.258,27.871-2.258,48.747v241.574h-119.133v-447.427h119.133
		l0.227,59.982c22.76-25.071,46.045-43.231,70-54.254c23.898-11.071,51.716-16.613,83.432-16.613
		c35.311,0,65.049,7.293,89.284,21.925c24.263,14.636,41.733,35.333,52.497,62.218c2.392,6.564,4.508,13.267,6.289,20.142
		c1.836,6.898,3.285,14.742,4.484,23.698c1.214,8.96,1.916,19.564,2.25,31.8c0.279,12.244,0.443,26.991,0.443,44.289v254.241
		h-118.133V1716.57z"/>
	<polygon fill="#0F0500" points="2414.951,1725.646 2236.782,1478.508 2236.782,1716.686 2117.631,1716.686 2117.631,1059.456 
		2236.782,1059.456 2236.782,1445.367 2249.311,1445.367 2407.777,1261.797 2497.312,1300.331 2345.094,1463.282 2525.098,1687.131 
			"/>
	<polygon fill="#76B33A" points="2627.373,1704.441 2627.373,1625.762 2904.924,1488.94 2627.373,1353.864 2627.373,1273.375 
		2985.52,1453.158 2985.52,1526.469 	"/>
	<path fill="#0F0500" d="M2664.707,1196.14c5.991,0,10.133-2.756,10.133-7.596v-0.218c0-4.484-3.671-7.347-9.769-7.347h-12.516
		v15.164h12.151V1196.14z M2646.235,1175.247h19.058c5.4,0,9.876,1.697,12.658,4.479c2.031,1.947,3.396,4.813,3.396,8.258v0.227
		c0,6.898-4.556,11.019-10.991,12.521l13.191,17.111h-7.791l-12.298-16.089h-10.907v16.089h-6.315V1175.247z M2700.32,1197.757
		v-0.227c0-20.813-16.195-37.777-37.645-37.777c-21.618,0-37.92,17.195-37.92,38.004v0.218c0,20.813,16.169,37.787,37.645,37.787
		C2684.014,1235.762,2700.32,1218.54,2700.32,1197.757 M2620.974,1197.975v-0.218c0-22.622,18.368-41.596,41.706-41.596
		c23.285,0,41.453,18.756,41.453,41.374v0.227c0,22.613-18.391,41.56-41.732,41.56
		C2639.115,1239.318,2620.974,1220.597,2620.974,1197.975"/>
</g>
</svg>
