<svg xmlns="http://www.w3.org/2000/svg" width="1099.67" height="238.58" viewBox="0 0 1099.67 238.58"><defs><style>.cls-1{fill:#303e49;}.cls-2{fill:#008cc2;}.cls-3{fill:#105ea1;}.cls-4{fill:#24b136;}.cls-5{fill:#6bbf59;}</style></defs><title>Asset 2</title><g id="Layer_2" data-name="Layer 2"><g id="Layer_1-2" data-name="Layer 1"><g id="C5cMU4.tif"><path class="cls-1" d="M777.14,116.89l3.44,1.45c14.7,6.17,20.59,20.84,14,35.4-4.68,10.34-14,13.6-24.27,15a83.53,83.53,0,0,1-11,.51q-40.46.06-80.93,0h-5.22V70.92a16.61,16.61,0,0,1,2.26-.3c27.15,0,54.29-.14,81.43.17a66.92,66.92,0,0,1,17.61,2.88c9,2.61,14.16,9.07,15.18,18.45s-1.46,17.49-9.88,22.92C779.11,115.48,778.46,116,777.14,116.89Zm-85.85,34.76A9.56,9.56,0,0,0,693,152c23.81,0,47.61,0,71.42-.11a25.56,25.56,0,0,0,8.7-1.76c4.71-1.79,6.91-5.85,6.72-11.16s-2.36-8.68-7.31-10.13a43.8,43.8,0,0,0-11.75-1.8c-22.47-.17-44.95-.09-67.42-.08a15.46,15.46,0,0,0-2.07.29Zm0-42a15.21,15.21,0,0,0,2.05.29c21.3,0,42.59,0,63.89-.13a32.28,32.28,0,0,0,7.87-1.11c5.11-1.33,7.67-4.72,7.73-9.68s-2.36-8.61-7.33-10a33.81,33.81,0,0,0-8.84-1.24c-20.63-.13-41.26-.11-61.89-.12-1.11,0-2.22.13-3.48.22Z"/><path class="cls-1" d="M278.93,142h18.95c2.08,7.62,7.93,9.86,14.91,9.91q28.72.19,57.47,0a25.23,25.23,0,0,0,7.34-1.25c5.4-1.72,7.89-5.57,7.78-11.39s-2.66-9.65-8.22-11a49.26,49.26,0,0,0-11.36-1.31c-17-.13-34,.27-51-.23A64.65,64.65,0,0,1,295.42,123c-9.37-3.31-14-10.88-14.46-20.76a45.92,45.92,0,0,1,.55-11.43c2.39-11.5,11.61-18.69,25.55-20,6.79-.61,13.64-.76,20.46-.72,14.65.07,29.31.2,43.94.73A35.46,35.46,0,0,1,383,73.76c10.09,4,14.76,11.83,15.12,22.86H380c-1.89-6.86-7.26-9-13.73-9-17.49-.11-35-.21-52.46,0a26.9,26.9,0,0,0-10.49,2.67c-4.14,1.91-5.9,5.66-5.26,10.35a9,9,0,0,0,7.6,8.16,42.29,42.29,0,0,0,8.39,1c17.32.11,34.65-.17,52,.23a78.78,78.78,0,0,1,19.62,2.87c10.08,2.86,15.59,10.09,16.79,20.67,2.5,22.14-7.15,34.43-29.41,35.21-21.29.74-42.64.43-63.94-.15-5.76-.16-11.78-2.27-17.1-4.74C283.16,159.85,279.23,152.15,278.93,142Z"/><path class="cls-1" d="M869.49,68.66c11.94-.19,23.6,1.3,34.62,6.09,19.55,8.5,29.68,23.5,29.83,44.82.14,21.48-9.49,37.34-29.48,45.45-23.14,9.4-46.88,9.38-70-.12-19.8-8.13-29.33-24-29.26-45.13.07-21,10-36.1,29.23-44.78C844.15,70.6,855.49,68.66,869.49,68.66Zm.08,85.7c9-.16,18-.85,26.38-4.52,12.77-5.56,19.17-15.33,19.33-29.27s-5.54-24.79-18.75-30.07a70.54,70.54,0,0,0-54,0c-13.17,5.31-18.92,16-18.74,30.08s6.67,23.66,19.43,29.21C851.63,153.5,860.56,154.19,869.57,154.36Z"/><path class="cls-1" d="M983.28,118.64,925.06,71h28.22l41.25,35.7,42-35.83h28.22l-59,47.77,58.89,50.23h-28.18l-42-38.42L953,169.11H924.75Z"/><path class="cls-2" d="M112.26,198.08c11.55-6.78,23.13-13.51,34.65-20.33q18.36-10.87,36.64-21.9c1.54-.93,3-2,4.43-3.09,3.87-2.22,7.79-4.36,11.59-6.69,7.61-4.65,15.15-9.42,22.72-14.13.86,2.76,2.33,5.51,2.45,8.31.34,7.63,0,15.29.15,22.94s-3.08,13.35-9.65,17.26q-29.94,17.78-59.82,35.63c-10.82,6.45-21.53,13.12-32.51,19.29-3.17,1.78-7.11,2.18-10.7,3.21Q112.24,218.33,112.26,198.08Z"/><path class="cls-3" d="M112.26,198.08q0,20.25-.05,40.5c-3.14-.88-6.64-1.14-9.35-2.74q-47.5-28-94.79-56.34C2.58,176.23,0,171.41,0,165c.08-8.16-.16-16.33.12-24.49.09-2.68,1.34-5.31,2.05-8l34.75,20.64q34.92,20.73,69.85,41.46C108.64,195.74,110.44,196.93,112.26,198.08Z"/><path class="cls-1" d="M519.51,169l-47-41.88H433.38v42H415.3V70.82H433v38.83H472.8L509,70.74h21.8l-45.12,47.77c19.7,16.71,39.23,33.28,59.44,50.44Z"/><path class="cls-3" d="M222.29,131.94c-7.57,4.71-15.11,9.48-22.72,14.13-3.8,2.33-7.72,4.47-11.59,6.69l-71.35-42.9-3.84-2.32L113,64.76a45.42,45.42,0,0,1,4.41,2.06q48.66,29.1,97.23,58.32C217.52,126.87,219.76,129.65,222.29,131.94Z"/><path class="cls-1" d="M536.13,70.71h23l41.46,45.09,40.51-44.94h23.15l-54.52,59.76V169h-18V130.89Z"/><path class="cls-2" d="M113,64.76q-.11,21.39-.22,42.78L107,110.6,70.7,88.91c10.22-6.06,19.82-11.85,29.52-17.46C104.38,69,108.74,67,113,64.76Z"/><path class="cls-1" d="M730.7,222.82l9.78,13.86h-8.16c-2.91-4.12-6-8.44-9.08-12.82H714.9v12.85h-6.85V198.43c6.85,0,13.64-.46,20.34.13s10,4.26,10.9,9.84c.93,5.92-1.12,9.92-6.72,13.16C732,221.92,731.39,222.36,730.7,222.82Zm-15.6-18.14v13c4.19-.21,8-.19,11.72-.63s5.64-2.69,5.51-6.43-2.43-5.71-6-5.9S719.05,204.68,715.1,204.68Z"/><path class="cls-1" d="M492.23,236.9h-28.6V198.31h28.28v6H470.54v9.94h19v6.4H470.46v10.22h21.77Z"/><path class="cls-1" d="M655.86,198.45c0,8.89.62,17.9-.19,26.77-.77,8.43-8.14,13.1-17.57,12.52-8.85-.54-14.36-6-15.06-15-.06-.83-.06-1.66-.06-2.49,0-7.16,0-14.32,0-21.87h6.94c0,5.9,0,11.84,0,17.77a61.15,61.15,0,0,0,.14,6.5c.64,5.52,4.31,8.63,9.81,8.53s9-3.13,9.23-8.95c.25-7.8.06-15.62.06-23.83Z"/><path class="cls-1" d="M412.39,202.76l-3.06,4.14c-3.93-1.14-7.32-2.42-10.82-3-2.79-.48-5.55.58-6.31,3.64-.84,3.36,1.69,4.72,4.39,5.58,3.16,1,6.42,1.74,9.52,2.91,5.42,2.05,7.88,5.58,7.66,10.45-.23,5.26-3.46,9.05-9,10.57-7.07,1.93-14.69-.1-21-5.76l3.33-4.12a101.25,101.25,0,0,0,10.41,4.08,9.24,9.24,0,0,0,5.8-.47c1.42-.63,3.09-2.43,3.19-3.82a5.33,5.33,0,0,0-2.63-4.15c-3.13-1.45-6.62-2.12-9.92-3.23-7.47-2.5-10.4-7.53-8.31-14,1.38-4.25,4.55-6.47,8.59-7.54C400.26,196.47,406.68,198.15,412.39,202.76Z"/><path class="cls-1" d="M571.11,226.76l3.81,3.63c-6.12,8.59-19.5,10-27.93,3-8.75-7.2-9.75-21-2.13-29.49s21.5-8.65,29.87-.25c-.58.77-1.16,1.56-1.77,2.33s-1.26,1.53-2.13,2.58c-4.09-3.12-8.3-5.87-13.3-4.46a16.33,16.33,0,0,0-7.43,4.55c-4.63,5.21-4.1,13.7.62,18.72C555.67,232.69,562.05,232.53,571.11,226.76Z"/><path class="cls-1" d="M952.6,198.18h7.25a25.35,25.35,0,0,1-1.35,3c-1,1.71-2.18,3.34-3.28,5-3.1,4.73-7.18,9.11-9,14.28-1.76,4.94-1.19,10.71-1.66,16.38H938.3a7.83,7.83,0,0,1-.23-2c1.59-9.73-1.9-17.78-7.84-25.22-2.67-3.34-4.73-7.17-7.37-11.25H931l10.7,16.81C945.41,209.35,948.9,203.92,952.6,198.18Z"/><path class="cls-1" d="M876.1,204.67H864.28v32.19h-7.07v-32H845.33v-6.48H876.1Z"/><path class="cls-2" d="M36.94,153.18,2.19,132.54,8.64,125l36.93,22Z"/><path class="cls-1" d="M796.49,236.85H790.2V198.41h6.29Z"/><path class="cls-1" d="M1092.9,81.25l-4-5.31c-.36,3.69-.63,6.39-.9,9.09l-1.5-.15V70.72c4-.52,3.74,4.2,6.49,5.69l5.48-6.4,1.16.76V85.25c-4.06-2.16-.87-6.07-3.17-8.6Z"/><path class="cls-1" d="M1077.32,84.92c-2.34-3.35-.25-7.58-1.39-11.41l-4.16-1.22.11-1h11.37l.26,1L1079,73.52V84.58Z"/></g><path class="cls-4" d="M50.51,93.92,2.33,66.1A19.67,19.67,0,0,0,.25,75.27c0,7,.16,14,0,21C0,104.08,3.33,109.39,10,113.36,43,132.88,75.75,152.6,108.6,172.24c1.39.83,2.85,1.56,4.28,2.33V131l-.18.09Z"/><path class="cls-5" d="M183.72,89l-4.05,2.6L216,113.13c6.14-3.17,9.09-7.78,9.11-14.23,0-7.66-.32-15.34.09-23a19.1,19.1,0,0,0-1.79-9.82Z"/><path class="cls-5" d="M154.52,149.73l-36.21-21.58L112.88,131v43.56Z"/><path class="cls-5" d="M102.5,3.15q-18.57,11-37.1,22.12L9.9,58.38A19.37,19.37,0,0,0,2.33,66.1L50.51,93.92,36.82,85.73,92.67,52.45l20-11.91.22.12V0A20.37,20.37,0,0,0,102.5,3.15Z"/><path class="cls-4" d="M223.37,66.1c-1.69-3.37-4.54-6.09-8.54-8.44Q187.49,41.6,160.28,25.28q-18.4-11-36.77-22.08A20.26,20.26,0,0,0,112.88,0V40.66l31.75,18.91,44.06,26.22-5,3.21Z"/></g></g></svg>