<svg xmlns="http://www.w3.org/2000/svg" width="494.29" height="84.78" viewBox="0 0 494.29 84.78"><defs><style>.cls-1{fill:#fff;fill-rule:evenodd;}</style></defs><title>Asset 2</title><g id="Layer_2" data-name="Layer 2"><g id="Layer_1-2" data-name="Layer 1"><g id="FINAL"><g id="sentinelone_newlogo_onwhite_narrow" data-name="sentinelone newlogo onwhite narrow"><g id="Group"><path id="icon" class="cls-1" d="M28.26,68.33V0H39.71V68.33ZM42.42,84.78V13.65a28.15,28.15,0,0,1,11.39,5V77.75Zm-28.28-7v-59a28.15,28.15,0,0,1,11.39-5V84.78ZM56.57,3.36S68,17.22,68,27.19v34.5A13.5,13.5,0,0,1,61.88,73.2l-5.31,3.28ZM0,61.69V27.19c0-10,11.39-23.83,11.39-23.83V76.48L6.07,73.2A13.5,13.5,0,0,1,0,61.69Z"/><path id="text" class="cls-1" d="M110.74,26.37a9.1,9.1,0,0,0-5.91,1.84,6.44,6.44,0,0,0-2.28,5.33,6,6,0,0,0,2.71,5.33,18.7,18.7,0,0,0,6.55,2.68c2.57.57,5.13,1.21,7.7,1.94a13.81,13.81,0,0,1,6.55,4.06q2.72,3,2.71,8.4c0,3.63-1.55,6.87-4.63,9.75s-7.22,4.3-12.4,4.3-9.38-1.2-12.61-3.6a11.71,11.71,0,0,1-4.84-10H103a7.46,7.46,0,0,0,2.42,5.15q2.13,1.9,6.27,1.91a9.49,9.49,0,0,0,6.52-2.12,7,7,0,0,0,.92-9.53,8.94,8.94,0,0,0-3.77-2.44,49.13,49.13,0,0,0-5.1-1.45q-2.77-.63-5.59-1.48a23.73,23.73,0,0,1-5.13-2.19,10.22,10.22,0,0,1-3.77-3.91,12.6,12.6,0,0,1-1.46-6.32A12.85,12.85,0,0,1,99,23.72q4.67-3.91,12.11-3.91T123,23.19q4.46,3.39,5,9.82h-9a7.08,7.08,0,0,0-2.43-4.73A8.33,8.33,0,0,0,110.74,26.37Zm40.49,43.77q-8.55,0-13.9-5.5T132,50q0-9.1,5.42-14.58t14-5.47q8.59,0,13.93,5.26T170.68,49a24,24,0,0,1-.29,3.82H140.33a11.08,11.08,0,0,0,3.31,7.73,10.65,10.65,0,0,0,7.59,2.86q6.61,0,9.33-5.44h8.76a17.42,17.42,0,0,1-6.48,8.79A19.23,19.23,0,0,1,151.23,70.14Zm11-22.87A10.1,10.1,0,0,0,159,39.61a10.88,10.88,0,0,0-7.62-2.86,10.52,10.52,0,0,0-7.52,2.86,11.5,11.5,0,0,0-3.45,7.66Zm20.89-16.66v6.14Q187,30,195.63,30a14.67,14.67,0,0,1,10.93,4.38q4.32,4.38,4.31,12.21v23h-8.05V47.76c0-3.48-.87-6.15-2.63-8A9.44,9.44,0,0,0,193,37a9.54,9.54,0,0,0-7.23,2.79q-2.67,2.79-2.67,8V69.51H175V30.61Zm49.26,6.56H222.8V58.71a4.16,4.16,0,0,0,1,3.14,5.22,5.22,0,0,0,3.53.95h5v6.71h-6.41q-11.34,0-11.33-10.8V24.35l8.19-3.41v9.67h9.55Zm5.89,32.34V30.61h8.12v38.9Zm23.24-38.9v6.14Q265.4,30,274,30A14.67,14.67,0,0,1,285,34.35q4.32,4.38,4.31,12.21v23h-8.05V47.76q0-5.22-2.63-8a9.44,9.44,0,0,0-7.2-2.79,9.54,9.54,0,0,0-7.23,2.79q-2.67,2.79-2.67,8V69.51h-8.12V30.61Zm51,39.53q-8.55,0-13.9-5.5T293.2,50q0-9.1,5.41-14.58t14-5.47q8.59,0,13.93,5.26T331.89,49a24,24,0,0,1-.29,3.82H301.54a11,11,0,0,0,3.31,7.73,10.65,10.65,0,0,0,7.59,2.86q6.62,0,9.33-5.44h8.76a17.48,17.48,0,0,1-6.48,8.79A19.23,19.23,0,0,1,312.44,70.14Zm11-22.87a10.1,10.1,0,0,0-3.21-7.66,10.88,10.88,0,0,0-7.62-2.86,10.52,10.52,0,0,0-7.52,2.86,11.5,11.5,0,0,0-3.45,7.66Zm12.77,22.24V16.41L344.3,13V69.51Zm39.11-49.69A24.28,24.28,0,0,1,387.71,23a22.21,22.21,0,0,1,8.61,8.92,26.94,26.94,0,0,1,3.1,13,26.94,26.94,0,0,1-3.1,13,22.48,22.48,0,0,1-8.61,9,25.54,25.54,0,0,1-24.83,0,22.78,22.78,0,0,1-8.65-9,26.73,26.73,0,0,1-3.13-13,26.73,26.73,0,0,1,3.13-13A22.51,22.51,0,0,1,362.88,23,24.27,24.27,0,0,1,375.29,19.82Zm0,2.87a20.88,20.88,0,0,0-10.63,2.73,19.42,19.42,0,0,0-7.47,7.77A24.21,24.21,0,0,0,354.45,45a24.21,24.21,0,0,0,2.74,11.76,19.46,19.46,0,0,0,7.47,7.76,22,22,0,0,0,21.24,0,19.4,19.4,0,0,0,7.5-7.76A24.21,24.21,0,0,0,396.14,45a24.21,24.21,0,0,0-2.74-11.76,19.36,19.36,0,0,0-7.5-7.77A21,21,0,0,0,375.29,22.69ZM423.48,30a15.17,15.17,0,0,1,11.11,4.2q4.26,4.2,4.26,12.38V68.73h-3.2V46.68q0-6.85-3.48-10.46t-9.54-3.6a13.23,13.23,0,0,0-10.07,4q-3.81,4-3.8,11.86V68.73h-3.21v-38h3.21v10a13.49,13.49,0,0,1,5.44-8.05A16.11,16.11,0,0,1,423.48,30Zm39.58,36.6a16.25,16.25,0,0,0,9.82-2.9,11.91,11.91,0,0,0,4.84-7.95h3.35a15.4,15.4,0,0,1-5.8,9.8q-4.74,3.7-12.06,3.71a19.77,19.77,0,0,1-9.72-2.34,16.78,16.78,0,0,1-6.65-6.76,21.38,21.38,0,0,1-2.42-10.43,21.22,21.22,0,0,1,2.42-10.35,16.78,16.78,0,0,1,6.65-6.76,19.77,19.77,0,0,1,9.72-2.34,19.26,19.26,0,0,1,9.71,2.34,15.93,15.93,0,0,1,6.19,6.16,16.63,16.63,0,0,1,2.1,8.15,20.49,20.49,0,0,1-.36,3.71H447.62a17.52,17.52,0,0,0,2.25,8.93,13.59,13.59,0,0,0,5.62,5.32A16.8,16.8,0,0,0,463.06,66.56Zm.15-33.73a16.88,16.88,0,0,0-7.69,1.75,13.73,13.73,0,0,0-5.65,5.32,17.12,17.12,0,0,0-2.25,8.81h30.46a15.74,15.74,0,0,0-1.78-8.85,13,13,0,0,0-5.55-5.32A16.88,16.88,0,0,0,463.21,32.83Zm31.08-2.62v6.2H493.1V32.15l-1.8,4.26h-.87l-1.79-4.33v4.33h-1.15v-6.2H489l1.91,4.66,1.94-4.66Zm-11.8,1v-1h3.9v1H485l0,5.23h-1.24V31.18Z"/></g></g></g></g></g></svg>