<?xml version="1.0" encoding="utf-8"?>
<!-- Generator: Adobe Illustrator 19.2.1, SVG Export Plug-In . SVG Version: 6.00 Build 0)  -->
<svg version="1.1" id="Layer_1" xmlns="http://www.w3.org/2000/svg" xmlns:xlink="http://www.w3.org/1999/xlink" x="0px" y="0px"
	 viewBox="0 0 202 62" style="enable-background:new 0 0 202 62;" xml:space="preserve">
<style type="text/css">
	.st0{fill:#FFFFFF;}
</style>
<g>
	<g>
		<path class="st0" d="M199.1,21.7c0,1.6-1.3,2.9-3,2.9c-1.7,0-3-1.3-3-2.9c0-1.6,1.3-2.9,3-2.9C197.8,18.8,199.1,20.1,199.1,21.7z
			 M193.9,21.7c0,1.3,0.9,2.3,2.2,2.3c1.3,0,2.2-1,2.2-2.3c0-1.3-0.9-2.3-2.2-2.3C194.9,19.4,193.9,20.4,193.9,21.7z M195.7,23.2
			H195v-2.9c0.3-0.1,0.6-0.1,1.1-0.1c0.5,0,0.8,0.1,1,0.2c0.2,0.1,0.3,0.4,0.3,0.6c0,0.3-0.2,0.6-0.6,0.7v0c0.3,0.1,0.4,0.3,0.5,0.7
			c0.1,0.4,0.1,0.6,0.2,0.7h-0.7c-0.1-0.1-0.1-0.4-0.2-0.7c-0.1-0.3-0.2-0.5-0.6-0.5h-0.3V23.2z M195.7,21.6h0.3
			c0.4,0,0.7-0.1,0.7-0.4c0-0.3-0.2-0.4-0.6-0.4c-0.2,0-0.3,0-0.4,0V21.6z"/>
	</g>
	<g>
		<g>
			<path class="st0" d="M70.8,25.9h-4l0.4-2.5h7l-0.8,4.5c2.2-2.6,5.3-5.1,8.5-5.1c2,0,3.4,1,3.4,3.4c0,1-0.3,2.2-0.7,3.3l-2.7-0.2
				c0.3-0.8,0.5-1.7,0.5-2.4c0-1-0.5-1.4-1.4-1.4c-3.1,0-6.9,4.1-8,5.3l-2.6,14.7h-3L70.8,25.9z"/>
			<path class="st0" d="M86.1,36.1c0-7.9,5.5-13.3,11.7-13.3c3.8,0,6.3,2.1,7.4,5l0.8-4.5h3.1l-3.1,17.8c-0.3,1.6,0.2,2.5,1.7,2.5
				c1.1,0,2.4-0.5,3.1-0.8l-0.4,2.6c-1,0.4-2.3,0.7-3.5,0.7c-2.7,0-4.1-1.6-3.8-4.4c-2,2.6-4.9,4.4-8.4,4.4
				C89.9,46.2,86.1,42.6,86.1,36.1z M104.5,32.7c0-4.4-2.1-7.4-6.2-7.4c-5,0-9,4.6-9,10.7c0,4.8,2.5,7.7,6.2,7.7
				C100.7,43.7,104.5,38.5,104.5,32.7z"/>
			<path class="st0" d="M113.7,36.1c0-7.9,5.5-13.3,11.7-13.3c3.8,0,6.3,2.1,7.4,5.1l3-16.8h-4.8l0.5-2.5h7.9l-5.8,32.6
				c-0.3,1.6,0.2,2.5,1.7,2.5c1.1,0,2.4-0.5,3.1-0.8l-0.4,2.6c-1,0.4-2.3,0.7-3.5,0.7c-2.8,0-4-1.7-3.8-4.4c-2,2.6-4.9,4.4-8.4,4.4
				C117.4,46.2,113.7,42.6,113.7,36.1z M132.1,32.7c0-4.4-2.1-7.4-6.2-7.4c-5,0-9,4.6-9,10.7c0,4.8,2.5,7.7,6.2,7.7
				C128.2,43.7,132.1,38.5,132.1,32.7z"/>
			<path class="st0" d="M141.3,36.1c0-7.9,5.5-13.3,11.7-13.3c3.8,0,6.3,2.1,7.4,5l0.8-4.5h3.1l-3.1,17.8c-0.3,1.6,0.2,2.5,1.7,2.5
				c1.1,0,2.4-0.5,3.1-0.8l-0.4,2.6c-1,0.4-2.3,0.7-3.5,0.7c-2.7,0-4.1-1.6-3.8-4.4c-2,2.6-4.9,4.4-8.4,4.4
				C145,46.2,141.3,42.6,141.3,36.1z M159.6,32.7c0-4.4-2.1-7.4-6.2-7.4c-5,0-9,4.6-9,10.7c0,4.8,2.5,7.7,6.2,7.7
				C155.8,43.7,159.6,38.5,159.6,32.7z"/>
			<path class="st0" d="M173.3,25.9h-4l0.4-2.5h7l-0.8,4.5c2.2-2.6,5.3-5.1,8.5-5.1c2,0,3.4,1,3.4,3.4c0,1-0.3,2.2-0.7,3.3l-2.7-0.2
				c0.3-0.8,0.5-1.7,0.5-2.4c0-1-0.5-1.4-1.4-1.4c-3.1,0-6.9,4.1-8,5.3l-2.6,14.7h-3L173.3,25.9z"/>
		</g>
		<path class="st0" d="M30.8,1.9C14.9,1.9,2,14.8,2,30.8c0,15.9,12.9,28.8,28.8,28.8c15.9,0,28.8-12.9,28.8-28.8
			C59.7,14.8,46.8,1.9,30.8,1.9z M38.6,30.8c0,4.3-3.5,7.7-7.7,7.7s-7.7-3.5-7.7-7.7c0-4.3,3.5-7.7,7.7-7.7c0.9,0,1.7,0.1,2.5,0.4
			l-1.6,4.7c-0.3-0.1-0.6-0.2-0.9-0.2c-1.5,0-2.8,1.2-2.8,2.8c0,1.5,1.2,2.8,2.8,2.8c1.5,0,2.8-1.2,2.8-2.8c0-0.1,0-0.2,0-0.3
			l4.9-0.9C38.5,29.9,38.6,30.4,38.6,30.8z M30.8,45.7C22.6,45.7,16,39,16,30.8c0-8.2,6.7-14.9,14.9-14.9c1.7,0,3.3,0.3,4.8,0.8
			l-1.8,5.4c-0.9-0.3-1.9-0.5-3-0.5c-5.1,0-9.2,4.1-9.2,9.2c0,5.1,4.1,9.2,9.2,9.2s9.2-4.1,9.2-9.2c0-0.5,0-1-0.1-1.5l5.6-1.1
			c0.1,0.8,0.2,1.7,0.2,2.6C45.7,39,39.1,45.7,30.8,45.7z"/>
		<g>
			<path class="st0" d="M199.1,21.7c0,1.6-1.3,2.9-3,2.9c-1.7,0-3-1.3-3-2.9c0-1.6,1.3-2.9,3-2.9C197.8,18.8,199.1,20.1,199.1,21.7z
				 M193.9,21.7c0,1.3,0.9,2.3,2.2,2.3c1.3,0,2.2-1,2.2-2.3c0-1.3-0.9-2.3-2.2-2.3C194.9,19.4,193.9,20.4,193.9,21.7z M195.7,23.2
				H195v-2.9c0.3-0.1,0.6-0.1,1.1-0.1c0.5,0,0.8,0.1,1,0.2c0.2,0.1,0.3,0.4,0.3,0.6c0,0.3-0.2,0.6-0.6,0.7v0
				c0.3,0.1,0.4,0.3,0.5,0.7c0.1,0.4,0.1,0.6,0.2,0.7h-0.7c-0.1-0.1-0.1-0.4-0.2-0.7c-0.1-0.3-0.2-0.5-0.6-0.5h-0.3V23.2z
				 M195.7,21.6h0.3c0.4,0,0.7-0.1,0.7-0.4c0-0.3-0.2-0.4-0.6-0.4c-0.2,0-0.3,0-0.4,0V21.6z"/>
		</g>
	</g>
</g>
</svg>
