<svg id="Navy" xmlns="http://www.w3.org/2000/svg" x="0px" y="0px" width="455px" height="100px" viewBox="0 0 455 100"><defs><style>.cls-1,.cls-3{opacity:0.9;}.cls-2,.cls-3{fill:#043d5d;}.cls-4,.cls-5{fill:#003f5b;}.cls-4{opacity:0.49;}.cls-5{opacity:0.2;}</style></defs><g class="cls-1"><path class="cls-2" d="M304.86,50.1l4.36-.21c11.71-.36,12.5-8.09,12.8-10.34,1.16-8.32-4.34-12.09-11.16-12.2l-11.64-.05-8-6.86,19.31.06c15.1-.1,21,9.11,19.84,17.83a17.84,17.84,0,0,1-12.21,16l22.32,26.17H330.21Z"/><path class="cls-2" d="M221.66,20,199.8,80H189.15L167.29,20h8.55l18.84,52.84L213.51,20Z"/><path class="cls-2" d="M283.76,80h-8V28.28l-16.7,35.21h-4.75L237.74,28.28V80h-7.46V20h10.89l16,33.44L272.67,20h11.09Z"/><path class="cls-2" d="M401.31,80.49H392.8l-5.89-16.74h-26l-5.89,16.74h-8.11l21.86-60h10.65ZM384.45,56.9,373.92,27.41,363.36,56.9Z"/><path class="cls-2" d="M447,20.44,425.87,54.15V80.49h-8V55L396.66,20.44h8.84L421.91,47.3l16.58-26.86Z"/></g><polygon class="cls-3" points="98.43 1.72 78.65 39.4 58.87 1.72 98.43 1.72"/><polygon class="cls-3" points="43.32 31.4 63.58 68.6 48.03 98.28 8 98.28 43.32 31.4"/><polygon class="cls-3" points="113.98 31.4 93.72 68.6 109.27 98.28 149.29 98.28 113.98 31.4"/><polygon class="cls-4" points="48.03 98.28 78.65 98.28 63.58 68.6 48.03 98.28"/><polygon class="cls-4" points="78.65 98.28 109.26 98.28 93.73 68.6 78.65 98.28"/><polygon class="cls-4" points="43.32 31.4 63.58 68.6 78.65 39.4 58.87 1.72 43.32 31.4"/><polygon class="cls-4" points="113.97 31.4 93.72 68.6 78.65 39.4 98.43 1.72 113.97 31.4"/><polygon class="cls-5" points="78.65 39.4 63.58 68.6 78.65 98.28 93.72 68.6 78.65 39.4"/><polygon class="cls-3" points="58.87 1.72 27.78 1.72 43.32 31.4 58.87 1.72"/><polygon class="cls-3" points="129.51 1.72 98.43 1.72 113.97 31.4 129.51 1.72"/></svg>