<svg xmlns="http://www.w3.org/2000/svg" x="0px" y="0px" width="455px" height="100px" viewBox="0 0 455 100"><defs><style>.cls-1,.cls-3{fill:#fff;}.cls-1{opacity:0.5;}.cls-2{opacity:0.9;}</style></defs><g id="Light"><g id="web"><polygon class="cls-1" points="8 98 58.89 2.04 109.32 97.95 8 98"/><polygon class="cls-1" points="47.45 98 98.34 2.04 148.77 97.95 47.45 98"/><polygon class="cls-1" points="27.72 2 78.25 97.98 129.16 2 27.72 2"/></g><g class="cls-2"><path class="cls-3" d="M306.35,49.65l4.31-.21c11.59-.36,12.37-8,12.67-10.23,1.15-8.23-4.29-12-11-12.08l-11.52,0-7.91-6.79,19.11.06c14.94-.1,20.81,9,19.63,17.65a17.63,17.63,0,0,1-12.08,15.81l22.09,25.9H331.44Z"/><path class="cls-3" d="M222.13,20.3,200.5,79.72H190L168.33,20.3h8.46l18.64,52.28L214.07,20.3Z"/><path class="cls-3" d="M285.47,79.72h-7.9V28.52L261,63.36h-4.71l-16.4-34.84v51.2h-7.38V20.3h10.77l15.85,33.08L274.49,20.3h11Z"/><path class="cls-3" d="M401.79,79.72h-8.42l-5.83-16.56h-25.7L356,79.72h-8L369.62,20.3h10.54ZM385.11,56.38,374.69,27.2,364.23,56.38Z"/><path class="cls-3" d="M447,20.3,426.09,53.66V79.72h-7.91V54.5l-21-34.2h8.74l16.25,26.58,16.4-26.58Z"/></g></g></svg>