<?xml version="1.0" encoding="UTF-8"?>
<svg width="120px" height="80px" viewBox="0 0 120 80" version="1.1" xmlns="http://www.w3.org/2000/svg" xmlns:xlink="http://www.w3.org/1999/xlink">
    <!-- Generator: Sketch 55.1 (78136) - https://sketchapp.com -->
    <title>Artboard</title>
    <desc>Created with Sketch.</desc>
    <g id="Artboard" stroke="none" stroke-width="1" fill="none" fill-rule="evenodd">
        <g id="Product-Icon-/-02-B2B-/-01-64-/-Inverted-/-Threat-Lookup-" transform="translate(28.000000, 8.000000)">
            <path d="M32,1.15175111 L5,16.5803225 L5,47.4196775 L32,62.8482489 L59,47.4196775 L59,16.5803225 L32,1.15175111 Z" id="Fill-3-Copy-21" stroke="#009982" stroke-width="2"></path>
            <path d="M19.0505177,31.15398 C19.0170755,30.7737808 19,30.3888845 19,30 C19,29.38291 19.0429961,28.7758623 19.126156,28.1816893 C19.0844611,28.1791199 19.0420161,28.1778308 18.9988571,28.1778308 L18.288,28.1778308 L18.288,31.1545964 L18.9988571,31.1545964 C19.016196,31.1545964 19.0334169,31.1543908 19.0505177,31.15398 Z M19.202333,27.7027794 C19.3489432,26.8805203 19.5728586,26.0850253 19.8662944,25.324079 L19.7868571,25.0946902 L18.3217143,25.0946902 L17.9297143,26.2266589 L17.3731429,26.2266589 L18.768,22.2902058 L19.3462857,22.2902058 L20.1673425,24.6082756 C22.2159892,20.1195707 26.7436872,17 32,17 C37.0233507,17 41.3812404,19.849177 43.5458103,24.019672 L44.7737143,22.2907839 L45.3914286,22.2907839 L45.3914286,24.7096589 L45.92,24.7096589 L45.92,25.172737 L45.3914286,25.172737 L45.3914286,26.2266589 L44.8565714,26.2266589 L44.8565714,25.172737 L44.0742476,25.172737 C44.4032887,25.9950126 44.6507668,26.8587376 44.8066776,27.7539078 C45.1916839,27.9323143 45.4354286,28.2928203 45.4354286,28.7623152 C45.4354286,29.17026 45.250641,29.4694844 44.9969624,29.716148 C44.998984,29.8105212 45,29.9051419 45,30 C45,30.3887004 44.9829407,30.7734164 44.9495298,31.1534402 L45.496,31.1534402 L45.496,31.6332839 L44.898387,31.6332839 C44.8369087,32.1237375 44.7481079,32.6056944 44.6335567,33.0775827 C44.7400104,33.0553185 44.8565859,33.0433308 44.9834286,33.0433308 C45.7057143,33.0433308 46.2074286,33.456112 46.2074286,34.0920495 C46.2074286,34.5880808 45.8542857,35.0060652 45.7382857,35.1234245 C46.0417143,35.3072683 46.2674286,35.5523933 46.2674286,35.9593933 C46.2674286,36.5727839 45.7497143,37.1133308 44.9342857,37.1133308 C44.168,37.1133308 43.584,36.6115183 43.584,35.925862 C43.584,35.9191507 43.5840599,35.9124683 43.5841787,35.9058149 C41.8725259,39.2564983 38.7498509,41.7664661 34.9996539,42.6522181 L34.9954866,51.1287983 L31.9997179,53 L29,51.1263571 L29.0041657,42.6531196 C24.564865,41.606034 21.004318,38.2831324 19.6217143,33.9836043 L19.6217143,35.5298464 L20.1502857,35.5298464 L20.1502857,35.9923464 L19.6217143,35.9923464 L19.6217143,37.0462683 L19.0868571,37.0462683 L19.0868571,35.9923464 L17.2022857,35.9923464 L17.2022857,35.6472058 L19.004,33.1103933 L19.3744536,33.1103933 C19.256059,32.6281796 19.1645694,32.1353929 19.1016671,31.6337155 C19.0802949,31.6341982 19.0587861,31.6344402 19.0371429,31.6344402 L17.7422857,31.6344402 L17.7422857,27.697987 L19.0371429,27.697987 C19.0931182,27.697987 19.1481949,27.6995914 19.202333,27.7027794 Z M21.0044851,29.6828164 C21.0042401,29.7149245 21.0034742,29.7466824 21.0021939,29.7780865 C21.0007336,29.8518817 21,29.9258552 21,30 C21,33.2402417 22.4009992,36.1532624 24.6302857,38.1663502 L24.6302857,35.2575495 C24.6302857,35.0904714 24.6377143,34.9309089 24.6377143,34.9309089 L24.6222857,34.9309089 C24.6222857,34.9309089 24.5622857,35.0447995 24.3674286,35.2425183 L23.872,35.7287214 L23.4217143,35.2575495 L24.6897143,34.0116902 L25.3508571,34.0116902 L25.3508571,38.7210964 L26.5142857,38.7210964 L26.5142857,39.3743777 L26.2419518,39.3743777 C27.9168255,40.4053339 29.8889669,41 32,41 C32.0008545,41 32.001709,41 32.0025634,41.0000001 C34.1069754,40.9995198 36.0732871,40.408099 37.7445831,39.3826526 C37.3333048,39.2716195 36.9442917,39.051544 36.6428571,38.7361277 L37.048,38.1666745 C37.3337143,38.4782839 37.8217143,38.751737 38.332,38.751737 C38.4858603,38.751737 38.6335573,38.7238769 38.7676943,38.6723186 C38.9465672,38.5325318 39.1210046,38.3873316 39.29076,38.2369643 C39.3687126,38.1015943 39.4131429,37.9444986 39.4131429,37.7718152 C39.4131429,37.1110183 38.8348571,36.7843777 38.1742857,36.7843777 L37.8142857,36.7843777 L37.6411429,36.3820027 L38.7977143,35.0072214 C38.9628571,34.7944714 39.128,34.6574558 39.128,34.6574558 L39.128,34.6424245 C39.128,34.6424245 38.9697143,34.6649714 38.6777143,34.6649714 L36.8828571,34.6649714 L36.8828571,34.0116902 L40.0514286,34.0116902 L40.0514286,34.4903777 L38.6097143,36.1767683 C39.2273555,36.2371085 39.9679388,36.6004906 40.1307597,37.4089379 C41.9131452,35.4540233 43,32.8539359 43,30 C43,27.2240363 41.9717217,24.6882399 40.2752836,22.7527292 C40.2340645,22.8015927 40.1981591,22.8402284 40.1714286,22.8671745 C40.5845714,23.1180808 40.892,23.452237 40.892,24.0066589 C40.892,24.8420495 40.1868571,25.5791589 39.0754286,25.5791589 C38.032,25.5791589 37.2365714,24.895237 37.2365714,23.960987 C37.2365714,23.1487214 37.8817143,22.6469089 38.0845714,22.5104714 C37.7388571,22.2676589 37.4908571,21.9410183 37.4908571,21.4548152 C37.4908571,21.1555404 37.5788374,20.8651286 37.7582017,20.6257169 C36.083295,19.5947024 34.1110976,19 32,19 C29.7004924,19 27.5657843,19.7055906 25.8005714,20.9120762 L25.8005714,23.4221745 L26.5217143,23.4221745 L26.5217143,24.0523308 L25.8005714,24.0523308 L25.8005714,25.4878152 L25.0725714,25.4878152 L25.0725714,24.0523308 L22.745021,24.0523308 C21.694178,25.6841373 21.0631248,27.6118404 21.0044851,29.6828164 Z M44.459305,33.7221689 C44.4146655,33.8718108 44.3674036,34.020322 44.3175727,34.1676492 C44.3775123,34.5532165 44.8655532,34.7076315 45.32,34.9112527 C45.4022857,34.8222214 45.6725714,34.5210183 45.6725714,34.1365652 C45.6725714,33.7630964 45.3857143,33.5399402 44.9725714,33.5399402 C44.7449537,33.5399402 44.5713702,33.6103929 44.459305,33.7221689 Z M44.0953318,34.7742341 C44.0598121,34.8641482 44.0233188,34.9535713 43.9858649,35.0424905 C44.0755495,34.9546138 44.1583617,34.8936649 44.2068571,34.8609558 C44.1678469,34.8335775 44.1305389,34.8047368 44.0953318,34.7742341 Z M43.7580675,24.4477614 C43.799116,24.5345376 43.8392322,24.6218411 43.8784031,24.7096589 L44.8565714,24.7096589 L44.8565714,23.271862 C44.8565714,23.0874402 44.8782857,22.8758464 44.8782857,22.8758464 L44.868,22.8758464 C44.868,22.8758464 44.7794286,23.0654714 44.6748571,23.2047995 L43.7580675,24.4477614 Z M25.0725802,21.4548992 C24.7401392,21.7247375 24.4237524,22.013585 24.125075,22.3197868 L23.3234286,23.4071433 L23.3234286,23.4221745 L25.0725714,23.4221745 L25.0725714,21.4623308 C25.0725714,21.4598572 25.0725744,21.4573799 25.0725802,21.4548992 Z M38.3671048,21.028974 C38.2752197,21.1497428 38.2274286,21.2966108 38.2274286,21.4548152 C38.2274286,22.0624245 38.9405714,22.2826902 39.6011429,22.5786902 C39.6488725,22.526952 39.7430942,22.4227173 39.835514,22.279588 C39.3840491,21.8214346 38.8927035,21.4026874 38.3671048,21.028974 Z M14.0165714,31.3326589 C14.0165714,29.9335964 15.9291429,29.7272058 15.9291429,28.8016277 C15.9291429,28.4171745 15.6365714,28.1495027 15.2234286,28.1495027 C14.8982857,28.1495027 14.6005714,28.3668777 14.4354286,28.6513152 L14.0331429,28.377862 C14.2537143,27.9656589 14.6948571,27.6309245 15.2674286,27.6309245 C15.9788571,27.6309245 16.4908571,28.0824402 16.4908571,28.7628933 C16.4908571,30.0561589 14.6337143,30.2567683 14.612,31.1540183 L16.552,31.1540183 L16.552,31.633862 L14.0445714,31.633862 C14.028,31.5280652 14.0165714,31.4274714 14.0165714,31.3326589 Z M14.028,36.5670027 L14.8874286,36.5670027 L14.8874286,34.024987 C14.8874286,33.9024245 14.8931429,33.7850652 14.8931429,33.7850652 L14.8817143,33.7850652 C14.8817143,33.7850652 14.8382857,33.8688933 14.6948571,34.0134245 L14.3308571,34.3707058 L14,34.024987 L14.9314286,33.1103933 L15.4165714,33.1103933 L15.4165714,36.5670027 L16.2708571,36.5670027 L16.2708571,37.0468464 L14.028,37.0468464 L14.028,36.5670027 Z M19.0868571,35.5298464 L19.0868571,34.0914714 C19.0868571,33.9076277 19.1091429,33.6954558 19.1091429,33.6954558 L19.0982857,33.6954558 C19.0982857,33.6954558 19.0097143,33.8850808 18.9051429,34.0244089 L17.8028571,35.518862 L17.8028571,35.5298464 L19.0868571,35.5298464 Z M44.9285714,36.6172995 C45.3417143,36.6172995 45.7108571,36.3496277 45.7108571,35.9484089 C45.7108571,35.5020964 45.1211429,35.3460027 44.6142857,35.1008777 C44.488,35.1899089 44.1405714,35.4517995 44.1405714,35.8813464 C44.1405714,36.3218777 44.5262857,36.6172995 44.9285714,36.6172995 Z M47.5845714,33.1103933 L49.7285714,33.1103933 L49.7285714,33.5896589 L48.1302857,33.5896589 L48.1302857,34.8887058 L49.4914286,34.8887058 L49.4914286,35.3679714 L48.1302857,35.3679714 L48.1302857,37.0462683 L47.5845714,37.0462683 L47.5845714,33.1103933 Z M14.2257143,22.2902058 L16.4908571,22.2902058 L16.4908571,22.7694714 L14.7714286,22.7694714 L14.7714286,24.0020339 L16.1657143,24.0020339 L16.1657143,24.4812995 L14.7714286,24.4812995 L14.7714286,25.7468152 L16.5845714,25.7468152 L16.5845714,26.2266589 L14.2257143,26.2266589 L14.2257143,22.2902058 Z M19.644,24.6373933 L19.2137143,23.3944245 C19.148,23.1880339 19.06,22.8307527 19.06,22.8307527 L19.0485714,22.8307527 C19.0485714,22.8307527 18.9657143,23.1880339 18.8994286,23.3944245 L18.4645714,24.6373933 L19.644,24.6373933 Z M49.0177143,23.817612 C49.0177143,23.3048152 48.6314286,22.730737 48.136,22.730737 C47.6897143,22.730737 47.4251429,23.0764558 47.4251429,23.5389558 C47.4251429,24.0182214 47.7222857,24.3702995 48.2188571,24.3702995 C48.6594286,24.3702995 49.0177143,24.0968464 49.0177143,23.817612 Z M47.2542857,25.6520027 C47.3862857,25.7196433 47.6011429,25.7855495 47.8108571,25.7855495 C48.5274286,25.7855495 48.896,25.117237 48.9788571,24.4645339 L48.968,24.4645339 C48.808,24.6876902 48.4497143,24.8322214 48.108,24.8322214 C47.3697143,24.8322214 46.8794286,24.2691277 46.8794286,23.5389558 C46.8794286,22.7642683 47.4028571,22.2231433 48.1302857,22.2231433 C48.9622857,22.2231433 49.5851429,22.9533152 49.5851429,24.0795027 C49.5851429,25.0889089 49.0394286,26.2937214 47.8325714,26.2937214 C47.5845714,26.2937214 47.3148571,26.2492058 47.0777143,26.1312683 L47.2542857,25.6520027 Z M48.2074286,27.6303464 C48.7085714,27.6303464 49.2542857,27.7870183 49.6291429,28.1489245 L49.3537143,28.5617058 C49.0668571,28.3050183 48.6314286,28.1321589 48.2291429,28.1321589 C47.3257143,28.1321589 46.7908571,28.8068308 46.7908571,29.6375964 C46.7908571,30.4735652 47.3371429,31.1933308 48.2405714,31.1933308 C48.6754286,31.1933308 49.1222857,30.9979245 49.436,30.6799558 L49.728,31.0759714 C49.3977143,31.4107058 48.9125714,31.7003464 48.224,31.7003464 C47.0171429,31.7003464 46.2291429,30.7973152 46.2291429,29.6427995 C46.2291429,28.5004245 47.0502857,27.6303464 48.2074286,27.6303464 Z M24.6594286,29.5277527 C24.6594286,28.5911902 24.5,27.8488777 23.9491429,27.8488777 C23.3988571,27.8488777 23.2394286,28.5911902 23.2394286,29.5277527 C23.2394286,30.4724089 23.3988571,31.231487 23.9491429,31.231487 C24.5,31.231487 24.6594286,30.4724089 24.6594286,29.5277527 Z M21.8034286,29.5277527 C21.8034286,27.8731589 22.3297143,26.5573464 23.9491429,26.5573464 C25.5691429,26.5573464 26.0954286,27.8731589 26.0954286,29.5277527 C26.0954286,31.1829245 25.5691429,32.5224402 23.9491429,32.5224402 C22.3297143,32.5224402 21.8034286,31.1829245 21.8034286,29.5277527 Z M29.4302857,28.9952995 C29.4302857,28.3090652 28.9514286,27.8488777 28.5525714,27.8488777 C28.2017143,27.8488777 27.9782857,28.155862 27.9782857,28.4946433 C27.9782857,28.9062683 28.2257143,29.3421745 28.84,29.3421745 C29.1588571,29.3421745 29.4302857,29.261237 29.4302857,28.9952995 Z M27.26,31.0615183 C27.4834286,31.1586433 27.7628571,31.2309089 28.0417143,31.2309089 C28.712,31.2309089 29.0948571,30.8111902 29.2708571,30.278737 L29.2542857,30.278737 C29.1274286,30.3833777 28.744,30.4805027 28.4725714,30.4805027 C27.284,30.4805027 26.6062857,29.4953777 26.6062857,28.502737 C26.6062857,27.5262839 27.316,26.5573464 28.5525714,26.5573464 C29.7017143,26.5573464 30.8662857,27.4372527 30.8662857,29.3178933 C30.8662857,30.8840339 29.9171429,32.5224402 28.1457143,32.5224402 C27.7228571,32.5224402 27.268,32.4576902 26.8851429,32.272112 L27.26,31.0615183 Z M33.7937143,30.6741745 C34.0805714,30.9568777 34.5274286,31.1910183 34.9657143,31.1910183 C35.4851429,31.1910183 35.78,30.9325964 35.78,30.6175183 C35.78,30.1660027 35.3331429,29.9798464 34.7188571,29.9798464 L34.32,29.9798464 L34.0245714,29.2941902 L34.7748571,28.3819089 C35.0457143,28.0506433 35.2697143,27.841362 35.2697143,27.841362 L35.2697143,27.8251745 C35.2697143,27.8251745 35.0857143,27.8656433 34.7274286,27.8656433 L33.3622857,27.8656433 L33.3622857,26.6544714 L36.9611429,26.6544714 L36.9611429,27.5343777 L35.8045714,28.881987 C36.6491429,29.0681433 37.184,29.7462839 37.184,30.5533464 C37.184,31.5378933 36.4977143,32.5224402 35.0691429,32.5224402 C34.3834286,32.5224402 33.6342857,32.2882995 33.1234286,31.7639402 L33.7937143,30.6741745 Z M40.1914286,31.2152995 C40.5988571,31.2152995 40.7982857,30.9320183 40.7982857,30.6100027 C40.7982857,30.2874089 40.6068571,30.0203152 40.2,30.0203152 L39.3537143,30.0203152 L39.3537143,31.2152995 L40.1914286,31.2152995 Z M40.072,28.8906589 C40.4228571,28.8906589 40.5748571,28.6316589 40.5748571,28.3576277 C40.5748571,28.0916902 40.4228571,27.8650652 40.048,27.8650652 L39.3537143,27.8650652 L39.3537143,28.8906589 L40.072,28.8906589 Z M37.9577143,26.6538933 L40.056,26.6538933 C41.1971429,26.6538933 41.9942857,27.170737 41.9942857,28.1633777 C41.9942857,28.6478464 41.7634286,29.140987 41.3325714,29.390737 L41.3325714,29.4069245 C41.9868571,29.6092683 42.2262857,30.1977995 42.2262857,30.7071277 C42.2262857,31.9657058 41.1885714,32.4253152 40.056,32.4253152 L37.9577143,32.4253152 L37.9577143,26.6538933 Z M27.4228571,20.1251277 L30.508,20.1251277 L30.508,20.7784089 L28.1662857,20.7784089 L28.1662857,22.4567058 L30.0657143,22.4567058 L30.0657143,23.109987 L28.1662857,23.109987 L28.1662857,24.8345339 L30.636,24.8345339 L30.636,25.487237 L27.4228571,25.487237 L27.4228571,20.1251277 Z M33.0388571,25.0773464 C33.0388571,23.1712683 35.644,22.8897214 35.644,21.6294089 C35.644,21.1050495 35.2457143,20.7408308 34.6828571,20.7408308 C34.24,20.7408308 33.8348571,21.0368308 33.6091429,21.4241745 L33.0611429,21.051862 C33.3611429,20.4899245 33.9622857,20.0337839 34.7428571,20.0337839 C35.7114286,20.0337839 36.4091429,20.649487 36.4091429,21.5756433 C36.4091429,23.3383464 33.88,23.6112214 33.8497143,24.8345339 L36.492,24.8345339 L36.492,25.487237 L33.076,25.487237 C33.0537143,25.3432839 33.0388571,25.2062683 33.0388571,25.0773464 Z M39.068,24.9027527 C39.6308571,24.9027527 40.1342857,24.5385339 40.1342857,23.9916277 C40.1342857,23.3840183 39.3308571,23.1712683 38.6405714,22.837112 C38.4668571,22.9585183 37.9942857,23.3157995 37.9942857,23.9002839 C37.9942857,24.5003777 38.52,24.9027527 39.068,24.9027527 Z M27.3697143,38.1666745 C27.6554286,38.4782839 28.1434286,38.751737 28.6537143,38.751737 C29.2388571,38.751737 29.7348571,38.3487839 29.7348571,37.7718152 C29.7348571,37.1110183 29.1565714,36.7843777 28.496,36.7843777 L28.136,36.7843777 L27.9628571,36.3820027 L29.1194286,35.0072214 C29.2845714,34.7944714 29.4497143,34.6574558 29.4497143,34.6574558 L29.4497143,34.6424245 C29.4497143,34.6424245 29.2914286,34.6649714 28.9994286,34.6649714 L27.2045714,34.6649714 L27.2045714,34.0116902 L30.3731429,34.0116902 L30.3731429,34.4903777 L28.9314286,36.1767683 C29.6297143,36.244987 30.4851429,36.7005495 30.4851429,37.7486902 C30.4851429,38.6603933 29.772,39.4657214 28.684,39.4657214 C28.0605714,39.4657214 27.4148571,39.2072995 26.9645714,38.7361277 L27.3697143,38.1666745 Z M33.2565714,34.0122683 L36.1765714,34.0122683 L36.1765714,34.6655495 L34,34.6655495 L34,36.4351902 L35.8542857,36.4351902 L35.8542857,37.0884714 L34,37.0884714 L34,39.3743777 L33.2565714,39.3743777 L33.2565714,34.0122683 Z" id="Combined-Shape" fill="#FFFFFF" fill-rule="nonzero"></path>
        </g>
    </g>
</svg>