<?xml version="1.0" encoding="UTF-8"?>
<svg xmlns="http://www.w3.org/2000/svg" class="c928c3" width="56" height="56" viewBox="0 0 56 56"><g fill="none" fill-rule="evenodd"><path stroke="#00A88E" stroke-width="2" d="M25.025 2.852c1.646-.94 4.307-.94 5.95 0h0l17.558 10.033c.82.468 1.55 1.284 2.086 2.206.535.923.881 1.962.881 2.906h0v20.006c0 .942-.346 1.982-.883 2.905-.535.923-1.265 1.74-2.084 2.207h0L30.975 53.148c-1.646.94-4.307.94-5.95 0h0L7.467 43.115c-.82-.468-1.55-1.284-2.086-2.206-.535-.923-.881-1.962-.881-2.906h0V17.997c0-.942.346-1.982.883-2.905.535-.923 1.265-1.74 2.084-2.207h0z"></path><path fill="#000" fill-rule="nonzero" d="M39.197 24.236l.01.049c.336.156.549.471.549.882 0 .356-.16.618-.382.833l.001.25c0 .34-.015.677-.044 1.01h.478v.42h-.523c-.054.43-.132.852-.232 1.265.091-.021.194-.032.306-.032.633 0 1.072.361 1.072.918 0 .434-.31.8-.411.902.265.16.463.375.463.731 0 .537-.453 1.01-1.166 1.01-.671 0-1.182-.439-1.182-1.039l.001-.02c-1.497 2.933-4.23 5.13-7.512 5.906l-.004 7.417L28 46.375l-2.625-1.64.003-7.414c-3.885-.916-7.001-3.825-8.21-7.59l.001 1.358h.462v.404h-.462v.922h-.468v-.922h-1.649v-.302l1.576-2.22.325.001c-.104-.422-.184-.854-.24-1.293l-.056.001h-1.133v-3.444h1.133l.145.003c.128-.718.324-1.414.58-2.079l-.069-.202h-1.281l-.344.99h-.487l1.221-3.444h.506l.718 2.029c1.793-3.928 5.755-6.658 10.354-6.658 4.395 0 8.209 2.493 10.103 6.142l1.074-1.513h.54v2.117h.463v.405h-.462v.922h-.469v-.922h-.684c.282.705.495 1.444.632 2.21zM18.375 26.25c0 2.835 1.226 5.384 3.177 7.146V30.85c0-.146.006-.285.006-.285h-.014s-.052.1-.223.272l-.433.426-.394-.413 1.11-1.09h.578v4.121H23.2v.572h-.239c1.466.902 3.192 1.422 5.039 1.422 1.842 0 3.564-.518 5.027-1.415-.36-.098-.7-.29-.965-.566l.355-.498c.25.272.677.512 1.123.512.136 0 .266-.025.384-.07.156-.123.307-.25.455-.38.069-.12.108-.257.108-.408 0-.578-.507-.864-1.084-.864h-.316l-.151-.352 1.012-1.203c.145-.186.289-.306.289-.306v-.013s-.139.02-.394.02h-1.57v-.572h2.772v.42l-1.262 1.475c.54.052 1.189.37 1.331 1.077 1.56-1.71 2.511-3.985 2.511-6.482 0-2.429-.9-4.647-2.384-6.34-.037.042-.068.075-.091.099.361.22.63.512.63.997 0 .73-.617 1.376-1.589 1.376-.913 0-1.609-.599-1.609-1.416 0-.71.565-1.15.742-1.27-.302-.212-.52-.498-.52-.923 0-.262.077-.515.234-.725-1.465-.903-3.19-1.423-5.038-1.423-2.012 0-3.88.617-5.424 1.673v2.196h.63v.552h-.63v1.256h-.637v-1.256h-2.037c-.966 1.5-1.527 3.287-1.527 5.204zm8.201 3.51v.42l-1.261 1.475c.611.06 1.36.458 1.36 1.375 0 .798-.625 1.503-1.576 1.503-.546 0-1.111-.227-1.505-.639l.354-.498c.25.272.677.512 1.124.512.512 0 .946-.353.946-.858 0-.578-.506-.864-1.084-.864h-.315l-.151-.352 1.012-1.203c.144-.186.288-.306.288-.306v-.013s-.138.02-.393.02h-1.571v-.572h2.773zm5.078 0v.572H29.75v1.549h1.622v.571H29.75v2h-.65v-4.691h2.554zm-18.165-.788v3.024h.748v.42h-1.963v-.42h.753v-2.224c0-.107.005-.21.005-.21h-.01s-.039.073-.164.2l-.319.312-.289-.302.815-.8h.425zm30.024 0v.419h-1.399v1.137h1.191v.419h-1.191v1.468h-.477v-3.443h1.876zm-4.475 1.741c-.111.078-.415.307-.415.683 0 .386.338.644.69.644.361 0 .684-.234.684-.585 0-.39-.516-.527-.96-.742zm-22.317-1.23h-.01s-.077.166-.169.288l-.965 1.308v.01h1.124V29.83l.004-.139c.006-.113.016-.207.016-.207zm22.63-.136c-.2 0-.353.063-.451.162-.037.13-.078.257-.121.384l-.007-.068c0 .391.459.532.883.722.072-.078.309-.341.309-.678 0-.326-.252-.522-.613-.522zm-7.01-6.024v.77l-1.012 1.179c.739.163 1.207.756 1.207 1.462 0 .862-.6 1.723-1.85 1.723-.6 0-1.256-.205-1.703-.664l.587-.953c.25.247.642.452 1.025.452.454 0 .713-.226.713-.502 0-.395-.392-.558-.929-.558h-.349l-.259-.6.657-.798c.237-.29.433-.473.433-.473v-.014s-.161.035-.474.035h-1.195v-1.06h3.149zm-7.358-.085c1.006 0 2.025.77 2.025 2.415 0 1.37-.83 2.804-2.38 2.804-.37 0-.768-.057-1.104-.219l.328-1.06c.196.086.44.149.684.149.587 0 .922-.367 1.076-.833h-.014c-.111.091-.447.176-.684.176-1.04 0-1.634-.862-1.634-1.73 0-.855.621-1.702 1.703-1.702zm-4.027 0c1.417 0 1.878 1.151 1.878 2.599 0 1.448-.461 2.62-1.878 2.62-1.418 0-1.878-1.172-1.878-2.62 0-1.448.46-2.6 1.878-2.6zm14.093.084c.998 0 1.696.452 1.696 1.321 0 .424-.202.855-.579 1.074v.014c.573.177.782.692.782 1.138 0 1.101-.908 1.503-1.899 1.503h-1.836v-5.05h1.836zm7.133.855c.438 0 .915.137 1.243.453l-.24.361c-.252-.224-.633-.375-.985-.375-.79 0-1.258.59-1.258 1.317 0 .731.478 1.361 1.269 1.361.38 0 .771-.17 1.046-.449l.255.346c-.289.293-.714.547-1.316.547-1.056 0-1.745-.79-1.745-1.8 0-1 .718-1.761 1.73-1.761zm-28.823 0c.623 0 1.07.395 1.07.99 0 1.132-1.624 1.308-1.643 2.093h1.697v.42h-2.194c-.014-.093-.024-.181-.024-.264 0-1.224 1.673-1.405 1.673-2.215 0-.336-.256-.57-.618-.57-.284 0-.545.19-.689.439l-.352-.24c.193-.36.579-.653 1.08-.653zm7.597.19c-.482 0-.622.65-.622 1.47 0 .826.14 1.49.622 1.49s.621-.664.621-1.49c0-.82-.14-1.47-.622-1.47zm14.219 1.9h-.74v1.046h.732c.357 0 .532-.247.532-.53 0-.282-.168-.515-.524-.515zm-18.551-1.611h-.622v2.604h.622l.045-.002c-.03-.332-.044-.668-.044-1.008 0-.54.038-1.071.11-1.59-.035-.003-.073-.004-.111-.004zm8.36-.288c-.308 0-.503.268-.503.565 0 .36.216.741.754.741.279 0 .517-.07.517-.303 0-.6-.42-1.003-.768-1.003zm10.058.014h-.608v.897h.629c.307 0 .44-.226.44-.466 0-.233-.133-.431-.461-.431zm7.072-4.937c.728 0 1.273.64 1.273 1.625 0 .883-.477 1.937-1.534 1.937-.217 0-.453-.039-.66-.142l.154-.42c.116.06.304.117.487.117.627 0 .95-.584 1.022-1.156h-.009c-.14.196-.453.322-.753.322-.645 0-1.075-.493-1.075-1.131 0-.678.459-1.152 1.095-1.152zm-27.684.059v.42h-1.505v1.078h1.22v.42h-1.22v1.106h1.586v.42h-2.063v-3.444h1.982zm12.265-1.895v.572h-2.05v1.469h1.663v.571h-1.663v1.51h2.162v.57h-2.812V17.61h2.7zm3.705-.08c.848 0 1.458.54 1.458 1.35 0 1.542-2.213 1.78-2.24 2.851h2.313v.571h-2.99c-.019-.126-.032-.246-.032-.358 0-1.668 2.28-1.914 2.28-3.017 0-.46-.349-.778-.841-.778-.388 0-.742.26-.94.598l-.48-.326c.263-.491.789-.89 1.472-.89zm3.41 2.453c-.152.107-.565.42-.565.93 0 .526.46.878.94.878.492 0 .932-.319.932-.797 0-.532-.703-.718-1.306-1.01zm5.459.034h-.01s-.077.166-.169.288l-.802 1.087c.036.076.071.153.105.23h.856v-1.258c0-.161.02-.347.02-.347zm-22.591-.04h-.01s-.073.314-.131.494l-.38 1.088h1.032l-.377-1.088c-.058-.18-.135-.493-.135-.493zm25.441-.087c-.39 0-.622.303-.622.708 0 .419.26.727.694.727.386 0 .7-.24.7-.484 0-.448-.338-.95-.772-.95zm-21.016-.352l-.695.944v.013h1.53v-1.721c-.293.238-.572.493-.835.764zm12.47-1.136l-.032.043c-.06.097-.092.21-.092.329 0 .532.624.724 1.202.983.042-.045.123-.135.204-.26-.393-.402-.823-.768-1.282-1.095z"></path></g></svg>