<svg xmlns="http://www.w3.org/2000/svg" viewBox="0 0 190.15 34" width="190.15" height="34"><defs><style>.cls-1{fill:#fff;}</style></defs><title>Asset 2</title><g id="Layer_2" data-name="Layer 2"><g id="Layer_1-2" data-name="Layer 1"><g id="Layer_2-2" data-name="Layer 2"><g id="Layer_1-2-2" data-name="Layer 1-2"><path class="cls-1" d="M10.58,14.51H33.82A17,17,0,1,0,19.44,33.83v-14H10.58Z"/><path class="cls-1" d="M25.75,31.6a16.94,16.94,0,0,0,8-11.8h-8Z"/><path class="cls-1" d="M40.14,9.59H61.81v4.78h-8V28.81H48.14V14.37h-8Z"/><path class="cls-1" d="M69.61,9.59H77l10.2,19.22H80.89l-1.75-3.4H67.58l-1.67,3.4H59.56Zm.1,11.68H77L73.3,14Z"/><path class="cls-1" d="M88.74,9.59h8.82l10.69,14h.05v-14H114V28.81h-8.85l-10.69-14H94.4v14H88.74Z"/><path class="cls-1" d="M117.63,9.59h5.69V28.81h-5.69Z"/><path class="cls-1" d="M127,9.59h5.69v11.1c0,2.44.85,3.4,3.18,3.4h5.64c2.33,0,3.18-1,3.18-3.4V9.59h5.69V22c0,4.78-2.38,7.06-7.61,7.06h-8.15C129.35,29,127,26.74,127,22Z"/><path class="cls-1" d="M153.68,9.59h8.74L168.85,22l6.43-12.37H184V28.81h-5.54V15h-.05L171,28.81h-4.26L159.25,15h-.05v13.8h-5.54Z"/><path class="cls-1" d="M186.67,26.79a1.73,1.73,0,1,1,0,.09S186.67,26.82,186.67,26.79Zm3.1,0a1.37,1.37,0,1,0-1.37,1.37,1.37,1.37,0,0,0,1.37-1.37Zm-2-1h.7c.39,0,.72.16.72.6a.54.54,0,0,1-.34.51l.42.76h-.42l-.32-.64h-.39v.64h-.38Zm.62.93c.25,0,.4-.11.4-.31s-.1-.3-.38-.3h-.27v.62Z"/></g></g></g></g></svg>