<svg xmlns="http://www.w3.org/2000/svg" viewBox="0 0 1765.31 453.6" width="1765.31" height="453.6"><defs><style>.cls-1{fill:#fff;}</style></defs><title>Asset 6</title><g id="Layer_2" data-name="Layer 2"><g id="Layer_1-2" data-name="Layer 1"><path class="cls-1" d="M105.93,316.1V316h11.81V243H105.93a105.3,105.3,0,1,0,0,210.59h11.81V380.71l-11.81-.12c-18.31,0-33.14-14.07-33.48-32.27C72.79,330.1,87.61,316.1,105.93,316.1Z"/><path class="cls-1" d="M297.42,0C210.66,0,140.07,71.42,140.07,157.31V448.57l1.58-.51A104.48,104.48,0,0,0,213,349V157.31C213,111.47,250.89,73,297.42,73a84.44,84.44,0,0,1,84.36,84.36c0,46.53-37.84,85.7-84.36,85.7H235.24v73h62.19c86.75,0,157.33-71.91,157.33-158.67S384.17,0,297.42,0Z"/><path class="cls-1" d="M805.23,175.68c-19.77,0-35.54,7.88-47,23.4V127.71H733V325.77h25.26V241.86c0-25.23,16.83-42.85,40.94-42.85,23.5,0,37.59,15.4,37.59,41.21v85.55H862V234.95C862,198.94,839.74,175.68,805.23,175.68Z"/><path class="cls-1" d="M1136.92,175.68c-19.78,0-35.55,7.88-47,23.4V178.73h-25.28v147h25.28V241.86c0-25.23,16.8-42.85,40.88-42.85,23.57,0,37.61,15.4,37.61,41.21v85.55h25.27V234.95C1193.69,198.94,1171.39,175.68,1136.92,175.68Z"/><path class="cls-1" d="M1291.43,198.47V175.68h-45.38v-48h-25.29V285.88c0,27.32,15.08,42.37,42.39,42.37a55.72,55.72,0,0,0,26.67-6.3l1-.56V298.77l-2.82,1.36a42.67,42.67,0,0,1-19.9,4.78c-14.87,0-22.11-7.12-22.11-21.8V198.47Z"/><path class="cls-1" d="M1650.83,175.68c-21.08,0-37.52,8.71-50.14,26.6-9.52-17.18-25.78-26.6-46.16-26.6-22.51,0-35.52,11.34-44.23,22.87V178.73H1485v147h25.27V242.14c0-25,15.92-43.13,37.88-43.13,21.79,0,34.8,15.19,34.8,40.64v86.13h25V241.32c0-29.23,18.86-42.31,37.61-42.31,22.28,0,35.07,15,35.07,41.21v85.55H1706V235.23C1706,198.5,1684.86,175.68,1650.83,175.68Z"/><path class="cls-1" d="M1386,175.68c-43,0-76.71,33.7-76.71,76.7v.56c0,42.71,33.45,76.16,76.14,76.16,43.19,0,77-33.69,77-76.71v-.56C1462.47,209.14,1428.87,175.68,1386,175.68ZM1386,306c-28.53,0-50.88-23.56-50.88-53.65v-.56c0-30.42,21.63-53.35,50.3-53.35s51.13,23.68,51.13,53.91v.56C1436.59,283.2,1414.88,306,1386,306Z"/><path class="cls-1" d="M632.8,124.51c-42.84,0-76.42,33.44-76.42,76.16v.54c0,.19,0,.37,0,.56h0V325.88h25.81V197.3h.17c1.87-28.32,23.55-50,51-50,28.71,0,50.33,22.94,50.33,53.37v.54c0,30.07-22.34,53.65-50.86,53.65A49,49,0,0,1,601,243.36V270.8a77.37,77.37,0,0,0,32.3,7.12c42.71,0,76.15-33.46,76.15-76.15v-.56C709.48,158.21,675.82,124.51,632.8,124.51Z"/><path class="cls-1" d="M1037.12,251.82c0-42.68-33.58-76.14-76.42-76.14-43,0-76.73,33.7-76.73,76.7v.56c0,42.71,33.44,76.16,76.16,76.16a77.25,77.25,0,0,0,32.12-7V294.7A49.18,49.18,0,0,1,960.71,306c-28.53,0-50.88-23.56-50.88-53.65v-.56c0-30.42,21.6-53.35,50.3-53.35,27.43,0,49.22,21.67,51.08,50v77.29h25.92Z"/><path class="cls-1" d="M1765.31,180.57a23.84,23.84,0,0,1-23.8,23.87,23.8,23.8,0,1,1,23.8-23.87Zm-4,0a19.71,19.71,0,1,0-19.81,19.67A19.48,19.48,0,0,0,1761.32,180.57Zm-14.56,3.29,5.46,7.91h-4.62l-4.41-7.14h-6.58v7.14h-4V168.11h9.52c6.16,0,9.59,2.94,9.59,8.12C1751.73,179.94,1750,182.6,1746.76,183.86Zm-4.62-2.59c3.64,0,5.81-1.82,5.81-5s-2.17-4.83-5.81-4.83h-5.53v9.8Z"/></g></g></svg>