<?xml version="1.0" encoding="iso-8859-1"?>
<!-- Generator: Adobe Illustrator 19.0.0, SVG Export Plug-In . SVG Version: 6.00 Build 0)  -->
<svg version="1.1" id="Capa_1" xmlns="http://www.w3.org/2000/svg" xmlns:xlink="http://www.w3.org/1999/xlink" x="0px" y="0px"
	 viewBox="0 0 60 60" style="enable-background:new 0 0 60 60;" xml:space="preserve">
<g>
	<path d="M17,39.505h26v-12H17V39.505z M41,35.505c0,0.553-0.447,1-1,1H24c-0.553,0-1-0.447-1-1s0.447-1,1-1h16
		C40.553,34.505,41,34.952,41,35.505z M29.29,30.795c0.37-0.37,1.04-0.37,1.42,0c0.18,0.189,0.29,0.449,0.29,0.71
		c0,0.26-0.11,0.52-0.29,0.71c-0.19,0.18-0.45,0.29-0.71,0.29c-0.271,0-0.521-0.11-0.71-0.29c-0.181-0.19-0.29-0.44-0.29-0.71
		C29,31.244,29.109,30.984,29.29,30.795z M20,30.505h6c0.553,0,1,0.447,1,1s-0.447,1-1,1h-6c-0.553,0-1-0.447-1-1
		S19.447,30.505,20,30.505z M19.29,34.795c0.38-0.37,1.05-0.37,1.42,0c0.18,0.189,0.29,0.449,0.29,0.71c0,0.26-0.11,0.52-0.29,0.71
		c-0.19,0.18-0.44,0.29-0.71,0.29c-0.271,0-0.521-0.11-0.71-0.29c-0.181-0.19-0.29-0.45-0.29-0.71
		C19,35.244,19.109,34.984,19.29,34.795z"/>
	<path d="M3,58.505c0,0.553,0.447,1,1,1h52c0.553,0,1-0.447,1-1v-4H3V58.505z"/>
	<path d="M56,20.505H4c-0.553,0-1,0.447-1,1v31h54v-31C57,20.952,56.553,20.505,56,20.505z M45,40.505c0,0.553-0.447,1-1,1H16
		c-0.553,0-1-0.447-1-1v-14c0-0.553,0.447-1,1-1h28c0.553,0,1,0.447,1,1V40.505z"/>
	<path d="M56.954,0.495H3.046C1.366,0.495,0,1.861,0,3.541v13.964c0,0.553,0.447,1,1,1h58c0.553,0,1-0.447,1-1V3.541
		C60,1.861,58.634,0.495,56.954,0.495z M39,14.505H21c-2.757,0-5-2.243-5-5s2.243-5,5-5h18c2.757,0,5,2.243,5,5
		S41.757,14.505,39,14.505z"/>
</g>
<g>
</g>
<g>
</g>
<g>
</g>
<g>
</g>
<g>
</g>
<g>
</g>
<g>
</g>
<g>
</g>
<g>
</g>
<g>
</g>
<g>
</g>
<g>
</g>
<g>
</g>
<g>
</g>
<g>
</g>
</svg>
