<?xml version="1.0" encoding="UTF-8" standalone="no"?>
<svg
   xmlns:dc="http://purl.org/dc/elements/1.1/"
   xmlns:cc="http://creativecommons.org/ns#"
   xmlns:rdf="http://www.w3.org/1999/02/22-rdf-syntax-ns#"
   xmlns:svg="http://www.w3.org/2000/svg"
   xmlns="http://www.w3.org/2000/svg"
   xmlns:sodipodi="http://sodipodi.sourceforge.net/DTD/sodipodi-0.dtd"
   xmlns:inkscape="http://www.inkscape.org/namespaces/inkscape"
   inkscape:version="1.0 (4035a4f, 2020-05-01)"
   sodipodi:docname="archive-svgrepo-com_dark.svg"
   xml:space="preserve"
   style="enable-background:new 0 0 60 60;"
   viewBox="0 0 60 60"
   y="0px"
   x="0px"
   id="Capa_1"
   version="1.1"><metadata
   id="metadata55"><rdf:RDF><cc:Work
       rdf:about=""><dc:format>image/svg+xml</dc:format><dc:type
         rdf:resource="http://purl.org/dc/dcmitype/StillImage" /><dc:title></dc:title></cc:Work></rdf:RDF></metadata><defs
   id="defs53" /><sodipodi:namedview
   inkscape:current-layer="g18"
   inkscape:window-maximized="1"
   inkscape:window-y="652"
   inkscape:window-x="0"
   inkscape:cy="30.340909"
   inkscape:cx="18.153409"
   inkscape:zoom="11.733333"
   showgrid="false"
   id="namedview51"
   inkscape:window-height="1147"
   inkscape:window-width="1920"
   inkscape:pageshadow="2"
   inkscape:pageopacity="0"
   guidetolerance="10"
   gridtolerance="10"
   objecttolerance="10"
   borderopacity="1"
   bordercolor="#666666"
   pagecolor="#ffffff" />
<g
   id="g18">
	<path
   style="fill:#ffffff"
   id="path10"
   d="M17,39.505h26v-12H17V39.505z M41,35.505c0,0.553-0.447,1-1,1H24c-0.553,0-1-0.447-1-1s0.447-1,1-1h16   C40.553,34.505,41,34.952,41,35.505z M29.29,30.795c0.37-0.37,1.04-0.37,1.42,0c0.18,0.189,0.29,0.449,0.29,0.71   c0,0.26-0.11,0.52-0.29,0.71c-0.19,0.18-0.45,0.29-0.71,0.29c-0.271,0-0.521-0.11-0.71-0.29c-0.181-0.19-0.29-0.44-0.29-0.71   C29,31.244,29.109,30.984,29.29,30.795z M20,30.505h6c0.553,0,1,0.447,1,1s-0.447,1-1,1h-6c-0.553,0-1-0.447-1-1   S19.447,30.505,20,30.505z M19.29,34.795c0.38-0.37,1.05-0.37,1.42,0c0.18,0.189,0.29,0.449,0.29,0.71c0,0.26-0.11,0.52-0.29,0.71   c-0.19,0.18-0.44,0.29-0.71,0.29c-0.271,0-0.521-0.11-0.71-0.29c-0.181-0.19-0.29-0.45-0.29-0.71   C19,35.244,19.109,34.984,19.29,34.795z" />
	<path
   style="fill:#ffffff"
   id="path12"
   d="M3,58.505c0,0.553,0.447,1,1,1h52c0.553,0,1-0.447,1-1v-4H3V58.505z" />
	<path
   style="fill:#ffffff"
   id="path14"
   d="M56,20.505H4c-0.553,0-1,0.447-1,1v31h54v-31C57,20.952,56.553,20.505,56,20.505z M45,40.505c0,0.553-0.447,1-1,1H16   c-0.553,0-1-0.447-1-1v-14c0-0.553,0.447-1,1-1h28c0.553,0,1,0.447,1,1V40.505z" />
	<path
   style="fill:#ffffff"
   id="path16"
   d="M56.954,0.495H3.046C1.366,0.495,0,1.861,0,3.541v13.964c0,0.553,0.447,1,1,1h58c0.553,0,1-0.447,1-1V3.541   C60,1.861,58.634,0.495,56.954,0.495z M39,14.505H21c-2.757,0-5-2.243-5-5s2.243-5,5-5h18c2.757,0,5,2.243,5,5   S41.757,14.505,39,14.505z" />
</g>
<g
   id="g20">
</g>
<g
   id="g22">
</g>
<g
   id="g24">
</g>
<g
   id="g26">
</g>
<g
   id="g28">
</g>
<g
   id="g30">
</g>
<g
   id="g32">
</g>
<g
   id="g34">
</g>
<g
   id="g36">
</g>
<g
   id="g38">
</g>
<g
   id="g40">
</g>
<g
   id="g42">
</g>
<g
   id="g44">
</g>
<g
   id="g46">
</g>
<g
   id="g48">
</g>
</svg>
