<svg id="Layer_1_copy" data-name="Layer 1 copy" xmlns="http://www.w3.org/2000/svg" viewBox="0 0 81.76 78.51" width="81.76" height="78.51"><defs><style>.cls-1{fill:#6d3aec;}</style></defs><title>PolySwarmP-purple</title><path class="cls-1" d="M8.88,20.88h40.9a11.1,11.1,0,1,1,0,22.2H27.65a3.17,3.17,0,0,0,0,6.33H49.78a17.43,17.43,0,0,0,0-34.86H8.88a3.17,3.17,0,1,0,0,6.33Z"/><path class="cls-1" d="M49.78,0H33.92a3.16,3.16,0,0,0,0,6.32H49.78a25.66,25.66,0,0,1,0,51.32H9.48a3.16,3.16,0,1,0,0,6.32h40.3a32,32,0,1,0,0-64Z"/><path class="cls-1" d="M31.46,32a3.17,3.17,0,0,0-3.16-3.16H20.59A3.17,3.17,0,0,0,17.43,32c0,1.75,1.4,3.16,2.55,3.16h7.71C29.91,35.14,31.46,33.84,31.46,32Z"/><path class="cls-1" d="M21.45,72.19H3.16a3.16,3.16,0,0,0,0,6.32H21.45a3.16,3.16,0,0,0,0-6.32Z"/></svg>