<svg xmlns="http://www.w3.org/2000/svg" viewBox="0 0 2283.55 546.14" width="2283.55" height="546.14"><defs><style>.cls-1{fill:#fff;}</style></defs><title>Asset 2</title><g id="Layer_2" data-name="Layer 2"><g id="Layer_1-2" data-name="Layer 1"><path class="cls-1" d="M395.06,543.55c20.48-6.71,30.06-22.32,33.39-42.25,3.77-22.55-2.84-42.33-16.21-60.89-12.47-17.31-15.1-37-7.54-57.47a24.59,24.59,0,0,1,5.7-9.33c10.67-10.25,12.46-23.14,11.06-36.86-2.21-21.74-21.54-42.53-43-46.6a33.84,33.84,0,0,0-39.93,26.77c-3.3,16.24.68,30.89,10.69,43.66,7.09,9,10.63,19.2,11.87,30.24a58,58,0,0,1-3.94,29.4c-1.7,4-3.56,7.87-6.79,10.94-18.22,17.35-22,38.85-17.29,62.44,3.67,18.34,12.69,33.49,28.58,44.06a48.44,48.44,0,0,0,13.69,5.95c1.42.41,3.57.07,3.63,2.54h13C391.91,544,393.78,544,395.06,543.55Z"/><path class="cls-1" d="M430.82,493.67c1-19.38-4.37-37.16-16.56-52.5a51.45,51.45,0,0,1-6.49-11.1,61.37,61.37,0,0,1-5.46-21.1c-.95-13.62,1.16-26.52,11.25-36.92a34.32,34.32,0,0,0,9.33-20A58.19,58.19,0,0,0,385,290.28c-18.08-6.58-38.41,1.8-45.43,19-6.19,15.19-3.87,29.88,3.31,44.18,2.64,5.26,7.14,9.2,9.88,14.3a60.51,60.51,0,0,1,7.2,34.64c-1,11.25-3.67,22-12.67,29.94a41.6,41.6,0,0,0-7.54,9.24c-9.45,15.11-11.63,31.63-8.67,48.85,3.49,20.33,12.82,37.21,30.53,48.77,5.36,3.5,11.5,4.86,17.4,6.9-.06-2.47-2.21-2.13-3.63-2.54a48.44,48.44,0,0,1-13.69-5.95c-15.88-10.57-24.91-25.72-28.58-44.06-4.72-23.59-.92-45.09,17.29-62.44,3.23-3.07,5.09-6.92,6.79-10.94a58,58,0,0,0,3.94-29.4c-1.23-11-4.78-21.19-11.87-30.24-10-12.77-14-27.42-10.69-43.66a33.84,33.84,0,0,1,39.93-26.77c21.43,4.07,40.76,24.86,43,46.6,1.4,13.73-.39,26.62-11.06,36.86a24.59,24.59,0,0,0-5.7,9.33c-7.56,20.46-4.92,40.16,7.54,57.47,13.37,18.56,20,38.34,16.21,60.89-3.34,19.93-12.92,35.55-33.39,42.25-1.28.42-3.15.42-3.06,2.59,6.44-2.49,13.12-4.33,18.59-9C424,525.69,429.9,510.63,430.82,493.67Z"/><path class="cls-1" d="M2.44,196.73c6,18.62,20,28.23,37.83,32.84,16.93,4.36,33.45,2.72,49.79-4.24,20.41-8.7,49.57-4,66.3,12.13,2.53,2.44,4.19,5.59,6.33,8.36,13.91,18,42.74,25.18,63.39,15.76,25.64-11.7,31.45-41.08,12.21-61.72-17.35-18.6-41.24-23.19-64.85-13.08-11,4.7-22.65,3.67-33.88.65-12.65-3.4-23.31-9.84-31.27-21-8.45-11.81-21.15-17.55-35.1-20.32-21.27-4.22-40.7,0-57.8,13.64-6,4.81-9.93,11.11-12.51,18.32-.55,1.54-.28,3.88-2.89,4v12C1.91,194,2.07,195.57,2.44,196.73Z"/><path class="cls-1" d="M86.1,228.25c11.72-4.94,23.67-6.9,36.08-5,15.21,2.32,28.55,8,37.93,21.35,14.26,20.26,43.53,28.18,66.1,18.51,17.66-7.57,27.33-24.65,24.27-41.94-4.55-25.63-32.74-44.36-60.85-40.67-7.23.95-13.48,4.73-20.32,6.47-11.71,3-23.51,1.81-34.83-2.53a54.84,54.84,0,0,1-24.81-18.36C81.31,129,9.25,139.07,0,182.14c2.6-.15,2.34-2.48,2.89-4,2.58-7.22,6.49-13.51,12.51-18.32,17.1-13.66,36.52-17.86,57.8-13.64,13.95,2.77,26.65,8.51,35.1,20.32,8,11.12,18.62,17.55,31.27,21,11.22,3,22.88,4.05,33.88-.65,23.61-10.1,47.51-5.52,64.85,13.08,19.24,20.64,13.43,50-12.21,61.72-20.65,9.42-49.48,2.23-63.39-15.76-2.14-2.77-3.8-5.91-6.33-8.36-16.73-16.15-45.9-20.83-66.3-12.13-16.33,7-32.86,8.6-49.79,4.24C22.42,225,8.4,215.35,2.44,196.73c-.37-1.16-.53-2.77-2.44-2.59,2.52,7.78,5.72,15.1,11.64,21.09C29.09,232.93,61,238.84,86.1,228.25Z"/><path class="cls-1" d="M300.83,351.18c10.37-8.78,15.08-20.4,15.29-33.9A48.28,48.28,0,0,0,312,296.89c-10.17-23.63-36.28-37.83-59.58-32.4-33.23,7.74-46.88,45.49-26.24,74,10,13.79,11.92,28.64,8.56,44.5-2.3,10.85-6.59,21.28-15.8,28.11C191,431.72,181.11,470,196.08,501.17c15.78,32.91,54.09,43.14,82.64,22.06,29.69-21.92,37.44-67.42,16-97.41a57.09,57.09,0,0,1-11.14-31.92C282.92,377.25,287.5,362.47,300.83,351.18Z"/><path class="cls-1" d="M1946,326.5a18.94,18.94,0,0,0-5.46-3.43q-21.16-10-42.3-20.11L1854,281.86a10.86,10.86,0,0,1,4.93-.81c13.83,0,27.67.22,41.49,0,12.6-.16,24.84-2.34,36.13-8.27,12.89-6.77,19.88-17.32,20.08-32.05.09-6.66,0-13.33,0-20,0-16.35-7.68-27.8-22.37-34.72-12.62-5.95-26.07-7.82-39.81-7.86-36-.12-72,0-108-.05-11.21,0-13.46,2.23-13.47,13.35q0,70,0,140a38.67,38.67,0,0,0,.14,5c.67,5.14,3.29,7.71,8.43,8.26a54.29,54.29,0,0,0,6,.12c9.76,0,12.42-2.68,12.44-12.47,0-15.64,0-31.29,0-47.72,2,.93,3.18,1.47,4.34,2,37.42,18,74.92,35.84,112.18,54.17,7.63,3.75,15.32,3.93,23.25,3.82a9.06,9.06,0,0,0,9-6.66A10.82,10.82,0,0,0,1946,326.5Zm-92.55-70.33c-16.49,0-33-.09-49.46.08-3.27,0-4.13-.87-4.09-4.12q.27-22.48,0-45c0-3.28.86-4.11,4.11-4.1,30.81.13,61.62,0,92.43.13,7.83,0,15.6.89,23,3.8,6.8,2.67,10.39,7.34,10.12,14.87-.2,5.49-.22,11,0,16.48.29,7-3.12,11.26-9.22,13.89a52.91,52.91,0,0,1-20.94,3.89c-15.32.07-30.64,0-46,0Z"/><path class="cls-1" d="M2227,219.65c-.09-17.5-8.65-29.6-25.08-35.84a90.22,90.22,0,0,0-32.25-5.67H2055.24c-10.93,0-13.23,2.27-13.24,13q0,35,0,70c0,24.16,0,48.31,0,72.47,0,7.85,2.9,11.16,10.18,11.17,39,.06,78,.11,117-.12,14.19-.09,27.69-3.43,39.8-11.22,11.75-7.56,18.22-18,18.15-32.33C2227,274,2227.17,246.81,2227,219.65Zm-26.89,78.79c.05,8-3.81,13.14-10.56,16.59-7.3,3.73-15.24,4.71-23.26,4.74-31.15.12-62.3,0-93.44.16-3.64,0-3.94-1.43-3.92-4.37.1-18,.05-36,.05-54,0-18.16.09-36.31-.08-54.47,0-3.31.91-4.08,4.13-4.07,32.15.12,64.3.05,96.44.1,8.28,0,16.21,1.61,23.33,6.1,4.85,3.05,7.37,7.22,7.33,13.23Q2199.91,260.47,2200.14,298.45Z"/><path class="cls-1" d="M264.44,133.78c-5.1-24.16-34.56-40.21-59.11-36.14-9.21,1.53-17.89,5.43-27.72,3.64C164,98.79,151,94.59,142.33,83.56c-13.26-16.94-30.93-23-50.23-24.53-8.83.32-16.57,1.29-23.87,4.25-11.83,4.8-20.65,12.7-21.87,26-1,11.5,4.85,20.81,13.5,27.53,18.56,14.43,39.56,19,62.37,12.19,9.62-2.87,19.16-3.82,29-1.87,12.85,2.55,24.56,7.46,33,17.92,4.45,5.51,9.23,10.5,15.33,14.06,14.55,8.46,29.82,11.9,46.23,5.93C259.64,160,267.19,146.84,264.44,133.78Z"/><path class="cls-1" d="M1419.05,301.09c-.48-15.14-.06-30.31-.09-45.46,0-18.09-8-29.85-24.83-36.41s-34.24-6.07-51.72-5.56c-4.29.13-6.92,2.82-7.67,7.21a26.31,26.31,0,0,0-.17,8.93c1,5.75,3.57,8.15,9.39,8.26,7.49.14,15,0,22.48.08a52.1,52.1,0,0,1,17.62,3c3.35,1.22,6.26,3,8.18,6.18,1.71,2.82,1.39,4-2.29,3.94-15.49-.14-31-.06-46.47-.06v.09c-14.82,0-29.65-.16-44.47.06-9.36.14-18.55,1.69-27.13,5.72-15,7.06-23.9,18.15-23.14,35.55.19,4.32.14,8.66,0,13-.37,12.33,5.28,21.34,15.27,27.94A62.21,62.21,0,0,0,1294.86,344c28.27,1.63,56.64,2.13,84.85-.16C1403.64,341.89,1420,330.61,1419.05,301.09Zm-25.92-21.3c-.26,8.65-.05,17.31-.1,26,0,6.67-2.39,10-8.65,12.43-6,2.34-12.36,2.53-18.67,2.56-20,.1-39.94.18-59.91,0a64.86,64.86,0,0,1-23.37-4.42c-5.37-2.13-8.27-5.79-7.94-11.84a122.35,122.35,0,0,0,0-12.48c-.24-5.15,2.19-8.55,6.5-10.84a46.09,46.09,0,0,1,22-5.29q20.47,0,40.94,0c15,0,30,.08,44.93-.07C1392,275.73,1393.24,276.35,1393.14,279.79Z"/><path class="cls-1" d="M101.56,298.38c-27.4-2.87-50.38,6.78-67.21,29C25,339.72,20.1,353.94,22.45,369.45,27,399.35,50.88,414.13,77.61,415c18.44.61,34.83-5.58,49-17.58C141,385.23,149.24,370,149.85,358.64,150.57,322.51,128.94,301.24,101.56,298.38Z"/><path class="cls-1" d="M1217.74,249.6c-.17-11.55-5.4-20.35-15.08-26.57a55.92,55.92,0,0,0-26.7-8.88c-21.46-1.47-43-.91-64.44-.4-13.27.32-26.06,3.07-37.56,10.29s-17.66,17.77-17.71,31.55c0,14.66,0,29.32,0,44,0,21.55,10.88,35.81,31.64,41.6,15.31,4.28,31,3.71,46.64,3.61,7.79-.05,10.5-3.54,10.41-12.5-.08-8.4-2.85-11.38-10.82-11.51-8.82-.15-17.66.32-26.47-.63-14.15-1.52-22.76-9.31-24.53-22-.49-3.55.17-4.91,4.23-4.86,20.16.23,40.32.1,60.48.1s40.32-.13,60.48.08c5.21.06,7.68-2.32,8.69-7a26.64,26.64,0,0,0,.73-5.42C1217.81,270.6,1217.89,260.1,1217.74,249.6Zm-37.2,18.81h-43.42c-17,0-33.94-.08-50.91.07-3.21,0-4.6-.75-4.15-4.11a42.3,42.3,0,0,0,0-5.48c0-10.7,2.11-13.54,12.27-17a66.73,66.73,0,0,1,20.6-3.22c17.46-.27,34.93-.92,52.37.43a48.47,48.47,0,0,1,18.55,5.33c4.68,2.4,7.1,5.89,7,11.52C1192.61,268.41,1192.83,268.41,1180.54,268.41Z"/><path class="cls-1" d="M1558.51,261.3h0q0,20.75,0,41.5c0,14.47,6.54,25.11,18.87,32.39,9.53,5.63,20,8.23,30.88,8.89,26.3,1.59,52.64.73,79,.55a72.82,72.82,0,0,0,25.44-4.44c15-5.68,26.59-15.22,27.95-31.93s.47-33.63.31-50.46c0-4.78-3-7.63-7.89-8-2.15-.18-4.33-.18-6.49-.17-9.66,0-12.35,2.75-12.39,12.58,0,11.83-.62,23.71.19,35.48.65,9.52-3.87,14.59-11.63,18.13a33.81,33.81,0,0,1-12.42,3.43c-25.31,1.19-50.63.73-75.95.25a55.72,55.72,0,0,1-16.71-2.66c-9-3-12-7.18-12-16.55q0-38.5,0-77c0-9.88,3.06-14.08,12.59-17.09a72.86,72.86,0,0,1,21.68-3c8.67,0,17.33,0,26-.06,6.22-.08,9.26-2.83,9.88-8.91a35,35,0,0,0,0-7.48c-.67-5.85-3.66-8.49-9.65-8.53-10-.07-20-.24-30,.1-12.23.41-24.16,2.57-35.17,8.29-14.85,7.72-23.22,19.27-22.53,36.76C1558.91,236,1558.51,248.64,1558.51,261.3Z"/><path class="cls-1" d="M899.05,262.14c-.32,23.83-.11,47.66-.06,71.5,0,8.2,3,11.09,11.17,11.21,1.17,0,2.33,0,3.5,0,7.88-.17,11-3,11.08-10.88.12-26.66.35-53.34-.08-80-.33-20-9.64-30.92-29-35.79-12.21-3.07-24.67-3.75-37.17-3.8q-32.5-.14-65,0c-3.51,0-4.54-.92-4.4-4.43.28-7,.09-14,.07-21,0-4.37-.59-9-5.51-10-5.9-1.28-12.34-2.72-17.61,1.81-3,2.58-2.67,6.66-2.67,10.32q0,35,0,70t0,70a45.85,45.85,0,0,0,.7,7.44,7.06,7.06,0,0,0,3.74,5.05c10.54,5.93,21.33-.16,21.33-12.08,0-29.5.08-59-.09-88.5,0-3.82,1.05-4.73,4.74-4.67,12.83.23,25.66,0,38.5.11,15.16.13,30.36-.83,45.47.76C898.28,241.38,899.23,248.85,899.05,262.14Z"/><path class="cls-1" d="M536.59,267.63c-8.1-2.76-16.67-3.35-23.48,3.15-6.07,5.79-13,6.15-20.35,4.74-9.84-1.89-17.75-7.29-24.46-14.52-6.06-6.53-12.78-12.18-21-15.72-20.7-8.87-42.49,1.21-41.34,25.75-1.14,19.46,16.4,42.82,34.74,49.22,12.75,4.45,24.45,4.5,34.21-6.43,1.87-2.1,4.54-2.79,7.08-3.48,12.16-3.31,29.21,3.29,37.7,14.11,7.6,9.68,17.17,16.42,29.51,19,11.81,2.43,23.46-5.86,24.83-17.72C576.9,300.58,556.62,274.45,536.59,267.63Z"/><path class="cls-1" d="M655,343.09c5.9,3,12.45,2.78,18.41.49,5.32-2,4.67-7.48,4.67-12.14,0-41.33.05-82.65-.08-124,0-3.49.83-4.45,4.36-4.41,17.33.19,34.66.09,52,.08,10.81,0,13.8-3.24,13.21-14.25-.43-8.06-3.15-10.73-11.11-10.73q-36,0-72,0t-72,0c-2.9,0-5.92,0-7.86,2.37-4.3,5.2-3.36,11.32-1.83,17.1,1.36,5.14,6,5.58,10.51,5.57,17.83,0,35.66.09,53.49-.1,3.52,0,4.38.88,4.36,4.37-.15,29.16-.08,58.32-.08,87.48,0,12.83,0,25.66,0,38.49C651.13,337.13,651.37,341.23,655,343.09Z"/><path class="cls-1" d="M437.79,227c9.79,3.75,19.55,3.64,28.11-3.85a10.52,10.52,0,0,1,5.52-2.13c13.95-2,25.12,3.51,34.34,13.24,7.93,8.36,16.32,15.57,28,18,14.78,3.15,25.27-6.53,22.58-21.45-3.59-20-15.68-33.33-34-41.1-6.75-2.86-14.24-3.83-20.55.82-5.75,4.23-11.67,4.39-18,3-9.73-2.09-17.71-7.31-24.46-14.54-9.17-9.81-20-16.39-31.63-17-17-.05-26.57,10.78-24,25.46C407.08,207.44,419.51,220,437.79,227Z"/><path class="cls-1" d="M289.75,6.18c-7.41-.06-13.91,2.39-17.73,9.1-4,6.93-1.37,13.54,2.3,19.72,2,3.41,4.78,6.4,6.74,9.84,6.41,11.29,2.59,24.24-8.32,27.87C257.33,77.84,253,92,259.56,105.13c9.26,18.5,25.31,26.75,45.42,28,1.5,0,3,0,4.5,0,11.1-.26,20.77-8.25,22.28-19.12,1.13-8.18-2.22-15.27-7.06-21.71-3-4-6.68-7.41-7.92-12.52-2.36-9.75-.86-20.24,10.54-23.4,1.69-.47,3.2-1.72,4.7-2.74,7.47-5.09,6.29-17.52,1.33-24.46C322.69,14.3,308.21,6.33,289.75,6.18Z"/><path class="cls-1" d="M413.46,130.51c-2.13-5.7-5.71-10.45-9.67-15a26.71,26.71,0,0,1-6.92-19.7c.32-5.33,2.63-9.41,7.7-11.88,7.1-3.46,9.72-9.24,8-16.85-3.91-17.57-27.87-34.73-45.76-32.78-12.87,1.4-18.51,10.76-13.77,22.85a39.07,39.07,0,0,0,7.14,11.34,31.61,31.61,0,0,1,7.27,15.61,15.7,15.7,0,0,1-9.13,17.51c-8.14,3.85-12.2,11.49-10.87,20.43,3,19.89,24.42,38.06,45.22,38.29C410.61,160.53,419.76,147.4,413.46,130.51Z"/><path class="cls-1" d="M512.46,378.61c-16.45-8.31-32.86-1.87-39.75,15a41.75,41.75,0,0,0-2.92,17.72,51.28,51.28,0,0,0,2.37,17.57c5.85,18.82,16,34.4,34.51,42.91,17.42,8,33.62.7,39.78-17.45A48.54,48.54,0,0,0,548,429.27C543.77,407.07,533.21,389.09,512.46,378.61Z"/><path class="cls-1" d="M1533.39,219.08c-1.89-4.64-6.37-4.75-10.63-4.75-10.82,0-21.65-.24-32.46.11-4.63.15-6.6-.77-6.09-5.86s.11-10,.11-15c0-14.2-1.61-15.77-15.73-15.48-6.52.14-9.53,2.81-9.79,9.32-.26,6.32-.12,12.65-.13,19,0,7.74,0,7.74-7.81,7.91s-10.75,3.13-10.85,11a36.75,36.75,0,0,0,.11,5c.63,5.06,3.44,7.65,8.56,8a21,21,0,0,0,4.49,0c4.25-.63,5.72.72,5.62,5.33-.33,15-.12,30-.12,45h0q0,22.48,0,45c0,3.93.43,7.77,4.33,10,10.54,5.94,21.29-.18,21.3-12.1,0-29.47.08-58.94-.08-88.41,0-3.74.94-4.82,4.71-4.74,11.82.24,23.64.08,35.46.08,3.27,0,6.59-.32,8.34-3.43C1535.61,229.89,1535.52,224.34,1533.39,219.08Z"/><path class="cls-1" d="M1983.08,335.16c.48,6.48,3.3,9.29,9.73,9.66,1.66.1,3.33,0,5,0,9.51-.06,12.21-2.7,12.22-12.18q0-35.74,0-71.49,0-35.5,0-71c0-2.85,0-5.69-1.56-8.22-3.53-5.69-20.33-5.69-23.82,0-1.63,2.67-1.65,5.68-1.64,8.7q0,70.74,0,141.48C1983,333.16,1983,334.16,1983.08,335.16Z"/><path class="cls-1" d="M1032.84,228.72a32.76,32.76,0,0,0-.07-6.48c-.67-5.66-3.39-8.5-9.08-8.7-11.5-.41-23-.36-34.22,2.78-18.25,5.12-33.68,16.21-32.57,42.05.5,11.47.08,23,.08,34.48h-.3q0,20.24,0,40.48c0,3.91.13,8.17,4.15,10a21.11,21.11,0,0,0,17.45.13c4.87-2.13,4.58-7.26,4.58-11.8,0-24.65.3-49.31-.12-74-.2-12,4.9-16.49,16.18-18.64,7.94-1.51,15.94-.72,23.92-1C1029.3,237.9,1032.32,235.11,1032.84,228.72Z"/><path class="cls-1" d="M210,54.74c16.75-4.55,22-18.88,12.13-33.15A33.36,33.36,0,0,0,218.38,17C207.14,5.73,193.51.16,177.65.07a57.67,57.67,0,0,0-6,0c-9,.94-17.16,3.85-21.3,12.55-4.05,8.5-.87,16.19,4.43,23.19C166.16,50.86,191.9,59.66,210,54.74Z"/><path class="cls-1" d="M444.82,117.95c6.16,17.49,18.75,28,36.48,31.93,12.31,2.76,22.2-6.62,19.19-17.56-5.34-19.37-18.65-30.57-37.76-34.92C452,95,444,101.51,444.08,111.58c0,1.33-.09,2.67,0,4A10.17,10.17,0,0,0,444.82,117.95Z"/><path class="cls-1" d="M1461.1,407.94c-3.84-1.6-3.5-4.46-3-7.73.31-2.11-.2-4.32-.1-6.48.14-3-.63-4.64-4.12-4.68s-4.8,1.57-4.78,4.78c0,2,0,4.08,0,6.93l-15.8-9c3-1.37,5.33-2.6,7.79-3.58,5.14-2,6.85-5.82,6.13-11.11-.64-4.74-3.91-6.92-8-7.84a53.16,53.16,0,0,0-24.7.13c-5.9,1.45-8.86,7.1-7.44,12.84.72,2.92,3.49,4.32,5.2,7.19-1.08.42-1.67.69-2.29.89-5.17,1.69-8.07,5-7.92,10.68s2.45,8.55,8.67,10.73a35.84,35.84,0,0,0,8.27,1.62c13.11,1.34,26.19-2.54,39.29-.11a4.59,4.59,0,0,0,1,0c1.22,0,2.44-.26,2.72-1.66S1462.51,408.53,1461.1,407.94Zm-42.3-32.06a41.09,41.09,0,0,1,17.17.1c1.58.36,2.71,1.18,2.86,3a3.05,3.05,0,0,1-2.2,3.46c-4,1.37-8.13,2.66-12.05,3.94-3.32-1-6.48-2.16-8.16-4.72C1415.09,379.59,1415.3,376.57,1418.8,375.89Zm22,30.25c-7,0-13.91.09-20.86-.06a19.49,19.49,0,0,1-5.81-1.21c-1.72-.59-3.23-1.52-3.28-3.85,0-2.12,1.26-2.94,2.78-3.66,4.73-2.26,9.18-3.84,14.2.15,3.95,3.14,8.77,5.18,13.2,7.71Z"/><path class="cls-1" d="M728.17,373c0-4.17-3.39-6.06-7.21-4.33a10.65,10.65,0,0,0-3.67,3.3q-10.65,12.91-21.32,25.8c-5.16,6.26-5.08,6.22-10.22.06-7.36-8.83-14.84-17.55-22.22-26.35-2.08-2.49-4.54-4.09-7.82-3.12-3.75,1.11-2.84,4.41-2.85,7.13,0,10.83,0,21.66-.07,32.49,0,3.23.22,5.38,4.42,5.33s4-2.46,4-5.27c0-8.11,0-16.21,0-24.32l1.12-.4c7.29,8.85,14.51,17.75,21.89,26.52,4.3,5.11,9.12,4.93,13.34-.28,6-7.36,11.89-14.79,17.93-22.11,1.15-1.4,2-3.32,4.36-3.82,0,8.84.06,17.33,0,25.82,0,3.28,1.76,3.77,4.48,3.77s4-.87,3.95-3.74C728.17,397.37,728.27,385.21,728.17,373Z"/><path class="cls-1" d="M2012.21,390.55c0-6.67-2.16-9.78-8.76-11.32a71.88,71.88,0,0,0-29.19-.72c-8.12,1.45-10.36,4.46-10.77,12.79-.12,2.49-.14,5-.15,7.48,0,8.72,2.23,11.53,10.7,13.41,9.22,2.05,18.58.29,29,1.22-4.9,2.84-9.33,2.83-13.76,2.72-2.44-.06-3.9,1-3.77,3.48.12,2.28,1.26,3.51,3.83,3.58,5.54.16,11-.28,16.15-2.36,4.32-1.74,7.05-4.57,6.81-9.82C2012,404.21,2012.23,397.37,2012.21,390.55Zm-8.88,14.57c-2.55,3-8.43.54-12,1-3.79,0-6.79.12-9.77,0-2.13-.12-4.51-.12-6.31-1.05-6.9-3.57-2.36-10-3.36-15.14-.64-3.26,1.82-4.51,4.88-4.9a87.29,87.29,0,0,1,21.36.22c4.26.51,6.48,2.72,6.06,7.37C2003.79,396.87,2005.51,402.55,2003.34,405.12Z"/><path class="cls-1" d="M870.15,377.49c-2.48.31-3.58,2-4.6,4.06-3.26,6.48-6.65,12.89-10.39,20.08-3.67-6.73-7-12.81-10.3-18.92-1.31-2.42-2.67-4.63-5.92-4.56-3,.07-4.3,2.16-5.52,4.4L823,401.67c-4-7.73-7.53-14.51-11.05-21.29-1.62-3.11-4.33-3.7-7.17-2.35-3.2,1.51-1.37,4-.4,6,4.06,8.2,8.32,16.3,12.33,24.52,1.3,2.67,3.08,4.33,6.05,4.38s4.72-1.87,6-4.41c3.21-6.14,6.57-12.19,10.29-19,3.86,7.18,7.18,13.62,10.75,19.93,2.53,4.47,8,4.74,10.34.43,4.83-8.92,9.34-18,14-27,.73-1.41,1.3-2.86.1-4.16A4.62,4.62,0,0,0,870.15,377.49Z"/><path class="cls-1" d="M1063.4,370.67c-2.77-3.9-8.15-4.27-10.77-.37-8.4,12.56-16.54,25.29-24.81,37.95-1.15,1.77-1.41,3.37.5,4.76s3.8,1.17,5.23-.71a65,65,0,0,0,5.13-7.34c1.6-2.83,3.71-3.7,6.91-3.61,8.14.23,16.3.21,24.44,0,3.31-.08,5.64.65,7.34,3.74a56.87,56.87,0,0,0,5.49,7.69c1.44,1.82,3.52,1.78,5.46,1,1.56-.62,2-2.11,1.94-3.72s-.94-2.79-1.81-4Q1075.94,388.35,1063.4,370.67Zm-17,23.36c3.81-5.52,7.24-10.49,10.67-15.46.84-1.22,1.49-.84,2.2.22,3.28,4.9,6.6,9.76,10.32,15.24Z"/><path class="cls-1" d="M930.2,388.85c.1-4.89-2.56-7.91-6.78-9.38-5.24-1.82-10.8-1.67-16.29-1.58a2.73,2.73,0,0,0-3,3.2c.09,1.84.82,3.23,2.94,3.28,1.66,0,3.34-.1,5,.08,3.17.35,6.57.11,10.15,3.61-11.06,0-20.87-.22-30.67.06-9.44.28-13.68,5.1-13.19,14.17.33,6.08,4.88,10.4,12.72,10.75,9.46.43,19,.4,28.43,0,7.46-.35,10.52-4.13,10.66-11.68C930.27,397.16,930.11,393,930.2,388.85Zm-12.56,17.23c-4.31.24-8.64.05-13,.05v0c-4,0-8,.22-12-.07-3-.22-5.87-.87-6-5.1s2.47-5.68,5.85-5.79c9-.27,18-.16,26.93-.28,3.36,0,2.48,2.47,2.59,4.22C922.27,402.46,922,405.83,917.63,406.08Z"/><path class="cls-1" d="M1177.28,377.85c-2.28,0-5-.47-5.1,3.08-.07,3.74,2.74,3.51,5.26,3.55,4.08.06,8.23-.17,11.61,3.52h-4.35c-8.65,0-17.31-.16-25.95.19-7,.28-11.77,4.26-12.36,9.44-1,8.63,1.46,12.28,9.66,14.85a19.54,19.54,0,0,0,5.89.77c7.15,0,14.31,0,21.46,0,11.43-.09,15.2-3.88,14.94-14.74C1197.91,380.41,1195.47,377.66,1177.28,377.85ZM1190.07,398c-.16,3.45.76,7.78-4.32,8-8.63.36-17.3.25-25.93,0-2.93-.09-5.21-1.54-5.16-5.37s2.31-5.15,5.25-5.35c4.8-.33,9.64-.09,14.46-.09v-.25c3.66,0,7.32,0,11,0C1187.5,395,1190.25,394.12,1190.07,398Z"/><path class="cls-1" d="M1715.19,388.74c.08-4.65-2.39-7.62-6.41-9.14-5.38-2-11.11-1.8-16.76-1.72-2,0-3,1.31-2.85,3.29s.95,3.16,3.05,3.17a36.74,36.74,0,0,1,5,.11c3.11.45,6.59-.08,9.85,3.56-10.79,0-20.44-.2-30.07.05-10.27.27-14.66,5.46-13.45,15.27.62,5,4.24,8.8,11.19,9.49a168.4,168.4,0,0,0,30.9,0c6.66-.57,9.4-4.37,9.55-11.15C1715.26,397.4,1715.11,393.07,1715.19,388.74Zm-11.74,17.14a144.67,144.67,0,0,1-27.38,0c-2.58-.24-4.37-1.79-4.41-5,0-3.42,1.72-5.21,4.56-5.42,5-.37,10-.1,14.94-.1v-.37c3.83,0,7.65,0,11.47,0,2,0,4.58-.79,4.42,2.86C1706.91,401.06,1708,405.44,1703.45,405.89Z"/><path class="cls-1" d="M1906.46,378.11a84.48,84.48,0,0,0-26.85.22c-7.66,1.38-12.06,4.8-11.29,13.59.26,3,0,6,.05,9,.09,5.9,3,9.6,8.65,11.27,4.89,1.45,9.9.91,14.87,1.08,2.13.08,3.69-.6,3.74-2.93s-.9-3.87-3.47-4c-2.33-.08-4.66-.2-7-.23a8.83,8.83,0,0,1-7-3.17c-.65-.77-1.31-1.63-.91-2.69.45-1.23,1.64-.88,2.57-.89,5.66,0,11.32,0,17,0,5.5,0,11,0,16.49,0,1.56,0,3.14.35,4-1.92C1920.8,388.18,1916.23,379.5,1906.46,378.11Zm2.85,12.23c-.26,2.69-2.37,1.82-3.83,1.86-4.32.11-8.65,0-13,0-3.83,0-7.66.12-11.48-.05-1.54-.07-3.9,1.15-4.24-1.92s1.36-4.53,3.85-4.89c6.41-.92,12.87-1.69,19.37-.66,2.12.34,4.26.64,6.35,1.13C1908.68,386.39,1909.53,388.05,1909.31,390.35Z"/><path class="cls-1" d="M777.67,379.23c-4.32-1.38-8.86-1.35-13.34-1.37-2.26,0-5-.5-5.14,3-.11,3.74,2.71,3.57,5.23,3.57,4.11,0,8.24-.18,11.63,3.53h-3.31c-8.65,0-17.31-.12-26,.09-7.78.19-12.48,3.78-13.16,9.52-1.14,9.64,3,15,12.78,15.45,9.29.45,18.64.36,27.94,0,7.47-.31,10.68-4,10.85-11.49.09-4.32,0-8.65,0-13C785.18,383.42,782.13,380.66,777.67,379.23Zm-.52,19.35c-.22,3.6.15,7.46-4.94,7.55-8.31.14-16.63.17-24.94-.09-3.11-.1-5.66-1.34-5.59-5.48s2.68-5.17,5.77-5.36c4.64-.29,9.31-.07,14-.07v-.21c3.49,0,7,0,10.48,0C774.44,394.95,777.42,394.15,777.14,398.58Z"/><path class="cls-1" d="M2055.05,378.19a89,89,0,0,0-27.85.18c-7.93,1.28-10.79,5.31-10.84,13.5,0,3,0,6,0,9,.08,5.91,3,9.64,8.61,11.31,5.05,1.5,10.23.91,15.37,1.09,2.06.07,3.21-.9,3.29-2.85s-.58-3.74-2.89-4c-2.48-.23-5-.29-7.48-.3a9.11,9.11,0,0,1-6.73-2.74c-.83-.84-1.72-1.81-1.33-3,.48-1.51,1.94-.94,3-1,5.49,0,11,0,16.48,0v0c5.66,0,11.32,0,17,0,1.45,0,2.78.11,3.57-1.82C2068.81,388.88,2064.24,379.61,2055.05,378.19Zm2.21,12.44c-.33,2.29-2.23,1.55-3.56,1.58-4.33.09-8.66,0-13,0-4,0-8,.07-12,0-1.61,0-3.86.86-4-2.22a4,4,0,0,1,3.67-4.55c6.41-.94,12.87-1.73,19.37-.78,2.29.33,4.58.75,6.82,1.3C2057,386.56,2057.58,388.44,2057.26,390.62Z"/><path class="cls-1" d="M997.25,378.22a89.05,89.05,0,0,0-27.85.11c-8,1.25-11,5.32-11,13.34,0,3.16-.06,6.33,0,9.49.12,5.56,3.08,9.37,8.42,11s10.56,1,15.87,1.1c1.79,0,2.94-.81,3-2.58s-.45-3.83-2.7-4.15a46.64,46.64,0,0,0-7-.33c-3,0-5.62-.67-7.64-3-.75-.85-1.65-1.82-1-3.1s1.75-.71,2.68-.71c5.66,0,11.32,0,17,0,5.5,0,11,0,16.49,0,1.39,0,2.84.34,3.72-1.61C1010.9,389.51,1006.21,379.66,997.25,378.22Zm2.26,12.54c-.37,2.19-2.32,1.43-3.67,1.45-4.32.08-8.64,0-13,0-4,0-8,.11-12,0-1.55-.06-3.89,1.1-4.16-2s1.48-4.44,4-4.81c6.24-.95,12.53-1.64,18.84-.73a62.51,62.51,0,0,1,7.29,1.4C999.17,386.67,999.88,388.6,999.51,390.76Z"/><path class="cls-1" d="M2212.45,378.11a80.54,80.54,0,0,0-26.84.25c-8.44,1.63-11.48,4.68-11.24,13.13.07,2.33,0,4.66,0,7,0,9.6,4,13.9,13.62,14.63a13.94,13.94,0,0,0,4.48,0c3.1-.82,8.59,2.71,9-2.84.4-6.1-5.45-3.68-8.77-4s-6.3-.56-8.5-3.3c-.62-.78-1.31-1.63-.9-2.7.47-1.23,1.65-.87,2.58-.88,5.66,0,11.32,0,17,0,5.5,0,11,0,16.49,0,1.56,0,3.13.36,4-1.92C2226.75,388.13,2222.25,379.54,2212.45,378.11Zm3.09,12.42c-.33,2.6-2.52,1.62-4,1.67-4.15.12-8.31,0-12.46,0s-8.31.08-12.46,0c-1.43,0-3.53.9-3.86-1.78s.82-4.34,3.24-4.82a57,57,0,0,1,26.61.37C2214.95,386.53,2215.81,388.32,2215.53,390.53Z"/><path class="cls-1" d="M1649.37,378.23a83.49,83.49,0,0,0-27.84.14c-7.17,1.31-11.71,4-11,13.23.26,3.13-.2,6.32-.19,9.48,0,5.57,3,9.45,8.31,11s10.56,1,15.86,1.13c2,0,3.2-.9,3.1-3s-.71-3.68-3.06-3.84-4.66-.27-7-.27a9.21,9.21,0,0,1-6.83-2.5c-.93-.92-2.09-1.94-1.49-3.43s2-.81,3.09-.82c5.49-.06,11,0,16.49,0s11,0,16.49,0c1.39,0,2.87.37,3.8-1.5C1663.08,389.88,1658.24,379.6,1649.37,378.23Zm1.94,12.11c-.4,3-2.76,1.79-4.32,1.85-4,.17-8,.06-12,.05-4.16,0-8.33.07-12.49,0-1.44,0-3.5.84-3.77-1.91s1.06-4.35,3.38-4.75a58.78,58.78,0,0,1,13.88-1.19c3.81.26,7.63.57,11.39,1.17C1649.91,385.92,1651.71,387.35,1651.31,390.33Z"/><path class="cls-1" d="M1262.65,377.77c-3.84-.12-4.36,1.9-4.31,5,.1,6.66,0,13.32,0,20,0,1.68.17,3.41-2.4,3.39-8.16-.09-16.32.09-24.47-.25-3.71-.15-5.92-2.18-5.63-6.57.36-5.47,0-11,.12-16.48.08-3.11-.43-5.12-4.25-5.06-3.6.05-4,2-3.92,4.85.11,6.33,0,12.66,0,19,0,5.86,2.4,9,8,10.4a34.44,34.44,0,0,0,8.88,1.17c7.49-.12,15,0,22.47,0-3.36,3.33-7.5,2.87-11.55,2.93-2.39,0-5.3-.75-5.28,3.3s2.77,3.71,5.53,3.8a56.35,56.35,0,0,0,12.41-1.08c5.42-1,8.38-4.57,8.42-10.13.08-9.83,0-19.65.06-29.48C1266.82,379.49,1266.06,377.88,1262.65,377.77Z"/><path class="cls-1" d="M1569,378.18c-6.82-.18-13.66-.33-20.46,0-4.67.23-7.69-.22-6.94-6.1.34-2.64-1.37-4.1-4.41-4s-4.12,1.48-4.09,4.31c.05,6,0,12,0,18,0,5.82,0,11.65,0,17.47,0,3.13.29,5.52,4.46,5.51,4,0,4.17-2.48,4.19-5.26,0-6.49.09-13,0-19.47,0-2.42.49-3.64,3.27-3.58,7.65.17,15.31.05,23,.14,4.14,0,6.44,1.81,6.22,6.43-.26,5.48,0,11-.08,16.47,0,2.87.09,5.17,4.09,5.25,4.17.09,4.6-2.27,4.59-5.38,0-5.32.09-10.65,0-16C1582.54,382.55,1578.49,378.43,1569,378.18Z"/><path class="cls-1" d="M1368.52,392.17c-2.47-.29-5-.23-7.48-.32-5.48-.19-11,.46-16.44-.65-1.92-.39-3.7-.79-3.75-3.16-.06-2.87,2.18-3,4.18-3.09,3.16-.13,6.33-.05,9.49-.13,2.34-.06,3.66-1,3.56-3.69-.09-2.39-1.23-3.31-3.41-3.26-4.33.11-8.7-.09-13,.49-7,.95-9.91,4.72-9.33,11.12.44,4.81,3.92,7.7,10,8.72,7.29,1.23,14.63.39,21.93.84,2.3.14,4.61.68,4.56,3.5s-2.21,3.47-4.55,3.63c-1.49.1-3,.12-4.49.13-7.66,0-15.33.06-23,0-2.65,0-4.21,1.06-4.33,3.66-.14,3,1.84,3.41,4.32,3.36,4.83-.1,9.66,0,15.61,0,5.17-.5,11.55,1,17.75-.93,5.54-1.68,7.85-5.1,7.44-10.79S1374.33,392.85,1368.52,392.17Z"/><path class="cls-1" d="M1305.73,392.12c-2.48-.22-5-.18-7.49-.27-5.15-.18-10.32.44-15.44-.63-2.07-.43-4.12-.76-3.95-3.47s2.49-2.74,4.46-2.81c3-.11,6,0,9-.1,2.23-.06,3.8-.75,3.78-3.5s-1.31-3.55-3.71-3.48c-4.16.14-8.36,0-12.48.47-7,.88-10,4.58-9.54,11,.38,4.87,3.82,7.91,9.8,8.9,7.29,1.21,14.63.45,21.94.84,2.21.12,4.68.4,4.75,3.28s-2.3,3.73-4.8,3.89c-1.49.1-3,.1-4.5.1-7.66,0-15.33.06-23,0-2.78,0-4,1.37-4,3.9s1.75,3.15,4.06,3.1c4.83-.1,9.66,0,15.66,0,5-.42,11.18.85,17.24-.71,6.21-1.6,8.62-5.13,8-11.27C1315,395.43,1312.08,392.67,1305.73,392.12Z"/><path class="cls-1" d="M2167.28,406.31l-26,0c-11.51,0-12.08-.59-12.1-12.07,0-8.39.87-9.3,9.5-9.35,9.66-.06,19.31,0,29,0,2.41,0,4.26-.71,4.32-3.63.06-3.16-2-3.36-4.36-3.36h-16.48v.08c-5.49,0-11,0-16.48,0a24.7,24.7,0,0,0-2.49.18c-7.58.79-11,4.49-11.07,12,0,3.16,0,6.33,0,9.49,0,9.33,3.7,13.32,13.23,13.5,11,.21,22,.11,33,.14,2.39,0,4.83.19,4.79-3.39C2172,406.45,2169.75,406.31,2167.28,406.31Z"/><path class="cls-1" d="M1834,389.89c0-7.43-3.12-11-10.63-11.66-4.29-.38-8.64-.07-13-.07v0c-4.49,0-9-.24-13.46.05-8.08.53-11.4,4-11.59,11.88-.15,6.15,0,12.31-.06,18.46,0,3.26,1.09,4.85,4.66,4.8s4-2.21,4-4.92c0-6,.18-12-.08-18-.17-3.95,1.54-5.46,5.22-5.45,7,0,14,0,21,0,4.05,0,6.06,1.69,5.87,6.08-.26,6,0,12-.09,18,0,2.83.78,4.28,3.94,4.33,3.31.05,4.39-1.31,4.33-4.46C1834,402.54,1834.07,396.21,1834,389.89Z"/><path class="cls-1" d="M2117,398.35c0-2.83,0-5.66,0-8.48-.05-7.29-2.88-10.89-10.15-11.58a153.43,153.43,0,0,0-27.92,0c-7.27.63-10.19,4-10.47,11.35-.24,6.31-.09,12.64-.15,19,0,2.85.68,4.72,4.17,4.77,3.33,0,4.45-1.35,4.42-4.43-.07-6.15.18-12.32-.07-18.46-.17-4,1.6-5.44,5.25-5.44,7.15,0,14.3-.06,21.46,0,3.6,0,5.44,1.68,5.32,5.57-.18,6,0,12-.08,18,0,2.85.36,4.76,4,4.82,3.83.07,4.42-1.9,4.3-5C2117,405,2117,401.68,2117,398.35Z"/><path class="cls-1" d="M1142,398.51h0c0-2.83,0-5.66,0-8.48,0-7.46-3.06-11.14-10.52-11.79a163.41,163.41,0,0,0-27.42,0c-7.28.59-10.3,3.92-10.6,11.22-.26,6.31-.08,12.64-.18,19,0,3.14.85,5,4.53,4.94s4.1-2,4.08-4.8c0-6.15.13-12.31-.06-18.46-.1-3.39,1.24-5,4.56-5,7.48,0,15-.09,22.45,0,3.42,0,5.08,1.75,5,5.35-.14,6.32.06,12.64-.07,19-.07,3.17,1.46,4,4.29,4s4-1,3.94-3.81C1142,405.83,1142,402.17,1142,398.51Z"/><path class="cls-1" d="M1525.46,368.11c-7,.1-14,0-21,0-6.82,0-13.65.07-20.47,0-2.7,0-4.62.45-4.62,3.66,0,3.39,2.24,3.5,4.77,3.44,3.66-.08,7.34.22,11-.08,3.81-.32,5.21.76,5.08,4.85-.32,9.48,0,19-.14,28.46,0,3.28.94,4.84,4.53,4.89,3.77.06,4.41-1.75,4.37-4.93-.12-9.32.14-18.65-.15-28-.12-4,.68-5.8,5.08-5.33,3.79.4,7.65.06,11.47.1,2.28,0,4.5,0,4.53-3.14C1529.95,369.07,1528.32,368.07,1525.46,368.11Z"/><path class="cls-1" d="M1863.42,378.1c-2.32.05-4.68-.23-7,0-3.66.43-5.22-.75-4.75-4.6.38-3.12-.3-5.53-4.44-5.47-4,.06-4.16,2.56-4.15,5.35,0,2.54.39,5-3.53,5-1.59,0-1.7,1.75-1.73,3.12s.16,3.1,1.73,3.14c4.18.1,3.54,2.93,3.52,5.52s0,5.32,0,8c0,3.49,0,7,0,10.47-.07,3.3,1.26,4.76,4.75,4.73,3.7,0,3.92-2.23,3.92-4.92,0-6.65.09-13.3,0-19.94-.05-2.58.8-3.59,3.42-3.43a80.34,80.34,0,0,0,8.47,0,3.13,3.13,0,0,0,3.27-3.58C1866.77,379.33,1865.75,378,1863.42,378.1Z"/><path class="cls-1" d="M1744.48,378.1c-2.49,0-5-.17-7.48,0-3.09.26-4.66-.53-4.31-4,.31-3.09.24-6.09-4.38-6-4.78.06-4.12,3.38-4.17,6.28,0,2.11.1,4-3,3.87-1.92-.08-2.31,1.47-2.34,3.14s.35,3.39,2.09,3.43c3.62.08,3.24,2.39,3.21,4.72,0,3,0,6,0,9,0,3.49,0,7,0,10.48,0,3.19,1.47,4.32,4.61,4.35s4-1.57,4-4.29c0-5.16,0-10.31,0-15.47,0-8.49,0-8.49,8.26-8.5,1.16,0,2.33,0,3.49,0,2.17-.13,3.45-1.36,3.37-3.5C1747.79,379.55,1746.87,378,1744.48,378.1Z"/><path class="cls-1" d="M2262,175.21c-11.9,0-21.1,9.8-21.12,22.42,0,12.83,8.85,22.41,20.87,22.52,12.33.11,21.61-9.36,21.81-22.25C2283.73,185.48,2273.93,175.16,2262,175.21Zm.45,40.89c-9.64.2-17.63-8-17.74-18.21s8-18.7,17.45-18.62c9.13.08,17.35,8.71,17.48,18.33S2271.59,215.91,2262.44,216.1Z"/><path class="cls-1" d="M1957.51,375.9c1.59-1.81,1.65-4.27-.3-5.75a6.07,6.07,0,0,0-7.82.13c-2,1.61-1.89,3.72-.17,5.67.56.64,1.8.79,1.13,2.24-2.62,5.7-.53,11.77-1.24,16.51,0,5.44,0,9.75,0,14.07,0,3,1,4.56,4.37,4.57s4.32-1.6,4.31-4.58c0-9,0-17.93,0-26.89,0-1,0-2.34-.62-2.8C1955.15,377.54,1956.49,377.06,1957.51,375.9Z"/><path class="cls-1" d="M1328.35,375.91a3.58,3.58,0,0,0-.07-5.68,6,6,0,0,0-7.8,0c-2,1.59-2,3.65-.33,5.65.55.67,1.91.89,1.26,2.24-2.73,5.7-.5,11.76-1.3,16.54,0,4.87,0,8.69,0,12.5,0,3-.47,6.09,4.24,6.2s4.39-2.92,4.4-6c0-8,0-15.92,0-23.89,0-1.46.11-3.23-.63-4.32C1327.13,377.73,1326.69,377.27,1328.35,375.91Z"/><path class="cls-1" d="M953.07,377.82c-4,.15-8,0-11.87,1.21-5.33,1.6-7.73,4.51-7.86,10.07-.08,3.16,0,6.33,0,9.49,0,3.33.07,6.66,0,10-.08,2.85.36,4.78,4,4.77s4.56-1.75,4.5-4.94c-.1-5.16,0-10.33,0-15.49,0-6.56,1.55-8.18,8.07-8.38,1,0,2,.22,3,.24,2.31,0,4-.89,4-3.4S955.6,377.73,953.07,377.82Z"/><path class="cls-1" d="M1605.18,377.82c-4,.13-8,0-11.87,1.18-5.41,1.62-7.78,4.4-8,10-.1,3.33,0,6.66,0,10s.06,6.66,0,10c-.06,2.7.53,4.42,3.85,4.35,3-.06,4.71-.84,4.62-4.22-.14-5.16,0-10.32,0-15.49,0-7.61,1.66-9.21,9.38-9.05a16.49,16.49,0,0,0,2,.19c2-.21,3.66-.89,3.69-3.24S1607.76,377.74,1605.18,377.82Z"/><path class="cls-1" d="M1780.22,390.74q0-8.48,0-17c0-2.84.45-5.68-4.07-5.73-4.32,0-4.33,2.39-4.32,5.46.06,11.64.11,23.28,0,34.92,0,3.21.59,4.89,4.31,4.92,4,0,4.16-2.23,4.12-5.15C1780.18,402.38,1780.22,396.56,1780.22,390.74Z"/><path class="cls-1" d="M1929.95,391.16c0-6.32-.09-12.64,0-19,.06-3-1.13-4.1-4.12-4.14s-4.07,1.3-4.05,4.2q.1,18.45,0,36.91c0,3,1.16,4.13,4.15,4.13s4.1-1.25,4-4.2C1929.86,403.14,1929.95,397.15,1929.95,391.16Z"/><path class="cls-1" d="M1944,390.75c0-6.15-.09-12.31,0-18.46.06-3-1-4.19-4-4.22s-4.16,1.11-4.14,4.1q.12,18.46,0,36.91c0,2.92,1,4.22,4.06,4.22s4.19-1.06,4.12-4.1C1943.86,403.06,1944,396.9,1944,390.75Z"/><path class="cls-1" d="M1212,390.63h0c0-6.15-.1-12.3,0-18.45.07-3-1.18-4.06-4.14-4.11-3.14,0-4,1.36-4,4.22q.1,18.45,0,36.9c0,3,1.21,4.08,4.17,4.11s4.06-1.32,4-4.23C1211.87,402.93,1212,396.78,1212,390.63Z"/><path class="cls-1" d="M798.93,390.82c0-6.32-.07-12.64,0-19,0-2.87-1.3-3.76-4-3.76s-4.19.52-4.17,3.51c.05,12.64.08,25.27,0,37.91,0,3.31,1.82,3.75,4.47,3.78,2.91,0,3.7-1.41,3.67-4C798.88,403.13,798.94,397,798.93,390.82Z"/><path class="cls-1" d="M2269.21,204.63c-2-1.47-4-3-6.66-4.87,8.74-.51,9.77-1.43,9.64-7.69-.11-5.27-2.26-6.88-9.13-6.87-3.16,0-6.33,0-9.49,0-1.54,0-2.58.33-2.57,2.15,0,6.66,0,13.33,0,20,0,1.16.46,1.91,1.69,2s2.31-.34,2.31-1.9c0-2.16,0-4.33,0-7.5l11.72,7.87c1.63,1.1,3.69,2.94,5.15.8S2270.62,205.65,2269.21,204.63Zm-11.09-8.49c-2.91.29-3.17-1.2-3.16-3.53s.17-4,3.11-3.56a26.17,26.17,0,0,0,3.49,0v.07c1.33,0,2.66,0,4,0,2.37.07,3.11,1.57,3.07,3.66s-1,3.16-3,3.23C2263.1,196.14,2260.58,195.9,2258.12,196.15Z"/></g></g></svg>