<?xml version="1.0" encoding="utf-8"?>
<!-- Generator: Adobe Illustrator 24.0.0, SVG Export Plug-In . SVG Version: 6.00 Build 0)  -->
<svg version="1.1" id="Layer_1" xmlns="http://www.w3.org/2000/svg" xmlns:xlink="http://www.w3.org/1999/xlink" x="0px" y="0px"
	 viewBox="0 0 459.76 459.76" style="enable-background:new 0 0 459.76 459.76;" xml:space="preserve">
<style type="text/css">
	.st0{fill:#FFFFFF;}
	.st1{fill-rule:evenodd;clip-rule:evenodd;fill:#231F20;}
	.st2{fill:#231F20;}
	.st3{fill:#CF202F;}
</style>
<g>
	<path class="st0" d="M444.6,406.29c0,21.16-17.15,38.32-38.31,38.32H53.47c-21.16,0-38.31-17.16-38.31-38.32V53.47
		c0-21.16,17.16-38.31,38.31-38.31h352.82c21.16,0,38.31,17.16,38.31,38.31V406.29L444.6,406.29z"/>
	<path class="st1" d="M406.63,0.01l0.34,0l0.34,0.01l0.34,0.01L408,0.03l0.34,0.01l0.34,0.01l0.34,0.02l0.34,0.02l0.34,0.02
		l0.34,0.02l0.34,0.03l0.34,0.03l0.34,0.03l0.34,0.03l0.34,0.03l0.34,0.04l0.33,0.04l0.34,0.04l0.33,0.04l0.33,0.04l0.33,0.05
		l0.33,0.05l0.33,0.05l0.33,0.05l0.33,0.05l0.33,0.06l0.33,0.06l0.33,0.06l0.33,0.06l0.33,0.06l0.33,0.07l0.33,0.07l0.33,0.07
		l0.33,0.07l0.32,0.07l0.32,0.07L419,1.53l0.32,0.08l0.32,0.08l0.32,0.08l0.32,0.09l0.32,0.09l0.32,0.09l0.32,0.09l0.32,0.09
		l0.32,0.1l0.32,0.1l0.32,0.1l0.31,0.1l0.31,0.1l0.31,0.1l0.31,0.11l0.31,0.11l0.31,0.11l0.31,0.11l0.31,0.11l0.3,0.11l0.31,0.12
		l0.3,0.12l0.3,0.12l0.3,0.12l0.3,0.13l0.3,0.13l0.3,0.13l0.3,0.13L428,4.6l0.3,0.13l0.3,0.13l0.29,0.14l0.29,0.14l0.29,0.14
		l0.29,0.14l0.29,0.14l0.29,0.15l0.29,0.14l0.29,0.15l0.29,0.15l0.28,0.15l0.29,0.15l0.28,0.16l0.28,0.16l0.28,0.16l0.28,0.16
		l0.28,0.16l0.28,0.16l0.28,0.17l0.28,0.17l0.28,0.17l0.27,0.17l0.27,0.17l0.27,0.17l0.27,0.17l0.27,0.18l0.27,0.18l0.27,0.18
		l0.27,0.18l0.26,0.18l0.26,0.18l0.26,0.19l0.26,0.19l0.26,0.19l0.26,0.19l0.26,0.19l0.26,0.19l0.26,0.2l0.25,0.2l0.25,0.2l0.25,0.2
		l0.25,0.2l0.25,0.2l0.25,0.2l0.25,0.21l0.25,0.21l0.24,0.21l0.24,0.21l0.24,0.21l0.24,0.21l0.24,0.21l0.24,0.22l0.24,0.21
		l0.24,0.22l0.24,0.22l0.23,0.22l0.23,0.22l0.23,0.23l0.23,0.22l0.23,0.22l0.23,0.23l0.22,0.23l0.22,0.23l0.22,0.23l0.22,0.23
		l0.22,0.24l0.22,0.24l0.21,0.24l0.22,0.24l0.21,0.24l0.21,0.24l0.21,0.24l0.21,0.25l0.21,0.24l0.21,0.25l0.2,0.25l0.2,0.25
		l0.2,0.25l0.2,0.25l0.2,0.25l0.2,0.25l0.2,0.25l0.19,0.25l0.2,0.26l0.19,0.26l0.19,0.26l0.19,0.26l0.18,0.26l0.19,0.26l0.18,0.26
		l0.18,0.26l0.18,0.27l0.18,0.26l0.18,0.27l0.18,0.27l0.17,0.27l0.17,0.28l0.17,0.27l0.17,0.27l0.17,0.28l0.17,0.28l0.17,0.28
		l0.16,0.28l0.16,0.28l0.16,0.28l0.16,0.28l0.16,0.28l0.16,0.28l0.15,0.29l0.15,0.29l0.15,0.29l0.15,0.29l0.15,0.29l0.14,0.29
		l0.14,0.29l0.14,0.29l0.14,0.29l0.14,0.29l0.14,0.3l0.14,0.29l0.13,0.3l0.13,0.3l0.13,0.3l0.13,0.3l0.13,0.3l0.13,0.3l0.12,0.3
		l0.12,0.3l0.12,0.3l0.12,0.3l0.12,0.31l0.11,0.3l0.11,0.31l0.11,0.31l0.11,0.31l0.1,0.31l0.1,0.31l0.1,0.31l0.1,0.32l0.1,0.31
		l0.1,0.32l0.1,0.32l0.09,0.32l0.09,0.32l0.09,0.32l0.09,0.32l0.09,0.32l0.08,0.32l0.08,0.32l0.08,0.32l0.08,0.32l0.07,0.32
		l0.07,0.33l0.07,0.33l0.07,0.33l0.07,0.33l0.07,0.33l0.06,0.33l0.06,0.33l0.06,0.33l0.06,0.33l0.06,0.33l0.05,0.33l0.05,0.33
		l0.05,0.33l0.05,0.33l0.05,0.33l0.04,0.33l0.04,0.34l0.04,0.33l0.04,0.34l0.04,0.34l0.03,0.34l0.03,0.34l0.03,0.34l0.03,0.34
		l0.03,0.34l0.02,0.34l0.02,0.34l0.02,0.34l0.02,0.34l0.01,0.34l0.01,0.34l0.01,0.34l0.01,0.34l0.01,0.34l0,0.34l0,0.32v352.86v0.32
		l0,0.34l-0.01,0.34l-0.01,0.34l-0.01,0.34l-0.01,0.34l-0.01,0.34l-0.02,0.34l-0.02,0.34l-0.02,0.34l-0.02,0.34l-0.03,0.34
		l-0.03,0.34l-0.03,0.34l-0.03,0.34l-0.03,0.33l-0.04,0.34l-0.04,0.34l-0.04,0.33l-0.04,0.34l-0.04,0.33l-0.05,0.33l-0.05,0.33
		l-0.05,0.33l-0.05,0.33l-0.05,0.33l-0.06,0.33l-0.06,0.33l-0.06,0.33l-0.06,0.33l-0.06,0.33l-0.07,0.33l-0.07,0.33l-0.07,0.33
		l-0.07,0.33l-0.07,0.32l-0.07,0.32l-0.08,0.32l-0.08,0.32l-0.08,0.32l-0.08,0.32l-0.09,0.32l-0.09,0.32l-0.09,0.32l-0.09,0.32
		l-0.09,0.32l-0.09,0.32l-0.1,0.32l-0.1,0.31l-0.1,0.32l-0.1,0.31l-0.1,0.31l-0.1,0.31l-0.11,0.31l-0.11,0.31l-0.11,0.31l-0.11,0.31
		l-0.12,0.31l-0.12,0.3l-0.12,0.3l-0.12,0.3l-0.12,0.3l-0.13,0.3l-0.13,0.3l-0.13,0.3l-0.13,0.3l-0.13,0.3l-0.13,0.3l-0.14,0.3
		l-0.14,0.3l-0.14,0.29l-0.14,0.29l-0.14,0.29l-0.14,0.29l-0.14,0.29l-0.15,0.29l-0.15,0.29l-0.15,0.29l-0.15,0.29l-0.15,0.29
		l-0.15,0.28l-0.16,0.28l-0.16,0.28l-0.16,0.28l-0.16,0.28l-0.16,0.28l-0.16,0.28l-0.17,0.28l-0.17,0.28l-0.17,0.27l-0.17,0.28
		l-0.17,0.27l-0.17,0.27l-0.17,0.27l-0.18,0.27l-0.18,0.26l-0.18,0.27l-0.18,0.26l-0.18,0.26l-0.18,0.26l-0.19,0.26l-0.19,0.26
		l-0.19,0.26l-0.19,0.26l-0.2,0.26l-0.19,0.25l-0.2,0.25l-0.2,0.25l-0.2,0.25l-0.2,0.25l-0.2,0.25l-0.2,0.25l-0.21,0.25l-0.21,0.24
		l-0.21,0.24l-0.21,0.25l-0.21,0.24l-0.21,0.24l-0.21,0.24l-0.21,0.24l-0.22,0.24l-0.22,0.23l-0.22,0.24l-0.22,0.23l-0.22,0.23
		l-0.22,0.23l-0.22,0.23l-0.23,0.23l-0.22,0.22l-0.23,0.22l-0.23,0.22l-0.23,0.22l-0.23,0.22l-0.24,0.22l-0.24,0.22l-0.24,0.22
		l-0.24,0.22l-0.24,0.21l-0.24,0.21l-0.24,0.21l-0.24,0.21l-0.25,0.21l-0.24,0.21l-0.25,0.21l-0.25,0.2l-0.25,0.2l-0.25,0.2
		l-0.25,0.2l-0.25,0.2l-0.25,0.2l-0.26,0.19l-0.26,0.2l-0.26,0.19l-0.26,0.19l-0.26,0.19l-0.26,0.19l-0.26,0.18l-0.26,0.18
		l-0.26,0.18l-0.27,0.18l-0.27,0.18l-0.27,0.18l-0.27,0.18l-0.27,0.17l-0.27,0.17l-0.27,0.17l-0.28,0.17l-0.28,0.17l-0.28,0.17
		l-0.28,0.16l-0.28,0.17l-0.28,0.16l-0.28,0.16l-0.28,0.16l-0.28,0.16l-0.29,0.16l-0.29,0.16l-0.28,0.15l-0.29,0.15l-0.29,0.15
		l-0.29,0.15l-0.29,0.15l-0.29,0.14l-0.29,0.14l-0.29,0.14l-0.29,0.14l-0.29,0.14l-0.3,0.14l-0.29,0.13l-0.3,0.13l-0.3,0.13
		l-0.3,0.13l-0.3,0.13l-0.3,0.13l-0.3,0.12l-0.3,0.12l-0.3,0.12l-0.3,0.12l-0.31,0.11l-0.31,0.11l-0.31,0.11l-0.31,0.11l-0.31,0.11
		l-0.31,0.11l-0.31,0.1l-0.31,0.1l-0.31,0.1l-0.32,0.1l-0.32,0.1l-0.32,0.1l-0.32,0.09l-0.32,0.09l-0.32,0.09l-0.32,0.09l-0.32,0.09
		l-0.32,0.08l-0.32,0.08l-0.32,0.08l-0.32,0.08l-0.32,0.07l-0.32,0.07l-0.33,0.07l-0.33,0.07l-0.33,0.07l-0.33,0.07l-0.33,0.06
		l-0.33,0.06l-0.33,0.06l-0.33,0.06l-0.33,0.06l-0.33,0.05l-0.33,0.05l-0.33,0.05l-0.33,0.05l-0.33,0.05l-0.33,0.04l-0.33,0.04
		l-0.34,0.04l-0.34,0.04l-0.33,0.04l-0.34,0.03l-0.34,0.03l-0.34,0.03l-0.34,0.03l-0.34,0.03l-0.34,0.02l-0.34,0.02l-0.34,0.02
		l-0.34,0.02l-0.34,0.01l-0.34,0.01l-0.34,0.01l-0.34,0.01l-0.34,0.01l-0.34,0h-0.32H53.44l-0.32,0l-0.34,0l-0.34-0.01l-0.34-0.01
		l-0.34-0.01l-0.34-0.01l-0.34-0.01l-0.34-0.02l-0.34-0.02l-0.34-0.02l-0.34-0.02l-0.34-0.03l-0.34-0.03l-0.34-0.03l-0.34-0.03
		l-0.34-0.03l-0.33-0.04l-0.34-0.04l-0.34-0.04l-0.33-0.04l-0.33-0.04l-0.33-0.05l-0.33-0.05l-0.33-0.05l-0.33-0.05l-0.33-0.05
		l-0.33-0.06l-0.33-0.06l-0.33-0.06l-0.33-0.06l-0.33-0.06l-0.33-0.07l-0.33-0.07l-0.33-0.07l-0.33-0.07l-0.32-0.07l-0.32-0.07
		l-0.32-0.08l-0.32-0.08l-0.32-0.08l-0.32-0.08l-0.32-0.09l-0.32-0.09l-0.32-0.09l-0.32-0.09l-0.32-0.09l-0.32-0.1l-0.32-0.1
		l-0.32-0.1l-0.31-0.1l-0.31-0.1l-0.31-0.1l-0.31-0.11l-0.31-0.11l-0.31-0.11l-0.31-0.11l-0.31-0.11l-0.31-0.12l-0.3-0.12l-0.3-0.12
		l-0.3-0.12l-0.3-0.12l-0.3-0.13l-0.3-0.13l-0.3-0.13l-0.3-0.13l-0.3-0.13l-0.29-0.13l-0.3-0.14l-0.3-0.14l-0.29-0.14l-0.29-0.14
		l-0.29-0.14l-0.29-0.14l-0.29-0.15l-0.29-0.15l-0.29-0.15l-0.29-0.15l-0.29-0.15l-0.28-0.16l-0.28-0.15l-0.28-0.16l-0.28-0.16
		l-0.28-0.16l-0.28-0.16l-0.28-0.17l-0.28-0.16l-0.28-0.17l-0.28-0.17l-0.28-0.17l-0.27-0.17l-0.27-0.17l-0.27-0.17l-0.27-0.18
		l-0.27-0.18l-0.27-0.18l-0.26-0.18l-0.26-0.18l-0.26-0.18l-0.26-0.18l-0.26-0.19l-0.26-0.19l-0.26-0.19l-0.26-0.19l-0.26-0.2
		l-0.25-0.19l-0.25-0.2l-0.25-0.2l-0.25-0.2l-0.25-0.2l-0.25-0.2l-0.25-0.21l-0.25-0.2l-0.24-0.21l-0.25-0.21l-0.24-0.21l-0.24-0.21
		l-0.24-0.21l-0.24-0.21l-0.24-0.22l-0.24-0.22l-0.23-0.22l-0.24-0.22l-0.23-0.22l-0.23-0.22l-0.23-0.22l-0.23-0.22l-0.23-0.23
		l-0.22-0.23l-0.22-0.23l-0.22-0.23l-0.22-0.23l-0.22-0.23l-0.22-0.23l-0.22-0.24l-0.22-0.24l-0.21-0.24l-0.21-0.24l-0.21-0.24
		l-0.21-0.24l-0.21-0.24l-0.21-0.24l-0.21-0.25l-0.21-0.25l-0.2-0.25l-0.2-0.25l-0.2-0.25l-0.2-0.25l-0.2-0.25l-0.2-0.25l-0.2-0.25
		l-0.19-0.26l-0.19-0.26l-0.19-0.26l-0.19-0.26l-0.19-0.26l-0.19-0.26l-0.18-0.26l-0.18-0.27l-0.18-0.26l-0.18-0.27l-0.18-0.27
		l-0.18-0.27l-0.17-0.27l-0.17-0.27l-0.17-0.28l-0.17-0.27l-0.17-0.27l-0.17-0.28l-0.17-0.28l-0.16-0.28l-0.16-0.28l-0.16-0.28
		l-0.16-0.28l-0.15-0.28l-0.16-0.28l-0.15-0.29l-0.15-0.28l-0.15-0.29l-0.15-0.29l-0.15-0.29l-0.14-0.29l-0.14-0.29l-0.14-0.29
		l-0.14-0.29L5,428.89l-0.14-0.3l-0.14-0.3L4.59,428l-0.13-0.3l-0.13-0.3l-0.13-0.3l-0.13-0.3l-0.13-0.3l-0.12-0.3l-0.12-0.3
		l-0.12-0.3l-0.12-0.3l-0.11-0.31l-0.11-0.31l-0.11-0.31l-0.11-0.31l-0.11-0.31l-0.11-0.31l-0.1-0.31l-0.1-0.31l-0.1-0.32l-0.1-0.31
		l-0.1-0.32l-0.1-0.32l-0.09-0.32l-0.09-0.32l-0.09-0.32l-0.09-0.32l-0.09-0.32l-0.08-0.32l-0.08-0.32L1.52,419l-0.08-0.32
		l-0.07-0.32l-0.07-0.33l-0.07-0.33l-0.07-0.32l-0.07-0.33l-0.07-0.33l-0.06-0.33l-0.06-0.33l-0.06-0.33l-0.06-0.33l-0.06-0.33
		l-0.05-0.33l-0.05-0.33l-0.05-0.33l-0.05-0.33l-0.05-0.33l-0.04-0.33l-0.04-0.33l-0.04-0.33l-0.04-0.34l-0.04-0.34l-0.03-0.34
		l-0.03-0.34l-0.03-0.34l-0.03-0.34l-0.03-0.34l-0.02-0.34l-0.02-0.34l-0.02-0.34l-0.02-0.34l-0.01-0.34L0.03,408l-0.01-0.34
		l-0.01-0.34L0,406.97l0-0.34v-0.32V53.45l0-0.32l0-0.34l0.01-0.34l0.01-0.34l0.01-0.34l0.01-0.34l0.01-0.34l0.02-0.34l0.02-0.34
		l0.02-0.34l0.02-0.34l0.03-0.34l0.03-0.34l0.03-0.34l0.03-0.34l0.03-0.34l0.04-0.33l0.04-0.34l0.04-0.33l0.04-0.33l0.04-0.33
		l0.05-0.33l0.05-0.33l0.05-0.33l0.05-0.33l0.05-0.33l0.06-0.33l0.06-0.33l0.06-0.33l0.06-0.33l0.06-0.33l0.07-0.33l0.07-0.33
		l0.07-0.33l0.07-0.33l0.07-0.32l0.07-0.32l0.08-0.32l0.08-0.32l0.08-0.32l0.08-0.32l0.09-0.32l0.09-0.32l0.09-0.32l0.09-0.32
		l0.09-0.32l0.1-0.32l0.1-0.32l0.1-0.32l0.1-0.31l0.1-0.31l0.1-0.31l0.11-0.31l0.11-0.31l0.11-0.31l0.11-0.31l0.11-0.31l0.11-0.31
		l0.12-0.3l0.12-0.3l0.12-0.3l0.12-0.3l0.13-0.3l0.13-0.3l0.13-0.3l0.13-0.3l0.13-0.3l0.13-0.3l0.14-0.29L5,30.87l0.14-0.29
		l0.14-0.29l0.14-0.29l0.14-0.29l0.14-0.29l0.15-0.29l0.15-0.29l0.15-0.29l0.15-0.28l0.16-0.29l0.15-0.28l0.16-0.28l0.16-0.28
		l0.16-0.28l0.16-0.28l0.16-0.28l0.17-0.28l0.17-0.28l0.17-0.28l0.17-0.28l0.17-0.27l0.17-0.27l0.17-0.27l0.18-0.27l0.18-0.27
		l0.18-0.26l0.18-0.27l0.18-0.26l0.18-0.26l0.18-0.26l0.19-0.26l0.19-0.26l0.19-0.26l0.19-0.26l0.19-0.26l0.2-0.26l0.2-0.25
		l0.2-0.25l0.2-0.25l0.2-0.25l0.2-0.25l0.2-0.25l0.21-0.25l0.21-0.25l0.21-0.25l0.21-0.24l0.21-0.24l0.21-0.24l0.21-0.24l0.21-0.24
		l0.22-0.24l0.22-0.24l0.22-0.24l0.22-0.23l0.22-0.23l0.22-0.23l0.22-0.23l0.22-0.23l0.23-0.22l0.23-0.22l0.23-0.22l0.23-0.22
		l0.23-0.22l0.24-0.22l0.23-0.22l0.24-0.22l0.24-0.21l0.24-0.21l0.24-0.21l0.24-0.21l0.24-0.21l0.25-0.21l0.25-0.21l0.25-0.21
		l0.25-0.2l0.25-0.2l0.25-0.2l0.25-0.2l0.25-0.2l0.25-0.2l0.26-0.2l0.26-0.19l0.26-0.19l0.26-0.19l0.26-0.19l0.26-0.19l0.26-0.19
		l0.26-0.18l0.26-0.18l0.26-0.18l0.27-0.18l0.27-0.18l0.27-0.18l0.27-0.17l0.27-0.17l0.27-0.17l0.28-0.17l0.28-0.17l0.28-0.17
		l0.28-0.17l0.28-0.16l0.28-0.16l0.28-0.16l0.28-0.16l0.28-0.16l0.28-0.15l0.28-0.16l0.29-0.15l0.29-0.15l0.29-0.15l0.29-0.15
		l0.29-0.14l0.29-0.14l0.29-0.14l0.29-0.14L30.87,5l0.29-0.14l0.3-0.14l0.3-0.13l0.3-0.13l0.3-0.13l0.3-0.13l0.3-0.13l0.3-0.13
		l0.3-0.12l0.3-0.12l0.3-0.12l0.31-0.12l0.3-0.11l0.31-0.11l0.31-0.11l0.31-0.11l0.31-0.11l0.31-0.11l0.31-0.1l0.31-0.1l0.31-0.1
		l0.32-0.1l0.32-0.1l0.32-0.1l0.32-0.09l0.32-0.09l0.32-0.09l0.32-0.09l0.32-0.09l0.32-0.08l0.32-0.08l0.32-0.08l0.32-0.08
		l0.32-0.07l0.32-0.07l0.33-0.07l0.33-0.07l0.33-0.07l0.33-0.07l0.33-0.06l0.33-0.06l0.33-0.06l0.33-0.06l0.33-0.06l0.33-0.05
		l0.33-0.05l0.33-0.05l0.33-0.05l0.33-0.05l0.33-0.04l0.33-0.04l0.34-0.04l0.33-0.04l0.34-0.04l0.34-0.03l0.34-0.03l0.34-0.03
		l0.34-0.03l0.34-0.03l0.34-0.02l0.34-0.02l0.34-0.02l0.34-0.02l0.34-0.01l0.34-0.01l0.34-0.01l0.34-0.01l0.34-0.01l0.34,0l0.32,0
		h352.87L406.63,0.01L406.63,0.01z M53.49,30.32h-0.18h-0.15l-0.15,0l-0.15,0l-0.15,0.01l-0.15,0.01l-0.15,0.01l-0.15,0.01
		l-0.15,0.01l-0.15,0.01l-0.15,0.01l-0.15,0.01l-0.15,0.01l-0.15,0.01l-0.15,0.01l-0.15,0.02l-0.14,0.01l-0.15,0.02l-0.14,0.02
		L50.5,30.5l-0.14,0.02l-0.14,0.02l-0.14,0.02l-0.14,0.02l-0.14,0.02l-0.14,0.02l-0.14,0.02l-0.14,0.02l-0.14,0.03l-0.14,0.03
		l-0.14,0.03l-0.14,0.03l-0.14,0.03l-0.14,0.03l-0.14,0.03l-0.14,0.03l-0.14,0.03l-0.14,0.03l-0.14,0.03l-0.14,0.03l-0.14,0.04
		l-0.14,0.03l-0.14,0.04l-0.14,0.04l-0.14,0.04l-0.14,0.04l-0.14,0.04l-0.14,0.04l-0.13,0.04l-0.13,0.04l-0.14,0.05l-0.13,0.05
		l-0.13,0.05l-0.13,0.05l-0.13,0.05l-0.13,0.05l-0.13,0.05l-0.13,0.05l-0.13,0.05l-0.13,0.05l-0.13,0.05l-0.13,0.05l-0.13,0.05
		l-0.13,0.05l-0.13,0.06l-0.13,0.06l-0.13,0.06l-0.13,0.06l-0.13,0.06l-0.13,0.06l-0.13,0.06l-0.13,0.06l-0.13,0.06l-0.12,0.06
		l-0.13,0.06l-0.13,0.06l-0.13,0.06l-0.12,0.07l-0.12,0.06l-0.12,0.07l-0.12,0.07l-0.12,0.07l-0.12,0.07l-0.12,0.07l-0.12,0.07
		l-0.12,0.07l-0.12,0.07l-0.12,0.07l-0.12,0.07l-0.12,0.07l-0.12,0.07L41,33.95l-0.12,0.08l-0.12,0.07l-0.11,0.08l-0.12,0.08
		l-0.11,0.08l-0.11,0.08l-0.11,0.08l-0.11,0.08l-0.11,0.08l-0.11,0.08l-0.11,0.08l-0.11,0.08l-0.11,0.09l-0.11,0.08l-0.11,0.09
		l-0.11,0.09l-0.11,0.09l-0.11,0.09l-0.11,0.09l-0.11,0.09l-0.11,0.09l-0.1,0.09l-0.11,0.09l-0.11,0.09l-0.1,0.09l-0.1,0.09
		L38,36.24l-0.1,0.09l-0.1,0.09l-0.1,0.09l-0.1,0.1l-0.1,0.1l-0.1,0.1l-0.1,0.1l-0.1,0.1l-0.1,0.1l-0.1,0.1l-0.1,0.1l-0.1,0.1
		l-0.1,0.1l-0.1,0.1l-0.09,0.1l-0.1,0.1l-0.09,0.1l-0.09,0.1l-0.09,0.1l-0.09,0.1l-0.09,0.1l-0.09,0.11l-0.09,0.1l-0.09,0.11
		l-0.09,0.11l-0.09,0.11l-0.09,0.11l-0.09,0.11l-0.09,0.11l-0.09,0.11l-0.09,0.11l-0.08,0.11l-0.09,0.11l-0.08,0.11l-0.08,0.11
		l-0.08,0.11l-0.08,0.11l-0.08,0.11l-0.08,0.11l-0.08,0.11l-0.08,0.11l-0.08,0.12l-0.08,0.11l-0.07,0.12L33.94,41l-0.07,0.12
		l-0.07,0.12l-0.07,0.12l-0.07,0.12l-0.07,0.12l-0.07,0.12l-0.07,0.12l-0.07,0.12l-0.07,0.12l-0.07,0.12l-0.07,0.12l-0.07,0.12
		l-0.06,0.12l-0.07,0.13l-0.07,0.12l-0.06,0.13l-0.06,0.13l-0.06,0.13l-0.06,0.12l-0.06,0.13l-0.06,0.13l-0.06,0.13l-0.06,0.13
		l-0.06,0.13l-0.06,0.13l-0.06,0.13l-0.06,0.13l-0.06,0.13l-0.05,0.13l-0.05,0.13l-0.05,0.13l-0.05,0.13l-0.05,0.13l-0.05,0.13
		l-0.05,0.13l-0.05,0.13l-0.05,0.13l-0.05,0.13l-0.05,0.13l-0.05,0.13l-0.05,0.13l-0.05,0.14l-0.04,0.13l-0.04,0.13l-0.04,0.14
		l-0.04,0.14l-0.04,0.14l-0.04,0.14l-0.04,0.14l-0.04,0.14l-0.04,0.14l-0.03,0.14L31,47.81l-0.03,0.14l-0.03,0.14l-0.03,0.14
		l-0.03,0.14l-0.03,0.14l-0.03,0.14l-0.03,0.14l-0.03,0.14l-0.03,0.14l-0.03,0.14l-0.03,0.14l-0.02,0.14l-0.02,0.14l-0.02,0.14
		l-0.02,0.14l-0.02,0.14l-0.02,0.14l-0.02,0.14l-0.02,0.14l-0.02,0.15l-0.02,0.14l-0.02,0.15l-0.01,0.14l-0.02,0.15l-0.01,0.15
		l-0.01,0.15l-0.01,0.15l-0.01,0.15l-0.01,0.15l-0.01,0.15l-0.01,0.15l-0.01,0.15l-0.01,0.15l-0.01,0.15l-0.01,0.15v0.15v0.15v0.15
		v0.18v352.77v0.18v0.15l0,0.15l0,0.15l0.01,0.15l0.01,0.15l0.01,0.15l0.01,0.15l0.01,0.15l0.01,0.15l0.01,0.15l0.01,0.15l0.01,0.15
		l0.01,0.15l0.01,0.14l0.02,0.15l0.01,0.15l0.02,0.14l0.02,0.15l0.02,0.14l0.02,0.14l0.02,0.14l0.02,0.14l0.02,0.14l0.02,0.14
		l0.02,0.14l0.02,0.14l0.02,0.14l0.03,0.14l0.03,0.14l0.03,0.14l0.03,0.14l0.03,0.14l0.03,0.14l0.03,0.14l0.03,0.14l0.03,0.14
		l0.03,0.14l0.03,0.14l0.03,0.14l0.04,0.14l0.03,0.14l0.04,0.14l0.04,0.14l0.04,0.14l0.04,0.13l0.04,0.14l0.04,0.14l0.04,0.13
		l0.04,0.14l0.05,0.13l0.05,0.13l0.05,0.13l0.05,0.13l0.05,0.13l0.05,0.13l0.05,0.13l0.05,0.13l0.05,0.13l0.05,0.13l0.05,0.13
		l0.05,0.13l0.05,0.13l0.05,0.13l0.06,0.13l0.06,0.13l0.06,0.13l0.06,0.13l0.06,0.13l0.06,0.13l0.06,0.13l0.06,0.13l0.06,0.13
		l0.06,0.13l0.06,0.13l0.06,0.13l0.06,0.12l0.06,0.12l0.07,0.13l0.06,0.12l0.07,0.12l0.07,0.12l0.07,0.12l0.07,0.12l0.07,0.12
		l0.07,0.12l0.07,0.12l0.07,0.12l0.07,0.12l0.07,0.12l0.07,0.12l0.07,0.12l0.08,0.12L34.1,419l0.08,0.12l0.08,0.12l0.08,0.11
		l0.08,0.11l0.08,0.11l0.08,0.11l0.08,0.11l0.08,0.11l0.08,0.11l0.08,0.11l0.09,0.11l0.09,0.11l0.08,0.11l0.09,0.11l0.09,0.11
		l0.09,0.11l0.09,0.11l0.09,0.11l0.09,0.11l0.09,0.11l0.09,0.1l0.09,0.11l0.09,0.1l0.09,0.1l0.09,0.1l0.09,0.1l0.09,0.1l0.1,0.1
		l0.09,0.1l0.1,0.1l0.1,0.1l0.1,0.1l0.1,0.1l0.1,0.1l0.1,0.1l0.1,0.1l0.1,0.1l0.1,0.1l0.1,0.1l0.1,0.09l0.1,0.1l0.1,0.09l0.1,0.09
		l0.1,0.09l0.1,0.09l0.11,0.09l0.1,0.09l0.11,0.09l0.11,0.09l0.11,0.09l0.11,0.09l0.11,0.09l0.11,0.09l0.11,0.09l0.11,0.09
		l0.11,0.09l0.11,0.08l0.11,0.09l0.11,0.08l0.11,0.08l0.11,0.08l0.11,0.08l0.11,0.08l0.11,0.08l0.11,0.08l0.12,0.08l0.11,0.08
		l0.11,0.08l0.12,0.07l0.12,0.08l0.12,0.07l0.12,0.07l0.12,0.07l0.12,0.07l0.12,0.07l0.12,0.07l0.12,0.07l0.12,0.07l0.12,0.07
		l0.12,0.07l0.12,0.07l0.12,0.07l0.12,0.07l0.12,0.06l0.12,0.07l0.13,0.06l0.13,0.06l0.13,0.06l0.12,0.06l0.13,0.06l0.13,0.06
		l0.13,0.06l0.13,0.06l0.13,0.06l0.13,0.06l0.13,0.06l0.13,0.06l0.13,0.06l0.13,0.05l0.13,0.05l0.13,0.05l0.13,0.05l0.13,0.05
		l0.13,0.05l0.13,0.05l0.13,0.05l0.13,0.05l0.13,0.05l0.13,0.05l0.13,0.05l0.13,0.05l0.13,0.05l0.14,0.04l0.14,0.04l0.13,0.04
		l0.14,0.04l0.14,0.04l0.14,0.04l0.14,0.04l0.14,0.04l0.14,0.04l0.14,0.03l0.14,0.03l0.14,0.03l0.14,0.03l0.14,0.03l0.14,0.03
		l0.14,0.03l0.14,0.03l0.14,0.03l0.14,0.03l0.14,0.03l0.14,0.03l0.14,0.03l0.14,0.02l0.14,0.02l0.14,0.02l0.14,0.02l0.14,0.02
		l0.14,0.02l0.14,0.02l0.15,0.02l0.14,0.02l0.14,0.02l0.15,0.02l0.14,0.01l0.15,0.02l0.15,0.01l0.15,0.01l0.15,0.01l0.15,0.01
		l0.15,0.01l0.15,0.01l0.15,0.01l0.15,0.01l0.15,0.01l0.15,0.01l0.15,0.01h0.15h0.15h0.15h0.18h352.77h0.18h0.15l0.15,0l0.15,0
		l0.15-0.01l0.15-0.01l0.15-0.01l0.15-0.01l0.15-0.01l0.15-0.01l0.15-0.01l0.15-0.01l0.15-0.01l0.15-0.01l0.15-0.01l0.15-0.02
		l0.14-0.01l0.15-0.02l0.14-0.02l0.14-0.02l0.15-0.02l0.14-0.02l0.14-0.02l0.14-0.02l0.14-0.02l0.14-0.02l0.14-0.02l0.14-0.02
		l0.14-0.03l0.14-0.03l0.14-0.03l0.14-0.03l0.14-0.03l0.14-0.03l0.14-0.03l0.14-0.03l0.14-0.03l0.14-0.03l0.14-0.03l0.14-0.03
		l0.14-0.03l0.14-0.04l0.14-0.04l0.14-0.04l0.14-0.04l0.14-0.04l0.14-0.04l0.13-0.04l0.14-0.04l0.14-0.04l0.13-0.05l0.13-0.05
		l0.13-0.05l0.13-0.05l0.13-0.05l0.13-0.05l0.13-0.05l0.13-0.05l0.13-0.05l0.13-0.05l0.13-0.05l0.13-0.05l0.13-0.05l0.13-0.05
		l0.13-0.06l0.13-0.06l0.13-0.06l0.13-0.06l0.13-0.06l0.13-0.06l0.13-0.06l0.13-0.06l0.13-0.06l0.13-0.06l0.13-0.06l0.13-0.07
		l0.12-0.06l0.12-0.07l0.13-0.06l0.12-0.07l0.12-0.07l0.12-0.07l0.12-0.07l0.12-0.07l0.12-0.07l0.12-0.07l0.12-0.07l0.12-0.07
		l0.12-0.07l0.12-0.07l0.12-0.07l0.12-0.07l0.12-0.08l0.11-0.07l0.12-0.08l0.11-0.08l0.11-0.08l0.11-0.08l0.11-0.08l0.11-0.08
		l0.11-0.08l0.11-0.08l0.11-0.08l0.11-0.08l0.11-0.09l0.11-0.08l0.11-0.09l0.11-0.09l0.11-0.09l0.11-0.09l0.11-0.09l0.11-0.09
		l0.11-0.09l0.11-0.09l0.1-0.09l0.11-0.09l0.1-0.09l0.1-0.09l0.11-0.09l0.1-0.09l0.1-0.1l0.1-0.09l0.1-0.1l0.1-0.1l0.1-0.1l0.1-0.1
		l0.1-0.1l0.1-0.1l0.1-0.1l0.1-0.1l0.09-0.1l0.1-0.1l0.1-0.1l0.09-0.1l0.1-0.1l0.09-0.1l0.09-0.1l0.09-0.11l0.09-0.1l0.09-0.1
		l0.09-0.1l0.09-0.11l0.09-0.11l0.09-0.11l0.09-0.11l0.09-0.11l0.09-0.11l0.09-0.11l0.09-0.11l0.08-0.11l0.09-0.11l0.09-0.11
		l0.08-0.11l0.08-0.11l0.08-0.11l0.08-0.11l0.08-0.11l0.08-0.11l0.08-0.11l0.08-0.11l0.08-0.12l0.08-0.11l0.07-0.12l0.08-0.12
		l0.07-0.11l0.07-0.11l0.07-0.12l0.07-0.12l0.07-0.12l0.07-0.12l0.07-0.12l0.07-0.12l0.07-0.12l0.07-0.12l0.07-0.12l0.07-0.12
		l0.07-0.12l0.06-0.12l0.07-0.13l0.06-0.12l0.06-0.12l0.06-0.13l0.06-0.13l0.06-0.13l0.06-0.13l0.06-0.13l0.06-0.13l0.06-0.13
		l0.06-0.13l0.06-0.13l0.06-0.13l0.06-0.13l0.05-0.13l0.05-0.13l0.05-0.13l0.05-0.13l0.05-0.13l0.05-0.13l0.05-0.13l0.05-0.13
		l0.05-0.13l0.05-0.13l0.05-0.13l0.05-0.13l0.05-0.14l0.05-0.13l0.04-0.13l0.04-0.14l0.04-0.14l0.04-0.13l0.04-0.14l0.04-0.14
		l0.04-0.14l0.04-0.13l0.03-0.14l0.04-0.14l0.03-0.14l0.03-0.14l0.03-0.14l0.03-0.14l0.03-0.14l0.03-0.14l0.03-0.14l0.03-0.14
		l0.03-0.14l0.03-0.14l0.03-0.14l0.03-0.14l0.02-0.14l0.02-0.14l0.02-0.14l0.02-0.14l0.02-0.14l0.02-0.14l0.02-0.15l0.02-0.14
		l0.02-0.14l0.02-0.15l0.02-0.14l0.01-0.14l0.02-0.15l0.01-0.15l0.01-0.14l0.01-0.15l0.01-0.15l0.01-0.15l0.01-0.15l0.01-0.15
		l0.01-0.15l0.01-0.15l0.01-0.15l0.01-0.15l0-0.15l0-0.15v-0.15v-0.18V53.49v-0.18v-0.15l0-0.15l0-0.15l-0.01-0.15l-0.01-0.15
		l-0.01-0.15l-0.01-0.15l-0.01-0.15l-0.01-0.15l-0.01-0.15l-0.01-0.15l-0.01-0.15l-0.01-0.15l-0.01-0.15l-0.02-0.15l-0.01-0.14
		l-0.02-0.15l-0.02-0.15l-0.02-0.14l-0.02-0.14l-0.02-0.14l-0.02-0.14l-0.02-0.14l-0.02-0.14l-0.02-0.14l-0.02-0.14l-0.02-0.14
		l-0.03-0.14l-0.03-0.14l-0.03-0.14l-0.03-0.14l-0.03-0.14l-0.03-0.14l-0.03-0.14l-0.03-0.14l-0.03-0.14l-0.03-0.14l-0.03-0.14
		l-0.03-0.14l-0.04-0.14l-0.03-0.14l-0.04-0.14l-0.04-0.14l-0.04-0.14l-0.04-0.13l-0.04-0.14l-0.04-0.14l-0.04-0.14l-0.04-0.13
		l-0.05-0.14l-0.05-0.14l-0.05-0.13l-0.05-0.13l-0.05-0.13l-0.05-0.13L428,45.37l-0.05-0.13l-0.05-0.13l-0.05-0.13l-0.05-0.13
		l-0.05-0.13l-0.05-0.13l-0.05-0.13l-0.06-0.13l-0.06-0.13l-0.06-0.13l-0.06-0.13l-0.06-0.13l-0.06-0.13l-0.06-0.13l-0.06-0.13
		l-0.06-0.13l-0.06-0.13l-0.06-0.13l-0.06-0.12l-0.06-0.13l-0.07-0.13l-0.06-0.12l-0.07-0.12l-0.07-0.12l-0.07-0.12l-0.07-0.12
		l-0.07-0.13l-0.07-0.12l-0.07-0.12l-0.07-0.12l-0.07-0.12l-0.07-0.12l-0.07-0.12l-0.07-0.11L425.81,41l-0.08-0.12l-0.07-0.12
		l-0.08-0.11l-0.08-0.12l-0.08-0.11l-0.08-0.11l-0.08-0.11l-0.08-0.11l-0.08-0.12l-0.08-0.11l-0.08-0.11l-0.08-0.11l-0.08-0.11
		l-0.09-0.11l-0.09-0.11l-0.09-0.11l-0.09-0.11l-0.09-0.11l-0.09-0.11l-0.09-0.11l-0.09-0.11l-0.09-0.11l-0.09-0.11l-0.09-0.1
		l-0.09-0.1l-0.09-0.11l-0.09-0.1l-0.09-0.1l-0.1-0.1l-0.1-0.1l-0.09-0.1l-0.1-0.1l-0.1-0.1l-0.1-0.1l-0.1-0.1l-0.1-0.1l-0.1-0.1
		l-0.1-0.1l-0.1-0.1l-0.1-0.1l-0.1-0.1l-0.1-0.1l-0.1-0.09l-0.1-0.1l-0.1-0.09l-0.1-0.09l-0.11-0.09l-0.1-0.09l-0.1-0.09l-0.11-0.09
		l-0.11-0.09l-0.11-0.09l-0.11-0.09l-0.11-0.09l-0.11-0.09l-0.11-0.09l-0.11-0.09l-0.11-0.09l-0.11-0.08l-0.11-0.09l-0.11-0.08
		l-0.11-0.08l-0.11-0.08l-0.11-0.08l-0.11-0.08l-0.11-0.08l-0.11-0.08l-0.11-0.08l-0.11-0.08L419,34.1l-0.11-0.07l-0.12-0.08
		l-0.12-0.07l-0.12-0.07l-0.12-0.07l-0.12-0.07l-0.12-0.07l-0.12-0.07l-0.12-0.07l-0.12-0.07l-0.12-0.07l-0.12-0.07l-0.12-0.07
		l-0.12-0.07l-0.12-0.07l-0.13-0.06l-0.12-0.07l-0.12-0.06l-0.13-0.06l-0.13-0.06l-0.13-0.06l-0.13-0.06l-0.13-0.06l-0.13-0.06
		l-0.13-0.06l-0.13-0.06l-0.13-0.06l-0.13-0.06l-0.13-0.06l-0.13-0.06l-0.13-0.05l-0.13-0.05l-0.13-0.05l-0.13-0.05l-0.13-0.05
		l-0.13-0.05l-0.13-0.05l-0.13-0.05l-0.13-0.05l-0.13-0.05l-0.13-0.05l-0.13-0.05l-0.13-0.05l-0.14-0.05l-0.13-0.04l-0.13-0.04
		l-0.14-0.04l-0.14-0.04l-0.14-0.04l-0.14-0.04l-0.14-0.04l-0.14-0.04l-0.14-0.04l-0.14-0.03L411.95,31l-0.14-0.03l-0.14-0.03
		l-0.14-0.03l-0.14-0.03l-0.14-0.03l-0.14-0.03l-0.14-0.03l-0.14-0.03l-0.14-0.03l-0.14-0.03l-0.14-0.03l-0.14-0.02l-0.14-0.02
		l-0.14-0.02l-0.14-0.02l-0.14-0.02l-0.14-0.02l-0.14-0.02l-0.14-0.02l-0.15-0.02l-0.14-0.02l-0.15-0.02l-0.14-0.01l-0.15-0.02
		l-0.15-0.01l-0.15-0.01l-0.15-0.01l-0.15-0.01l-0.15-0.01l-0.15-0.01l-0.15-0.01l-0.15-0.01l-0.15-0.01l-0.15-0.01l-0.15-0.01
		l-0.15,0l-0.15,0h-0.15h-0.18L53.49,30.32L53.49,30.32z"/>
	<polygon class="st2" points="24.82,417.69 443.18,300.81 435.47,270.8 17.13,387.68 24.82,417.69 	"/>
	<path class="st3" d="M69.26,89.94c5.47-6.98,17.2-13.66,25.46-17.04c52.65-38.72,77.43-1.55,113.05,41.81
		c64.01,40.78,88.21,109.72,118.73,187.38c20.26,22.24,25.03,31.83,45.43,54.21c-2.34,1.34-5.75,0.83-9.56-0.71
		c10.3,11.58,22.39,28.32,27.11,41.66c-7.63-1.87-15.06-7.61-21.77-14.83c6.96,15.22,14.2,34.73,10.93,40.46
		c-3.22,1.21-6.53-1.92-9.85-7.29c-0.24,4.87-0.93,9.04-1.51,11.94c-4.39,0-6.89-3.26-8.78-9.81c-17.3-50.98-58.13-87.5-92.1-111.71
		c-0.28,6.27,0.21,12.91,2.62,21.03c0.32,4.78,1.99,16.09-1.34,18.59c-0.09-6.87-4.16-19.39-7.26-25.47
		c-3.92,9.46-9.81,34.76-15.49,33.07c-1.89,3.5-3.29,9.86-1.89,14.08c-3.27-2.41-3.58-11.06-1.56-16.27
		c-2.4-0.95,6.55-16.08,5.51-21.94c-3.96,5.86-4.91,7.23-7.91,11.71c-0.28-6.28,4.05-15.62,7.91-20.65
		c7.08-4.75,11.82-10.67,14.43-17.64c-2.81-1.95-5.56-3.81-8.23-5.59c-15.94,1.5-35.55,0.09-53.47-5.22
		c1.5,4.46,0.74,9.97-8.82,16.07c-9.05,9.2-15.75,18.41-23.41,30.36c-0.29,0.72-1.03,1.81-1.03,3.62
		c0.92,5.56,3.22,27.16,3.44,32.78c-2.25-5.03-6.74-18.85-8.6-24.1c-5.94,7.71-9.8,19.75-12.73,29.68
		c-0.87,1.46-2.16,1.74-3.53,1.69c-1.41,4.22-2.39,10.51-1.31,14.74c-2.03-4.42-3.92-12.06-2.13-16.78
		c-0.25-0.33-0.25-1.16-0.09-2.32c1.45-6.4,4.47-13.62,7.06-19.78c-3.53,2.49-6.27,6.28-7.67,11.87
		c-2.23-6.55,1.73-19.11,9.38-24.52c14.11-11.11,23.83-27.36,33.3-41.65c-2.56-5.82-3.32-12.79-3.45-19.57
		c-2.14-1.14-4.21-2.36-6.19-3.66c-44.94-36.13-63.74-74.63-66.68-149.78c-7.74-6.2-13.42-16.86-12.56-27.7
		C87.95,98.81,75.62,94.46,69.26,89.94L69.26,89.94z"/>
</g>
</svg>
