<svg xmlns="http://www.w3.org/2000/svg" viewBox="0 0 939.83 640.48" width="939.83" height="640.48"><defs><style>.cls-1{fill:#c2e184;}.cls-2{fill:#816c55;}.cls-3{fill:#4c81c2;}</style></defs><title>Asset 1</title><g id="Layer_2" data-name="Layer 2"><g id="Layer_1-2" data-name="Layer 1"><g id="vmPgZx.tif"><path class="cls-1" d="M231,611.87c6.51,0,13,.1,19.54,0,2.84-.06,4,.74,4,3.79-.19,6.75-.14,13.5,0,20.25.05,2.68-1,3.45-3.58,3.44-40.6-.06-81.2.15-121.8-.16-15.72-.12-31.35-2.4-46.14-7.87A123.3,123.3,0,0,1,51.06,614c-11.26-8.53-21.21-18.25-29.14-30-6.61-9.77-12.22-20-15.87-31.29C2.72,542.45.2,532.14,0,521.23c-.22-15.43.36-30.68,4.9-45.58a130.27,130.27,0,0,1,12.55-28.71,128.13,128.13,0,0,1,30.83-35.19c12.63-10,26.85-16.91,42.19-21.78,15.59-4.94,31.57-5.88,47.63-4.81,13.22.88,25.88,4.73,38.3,9.49s23.44,12.07,33.6,20.55a122.15,122.15,0,0,1,20.84,22.93,124.27,124.27,0,0,1,14.44,26.58A110.94,110.94,0,0,1,253,494.79c.61,6.22,1.68,12.43,1.35,18.69a145.31,145.31,0,0,1-8,41.73,128.07,128.07,0,0,1-19.05,34.41c-5.24,6.91-10.87,13.61-18,18.74-.87.62-1.92,1.31-1.61,2.52.36,1.39,1.72,1,2.71,1,6.87,0,13.74,0,20.61,0ZM226.2,512a99.49,99.49,0,1,0-199-.61C27.06,566.63,71.56,611,127,611.06,181.35,611.12,226.5,566.19,226.2,512Z"/><path class="cls-2" d="M286.83,563.68c0-23.33,0-46.67-.06-70,0-3.14.7-4.19,4.1-4.17,25.7.16,51.41,0,77.11.09,19.48,0,34.66,10.22,40.63,27.88,4.59,13.57,2.2,33.64-10.27,43.82a43.15,43.15,0,0,1-8.35,5.35c-1.79.88-1.57,1.55,0,2.23,12.7,5.38,16.51,16.38,18.11,28.74,1.2,9.27.69,18.69,2.38,27.93.64,3.5,1.29,7,3.16,10.07,1.06,1.73.63,2.29-1.26,2.29-9.48,0-19,0-28.43,0-1.8,0-2.38-.89-2.91-2.41-2.46-7.16-2.37-14.68-3.15-22.06-.6-5.65-1-11.32-2.42-16.84-2.82-11-9.58-16.29-21-16.35-10.3,0-20.61.1-30.91,0-2.94,0-3.85.84-3.82,3.8.13,16.58,0,33.17.14,49.75,0,3.1-.56,4.33-4,4.22-8.52-.27-17.06-.21-25.58,0-2.83.06-3.58-.79-3.56-3.58C286.88,610.82,286.83,587.25,286.83,563.68Zm54.38-7.24v-.16c6.27,0,12.57.39,18.8-.1,7.65-.61,13.93-3.83,16.29-11.9a28.7,28.7,0,0,0,1.23-7.31c.25-11-3.09-20-16.84-21.46-12.73-1.31-25.53-.26-38.3-.56-2.49-.06-2.53,1.42-2.52,3.22,0,11.71.08,23.43-.06,35.14,0,2.6.94,3.21,3.3,3.16C329.14,556.37,335.17,556.45,341.21,556.45Z"/><path class="cls-2" d="M647.3,563.85c0,23.56,0,47.13.05,70.69,0,2.59-.63,3.51-3.36,3.44-7.34-.19-14.68-.13-22,0-2.26,0-3.28-.59-3.06-3a59.07,59.07,0,0,0,0-6.39c0-.67.2-1.53-.59-1.88-1-.47-1.51.53-1.94,1.11a28.7,28.7,0,0,1-18.58,11.47c-24.78,4.4-44.91-3-55.14-28.87-6.81-17.2-6.84-34.9-.41-52.39,8.07-22,28.58-33.79,51.58-29.61a35,35,0,0,1,20.75,11.42c.63.73,1,2.38,2.17,1.89s.64-2.1.64-3.2c0-14.92.11-29.84-.06-44.76,0-3.26.83-4.31,4.16-4.21,7.57.24,15.16.13,22.73,0,2.18,0,3.14.39,3.13,2.9C647.26,516.25,647.29,540,647.3,563.85Zm-28.94,19.67a45.27,45.27,0,0,0-2.63-17.42c-3-7.91-8.12-13.81-16.62-15.43-9.29-1.76-17.92-.23-24.34,7.71-8.91,11-10,34-2.08,47.54,5.29,9,13.24,13.24,23.76,12.13,9.3-1,15.31-6.31,18.75-14.72C617.79,597,618.47,590.3,618.36,583.52Z"/><path class="cls-2" d="M760.65,587.12c0,9.71-.13,19.43,0,29.14.12,6.6.22,13.27,2.81,19.54.62,1.49.36,2.14-1.43,2.13q-13-.08-25.94,0c-3.6,0-2.38-3.19-3.41-4.88-.77-1.25.55-3.53-1.24-3.93-.91-.2-2.24,1.47-3.37,2.31A44.61,44.61,0,0,1,702,640.16c-8.73.21-17.53.72-25.72-3.48-9.7-5-15.41-12.66-16.25-23.62-.6-7.76-.25-15.38,4.3-22.21,4.38-6.58,10.77-10.17,18.07-12.28,9.47-2.73,19.23-3.86,29-4.89a52,52,0,0,0,10.76-2.12c6.26-2,8.76-4.76,8.83-10,.09-6.27-3.27-11.49-9-13a34,34,0,0,0-18.59.08c-5.78,1.76-9,5.9-10.05,11.7-.42,2.37-1.44,3-3.76,3q-11.72-.21-23.45,0c-2.41,0-3-.66-2.72-3.09,1.56-14.27,9.92-23.17,22.62-28.33s26-5.48,39.48-4.12c6.86.69,13.58,2,19.78,5.15,9,4.66,14.92,11.64,15.16,22.19s.05,21.32.05,32ZM731,594c0-1.89,0-3.78,0-5.67,0-1.37-.35-2-1.89-1.31-6.19,3-13,3.19-19.61,4.3-5.1.85-10.27,1.62-14.64,4.79s-6,7.78-5.37,13,3.43,9,8.68,10.48a35.49,35.49,0,0,0,14.36.86c7.84-1,13.35-4.93,16.41-12.24C730.83,603.63,731,598.81,731,594Z"/><path class="cls-2" d="M525.1,589.87c.4,10.7-.71,23.61.77,36.49a32.27,32.27,0,0,0,2.14,9.28c.76,1.76.33,2.31-1.53,2.3q-12.79-.07-25.58,0c-1.69,0-2.41-.65-3-2.27-.83-2.23.27-5.76-2-6.46-1.3-.4-3.52,2.7-5.5,4a41.24,41.24,0,0,1-17.87,6.44c-9.14.95-18.39,1.82-27.4-1.3-14.49-5-21.65-16.54-20.92-31.94C425,589,436.7,580.46,452,577.21c9.86-2.1,19.91-2.69,29.8-4.45a35.22,35.22,0,0,0,6.5-1.7c5.11-2,7.19-4.88,7.13-9.47-.08-6.23-2.66-10.71-7.57-12.47a31.28,31.28,0,0,0-20.18-.33c-5.69,1.75-8.77,5.86-9.75,11.52-.41,2.33-1.3,3.11-3.68,3.07q-11.72-.22-23.45,0c-2.63,0-3.1-.79-2.85-3.29,1.17-11.71,7.13-20.58,17.36-25.53,21-10.19,42.78-10.15,64.28-1.47,10.55,4.26,15.59,12.91,15.52,24.41C525.05,567.55,525.1,577.61,525.1,589.87Zm-29.61,4.94c0-2.59,0-4.6,0-6.61,0-1.55-.59-1.91-1.94-1.21-4.4,2.26-9.23,2.76-14,3.47-5.25.78-10.52,1.43-15.57,3.19-6.53,2.28-10.18,7.22-10.13,13.81,0,6.06,3.24,10.51,9.26,12.33a29.07,29.07,0,0,0,7.34,1c11.07.38,19.61-2.88,23.59-14A30,30,0,0,0,495.49,594.81Z"/><path class="cls-2" d="M807.61,547.9a38.16,38.16,0,0,1,7.44-9.82,37,37,0,0,1,26.7-10.51c5.57,0,6,.63,5.88,6.11-.08,5.92,0,11.84,0,17.77,0,5.19,0,5.09-5.06,4.36-7-1-14-.57-20.39,2.84-9.85,5.26-13.52,14.43-13.83,24.79-.5,16.81-.31,33.64-.16,50.45,0,3.38-1,4.19-4.2,4.1-7.69-.21-15.4-.15-23.1,0-2.28,0-3.06-.6-3.05-3q.11-50.64,0-101.28c0-2.24.51-3.13,2.94-3.08q11.37.22,22.74,0c2.59,0,3.26,1,3.19,3.36-.13,4.54,0,9.09,0,13.64Z"/><path class="cls-2" d="M917.65,474.68a22.48,22.48,0,0,1-.59,45c-12.67,0-22.43-10.34-22.21-23.49C895.05,484.27,905.45,474.48,917.65,474.68Zm18.93,22.44a19.34,19.34,0,0,0-38.69-.17,19.77,19.77,0,0,0,19.28,19.68A19.51,19.51,0,0,0,936.58,497.12Z"/><path class="cls-1" d="M211.13,509.88c.88,15.45-4.21,29.83-11.52,43.51a67.15,67.15,0,0,1-10.89,14.28c-1.33,1.4-2.43,1.24-3.65.21-2.26-1.9-4.24-4.1-6.54-6-1.94-1.58-1.67-3.86-.05-5.69a69.71,69.71,0,0,0,14.3-24.59,56,56,0,0,0,3-14.77c.65-13.16-.31-26-6.38-38a75.21,75.21,0,0,0-17.65-22.76,61,61,0,0,0-28.07-14.37c-7.44-1.53-15.11-2.91-23.12-1.22-6.42,1.35-13,1.85-19.35,3.94-13.67,4.51-25.27,11.93-34.26,23.37C55.77,482,51.33,498.26,52.83,515.87c1.35,16,5.48,31.33,15,44.73,1,1.34,2.12,2.53,3.1,3.86s2.24,2.46.41,3.92c-1.64,1.31-2.65,0-3.54-1.09A93.78,93.78,0,0,1,53,544.48a86.24,86.24,0,0,1,5.84-80.92A83.41,83.41,0,0,1,85.14,437.3a78.12,78.12,0,0,1,34.1-11.81c21.95-2.2,41.63,3.18,59.15,16.44a81.52,81.52,0,0,1,27.69,37.71A76.15,76.15,0,0,1,211.13,509.88Z"/><path class="cls-1" d="M77.41,509.77c-.25,15.41,3.91,26.36,11.37,36.16.89,1.17,1.9,2.1.87,3.72s-1.6,2.09-3.14.38c-9.16-10.17-14.44-21.84-15.43-35.64-1.09-15.14,2.39-28.83,11.5-40.93a56.39,56.39,0,0,1,24.12-18.63c15.49-6.31,31-6.05,46,1.06,15.11,7.19,25.63,18.87,30.74,35.19a62.28,62.28,0,0,1,1.2,32.82,60,60,0,0,1-11.83,23.92c-2.57,3.27-4.16,3.21-7,.32a43.48,43.48,0,0,0-4.31-4.23c-2.26-1.76-2.47-3.47-.61-5.63a52,52,0,0,0,9.88-18.62c2.27-7.15,1.83-14.51-.25-21.89a46.64,46.64,0,0,0-11-19.44c-6.07-6.57-13.54-10.43-21.92-12.84A46.81,46.81,0,0,0,87.93,482C80.21,492,77.4,500.23,77.41,509.77Z"/><path class="cls-1" d="M160.75,510.2c.39,7-2.48,13.88-7,20.19-1.42,2-2.78,2.4-4.61.61-1.1-1.07-2.25-2.1-3.44-3.07-2.31-1.89-2.84-4-1.68-6.88,5-12.32,1-26.67-12.47-33.23-5.53-2.69-11.67-2.1-17.43.84-13.56,6.92-17,25.89-8.58,37,.72.94,1.33,2,2,2.94.76,1.14.85,2.33-.37,3.1a2.32,2.32,0,0,1-3.39-.67c-6.13-7.71-8.87-16.51-7.41-26.19,1.59-10.57,6.95-19.08,16.47-24.35,11.42-6.31,28-5.13,37.74,4.84C157.15,492.08,160.89,499.79,160.75,510.2Z"/><path class="cls-2" d="M908.92,497c0-3,.05-5.91,0-8.86,0-1.93.71-2.81,2.7-2.76,3.07.08,6.14,0,9.21,0,2.81.08,5.28,1.35,6.11,4,.9,2.9.71,6-2.62,7.63-1.75.86-1.42,1.62-.37,2.9a54.75,54.75,0,0,1,3.75,5.57c.51.81,1.68,1.88.31,2.65a2.48,2.48,0,0,1-3.43-.84q-1.95-3-3.93-5.89a7.2,7.2,0,0,0-2.81-2.64c-3.51-1.67-5.6-.39-5.62,3.45,0,1.42,0,2.84,0,4.25,0,1-.26,1.93-1.55,1.9a1.6,1.6,0,0,1-1.69-1.84c0-3.19,0-6.38,0-9.57Zm8-1.51a21.91,21.91,0,0,0,3.49-.3c1.66-.4,3.18-1.21,3.21-3.21a3.25,3.25,0,0,0-3.22-3.5c-1.62-.19-3.27-.16-4.9-.35-2.74-.32-3.2,1-3.4,3.5C911.78,495.69,914.13,495.63,916.93,495.45Z"/></g><polygon class="cls-3" points="847.63 24.34 706.53 24.34 715.23 0.02 847.63 0.02 847.63 24.34"/><path class="cls-3" d="M471.5,0h131l8.58,24.39c.06,0-139.54,0-139.54,0S471.46,0,471.5,0Z"/><path class="cls-3" d="M367.46,0c21.59,2.08,40.36,9.77,56.35,24.37,0,0-237.45,0-237.45,0V0Z"/><rect class="cls-3" x="0.02" y="0.01" width="164.96" height="24.32"/><path class="cls-3" d="M82.5,12.17"/><path class="cls-3" d="M847.63,70H690.36s8.58-24.2,8.53-24.21H847.63Z"/><polygon class="cls-3" points="627.29 70.02 471.49 70.02 471.49 45.77 618.76 45.77 627.29 70.02"/><path class="cls-3" d="M442.3,45.77c3.13,8,6.84,14.83,6.84,24.21H186.4V45.77Z"/><rect class="cls-3" x="0.02" y="45.77" width="164.96" height="24.21"/><path class="cls-3" d="M82.5,57.87"/><polygon class="cls-3" points="674.28 115.74 682.92 91.42 801 91.46 801 115.69 674.28 115.74"/><polygon class="cls-3" points="634.86 91.42 643.47 115.74 517.95 115.74 517.95 91.42 634.86 91.42"/><path class="cls-3" d="M451.22,91.41a79.38,79.38,0,0,1-3.47,24.33H375.81V91.41Z"/><rect class="cls-3" x="46" y="91.53" width="70.9" height="24.21"/><path class="cls-3" d="M81.45,103.64"/><rect class="cls-3" x="234.13" y="91.41" width="70.78" height="24.33"/><path class="cls-3" d="M269.52,103.58"/><path class="cls-3" d="M587.66,142s0,18.41,0,18.45H517.95V136.25H650.82l8.25,22.57s8-22.62,8-22.57H801v24.21H731.57s0-18.45,0-18.45l-6.41,18.45-131,0Z"/><path class="cls-3" d="M234.13,136.25H437.31v0a91.27,91.27,0,0,1-20.15,24.23s-183,0-183,0S234.13,136.28,234.13,136.25Z"/><rect class="cls-3" x="46" y="136.24" width="70.9" height="24.21"/><path class="cls-3" d="M81.45,148.34"/><rect class="cls-3" x="731.57" y="181.89" width="69.38" height="24.2"/><path class="cls-3" d="M766.27,194"/><path class="cls-3" d="M587.66,181.89H517.95v24.2s69.74,0,69.74,0S587.76,181.89,587.66,181.89Z"/><path class="cls-3" d="M717.56,181.89c-.32,0-8.12,24.2-8.45,24.2l-98.83,0c-.08,0-8.69-24.29-8.7-24.25Z"/><path class="cls-3" d="M234.11,181.89H416.81a119.51,119.51,0,0,1,21.78,24.21c.34,0-204.47,0-204.47,0S234.11,181.9,234.11,181.89Z"/><path class="cls-3" d="M116.89,206.1V181.89H46.11s0,24.21,0,24.21Z"/><rect class="cls-3" x="731.57" y="227.54" width="69.37" height="24.21"/><path class="cls-3" d="M766.27,239.64"/><rect class="cls-3" x="517.95" y="227.54" width="69.72" height="24.21"/><path class="cls-3" d="M552.81,239.64"/><path class="cls-3" d="M692.87,251.87c0-.11,8.56-24.36,8.69-24.33h-84c-.15,0,8.61,24.21,8.61,24.21S692.86,252,692.87,251.87Z"/><path class="cls-3" d="M234.12,251.74c0,.1,0-24.21,0-24.21H306s.06,24.22,0,24.22S234.12,251.72,234.12,251.74Z"/><path class="cls-3" d="M448.67,227.53c3.48,7.29,3.83,16,4.52,24.33H377.08V227.53Z"/><rect class="cls-3" x="46.11" y="227.53" width="70.78" height="24.2"/><path class="cls-3" d="M81.5,239.63"/><rect class="cls-3" x="731.57" y="272.24" width="116.05" height="24.22"/><path class="cls-3" d="M789.6,284.36"/><rect class="cls-3" x="471.49" y="272.24" width="116.17" height="24.22"/><path class="cls-3" d="M529.58,284.36"/><polygon class="cls-3" points="677.26 296.46 641.82 296.46 633.32 272.24 685.46 272.24 677.26 296.46"/><path class="cls-3" d="M0,272.24v24.21H164.86c.07,0-.08-24.2,0-24.2Z"/><path class="cls-3" d="M450.17,272.24c-1.74,8-3.32,17.72-9.16,24.22H186.39V272.24Z"/><polygon class="cls-3" points="661.2 342.16 657.94 342.16 649.66 317.89 669.7 317.89 661.2 342.16"/><rect class="cls-3" x="731.57" y="317.9" width="116.05" height="24.32"/><path class="cls-3" d="M789.6,330.06"/><path class="cls-3" d="M186.36,342.16V317.93l238.84,0c-16,15.29-37.93,23.92-61.55,24.26l-177.25-.05"/><rect class="cls-3" x="471.49" y="317.9" width="116.17" height="24.32"/><path class="cls-3" d="M529.58,330.06"/><path class="cls-3" d="M164.86,318s-.08,24.16,0,24.16-164.8.1-164.84,0,0-24.28,0-24.28S164.78,318.07,164.86,318Z"/></g></g></svg>