<svg xmlns="http://www.w3.org/2000/svg" viewBox="0 0 1211.04 375.36" width="1211.04" height="375.36"><defs><style>.cls-1{fill:#fff;}</style></defs><title>Asset 6</title><g id="Layer_2" data-name="Layer 2"><g id="Layer_1-2" data-name="Layer 1"><path class="cls-1" d="M319,149.85V73.38h38.14v75.7c0,19.65,9.92,29,25.1,29,15.37,0,25.3-9,25.3-28V73.38h38.14v75.5c0,43.78-25.1,63.24-63.83,63.24C343.33,212.12,319,192.47,319,149.85Z"/><path class="cls-1" d="M472,73.38h64.41c20.82,0,35.22,5.45,44.37,14.59,8,8,12.06,18.29,12.06,31.72v.39c0,21-11.09,34.83-28,42l32.5,47.48h-43.4l-27.44-41.25H509.71v41.25H472Zm62.85,65.38c12.65,0,20.24-6.23,20.24-16.15v-.39c0-10.9-8-16.35-20.43-16.35H509.71v32.89Z"/><path class="cls-1" d="M615.77,73.38h37.75V176.51h66v33.08H615.77Z"/><path class="cls-1" d="M751.79,73.38h42l30.94,86.21L855.9,73.38h41.25L841.89,210.57h-35Z"/><path class="cls-1" d="M909,157.44v-.39c0-30,24.52-55.07,58.18-55.07s58,24.71,58,54.68v.39c0,30-24.52,55.07-58.38,55.07C933.35,212.12,909,187.41,909,157.44Zm80.37,0v-.39c0-13-9.54-23.94-22.57-23.94-13.43,0-22,10.7-22,23.55v.39c0,12.84,9.34,23.74,22.38,23.74C980.64,180.79,989.39,170.09,989.39,157.44Z"/><path class="cls-1" d="M1041,67.54h38.33V94.78H1041Zm.78,36.78h36.78V209.59h-36.78Z"/><path class="cls-1" d="M1095.45,157.44v-.39c0-34.25,21.6-55.07,46.51-55.07,16,0,25.3,7.2,32.11,15.18V67.54h37V209.59h-37v-14c-7.2,8.76-16.15,16.35-31.91,16.35C1117,211.93,1095.45,191.11,1095.45,157.44Zm79.4-.39v-.39c0-13.82-9.54-23.94-21.6-23.94-11.87,0-21.6,9.92-21.6,23.94v.39c0,14,9.73,23.94,21.6,23.94C1165.31,181,1174.84,171.06,1174.84,157.05Z"/><path class="cls-1" d="M279.88,38.65S201,22.63,140.3,0C79.35,29.27.72,38.65.72,38.65c0,44.81-1.8,82.15.28,117.15,1.83,30.68,6.64,59.56,18.27,90.1,24.9,65.38,121,129.46,121,129.46s96.12-64.08,121-129.46S279.88,122.73,279.88,38.65ZM31.43,241.27c-9.81-25.76-15.16-51.65-17.26-83.54l125.78.5V14.5l1-.43c47.53,17.17,103.24,30.13,126,35.11.06,11,.21,21.6.36,31.89.4,28.1.75,53.46-.93,77.71l-126.4-.54V358.82s1.84-1,5-2.74c-1.72,1.27-3.28,2.4-4.67,3.4C118,343.46,50.72,291.92,31.43,241.27Z"/></g></g></svg>