<svg id="Layer_1" data-name="Layer 1" xmlns="http://www.w3.org/2000/svg" width="300" height="55.22" viewBox="0 0 300 55.22"><defs><style>.cls-1{fill:#0d1521;}.cls-2{fill:#1368e4;}.cls-3{fill:#a553c6;}.cls-4{fill:#5bc497;}</style></defs><path class="cls-1" d="M98.65,36.61a1,1,0,0,1,.93,1.27A14.81,14.81,0,0,1,95,45.33a13.85,13.85,0,0,1-8.92,3A13.64,13.64,0,0,1,78.25,46a13.44,13.44,0,0,1-4.6-5c-.29-.61-.55-1.2-.79-1.76a11.35,11.35,0,0,1-.54-2.18,70.37,70.37,0,0,1-.41-9.46,70.14,70.14,0,0,1,.41-9.51,11.41,11.41,0,0,1,1.33-3.89,13.74,13.74,0,0,1,4.61-5,14.26,14.26,0,0,1,17.1,1.2,15.41,15.41,0,0,1,4.28,7.33,1,1,0,0,1-1,1.25H94.26a1,1,0,0,1-.92-.66,9,9,0,0,0-2.44-3.55A7.72,7.72,0,0,0,86,13a8.18,8.18,0,0,0-3.64.87A7.58,7.58,0,0,0,79.88,16a6.83,6.83,0,0,0-1.55,3.39,50.58,50.58,0,0,0-.43,8.22,49.35,49.35,0,0,0,.43,8.16,6.88,6.88,0,0,0,1.55,3.45,7.06,7.06,0,0,0,2.5,2.05,6.9,6.9,0,0,0,3.64.92q4.78,0,7.28-5a1,1,0,0,1,.88-.56Z"/><path class="cls-1" d="M113.06,31,102,8.62a1,1,0,0,1,.87-1.41H107a1,1,0,0,1,.89.56L115.1,23.4a1,1,0,0,0,1.77,0L124.1,7.77a1,1,0,0,1,.89-.56h4.15A1,1,0,0,1,130,8.62L118.91,31a.92.92,0,0,0-.11.43V47a1,1,0,0,1-1,1h-3.7a1,1,0,0,1-1-1V31.45a1.08,1.08,0,0,0-.1-.43"/><path class="cls-1" d="M133.76,7.21h4.29A1,1,0,0,1,139,8l6,28.23h.11l7.48-28.27a1,1,0,0,1,.94-.73h2.84a1,1,0,0,1,.94.73l7.45,28.27h.11L171,8a1,1,0,0,1,1-.77h4.29a1,1,0,0,1,.95,1.21l-9.4,38.85a1,1,0,0,1-1,.74h-3.49a1,1,0,0,1-.94-.73L155,18.58h-.11l-7.37,28.7a1,1,0,0,1-.94.73h-3.47a1,1,0,0,1-.94-.74l-9.4-38.85a1,1,0,0,1,.95-1.21"/><path class="cls-1" d="M202.33,38.89H188.75a1,1,0,0,0-.93.66l-2.59,7.79a1,1,0,0,1-.93.67H180a1,1,0,0,1-.92-1.3L192.8,7.86a1,1,0,0,1,.92-.65h3.63a1,1,0,0,1,.92.65L212,46.71A1,1,0,0,1,211,48h-4.24a1,1,0,0,1-.92-.66l-2.62-7.8a1,1,0,0,0-.92-.66M200,33.41a1,1,0,0,0,.92-1.28L195.6,15.56h-.11l-5.31,16.57a1,1,0,0,0,.93,1.28Z"/><path class="cls-1" d="M218.87,8.18a1,1,0,0,1,1-1h14.47a11.9,11.9,0,0,1,8.05,2.69q3.76,3,3.92,8.7c-.07,5.19-2.3,8.83-6.72,10.91a1,1,0,0,0-.43,1.34l8,15.75a1,1,0,0,1-.87,1.41h-4.9a1,1,0,0,1-.88-.56l-7.65-16.32a1,1,0,0,0-.89-.56h-6.07a1,1,0,0,0-1,1V47a1,1,0,0,1-1,1h-4a1,1,0,0,1-1-1Zm6,15.94a1,1,0,0,0,1,1h8.1a6.29,6.29,0,0,0,6.72-6.5,5.53,5.53,0,0,0-2-4.64,6.73,6.73,0,0,0-4.4-1.26h-8.43a1,1,0,0,0-1,1Z"/><path class="cls-1" d="M256,7.21h23.29a1,1,0,0,1,1,1v3.87a1,1,0,0,1-1,1H261.93a1,1,0,0,0-1,1v9.73a1,1,0,0,0,1,1h14.49a1,1,0,0,1,1,1v3.53a1,1,0,0,1-1,1H261.93a1,1,0,0,0-1,1V41.22a1,1,0,0,0,1,1h17.31a1,1,0,0,1,1,1V47a1,1,0,0,1-1,1H256a1,1,0,0,1-1-1V8.18a1,1,0,0,1,1-1"/><path class="cls-2" d="M20.81-.15H20a2.25,2.25,0,0,0-2.16.94L.7,24.8a3.78,3.78,0,0,0,0,4.33l17,24.5a3.75,3.75,0,0,0,2.65,1.56L40,27.17Z"/><path class="cls-3" d="M44.43,30.16,26.67,55.39H58a2.53,2.53,0,0,0,2.33-2.61Z"/><path class="cls-4" d="M44.48,24.32,59.39,3.13a2.11,2.11,0,0,0,.31-.71,2.08,2.08,0,0,0-2-2.57H27.26L44.38,24.18Z"/><path class="cls-1" d="M289.25.9V7.58h-1V.9h-2.14V0h5.24V.9ZM299,7.58V1.31l-2.59,6.27h-.27l-2.59-6.27V7.58h-1V0h1.48l2.21,5.51L298.52,0H300V7.58Z"/></svg>