<svg xmlns="http://www.w3.org/2000/svg" width="163.4" height="43" viewBox="0 0 163.4 43"><defs><style>.cls-1{fill:#fff;}</style></defs><g id="Layer_2" data-name="Layer 2"><g id="Layer_1-2" data-name="Layer 1"><polygon class="cls-1" points="95.1 12 104.5 8.5 95.1 4.9 95.1 0 111.2 6.5 111.2 10.5 95.1 17 95.1 12"/><path class="cls-1" d="M6.2,43C2.8,43,0,41.3,0,37.5v-.2c0-4.6,4-6.2,8.9-6.2h2.3v-.9c0-1.9-.8-3-2.8-3a2.49,2.49,0,0,0-2.8,2.4H.6c.4-4.2,3.7-6.2,8.1-6.2s7.8,1.9,7.8,6.6V42.6H11.4V40.4A6.18,6.18,0,0,1,6.2,43Zm5-6.6V34.6H9.1c-2.6,0-3.9.7-3.9,2.4v.2c0,1.3.8,2.2,2.6,2.2S11.2,38.3,11.2,36.4ZM28.4,43c-5.2,0-9-3.2-9-9.6v-.3c0-6.4,4-9.8,9-9.8,4.3,0,7.8,2.2,8.2,7.1h-5c-.3-1.8-1.3-3-3.1-3-2.2,0-3.8,1.8-3.8,5.5v.6c0,3.8,1.4,5.5,3.8,5.5,1.8,0,3.1-1.3,3.4-3.4h4.8C36.4,40,33.5,43,28.4,43ZM48,43c-5.2,0-9-3.2-9-9.6v-.3c0-6.4,4-9.8,9-9.8,4.3,0,7.8,2.2,8.2,7.1h-5c-.3-1.8-1.3-3-3.1-3-2.2,0-3.8,1.8-3.8,5.5v.6c0,3.8,1.4,5.5,3.8,5.5,1.8,0,3.1-1.3,3.4-3.4h4.8C56,40,53.1,43,48,43Zm19.7,0c-5.4,0-9.1-3.2-9.1-9.5v-.4c0-6.3,3.9-9.8,9-9.8,4.7,0,8.6,2.6,8.6,8.9v2.3H63.9c.2,3.4,1.7,4.7,3.9,4.7a3.38,3.38,0,0,0,3.5-2.4h4.9C75.6,40.3,72.6,43,67.7,43ZM64,31h7c-.1-2.8-1.4-4-3.5-4C65.9,27.1,64.4,28,64,31Zm15.4-7.2h5.3v2.8a6,6,0,0,1,5.7-3.2c3.4,0,5.7,2.1,5.7,6.6V42.6H90.8V30.8c0-2.2-.9-3.2-2.8-3.2a3.15,3.15,0,0,0-3.3,3.5V42.6H79.4V23.8Zm26.4-5.7v5.7h3.6v3.9h-3.6v8.9c0,1.4.6,2.1,1.9,2.1a4.5,4.5,0,0,0,1.8-.3v4.1a10.27,10.27,0,0,1-3,.4c-4.1,0-6-1.9-6-5.7V27.7H98.3V23.8h2.2V20.3Zm23.4,24.5H124V39.8a5.81,5.81,0,0,1-5.5,3.2c-3.4,0-5.9-2.1-5.9-6.5V23.8h5.3v12c0,2.2.9,3.2,2.7,3.2a3.2,3.2,0,0,0,3.3-3.5V23.8h5.3Zm3.9-18.8h5.3v3.5a5.66,5.66,0,0,1,5.7-3.7v5.2c-3.6,0-5.7,1.1-5.7,4.2v9.7h-5.3ZM154.8,43c-5.4,0-9.1-3.2-9.1-9.5v-.4c0-6.3,3.9-9.8,9-9.8,4.7,0,8.6,2.6,8.6,8.9v2.3H151.1c.2,3.4,1.7,4.7,3.9,4.7a3.38,3.38,0,0,0,3.5-2.4h4.9C162.6,40.3,159.7,43,154.8,43ZM151,31h7.1c-.1-2.8-1.4-4-3.5-4C153,27.1,151.5,28,151,31Z"/></g></g></svg>