<?xml version="1.0" encoding="utf-8"?>
<!-- Generator: Adobe Illustrator 19.0.0, SVG Export Plug-In . SVG Version: 6.00 Build 0)  -->
<svg version="1.1" id="layer" xmlns="http://www.w3.org/2000/svg" xmlns:xlink="http://www.w3.org/1999/xlink" x="0px" y="0px"
	 viewBox="-200 100 700 400" width="400" height="238.13" style="enable-background:new -200 100 700 400;" xml:space="preserve">
<style type="text/css">
	.st0{fill:#F58C3A;}
	.st1{fill:#494D56;}
</style>
<path class="st0" d="M205.3,215.7h-23.5L135,337.2h41.7l8.9-28.5c-5.6-2.9-9.4-8.6-9.4-15.4c0-9.5,7.8-17.3,17.3-17.3
	c9.5,0,17.3,7.7,17.3,17.3c0,6.7-3.8,12.5-9.4,15.4l8.9,28.5H252L205.3,215.7z"/>
<path class="st1" d="M281.3,214.4h42.3c13.4,0,22.7,1.8,28.6,3.6c37.5,11.1,37.6,72.2-4.1,82.5l30.6,35.9h-25.3l-29.2-33.3h-19.9
	v33.3h-23.1L281.3,214.4L281.3,214.4z M304.4,280.2h25.9c7.4,0,26.2,0.2,26.2-21.8c0-21.1-20.9-21.4-27-21.4h-25L304.4,280.2
	L304.4,280.2z M415.1,214.8h22.9v121.5h-22.9V214.8z M-72.9,247l19.6,51.8h-38.4L-72.9,247z M-84.7,214.4l-47,121.9h25.7l5.6-15.7
	h54.7l6.1,15.7h24.9l-46.6-121.9H-84.7z M121.7,268.7h-59v21.1h34.1c-1,8.5-4.4,16.1-12.9,21c-5.4,3.2-11.9,4.9-19.6,4.9
	c-12,0-22-3.9-30.1-11.9c-8.1-7.9-12.2-17.6-12.2-28.9c0-11,3.9-20.4,11.8-28.1c7.8-7.7,17.6-11.6,29.2-11.6
	c10.2,0,19.4,3.1,27.7,9.3l11-20.5c-12.9-9-30.3-10.7-38.9-10.7c-19.6,0-35.5,6.9-47.8,20.5C4.8,245.5-0.4,259.1-0.4,274.7
	c0,11.4,2.8,22,8.4,31.8c5.6,9.8,13.2,17.4,22.8,22.7c9.5,5.3,20.5,8,32.7,8c11.4,0,21.4-2.4,29.9-7.3c8.5-4.9,15.4-11.9,20.8-21.1
	c5.3-9.2,8-24.8,8-35.1l-0.2-4.8L121.7,268.7z M459.9,329.1h1.1c0.4,0,0.7,0,0.9-0.1c0.3-0.1,0.5-0.2,0.6-0.3
	c0.2-0.2,0.3-0.3,0.3-0.5c0.1-0.2,0.1-0.4,0.1-0.7c0-0.2,0-0.5-0.1-0.6c-0.1-0.2-0.2-0.3-0.4-0.5c-0.1-0.1-0.3-0.2-0.5-0.3
	c-0.2-0.1-0.5-0.1-0.9-0.1h-1.3V329.1z M459.9,330.2v3.3h-1.5v-8.4h2.7c1.1,0,1.9,0.2,2.5,0.6c0.5,0.4,0.8,1,0.8,1.8
	c0,0.6-0.2,1.1-0.5,1.5c-0.3,0.4-0.9,0.7-1.5,0.9c0.1,0.1,0.2,0.2,0.3,0.3c0.1,0.1,0.2,0.2,0.3,0.4l2.2,3.2h-1.4
	c-0.2,0-0.4-0.1-0.5-0.2l-1.9-2.9c-0.1-0.1-0.2-0.2-0.2-0.2c-0.1-0.1-0.2-0.1-0.4-0.1L459.9,330.2L459.9,330.2z M455.3,329.4
	c0,0.6,0.1,1.1,0.3,1.6c0.2,0.5,0.3,1,0.6,1.5s0.6,0.9,0.9,1.2c0.4,0.4,0.8,0.7,1.2,1c0.5,0.3,1,0.5,1.5,0.6s1.1,0.2,1.6,0.2
	c0.9,0,1.6-0.2,2.4-0.5c0.8-0.3,1.4-0.8,1.9-1.3s1-1.2,1.3-1.9c0.3-0.8,0.5-1.6,0.5-2.4c0-0.6-0.1-1.1-0.2-1.6
	c-0.2-0.6-0.4-1-0.6-1.5c-0.3-0.5-0.6-0.9-0.9-1.2c-0.4-0.4-0.8-0.7-1.3-1c-0.4-0.3-0.9-0.5-1.4-0.6c-0.6-0.2-1.1-0.2-1.6-0.2
	c-0.9,0-1.6,0.2-2.4,0.5s-1.4,0.8-1.9,1.3s-1,1.2-1.3,2C455.5,327.7,455.3,328.5,455.3,329.4 M454.3,329.4c0-0.7,0.1-1.3,0.3-1.9
	c0.2-0.6,0.4-1.2,0.7-1.7c0.3-0.5,0.7-1,1.1-1.4c0.4-0.4,0.9-0.8,1.4-1.1c0.5-0.3,1.1-0.6,1.7-0.7c0.6-0.2,1.2-0.3,1.9-0.3
	c0.7,0,1.3,0.1,1.9,0.3c0.6,0.2,1.2,0.4,1.7,0.7s1,0.7,1.4,1.1c0.5,0.4,0.8,0.9,1.1,1.4c0.3,0.5,0.6,1.1,0.7,1.7
	c0.2,0.6,0.3,1.2,0.3,1.9s-0.1,1.3-0.3,1.9c-0.2,0.6-0.4,1.2-0.7,1.7c-0.3,0.5-0.7,1-1.1,1.4c-0.4,0.4-0.9,0.8-1.4,1.1
	c-0.5,0.3-1.1,0.6-1.7,0.7s-1.2,0.3-1.9,0.3c-0.7,0-1.3-0.1-1.9-0.3c-0.6-0.2-1.2-0.4-1.7-0.7c-0.6-0.3-1-0.7-1.4-1.1
	c-0.5-0.4-0.8-0.9-1.1-1.4c-0.3-0.6-0.6-1.1-0.7-1.7C454.4,330.6,454.3,330,454.3,329.4"/>
</svg>
