<svg xmlns="http://www.w3.org/2000/svg" viewBox="0 0 160 38" width="160" height="38"><defs><style>.cls-1{fill:#3c1f5d;}.cls-2{fill:#e56a25;}</style></defs><title>Asset 1</title><g id="Layer_2" data-name="Layer 2"><g id="Layer_1-2" data-name="Layer 1"><path class="cls-1" d="M94.17,34.56a3.42,3.42,0,0,0,1.7-3.16c0-2.22-1.57-3.59-4.09-3.59h-4V37.95H90V35.11h2.09l1.83,2.84h2.57Zm-.43-3.13c0,.66-.2,1.53-2,1.53H90V30h1.79c1.75,0,2,.84,2,1.47m-68.54.32c-1.23-.38-1.77-.6-1.77-1.17s.71-.61,1.32-.61a4,4,0,0,1,2.13.66l.57.38.92-2-.41-.28a5.82,5.82,0,0,0-3.15-.93c-2.19,0-3.66,1.17-3.66,2.9,0,2.17,1.85,2.72,3.21,3.13s1.8.6,1.79,1.19c0,.74-1.15.8-1.51.8a3.84,3.84,0,0,1-2.56-1.1l-.57-.56-1,2,.31.3A5.61,5.61,0,0,0,24.62,38c2.27,0,3.8-1.22,3.8-3,0-2.2-1.86-2.78-3.23-3.2m14.1,2.15h4.62V31.74H39.3V30h5.17V27.81h-7.4V37.95h7.56V35.81H39.29V33.9ZM60,34.9a3.28,3.28,0,0,1-2.23.92,3,3,0,0,1-3-3,3,3,0,0,1,3-3h.06a3.12,3.12,0,0,1,2.22,1l.46.47,1.35-1.72-.39-.37a5.36,5.36,0,0,0-3.65-1.47,5.11,5.11,0,0,0,0,10.22,5.47,5.47,0,0,0,3.7-1.54l.41-.39-1.39-1.58Zm16.41-1.23a2.14,2.14,0,1,1-4.29.09s0-.06,0-.09V27.81H70v5.86a4.32,4.32,0,0,0,8.63,0V27.81H76.44v5.86Zm28.48,4.27h2.17V27.81h-2.17V37.95Zm10.43-8h2.9v8h2.17v-8h2.91V27.77h-8v2.15Zm22.5-2.11L135.32,32l-2.56-4.15h-2.38l3.88,6.67v3.46h2.15v-3.5l3.8-6.64h-2.36ZM0,20.06H3.27V12.22h8.48V9H3.27V3.78h9.46V.56H0v19.5Zm17.18-8.39,19.35,8.75V16.87L21.61,10.26,36.53,3.6V0L17.18,8.72ZM57.61,7.3c0-4.22-2.9-6.75-7.75-6.75h-7.5V3.78h7.5c3,0,4.56,1.2,4.56,3.58s-1.53,3.71-4.56,3.71H45.63V4.91H42.36V20.06h3.27V14.28h4.22c.31,0,.61,0,.91,0l3.75,5.81h3.82l-4.47-6.54A6.34,6.34,0,0,0,57.61,7.3M72.27,8.57c-2.49-.77-4-1.32-4-2.94,0-1.35,1.69-1.83,3.27-1.83a8.71,8.71,0,0,1,4.67,1.44l.58.39,1.38-3.07-.42-.28A11.26,11.26,0,0,0,71.64.48c-4.11,0-6.87,2.14-6.87,5.33,0,4,3.39,5,6.12,5.82,2.53.76,4.08,1.31,4.07,3,0,1.39-1.37,2.22-3.65,2.22a8.43,8.43,0,0,1-5.63-2.42l-.58-.57-1.5,3,.32.31a10.86,10.86,0,0,0,7.36,3c4.28,0,7.16-2.26,7.16-5.62,0-4.06-3.41-5.11-6.17-6M86,20.06H89.3V.56H86v19.5ZM106.6,3.67a7.71,7.71,0,0,1,5.1,2l.48.43,1.93-2.53-.42-.37A10.8,10.8,0,0,0,106.6.5a9.83,9.83,0,0,0-.69,19.66h.59a11.74,11.74,0,0,0,7.11-2.54l.22-.18V9.91h-3v5.79A8,8,0,0,1,106.63,17a6.79,6.79,0,0,1-6.89-6.66,6.76,6.76,0,0,1,6.87-6.64m28.63,5.15h-9.75V.56h-3.27v19.5h3.27V12h9.75v8.05h3.27V.56h-3.27V8.82ZM144.88.56V3.78h5.91V20.06h3.27V3.78H160V.56H144.88Z"/><path id="Shape_5_copy" data-name="Shape 5 copy" class="cls-2" d="M28.2,10.16c0-1.58.54-2,1.19-2.27l2.86-1.26V14s-2.49-1.09-3-1.33-1.08-.89-1.08-2.47"/></g></g></svg>