<?xml version="1.0" standalone="no"?>
<!DOCTYPE svg PUBLIC "-//W3C//DTD SVG 20010904//EN"
 "http://www.w3.org/TR/2001/REC-SVG-20010904/DTD/svg10.dtd">
<svg version="1.0" xmlns="http://www.w3.org/2000/svg"
 width="160.000000pt" height="40.000000pt" viewBox="0 0 160.000000 40.000000"
 preserveAspectRatio="xMidYMid meet">

<g transform="translate(0.000000,40.000000) scale(0.100000,-0.100000)"
fill="#000000" stroke="none">
<path d="M0 285 c0 -78 3 -95 15 -95 11 0 15 11 15 40 l0 40 45 0 c33 0 45 4
45 15 0 11 -12 15 -45 15 -41 0 -45 2 -45 24 0 22 5 25 47 28 26 2 48 9 51 16
3 9 -14 12 -62 12 l-66 0 0 -95z"/>
<path d="M253 339 c-46 -21 -83 -45 -83 -52 0 -8 28 -26 63 -41 137 -61 127
-58 127 -41 0 10 -27 29 -72 49 l-73 33 73 33 c39 18 72 39 72 46 0 20 -16 16
-107 -27z"/>
<path d="M422 368 c3 -8 28 -15 59 -18 52 -5 54 -6 54 -35 0 -27 -3 -30 -37
-33 -36 -3 -38 -2 -38 27 0 24 -4 31 -20 31 -18 0 -20 -7 -20 -75 0 -68 2 -75
20 -75 16 0 20 7 20 30 0 25 4 30 24 30 17 0 31 -10 43 -30 9 -16 26 -30 36
-30 17 0 17 2 -3 31 -20 27 -21 32 -7 47 25 28 26 72 1 96 -20 20 -138 23
-132 4z"/>
<path d="M668 369 c-18 -10 -24 -45 -10 -66 4 -6 26 -19 50 -28 29 -12 42 -23
40 -34 -4 -22 -44 -26 -72 -7 -24 15 -36 12 -36 -9 0 -16 44 -35 79 -35 15 0
35 8 44 18 34 38 14 79 -48 99 -46 15 -39 38 12 38 23 0 45 4 49 8 23 23 -73
37 -108 16z"/>
<path d="M860 285 c0 -78 3 -95 15 -95 12 0 15 17 15 95 0 78 -3 95 -15 95
-12 0 -15 -17 -15 -95z"/>
<path d="M995 355 c-19 -18 -25 -35 -25 -69 0 -37 5 -48 31 -70 33 -28 73 -33
114 -14 20 9 25 18 25 50 0 27 -4 38 -15 38 -10 0 -15 -10 -15 -29 0 -29 -14
-41 -51 -41 -49 0 -78 80 -41 113 21 19 64 22 92 7 13 -7 19 -6 24 5 7 20 -24
35 -74 35 -30 0 -47 -6 -65 -25z"/>
<path d="M1220 285 c0 -78 3 -95 15 -95 11 0 15 11 15 40 l0 40 50 0 50 0 0
-40 c0 -29 4 -40 15 -40 12 0 15 17 15 95 0 78 -3 95 -15 95 -11 0 -15 -11
-15 -40 l0 -40 -50 0 -50 0 0 40 c0 29 -4 40 -15 40 -12 0 -15 -17 -15 -95z"/>
<path d="M1450 365 c0 -10 10 -15 30 -15 l30 0 0 -80 c0 -64 3 -80 15 -80 12
0 15 16 15 80 l0 80 30 0 c20 0 30 5 30 15 0 12 -15 15 -75 15 -60 0 -75 -3
-75 -15z"/>
<path d="M294 295 c-3 -8 -3 -19 1 -25 11 -18 25 -11 25 15 0 27 -17 34 -26
10z"/>
<path d="M216 93 c-7 -16 15 -43 36 -43 4 0 8 -5 8 -11 0 -7 -10 -9 -25 -5
-29 7 -35 -10 -6 -19 48 -15 73 37 26 55 -32 12 -32 24 0 17 16 -3 24 0 22 7
-6 19 -54 19 -61 -1z"/>
<path d="M370 60 l0 -50 34 0 c19 0 38 5 41 10 4 6 -7 10 -24 10 -17 0 -31 5
-31 10 0 6 11 10 25 10 14 0 25 5 25 10 0 6 -11 10 -25 10 -14 0 -25 5 -25 10
0 6 11 10 25 10 14 0 25 5 25 10 0 6 -16 10 -35 10 l-35 0 0 -50z"/>
<path d="M542 98 c-22 -22 -15 -67 12 -80 26 -11 56 -5 56 11 0 5 -12 9 -27 8
-24 -2 -28 2 -28 23 0 21 5 25 28 25 15 -1 26 4 24 10 -5 15 -50 18 -65 3z"/>
<path d="M700 71 c0 -22 6 -44 15 -51 21 -17 61 -4 69 22 9 35 7 68 -4 68 -5
0 -10 -12 -10 -27 0 -37 -14 -57 -34 -50 -10 4 -16 19 -16 42 0 19 -4 35 -10
35 -5 0 -10 -17 -10 -39z"/>
<path d="M880 60 c0 -27 5 -50 10 -50 6 0 10 7 10 15 0 19 14 19 30 0 17 -21
33 -19 22 2 -7 11 -6 23 1 34 15 24 -7 49 -44 49 -28 0 -29 -2 -29 -50z m53
15 c1 -5 -6 -11 -15 -13 -11 -2 -18 3 -18 13 0 17 30 18 33 0z"/>
<path d="M1050 60 c0 -27 5 -50 10 -50 6 0 10 23 10 50 0 28 -4 50 -10 50 -5
0 -10 -22 -10 -50z"/>
<path d="M1150 100 c0 -5 7 -10 15 -10 11 0 15 -11 15 -40 0 -22 5 -40 10 -40
6 0 10 18 10 40 0 29 4 40 15 40 8 0 15 5 15 10 0 6 -18 10 -40 10 -22 0 -40
-4 -40 -10z"/>
<path d="M1310 103 c0 -5 7 -17 15 -27 8 -11 15 -30 15 -43 0 -13 5 -23 10
-23 6 0 10 7 10 16 0 9 9 32 21 50 22 37 10 48 -15 13 l-14 -21 -11 21 c-11
20 -31 29 -31 14z"/>
</g>
</svg>
