<svg xmlns="http://www.w3.org/2000/svg" viewBox="0 0 800 238.13" width="800" height="238.13"><defs><style>.cls-1{fill:#fff;}</style></defs><title>Asset 2</title><g id="Layer_2" data-name="Layer 2"><g id="Layer_1-2" data-name="Layer 1"><path class="cls-1" d="M72.69,79.06S66.15,72.41,53,72.41c-7.79,0-15.52,3.78-15.36,11.69.35,16.65,47.4,30,47.37,57.17,0,5.09,3,36.85-46.22,39.22-.94,0-19.57,1.06-38.82-13.82l10.28-17c18.66,15,25,11.83,26.5,11.77C53.31,160.8,53.11,149.27,53,146.1,52.57,126.27,5.67,116.82,6.7,86.62c.78-23.14,23-32.44,41.09-32.44a72.08,72.08,0,0,1,34.67,9.44Z"/><path class="cls-1" d="M175.06,54.18c-34.64-1.12-44.26,20.94-44.26,20.94L131,56.7H99.46V238.13H131l-.32-77s12.76,19.4,36.15,19.4c44.65,0,58.82-41.37,58.82-64.52C225.61,90.4,214,55.44,175.06,54.18ZM161.26,161.59c-21.17,0-30.65-19.78-30.65-44.18s10.1-44.18,30.65-44.18c22.46,0,30.65,19.78,30.65,44.18C191.91,139.86,182,161.59,161.26,161.59Z"/><rect class="cls-1" x="239.32" width="32.44" height="177.65"/><path class="cls-1" d="M324,132s-2.2,26.62,23.94,26.46c2.3,0,26.46,1.73,27.29-32.13l0-69.61h31.66v121H375.28l0-16.22c-17.33,20.16-39,19.06-40.16,19.06-43.15,0-43.15-39.06-43.15-39.06V56.7H324V132Z"/><path class="cls-1" d="M512.1,102.38s2.21-26.62-23.94-26.46c-2.3,0-26.46-1.73-27.29,32.13l0,69.61H429.26v-121h31.61l0,16.22c17.33-20.16,39-19.06,40.16-19.06,43.15,0,43.15,39.06,43.15,39.06v84.73H512.1V102.38Z"/><polygon class="cls-1" points="597.93 177.67 566.28 177.67 566.28 0 597.93 0 597.93 104.5 601.24 104.5 644.39 54.97 668.33 65.36 627.54 109.14 675.89 169.78 646.13 179.7 598.94 113.99 597.93 113.95 597.93 177.67"/><polygon class="cls-1" points="800 126.47 703.77 173.72 703.77 153.09 778.9 116 703.77 79.85 703.77 58.27 800 106.47 800 126.47"/></g></g></svg>