<svg xmlns="http://www.w3.org/2000/svg" viewBox="0 0 2700 1130" width="2700" height="1130"><defs><style>.cls-1{fill:#fff;}</style></defs><title>Asset 2</title><g id="Layer_2" data-name="Layer 2"><g id="Layer_1-2" data-name="Layer 1"><g id="Jwiar8.tif"><path class="cls-1" d="M104,0a135.87,135.87,0,0,1,49.71,18.19c10.19,6.29,20.57,12.29,30.86,18.42q235.32,140,470.66,279.94c23.61,14,42.67,32.32,51.5,58.83,13,39.14,2.21,72.67-26.53,101.14-12.82,12.7-28.85,20.77-44.14,29.85Q587.78,535,539.41,563.55c-.85.51-1.66,1.08-2.7,1.76,1,1.78,2.79,2.32,4.25,3.18q57.33,34,114.69,67.9c23.31,13.8,42.06,32,51,58.07,12.59,36.94,3.53,69.42-22.62,97.67-11.73,12.67-26.56,21-41.18,29.66q-223.3,132.35-446.59,264.71c-17.6,10.43-35.17,20.94-53,30.9a99.83,99.83,0,0,1-37.86,11.86,12.15,12.15,0,0,0-2.31.73H81a5.89,5.89,0,0,0-1.6-.89c-40.5-7.6-65-32.17-75.65-71.36-1.5-5.52-2.51-11.17-3.75-16.75q0-94,0-188a16.51,16.51,0,0,0,.76-2.82,167.67,167.67,0,0,1,9.3-41.78C26.81,761.72,54,722.94,97.16,697.11c72.52-43.36,145.31-86.26,218-129.39,1-.6,2.5-.87,2.73-2.46a13,13,0,0,0-1.23-.95q-77.27-45.77-154.53-91.53c-24.75-14.68-50.31-28.2-73.93-44.52C42.87,397,16.24,352.59,4,299.31c-1.83-8-2.7-16.2-4-24.31Q0,183.5,0,92c2.34-4.68,1.8-9.92,2.91-14.85C10.86,41.8,30.47,16.47,65.36,4.32,70.75,2.44,76.45,1.42,82,0ZM588.39,405.73l-477.24-284c0,2.47,0,4.07,0,5.66,0,45.32-.82,90.66.28,136,.78,32.32,15.53,59.11,43.12,75.78,89,53.76,178.75,106.26,268.15,159.35,3.4,2,5.82,2.2,9.3.12q69.21-41.29,138.6-82.28C576.4,412.9,582.2,409.42,588.39,405.73Zm-.92,320c-1.1-1.92-2.8-2.41-4.19-3.24q-75.53-44.87-151-89.78c-3.65-2.18-6.07-2.15-9.71,0Q288.68,712.31,154.65,791.63a67.36,67.36,0,0,0-18,14.89c-16.35,19.8-26.57,41.61-26.08,68.26.78,42.48.21,85,.21,127.48,0,1.76,0,3.51,0,6.1Z"/><path class="cls-1" d="M2700,756c-2.76,10.24-4.2,20.78-7.36,30.93-22,70.74-69.35,115.41-140.68,133.65-56,14.31-111.72,12.06-165.28-11.09-60.73-26.24-100.34-72.55-122.61-134.15-15.06-41.66-19.28-84.8-16.1-128.81,3-41.68,13.07-81.41,33.88-117.88C2318,465.32,2372.47,428,2444.45,417c46.25-7.11,91.8-3.41,135.36,14.42,60.76,24.87,98.39,70.25,115.11,133.37,1.95,7.35,3.4,14.83,5.08,22.25v5c-1.74-.86-3.61-.45-5.41-.45-41.32,0-82.63-.08-123.95.08-3.9,0-5.4-1.11-6.34-4.88-3.43-13.7-9.9-25.94-20.8-35.06-27.12-22.7-58.14-25.86-90.58-15.1-26,8.63-42.45,28.38-53.79,52.6-9.94,21.23-14.35,43.85-15.7,67.1-1.74,30,.83,59.55,11.6,87.92,16.8,44.25,51.82,72.65,102.68,67,33.13-3.71,58.33-24,66.93-56.11.94-3.51,2.41-4,5.42-3.95,8.16.15,16.33.06,24.49,0L2700,751Z"/><path class="cls-1" d="M1625.53,464.31c39.48-41.57,88.15-53.73,142.21-49.4,38.31,3.07,71.6,18.15,99.43,44.81a132.34,132.34,0,0,1,12.37,13.7c2.22,2.82,3.2,2.48,5.45.09,24.84-26.33,54.74-44.37,89.93-52.87,41.31-10,82.56-10.64,122.66,5.5,42.28,17,68.62,49.08,83.35,91.41,8.45,24.29,12,49.47,12,75.09q.18,160,.17,320c0,4.64-1.39,5.34-5.56,5.32q-63.24-.23-126.49,0c-4.18,0-5.18-1.06-5.17-5.19q.18-145.48,0-291c0-18.51-3-36.54-12.19-52.93-13.31-23.77-34.69-33.42-60.93-32.12-36.87,1.82-62.72,23.75-72.15,59.58a32.42,32.42,0,0,0-.84,8.4q0,153.48.12,307c0,5-1.06,6.32-6.2,6.3q-63-.36-126,0c-4.71,0-6.07-.95-6.06-5.9q.25-144.73,0-289.47c0-20.5-3.13-40.53-14.52-58.3-13.18-20.54-33-28.33-56.38-27.65-36.82,1.07-64.25,23.14-74.17,58.67a36.11,36.11,0,0,0-1.16,9.86q0,153.23.11,306.47c0,4.89-1,6.37-6.19,6.34q-62.74-.38-125.49,0c-4.13,0-5.23-1-5.23-5.18q.16-241.47,0-482.95c0-3.91,1-4.91,4.9-4.9q63.49.22,127,0c3.81,0,5.11.81,5,4.86C1625.34,441,1625.53,452.33,1625.53,464.31Z"/><path class="cls-1" d="M1085,877.54c0,12.82-.15,24.42.09,36,.07,3.6-1.06,4.36-4.48,4.35q-64.5-.17-129,0c-3.7,0-4.7-.85-4.7-4.64q.15-353.74,0-707.48c0-4.32,1.58-4.71,5.15-4.7q64,.15,128,0c4.35,0,5.07,1.32,5.06,5.31q-.18,126.25-.09,252.49c0,1.79,0,3.57,0,6.51a129,129,0,0,1,22.59-20c36.43-24.64,76.64-34.34,120.34-30.76,41.5,3.4,79.32,16.49,112.32,42.24,37,28.9,60.92,66.92,75.64,111,15.27,45.72,19.08,92.7,14.31,140.5-4.05,40.55-14.71,79.14-35.33,114.5-35.38,60.67-87.81,95.8-157.81,104.4-37.11,4.56-72.68-.16-106.5-16.41C1113.76,902.77,1098.52,892.48,1085,877.54Zm0-206.2c0,25.67,0,51.33,0,77a16.6,16.6,0,0,0,2,8.08c9.14,17.28,22.42,30.43,39.39,40,45.82,25.82,119.76,16.37,151.64-48.05,21.94-44.34,23.16-90.68,7.05-136.85-16.52-47.34-50-74.41-101.07-78.23-37.92-2.83-79.43,19.81-97.13,53.47a16.59,16.59,0,0,0-1.89,8.1Q1085.06,633.1,1085,671.35Z"/></g></g></g></svg>