<svg xmlns="http://www.w3.org/2000/svg" viewBox="0 0 127.97 35.48" width="127.97" height="35.48"><title>Asset 7</title><g id="Layer_2" data-name="Layer 2"><g id="Layer_1-2" data-name="Layer 1"><path d="M0,28.15V.69H9.33a10.7,10.7,0,0,1,6.3,1.56,5.25,5.25,0,0,1,2.16,4.55q0,5-6.59,7,7.7,1.87,7.7,7.55a6,6,0,0,1-2.25,5,10.35,10.35,0,0,1-6.47,1.75Zm5.38-16H6.74a5.79,5.79,0,0,0,3.83-1.19A4,4,0,0,0,12,7.7a2.73,2.73,0,0,0-1.14-2.57,9.36,9.36,0,0,0-4.31-.68H5.38Zm0,12.13H6.61a11.09,11.09,0,0,0,5-.77,3,3,0,0,0,1.36-2.81,4.22,4.22,0,0,0-1.83-3.49,7.39,7.39,0,0,0-4.61-1.39H5.38Z"/><path d="M38.24,27.46a26.36,26.36,0,0,1-7.42,1.15,11,11,0,0,1-8.05-2.89,10.57,10.57,0,0,1-3-7.9,10.7,10.7,0,0,1,2.7-7.62,9.31,9.31,0,0,1,7.13-2.89q4.47,0,6.53,2.82t2.06,8.92H25.61q.56,5.83,6.4,5.83a18.25,18.25,0,0,0,6.23-1.28ZM25.53,16h7.31q0-5.21-3.36-5.21T25.53,16Z"/><path d="M41.64,28.15V7.77h5.49v3.84q2.13-4.3,6.49-4.3a4.69,4.69,0,0,1,1,.11v4.9a6.37,6.37,0,0,0-2.17-.43q-3.28,0-5.34,3.32V28.15Z"/><path d="M56.64,28.15V7.77h5.49v3.84q2.13-4.3,6.49-4.3a4.69,4.69,0,0,1,1,.11v4.9a6.37,6.37,0,0,0-2.17-.43q-3.28,0-5.34,3.32V28.15Z"/><path d="M71.7,35.48l4.62-7.33L68.77,7.77h5.9l5,13.62,6-13.62h4.17L77.31,35.48Z"/><path d="M91.5,28.15V.69h5.71V28.15Z"/><path d="M113.87,28.83a13.17,13.17,0,0,1-10-3.93q-3.75-3.93-3.75-10.48T103.88,3.9Q107.65,0,114.05,0t10.14,3.9Q128,7.79,128,14.36T124.19,25Q120.42,28.83,113.87,28.83Zm.07-3.79a6.86,6.86,0,0,0,5.82-2.89,12.83,12.83,0,0,0,2.14-7.82,12.57,12.57,0,0,0-2.15-7.68,7.08,7.08,0,0,0-11.42,0,12.72,12.72,0,0,0-2.14,7.74,12.81,12.81,0,0,0,2.13,7.73A6.64,6.64,0,0,0,113.94,25Z"/></g></g></svg>