<svg xmlns="http://www.w3.org/2000/svg" width="378.41" height="95.57" viewBox="0 0 378.41 95.57"><defs><style>.cls-1{fill:#c57415;}.cls-2{fill:#c17015;}.cls-3{fill:#c97a16;}.cls-4{fill:#bf6c15;}.cls-5{fill:#f3b610;}.cls-6{fill:#be6216;}.cls-7{fill:#cd8016;}.cls-8{fill:#ba5e15;}.cls-9{fill:#ca7c16;}.cls-10{fill:#f6bb0e;}.cls-11{fill:#f0b211;}.cls-12{fill:#d67d19;}.cls-13{fill:#dc841a;}.cls-14{fill:#d08316;}.cls-15{fill:#d88f16;}.cls-16{fill:#d38816;}.cls-17{fill:#d9811a;}.cls-18{fill:#dc9516;}.cls-19{fill:#df9916;}.cls-20{fill:#e6a315;}.cls-21{fill:#cb7d16;}.cls-22{fill:#ecad13;}.cls-23{fill:#d78d16;}.cls-24{fill:#e9a714;}.cls-25{fill:#e28b1a;}.cls-26{fill:#ecac13;}.cls-27{fill:#d07619;}.cls-28{fill:#c46817;}.cls-29{fill:#e5a215;}.cls-30{fill:#e29e15;}.cls-31{fill:#e9a814;}.cls-32{fill:#f9bf0d;}.cls-33{fill:#dc9416;}.cls-34{fill:#e19d15;}.cls-35{fill:#d37a19;}.cls-36{fill:#d48a16;}.cls-37{fill:#bc6914;}.cls-38{fill:#b14714;}.cls-39{fill:#a73f11;}.cls-40{fill:#aa4112;}.cls-41{fill:#cd7218;}.cls-42{fill:#b64b15;}.cls-43{fill:#ba4f17;}.cls-44{fill:#bf5318;}.cls-45{fill:#c45819;}.cls-46{fill:#d18518;}.cls-47{fill:#c86d18;}.cls-48{fill:#aa4c11;}.cls-49{fill:#ae5112;}.cls-50{fill:#b35613;}.cls-51{fill:#b65a14;}.cls-52{fill:#b85c14;}.cls-53{fill:#a33b0f;}.cls-54{fill:#cf8316;}.cls-55{fill:#fcc40a;}.cls-56{fill:#c46917;}.cls-57{fill:#c96e18;}.cls-58{fill:#cc7218;}.cls-59{fill:#26404c;}.cls-60{fill:#556f7c;}.cls-61{fill:#ca7c17;}</style></defs><title>Asset 1</title><g id="Layer_2" data-name="Layer 2"><g id="Layer_1-2" data-name="Layer 1"><path class="cls-1" d="M.05,56V45.23c.72,0,.77.59,1,1A64.49,64.49,0,0,0,7.56,57.78,57.05,57.05,0,0,0,30.09,76.23a46.39,46.39,0,0,0,8.79,3.12c.43.1,1,0,1.12.7q0,2.12,0,4.24c-.3.93-1,.6-1.58.45-1.66-.43-3.33-.86-4.94-1.45A66.22,66.22,0,0,1,16.13,74,61.6,61.6,0,0,1,.4,56.51,2.24,2.24,0,0,0,.05,56Z"/><path class="cls-2" d="M.05,56c.56,0,.68.47.9.84A62.71,62.71,0,0,0,12.11,70.35,57.71,57.71,0,0,0,24.49,79,63,63,0,0,0,38.56,84.5a7.47,7.47,0,0,0,1.31.09A19.78,19.78,0,0,1,40,88.12c-.21.87-.87.54-1.34.42a66.33,66.33,0,0,1-7.13-2.07,64.88,64.88,0,0,1-16.27-8.54A61.48,61.48,0,0,1,2.82,66.25,30.07,30.07,0,0,1,0,62.51Z"/><path class="cls-3" d="M39.87,79.79a31.1,31.1,0,0,1-7.75-2.35,57.78,57.78,0,0,1-12.93-7.39A54,54,0,0,1,8.31,59.23,71.8,71.8,0,0,1,3.8,52.49,63.26,63.26,0,0,1,.58,46c-.13-.3-.19-.61-.53-.75V33.71c.76,0,.71.61.8,1.08a50.22,50.22,0,0,0,5.09,14.5,42.74,42.74,0,0,0,7.89,11c.26.42.15.94.35,1.37.38,1.62,1.83,2,3.06,2.58.59.29,1.32.37,1.67,1.06.58,1.33,1.86,2,2.94,2.68,2.25,1.43,4.46,2.92,6.85,4.14a53.39,53.39,0,0,0,9.85,4C40,76.53,40,76.5,40,78A3.87,3.87,0,0,1,39.87,79.79Z"/><path class="cls-4" d="M0,62.51c1.23.81,1.87,2.14,2.74,3.23A60,60,0,0,0,13.14,75.91a65.81,65.81,0,0,0,7.54,5.2,67.87,67.87,0,0,0,18.47,7.27,4.33,4.33,0,0,0,.71,0,15.44,15.44,0,0,1,0,4.13c-.45.75-.9.13-1.28-.05Q29,88,19.31,83.39c-2.3-1.09-4.58-2.21-6.86-3.32a21.83,21.83,0,0,0-2.8-2.33A74,74,0,0,1,3.49,72,33.18,33.18,0,0,1,0,68Z"/><path class="cls-5" d="M54.78,12.56a60.9,60.9,0,0,1,6,2.84,1.38,1.38,0,0,0,.39.45c4.77,3.41,4.83,10.36,2.11,14.43A12.13,12.13,0,0,1,57.56,35c-.75.3-1.61.85-2.42,0,0-1,0-2,0-3,.11-.6.68-.62,1.09-.82a8.91,8.91,0,0,0,4-3.81c2.13-3.83-.29-9.27-4.55-10.4-4.75-1.25-8.41,1.64-9.51,5.74-.16.61-.08,1.29-.53,1.81a14.24,14.24,0,0,1-3.36-1.49,7.45,7.45,0,0,1,1.46-5C46.27,14,50.1,12.37,54.78,12.56Z"/><path class="cls-6" d="M40.08,57.46V75.23a.28.28,0,0,1-.36-.16,11.58,11.58,0,0,1-.18-3.25q-.06-1.76,0-3.53c0-1.1,0-2.19,0-3.29,0-.56,0-1.13,0-1.69s0-1.06,0-1.59c0-.08,0-.16,0-.24,0-1.88,0-1.88-1.69-2.62A38.47,38.47,0,0,1,18.24,40.5a34.83,34.83,0,0,1-3-8.34,3,3,0,0,1,.15-2.54,30.39,30.39,0,0,1,4.08,1.92,11.49,11.49,0,0,1,.9,2.71,40.31,40.31,0,0,0,5.56,10.28,19.65,19.65,0,0,0,1.82,1.9A8,8,0,0,1,28,49.27a3.11,3.11,0,0,0,2,3.12c3.24,1.47,6.48,2.93,9.64,4.57A1.73,1.73,0,0,1,40.08,57.46Z"/><path class="cls-7" d="M1.73,23.16l3.39,1.59A2.17,2.17,0,0,1,5.42,26,47.83,47.83,0,0,0,7.25,37.55a45.32,45.32,0,0,0,5.85,12.91c.26.4.62.73.85,1.15a19.84,19.84,0,0,1,0,4.91c-.66.65-1,0-1.32-.39A24.51,24.51,0,0,1,10.25,53,51.33,51.33,0,0,1,2,29.94,23,23,0,0,1,1.73,23.16Z"/><path class="cls-8" d="M13.72,56.75V51.47A2,2,0,0,1,13.35,50c0-1.43,0-2.87,0-4.3,0-2.2,0-4.39,0-6.59-.1-3,.34-6,.27-9A1.52,1.52,0,0,1,14,28.92a3.36,3.36,0,0,1,1.45.7c-.15,3.13,1.05,5.93,2.21,8.71A38.17,38.17,0,0,0,39,59c.78.3,1,.63.91,1.35,0,.4,0,.8,0,1.2-.46.38-.92.14-1.35,0a39.9,39.9,0,0,1-20.29-16.6,56,56,0,0,1-4-8.08c0,1.27,0,2.46,0,3.66s.06,2.4,0,3.61c0,2,.06,3.95,0,5.92s.05,4,0,6c0,1.44,0,2.87,0,4.31A1.83,1.83,0,0,1,14,61.8c-.42-.43-.15-1-.23-1.45A4,4,0,0,1,13.72,56.75Z"/><path class="cls-9" d="M13.72,56.75q0,1.8,0,3.6c-1.25-.39-1.81-1.52-2.51-2.43a54.33,54.33,0,0,1-7.35-12.3A50.72,50.72,0,0,1,.5,34.23a.72.72,0,0,0-.45-.53c0-3.19,0-6.38-.05-9.57,0-1.75.19-1.85,1.73-1a3.88,3.88,0,0,1,.22,2A56,56,0,0,0,5,41.81a50.08,50.08,0,0,0,7.72,14.06A7.21,7.21,0,0,0,13.72,56.75Z"/><path class="cls-10" d="M45.66,24.55c.06-4.1,3-8.25,7.89-8.22a7.62,7.62,0,0,1,7.71,8.21c-.27,3.45-2.94,6.69-6,7.24-.25-.17,0-.53-.26-.71a7.11,7.11,0,0,0-.69-1.95c.19-.57.74-.69,1.19-.92A4.16,4.16,0,0,0,58,23.53a4.2,4.2,0,0,0-3.72-3.81,4.4,4.4,0,0,0-5.14,4.9c.07.53.35,1.1-.12,1.59A14.75,14.75,0,0,1,45.66,24.55Z"/><path class="cls-11" d="M55.26,35.15c3.64-.32,6.16-2.38,7.93-5.39a10.42,10.42,0,0,0,.8-9.69,8.76,8.76,0,0,0-2.3-3.34c-.39-.36-.94-.65-.9-1.33,1.88.86,3.78,1.68,5.63,2.61a2.56,2.56,0,0,1,1.29,2.42c0,2.83,0,5.66,0,8.49-2.07,4.94-5.44,8.46-10.81,9.72-.59.14-1.34.53-1.75-.38A15.93,15.93,0,0,1,55.26,35.15Z"/><path class="cls-12" d="M33.41,20.27a12.79,12.79,0,0,1,2.89,1.42c.26,1.49,0,3,.27,4.51A16.34,16.34,0,0,0,52.5,39.64c.49,0,1.06-.13,1.41.42,0,.81,0,1.61,0,2.42-.29.54-.82.44-1.27.43a19.23,19.23,0,0,1-13.15-5.14,19,19,0,0,1-5.65-9A16.91,16.91,0,0,1,33.41,20.27Z"/><path class="cls-13" d="M38.45,22.66a37.13,37.13,0,0,1,3.61,1.73c.56.26.59.82.71,1.31,1.32,5.19,5.93,8,9.81,7.71.48,0,1.06-.14,1.34.48,0,1.17,0,2.34,0,3.5-.25.58-.79.48-1.24.47a14.19,14.19,0,0,1-12.14-6.45,14.65,14.65,0,0,1-2.32-6.22A3.2,3.2,0,0,1,38.45,22.66Z"/><path class="cls-14" d="M13.73,45.71q0,2.88,0,5.76a5.38,5.38,0,0,1-2.09-2.62,59.17,59.17,0,0,1-3.38-7.1,48.9,48.9,0,0,1-2.7-10.58,31.49,31.49,0,0,1-.43-6.42,20.14,20.14,0,0,1,3.1,1.49,1.57,1.57,0,0,1,.31,1,41.24,41.24,0,0,0,4.78,17.61A5.46,5.46,0,0,0,13.73,45.71Z"/><path class="cls-15" d="M17.82,29.32c-1-.43-2.06-.84-3.08-1.3a1.4,1.4,0,0,1-.95-1.43c0-4.71,0-9.42,0-14.14,0-1.23.25-1.39,1.32-.86a29.09,29.09,0,0,1,4.35,2.21c.28.38.12.77,0,1.14a43.57,43.57,0,0,0-1.32,8.87c-.11,1.35.34,2.7.21,4.06C18.35,28.41,18.48,29,17.82,29.32Z"/><path class="cls-16" d="M13.73,45.71a4.23,4.23,0,0,1-1.45-2.12,46.94,46.94,0,0,1-4-14,25.87,25.87,0,0,1,0-3.34L14,28.92C13.87,34.52,13.63,40.11,13.73,45.71Z"/><path class="cls-17" d="M38.45,22.66c0,6.48,2.85,11.12,8.73,13.83a14,14,0,0,0,6.66,1.05,6.58,6.58,0,0,1,0,2.4A16.68,16.68,0,0,1,36.3,26.41a9.35,9.35,0,0,1,0-4.72A5.26,5.26,0,0,1,38.45,22.66Z"/><path class="cls-18" d="M17.82,29.32A5.4,5.4,0,0,0,18,26c-.43-1.91,0-3.74.13-5.59a24.93,24.93,0,0,1,1.37-6.63,13.51,13.51,0,0,1,3.36,1.47A1.47,1.47,0,0,1,23,16.64a29.28,29.28,0,0,0-.45,13.26,1.58,1.58,0,0,1-.2,1.58Z"/><path class="cls-19" d="M22.37,31.48c-.15-2.56-.92-5.06-.73-7.66a36.28,36.28,0,0,1,1.07-7.37,7.25,7.25,0,0,0,.14-1.17L26,16.74a5.35,5.35,0,0,1,.15,2.81,31.06,31.06,0,0,0,.66,12.17c.16.58.45,1.25-.32,1.68Z"/><path class="cls-20" d="M33.18,18.74a18.71,18.71,0,0,1-3.62-1.83,4.35,4.35,0,0,1,.52-2.06A25.41,25.41,0,0,1,37.73,4.47L41.8,6.4c.09.54-.32.78-.65,1A20.54,20.54,0,0,0,33.8,17.94C33.7,18.27,33.62,18.65,33.18,18.74Z"/><path class="cls-21" d="M53.86,81.21c-.26.49-.65.37-1,.19L41.55,76a7.4,7.4,0,0,1,0-2.44,1.76,1.76,0,0,1,1.7-.19,43.31,43.31,0,0,0,9.22,1,1.74,1.74,0,0,1,1.45.39C53.94,76.92,54,79.07,53.86,81.21Z"/><path class="cls-22" d="M45.17,8.06a26,26,0,0,1,4.57,2.12c-.12.4-.49.5-.82.64A14.58,14.58,0,0,0,40,20.37a2.75,2.75,0,0,1-.61,1.28,16.61,16.61,0,0,1-3.12-1.45,1.06,1.06,0,0,1-.11-1.13C37.75,14.24,40.54,10.4,45.17,8.06Z"/><path class="cls-23" d="M41.58,73.55l0,2.42c-.25-.16-.19-.42-.19-.65q0-8.57,0-17.14a.45.45,0,0,1,.33-.13,24.81,24.81,0,0,1,3.6,1.59c2.51,1.22,5.06,2.34,7.55,3.61.41.21.93.32,1.05.88a6.76,6.76,0,0,1-.1,1.78,7.26,7.26,0,0,1-3.75.22A37.42,37.42,0,0,1,43.26,65c-1.2-.32-1.31-.21-1.33,1,0,1,0,1.91,0,2.87.06,1.15,0,2.3,0,3.45A1.76,1.76,0,0,1,41.58,73.55Z"/><path class="cls-24" d="M67.69,35.63q0,2.76,0,5.52A21.26,21.26,0,0,1,56,46.2c-.35,0-.74,0-.89-.41,0-1.23,0-2.46,0-3.68.09-.55.55-.49.92-.54A15.89,15.89,0,0,0,65.62,37C66.19,36.39,66.66,35.55,67.69,35.63Z"/><path class="cls-25" d="M53.83,33.71a10.25,10.25,0,0,1-8.76-3.1,11.44,11.44,0,0,1-2.76-5.31c-.08-.3-.18-.6-.27-.9,1.29.56,2.58,1.1,3.86,1.69,2,.91,3.88,1.91,5.86,2.78a3.52,3.52,0,0,1,2.1,2.22A9.88,9.88,0,0,1,53.83,33.71Z"/><path class="cls-15" d="M55.46,64.73l-.24-.06a37.78,37.78,0,0,1-.08-4.16c.38-.67,1.09-.61,1.69-.67a39.69,39.69,0,0,0,9.62-2.26c.4-.14.8-.42,1.24-.11V62a2.46,2.46,0,0,1-1.22.72A34.43,34.43,0,0,1,55.46,64.73Z"/><path class="cls-26" d="M67.69,35.63a20.68,20.68,0,0,0-2.95,2.52,14.82,14.82,0,0,1-9.48,3.72,9,9,0,0,1,0-3.36,12.31,12.31,0,0,0,7.65-3.24,14,14,0,0,0,3.74-4.91,3.53,3.53,0,0,1,1-1.44Z"/><path class="cls-11" d="M39.41,21.66a15.86,15.86,0,0,1,2.79-6.24c1.92-2.63,4.62-4.07,7.54-5.23a41.6,41.6,0,0,1,5,2.38c-.93.56-2,.27-3,.47a10.83,10.83,0,0,0-8.41,6.41c-.54,1.18-.67,2.44-1.09,3.63Z"/><path class="cls-27" d="M36.53,38.22l-5-2.4A7.62,7.62,0,0,0,31,34.37a24.26,24.26,0,0,1-2.11-16.26,9.94,9.94,0,0,1,2.88,1.48c.29.36.14.77.11,1.15-.27,4.45.1,8.78,2.36,12.77.63,1.12,1.43,2.11,2.11,3.2C36.6,37.18,37,37.63,36.53,38.22Z"/><path class="cls-28" d="M27.64,46.43c-1.39-.5-2-1.8-2.73-2.87a35.39,35.39,0,0,1-5.27-10.71,4.78,4.78,0,0,1-.14-1.3,34,34,0,0,1,5,2.45A16.92,16.92,0,0,1,25.7,36.3a14.34,14.34,0,0,0,2.2,3.46A44.92,44.92,0,0,1,28,45.62,1.08,1.08,0,0,1,27.64,46.43Z"/><path class="cls-29" d="M55.26,45.95a21.31,21.31,0,0,0,10.59-3.76,4.72,4.72,0,0,1,1.84-1v4.57a2.58,2.58,0,0,1-1.32,1.15A26.19,26.19,0,0,1,56.83,50c-.59.08-1.27.33-1.69-.4A21.41,21.41,0,0,1,55.26,45.95Z"/><path class="cls-30" d="M37.73,4.47c0,.54-.48.82-.82,1.12a24.16,24.16,0,0,0-7.13,11c0,.1-.14.18-.21.28-1.92-.71-1.92-.71-1.92-2.69,0-.79,0-1.57,0-2.36a21.76,21.76,0,0,1,4.51-7c.63-.71,1.27-1.42,1.92-2.11A30.65,30.65,0,0,1,37.73,4.47Z"/><path class="cls-31" d="M45.17,8.06c0,.46-.44.52-.73.7a18,18,0,0,0-8,10.51,6.13,6.13,0,0,0-.14.93,24.77,24.77,0,0,1-3.1-1.46,35.48,35.48,0,0,1,2.56-5.87C37,10.61,39,9,40.87,7.31a5.45,5.45,0,0,0,.93-.91A16.77,16.77,0,0,1,45.17,8.06Z"/><path class="cls-32" d="M49,26.21c0-1-.4-2-.2-3.08a4.79,4.79,0,0,1,5.06-3.8,4.63,4.63,0,0,1,4.51,4.53,4.42,4.42,0,0,1-2.88,4.69c-.41.16-.79.38-1.18.58C52.76,27.78,50.73,27.27,49,26.21Z"/><path class="cls-33" d="M67.69,57.47a42.22,42.22,0,0,1-9,2.49c-1.13.17-2.27.26-3.41.39a21.82,21.82,0,0,1-.12-3.68c.26-.61.86-.51,1.33-.58a40.46,40.46,0,0,0,8-1.81c.68-.23,1.35-.45,2-.74.38-.17.77-.46,1.22-.15Z"/><path class="cls-9" d="M39.88,75.22h.2q0,8.21,0,16.42c0,.31.06.65-.19.91q0-2.06,0-4.13t0-3.84q0-2.4,0-4.8c0-1,.28-2.1-.14-2.82s-1.74-.53-2.62-.88a90.84,90.84,0,0,1-8.78-3.78c-2.34-1.22-4.47-2.74-6.74-4A12.79,12.79,0,0,1,18.77,66c-.18-.19-.28-.4,0-.59a1.55,1.55,0,0,1,1.36.23q6.4,3,12.75,6c1.9.91,3.86,1.71,5.72,2.72A3.85,3.85,0,0,1,39.88,75.22Z"/><path class="cls-34" d="M55.26,49.79A24.9,24.9,0,0,0,66.87,46.2l.82-.49v4.07c-1.46,1.33-3.35,1.74-5.12,2.4a32.64,32.64,0,0,1-6.4,1.32c-.36.06-.8.24-1-.28A18.27,18.27,0,0,1,55.26,49.79Z"/><path class="cls-35" d="M33.41,20.27c.48.61,0,1.23,0,1.84A19.47,19.47,0,0,0,53.84,42.59a2.26,2.26,0,0,1,0,1.19,4.28,4.28,0,0,1-3,.27,21,21,0,0,1-9.1-3,3.44,3.44,0,0,0-1.41-.62l-1-1a39.78,39.78,0,0,1-3.1-3.3A20.18,20.18,0,0,1,32.15,20.7a1.69,1.69,0,0,1,.3-.9A1.66,1.66,0,0,1,33.41,20.27Z"/><path class="cls-19" d="M55.26,53.39c2.2-.61,4.5-.67,6.71-1.36,2-.62,3.81-1.52,5.73-2.24v3.6a36.81,36.81,0,0,1-9.38,2.78c-1,.15-2,.23-3,.34A8.16,8.16,0,0,1,55.26,53.39Z"/><path class="cls-27" d="M41.57,58.18h-.18q0-7-.06-13.93,0-1,0-1.91c-.24-.55-.14-.87.54-.74a4.51,4.51,0,0,1,1.2.51,20.07,20.07,0,0,0,9.4,2.29c.5,0,1.05-.09,1.43.4,0,.91,0,1.83,0,2.74-.37.51-.92.4-1.43.41a24.6,24.6,0,0,1-9.24-1.84,8,8,0,0,0-1.33-.51c0,.73,0,1.43,0,2.13,0,1.17,0,2.33,0,3.5,0,1.43,0,2.85,0,4.27C41.86,56.41,42.18,57.36,41.57,58.18Z"/><path class="cls-36" d="M55.46,64.73c.86-.67,1.92-.34,2.87-.47a40.34,40.34,0,0,0,8.89-2.18,1.87,1.87,0,0,1,.47,0q0,2.28,0,4.56a3.58,3.58,0,0,1-1.92.83,12.47,12.47,0,0,0-2.84.82C60.39,67.18,57.91,66,55.46,64.73Z"/><path class="cls-19" d="M34.13,2.78a1.92,1.92,0,0,1-.59,1.15,26.07,26.07,0,0,0-5.44,7.51c-.08.17-.27.28-.41.42,0-3.63,0-7.25,0-10.88,0-1,.33-1.22,1.23-.76C30.61,1.1,32.37,1.93,34.13,2.78Z"/><path class="cls-37" d="M0,68c2.38,2,4.09,4.57,6.44,6.54,1.94,1.62,3.61,3.58,5.87,4.8.33.18.51.42.08.7a49.15,49.15,0,0,1-5.36-2.46C5.28,76.8,3.5,75.9,1.7,75.08A2.68,2.68,0,0,1,0,72.56C0,71,0,69.54,0,68Z"/><path class="cls-38" d="M40.08,57.46a.45.45,0,0,1-.44-.23,20.76,20.76,0,0,1-.1-3.54c0-.47,0-.94,0-1.41.09-.86-.28-1.17-1.15-1.25a9,9,0,0,1-8.35-7.92,8.12,8.12,0,0,1,1.67-5.82c.67,0,1,.67,1.68.77.4.5.16,1,0,1.46-2.06,4.81.81,9,6.06,8.93a1.24,1.24,0,0,1,.47.06c.25.39,0,.86.2,1.26Z"/><path class="cls-39" d="M39.89,52.19v1.44c-1.63.71-3.22.19-4.76-.29a11.17,11.17,0,0,1-7.47-7.63l0-6.24a4.91,4.91,0,0,1,0-4.07,15.07,15.07,0,0,1,2.63,1.2c.37.6-.08,1.07-.3,1.54a9.78,9.78,0,0,0,6.29,13.5,8.74,8.74,0,0,0,2.13.22A2,2,0,0,1,39.89,52.19Z"/><path class="cls-40" d="M39.89,52.19a9.86,9.86,0,0,1-8.11-2.71A10.26,10.26,0,0,1,29.84,37.7a9.47,9.47,0,0,0,.44-1.1,3.57,3.57,0,0,1,1.44.7,10.45,10.45,0,0,1-.9,2.33c-1.52,3.54.47,8.13,3.91,10a7.57,7.57,0,0,0,3.73,1.11C39.63,50.68,40.09,51,39.89,52.19Z"/><path class="cls-30" d="M26.46,33.4a1.24,1.24,0,0,0,.12-1.14A29.42,29.42,0,0,1,25.5,22c.08-1.76.31-3.51.46-5.26l1.9.89a3.16,3.16,0,0,1,.17,1.3c0,4.44,0,8.87,0,13.31a2.15,2.15,0,0,1-.39,1.7A2.45,2.45,0,0,1,26.46,33.4Z"/><path class="cls-41" d="M27.64,33.94q0-7.53,0-15.05c0-.42-.15-.88.21-1.25a1.72,1.72,0,0,1,1,.48c.55.9.06,1.83-.06,2.67a22.64,22.64,0,0,0,1.37,10.89,7.81,7.81,0,0,0,1.49,3.09c.36.38.12.73-.15,1A37.56,37.56,0,0,1,27.64,33.94Z"/><path class="cls-42" d="M39.89,48.59a5,5,0,0,1-5-1.11c-2.84-2.33-3.31-4.84-1.75-8.15a2.37,2.37,0,0,0,.28-1.26l1.44.68c.37.45.08.82-.14,1.2-2,3.59,1.35,7.54,4.44,7,.31-.05.65-.09.84.27A3,3,0,0,1,39.89,48.59Z"/><path class="cls-35" d="M32.45,19.8c.23.77-.2,1.47-.22,2.2A20.62,20.62,0,0,0,36.8,36.27a9.65,9.65,0,0,0,2.31,2.37c.32.19.3.54.29.86a21.69,21.69,0,0,1-2.87-1.27c-.1-1.46-1.28-2.32-2-3.44a19.2,19.2,0,0,1-3-8.66,21.9,21.9,0,0,1,.19-6.53A.87.87,0,0,1,32.45,19.8Z"/><path class="cls-43" d="M39.89,47.15c-3.35.9-5.94-1.88-6.15-4.74a3.86,3.86,0,0,1,.67-2.59,1.43,1.43,0,0,0,.44-1.06,3.5,3.5,0,0,1,1.44.71c.35.51,0,.9-.23,1.32-1.09,2.39.25,4.5,2.87,4.52.38,0,.81-.18,1.06.29A4.11,4.11,0,0,1,39.89,47.15Z"/><path class="cls-35" d="M53.84,44.75A21.35,21.35,0,0,1,42.23,42.1c-.28-.16-.89-.85-.9.25l-1-1.9c.54-.58,1,0,1.36.2a21,21,0,0,0,12.12,3.14A1.23,1.23,0,0,1,53.84,44.75Z"/><path class="cls-44" d="M39.89,45.47c-2.55.4-3.88-.33-4.46-2.45a3.06,3.06,0,0,1,.33-2.39,2.9,2.9,0,0,0,.53-1.17c.68,0,1,.68,1.68.77.31.5-.12.73-.4,1a1.19,1.19,0,0,0-.28,1.52,1.68,1.68,0,0,0,1.4,1.16C40.11,44,40.11,44,39.89,45.47Z"/><path class="cls-45" d="M39.89,45.47c.08-.92.11-1.61-1.27-1.25-1,.25-1.39-.82-1.73-1.52a1.28,1.28,0,0,1,.53-1.74.84.84,0,0,0,.54-.71,2.81,2.81,0,0,1,2.16,3.11c0,2.15,0,4.3,0,6.44-.33-.35-.15-.79-.2-1.2V45.47Z"/><path class="cls-46" d="M62.93,68.24a.64.64,0,0,1,.55-.66,40.12,40.12,0,0,0,4.21-1c0,1,0,1.92,0,2.88,0,.71-.39.93-1,.62C65.42,69.48,64.18,68.86,62.93,68.24Z"/><path class="cls-47" d="M27.65,35.4q0,2,0,4.07c-1.11-.21-1.26-1.22-1.64-2-.54-1.13-1.41-2.12-1.47-3.46A12.75,12.75,0,0,1,27.65,35.4Z"/><path class="cls-48" d="M39.88,75.22c-1.84-.84-3.7-1.67-5.53-2.53Q27.16,69.29,20,65.88c-.39-.19-.81-.33-1.21-.49a14.11,14.11,0,0,0-3.08-1.5A2.84,2.84,0,0,1,14,61.8q0-2.88,0-5.77c.78-.2,1.19.38,1.6.83a65.19,65.19,0,0,0,5.7,5.47,45.71,45.71,0,0,0,8.38,5.53,40.58,40.58,0,0,0,9.94,3.81.74.74,0,0,1,.3.2Z"/><path class="cls-49" d="M39.89,71.87c-2.26,0-4.23-1.07-6.27-1.84a46.11,46.11,0,0,1-11.39-6.47,43.37,43.37,0,0,1-6.84-6.46A3.51,3.51,0,0,0,14,56q0-3,0-6c.57-.34.8.14,1,.46,1.25,1.66,2.57,3.26,3.93,4.83a40.38,40.38,0,0,0,6.69,5.78,42.64,42.64,0,0,0,12.2,6.24,5.5,5.5,0,0,1,2.06.93Z"/><path class="cls-50" d="M39.88,68.27a41.84,41.84,0,0,1-10-4.06,46.14,46.14,0,0,1-10.49-8c-1.64-1.65-3-3.59-4.49-5.4-.27-.32-.37-.83-.94-.81q0-3,0-6c.63-.12.83.38,1.06.78A41.9,41.9,0,0,0,23.26,55.2a42,42,0,0,0,15.87,9.37,1.59,1.59,0,0,1,.75.34Z"/><path class="cls-51" d="M39.88,64.91a10.45,10.45,0,0,1-4.08-1.23,42.77,42.77,0,0,1-12.57-8.09,42.16,42.16,0,0,1-8.37-10.49A2.13,2.13,0,0,0,14,44q0-1.92,0-3.84c.7-.06.81.54,1,1a51.1,51.1,0,0,0,5.18,8.2A40.88,40.88,0,0,0,38.65,62.54a2.52,2.52,0,0,1,1.24.69Z"/><path class="cls-52" d="M39.88,63.23a39.5,39.5,0,0,1-13.26-7.07,42.3,42.3,0,0,1-8.41-9,48.81,48.81,0,0,1-3.54-6.06c-.18-.35-.28-.76-.7-.93q0-2.05,0-4.11l.21,0c.87,1.9,1.68,3.82,2.62,5.68A39,39,0,0,0,30.73,57.28a36.59,36.59,0,0,0,7.88,4,12.52,12.52,0,0,0,1.27.3Q39.88,62.39,39.88,63.23Z"/><path class="cls-53" d="M27.66,45.71c.57,0,.53.55.66.88A10.79,10.79,0,0,0,35,53a13.44,13.44,0,0,0,4.92.65c-.14,1.2.3,2.44-.24,3.61-1.74-.79-3.48-1.58-5.22-2.39s-3.29-1.63-5-2.35a2.88,2.88,0,0,1-1.79-2.84c0-1.08,0-2.16,0-3.24Z"/><path class="cls-54" d="M53.8,70.19q0,2.28,0,4.56a40.72,40.72,0,0,1-11-1.15,5.54,5.54,0,0,0-1.18,0q0-2.4,0-4.8a1.53,1.53,0,0,1,1.47-.12,37.89,37.89,0,0,0,9.52,1.21A1.65,1.65,0,0,1,53.8,70.19Z"/><path class="cls-16" d="M53.8,70.19a38.09,38.09,0,0,1-11.39-1.36,4.84,4.84,0,0,0-.83-.08c0-1.28,0-2.55,0-3.83,0-.52.13-.69.71-.54a49.77,49.77,0,0,0,7.36,1.37c1.4.13,2.78,0,4.17.12Z"/><path class="cls-6" d="M53.84,57.23a62.81,62.81,0,0,1,0,6.72c-1.59-.71-3.19-1.4-4.76-2.15-2.51-1.19-5-2.41-7.49-3.62q0-1.31,0-2.63c.47-.33.93-.1,1.37,0a28.66,28.66,0,0,0,9.42,1.29A2,2,0,0,1,53.84,57.23Z"/><path class="cls-55" d="M53.55,26.75a2.67,2.67,0,0,1-2.62-2.57,2.94,2.94,0,0,1,2.66-2.69,2.72,2.72,0,0,1,2.61,2.73A2.66,2.66,0,0,1,53.55,26.75Z"/><path class="cls-56" d="M53.84,57.23a32.35,32.35,0,0,1-12.27-1.68q0-2.16,0-4.32a1.36,1.36,0,0,1,1.35-.12,36.2,36.2,0,0,0,9.92,1.7,1.45,1.45,0,0,1,1,.34A26.48,26.48,0,0,1,53.84,57.23Z"/><path class="cls-57" d="M53.84,53.15c-3.78.21-7.39-.69-11-1.7a3.44,3.44,0,0,0-1.28-.22q0-1.8,0-3.6a.93.93,0,0,1,1,0,30.72,30.72,0,0,0,10.92,2,.92.92,0,0,1,.34.11A18.27,18.27,0,0,1,53.84,53.15Z"/><path class="cls-58" d="M53.84,49.78c-1.62.61-3.22-.05-4.82-.14a25.82,25.82,0,0,1-7.44-2c0-2.56,0-2.5,2.36-1.6a24.27,24.27,0,0,0,9.91,1.6A7.8,7.8,0,0,1,53.84,49.78Z"/><path class="cls-59" d="M312.32,69.3V37.08c.24-.32.54-.24.8-.24,6,0,12,0,18,0,4.43,0,7.78,2.54,8.62,6.53.74,3.53-.07,6.57-3.43,8.6a11.13,11.13,0,0,1,3,1.86c4.69,4.48,2.56,12.89-3.81,15a10.58,10.58,0,0,1-3.3.56H313C312.81,69.35,312.62,69.32,312.32,69.3Zm6.11-13.64v7.84c4.52,0,9,.12,13.45,0a3.88,3.88,0,0,0,.06-7.76C327.47,55.58,323,55.66,318.43,55.66Zm0-5.86h8.23a27.68,27.68,0,0,0,4.18-.14,3.47,3.47,0,0,0,3-3.21,3.43,3.43,0,0,0-2.53-3.61,5.92,5.92,0,0,0-1.78-.18H319.37c-.3,0-.64-.1-.95.2Z"/><path class="cls-60" d="M146.83,55.63H130.12V69.25H124V36.92h6V49.75h16.65V36.93h6v32.3h-5.93Z"/><path class="cls-60" d="M210.43,36.92h6v12.8h16.64V36.91h6V69.27h-5.93V55.65H216.48V69.26h-6Z"/><path class="cls-60" d="M94.67,59.37v9.9h-6V37.05a1.42,1.42,0,0,1,1-.17c5.67,0,11.35-.05,17,0,4.16,0,7.61,1.63,9.64,5.39a11.38,11.38,0,0,1-.22,11.76,10.21,10.21,0,0,1-8.44,5c-3.87.33-7.75.1-11.62.16A2.43,2.43,0,0,0,94.67,59.37Zm.05-6c4.28-.12,8.51.2,12.72-.19a4.45,4.45,0,0,0,2.65-1.29,5.24,5.24,0,0,0,1.3-5.74,4.78,4.78,0,0,0-4.73-3.42c-3.87-.14-7.75-.06-11.63-.07-.1,0-.2.1-.33.16Z"/><path class="cls-59" d="M345.85,63.93l4.55-4.1c.61.53,1.19,1.06,1.81,1.54a12.44,12.44,0,0,0,11.84,2.2,5.7,5.7,0,0,0,2.46-1.44,3.23,3.23,0,0,0-1.05-5.54,20.12,20.12,0,0,0-5.36-1.17A38.84,38.84,0,0,1,352.72,54c-3.19-1.1-5.38-3.1-5.82-6.61A8.48,8.48,0,0,1,350.65,39c3.76-2.7,8-3.14,12.47-2.65a16.23,16.23,0,0,1,9.46,4.22c.2.18.38.39.63.66l-4.38,4A4.85,4.85,0,0,1,367.29,44a11.32,11.32,0,0,0-10.35-2.24,5.51,5.51,0,0,0-1.95.89,3.57,3.57,0,0,0-1.68,3.48c.18,1.45,1.24,2.08,2.44,2.51a36.11,36.11,0,0,0,7.05,1.25A29.45,29.45,0,0,1,368,50.94a8.66,8.66,0,0,1,4.08,14,13.8,13.8,0,0,1-9,4.81,19,19,0,0,1-16.63-5.17A8.09,8.09,0,0,1,345.85,63.93Z"/><path class="cls-60" d="M202.22,41.19l-4.41,4c-.6-.49-1.13-1-1.69-1.4a11.23,11.23,0,0,0-10.17-2,5.34,5.34,0,0,0-2.65,1.56,3,3,0,0,0,1.05,5.18,20.2,20.2,0,0,0,5.6,1.2A37,37,0,0,1,197,51a8.67,8.67,0,0,1,3.74,14.36,13.88,13.88,0,0,1-8.23,4.31,18.78,18.78,0,0,1-17.15-5.26c-.11-.11-.21-.24-.38-.45l4.39-4c.52,0,.7.43,1,.69a12.7,12.7,0,0,0,12.21,3.14A5.73,5.73,0,0,0,196,61.62a3.2,3.2,0,0,0-1.33-5,19,19,0,0,0-5.35-1.22A41.82,41.82,0,0,1,182,54c-3.19-1.06-5.47-3-5.94-6.5A8.45,8.45,0,0,1,179.76,39c3.73-2.66,8-3.11,12.36-2.64a16.3,16.3,0,0,1,9.56,4.27C201.86,40.76,202,40.94,202.22,41.19Z"/><path class="cls-59" d="M276.7,69.31l16-33.46L308.3,69.3h-6.59l-2.6-6H285.9l-2.65,6Zm20-11.56L292.53,48l-4.22,9.77Z"/><path class="cls-59" d="M248.68,36.9h6V63.51h18.62v5.76h-24.6Z"/><path class="cls-60" d="M168.18,69.28h-5.87V37h5.87Z"/><path class="cls-61" d="M164.58,92.05V81a18.39,18.39,0,0,1,6.08.4c2.19.7,3.35,2.47,3.37,5.09s-1.14,4.46-3.38,5.19C168.7,92.27,166.7,92,164.58,92.05Zm2.34-9.21v7.31c2.85.44,4.71-1.37,4.66-3.75S169.76,82.6,166.92,82.85Z"/><path class="cls-61" d="M256.27,84.46c.48-1.15,1.38-.51,2.22-.65,0,2.93.09,5.76,0,8.58a3.29,3.29,0,0,1-2.8,3,7.17,7.17,0,0,1-4.23-.48,3.62,3.62,0,0,1,.23-1.79c1.25.44,2.49,1.08,3.77.25.8-.52.82-1.39,1-2.23-.14,0-.18,0-.21,0-3.1,1.8-5.41.6-5.72-3-.25-2.87,1.66-4.9,4.2-4.53A4.72,4.72,0,0,1,256.27,84.46Zm-3.5,3.26a2.8,2.8,0,0,0,1,2.31,1.52,1.52,0,0,0,2-.28,3.34,3.34,0,0,0-.06-3.88,1.49,1.49,0,0,0-2.15-.09A2.66,2.66,0,0,0,252.78,87.71Z"/><path class="cls-61" d="M287.67,91.54c-.61.86-1.48.4-2.34.54V80.19a7.2,7.2,0,0,1,2.17,0v4.26a10.29,10.29,0,0,1,1.49-.71,3.21,3.21,0,0,1,4.08,2.17,6.53,6.53,0,0,1,.17,3.32C292.72,92.05,290.41,93,287.67,91.54ZM291,87.78a4.56,4.56,0,0,0-.09-.83c-.19-.77-.53-1.45-1.43-1.54a1.62,1.62,0,0,0-1.76,1.3,3.42,3.42,0,0,0,.22,3,1.5,1.5,0,0,0,2.7-.07A3.67,3.67,0,0,0,291,87.78Z"/><path class="cls-61" d="M222.18,92c-.87,0-1.71.37-2.37-.43-1.39.79-2.85,1-4.18.05-1.6-1.21-1.66-3-1.42-4.81.41-3,2.68-3.94,5.71-2.47v-4.1a9.71,9.71,0,0,1,2.26-.16Zm-5.73-4.14a6.89,6.89,0,0,0,.15,1.17c.23.76.62,1.38,1.53,1.42a1.6,1.6,0,0,0,1.64-1.29,3.66,3.66,0,0,0-.05-2.56A1.63,1.63,0,0,0,218,85.4c-.84.07-1.21.69-1.42,1.41A7.07,7.07,0,0,0,216.46,87.87Z"/><path class="cls-61" d="M264,92h-2.2V80.19h2.14v4.13c.57.19.81-.24,1.15-.39,2.05-.91,4,.14,4.19,2.36.12,1.86,0,3.73,0,5.64a5.65,5.65,0,0,1-2.2,0c0-1.44,0-2.87,0-4.3,0-1.64-.38-2.26-1.31-2.29s-1.72.81-1.77,2.27S264,90.45,264,92Z"/><path class="cls-61" d="M321.78,92H319l-2.59-3.71v3.52a4.76,4.76,0,0,1-2.19.18V80.18h2.11v6.74l2.5-3.09h2.45c-.76,1.39-2,2.34-2.84,3.7Z"/><path class="cls-61" d="M91,92H88.63V81c2-.06,3.85-.29,5.68.43a2.86,2.86,0,0,1,1.82,3.07,3.08,3.08,0,0,1-2.07,3.06A16.21,16.21,0,0,1,91,88Zm0-9.16A18.3,18.3,0,0,0,91.07,86c1.8.12,2.6-.35,2.64-1.5S92.87,82.71,91,82.84Z"/><path class="cls-61" d="M112.41,89.83v1.65c-1.87,1.17-4.66,1-6-.37A5.14,5.14,0,0,1,106,85.3a3.89,3.89,0,0,1,4.77-1.4c1.61.58,2.46,2.38,2.2,4.79h-5.34C107.81,90.69,109.28,91,112.41,89.83Zm-4.93-2.76a20.35,20.35,0,0,0,3.4-.09c-.2-1.09-.68-1.7-1.78-1.64S107.63,86,107.48,87.07Z"/><path class="cls-61" d="M204,83.84h1.93l.15.76c.14-.09.28-.16.4-.25a3.33,3.33,0,0,1,3.51-.43c1.23.53,1.49,1.7,1.51,2.9,0,1.68,0,3.35,0,5-.69.36-1.37.1-2,.21a8.26,8.26,0,0,1-.17-2.54c-.05-1-.06-1.91-.11-2.87a1.18,1.18,0,0,0-.93-1.24,1.48,1.48,0,0,0-1.64.73,3.23,3.23,0,0,0-.43,1.84c0,1.31,0,2.62,0,4A6,6,0,0,1,204,92Z"/><path class="cls-61" d="M142.54,92a6.19,6.19,0,0,1-2.26,0c0-1.29,0-2.55,0-3.81a15.37,15.37,0,0,0-.07-1.55,1.2,1.2,0,0,0-.88-1.16,1.44,1.44,0,0,0-1.59.56,3.38,3.38,0,0,0-.57,2.15c0,1.27,0,2.53,0,3.85h-2a46,46,0,0,1-.06-8.15c.73.06,1.58-.45,2.18.58a4.38,4.38,0,0,1,2.45-.8,2.47,2.47,0,0,1,2.67,2.22A46.6,46.6,0,0,1,142.54,92Z"/><path class="cls-61" d="M132.15,88.67h-5.33c.17,2,1.73,2.36,4.72,1.17a4.82,4.82,0,0,1,.09,1.61,5.12,5.12,0,0,1-6-.34,5.2,5.2,0,0,1-.47-5.81,3.89,3.89,0,0,1,4.65-1.46C131.51,84.4,132.42,86.22,132.15,88.67Zm-2-1.63c-.17-1.05-.57-1.78-1.76-1.71A1.54,1.54,0,0,0,126.74,87Z"/><path class="cls-61" d="M201.06,88.68h-5.34c.28,2,1.66,2.32,4.8,1.18a4.43,4.43,0,0,1,.07,1.58,5.19,5.19,0,0,1-5.93-.23,5.13,5.13,0,0,1-.55-5.9,3.9,3.9,0,0,1,4.65-1.47C200.45,84.39,201.35,86.21,201.06,88.68ZM199,87c-.08-1-.48-1.7-1.6-1.71s-1.61.62-1.76,1.71Z"/><path class="cls-61" d="M184,88.7h-5.34c.29,2,1.52,2.27,4.77,1.21a4,4,0,0,1,.06,1.59c-1.94,1.15-4.74.94-6-.43a5.18,5.18,0,0,1-.35-5.83,3.91,3.91,0,0,1,4.68-1.38C183.49,84.47,184.29,86.15,184,88.7ZM178.61,87H182c-.17-1-.51-1.66-1.58-1.68S178.77,85.89,178.61,87Z"/><path class="cls-61" d="M300.7,86.86c-.23-1.8-1.34-2-4.22-.81l-.09-1.75a6.31,6.31,0,0,1,4.52-.43A2.4,2.4,0,0,1,302.72,86c.29,1.95,0,3.91.22,5.85a3.1,3.1,0,0,1-1.59.17c-.5,0-.3-.61-.73-.67a3.37,3.37,0,0,1-3.09.77,2.52,2.52,0,0,1-.35-4.84A12.45,12.45,0,0,1,300.7,86.86Zm-2.92,3.3a1.63,1.63,0,0,0,2.07.14,1.91,1.91,0,0,0,.88-1.92C298.34,88.13,297.52,88.63,297.78,90.16Z"/><path class="cls-61" d="M239.12,92a7,7,0,0,1-2.27,0V81h6.05a5.46,5.46,0,0,1,.1,1.72h-3.79a11.89,11.89,0,0,0-.1,2.64h3.59a3,3,0,0,1,0,1.85h-3.61Z"/><path class="cls-61" d="M189.89,92h-2.32V85.8c-.5-.51-1-.16-1.5-.43a2.28,2.28,0,0,1,0-1.52l1.28-.1c0-3,1.06-4.48,4.33-3.56a2.81,2.81,0,0,1-.13,1.54c-.46.23-1-.28-1.46.19s-.26,1.11-.29,1.67c.52.43,1.15,0,1.66.35a3.2,3.2,0,0,1,0,1.4c-.47.33-1,0-1.63.31Z"/><path class="cls-61" d="M123,83.89,120,92h-2.51l-3-8.11h2.37l1.85,5.25.26.06,1.83-5.29A5.79,5.79,0,0,1,123,83.89Z"/><path class="cls-61" d="M148.59,83.76l1.59.07a2.21,2.21,0,0,1,.14,1.51c-.52.33-1.12,0-1.77.33a21.53,21.53,0,0,0,.16,4.46c.62.53,1.16.22,1.68.31a2.86,2.86,0,0,1,.06,1.49c-2.74.91-4.17-.12-4.17-3,0-1.11,0-2.22,0-3.26-.51-.35-1-.13-1.43-.29a2.07,2.07,0,0,1-.09-1.45c.42-.36,1,0,1.4-.29.28-.41,0-.93.24-1.44a7.84,7.84,0,0,1,2.09-.71Z"/><path class="cls-61" d="M277,83.85a2.39,2.39,0,0,1,.08,1.47c-.51.35-1.11,0-1.76.31,0,1.55-.26,3.17.15,4.55.74.44,1.23.14,1.72.3V92c-2.87.74-4.12-.22-4.13-3.1,0-1.07,0-2.14,0-3.11-.51-.47-1.06-.15-1.49-.42a3,3,0,0,1,0-1.39c.41-.36,1,0,1.44-.35l.14-1.38a7.71,7.71,0,0,1,2.09-.69l.12,2.18Z"/><path class="cls-61" d="M311.42,84a4.25,4.25,0,0,1-.17,1.66c-1.16-.3-2.3-.5-3.09.7a3.28,3.28,0,0,0,0,3.29c.87,1.26,2.08.83,3.25.61a3.9,3.9,0,0,1,.12,1.67c-2.1.77-4.15.36-5.26-1a5.18,5.18,0,0,1-.13-5.63C307.19,83.73,309.06,83.26,311.42,84Z"/><path class="cls-61" d="M100.78,91.94a6.27,6.27,0,0,1-2.15.06V83.9a5.21,5.21,0,0,1,1.64-.09c.4.31.19.69.39,1,.76-.74,1.5-1.57,2.76-1.05v1.87c-2.45.48-2.58.64-2.63,3.33C100.76,90,100.78,90.92,100.78,91.94Z"/><path class="cls-61" d="M245.64,83.88a5.69,5.69,0,0,1,2,0v8.05a5.31,5.31,0,0,1-2,.09Z"/><path class="cls-59" d="M377.54,68.84c-.25.18-.24.61-.46.53-.62-.12-.48-.66-.82-.85-.28.2.14.71-.45.84-.59-.52,0-1.34-.42-2a1.11,1.11,0,0,0-.79.22l-.09,1.65c-.73-.08-.73-.08-.75-1.53.06-.4-.62-.17-.55-.7,1-.43,2.08.27,3-.16.54.29.44.85.8,1.16l.42-1a.92.92,0,0,1,.93,0,8.13,8.13,0,0,1,0,2.25C377.78,69.47,377.71,69,377.54,68.84Z"/><path class="cls-61" d="M153.33,92a7.81,7.81,0,0,1-.14-2.12,5.51,5.51,0,0,1,2.29-.11v2.1A5.58,5.58,0,0,1,153.33,92Z"/><path class="cls-61" d="M227.79,91.93a7.44,7.44,0,0,1-2.29.08V89.89a5.49,5.49,0,0,1,2.17-.09A8.56,8.56,0,0,1,227.79,91.93Z"/><path class="cls-61" d="M326.37,89.82V91.9a5.74,5.74,0,0,1-2.11.14,7.19,7.19,0,0,1-.11-2.22Z"/><path class="cls-61" d="M245.6,82.43v-2a6.77,6.77,0,0,1,2-.1,6,6,0,0,1,.08,1.93A5.34,5.34,0,0,1,245.6,82.43Z"/></g></g></svg>