<svg xmlns="http://www.w3.org/2000/svg" width="378.41" height="95.57" viewBox="0 0 378.41 95.57"><defs><style>.cls-1{fill:none;}.cls-2{fill:#fff;}</style></defs><title>Asset 2</title><g id="Layer_2" data-name="Layer 2"><g id="Layer_1-2" data-name="Layer 1"><path class="cls-1" d="M253.57,85.77a2.66,2.66,0,0,0-.8,1.94,2.8,2.8,0,0,0,1,2.31,1.52,1.52,0,0,0,2-.28,3.34,3.34,0,0,0-.06-3.88A1.49,1.49,0,0,0,253.57,85.77Z"/><path class="cls-1" d="M107.44,53.15a4.45,4.45,0,0,0,2.65-1.29,5.24,5.24,0,0,0,1.3-5.74,4.78,4.78,0,0,0-4.73-3.42c-3.87-.14-7.75-.06-11.63-.07-.1,0-.2.09-.33.16V53.34C99,53.23,103.23,53.55,107.44,53.15Z"/><path class="cls-1" d="M292.53,48l-4.22,9.77h8.42Z"/><path class="cls-1" d="M289.48,85.41a1.62,1.62,0,0,0-1.76,1.3,3.42,3.42,0,0,0,.22,3,1.5,1.5,0,0,0,2.7-.07,3.67,3.67,0,0,0,.35-1.84,4.56,4.56,0,0,0-.09-.83C290.72,86.18,290.38,85.5,289.48,85.41Z"/><path class="cls-1" d="M297.78,90.16a1.63,1.63,0,0,0,2.07.14,1.91,1.91,0,0,0,.88-1.92C298.34,88.13,297.52,88.63,297.78,90.16Z"/><path class="cls-1" d="M166.92,82.85v7.31c2.85.44,4.71-1.37,4.66-3.75S169.76,82.6,166.92,82.85Z"/><path class="cls-1" d="M180.44,85.34c-1.11,0-1.67.55-1.83,1.68H182C181.85,86,181.5,85.36,180.44,85.34Z"/><path class="cls-1" d="M197.39,85.34c-1.14,0-1.61.62-1.76,1.71H199C198.91,86,198.51,85.34,197.39,85.34Z"/><path class="cls-1" d="M218,85.4c-.84.07-1.21.69-1.42,1.41a7.08,7.08,0,0,0-.15,1.06,6.89,6.89,0,0,0,.15,1.17c.23.76.62,1.38,1.53,1.42a1.6,1.6,0,0,0,1.64-1.29,3.66,3.66,0,0,0-.05-2.56A1.63,1.63,0,0,0,218,85.4Z"/><path class="cls-1" d="M326.65,49.8a27.68,27.68,0,0,0,4.18-.14,3.47,3.47,0,0,0,3-3.21,3.43,3.43,0,0,0-2.53-3.61,5.92,5.92,0,0,0-1.78-.18H319.37c-.3,0-.64-.1-.95.2V49.8Z"/><path class="cls-1" d="M109.1,85.34c-1,.06-1.47.63-1.62,1.73a20.35,20.35,0,0,0,3.4-.09C110.68,85.89,110.2,85.27,109.1,85.34Z"/><path class="cls-1" d="M91,82.84A18.3,18.3,0,0,0,91.07,86c1.8.12,2.6-.35,2.64-1.5S92.87,82.71,91,82.84Z"/><path class="cls-1" d="M128.35,85.34A1.54,1.54,0,0,0,126.74,87h3.36C129.93,86,129.54,85.27,128.35,85.34Z"/><path class="cls-1" d="M331.94,55.69c-4.47-.11-8.95,0-13.51,0v7.84c4.52,0,9,.12,13.45,0a3.88,3.88,0,0,0,.06-7.76Z"/><polygon class="cls-1" points="39.87 84.59 39.87 84.59 39.87 84.59 39.87 84.59 39.87 84.58 39.87 84.59"/><path class="cls-1" d="M13.72,56.69l0,0,0,0Z"/><path class="cls-2" d="M67.71,20.43A2.56,2.56,0,0,0,66.42,18c-1.85-.92-3.75-1.74-5.63-2.61h0a60.89,60.89,0,0,0-6-2.84,41.59,41.59,0,0,0-5-2.38,26,26,0,0,0-4.57-2.12A16.76,16.76,0,0,0,41.8,6.4L37.73,4.47a30.66,30.66,0,0,0-3.6-1.69C32.37,1.93,30.61,1.1,28.87.22,28-.24,27.64,0,27.64,1c0,3.63,0,7.25,0,10.88,0,.79,0,1.57,0,2.36,0,2,0,2,1.92,2.69a18.71,18.71,0,0,0,3.62,1.83,24.76,24.76,0,0,0,3.1,1.46,16.61,16.61,0,0,0,3.12,1.45l2.88,1.41h0a14.24,14.24,0,0,0,3.36,1.49A14.75,14.75,0,0,0,49,26.21c1.72,1.06,3.75,1.57,5.3,2.92A7.11,7.11,0,0,1,55,31.08c.24.17,0,.5.24.68a.7.7,0,0,0-.12.25c0,1,0,2,0,3a1.54,1.54,0,0,0,.15.12h0a15.94,15.94,0,0,0-.13,3.11,1.3,1.3,0,0,0,.15.25h0a9,9,0,0,0,0,3.32.61.61,0,0,0-.12.28c0,1.23,0,2.45,0,3.68a.62.62,0,0,0,.12.19,22.18,22.18,0,0,0-.12,3.63,1.17,1.17,0,0,0,.13.17h0a18.27,18.27,0,0,0-.12,3.44.7.7,0,0,0,.12.18,8.16,8.16,0,0,0,0,3.07.93.93,0,0,0-.11.2,21.9,21.9,0,0,0,.12,3.67,1.19,1.19,0,0,0-.12.16,37.78,37.78,0,0,0,.08,4.16l.24.06c2.46,1.24,4.93,2.44,7.47,3.51,1.25.62,2.49,1.24,3.75,1.85.64.31,1,.08,1-.62,0-1,0-1.92,0-2.88q0-2.28,0-4.56t0-4.56V49.79q0-2,0-4.07,0-2.28,0-4.57,0-2.76,0-5.52,0-3.36,0-6.71C67.7,26.09,67.74,23.26,67.71,20.43Z"/><path class="cls-2" d="M53.83,37.55h0a.89.89,0,0,0,.09-.16c0-1.17,0-2.34,0-3.5a1,1,0,0,0-.1-.18h0a9.88,9.88,0,0,0,0-2.62,3.52,3.52,0,0,0-2.1-2.22c-2-.87-3.9-1.87-5.86-2.78-1.27-.59-2.57-1.13-3.86-1.69a37.09,37.09,0,0,0-3.61-1.73,5.26,5.26,0,0,0-2.15-1,12.78,12.78,0,0,0-2.89-1.42,1.66,1.66,0,0,0-1-.47.87.87,0,0,0-.72-.21,9.94,9.94,0,0,0-2.88-1.48h0a1.72,1.72,0,0,0-1-.48h0L26,16.74h0l-3.12-1.46a13.51,13.51,0,0,0-3.36-1.47h0a29.1,29.1,0,0,0-4.35-2.21c-1.07-.53-1.31-.37-1.32.86,0,4.71,0,9.42,0,14.14A1.4,1.4,0,0,0,14.74,28c1,.46,2.05.87,3.08,1.3l4.55,2.16,4.09,1.92a2.45,2.45,0,0,0,1.18.53,37.53,37.53,0,0,0,3.86,1.88l5,2.4a21.7,21.7,0,0,0,2.87,1.27l1,1,1,1.9h0q0,1,0,1.91,0,7,.06,13.93h0q0,8.57,0,17.14c0,.23-.06.49.19.65l11.28,5.43c.37.18.76.3,1-.19.12-2.15.08-4.29,0-6.44l-.08-.06q0-2.26,0-4.53V65.94h0a6.76,6.76,0,0,0,.1-1.78.78.78,0,0,0-.1-.2,62.87,62.87,0,0,0,0-6.71,26.49,26.49,0,0,0,0-4.08,18.27,18.27,0,0,0,0-3.37,7.8,7.8,0,0,0,0-2.15h0l.07-.08c0-.91,0-1.83,0-2.74l-.07-.06h0a1.23,1.23,0,0,0,0-1l0,0a2.26,2.26,0,0,0,0-1.19h0a.89.89,0,0,0,.08-.12c0-.81,0-1.61,0-2.42l-.08-.1h0A6.58,6.58,0,0,0,53.83,37.55Z"/><path class="cls-2" d="M40.12,43.34A2.81,2.81,0,0,0,38,40.23c-.63-.09-1-.77-1.68-.77a3.5,3.5,0,0,0-1.44-.7l-1.44-.68c-.63-.1-1-.76-1.68-.77a3.57,3.57,0,0,0-1.44-.7,15.08,15.08,0,0,0-2.63-1.2A12.75,12.75,0,0,0,24.53,34a34,34,0,0,0-5-2.45,30.39,30.39,0,0,0-4.08-1.92,3.36,3.36,0,0,0-1.45-.7h0L8.22,26.23a20.16,20.16,0,0,0-3.1-1.49L1.73,23.16C.19,22.29,0,22.4,0,24.14c0,3.19,0,6.38.05,9.57q0,5.76,0,11.52,0,5.4,0,10.8v6.48Q0,65.27,0,68c0,1.51-.08,3,0,4.53A2.68,2.68,0,0,0,1.7,75.08c1.81.82,3.58,1.71,5.39,2.53a49.14,49.14,0,0,0,5.36,2.46c2.29,1.11,4.57,2.23,6.86,3.32Q29,88,38.63,92.51c.38.18.83.8,1.28.05.26-.26.19-.6.19-.91q0-8.21,0-16.42h0V57.46h0V49.78C40.1,47.64,40.12,45.49,40.12,43.34Zm-.25,41.25h0ZM13.72,56.69v.05l0,0Z"/><path class="cls-2" d="M336.31,52c3.36-2,4.18-5.06,3.43-8.6-.84-4-4.18-6.49-8.62-6.53-6,0-12,0-18,0-.27,0-.57-.08-.8.24V69.3c.3,0,.49.05.69.05h19.2a10.58,10.58,0,0,0,3.3-.56c6.37-2.08,8.51-10.49,3.81-15A11.13,11.13,0,0,0,336.31,52Zm-17.89-9.12c.31-.3.64-.2.95-.2h10.19a5.92,5.92,0,0,1,1.78.18,3.43,3.43,0,0,1,2.53,3.61,3.47,3.47,0,0,1-3,3.21,27.68,27.68,0,0,1-4.18.14h-8.23Zm13.46,20.6c-4.46.16-8.93,0-13.45,0V55.66c4.57,0,9-.08,13.51,0a3.88,3.88,0,0,1-.06,7.76Z"/><path class="cls-2" d="M146.73,49.75H130.08V36.92h-6V69.25h6.09V55.63h16.71V69.24h5.93V36.93h-6Z"/><path class="cls-2" d="M239.06,69.27V36.91h-6V49.72H216.44V36.92h-6V69.26h6V55.65h16.66V69.27Z"/><path class="cls-2" d="M94.67,59.37a2.43,2.43,0,0,1,1.4-.2c3.87-.07,7.75.16,11.62-.16a10.21,10.21,0,0,0,8.44-5,11.38,11.38,0,0,0,.22-11.76c-2-3.76-5.48-5.35-9.64-5.39-5.67-.06-11.35,0-17,0a1.42,1.42,0,0,0-1,.17V69.26h6Zm.05-16.58c.12-.06.22-.16.33-.16,3.88,0,7.75-.06,11.63.07a4.78,4.78,0,0,1,4.73,3.42,5.24,5.24,0,0,1-1.3,5.74,4.45,4.45,0,0,1-2.65,1.29c-4.21.39-8.44.07-12.72.19Z"/><path class="cls-2" d="M368,50.94a29.45,29.45,0,0,0-5.14-1.08,36.1,36.1,0,0,1-7.05-1.25c-1.2-.42-2.26-1.06-2.44-2.51A3.57,3.57,0,0,1,355,42.63a5.51,5.51,0,0,1,1.95-.9A11.32,11.32,0,0,1,367.29,44a4.85,4.85,0,0,0,1.53,1.16l4.38-4c-.25-.27-.43-.47-.63-.66a16.23,16.23,0,0,0-9.46-4.22c-4.43-.48-8.71,0-12.47,2.65a8.48,8.48,0,0,0-3.75,8.41c.43,3.51,2.63,5.51,5.82,6.61a38.84,38.84,0,0,0,7.38,1.46,20.12,20.12,0,0,1,5.36,1.17,3.23,3.23,0,0,1,1.05,5.54,5.7,5.7,0,0,1-2.46,1.44,12.44,12.44,0,0,1-11.85-2.2c-.62-.48-1.19-1-1.81-1.54l-4.55,4.1a8.09,8.09,0,0,0,.57.67,19,19,0,0,0,16.63,5.17,13.8,13.8,0,0,0,9-4.81A8.66,8.66,0,0,0,368,50.94Z"/><path class="cls-2" d="M197,51a37,37,0,0,0-7-1.32,20.19,20.19,0,0,1-5.6-1.2,3,3,0,0,1-1.05-5.18,5.34,5.34,0,0,1,2.65-1.56,11.23,11.23,0,0,1,10.17,2c.56.44,1.1.9,1.69,1.4l4.41-4c-.22-.24-.36-.43-.53-.59a16.3,16.3,0,0,0-9.56-4.27c-4.39-.47-8.63,0-12.36,2.64A8.45,8.45,0,0,0,176,47.49c.48,3.51,2.75,5.44,5.94,6.5a41.83,41.83,0,0,0,7.4,1.42,19,19,0,0,1,5.35,1.22,3.2,3.2,0,0,1,1.33,5,5.73,5.73,0,0,1-3.49,2.17,12.7,12.7,0,0,1-12.21-3.14c-.28-.25-.47-.66-1-.69l-4.39,4c.18.21.27.34.38.45a18.78,18.78,0,0,0,17.15,5.26,13.88,13.88,0,0,0,8.23-4.31A8.67,8.67,0,0,0,197,51Z"/><path class="cls-2" d="M299.11,63.33l2.6,6h6.59L292.74,35.85l-16,33.46h6.55l2.65-6ZM292.53,48l4.19,9.77H288.3Z"/><path class="cls-2" d="M273.28,63.51H254.66V36.9h-6V69.27h24.6Z"/><path class="cls-2" d="M168.18,37h-5.87V69.28h5.87Z"/><path class="cls-2" d="M170.66,81.36a18.39,18.39,0,0,0-6.08-.4v11.1c2.12,0,4.11.21,6.06-.42,2.24-.73,3.4-2.51,3.38-5.19S172.85,82.05,170.66,81.36Zm-3.74,8.79V82.85c2.84-.25,4.62,1.12,4.66,3.56S169.77,90.59,166.92,90.15Z"/><path class="cls-2" d="M256.27,84.46a4.72,4.72,0,0,0-1.61-.77c-2.54-.37-4.44,1.67-4.2,4.53.31,3.57,2.62,4.78,5.72,3,0,0,.07,0,.21,0-.15.84-.17,1.71-1,2.23-1.28.83-2.52.18-3.77-.25a3.63,3.63,0,0,0-.23,1.79,7.17,7.17,0,0,0,4.23.48,3.29,3.29,0,0,0,2.8-3c.12-2.82,0-5.65,0-8.58C257.66,83.94,256.75,83.31,256.27,84.46Zm-.49,5.29a1.52,1.52,0,0,1-2,.28,2.8,2.8,0,0,1-1-2.31,2.66,2.66,0,0,1,.8-1.94,1.49,1.49,0,0,1,2.15.09A3.34,3.34,0,0,1,255.78,89.74Z"/><path class="cls-2" d="M289,83.76a10.29,10.29,0,0,0-1.49.71V80.2a7.2,7.2,0,0,0-2.17,0V92.08c.87-.14,1.73.31,2.34-.54,2.74,1.46,5.05.52,5.57-2.3a6.53,6.53,0,0,0-.17-3.32A3.21,3.21,0,0,0,289,83.76Zm1.67,5.86a1.5,1.5,0,0,1-2.7.07,3.42,3.42,0,0,1-.22-3,1.62,1.62,0,0,1,1.76-1.3c.9.09,1.24.77,1.43,1.54a4.56,4.56,0,0,1,.09.83A3.67,3.67,0,0,1,290.65,89.62Z"/><path class="cls-2" d="M219.93,80.26v4.1c-3-1.47-5.3-.5-5.71,2.47-.25,1.77-.19,3.6,1.42,4.81,1.33,1,2.78.74,4.18-.05.66.79,1.5.41,2.37.43V80.1A9.71,9.71,0,0,0,219.93,80.26Zm-.15,8.91a1.6,1.6,0,0,1-1.64,1.29c-.92,0-1.31-.67-1.53-1.42a6.89,6.89,0,0,1-.15-1.17,7.08,7.08,0,0,1,.15-1.06c.21-.72.58-1.34,1.42-1.41a1.63,1.63,0,0,1,1.71,1.21A3.66,3.66,0,0,1,219.78,89.17Z"/><path class="cls-2" d="M265.08,83.93c-.34.15-.58.57-1.15.39V80.19h-2.14V92H264c0-1.54,0-2.93,0-4.32s.75-2.3,1.77-2.27,1.29.65,1.31,2.29c0,1.43,0,2.85,0,4.3a5.65,5.65,0,0,0,2.2,0c0-1.91.1-3.78,0-5.64C269.12,84.07,267.13,83,265.08,83.93Z"/><path class="cls-2" d="M321.29,83.83h-2.45l-2.5,3.09V80.18h-2.11V92a4.76,4.76,0,0,0,2.19-.18V88.32L319,92h2.79l-3.33-4.5C319.33,86.17,320.53,85.22,321.29,83.83Z"/><path class="cls-2" d="M94.31,81.41c-1.83-.72-3.73-.5-5.68-.43V92H91V88a16.21,16.21,0,0,0,3.05-.46,3.08,3.08,0,0,0,2.07-3.06A2.86,2.86,0,0,0,94.31,81.41ZM91.07,86A18.3,18.3,0,0,1,91,82.84c1.86-.14,2.74.42,2.7,1.64S92.88,86.1,91.07,86Z"/><path class="cls-2" d="M110.73,83.9A3.89,3.89,0,0,0,106,85.3a5.14,5.14,0,0,0,.44,5.81c1.36,1.37,4.14,1.54,6,.37V89.83c-3.13,1.19-4.6.86-4.82-1.15h5.34C113.19,86.27,112.34,84.48,110.73,83.9Zm-3.25,3.17c.15-1.1.6-1.67,1.62-1.73s1.58.55,1.78,1.64A20.35,20.35,0,0,1,107.48,87.07Z"/><path class="cls-2" d="M209.94,83.92a3.33,3.33,0,0,0-3.51.43c-.12.09-.26.16-.4.25l-.15-.76H204V92a6,6,0,0,0,2.18,0c0-1.34,0-2.65,0-4a3.23,3.23,0,0,1,.43-1.84,1.48,1.48,0,0,1,1.64-.73,1.18,1.18,0,0,1,.93,1.24c.05,1,.06,1.91.11,2.87a8.27,8.27,0,0,0,.17,2.54c.68-.1,1.36.15,2-.21,0-1.69,0-3.37,0-5C211.44,85.62,211.18,84.45,209.94,83.92Z"/><path class="cls-2" d="M142.38,85.86a2.47,2.47,0,0,0-2.67-2.22,4.38,4.38,0,0,0-2.45.8c-.6-1-1.46-.52-2.18-.58a46,46,0,0,0,.06,8.15h2c0-1.31,0-2.58,0-3.85a3.38,3.38,0,0,1,.57-2.15,1.44,1.44,0,0,1,1.59-.56,1.2,1.2,0,0,1,.88,1.16,15.39,15.39,0,0,1,.07,1.55c0,1.26,0,2.53,0,3.81a6.19,6.19,0,0,0,2.26,0A46.6,46.6,0,0,0,142.38,85.86Z"/><path class="cls-2" d="M129.82,83.84a3.89,3.89,0,0,0-4.65,1.46,5.2,5.2,0,0,0,.47,5.81,5.12,5.12,0,0,0,6,.34,4.82,4.82,0,0,0-.09-1.61c-3,1.19-4.55.83-4.72-1.17h5.33C132.42,86.22,131.51,84.4,129.82,83.84ZM126.74,87a1.54,1.54,0,0,1,1.61-1.71c1.19-.07,1.59.65,1.76,1.71Z"/><path class="cls-2" d="M198.76,83.84a3.9,3.9,0,0,0-4.65,1.47,5.13,5.13,0,0,0,.55,5.9,5.19,5.19,0,0,0,5.93.23,4.43,4.43,0,0,0-.07-1.58c-3.14,1.14-4.52.82-4.8-1.18h5.34C201.35,86.21,200.45,84.39,198.76,83.84ZM195.63,87c.15-1.08.63-1.72,1.76-1.71S198.91,86,199,87Z"/><path class="cls-2" d="M181.83,83.87a3.91,3.91,0,0,0-4.68,1.38,5.18,5.18,0,0,0,.35,5.83c1.3,1.37,4.1,1.58,6,.43a4,4,0,0,0-.06-1.59c-3.25,1.05-4.48.75-4.77-1.21H184C184.29,86.15,183.49,84.47,181.83,83.87ZM178.61,87c.16-1.13.72-1.7,1.83-1.68S181.85,86,182,87Z"/><path class="cls-2" d="M302.72,86a2.4,2.4,0,0,0-1.81-2.16,6.31,6.31,0,0,0-4.52.43l.09,1.75c2.88-1.19,4-1,4.22.81a12.45,12.45,0,0,0-3.53.44,2.52,2.52,0,0,0,.35,4.84,3.37,3.37,0,0,0,3.09-.77c.43.07.23.63.73.67a3.1,3.1,0,0,0,1.59-.17C302.74,89.92,303,88,302.72,86Zm-2.86,4.29a1.63,1.63,0,0,1-2.07-.14c-.27-1.53.56-2,3-1.78A1.91,1.91,0,0,1,299.86,90.3Z"/><path class="cls-2" d="M236.85,81V92a7,7,0,0,0,2.27,0V87.23h3.61a3,3,0,0,0,0-1.85h-3.59a11.88,11.88,0,0,1,.1-2.64H243a5.46,5.46,0,0,0-.1-1.72Z"/><path class="cls-2" d="M191.58,81.73a2.81,2.81,0,0,0,.13-1.54c-3.27-.91-4.29.58-4.33,3.56l-1.28.1a2.28,2.28,0,0,0,0,1.52c.45.27,1-.08,1.5.43V92h2.32V85.64c.61-.3,1.17,0,1.63-.31a3.2,3.2,0,0,0,0-1.4c-.5-.32-1.13.08-1.66-.35,0-.55-.16-1.16.29-1.67S191.12,82,191.58,81.73Z"/><path class="cls-2" d="M120.8,83.9,119,89.19l-.26-.06-1.85-5.25H114.5l3,8.11H120l3-8.11A5.79,5.79,0,0,0,120.8,83.9Z"/><path class="cls-2" d="M148.71,90.13a21.52,21.52,0,0,1-.16-4.46c.64-.34,1.25,0,1.77-.33a2.21,2.21,0,0,0-.14-1.51l-1.59-.07-.11-2.22a7.85,7.85,0,0,0-2.09.71c-.24.52,0,1-.24,1.44-.44.26-1-.07-1.4.29a2.07,2.07,0,0,0,.09,1.45c.46.15.93-.06,1.43.29,0,1,0,2.15,0,3.26,0,2.85,1.44,3.88,4.17,3a2.86,2.86,0,0,0-.06-1.49C149.87,90.35,149.32,90.66,148.71,90.13Z"/><path class="cls-2" d="M275.49,90.18c-.41-1.38-.13-3-.15-4.55.65-.29,1.26,0,1.76-.31a2.39,2.39,0,0,0-.08-1.47l-1.66-.11-.12-2.18a7.7,7.7,0,0,0-2.09.69L273,83.63c-.48.32-1,0-1.44.35a3,3,0,0,0,0,1.39c.44.27,1-.05,1.49.42,0,1,0,2,0,3.11,0,2.88,1.26,3.84,4.13,3.1V90.48C276.72,90.32,276.23,90.62,275.49,90.18Z"/><path class="cls-2" d="M308.19,89.61a3.28,3.28,0,0,1,0-3.29c.78-1.2,1.93-1,3.09-.7a4.25,4.25,0,0,0,.17-1.66c-2.35-.69-4.23-.22-5.25,1.26a5.18,5.18,0,0,0,.13,5.63c1.12,1.39,3.17,1.8,5.26,1a3.9,3.9,0,0,0-.12-1.67C310.27,90.44,309.05,90.87,308.19,89.61Z"/><path class="cls-2" d="M100.65,84.86c-.2-.36,0-.74-.39-1a5.21,5.21,0,0,0-1.64.09V92a6.27,6.27,0,0,0,2.15-.06c0-1,0-2,0-2.92.06-2.7.19-2.86,2.63-3.33V83.81C102.15,83.29,101.41,84.12,100.65,84.86Z"/><path class="cls-2" d="M245.64,83.88V92a5.31,5.31,0,0,0,2-.09V83.88A5.69,5.69,0,0,0,245.64,83.88Z"/><path class="cls-2" d="M378.35,67a.92.92,0,0,0-.93,0L377,68c-.35-.31-.26-.86-.8-1.16-.91.43-2-.27-3,.16-.06.53.61.3.55.7,0,1.45,0,1.45.75,1.53l.09-1.65a1.11,1.11,0,0,1,.79-.22c.4.64-.18,1.46.42,2,.58-.12.17-.64.45-.84.34.19.2.73.82.85.23.08.21-.36.46-.53.18.21.25.63.77.44A8.13,8.13,0,0,0,378.35,67Z"/><path class="cls-2" d="M153.19,89.91a7.81,7.81,0,0,0,.14,2.12,5.58,5.58,0,0,0,2.15-.13V89.8A5.51,5.51,0,0,0,153.19,89.91Z"/><path class="cls-2" d="M227.66,89.8a5.49,5.49,0,0,0-2.17.09V92a7.44,7.44,0,0,0,2.29-.08A8.56,8.56,0,0,0,227.66,89.8Z"/><path class="cls-2" d="M324.25,92a5.74,5.74,0,0,0,2.11-.14V89.82h-2.22A7.19,7.19,0,0,0,324.25,92Z"/><path class="cls-2" d="M245.6,80.48v2a5.34,5.34,0,0,0,2.1-.13,6,6,0,0,0-.08-1.93A6.77,6.77,0,0,0,245.6,80.48Z"/></g></g></svg>