<svg xmlns="http://www.w3.org/2000/svg" viewBox="0 0 540 284.82" width="540" height="284.82"><defs><style>.cls-1{fill:#fff;}</style></defs><title>Asset 2</title><g id="Layer_2" data-name="Layer 2"><g id="Layer_1-2" data-name="Layer 1"><path class="cls-1" d="M208.45,260.63l-.09,21.54,1.57.27a133,133,0,0,0,14.95,1.92,90.71,90.71,0,0,0,13.21.26,55.3,55.3,0,0,0,12.4-2.34,34.31,34.31,0,0,0,12.86-6.86,26,26,0,0,0,7.49-10.74,29.56,29.56,0,0,0-.15-21.62,24.25,24.25,0,0,0-6.72-9.31,27.84,27.84,0,0,0-9.85-5.74l-16.24-6a8.71,8.71,0,0,1-4.44-4.23,5.53,5.53,0,0,1,.18-4.93,6.44,6.44,0,0,1,1.08-1.46,8.78,8.78,0,0,1,1.66-1.32q.36-.22.74-.42A17.21,17.21,0,0,1,242.9,208a33.79,33.79,0,0,1,10.36.11,88.15,88.15,0,0,1,12,2.15l.84.19V190.53l-1.55-.33A105.64,105.64,0,0,0,252.34,188a62.73,62.73,0,0,0-16.06-.07,34.73,34.73,0,0,0-18.5,7.44,24.54,24.54,0,0,0-7.9,10.89,29.92,29.92,0,0,0,0,20.25,22.71,22.71,0,0,0,5.68,8.57,32.53,32.53,0,0,0,7.35,5.33,50.6,50.6,0,0,0,11.18,4.39q1.92.58,3.83,1.22l1.92.71.55.22a14.38,14.38,0,0,1,5.09,3.14,9,9,0,0,1,2.28,3.41,7.48,7.48,0,0,1,0,3.62,7.68,7.68,0,0,1-3.72,4.46,18.47,18.47,0,0,1-6.2,1.94,45,45,0,0,1-9.6.48,109.77,109.77,0,0,1-12.53-1.67q-3.25-.66-6.46-1.51l-.8-.2"/><path class="cls-1" d="M120.13,281.38v-25l-.49.21a46.27,46.27,0,0,1-18,4.58,26.52,26.52,0,0,1-18.15-5.35,23.22,23.22,0,0,1-7.9-11.22,27,27,0,0,1-.53-15,23,23,0,0,1,8-12.83,24.11,24.11,0,0,1,12.64-5.45,41.66,41.66,0,0,1,23.87,4.48l.54.28V190.92l-1.14-.31a63.93,63.93,0,0,0-22.76-3,52.65,52.65,0,0,0-20.33,4.65,46.45,46.45,0,0,0-16.64,12.86,50.07,50.07,0,0,0-.91,60.9,47.73,47.73,0,0,0,26.46,17,62,62,0,0,0,33.48-1.17l1.84-.5"/><polyline class="cls-1" points="176.38 283.04 176.38 189.23 152.73 189.23 152.73 283.04 176.38 283.04"/><polyline class="cls-1" points="526.45 272.14 526.45 270.72 516.44 270.72 516.44 272.14 520.6 272.14 520.6 283.04 522.28 283.04 522.28 272.14 526.45 272.14"/><polyline class="cls-1" points="527.42 283.04 529.02 283.04 529.02 273.2 529.23 273.2 532.83 283.04 534.43 283.04 538.32 272.73 538.32 283.04 540 283.04 540 270.72 537.4 270.72 533.75 280.87 530.06 270.72 527.42 270.72 527.42 283.04"/><path class="cls-1" d="M0,113.84a11.73,11.73,0,0,0,23.39,0v-26A11.71,11.71,0,0,0,0,87.85v26"/><path class="cls-1" d="M64.75,113.84a11.73,11.73,0,0,0,23.39,0V55.56a11.71,11.71,0,0,0-23.39,0v58.28"/><path class="cls-1" d="M129.16,137.32a11.73,11.73,0,0,0,23.39,0V11.25a11.71,11.71,0,0,0-23.39,0V137.32"/><path class="cls-1" d="M193.9,113.84a11.73,11.73,0,0,0,23.39,0V55.56a11.71,11.71,0,0,0-23.39,0v58.28"/><path class="cls-1" d="M258.36,113.84a11.73,11.73,0,0,0,23.39,0v-26a11.71,11.71,0,0,0-23.39,0v26"/><path class="cls-1" d="M323.05,113.84a11.73,11.73,0,0,0,23.39,0V55.56a11.71,11.71,0,0,0-23.39,0v58.28"/><path class="cls-1" d="M387.48,137.32a11.73,11.73,0,0,0,23.39,0V11.25a11.71,11.71,0,0,0-23.39,0V137.32"/><path class="cls-1" d="M452.12,113.84a11.73,11.73,0,0,0,23.39,0V55.56a11.71,11.71,0,0,0-23.39,0v58.28"/><path class="cls-1" d="M516.61,113.84a11.73,11.73,0,0,0,23.39,0v-26a11.71,11.71,0,0,0-23.39,0v26"/><path class="cls-1" d="M367.27,281.38v-25l-.49.21a46.27,46.27,0,0,1-18,4.58,26.52,26.52,0,0,1-18.14-5.35,23.22,23.22,0,0,1-7.9-11.22,27,27,0,0,1-.53-15,23,23,0,0,1,8-12.83,24.11,24.11,0,0,1,12.64-5.45,41.67,41.67,0,0,1,23.88,4.48l.54.28V190.92l-1.14-.31a63.93,63.93,0,0,0-22.76-3A52.66,52.66,0,0,0,323,192.28a46.48,46.48,0,0,0-16.64,12.86,50.07,50.07,0,0,0-.91,60.9,47.73,47.73,0,0,0,26.46,17,62,62,0,0,0,33.48-1.17l1.84-.5"/><path class="cls-1" d="M392.19,236.17a49.36,49.36,0,0,0,60,47.43A48.14,48.14,0,0,0,468,195a49.67,49.67,0,0,0-75.8,41.22m34.34-19.24a24.67,24.67,0,1,1-9.12,16.53,24.67,24.67,0,0,1,9.12-16.53"/></g></g></svg>