<svg xmlns="http://www.w3.org/2000/svg" viewBox="0 0 93.74 37.85" width="93.74" height="37.85"><defs><style>.cls-1{fill:#fff;}</style></defs><title>Asset 2</title><g id="Layer_2" data-name="Layer 2"><g id="Layer_1-2" data-name="Layer 1"><polygon class="cls-1" points="93.74 2.69 78.13 2.69 79.1 0 93.74 0 93.74 2.69"/><path class="cls-1" d="M52.14,0H66.63l.95,2.7H52.15S52.14,0,52.14,0Z"/><path class="cls-1" d="M40.64,0A10.42,10.42,0,0,1,46.87,2.7H20.61V0Z"/><rect class="cls-1" width="18.24" height="2.69"/><path class="cls-1" d="M9.12,1.35"/><path class="cls-1" d="M93.74,7.74H76.35s.95-2.68.94-2.68H93.74Z"/><polygon class="cls-1" points="69.37 7.74 52.14 7.74 52.14 5.06 68.43 5.06 69.37 7.74"/><path class="cls-1" d="M48.91,5.06a7,7,0,0,1,.76,2.68H20.61V5.06Z"/><rect class="cls-1" y="5.06" width="18.24" height="2.68"/><path class="cls-1" d="M9.12,6.4"/><polygon class="cls-1" points="74.57 12.8 75.52 10.11 88.58 10.11 88.58 12.79 74.57 12.8"/><polygon class="cls-1" points="70.21 10.11 71.16 12.8 57.28 12.8 57.28 10.11 70.21 10.11"/><path class="cls-1" d="M49.9,10.11a8.78,8.78,0,0,1-.38,2.69h-8V10.11Z"/><rect class="cls-1" x="5.09" y="10.12" width="7.84" height="2.68"/><path class="cls-1" d="M9,11.46"/><rect class="cls-1" x="25.89" y="10.11" width="7.83" height="2.69"/><path class="cls-1" d="M29.81,11.45"/><path class="cls-1" d="M65,15.7s0,2,0,2H57.28V15.07H72l.91,2.5s.88-2.5.88-2.5H88.58v2.68H80.9v-2l-.71,2H65.7Z"/><path class="cls-1" d="M25.89,15.07H48.36a10.09,10.09,0,0,1-2.23,2.68H25.89Z"/><rect class="cls-1" x="5.09" y="15.07" width="7.84" height="2.68"/><path class="cls-1" d="M9,16.4"/><rect class="cls-1" x="80.9" y="20.12" width="7.67" height="2.68"/><path class="cls-1" d="M84.74,21.45"/><path class="cls-1" d="M65,20.12H57.28v2.68H65S65,20.12,65,20.12Z"/><path class="cls-1" d="M79.35,20.12s-.9,2.68-.93,2.68H67.49s-1-2.69-1-2.68Z"/><path class="cls-1" d="M25.89,20.11h20.2a13.22,13.22,0,0,1,2.41,2.68H25.89Z"/><polygon class="cls-1" points="12.93 22.79 12.93 20.11 5.1 20.11 5.1 22.79 12.93 22.79"/><rect class="cls-1" x="80.9" y="25.16" width="7.67" height="2.68"/><path class="cls-1" d="M84.74,26.5"/><rect class="cls-1" x="57.28" y="25.16" width="7.71" height="2.68"/><path class="cls-1" d="M61.13,26.5"/><path class="cls-1" d="M76.62,27.85s.95-2.69,1-2.69H68.29s1,2.68,1,2.68S76.62,27.86,76.62,27.85Z"/><path class="cls-1" d="M25.89,27.84s0-2.68,0-2.68h7.94s0,2.68,0,2.68Z"/><path class="cls-1" d="M49.62,25.16a7.76,7.76,0,0,1,.5,2.69H41.7V25.16Z"/><rect class="cls-1" x="5.1" y="25.16" width="7.83" height="2.68"/><path class="cls-1" d="M9,26.5"/><rect class="cls-1" x="80.9" y="30.11" width="12.83" height="2.68"/><path class="cls-1" d="M87.32,31.45"/><rect class="cls-1" x="52.14" y="30.11" width="12.85" height="2.68"/><path class="cls-1" d="M58.56,31.45"/><polygon class="cls-1" points="74.9 32.78 70.98 32.78 70.04 30.11 75.8 30.11 74.9 32.78"/><path class="cls-1" d="M0,30.11v2.68H18.23s0-2.68,0-2.68Z"/><path class="cls-1" d="M49.78,30.11a5.75,5.75,0,0,1-1,2.68H20.61V30.11Z"/><polygon class="cls-1" points="73.12 37.84 72.76 37.84 71.84 35.16 74.06 35.16 73.12 37.84"/><rect class="cls-1" x="80.9" y="35.16" width="12.83" height="2.69"/><path class="cls-1" d="M87.32,36.5"/><path class="cls-1" d="M20.61,37.84V35.16H47a10,10,0,0,1-6.81,2.68H20.61"/><rect class="cls-1" x="52.14" y="35.16" width="12.85" height="2.69"/><path class="cls-1" d="M58.56,36.5"/><path class="cls-1" d="M18.23,35.17s0,2.67,0,2.67H0s0-2.68,0-2.68Z"/></g></g></svg>