<?xml version="1.0" encoding="UTF-8"?>
<svg width="473px" height="310px" viewBox="0 0 473 310" version="1.1" xmlns="http://www.w3.org/2000/svg" xmlns:xlink="http://www.w3.org/1999/xlink">
    <!-- Generator: Sketch 56.2 (81672) - https://sketch.com -->
    <title>color_logo</title>
    <desc>Created with Sketch.</desc>
    <defs>
        <polygon id="path-1" points="0.552 0.448 24.384 0.448 24.384 24.2799 0.552 24.2799"></polygon>
        <path d="M0.934,26.557 C0.934,40.763 12.451,52.28 26.658,52.28 L26.658,52.28 C40.863,52.28 52.38,40.763 52.38,26.557 L52.38,26.557 C52.38,12.351 40.863,0.835 26.658,0.835 L26.658,0.835 C12.451,0.835 0.934,12.351 0.934,26.557 M27.982,19.181 C27.982,15.316 31.115,12.183 34.98,12.183 L34.98,12.183 C38.844,12.183 41.977,15.316 41.977,19.181 L41.977,19.181 C41.977,23.046 38.844,26.179 34.98,26.179 L34.98,26.179 C31.115,26.179 27.982,23.046 27.982,19.181" id="path-3"></path>
        <linearGradient x1="21.0777003%" y1="84.3438776%" x2="80.4639375%" y2="13.8240969%" id="linearGradient-5">
            <stop stop-color="#2379AA" offset="0%"></stop>
            <stop stop-color="#52B8E8" offset="100%"></stop>
        </linearGradient>
        <polygon id="path-6" points="0.0413 0.1414 45.58 0.1414 45.58 60.4184 0.0413 60.4184"></polygon>
        <polygon id="path-8" points="0.743 0.141 45.115 58.34 51.35 66.466 76.67 71 87.819 68.354 59.853 63.064 56.829 58.907 11.702 0.141"></polygon>
        <linearGradient x1="-0.000617621388%" y1="50.0002252%" x2="99.9991592%" y2="50.0002252%" id="linearGradient-10">
            <stop stop-color="#54BAEB" offset="0%"></stop>
            <stop stop-color="#1F75A7" offset="100%"></stop>
        </linearGradient>
    </defs>
    <g id="Page-1" stroke="none" stroke-width="1" fill="none" fill-rule="evenodd">
        <g id="Artboard" transform="translate(-27.000000, -88.000000)">
            <g id="color_logo" transform="translate(27.000000, 87.000000)">
                <g id="Group-44" transform="translate(148.000000, 0.552000)">
                    <path d="M47.8034,151.57 C54.3844,151.57 59.7194,156.905 59.7194,163.486 C59.7194,170.067 54.3844,175.401 47.8034,175.401 C41.2224,175.401 35.8874,170.067 35.8874,163.486 C35.8874,156.905 41.2224,151.57 47.8034,151.57" id="Fill-1" fill="#535353"></path>
                    <path d="M12.8127,88.0192 C19.3937,88.0192 24.7287,93.3542 24.7287,99.9352 C24.7287,106.5162 19.3937,111.8512 12.8127,111.8512 C6.2317,111.8512 0.8967,106.5162 0.8967,99.9352 C0.8967,93.3542 6.2317,88.0192 12.8127,88.0192" id="Fill-3" fill="#535353"></path>
                    <path d="M129.3224,64.1877 C135.9024,64.1877 141.2374,69.5227 141.2374,76.1037 C141.2374,82.6847 135.9024,88.0197 129.3224,88.0197 C122.7414,88.0197 117.4064,82.6847 117.4064,76.1037 C117.4064,69.5227 122.7414,64.1877 129.3224,64.1877" id="Fill-5" fill="#535353"></path>
                    <path d="M129.3224,112.0397 C135.9024,112.0397 141.2374,117.3747 141.2374,123.9557 C141.2374,130.5367 135.9024,135.8717 129.3224,135.8717 C122.7414,135.8717 117.4064,130.5367 117.4064,123.9557 C117.4064,117.3747 122.7414,112.0397 129.3224,112.0397" id="Fill-7" fill="#535353"></path>
                    <path d="M129.3224,151.57 C135.9024,151.57 141.2374,156.905 141.2374,163.486 C141.2374,170.067 135.9024,175.401 129.3224,175.401 C122.7414,175.401 117.4064,170.067 117.4064,163.486 C117.4064,156.905 122.7414,151.57 129.3224,151.57" id="Fill-9" fill="#535353"></path>
                    <path d="M88.468,131.9001 C95.049,131.9001 100.384,137.2341 100.384,143.8151 C100.384,150.3961 95.049,155.7311 88.468,155.7311 C81.887,155.7311 76.552,150.3961 76.552,143.8151 C76.552,137.2341 81.887,131.9001 88.468,131.9001" id="Fill-11" fill="#535353"></path>
                    <path d="M119.676,131.1432 C119.676,131.1432 125.917,137.9522 125.539,144.0042 C125.35,151.1922 119.298,156.8662 119.298,156.8662 L137.833,155.1642 C137.833,155.1642 132.349,148.5432 132.349,144.1942 C132.349,137.7632 137.645,132.8452 137.645,132.8452 L119.676,131.1432 Z" id="Fill-13" fill="#535353"></path>
                    <g id="Group-17" transform="translate(76.000000, 0.000000)">
                        <mask id="mask-2" fill="white">
                            <use xlink:href="#path-1"></use>
                        </mask>
                        <g id="Clip-16"></g>
                        <path d="M12.468,0.4479 C19.049,0.4479 24.384,5.7829 24.384,12.3639 C24.384,18.9449 19.049,24.2799 12.468,24.2799 C5.887,24.2799 0.552,18.9449 0.552,12.3639 C0.552,5.7829 5.887,0.4479 12.468,0.4479" id="Fill-15" fill="#3492C9" mask="url(#mask-2)"></path>
                    </g>
                    <path d="M47.8034,23.7121 C54.3844,23.7121 59.7194,29.0471 59.7194,35.6281 C59.7194,42.2091 54.3844,47.5441 47.8034,47.5441 C41.2224,47.5441 35.8874,42.2091 35.8874,35.6281 C35.8874,29.0471 41.2224,23.7121 47.8034,23.7121" id="Fill-18" fill="#3492C9"></path>
                    <path d="M47.8034,64.1877 C54.3844,64.1877 59.7194,69.5227 59.7194,76.1037 C59.7194,82.6847 54.3844,88.0197 47.8034,88.0197 C41.2224,88.0197 35.8874,82.6847 35.8874,76.1037 C35.8874,69.5227 41.2224,64.1877 47.8034,64.1877" id="Fill-20" fill="#3492C9"></path>
                    <path d="M47.8034,112.0397 C54.3844,112.0397 59.7194,117.3747 59.7194,123.9557 C59.7194,130.5367 54.3844,135.8717 47.8034,135.8717 C41.2224,135.8717 35.8874,130.5367 35.8874,123.9557 C35.8874,117.3747 41.2224,112.0397 47.8034,112.0397" id="Fill-22" fill="#3492C9"></path>
                    <path d="M129.3224,23.7121 C135.9024,23.7121 141.2374,29.0471 141.2374,35.6281 C141.2374,42.2091 135.9024,47.5441 129.3224,47.5441 C122.7414,47.5441 117.4064,42.2091 117.4064,35.6281 C117.4064,29.0471 122.7414,23.7121 129.3224,23.7121" id="Fill-24" fill="#3492C9"></path>
                    <path d="M164.3127,44.3283 C170.8937,44.3283 176.2287,49.6633 176.2287,56.2443 C176.2287,62.8253 170.8937,68.1603 164.3127,68.1603 C157.7317,68.1603 152.3967,62.8253 152.3967,56.2443 C152.3967,49.6633 157.7317,44.3283 164.3127,44.3283" id="Fill-26" fill="#3492C9"></path>
                    <path d="M12.8127,44.3283 C19.3937,44.3283 24.7287,49.6633 24.7287,56.2443 C24.7287,62.8253 19.3937,68.1603 12.8127,68.1603 C6.2317,68.1603 0.8967,62.8253 0.8967,56.2443 C0.8967,49.6633 6.2317,44.3283 12.8127,44.3283" id="Fill-28" fill="#3492C9"></path>
                    <path d="M164.3127,88.0192 C170.8937,88.0192 176.2287,93.3542 176.2287,99.9352 C176.2287,106.5162 170.8937,111.8512 164.3127,111.8512 C157.7317,111.8512 152.3967,106.5162 152.3967,99.9352 C152.3967,93.3542 157.7317,88.0192 164.3127,88.0192" id="Fill-30" fill="#3492C9"></path>
                    <path d="M164.3127,131.9001 C170.8937,131.9001 176.2287,137.2341 176.2287,143.8151 C176.2287,150.3961 170.8937,155.7311 164.3127,155.7311 C157.7317,155.7311 152.3967,150.3961 152.3967,143.8151 C152.3967,137.2341 157.7317,131.9001 164.3127,131.9001" id="Fill-32" fill="#3492C9"></path>
                    <path d="M12.8127,131.9001 C19.3937,131.9001 24.7287,137.2341 24.7287,143.8151 C24.7287,150.3961 19.3937,155.7311 12.8127,155.7311 C6.2317,155.7311 0.8967,150.3961 0.8967,143.8151 C0.8967,137.2341 6.2317,131.9001 12.8127,131.9001" id="Fill-34" fill="#3492C9"></path>
                    <path d="M88.468,44.3283 C95.049,44.3283 100.384,49.6633 100.384,56.2443 C100.384,62.8253 95.049,68.1603 88.468,68.1603 C81.887,68.1603 76.552,62.8253 76.552,56.2443 C76.552,49.6633 81.887,44.3283 88.468,44.3283" id="Fill-36" fill="#3492C9"></path>
                    <path d="M88.468,175.5905 C95.049,175.5905 100.384,180.9255 100.384,187.5065 C100.384,194.0875 95.049,199.4225 88.468,199.4225 C81.887,199.4225 76.552,194.0875 76.552,187.5065 C76.552,180.9255 81.887,175.5905 88.468,175.5905" id="Fill-38" fill="#3492C9"></path>
                    <path d="M47.8034,47.7326 C47.8034,47.7326 59.5304,45.6526 65.7714,49.0566 C73.1474,53.2176 79.0114,63.4316 79.0114,63.4316 L86.0094,44.5176 C86.0094,44.5176 77.1194,47.1656 69.9324,43.9496 C62.9344,40.7346 59.1514,31.4666 59.1514,31.4666 L47.8034,47.7326 Z" id="Fill-40" fill="#3492C9"></path>
                    <path d="M37.0222,81.3996 C37.0222,81.3996 44.5882,91.0456 44.2092,98.2326 C43.8312,106.7446 37.5892,117.3356 37.5892,117.3356 L57.0712,116.3906 C57.0712,116.3906 50.6402,107.5006 50.4512,99.5566 C50.2622,91.8016 56.6922,83.8576 56.6922,83.8576 L37.0222,81.3996 Z" id="Fill-42" fill="#3492C9"></path>
                </g>
                <g id="Group-47" transform="translate(210.000000, 73.552000)">
                    <mask id="mask-4" fill="white">
                        <use xlink:href="#path-3"></use>
                    </mask>
                    <g id="Clip-46"></g>
                    <path d="M0.934,26.557 C0.934,40.763 12.451,52.28 26.658,52.28 L26.658,52.28 C40.863,52.28 52.38,40.763 52.38,26.557 L52.38,26.557 C52.38,12.351 40.863,0.835 26.658,0.835 L26.658,0.835 C12.451,0.835 0.934,12.351 0.934,26.557 M27.982,19.181 C27.982,15.316 31.115,12.183 34.98,12.183 L34.98,12.183 C38.844,12.183 41.977,15.316 41.977,19.181 L41.977,19.181 C41.977,23.046 38.844,26.179 34.98,26.179 L34.98,26.179 C31.115,26.179 27.982,23.046 27.982,19.181" id="Fill-45" fill="url(#linearGradient-5)" mask="url(#mask-4)"></path>
                </g>
                <g id="Group-71" transform="translate(0.000000, 239.552000)">
                    <polygon id="Fill-48" fill="#535353" points="267.3732 14.3132 267.3732 60.4182 258.4922 60.4182 258.4922 0.1412 267.5622 0.1412 299.8742 44.9232 299.8742 0.1412 308.7552 0.1412 308.7552 60.4182 300.0622 60.4182"></polygon>
                    <polygon id="Fill-50" fill="#535353" points="321.7932 0.1413 361.4742 0.1413 361.4742 7.8883 330.6742 7.8883 330.6742 25.6503 360.9062 25.6503 360.9062 33.3983 330.6742 33.3983 330.6742 52.6713 361.4742 52.6713 361.4742 60.4183 321.7932 60.4183"></polygon>
                    <g id="Group-54" transform="translate(427.000000, 0.000000)">
                        <mask id="mask-7" fill="white">
                            <use xlink:href="#path-6"></use>
                        </mask>
                        <g id="Clip-53"></g>
                        <polygon id="Fill-52" fill="#535353" mask="url(#mask-7)" points="18.3703 7.8884 0.0413 7.8884 0.0413 0.1414 45.5803 0.1414 45.5803 7.8884 27.2513 7.8884 27.2513 60.4184 18.3703 60.4184"></polygon>
                    </g>
                    <path d="M3.2121,47.3805 C7.5581,52.8595 14.1711,55.8835 21.1631,55.8835 C32.8791,55.8835 36.0901,49.0805 36.0901,44.1685 C36.0901,35.8545 28.5321,33.7765 20.2181,31.5085 C11.1491,28.8625 1.5121,26.4055 1.5121,15.6355 C1.7001,5.9985 10.0151,0.1415 20.4071,0.1415 C28.9101,0.1415 35.3351,3.1645 39.8701,8.4555 L36.4681,12.0455 C32.5011,7.1325 26.4541,4.4865 20.2181,4.8645 C12.6601,4.8645 6.9911,9.2115 6.9911,15.4465 C6.9911,22.4385 14.1711,24.3275 21.9191,26.4055 C31.1781,29.0515 41.3811,32.0745 41.3811,43.7905 C41.3811,51.3485 36.4681,60.4185 20.9741,60.4185 C11.7151,60.4185 4.3461,56.4495 0.0001,51.1595 L3.2121,47.3805 Z" id="Fill-55" fill="#535353"></path>
                    <polygon id="Fill-57" fill="#535353" points="53.2858 0.1413 58.1988 0.1413 58.1988 56.0733 85.9748 56.0733 85.9748 60.4183 53.2858 60.4183"></polygon>
                    <path d="M150.2204,47.3805 C154.5664,52.8595 161.1794,55.8835 168.1714,55.8835 C179.8864,55.8835 183.0984,49.0805 183.0984,44.1685 C183.0984,35.8545 175.5404,33.7765 167.2264,31.5085 C158.1564,28.8625 148.5194,26.4055 148.5194,15.6355 C148.5194,5.9985 156.8334,0.1415 167.4154,0.1415 C175.9184,0.1415 182.3434,3.1645 186.8784,8.4555 L183.4764,12.0455 C179.5084,7.1325 173.4624,4.4865 167.2264,4.8645 C159.6684,4.8645 153.8104,9.2115 153.8104,15.4465 C153.8104,22.4385 160.9914,24.3275 168.7384,26.4055 C177.9974,29.0515 188.2004,32.0745 188.2004,43.7905 C188.2004,51.3485 183.2874,60.4185 167.7934,60.4185 C158.5344,60.4185 151.1654,56.4495 146.8194,51.1595 L150.2204,47.3805 Z" id="Fill-59" fill="#535353"></path>
                    <polygon id="Fill-61" fill="#535353" points="241.4865 31.6969 205.2065 31.6969 205.2065 60.4189 200.2935 60.4189 200.2935 0.1409 205.2065 0.1409 205.2065 27.3509 241.4865 27.3509 241.4865 0.1409 246.3995 0.1409 246.3995 60.4189 241.4865 60.4189"></polygon>
                    <polygon id="Fill-63" fill="#535353" points="114.5764 0.1413 119.8154 0.1413 95.7264 60.4183 90.4354 60.4183"></polygon>
                    <polygon id="Fill-65" fill="#535353" points="143.5637 60.4186 138.2727 60.4186 114.5767 0.1416 119.8157 0.1416"></polygon>
                    <polygon id="Fill-67" fill="#535353" points="124.7111 41.901 102.6031 41.901 102.6031 36.421 122.0661 36.421"></polygon>
                    <polygon id="Fill-69" fill="#535353" points="422.3176 0.1413 411.3586 0.1413 365.9556 60.4183 377.1036 60.4183"></polygon>
                </g>
                <g id="Group-74" transform="translate(367.000000, 239.552000)">
                    <mask id="mask-9" fill="white">
                        <use xlink:href="#path-8"></use>
                    </mask>
                    <g id="Clip-73"></g>
                    <polygon id="Fill-72" fill="url(#linearGradient-10)" mask="url(#mask-9)" points="0.743 0.141 45.115 58.34 51.35 66.466 76.67 71 87.819 68.354 59.853 63.064 56.829 58.907 11.702 0.141"></polygon>
                </g>
            </g>
        </g>
    </g>
</svg>