<svg xmlns="http://www.w3.org/2000/svg" viewBox="0 0 426.87 177.43" width="426.87" height="177.43"><defs><style>.cls-1{fill:#fff;}</style></defs><title>Asset 2</title><g id="Layer_2" data-name="Layer 2"><g id="Layer_1-2" data-name="Layer 1"><path class="cls-1" d="M146.64,42.14H0V0H146.64ZM9.64,32.5H137V9.64H9.64Z"/><path class="cls-1" d="M35.46,68.7v40.52H27v-17H8.66v17H.21V68.7H8.66V84.8H27V68.7Z"/><path class="cls-1" d="M48.92,96.35c.66,4.82,4.16,6.8,8.51,6.8a14.29,14.29,0,0,0,8.45-2.57v6.73c-2.44,1.78-5.74,2.57-9.7,2.57-9,0-15.11-5.81-15.11-15.18s5.81-15.64,13.86-15.64c8.58,0,13,5.94,13,14.65v2.64ZM49.18,91H60.33c-.2-3.17-2-5.41-5.21-5.41C52.42,85.59,50.11,87.31,49.18,91Z"/><path class="cls-1" d="M99.73,98.52,105,79.72h7.92l-9,29.5H96.43L91.62,91.13,86.8,109.22H79.28l-9-29.5h8.18l5.28,18.81,4.82-18.81h6.27Z"/><path class="cls-1" d="M142.67,96.35c.66,4.82,4.16,6.8,8.51,6.8a14.29,14.29,0,0,0,8.45-2.57v6.73c-2.44,1.78-5.74,2.57-9.7,2.57-9,0-15.11-5.81-15.11-15.18s5.81-15.64,13.86-15.64c8.58,0,13,5.94,13,14.65v2.64Zm.26-5.35h11.15c-.2-3.17-2-5.41-5.21-5.41C146.17,85.59,143.86,87.31,142.94,91Z"/><path class="cls-1" d="M228.19,95.16v14.06h-8.38V68.7h16.5c8.58,0,14.25,4.62,14.25,13.26s-5.68,13.2-14.25,13.2Zm7.59-19.27h-7.59V88h7.59c4.36,0,6.47-2.51,6.47-6S240.13,75.89,235.78,75.89Z"/><path class="cls-1" d="M270.62,90.8c0-2.84-2.44-4.62-6.6-4.62A14.61,14.61,0,0,0,256,88.56V81.5a20.12,20.12,0,0,1,9.83-2.44c8.12,0,12.67,4.16,12.67,11.35v18.81h-7.85v-1.58c-1,1-3.89,2.11-7.13,2.11-5.94,0-10.89-3.43-10.89-9.57,0-5.61,4.95-9.44,11.42-9.44a13.17,13.17,0,0,1,6.6,1.72Zm0,8.25c-.73-1.58-2.9-2.57-5.21-2.57-2.57,0-5.21,1.12-5.21,3.63s2.64,3.63,5.21,3.63c2.31,0,4.49-1,5.21-2.57Z"/><path class="cls-1" d="M299.34,79.06a13,13,0,0,1,8,2.31v7.46a10.17,10.17,0,0,0-7-2.64c-4.36,0-7.79,3-7.79,8.32s3.43,8.32,7.79,8.32a10.48,10.48,0,0,0,7-2.64v7.39a13,13,0,0,1-8,2.31c-8.38,0-14.92-5.94-14.92-15.38S291,79.06,299.34,79.06Z"/><path class="cls-1" d="M342.38,109.22h-9.57L322.19,95.62v13.59H314V66.32h8.18V91.4l10.1-11.68h9.83L329.84,93.25Z"/><path class="cls-1" d="M361.58,90.8c0-2.84-2.44-4.62-6.6-4.62a14.61,14.61,0,0,0-8.05,2.38V81.5a20.12,20.12,0,0,1,9.83-2.44c8.12,0,12.67,4.16,12.67,11.35v18.81h-7.85v-1.58c-1,1-3.89,2.11-7.13,2.11-5.94,0-10.89-3.43-10.89-9.57,0-5.61,4.95-9.44,11.42-9.44a13.17,13.17,0,0,1,6.6,1.72Zm0,8.25c-.73-1.58-2.9-2.57-5.21-2.57-2.57,0-5.21,1.12-5.21,3.63s2.64,3.63,5.21,3.63c2.31,0,4.49-1,5.21-2.57Z"/><path class="cls-1" d="M395.12,87.77a8.17,8.17,0,0,0-4.09-1c-2.77,0-5,1.45-5.61,4.16v18.28h-8.18V79.72h8.18v2.9a7.58,7.58,0,0,1,6.6-3.56,7.7,7.7,0,0,1,3.1.53Z"/><path class="cls-1" d="M418.62,106.77a10.16,10.16,0,0,1-7.39,3.1c-8.58,0-13.4-6.93-13.4-15.38s4.82-15.44,13.4-15.44a10.16,10.16,0,0,1,7.39,3.1V66.32h8.25v42.9h-8.25Zm0-17.16a6.25,6.25,0,0,0-5.54-3.43c-4.42,0-7.06,3.56-7.06,8.32s2.64,8.25,7.06,8.25a6.05,6.05,0,0,0,5.54-3.43Z"/><path class="cls-1" d="M130.43,104.18a3.65,3.65,0,0,1-4-4h.12V69h-8.18v31.63c0,6.67,4.16,10.49,10.43,10.49a11,11,0,0,0,4.55-.79v-6.93A5.07,5.07,0,0,1,130.43,104.18Z"/><path class="cls-1" d="M197.87,87.65h7.45V81h-7.45V69h-8.18V81H177.87V69h-8.18V81h-5.37v6.67h5.37v13c0,6.67,4.16,10.49,10.43,10.49a11,11,0,0,0,4.55-.79v-6.93a5.07,5.07,0,0,1-2.9.79,3.65,3.65,0,0,1-4-4h.12V87.65h11.82v13c0,6.67,4.16,10.49,10.43,10.49a11,11,0,0,0,4.55-.79v-6.93a5.07,5.07,0,0,1-2.9.79,3.65,3.65,0,0,1-4-4h.12Z"/><path class="cls-1" d="M26.68,125.29v4.66H5.86v12.9H24.75v4.66H5.86v13.9H26.68v4.72H.68V125.29Z"/><path class="cls-1" d="M34.52,136.6h5v3.72A11,11,0,0,1,48.22,136c6.72,0,10.37,4.32,10.37,10.77v19.35H53.54V147.57c0-4.12-2.06-7-6.52-7a8,8,0,0,0-7.51,5.52v20h-5Z"/><path class="cls-1" d="M90.45,152.22c.2,6.85,4.52,10.11,9.91,10.11a12.76,12.76,0,0,0,8.38-2.79v4.59c-2.39,1.86-5.45,2.59-9,2.59-8.51,0-14.23-5.79-14.23-15.09S90.85,136,98.7,136s12.1,5.79,12.1,14.43v1.79Zm.27-3.92h15.23c-.2-4.32-2.39-8-7.18-8C94.84,140.26,91.65,142.85,90.72,148.3Z"/><path class="cls-1" d="M132.74,141.59a6.32,6.32,0,0,0-3.33-.8,7.15,7.15,0,0,0-6.85,5.52v19.82h-5V136.6h5v3.86a8.24,8.24,0,0,1,7.31-4.46,7.22,7.22,0,0,1,2.86.46Z"/><path class="cls-1" d="M142.91,177.43h-5V136.6h5v3.46a10.5,10.5,0,0,1,8.31-4.06c8.71,0,13.3,7.18,13.3,15.36s-4.59,15.36-13.3,15.36a10.5,10.5,0,0,1-8.31-4.06Zm0-20.08a8.5,8.5,0,0,0,7.58,4.85c5.65,0,9-4.59,9-10.84s-3.33-10.84-9-10.84a8.5,8.5,0,0,0-7.58,4.85Z"/><path class="cls-1" d="M187.47,141.59a6.32,6.32,0,0,0-3.32-.8,7.15,7.15,0,0,0-6.85,5.52v19.82h-5V136.6h5v3.86a8.24,8.24,0,0,1,7.31-4.46,7.21,7.21,0,0,1,2.86.46Z"/><path class="cls-1" d="M196.12,130.88a3.24,3.24,0,0,1-3.19-3.19,3.23,3.23,0,0,1,6.45,0A3.25,3.25,0,0,1,196.12,130.88Zm2.53,35.24h-5V136.6h5Z"/><path class="cls-1" d="M205.83,158.48a14.27,14.27,0,0,0,9.71,4c3.26,0,6.12-1.2,6.12-4.12,0-2.19-1.66-3.39-4.26-4.26l-4.06-1.4c-4.46-1.46-7.45-3.59-7.45-8.38,0-5.19,4.59-8.31,10.44-8.31a15.36,15.36,0,0,1,8.78,2.59v5.19a13.21,13.21,0,0,0-8.78-3.52c-3.06,0-5.59,1.33-5.59,3.86s1.6,3.19,4.39,4.19l4.52,1.53c4.46,1.53,6.92,4.12,6.92,8.31,0,5.45-4.85,8.58-11,8.58a16.36,16.36,0,0,1-9.71-2.93Z"/><path class="cls-1" d="M236.48,152.22c.2,6.85,4.52,10.11,9.91,10.11a12.76,12.76,0,0,0,8.38-2.79v4.59c-2.39,1.86-5.45,2.59-9,2.59-8.51,0-14.23-5.79-14.23-15.09S236.88,136,244.73,136s12.1,5.79,12.1,14.43v1.79Zm.27-3.92H252c-.2-4.32-2.39-8-7.18-8C240.87,140.26,237.68,142.85,236.75,148.3Z"/><path class="cls-1" d="M79,162.33c-2.93,0-4.85-1.86-4.85-5.39V154.4h.12V140.82h7.83v-4.17H74.32v-7.33h-5v7.33H62.49v4.17h6.79v16.53c0,5.92,3.86,9.38,9,9.38a9.56,9.56,0,0,0,3.86-.66v-4.52A5.77,5.77,0,0,1,79,162.33Z"/></g></g></svg>