<svg xmlns="http://www.w3.org/2000/svg" viewBox="0 0 1066 374" width="1066" height="374"><defs><style>.cls-1{fill:#bd3733;}</style></defs><title>Asset 1</title><g id="Layer_2" data-name="Layer 2"><g id="Layer_1-2" data-name="Layer 1"><path class="cls-1" d="M0,6q41,.08,82,.16c27.66.07,55.34-.31,83,.41,29.46.77,56.95,8.62,80.34,27.31C300,77.57,296,159.56,237.6,198.22a136.35,136.35,0,0,1-24.27,12.7c-1.49.6-3.24.75-4.67,2.56q22.48,37.76,45.07,75.7c15,25.16,29.93,50.32,45.21,76H230.5L115,172.16c2.6-1.52,5-1,7.23-1,17.3-.21,34.67.93,51.74-3.17,13.51-3.25,25.85-8.64,35.64-18.88,20.28-21.23,19.63-66.3-19.31-83.08a80.43,80.43,0,0,0-31.48-7c-32.67-.19-65.33-.07-98-.06-.81,0-1.61.07-3,.14V365H0Z"/><path class="cls-1" d="M471,374c-6.06-2.41-12.57-2-18.86-2.87a258.5,258.5,0,0,1-94.06-32.84c-.42-.25-.79-.58-1.69-1.25l28.79-46.45a303.75,303.75,0,0,0,27.65,14c36.08,15.42,73.49,20.61,112.3,14.31a74.55,74.55,0,0,0,32.53-13.18c21.5-15.7,26.37-54.47-2.16-74.14-15.86-10.94-33.63-17.33-51.88-22.63-24.57-7.13-49.56-12.93-73.2-23-19-8.09-36.78-18-50.35-34.1-26.46-31.37-24.38-84.07,4.19-113.6,18.87-19.5,42.61-29,68.52-34.2C459.78,2.66,466.93,2,474,1c.8-.11,1.69.05,2-1h44c6.45,2.2,13.28,1.92,19.92,3,25.73,4,50.84,10.19,74.61,21.12.74.34,1.45.76,2.5,1.3L592.66,71a227.81,227.81,0,0,0-51.73-16.51c-24.71-5-49.48-6.79-74.23-.41-11.91,3.07-23.09,7.73-31.18,17.61a37.59,37.59,0,0,0,4.64,52.47c11.5,9.83,25.4,15,39.39,19.88,22.46,7.82,45.82,12.64,68.39,20.14,21.24,7.06,41.85,15.41,59.58,29.53,26.26,20.91,36.29,48.65,32.88,81.33-4.42,42.33-29.64,68.76-67.31,85-17.26,7.42-35.47,11.15-54.11,13-1,.1-2.42-.55-3,1Z"/><path class="cls-1" d="M1066,366c-4.78-1-9.62-.38-14.43-.41-18.49-.09-37,0-55.93,0L868.27,86.32l-121.94,279H675.2L835.64,9h66.5l16,34.73q72.51,157.42,145.07,314.82c.71,1.54.83,3.6,2.78,4.41Z"/><path class="cls-1" d="M984.21,8.8c8,0,13.71,5.85,13.79,13.94A13.79,13.79,0,0,1,983.91,37c-7.89-.06-13.69-6-13.75-14C970.09,14.69,976,8.76,984.21,8.8Zm7,22.49c4.88-6.52,4.48-13.31-.54-17.47a10.54,10.54,0,0,0-14.05.78c-3.88,4.07-4.08,11.7-.42,16.07s9.53,4.65,14.58.77c-1-1.07-2.65.13-4-1.83-1.19-1.22-1.73-4-3.89-5.48-2.82,1.74.65,6.07-3.75,6.85V15.21c3.7.15,7.18-.89,10.32,1.44,2.13,3.58.73,6.16-2.57,8ZM987.48,19c-2-1.61-3.72-1.24-5.47-.81a2.88,2.88,0,0,0,.25,3.71C984.43,22,986.85,22.52,987.48,19Z"/></g></g></svg>