<svg xmlns="http://www.w3.org/2000/svg" width="745.46" height="212.26" viewBox="0 0 745.46 212.26"><defs><style>.cls-1{fill:#00a5b5;}</style></defs><title>Asset 2</title><g id="Layer_2" data-name="Layer 2"><g id="Layer_1-2" data-name="Layer 1"><path class="cls-1" d="M715.77,130.45a11.25,11.25,0,0,1-3.53,9.61Q678,174.32,643.71,208.6c-3.51,3.52-7.46,4.39-12.3,3.07Q584.5,199,537.52,186.53a10.55,10.55,0,0,1-8-8q-12.8-47.66-25.58-95.33c-1.07-4,.14-7.54,3.08-10.48q34.63-34.61,69.25-69.24a10.63,10.63,0,0,1,11-3Q634.87,13.19,682.53,26a10.27,10.27,0,0,1,7.6,7.83q12.64,47.19,25.3,94.38A11.92,11.92,0,0,1,715.77,130.45Zm-87.11,8.62L595.71,70.93H581.09v81.9c3.56.25,6.81.64,10.38-.36-.16-22.26.6-44.42-1.31-66.56l1.21-.24,32.21,67.14h14.75v-82H628C628.3,93.81,627.26,116.44,628.66,139.08Z"/><path class="cls-1" d="M60.8,129.08c-2.31-27-.61-53.79-1.07-80.87H78c.77,4,1,99.48.21,106H51.93L17.28,72.62c2.7,27.13.89,54.2,1.4,81.57H0V48.32H26Z"/><path class="cls-1" d="M169.23,119.67H118.3c.65,7.58,2,14.27,8.33,18.68,7.68,5.35,17.89,4.07,31.81-3.93l8,11.07c-17.5,16.19-48.12,14.8-60.94-2.53-11.64-15.73-10.85-45.58,1.8-60.53,10-11.79,23-14.06,37.22-10.59,13.8,3.37,20.88,13.43,23.89,26.72C169.94,105.25,169.91,112.05,169.23,119.67Zm-19.77-13.21c.88-13.79-5.21-22.09-15.6-21.77-9.7.3-16.24,9.75-14.91,21.77Z"/><path class="cls-1" d="M399,154.24h-16.8c-1.27-3.07,0-6.47-1.93-9.63-6.27,8.44-14.52,12.42-25,12.11-12.69-.38-21-7.84-21.81-20.65-1.18-18.47-.27-37-.47-55.46,0-2.46-.45-5,.5-7.66h18.87c1.36,1.52.73,3.44.74,5.19.05,15.66,0,31.33,0,47,0,1.17-.07,2.34,0,3.5.35,4.59-.22,9.77,5.19,12,5.71,2.34,10.71.43,15.16-3.44a16,16,0,0,0,6-13.45c-.39-16.8-.14-33.61-.14-50.73H399Z"/><path class="cls-1" d="M413.18,145l9.5-10.64c2-.29,2.93,1.09,4.13,1.86a32.55,32.55,0,0,0,22.83,5.27c5.62-.79,9.46-4.09,9.94-8.33.55-4.79-1.76-8.09-7.44-10.44-7.52-3.11-15.77-4.23-22.94-8.31-8.07-4.58-12.51-11.37-12.12-20.8s5.57-15.35,13.59-19.38a33.69,33.69,0,0,1,10.46-3.18c13.28-1.89,25.42.83,36.58,9.23l-7.74,12c-6.9-4-13.75-7.28-21.77-6.76a15.87,15.87,0,0,0-7.15,1.9c-4.91,2.85-5.19,9.1-.45,12.28,3.78,2.54,8.15,3.73,12.48,4.95,5.61,1.58,11.16,3.32,16.19,6.4,14.27,8.74,15.19,29,1.38,38.61-13.26,9.18-27.87,8.73-42.61,4.23A35.28,35.28,0,0,1,413.18,145Z"/><path class="cls-1" d="M315.65,80.4,308,92.16c-4.88-2.34-9.36-5.26-14.66-6.14-4.5-.75-8.95-1-13.26.79-2.8,1.17-4.74,3.18-4.85,6.37a7.14,7.14,0,0,0,4,7,55.69,55.69,0,0,0,11.63,4.42c5.12,1.46,10.22,3,14.91,5.59,16.35,9.08,17.11,30.32,1.43,40.53s-43.68,7.35-55.82-5.91l9.8-10.92c6.39,4.37,12.94,7.86,20.77,7.93,3.69,0,7.32-.11,10.66-2,2.94-1.63,5-3.84,5-7.46a8.54,8.54,0,0,0-4.64-8.21c-4.56-2.52-9.58-3.76-14.5-5.27-4.47-1.37-8.87-2.84-12.82-5.41-14.81-9.62-14.26-29.29,1.08-38.21C280.42,67.28,301.12,69.33,315.65,80.4Z"/><path class="cls-1" d="M178.22,144.79l9.7-11c6.4,4.34,12.93,7.85,20.71,7.94,3.51,0,7,0,10.22-1.65s5.45-3.84,5.57-7.63a8.7,8.7,0,0,0-5-8.53,68.46,68.46,0,0,0-12.63-4.59c-5.43-1.6-10.83-3.31-15.5-6.66-12.95-9.29-12.76-27.3.38-36.32,13.59-9.34,38-7.39,50.58,4.29l-7.41,11.4c-5-2.26-9.43-5.19-14.73-6.06a26.81,26.81,0,0,0-11.36.16c-3.7,1-6.5,3-6.79,7-.27,3.74,2.05,6.08,5.33,7.68,4.22,2.06,8.72,3.22,13.17,4.56a80.46,80.46,0,0,1,10.73,4c8.84,4.1,13.74,10.85,13.87,20.69.13,9.68-4.17,16.8-12.67,21.59C216.51,160.65,189.82,157.46,178.22,144.79Z"/><path class="cls-1" d="M738.21,5.84h6.19l1.06,21.1c-1.28,1.57-2.68,1.26-4.47.58l-.87-13.2c-2.71,3.94-2.89,7.49-4.34,10.53-1.36,1-2.73.84-4.34.11l-4-10.91-.7.1-.91,13.21a3.69,3.69,0,0,1-4,.18,184.58,184.58,0,0,1,.84-21.46,11.48,11.48,0,0,1,6-.12l5,14.13Z"/><path class="cls-1" d="M720.57,5.81l-.73,3.5-6.42.42v17c-1.64,1.72-3,1.53-4.73.7V10.28c-2.26-1.43-4.52-.31-6.66-1-1-1.09-.79-2.26,0-3.49Z"/></g></g></svg>
