<svg xmlns="http://www.w3.org/2000/svg" width="1266.42" height="307.89" viewBox="0 0 1266.42 307.89"><defs><style>.cls-1{fill:#fff;}</style></defs><title>Asset 2</title><g id="Layer_2" data-name="Layer 2"><g id="Layer_1-2" data-name="Layer 1"><path class="cls-1" d="M245.71,247v59.66H0V60.13H58.8l-.08-.1c.07,2.16.19,4.32.19,6.49q0,87.24,0,174.49v6.35H240.84c1.66,0,3.32-.15,5-.23Z"/><path class="cls-1" d="M58.8,60.13V1.34H304.93V246.57c-.28.22-.54.6-.8.6q-29.2,0-58.42-.15l.11.1V60.21H71.21c-4.16,0-8.33-.11-12.49-.17Z"/><path class="cls-1" d="M1173.39,214.43V200.68h-77.48V228h5.24q41,0,82,0c11.2,0,15.8,4.56,15.82,15.71q0,23.75,0,47.49c0,10-6,16.52-15.89,16.57q-50.49.24-101,0c-7.48,0-12.83-5-13.13-12.34-.36-8.95-.08-17.93-.08-27.2h25.54v12.53h77.9v-27h-86c-12.1,0-16.51-4.45-16.52-16.62,0-15.83,0-31.66,0-47.49,0-10.51,4.38-14.81,14.91-14.81q49.5,0,99,0c11.15,0,15.26,4.19,15.3,15.48,0,8,0,15.91,0,24.1Z"/><path class="cls-1" d="M874.23,0H879q54,0,108,0c12.25,0,16.38,4.17,16.41,16.58q0,23.25,0,46.49c0,12.21-4.71,16.81-17,16.82H964.42l37.89,51.8h-32.1L931.73,79.2H899.82v52.62H874.23Zm25.86,27V53.8h77.33V27Z"/><path class="cls-1" d="M456.81,101H440.72l-37-54.64v86.44H378.17V1.26h25.68l44.92,65.2L494.61,1.2h24.83V132.65h-25.5V47.91l-.95-.35Z"/><path class="cls-1" d="M1199,67.54c0,16.82,0,33.64,0,50.46,0,10.79-4.4,15-15.25,15q-49.47,0-98.93,0c-10.13,0-15-4.84-15-15q0-51.21,0-102.43c0-10.2,4.47-14.63,14.59-14.64q49.71,0,99.43,0c10.83,0,15.13,4.29,15.17,15.11C1199,33.23,1199,50.38,1199,67.54ZM1095.84,26.9V107h77.24V26.9Z"/><path class="cls-1" d="M671.91,240.53c0,17,0,34,0,51,0,10.15-4.46,14.51-14.73,14.52q-49.49,0-99,0c-9.54,0-14.51-4.88-14.53-14.46q-.07-51.74,0-103.49c0-9.68,4.48-14.14,14-14.16q49.74-.07,99.49,0c10.22,0,14.67,4.49,14.71,14.61C672,205.86,671.91,223.2,671.91,240.53Zm-103.12-40v80.3h77.1v-80.3Z"/><path class="cls-1" d="M781.78,106.81v-16h25.14c.15.29.57.7.58,1.12,0,9.49.33,19,0,28.47-.33,8.26-5.32,12.67-13.63,12.68q-50.46.06-100.94,0c-8.76,0-13.77-5.32-13.88-14.72-.12-10.66,0-21.32,0-32q0-34.74,0-69.46C679,5.14,683.22,1,694.93,1q48.47,0,96.94,0c11.31,0,15.69,4.39,15.73,15.72,0,8.33,0,16.66-.06,25a6.58,6.58,0,0,1-.41,1.29H782V27H704.11v79.77Z"/><path class="cls-1" d="M822.87,200.56H745v80.22h77.51V264.55H847.8c0,10.73.5,21.36-.18,31.91-.41,6.29-7.56,10.48-15.59,10.49q-38,0-76,0c-7.67,0-15.33.05-23,0-8.7-.08-14.13-5.2-14.16-14q-.17-52.23,0-104.45c0-9.07,4.94-13.67,14.1-13.68q50.22,0,100.46,0c10.24,0,14.57,4.31,14.7,14.58.12,9,0,18,0,27.37H822.87Z"/><path class="cls-1" d="M894.71,174.11H919.8V279.84h78V174.23h25.89V179q0,55.72,0,111.44c0,11.25-4.42,15.63-15.81,15.64q-49.49,0-99,0c-9.35,0-14.45-4.72-14.48-14-.11-38.65,0-77.3,0-116C894.43,175.62,894.57,175.13,894.71,174.11Z"/><path class="cls-1" d="M507,174.16v26.07h-103v26.83h76.54v26.4H403.89v52.2H378.1V174.16Z"/><path class="cls-1" d="M586.3,1.12h25.08V132.79H586.3Z"/><path class="cls-1" d="M1218.64,26.65a23.65,23.65,0,0,1,24-24,23.93,23.93,0,1,1-.35,47.86A23.68,23.68,0,0,1,1218.64,26.65Zm1.79,0c0,12,9.42,21.2,21.8,21.28a21.27,21.27,0,0,0,21.49-21.6c-.08-12.4-9.26-21.88-21.21-21.91A21.78,21.78,0,0,0,1220.43,26.65Z"/><path class="cls-1" d="M1246.34,28.83l5.49,12.31-1.42.85c-5-2.81-4.71-9.3-8.3-13.49h-4.44c-.59,4.53-1.14,8.83-1.77,13.11a13.79,13.79,0,0,1-1.83,0V11.42c2.73,0,5.51-.15,8.27,0,4,.27,8.17.54,9.43,5.57C1253.1,22.31,1251.71,25.48,1246.34,28.83Zm-8.25-2.77c3.87-1.46,7.15-2.19,9.7-3.95.89-.62.72-5.05-.24-5.62-2.63-1.58-5.94-2-9.46-3.1Z"/></g></g></svg>