<?xml version="1.0" standalone="no"?>
<!DOCTYPE svg PUBLIC "-//W3C//DTD SVG 20010904//EN"
 "http://www.w3.org/TR/2001/REC-SVG-20010904/DTD/svg10.dtd">
<svg version="1.0" xmlns="http://www.w3.org/2000/svg"
 width="697.000000pt" height="358.000000pt" viewBox="0 0 697.000000 358.000000"
 preserveAspectRatio="xMidYMid meet">

<g transform="translate(0.000000,358.000000) scale(0.100000,-0.100000)"
fill="#000000" stroke="none">
<path d="M705 2935 l-25 -26 0 -310 0 -309 33 -21 c30 -19 45 -20 237 -17 171
3 212 7 248 22 23 10 42 22 42 27 0 5 7 9 17 9 20 0 93 75 93 96 0 9 7 22 15
30 8 9 15 25 15 38 0 12 6 28 12 34 10 10 10 15 -2 22 -12 8 -12 10 3 16 9 3
17 15 17 25 0 26 28 174 44 234 17 62 13 110 -10 136 -16 18 -34 19 -365 19
l-348 0 -26 -25z"/>
<path d="M6245 2780 c-91 -22 -152 -68 -185 -137 -18 -38 -24 -72 -28 -160
l-5 -113 -63 0 -64 0 0 -70 0 -70 65 0 65 0 0 -390 0 -390 75 0 75 0 2 388 3
387 73 3 72 3 0 63 0 63 -46 7 c-26 3 -60 6 -77 6 l-30 0 6 84 c9 121 37 167
110 180 l37 7 0 74 0 75 -27 -1 c-16 -1 -41 -4 -58 -9z"/>
<path d="M2813 2740 c-39 -23 -53 -48 -53 -93 0 -71 76 -121 142 -94 18 8 39
21 46 30 19 23 26 90 12 116 -14 27 -67 61 -95 61 -11 0 -34 -9 -52 -20z"/>
<path d="M1785 2716 c-5 -2 -30 -9 -55 -16 -76 -20 -156 -71 -144 -91 2 -4 -5
-13 -16 -19 -22 -12 -53 -64 -43 -74 4 -3 2 -6 -4 -6 -5 0 -20 -35 -32 -77
-13 -43 -27 -86 -32 -95 -5 -10 -9 -26 -9 -36 0 -10 -4 -22 -8 -28 -5 -5 -14
-29 -22 -54 -34 -119 -86 -244 -112 -267 -10 -9 -18 -21 -18 -27 0 -6 -19 -19
-41 -30 -89 -41 -127 -46 -331 -46 -125 0 -198 -4 -198 -10 0 -5 -6 -10 -14
-10 -19 0 -26 -45 -26 -161 0 -155 -12 -146 207 -154 286 -11 1223 -1 1251 14
l22 12 0 574 c0 489 -2 575 -14 575 -8 0 -16 5 -18 12 -3 8 -54 12 -169 15
-90 1 -168 1 -174 -1z"/>
<path d="M3374 2350 c-117 -32 -126 -37 -118 -62 13 -43 53 -103 66 -101 7 1
40 12 73 24 48 17 82 21 170 21 100 0 116 -2 162 -26 73 -37 95 -72 101 -162
3 -41 2 -74 -1 -74 -3 0 -28 14 -55 30 -159 100 -414 72 -533 -58 -47 -51 -65
-89 -75 -160 -13 -98 26 -197 106 -265 55 -47 95 -65 183 -84 119 -25 251 1
345 68 l42 30 0 -45 c0 -52 -1 -51 99 -39 l54 6 -5 342 c-4 324 -6 344 -26
386 -44 91 -145 160 -262 178 -102 17 -245 12 -326 -9z m366 -460 c24 -14 55
-41 68 -60 20 -29 23 -45 20 -95 -7 -119 -77 -168 -243 -169 -109 -1 -151 10
-198 53 -41 37 -57 73 -57 127 0 57 28 106 79 139 52 32 63 34 181 32 91 -2
111 -6 150 -27z"/>
<path d="M4609 2357 c-39 -15 -88 -47 -109 -72 -21 -26 -30 -17 -30 30 l0 45
-75 0 -75 0 0 -460 0 -460 74 0 73 0 5 321 6 320 28 46 c68 110 239 135 325
49 57 -57 59 -69 59 -378 0 -156 3 -300 6 -320 l7 -38 72 0 73 0 4 313 c4 338
7 354 62 409 37 36 88 59 150 65 73 8 144 -29 182 -93 l27 -45 5 -325 5 -324
73 0 74 0 0 345 c0 394 1 390 -89 484 -77 82 -115 96 -256 96 -111 0 -124 -2
-171 -27 -29 -15 -68 -46 -88 -69 l-36 -42 -41 47 c-61 70 -106 89 -214 93
-59 2 -103 -1 -126 -10z"/>
<path d="M2788 1807 c-3 -508 -4 -555 -21 -580 -27 -42 -59 -57 -132 -64 -42
-4 -69 -11 -72 -20 -3 -7 -2 -38 2 -68 l6 -55 70 0 c116 0 214 50 264 134 18
31 27 67 35 137 11 109 13 466 3 822 l-6 247 -73 0 -73 0 -3 -553z"/>
</g>
</svg>
