<svg xmlns="http://www.w3.org/2000/svg" viewBox="0 0 500 49.68" width="500" height="49.68"><defs><style>.cls-1{fill:#253746;}.cls-2{fill:#283a48;}.cls-3{fill:#0278c8;}.cls-4{fill:#0579c8;}</style></defs><title>Asset 1</title><g id="Layer_2" data-name="Layer 2"><g id="Layer_1-2" data-name="Layer 1"><path class="cls-1" d="M0,44.59q8.69-17,17.39-34.1c2.4-4.69,5.25-8.9,11-10,8-1.48,13.4.93,17.32,8.43,5.84,11.18,11.41,22.5,17,33.81.87,1.77,2.88,4.23,0,5.53-2.53,1.13-5.66,1.23-7.36-2q-3.11-6-6.13-12-5-10-10-20c-1.57-3.14-2.91-6.55-7.3-6.48C27.76,7.84,26.44,11,24.93,14,20.15,23.52,15,32.86,10.69,42.54,8.4,47.66,5.32,49.67,0,48.59Z"/><path class="cls-2" d="M500,47.59c-6.52,2.73-8.52,1.49-8.53-5.29q0-17.66,0-35.32c0-2.08-.7-4.61,1.76-5.77A5.46,5.46,0,0,1,500,2.59Z"/><path class="cls-1" d="M316,10.82c-7.47,8.78-14.11,16.59-20.75,24.39-4.2,4.93-8.1,5-12.32,0-6.7-7.82-13.36-15.67-20.92-24.55,0,8.87,0,16.58,0,24.29,0,3-.16,6,0,9,.22,3.26-.61,4.89-4.34,4.87s-3.92-1.95-3.9-4.77c.08-12-.07-24,.12-36,0-2.39-1.78-6.17,1.68-7,3.87-.92,8.26-1.39,11.47,2.59,4.81,6,9.83,11.76,14.75,17.63,1.71,2,3.56,4,5.08,6.17,1.69,2.43,2.66,1.94,4.35-.14,6.2-7.63,12.84-14.9,18.86-22.65C313.34.52,317.36.57,321.74.78c2,.09,2.44,1.32,2.43,3,0,14,0,28,0,42,0,3.52-2.46,2.79-4.52,2.95-2.9.22-3.71-1.29-3.69-3.95.08-9.33,0-18.67,0-28C316,15.23,316,13.64,316,10.82Z"/><path class="cls-1" d="M146,24.71c0,6.66-.11,13.33,0,20,.07,3.06-1.12,3.94-4.08,4.13-8.71.56-15.57-2.61-20.88-9.42-5.73-7.35-11.44-14.72-17.26-22a63.49,63.49,0,0,0-6.14-6.54,4.33,4.33,0,0,0-4.62-1.19c-1.76.77-.86,2.65-.87,4-.08,10.16-.11,20.32,0,30.48,0,2.91-.32,4.67-3.95,4.68s-4.52-1.36-4.49-4.73c.15-13,.12-26,0-39C83.76,2,84.62.81,88,.65c8.43-.38,15.39,2.18,20.59,8.94,5.68,7.39,11.28,14.84,16.94,22.24q1.82,2.38,3.83,4.6c1.95,2.15,4.47,4.54,7.2,3.39,2.15-.91.83-4.23.86-6.44.12-9.33.15-18.66,0-28-.05-3.34.87-4.81,4.51-4.75,3.44.06,4.2,1.5,4.12,4.58C145.88,11.72,146,18.22,146,24.71Z"/><path class="cls-1" d="M374.07.17c7.52-.06,12.18,2,14.8,7,6.4,12.19,12.52,24.53,18.69,36.83.75,1.49,1.41,3.57-.61,4.32-2.29.85-5,1.17-6.89-1.14a18.19,18.19,0,0,1-1.91-3.48Q390.49,28.35,382.83,13c-1.38-2.75-3.05-5.25-6.63-5.21s-5.15,2.48-6.55,5.28c-5.12,10.24-10.31,20.44-15.48,30.65a18,18,0,0,1-1.88,3.49c-1.93,2.32-4.82,1.91-6.91,1-2.64-1.16-.81-3.44,0-5.11,5.52-11.15,11.13-22.26,16.66-33.4C364.95,3.88,369.16.09,374.07.17Z"/><path class="cls-1" d="M424.84,18.74c0-4.5.12-9,0-13.49-.11-3,.54-4.62,4.07-4.6,3.36,0,4.27,1.27,4.19,4.45-.18,7.49-.11,15,0,22.48.08,9.66,3.2,12.75,13,12.83,7.66.06,15.32.13,23,0,3.34-.08,4.27,1.23,4.27,4.41s-1.17,4.13-4.13,4c-10.29-.45-20.66,1-30.87-1-8.87-1.78-13.09-7-13.39-16C424.72,27.4,424.84,23.07,424.84,18.74Z"/><path class="cls-3" d="M31.26,30.51c3.83-.1,6.27.33,6.2,3.76-.08,3.76-3,3.85-5.64,3.83s-5.53-.34-5.28-4.15S29.85,30.61,31.26,30.51Z"/><path class="cls-4" d="M376.13,38.18c-2.5-.31-5.4-.12-5.31-4.08.08-3.67,2.73-3.6,5.21-3.65,2.69-.06,5.63,0,5.74,3.71S378.86,37.9,376.13,38.18Z"/><path class="cls-1" d="M232.3,17.61c-1.5-7.76-6-12.6-13.49-15.14C212.7.38,206.37.6,199.94,0c-3.82.25-7.83.28-11.77.8-12.3,1.63-18.95,6.92-20.8,16.78A46.78,46.78,0,0,0,166.91,28c.41,10.31,5.47,17,15.4,19.48a71.46,71.46,0,0,0,35.53-.1c7.89-2,12.87-7.2,14.45-15.43A37.39,37.39,0,0,0,232.3,17.61Zm-17.16,22a57.15,57.15,0,0,1-31-.11c-6.25-1.77-9.14-7.2-8.95-15.06.2-8.06,3.21-12.75,9.53-14.71,5-1.55,10.19-1.29,15.4-1.67,4.71.49,9.56.15,14.26,1.53,6.45,1.89,9.57,6.06,9.79,13.28C224.47,32.94,222.26,37.64,215.14,39.59Z"/></g></g></svg>