<svg xmlns="http://www.w3.org/2000/svg" width="2700" height="1414" viewBox="0 0 2700 1414"><defs><style>.cls-1{fill:#fff;}</style></defs><title>Asset 2</title><g id="Layer_2" data-name="Layer 2"><g id="Layer_1-2" data-name="Layer 1"><g id="QkmQq7.tif"><path class="cls-1" d="M1338,0c4.91.66,9.83,1.22,14.71,2,17.93,2.88,36,4.91,53.7,9,22.07,5.1,44,11,65.5,18.22,21.3,7.16,42.08,16,62.73,24.87,17,7.34,33.85,15.26,50.16,24,21.28,11.46,42.2,23.64,62.85,36.21,17,10.32,33.55,21.31,49.85,32.66,16.62,11.57,32.85,23.72,48.93,36q22.68,17.37,44.65,35.69c10.12,8.41,19.66,17.51,29.46,26.29l4.43,4-134,92.85c-6.49-5.3-13.24-11-20.14-16.42-17.48-13.83-34.69-28-52.66-41.23-19.81-14.53-40.12-28.42-60.64-41.93-13.45-8.84-27.48-16.85-41.59-24.63q-20.73-11.42-42.16-21.54c-28.42-13.44-57.9-24.15-88.62-30.92a341.82,341.82,0,0,0-43.19-6.93c-17.6-1.56-35.38-2.67-53-1.94a516,516,0,0,0-68.08,7.48c-28.7,5.07-56.57,12.9-84,22.44a435.48,435.48,0,0,0-43.22,18c-18.49,8.77-37,17.69-54.63,28-23.65,13.88-47,28.46-69.52,44-30.91,21.37-61,43.95-91.37,66.07-26.08,19-51.82,38.44-78.19,57-27.76,19.53-55.72,38.82-84.29,57.12-19.11,12.24-39.3,22.84-59.29,33.64-15.18,8.19-30.59,16-46.28,23.19-31.63,14.44-64,27.22-97.48,36.56-24.36,6.78-49,12.69-73.73,18-17,3.62-34.24,5.79-51.45,8.1-13.12,1.77-26.33,3.05-39.53,4-14.32,1-28.69,1.35-43,2.11-4.75.25-9.47.89-14.61,1.39V426.21l4-.22c14.17-.67,28.43-.63,42.51-2.15a685.54,685.54,0,0,0,73-11.6,638.44,638.44,0,0,0,104.86-32.79c21.89-8.95,43.65-18.56,64.46-29.75,29.38-15.78,58-33.08,86.63-50.17,14.55-8.67,28.72-18,42.75-27.55,30.91-21,61.64-42.22,92.39-63.44,22.37-15.44,44.52-31.22,67-46.48,19.78-13.41,39.74-26.58,59.94-39.34q22.9-14.44,46.67-27.52c18.5-10.2,37.2-20.1,56.17-29.39,32.09-15.71,65.18-29.14,99.45-39.23,23-6.77,46.46-12.19,69.89-17.39,12-2.67,24.43-3.76,36.72-5.13C1248.68,2.74,1260.63,2,1272.55,1c.51,0,1-.62,1.45-.95Z"/><path class="cls-1" d="M1297,1414c-.89-.41-1.77-1.17-2.67-1.19-18.54-.47-36.46-4.27-54.18-9.5-17.29-5.1-33.3-12.56-47.78-23.45a127.21,127.21,0,0,1-34.7-40.13c-9.28-16.55-14.92-34.44-18.3-53-1.37-7.53-1.61-15.26-2.4-23.22h68.49c1.23,14.34,4.37,28.11,11,41,11.41,22.08,29,36.82,52.42,44.68,19.86,6.66,40.48,7.15,61,5.83,17.43-1.13,34-6,48.71-16.46,14-10,22.65-23.18,25.62-39.92,2.78-15.7,1.35-30.8-7.9-44.58-6.1-9.09-14.24-15.71-23.56-21-21.18-12-44.34-18.68-67.52-25.39-18-5.23-36-10.49-53.86-16.39-12.87-4.27-25.76-8.83-38-14.66-22.54-10.77-37.12-29.16-46.16-52.17-4.19-10.69-6-21.81-7.14-33.24a121.4,121.4,0,0,1,13.27-69.11,107.74,107.74,0,0,1,44.44-45.19,145.32,145.32,0,0,1,56.7-17.67c8.17-.8,16.35-1.68,24.54-1.92,11.16-.33,22.4-.78,33.51.08,20.62,1.59,40.84,5.48,60,13.82a118.38,118.38,0,0,1,44.63,33.07c12.71,15.38,22.13,32.85,26.51,52.54,2.44,10.93,4,22.07,6,33.6h-64.91c-3.53-10.84-6.38-21.78-10.61-32.16-7-17.25-20.06-29-37-36.41-18.82-8.19-38.86-9.25-58.9-7.93-18.37,1.2-36,6.09-50.32,18.43a51,51,0,0,0-16.71,28.65c-2.63,12.64-2.93,25.34,2.62,37.52,5.63,12.37,16.19,19.44,28.22,23.44,24.22,8.06,48.88,14.74,73.26,22.32,17.28,5.37,34.63,10.66,51.51,17.14a162.14,162.14,0,0,1,46.35,27.42c21.22,17.81,33.63,40.53,38.39,67.33,4.65,26.21,2.89,52.26-7.18,77.16a108,108,0,0,1-19.06,30.59c-20.25,23.15-46.48,35.69-75.61,42.62-13.57,3.22-27.67,4.21-41.53,6.26A7.91,7.91,0,0,0,1326,1414Z"/><path class="cls-1" d="M933,1414c-3.74-.67-7.45-1.59-11.21-2-16.4-1.59-31.53-7.23-45.45-15.56-9-5.39-18-11.57-25.05-19.17a217,217,0,0,1-25-33,138.9,138.9,0,0,1-17.66-45.18,213.1,213.1,0,0,1-4.5-28.32c-1-13.54-1.75-27.22-.9-40.73a229.54,229.54,0,0,1,6.08-40.41,166,166,0,0,1,24.58-54.38c12.89-18.75,28.8-34.19,48.77-45.29,14.55-8.08,30-13.55,46.62-15,12-1,24-2.32,36-1.86,21,.82,41.34,5.26,60.35,14.75,23,11.48,40.41,28.83,53.29,50.85,10,17,15.4,35.6,19.24,54.9,4.55,22.88,3.67,45.86,3.79,69.28H868.37c1.61,10.09,2.7,19.74,4.75,29.18,3.63,16.65,11.16,31.42,23.23,43.62s27.14,19.12,43.91,22.11c16.41,2.92,32.85,2.59,48.78-2.53,22-7,35.14-22.79,41.89-44.37,1-3.2,1.66-6.49,2.49-9.78h67.47c-2.09,9-3.3,17.91-6.2,26.19-6.93,19.71-17.72,37.16-33.12,51.55a125.4,125.4,0,0,1-59.41,31c-7,1.57-14.1,2.7-21.16,4Zm102.26-205.18c-1.8-16.48-6-31.56-14.32-45.4-6.91-11.49-16.34-20.45-28.35-26-18.18-8.4-37.41-9.61-56.88-5.36-20.3,4.43-36.49,15-48.06,32.6-8.89,13.54-14.06,28.38-17.54,44.16Z"/><path class="cls-1" d="M0,963H287.69v60.81H66.3v126H267.72v59H66.19V1408H0Z"/><path class="cls-1" d="M417,1414c-5.32-1-10.64-2-15.95-3a130.78,130.78,0,0,1-55.56-24.86c-18-13.82-31-31.44-40.29-51.81a162.4,162.4,0,0,1-13.12-44.83c-1.51-10.85-2.49-21.81-3-32.75-.5-11.32-.9-22.74.05-34,2.28-27.11,8.47-53.3,21.8-77.35,16.22-29.27,39.75-50,71.38-61.63,11.93-4.38,24-7.75,36.61-8.74,11.48-.91,23-2.23,34.48-1.87,24.68.79,48.64,5.65,70.61,17.44,23.53,12.61,41.63,30.87,54.53,54.36a170,170,0,0,1,20.31,62.56c1.74,15,3.4,30.2,2.84,45.22-1,26.65-6.07,52.59-17.08,77.27-11.83,26.54-29.71,47.82-53.92,63.49-14.15,9.16-30,14.79-46.79,17.51-6,1-11.95,2-17.93,3Zm-63.07-169.67-1.39.21c2.15,16.18,3.49,32.52,6.64,48.51,5.3,26.89,19.9,47.52,45.06,59.53,20.65,9.85,42.45,11,64.49,6,18.37-4.21,33.27-14.24,44.62-29.37,15.76-21,20.36-45.61,21.4-70.91.59-14.45-.57-29-1.89-43.48-1.54-16.82-6.2-32.88-14.84-47.59-7.35-12.51-17.16-22.57-30.14-29.14-20.52-10.4-42.21-12.33-64.61-8a74,74,0,0,0-40.38,21.81A91.27,91.27,0,0,0,362,1188,182.32,182.32,0,0,0,353.93,1244.33Z"/><path class="cls-1" d="M1942,1414c-3.3-.75-6.57-1.7-9.91-2.23-24.08-3.86-45.59-13.11-64.47-28.86a129.72,129.72,0,0,1-34.27-44.19,187.12,187.12,0,0,1-15.33-49.45,252.08,252.08,0,0,1-3.62-56.08c1.4-26.55,6.08-52.47,17.22-77,12.21-26.9,30.6-48.09,56.18-62.84a137.18,137.18,0,0,1,56.53-18c12.3-1.12,24.73-2.41,37-1.85,28.87,1.3,56.24,8.41,80.53,24.84,16.93,11.44,30.17,26.31,40.54,43.94,10.65,18.12,17,37.77,21.17,58.13,3.37,16.38,3.33,33.08,3.23,49.78-.19,32.37-7,63.17-22.61,91.55-19.59,35.69-49.14,59-89.25,68-7,1.56-14.18,2.06-21.26,3.12-.61.09-1.14.78-1.7,1.19Zm-63-169.23c.94,10.82,1.73,21.65,2.85,32.45,1.42,13.77,4.66,27.13,10.93,39.53,13.87,27.41,37.41,41,67,44.23,15.44,1.69,31,.47,45.93-5.65a78.81,78.81,0,0,0,42.16-39.56c10-20.68,12.82-43.19,13.4-65.94.17-6.58-.47-13.19-1-19.77-.56-7.68-.62-15.5-2.19-23-4-19-9.53-37.28-23.09-52.29a77.4,77.4,0,0,0-26.07-19.1,92.49,92.49,0,0,0-27.12-7.1c-13.74-1.67-27.13-1-40.28,3.05-27.81,8.63-44.52,28.37-53.64,55.11C1881.43,1205.47,1878.9,1224.89,1879,1244.77Z"/><path class="cls-1" d="M2262,1414c-3.3-.75-6.57-1.7-9.91-2.23-28.13-4.46-53.16-15.24-72.8-36.44-14.36-15.51-23.15-34-27.05-54.75-3.33-17.73-4.07-35.61-4-53.6.12-62.33.05-124.66.05-187.38h64.5v5c0,63.17-.24,126.33.24,189.49.09,12.79,1.3,26,4.83,38.23,7.61,26.29,26.5,40.8,53.37,44.92,18.62,2.85,36.52,1.23,52.49-10,13.24-9.27,20.44-22.58,24.5-37.79,3.91-14.65,5.1-29.64,5.09-44.77q-.09-89.74,0-179.5v-5.7h64.5v5.38c0,64.83.44,129.66-.22,194.49-.25,24.8-3.93,49.35-15.8,71.88-10.78,20.46-26.2,36.06-46.91,46.59a145.66,145.66,0,0,1-51.62,15c-.44.05-.8.75-1.2,1.15Z"/><path class="cls-1" d="M1633,1414c-3.31-.75-6.58-1.75-9.92-2.2-23.88-3.26-45.53-12.11-64.33-27-19.64-15.61-32.43-36.29-41.59-59.44-6.61-16.7-10-34.14-12.82-51.74a103,103,0,0,1-1-14.26q-.22-14.5,0-29c.21-16.74,3.07-33.09,7.51-49.18,5.34-19.35,13.44-37.41,25.39-53.65,14.87-20.23,33.83-35.15,57.3-44.18,17.2-6.62,35-9.44,53.48-10.27,21.8-1,43,1.2,63.74,7.72,26,8.19,46.62,23.68,61.06,47.12,9,14.68,15.52,30.24,18,47.36.64,4.32,1.53,8.6,2.36,13.26h-65.28c-4.3-10-7.72-20.18-12.78-29.4-8.6-15.68-22.59-25-39.75-29.29-26.35-6.63-50.42-1.18-71.41,15.67-12.87,10.34-20.84,24.59-26,40.18a137.58,137.58,0,0,0-7.24,40.16c-.18,8.76-1.27,17.54-.83,26.26,1.13,22.48,3.9,44.71,14.88,65,9.29,17.17,21.76,31.07,40.87,37.38a92.28,92.28,0,0,0,41.53,4c11.31-1.49,21.84-4.46,31.52-10.44a63.54,63.54,0,0,0,22.44-23.61,106.78,106.78,0,0,0,12.64-37.8h65.47c-1.16,6.68-1.58,13.55-3.63,19.89-4.39,13.67-8.61,27.56-14.73,40.48-9.92,20.94-25.48,37.24-45.78,48.78a134.44,134.44,0,0,1-48.14,16c-3.35.47-6.64,1.45-10,2.2Z"/><path class="cls-1" d="M2700,1051l-8.43-.42c-.53-10.89-1.05-21.59-1.56-32.28l-.74-.23c-3.64,10.8-7.27,21.61-10.95,32.55h-7c-3.25-10.68-6.56-21.54-10.28-33.74-.62,11.88-1.17,22.45-1.74,33.57l-8.45.38c1-15.7,2-30.9,3-46.33h11.73c3.28,10.73,6.61,21.6,9.84,32.13,3.51-10.56,7.12-21.41,10.74-32.27h11.39c.39,7.91.73,15.92,1.22,23.92a26,26,0,0,0,1.2,4.72Z"/><path class="cls-1" d="M926.38,377.07c12.14,9.75,24.3,19.7,36.67,29.4,14.78,11.6,29.46,23.38,44.71,34.35,17,12.27,34.55,23.91,52.09,35.48a582.28,582.28,0,0,0,88.42,48.2c17.4,7.57,35.24,14.2,53.15,20.46a293.43,293.43,0,0,0,59.76,14c10.41,1.33,20.89,2.29,31.37,3,9.57.64,19.22,1.43,28.76.85,18.37-1.1,36.71-2.85,55-4.82,36.29-3.89,71.18-13.61,105.43-25.87,28.73-10.3,56.09-23.52,83-37.94a828.12,828.12,0,0,0,82.71-51.06c24.07-16.81,47.7-34.28,71.45-51.56,21.37-15.56,42.54-31.4,64-46.87,26.57-19.18,52.91-38.74,80.13-57,24.47-16.39,49.71-31.69,75.15-46.53,19-11.1,38.5-21.61,58.51-30.77,24.07-11,48.58-21.29,73.53-30.09s50.45-16,76-22.68c17.43-4.58,35.33-7.5,53.12-10.53,16.42-2.8,32.95-5.07,49.5-7,11.12-1.28,22.37-1.55,33.57-2.15,13.69-.72,27.4-1.32,41.1-1.95a17.86,17.86,0,0,1,2.24.19V293c-2.17,0-4.29-.13-6.39,0-18.23,1.29-36.47,2.4-54.66,4a436.37,436.37,0,0,0-84.38,16.15c-24.13,7.08-48.25,14.57-71.57,23.89-25.68,10.25-50.89,21.91-75.46,34.6-24.29,12.54-47.75,26.74-71.15,40.93q-32.36,19.62-63.74,40.81c-29.15,19.76-57.73,40.36-86.69,60.4-29.61,20.5-59.11,41.16-89.18,61q-34.87,23-71.09,43.9c-21.91,12.61-44.35,24.39-67.09,35.42-43.69,21.2-89.06,38-136.48,48.8-18.72,4.25-37.62,7.79-56.55,11a269.24,269.24,0,0,1-32.36,3.07c-22,1-44.07,2.2-66.08,1.81-16-.29-32-3-47.94-4.67a333.52,333.52,0,0,1-61.56-13c-23-7-46.07-13.92-68.32-22.86-26.28-10.55-52.17-22.32-77.36-35.23-24.76-12.69-49.05-26.53-72.44-41.58-30.55-19.67-60.23-40.71-89.82-61.8-13.33-9.49-25.64-20.43-38.23-30.92-13.63-11.37-27-23-40.54-34.5-1.65-1.4-3.27-2.82-4.65-4Z"/><path class="cls-1" d="M1426.75,348.56c.57,68.44-54.18,117.38-110.86,121.22-34.42,2.33-65-6.84-91.08-29.82-27.11-23.88-41.08-54.36-41.32-90-.46-69.62,53.58-118.64,111.82-122.73C1373.62,221.71,1428.33,284.69,1426.75,348.56Z"/><path class="cls-1" d="M2496.23,1135H2443.6v-55.43H2496v-72.95h64.65v72.54h53.89v55.64h-53.73v272.78h-64.56Z"/><path class="cls-1" d="M802.87,1078v62c-4.91,0-9.69,0-14.46,0-20-.09-38.92,3.83-56.11,14.91-16.93,10.92-27.81,26.19-33.11,45.23-3.87,13.86-5.2,28.21-5.25,42.68-.19,54.09-.61,108.17-.94,162.25v2.67H629.25V1080.25H691v40.88c10.69-15.14,22.94-27.36,39.25-34.7,11.11-5,22.77-8.39,35.14-8.42S790.14,1078,802.87,1078Z"/><path class="cls-1" d="M2633.67,1011.74v38.79h-9.41v-38.72h-12.82v-7.37h35.09v7.3Z"/></g></g></g></svg>