<svg xmlns="http://www.w3.org/2000/svg" width="1999.54" height="577.51" viewBox="0 0 1999.54 577.51"><defs><style>.cls-1{fill:#fff;}</style></defs><title>Asset 2</title><g id="Layer_2" data-name="Layer 2"><g id="Layer_1-2" data-name="Layer 1"><g id="ZuHFnB.tif"><path class="cls-1" d="M173.54,577.51c12.22-2.32,24.42-4.75,36.67-6.93q66.33-11.76,132.67-23.4,69.53-12.3,139-24.66l40.17-7.17-181-215.82L435,40.7c1.4,2.18,2.42,3.62,3.3,5.14q109.2,188.94,218.37,377.91,42.47,73.51,84.8,147.1c1.22,2.11,2.06,4.43,3.08,6.66Z"/><path class="cls-1" d="M1999.54,404.51h-164.2a87.2,87.2,0,0,0,10.82,46.79c14,25.45,36.42,36.27,64.72,36.62,27.22.34,51.84-7.41,73.81-23.52.79-.58,1.63-1.08,3.1-2V498a129.66,129.66,0,0,1-48.18,19.87c-22.29,4.11-44.83,5.29-66.87-.75-31.53-8.64-54.41-28.38-66-59-16.64-44-16.44-88.11,5-130.71,15.58-30.92,40.53-51.06,74.94-57.3,33.23-6,63.7.26,88.57,24.91C1986,305.7,1993,318.66,1997.71,333c.51,1.55,1.22,3,1.83,4.56Zm-34-32.7c-.36-4.64-.43-8.93-1-13.15-2.25-15.45-7.31-29.74-18.4-41.22-17.72-18.35-47.27-19.79-68.28-9.49-22,10.77-33.75,29.84-40.14,52.72-1,3.59-1.51,7.31-2.28,11.14Z"/><path class="cls-1" d="M408.91,1.89c-5.7,12.57-11.3,25.18-17.12,37.69Q297.61,241.87,203.35,444.14L173.63,508c-.9,1.94-1.85,3.87-2.8,5.87H0c1-2.06,1.66-3.49,2.43-4.84Q94.79,348.63,187.21,188.32a21.56,21.56,0,0,1,4.77-5.65q97.57-82,195.24-163.89c7-5.88,14.16-11.58,21.24-17.36Z"/><path class="cls-1" d="M858.91,514.69h-43.7L943,178.81H984.1q64.5,167.57,129.27,335.87H1069.7c-11.56-30.75-23.3-62-35.09-93.34H892.17Q875.49,468.19,858.91,514.69Zm46.75-129.81h115.51c-18.9-55.23-41.8-108.75-57.82-162.48C946.75,276,924.59,329.41,905.66,384.88Z"/><path class="cls-1" d="M1529.54,275.87h39.35v239h-39.05V479l-1-.27c-.88,1.28-1.8,2.54-2.63,3.86-17.6,27.82-43.26,40.2-75.64,38.11a117.44,117.44,0,0,1-33-6.63c-23.78-8.84-37-27.81-42.7-51.69a183.42,183.42,0,0,1-5-39c-.73-39-.43-78-.52-116.95,0-10.3,0-20.6,0-31.3h38.45c0,2,0,4,0,5.9.25,47.65.25,95.3.88,142.94.22,17.24,4.2,33.73,15.73,47.4,8.38,9.92,19.39,14.91,32.15,16.2,17.31,1.74,33.74-.53,47.37-12.41,16.12-14,25.11-32.1,25.38-53.39.59-46.47.25-93,.29-139.45Z"/><path class="cls-1" d="M1267.82,307.89H1140.24v-32.7H1325v11.13L1183.65,482.11H1323.3v32.8H1126.94c-.86-6.78-.28-12.48,4-18.35q67.33-91.89,134.1-184.18C1265.91,311.22,1266.57,309.93,1267.82,307.89Z"/><path class="cls-1" d="M1771.41,273.06V313c-1.14-.41-2.18-.69-3.14-1.14-27.83-13.07-55.68-3.89-70,23.31-8.31,15.84-13,32.58-13,50.71,0,41-.34,82-.55,123,0,2,0,3.91,0,5.94h-38.16V275.13h38.15v46.65l1.33.38c6.61-17.67,16.2-33.15,32.36-43.41C1735.06,268.17,1753,268.77,1771.41,273.06Z"/><path class="cls-1" d="M408.46,1.42,409.64,0l-.74,1.89Z"/></g></g></g></svg>