<?xml version="1.0" encoding="UTF-8" standalone="no"?>
<svg
   xmlns:dc="http://purl.org/dc/elements/1.1/"
   xmlns:cc="http://creativecommons.org/ns#"
   xmlns:rdf="http://www.w3.org/1999/02/22-rdf-syntax-ns#"
   xmlns:svg="http://www.w3.org/2000/svg"
   xmlns="http://www.w3.org/2000/svg"
   xmlns:sodipodi="http://sodipodi.sourceforge.net/DTD/sodipodi-0.dtd"
   xmlns:inkscape="http://www.inkscape.org/namespaces/inkscape"
   viewBox="0 0 820.46 118.76"
   width="820.46"
   height="118.76"
   version="1.1"
   id="svg979"
   sodipodi:docname="logo_crowdstrike_dark.svg"
   inkscape:version="0.92.2 5c3e80d, 2017-08-06">
  <metadata
     id="metadata983">
    <rdf:RDF>
      <cc:Work
         rdf:about="">
        <dc:format>image/svg+xml</dc:format>
        <dc:type
           rdf:resource="http://purl.org/dc/dcmitype/StillImage" />
        <dc:title>Asset 2</dc:title>
      </cc:Work>
    </rdf:RDF>
  </metadata>
  <sodipodi:namedview
     pagecolor="#ffffff"
     bordercolor="#666666"
     borderopacity="1"
     objecttolerance="10"
     gridtolerance="10"
     guidetolerance="10"
     inkscape:pageopacity="0"
     inkscape:pageshadow="2"
     inkscape:window-width="1205"
     inkscape:window-height="755"
     id="namedview981"
     showgrid="false"
     inkscape:pagecheckerboard="true"
     inkscape:zoom="2.4620334"
     inkscape:cx="32.820398"
     inkscape:cy="61.610078"
     inkscape:window-x="1015"
     inkscape:window-y="428"
     inkscape:window-maximized="0"
     inkscape:current-layer="Layer_1-2" />
  <defs
     id="defs933">
    <style
       id="style931">.cls-1{fill:#fff;}</style>
  </defs>
  <title
     id="title935">Asset 2</title>
  <g
     id="Layer_2"
     data-name="Layer 2">
    <g
       id="Layer_1-2"
       data-name="Layer 1">
      <path
         class="cls-1"
         d="M140.44,83.75c-.49-.42-1-.71-1.61-.2l1.11.74c1.83.92,3.18,2.49,5,3.88C145,84.73,142.7,84.28,140.44,83.75Z"
         id="path941" />
      <path
         class="cls-1"
         d="M147.47,88c-.33-.47-.9-.95-.91-1.43-.08-3.73-2.81-5.09-5.63-6.13-4.59-1.7-9.3-3.1-13.93-4.72-3.39-1.18-4-2.58-2.78-5.86a35.2,35.2,0,0,0,1.11-3.57c1-4.06-.67-10.43-4.62-12.8-6.33-3.79-13.19-6.19-20.12-8.44-12.94-4.2-26.2-7.42-38.7-13-13-5.8-24.79-13.4-34.34-24.14C26.72,7,26.15,5.8,24.93,5.26c-.43.33-.29.63-.17.94,2.08,5.25,5,10,9.38,13.57,6.31,5.11,12.79,10,19.09,15.13,5.49,4.45,11,8.94,14.21,15.5A150.89,150.89,0,0,0,78.53,69c4.54,6.64,10.16,12,18,14.57,4.65,1.52,9.38.83,14.09.52A53.67,53.67,0,0,1,127,85.32c-1.67.93-3.37,0-5.06.09-6.79.57-13.57,1.17-20.36,1.63a25.94,25.94,0,0,1-16.39-3.91c-2.45-1.59-5-3-7.51-4.49,6.82,7.13,13.91,13.9,20.56,21.68-3.17-.2-5.17-2.11-7.78-2.74a56.43,56.43,0,0,0,6.07,6.18,38.44,38.44,0,0,0,7.47,5.06,3.89,3.89,0,0,1-2.53-.06c-.54-.23-1-.38-1,.51,2.7,1.76,5.55,3.36,8.8,1.9,2.62-1.18,3.55-.06,4.44,2.14,1.52,3.75,4.38,5.61,8.76,5.43a28.46,28.46,0,0,1-2.52-1.89c-1.92-1.82-2.14-3.83-.45-5.7,2.09-2.32,4.9-2.5,7.8-2.24,2.54.24,3.07,2.21,3.67,4.13.14.46,0,1,.66,1.21,2.35-5.06,1.5-6.73-3.86-7.48-1.89-.27-3.81-.35-5.68-.71a9.07,9.07,0,0,1-6.81-4.75,18,18,0,0,0,10.92-2.18,29.76,29.76,0,0,1,18.62-3.85,47.25,47.25,0,0,0-11.92-7.43c-1.52-.72-3.31-.86-4.7-1.85a4.33,4.33,0,0,1-.76-.67h0a11.26,11.26,0,0,1,5.51,1.87c5.2,1,9.16,4.18,12.92,7.64,2.58,1.39,4.17,3.9,6.4,5.83a6.3,6.3,0,0,0-.44-6.54C150.42,92.06,148.92,90.07,147.47,88Zm-7.54-3.75-1.11-.74c.61-.51,1.12-.22,1.61.2,2.27.52,4.6,1,4.51,4.42C143.12,86.79,141.76,85.21,139.93,84.29Z"
         id="path947" />
      <path
         class="cls-1"
         d="M667.69,78.2c-.69-1.21-1.1-1.85.54-2.59,7.29-3.31,9.41-11.19,8-18.39s-6.52-11.43-14.41-12.11c-6.57-.57-13.15-.12-19.72-.34-2-.06-2.48.51-2.47,2.47.08,16,0,32,0,48,0,5.69,0,5.62,5.76,5.63,1.66,0,2.09-.48,2.06-2.09-.09-6.08,0-12.16-.07-18.24,0-1.52.44-2.07,2-2,2.66.09,5.34.13,8,0a2.89,2.89,0,0,1,3.1,1.83c3,5.77,6.1,11.44,9,17.26,1.15,2.35,2.42,3.73,5.24,3.28a36.37,36.37,0,0,1,5.34,0c-.36-.82-.52-1.28-.75-1.7C675.44,92.14,671.62,85.14,667.69,78.2Zm-7-6.75c-3.89.6-7.81.12-11.71.31-1.32.06-1.48-.65-1.47-1.71,0-2.83,0-5.66,0-8.49,0-2.66,0-5.33,0-8,0-1.21.2-1.82,1.62-1.78,3.66.1,7.33-.1,11,.12,5.51.32,8.34,3.61,8.56,9.58C668.82,66.83,665.75,70.66,660.64,71.45Z"
         id="path949" />
      <path
         class="cls-1"
         d="M752.83,73a2.51,2.51,0,0,1,0-3.08q6.16-9.88,12.2-19.84c1-1.61,1.88-3.27,2.82-4.9-1.8-.87-3.7-.17-5.55-.38-.41,0-.84,0-1.25,0A2,2,0,0,0,758.89,46c-3.11,5.35-6.34,10.64-9.46,16-3.78,6.5-3.75,6.45-10.24,6.42-1.65,0-2.14-.47-2.11-2.11.09-5.41,0-10.82,0-16.24s0-5.18-5.31-5.34c-2.19-.07-2.54.67-2.53,2.65.08,15.9,0,31.81,0,47.71,0,5.85,0,5.79,5.88,5.73,1.56,0,2-.47,1.94-2-.08-5.83,0-11.66,0-17.49,0-6.2,0-6.14,6.2-6.21A3.26,3.26,0,0,1,746.67,77c3.45,6.16,7.07,12.21,10.51,18.37,3,5.38,2.94,5.42,9,5.42h2.92c-.46-.94-.71-1.54-1-2.09C763,90.15,758,81.55,752.83,73Z"
         id="path951" />
      <path
         class="cls-1"
         d="M817.9,93.87c-7.08.09-14.17,0-21.25.08-1.77,0-2.26-.5-2.21-2.24.12-4.58.1-9.17,0-13.75,0-1.59.57-2,2-2,4.42.07,8.83,0,13.25,0,4.87,0,4.8,0,4.79-4.88,0-1.56-.46-2-2-1.94-5.33.09-10.67,0-16,.07-1.66,0-2.14-.49-2.1-2.13.1-4.33.12-8.67,0-13-.06-1.82.36-2.43,2.31-2.39,5.83.14,11.67.05,17.5.05,5,0,4.9,0,4.92-5,0-1.68-.53-2.07-2.12-2.05q-14.25.1-28.5,0c-1.66,0-2.09.47-2.08,2.1.07,8.67,0,17.33,0,26s0,17.17,0,25.75c0,1.73.43,2.25,2.2,2.23,9.08-.09,18.17,0,27.25,0,4.53,0,4.4,0,4.56-4.56C820.53,94.13,819.72,93.85,817.9,93.87Z"
         id="path953" />
      <path
         class="cls-1"
         d="M558.61,73.79c-4.82-3-10.08-5-15.12-7.52-3-1.47-5-3.57-4.89-7.09a8.14,8.14,0,0,1,5.89-7.27,16,16,0,0,1,13,1.55c1.2.66,2.34,2.49,3.4,2s1.63-2.35,2.4-3.62c.21-.35.33-.77.56-1.11.55-.82.37-1.34-.43-2-3.86-3-8.11-4.83-12.57-4.66a25.23,25.23,0,0,0-9.32,1.07c-8.14,2.66-12.68,11.28-10.11,19,1.4,4.19,4.86,6.14,8.22,8.24,4.49,2.81,9.62,4.38,14.16,7.16A7.41,7.41,0,0,1,557.68,87a7.28,7.28,0,0,1-5.65,6.8,16.4,16.4,0,0,1-14.21-2.35c-4.39-2.91-4.37-2.88-7.39,1.48-.75,1.09-.72,1.64.38,2.61,6.05,5.33,13.09,6.76,20.87,5.83a15.41,15.41,0,0,0,13.47-11.86C566.55,82.76,564.94,77.7,558.61,73.79Z"
         id="path955" />
      <path
         class="cls-1"
         d="M444,48.08c-3,11.76-6.2,23.46-9.34,35.19-1.14,4.25-2.28,8.5-3.5,13-.3-.8-.5-1.26-.63-1.73-4.36-15.72-8.73-31.44-13-47.18-.38-1.41-.7-2.17-2.37-2.11-1.48.05-2.28.34-2.5,2a31.18,31.18,0,0,1-1.14,4.08L398.94,96a8.78,8.78,0,0,1-.47-1.09C394.38,79,390.27,63,386.28,47c-.51-2.06-1.84-1.88-3.12-1.62-1.78.37-.51,1.6-.32,2.33,4.46,17.07,9,34.13,13.44,51.21.36,1.39.78,2,2.26,1.93s2.53,0,3.05-1.93c3.89-14.45,7.93-28.85,12-43.25.48-1.71.58-3.56,1.62-5.27,4,16.35,9,32.26,13.34,48.33.39,1.45.84,2.2,2.59,2.17s2.44-.46,2.88-2.17c2.5-9.66,5.14-19.28,7.73-28.91l6.53-24.26C445.75,44.79,444.67,45.52,444,48.08Z"
         id="path957" />
      <path
         class="cls-1"
         d="M621.2,44.77c-12.83.09-25.66,0-38.49,0-5.16,0-5.1,0-5.06,5.07,0,1.52.41,2,2,2,4.83-.1,9.67.07,14.49-.09,2.13-.07,2.8.39,2.78,2.68-.13,13.58-.06,27.16-.06,40.74,0,5.72,0,5.63,5.7,5.68,1.87,0,2.14-.68,2.12-2.31-.08-7.41,0-14.83,0-22.24s.09-14.66-.05-22c0-2.15.64-2.63,2.66-2.55,4,.16,8,0,12,0,4.62,0,4.49,0,4.65-4.5C623.94,45.16,623.21,44.76,621.2,44.77Z"
         id="path959" />
      <path
         class="cls-1"
         d="M492.37,46.11c-7.67-1.51-15.45-.52-23.18-.78-1.74-.06-1.17,1.29-1.18,2.14,0,8.5,0,17,0,25.5s0,17.17,0,25.75c0,1.55.3,2.18,2,2.14,5.91-.14,11.84.11,17.74-.18,9-.44,16.59-4,21.48-11.93,3.74-6.08,4.18-12.89,3.6-19.8C511.82,57,504.11,48.41,492.37,46.11Zm14.21,40.11c-3.68,6.62-9.63,9.92-16.84,11-5.52.81-11.14.33-16.71.44-1.75,0-1.56-1-1.55-2.08q0-11.37,0-22.74c0-7.25.06-14.5,0-21.74,0-1.87.35-2.69,2.44-2.58,6.38.33,12.81-.56,19.12,1.16,9.29,2.53,15.52,9.77,16.32,19.36C509.82,74.94,509.59,80.81,506.58,86.22Z"
         id="path961" />
      <path
         class="cls-1"
         d="M338.42,44.41A28,28,0,0,0,310.4,73c.17,16.18,12.49,28.72,28.24,28.73,15.29,0,27.89-13.14,27.76-29C366.27,56.75,354.11,44.44,338.42,44.41Zm-.12,54c-13.47.1-24.25-11.06-24.39-25.25s10.43-25.25,24.37-25.45c13.26-.19,24.7,10.68,24.66,25.13C362.9,87.12,352.26,98.31,338.3,98.41Z"
         id="path963" />
      <path
         class="cls-1"
         d="M281,77.61c-.72-1.3-.88-1.93.9-2.64,6.53-2.6,10.06-9.77,8.89-17.46-1-6.43-6-11.15-12.88-11.89-6.22-.67-12.49-.1-18.73-.33-1.73-.06-2,.58-2,2.13q.07,25.62,0,51.25c0,1.19-.18,2.22,1.7,2.22s1.59-1.2,1.59-2.3c0-6.67.07-13.33,0-20,0-1.79.33-2.49,2.3-2.41,3.91.17,7.83.15,11.75,0,1.72-.07,2.45.62,3.18,2.05,3.39,6.66,7,13.22,10.35,19.91,1.2,2.42,2.74,3.25,5.27,2.48.1-.82-.48-1.36-.82-2C288.64,91.62,284.84,84.6,281,77.61ZM277,73c-5,.39-10,0-14.93.28-1.43.06-1.62-.65-1.61-1.82,0-3.57,0-7.15,0-10.73s0-7,0-10.48c0-1.09.23-1.75,1.49-1.71,5.07.14,10.15-.35,15.2.24a11.15,11.15,0,0,1,10.34,11.61C287.46,67.08,283.22,72.5,277,73Z"
         id="path965" />
      <path
         class="cls-1"
         d="M706.31,73q0-11.37,0-22.75c0-5.52,0-5.43-5.62-5.53-1.86,0-2.34.44-2.33,2.32.08,16.08,0,32.16,0,48.25,0,5.52,0,5.44,5.58,5.53,1.84,0,2.4-.4,2.38-2.32C706.24,90,706.31,81.55,706.31,73Z"
         id="path967" />
      <path
         class="cls-1"
         d="M232.27,92.26c-4.75,4.12-10.17,6.53-16,6.1-5.4.22-9.9-.82-13.86-3.54-8.15-5.59-11.69-13.56-11.39-23.27.21-6.93,2.68-13.05,7.94-17.67,8.89-7.8,20.86-8.38,30.81-1.75.62.41,1.29.75,1.87,1.2,1.39,1.07,1.55-.55,2.19-1,.94-.68.32-1.27-.3-1.77-7.32-5.93-15.79-7.3-24.67-5.37-13.36,2.9-21.9,14.38-21.51,28.16.35,12.45,7,22.73,18.2,26.59,10.27,3.54,20.15,2.38,28.63-5.13.56-.5,2.41-.66,1-2.34C234.17,91.13,233.46,91.23,232.27,92.26Z"
         id="path969" />
      <path
         class="cls-1"
         d="M15.9,21.59c9.3,8.31,19.87,14.83,30.57,21.16,4,2.36,8.11,4.46,11.64,7.56a87.48,87.48,0,0,1,7.11,7.52,5,5,0,0,0-.78-2.56c-4.21-8.48-11-14.48-18.82-19.44C29.68,25.72,14.37,14.83,1.43.9,1.1.54.93-.25.11.08-.26,1,.4,1.65.7,2.39,3.95,10.23,9.75,16.09,15.9,21.59Z"
         id="path971" />
      <path
         class="cls-1"
         d="M64.95,65.79a1.48,1.48,0,0,0,1.35,1.36,1.54,1.54,0,0,0-1-1.71,23.42,23.42,0,0,0-5.4-6.75C53,52,44.37,48.08,36.2,43.38A150.43,150.43,0,0,1,13.42,28c-2.5-2.12-4.72-4.55-7.22-6.7-.61.77-.12,1.15.1,1.55A48.47,48.47,0,0,0,17.93,37c9,7.3,19.19,12.68,29.56,17.62C53.83,57.64,59.82,61,64.95,65.79Z"
         id="path973" />
      <path
         class="cls-1"
         d="M56.41,72.32a1.37,1.37,0,0,0-.58-.22L55,71.78a1.74,1.74,0,0,0-1.89-.23l1.34.68,1,.48c1.77,1.24,3.8,2.21,4.8,4.41-9.4,1-16.4-4.34-23.79-8.71-.23,1,.31,1.25.63,1.57A54.49,54.49,0,0,0,59.45,83.3c8.32,2.63,17,4.18,25,8.45C81.93,87.66,69.69,76.2,56.41,72.32Z"
         id="path975" />
    </g>
  </g>
</svg>
