<svg xmlns="http://www.w3.org/2000/svg" width="688.87" height="164" viewBox="0 0 688.87 164"><defs><style>.cls-1{fill:#fff;}</style></defs><title>Asset 3</title><g id="Layer_2" data-name="Layer 2"><g id="Layer_1-2" data-name="Layer 1"><g id="SwNsZt.tif"><path class="cls-1" d="M688.87,126.19l-17-.94V77.9c-6.38-2.56-12.89-1.22-21.11,4v43.51H634V77.51c-8.35-2.85-14.59,1.25-21.26,4v43.79H596.59V61.76h12.17l1.74,4.4C617,64.36,623.41,62,630,61s13.91-1.73,17.56,4.84c8.92-1.82,17.18-4.2,25.6-5C682,59.89,685.75,63.36,688,72a6.39,6.39,0,0,0,.89,1.55Z"/><path class="cls-1" d="M492.65,93.43c.3-4.78.19-9.62,1-14.32C495.3,69,501.69,62.63,511.74,61.5a75.34,75.34,0,0,1,22.12,1c8.43,1.59,13.77,8,14.54,16.23a144.09,144.09,0,0,1-.07,30.16C547,119.68,538.55,126,526,126.91a54.53,54.53,0,0,1-14.37-.81c-12-2.31-18.54-10.49-18.72-22.72-.05-3.31,0-6.62,0-9.93Zm40.11.4c0-3.13.13-6.28,0-9.41-.35-6.88-3.63-9.79-10.93-9.93-8.28-.15-11.84,2.39-12.24,9.52a182.72,182.72,0,0,0,0,19.3c.34,7,4.31,10,12.11,9.84,7.28-.13,10.79-3.38,11.07-10.41C532.86,99.78,532.76,96.8,532.76,93.83Z"/><path class="cls-1" d="M304.68,100.08H269.4c-1.25,10,1.48,13.18,11,13.27a79.28,79.28,0,0,0,10.46-.38c3.37-.42,6.67-1.42,10.24-2.22.88,4.19,1.65,7.87,2.56,12.18-13.34,4.33-26.8,6.86-40.34.85-6.76-3-10.09-9.07-10.39-16.28-.36-8.92-.29-17.87,0-26.8.29-10.15,7.27-17.81,18.35-19.56a51.19,51.19,0,0,1,15.87,0C298.28,63,303.57,69.8,304.61,83,305,88.42,304.68,93.89,304.68,100.08ZM288.91,86.41c-.07-4.42.72-8.89-3.75-11.24a11.88,11.88,0,0,0-12.72.65c-3.61,2.49-4,6.41-3.25,10.59Z"/><path class="cls-1" d="M145.51,28.52V80.71l-45.38,26.05V54.54Z"/><path class="cls-1" d="M440.66,125.42H427.34l-1.61-3.32c-.54.17-1,.32-1.38.44-5.36,1.52-10.64,4-16.07,4.38-11.19.84-17.65-5.53-18.38-16.75-.92-14.11,4.81-20.21,19-20.26,4.82,0,9.64,0,14.37,0,.27-.43.58-.7.59-1,.81-13.52-1-15.36-14.55-14.72-5,.24-9.91.87-15.21,1.36-.65-3.73-1.31-7.57-2.09-12.07,2.72-.63,5.5-1.63,8.35-1.86a191.72,191.72,0,0,1,19.89-.91c12.86.33,19.84,6.83,20.26,19.57C441,95.16,440.66,110.05,440.66,125.42Zm-16.91-23.64H411.68c-4.09,0-5.9,2-5.88,6.13,0,4.63,2.82,6.35,6.62,6s7.78-1.72,11.33-2.56Z"/><path class="cls-1" d="M44.7,77.65,0,52V0L44.7,25.6Z"/><path class="cls-1" d="M50.11,81V28.89L94.75,54.48v52Z"/><path class="cls-1" d="M94.79,112v52L50.1,138.39v-52Z"/><path class="cls-1" d="M265.88,53.35H242v72H224.82V53.47h-24V38.69h65.08Z"/><path class="cls-1" d="M473.92,49.13V61.38h15.93c-.33,4.6-.63,8.65-1,13.24H473.71v50.71H457.1V75h-10V61.71h9.5c1-9.47-1.8-20.18,8.57-25.89,8.35-4.6,17.28-3,26.53-.93-.62,4.26-1.21,8.26-1.83,12.49C484.44,47.3,478.9,44.6,473.92,49.13Z"/><path class="cls-1" d="M353.59,61.81h13.85c.29,2.07.55,4,.87,6.24l16.9-8.22c.59,5.66,1.08,10.45,1.57,15.22l-16.95,9.41v40.85H353.59Z"/><path class="cls-1" d="M557.24,61.68H571c.37,2.13.74,4.23,1.13,6.44l16.57-8.2c.75,5.46,1.39,10.17,2.05,15l-17.05,9.54v40.74H557.24Z"/><path class="cls-1" d="M314.13,61.69H327.8c.48,2.08.95,4.14,1.44,6.3l16.6-8.17c.63,5.55,1.17,10.33,1.72,15.18l-16.83,9.41v40.92h-16.6Z"/></g></g></g></svg>