<svg xmlns="http://www.w3.org/2000/svg" width="200.38" height="57.91" viewBox="0 0 200.38 57.91"><defs><style>.cls-1{fill:#dd1731;}.cls-2{fill:#090e14;}</style></defs><title>Asset 1</title><g id="Layer_2" data-name="Layer 2"><g id="Layer_1-2" data-name="Layer 1"><path id="F" class="cls-1" d="M60.5,24.72H80.15V28H64.27v7.5H79.41v3.27H64.27V50.09H60.5Z"/><path id="i" class="cls-1" d="M84,31.48h3.55V50.09H84Zm0-7h3.55v3.91H84Z"/><path id="r" class="cls-1" d="M93.62,31.48h3.55v3.41h.07a7.17,7.17,0,0,1,6.4-4.05,7,7,0,0,1,2,.21v3.84a9.85,9.85,0,0,0-2.52-.35c-3.52,0-6,2.06-6,6.11V50.1H93.62Z"/><path id="e1" class="cls-1" d="M123.93,39.08c-.53-3.38-3.16-5.26-6.5-5.26s-6.22,1.92-6.75,5.26Zm-13.36,2.77c.29,3.84,3.7,5.9,6.86,5.9,2,0,4.8-.67,6-3.31h3.77a10.05,10.05,0,0,1-9.59,6.29c-7.25,0-10.8-4.58-10.8-9.95s3.55-10,10.8-10c4.9,0,10.09,2.84,10.09,10.55v.46Z"/><path id="E" class="cls-2" d="M132.06,24.72h20.4V28H135.83v7.36H152v3.27H135.83v8.21h17v3.27H132.06Z"/><path id="y" class="cls-2" d="M171.36,31.48h4L165.6,53.29c-1.78,3.94-3.16,4.62-6.47,4.62-.89,0-1.78-.07-2.7-.14v-3c.64,0,1.21.14,2.06.14,2.2,0,2.74-.46,3.87-2.84l.82-1.71-8.6-18.9h4.09l6.4,14.71,6.29-14.71Z"/><path id="e2" class="cls-2" d="M193.18,39.08c-.53-3.38-3.16-5.26-6.5-5.26s-6.22,1.92-6.75,5.26Zm-13.36,2.77c.29,3.84,3.7,5.9,6.86,5.9,2,0,4.8-.67,6-3.31h3.77a10.05,10.05,0,0,1-9.59,6.29c-7.25,0-10.8-4.58-10.8-9.95s3.55-10,10.8-10c4.9,0,10.09,2.84,10.09,10.55v.46H179.82Z"/><path id="flame3" class="cls-1" d="M31.44,0c1.27,4.55,5.65,6.75,3.68,12.14-1.06,2.88-4.71,5.67-2.21,9.56-.7.36-1.5-1.22-1.65-2-.65-3.44,2.22-7.77,2.21-11.4,0-3.38-2.44-4.92-2-8.27"/><path id="eye" class="cls-2" d="M39.35,31.07c-2.6-2.06-8.34-2.19-10.85,0-5.73,5-.62,15.43,9.19,13.24-8,4.75-19.23-2.12-16-12.87A80.51,80.51,0,0,0,6.07,37.51q8.59,10.72,26.29,12.32C17.14,51,9.41,43,0,37.69c8-4.08,17.9-12.34,30.34-11.4,3.61.27,7.77,1.67,9,4.78"/><path id="flame1" class="cls-1" d="M37.45,19.18a6.57,6.57,0,0,1-2.76,2.39c1.59-1.9.25-8.33,3.49-9.19-.54,6.47,4.68,8.67,8.27,12.5,2.92,3.11,6.06,6.7,5.33,13.42-.76,7.1-8,10-14.15,11.25,4.94-2.25,10.95-4,11.76-10,1.42-10.28-8.21-14.6-12-20.41"/><path id="flame2" class="cls-1" d="M42.63,29.19c3,3,4.5,8.88,0,12.09a6.86,6.86,0,0,1-8.4-.45,4,4,0,0,1-1.07-3.56c.42-2,2.93-4.15,4.61-2.47-1.53-1.26-4.65,2.66-1.93,4.17a4.47,4.47,0,0,0,1.13.28c4,.1,7.55-4.24,4.62-9a15.8,15.8,0,0,0-1.46-2.06S39,26.73,39.61,27a7.86,7.86,0,0,1,1.09.59,23.29,23.29,0,0,1,1.93,1.56"/><path id="T" class="cls-2" d="M195.37,29.14v-.29h2.1v.29h-.87v2.33h-.35V29.14h-.87Z"/><path id="M" class="cls-2" d="M198.25,28.85l.83,2.2.83-2.2h.48v2.62h-.33V29.29h0l-.82,2.18h-.3l-.82-2.18h0v2.18h-.33V28.85Z"/></g></g></svg>
