<svg xmlns="http://www.w3.org/2000/svg" viewBox="0 0 540 67.04" width="540" height="67.04"><defs><style>.cls-1{fill:#0052cc;}</style></defs><title>Asset 1</title><g id="Layer_2" data-name="Layer 2"><g id="Layer_1-2" data-name="Layer 1"><g id="Layer_2-2" data-name="Layer 2"><g id="Blue"><path class="cls-1" d="M19.64,30.6a1.88,1.88,0,0,0-3.2.35L.21,63.4a1.94,1.94,0,0,0,1.74,2.81h22.6a1.87,1.87,0,0,0,1.74-1.07C31.15,55,28.2,39.74,19.64,30.6Z"/><path class="cls-1" d="M31.55,1A42.81,42.81,0,0,0,29,43.34l11,21.8a1.94,1.94,0,0,0,1.74,1.07h22.6A1.94,1.94,0,0,0,66,63.4L34.85,1a1.83,1.83,0,0,0-3.3,0Z"/><path class="cls-1" d="M296.64,27.1c0,8,3.73,14.42,18.31,17.23,8.7,1.82,10.52,3.23,10.52,6.13s-1.82,4.64-8,4.64a44.89,44.89,0,0,1-21.13-5.72v13.1c4.39,2.15,10.19,4.56,21,4.56,15.25,0,21.3-6.79,21.3-16.9m0,0c0-9.53-5-14-19.31-17.07-7.87-1.74-9.78-3.48-9.78-6,0-3.15,2.82-4.47,8-4.47,6.3,0,12.51,1.91,18.4,4.56V14.67a41.58,41.58,0,0,0-18-3.73c-14.09,0-21.38,6.13-21.38,16.16"/><polygon class="cls-1" points="492.52 11.77 492.52 66.21 504.12 66.21 504.12 24.7 509.01 35.72 525.42 66.21 540 66.21 540 11.77 528.4 11.77 528.4 46.91 524.01 36.71 510.83 11.77 492.52 11.77"/><rect class="cls-1" x="406.06" y="11.77" width="12.68" height="54.44"/><path class="cls-1" d="M391.43,50.14c0-9.53-5-14-19.31-17.07-7.87-1.74-9.78-3.48-9.78-6,0-3.15,2.82-4.47,8-4.47,6.3,0,12.51,1.91,18.4,4.56V14.67a41.58,41.58,0,0,0-18-3.73c-14.09,0-21.38,6.13-21.38,16.16,0,8,3.73,14.42,18.31,17.23,8.7,1.82,10.52,3.23,10.52,6.13s-1.82,4.64-8,4.64a44.89,44.89,0,0,1-21.13-5.72v13.1c4.39,2.15,10.19,4.56,21,4.56,15.25,0,21.3-6.79,21.3-16.9"/><polygon class="cls-1" points="198.16 11.77 198.16 66.21 224.22 66.21 228.32 54.45 210.92 54.45 210.92 11.77 198.16 11.77"/><polygon class="cls-1" points="146.67 11.77 146.67 23.54 160.76 23.54 160.76 66.21 173.52 66.21 173.52 23.54 188.6 23.54 188.6 11.77 146.67 11.77"/><path class="cls-1" d="M128.17,11.77H111.45l-19,54.44H107L109.66,57A36,36,0,0,0,130,57l2.69,9.17h14.5Zm-8.36,35.46a24.76,24.76,0,0,1-7-1l7-23.77,7,23.77A24.76,24.76,0,0,1,119.81,47.23Z"/><path class="cls-1" d="M269.14,11.77H252.42l-19,54.44h14.5L250.63,57a36,36,0,0,0,20.3,0l2.69,9.17h14.5Zm-8.36,35.46a24.76,24.76,0,0,1-7-1l7-23.77,7,23.77a24.76,24.76,0,0,1-7,1Z"/><path class="cls-1" d="M464.42,11.77H447.7l-19,54.44h14.5L445.91,57a36,36,0,0,0,20.3,0l2.69,9.17h14.5Zm-8.36,35.46a24.76,24.76,0,0,1-7-1l7-23.77,7,23.77a24.76,24.76,0,0,1-7,1Z"/></g></g></g></g></svg>