<svg id="Layer_1" data-name="Layer 1" xmlns="http://www.w3.org/2000/svg" viewBox="0 0 2325 585"><defs><style>.cls-1,.cls-2{stroke:#000;stroke-miterlimit:10;}.cls-1{stroke-width:7px;}.cls-2{stroke-width:6px;}.cls-3{fill:none;}</style></defs><path class="cls-1" d="M1718.39,351.11a58.78,58.78,0,1,1,58.78-58.78A58.85,58.85,0,0,1,1718.39,351.11Zm0-107.58a48.8,48.8,0,1,0,48.8,48.8A48.85,48.85,0,0,0,1718.39,243.53Z"/><path class="cls-1" d="M973.82,349.18l10,0V303.28h33.51l35.49,46,12.63,0-35.59-46.14a33.53,33.53,0,0,0-2.55-67H973.82Zm10-103h43.49a23.55,23.55,0,1,1,0,47.09H983.81Z"/><polygon class="cls-1" points="1358.99 293.36 1318.2 236.38 1305.92 236.38 1353.99 303.54 1353.99 349.31 1363.98 349.31 1363.98 303.54 1412.06 236.38 1399.78 236.38 1358.99 293.36"/><polygon class="cls-1" points="1576.33 332.87 1500.33 236.1 1491.34 236.1 1491.34 349.31 1501.33 349.31 1501.33 253.54 1576.54 349.31 1586.31 349.31 1586.31 236.1 1576.33 236.1 1576.33 332.87"/><polygon class="cls-1" points="1160.7 298.13 1223.52 298.13 1223.52 288.14 1150.71 288.14 1150.71 349.31 1234.62 349.31 1234.62 339.32 1160.7 339.32 1160.7 298.13"/><rect class="cls-1" x="1150.72" y="236.1" width="83.9" height="9.99"/><rect class="cls-1" x="1850.47" y="236.1" width="9.99" height="113.21"/><path class="cls-1" d="M841.1,288.14v10h36.46V328.9a48.81,48.81,0,1,1,.59-71.46l6.68-7.42a58.77,58.77,0,1,0-7.27,91.56,59.49,59.49,0,0,0,10-8.54v-44.9Z"/><path class="cls-1" d="M1992.78,287.44c-25-5.18-28.41-14.91-28.41-24.66,0-11.81,16.17-19.06,27.77-19.06,15.7,0,26.5,9.16,30.57,13.29l6.39-7.76c-5.67-5.56-18.4-15.52-37-15.52-15.83,0-37.75,10.1-37.75,29,0,18.35,11.55,29.29,36.36,34.44,26.25,5.44,31.39,12.07,31.39,21.68,0,14.31-15.28,21.8-30.37,21.8-15.72,0-30.26-10.75-35.88-15.47l-7.17,7c6,5.23,23.25,18.42,43,18.42,20,0,40.35-10.91,40.35-31.78C2032.12,299.56,2016.4,292.34,1992.78,287.44Z"/><polygon class="cls-1" points="2126.39 298.13 2189.2 298.13 2189.2 288.14 2116.4 288.14 2116.4 349.31 2200.31 349.31 2200.31 339.32 2126.39 339.32 2126.39 298.13"/><rect class="cls-1" x="2116.4" y="236.1" width="83.9" height="9.99"/><path class="cls-2" d="M379.45,545.23c-139.3,0-252.62-113.33-252.62-252.62a253.29,253.29,0,0,1,5-50.36l-12.28-2.5a267.4,267.4,0,0,0-5.25,52.86,265.1,265.1,0,0,0,265.11,265.1,268.93,268.93,0,0,0,28.75-1.55l-1.36-12.42A252.84,252.84,0,0,1,379.45,545.23Z"/><path class="cls-2" d="M379.45,40a251.36,251.36,0,0,1,91.42,17.13l4.56-11.77a265.68,265.68,0,0,0-281.57,58l8.82,9A251.75,251.75,0,0,1,379.45,40Z"/><path class="cls-2" d="M379.45,82.63a208.67,208.67,0,0,1,107.17,29.48L493,101.38A221.15,221.15,0,0,0,379.45,70.15c-116,0-211.48,89.2-221.56,202.6l12.43,1.11C179.83,166.83,270,82.63,379.45,82.63Z"/><path class="cls-2" d="M379.45,502.58C275,502.58,188.18,426,172.14,326l-12.33,2c17,105.92,109,187.1,219.64,187.1A221.18,221.18,0,0,0,476,493l-5.42-11.25A208.71,208.71,0,0,1,379.45,502.58Z"/><path class="cls-2" d="M546.62,299.73c-3.75,89-77.29,160.2-167.17,160.2a166.38,166.38,0,0,1-66.4-13.75l-5,11.46a178.82,178.82,0,0,0,71.36,14.78c96.76,0,175.9-76.83,179.66-172.69Z"/><path class="cls-2" d="M379.45,125.28V112.8c-99.15,0-179.81,80.66-179.81,179.81a178.76,178.76,0,0,0,16.22,74.6L227.22,362a166.31,166.31,0,0,1-15.1-69.42C212.12,200.34,287.19,125.28,379.45,125.28Z"/><path class="cls-2" d="M379.45,167.93a124.55,124.55,0,0,1,98.77,48.68h15.36a137.17,137.17,0,0,0-114.13-61.16c-75.63,0-137.16,61.53-137.16,137.16s61.53,137.16,137.16,137.16c73.24,0,133.26-57.71,137-130H423.15v12.48h79.43c-9.43,59.47-61.05,105.08-123.13,105.08a124.68,124.68,0,1,1,0-249.36Z"/><circle class="cls-3" cx="379.1" cy="292.61" r="265.11"/></svg>