<svg xmlns="http://www.w3.org/2000/svg" viewBox="0 0 1427.99 203.17"><defs><style>.cls-1{fill:#fff;}</style></defs><title>Asset 3</title><g id="Layer_2" data-name="Layer 2"><g id="Layer_1-2" data-name="Layer 1"><g id="Pk7nW9.tif"><path class="cls-1" d="M1246.48,0c1.08,0,2.16.1,3.24.1h117.23c14.48,0,27.58,4.26,38.82,13.39a59,59,0,0,1,21.17,35.93,68.23,68.23,0,0,1,1,12.67q0,40,0,80c0,14.47-4.26,27.59-13.42,38.81a58.72,58.72,0,0,1-36,21.16,70.68,70.68,0,0,1-12.67,1H1022.47c-1.16,0-2.33.07-3.49.1s-2.16-.06-3.25-.06q-476.47,0-952.94,0c-15,0-28.63-3.85-40.36-13.26A58.58,58.58,0,0,1,2.53,160,62.87,62.87,0,0,1,0,142.33q0-40.75,0-81.49C0,46.45,4.34,33.43,13.43,22.3a58.66,58.66,0,0,1,36-21.16A72.13,72.13,0,0,1,62.31.1l1180.17,0C1243.82.06,1245.15,0,1246.48,0ZM713.24,10.11v0H460.5q-199.49,0-399,0c-12.07,0-23,3.32-32.46,10.85C16.46,31,10.13,44.28,10,60.35q-.25,41.25,0,82.49c.13,17.38,7.51,31.3,21.68,41.39,9,6.37,19.16,8.88,30.1,8.88q375.1,0,750.2,0l554.21,0c7.23,0,14.34-.9,20.93-3.92,19.82-9.09,30.4-24.67,30.72-46.46.4-27.41.22-54.83.05-82.24-.1-16.7-7-30.32-20.21-40.45-9.22-7-19.95-9.89-31.52-9.89Q1039.71,10.12,713.24,10.11Z"/><path class="cls-1" d="M1036.63,96.09c-1.51,5.9-2.85,11.11-4.17,16.32q-4.17,16.43-8.32,32.86a2.36,2.36,0,0,1-2.63,2.07c-3-.05-6,0-9,0-1.45,0-2.15-.54-2.58-2.05Q1000.56,112.47,991,79.7c-.48-1.64-.06-2.13,1.53-2.11,3.33,0,6.67.06,10,0,1.47,0,2,.64,2.35,2q5.6,23.26,11.29,46.5a5.37,5.37,0,0,0,1.14,2.74c1.7-6.89,3.35-13.6,5-20.31,2.41-9.75,4.85-19.5,7.24-29.26a1.84,1.84,0,0,1,2.09-1.63c3.5,0,7,.06,10.5,0a2.14,2.14,0,0,1,2.4,2q5.72,23.11,11.49,46.21a3.75,3.75,0,0,0,1.05,2.11c1.4-2.38,1.64-5.05,2.3-7.55q5.21-19.62,10.15-39.32c.65-2.61,1.77-3.78,4.56-3.44a36.67,36.67,0,0,0,6.49,0c2.08-.12,2.71.57,2.09,2.62-1.78,5.89-3.45,11.8-5.17,17.71-4.18,14.36-8.27,28.75-12.56,43.08-2.25,7.51-.34,6.36-8.09,6.34-8.2,0-6.32,1.36-8.47-6.65C1044.45,126.07,1040.67,111.45,1036.63,96.09Z"/><path class="cls-1" d="M936.54,141.32c0,7.4,0,14.37,0,21.34,0,3.25-.07,6.5,0,9.74.06,1.81-.59,2.61-2.42,2.57-2.5-.06-5-.08-7.5,0-2,.07-2.82-.65-2.77-2.75.12-4.83,0-9.66,0-14.49q0-38.11,0-76.21c0-3.76,0-3.76,3.89-3.77.25,0,.5,0,.75,0,2.24.1,4.82-.76,6.64.35,2,1.25.32,4,1,6,.08.23.2.45.3.67.93,0,1.28-.75,1.75-1.25C950.37,70.76,973.65,73.84,982,92c4.3,9.38,4,19.27,2.88,29.17a38.28,38.28,0,0,1-5.08,15.26c-8.82,15.09-31.31,18.12-42.18,5.62A7.65,7.65,0,0,0,936.54,141.32Zm36-28.81a40.75,40.75,0,0,0-1.5-12c-1.8-7.12-7.6-12.73-13.94-13.3-9-.81-15,2.61-18.23,10.68s-3.49,16.21-2.15,24.54a20.34,20.34,0,0,0,4.81,10.81c7.53,8.18,22.16,7.46,28-4.88A34.1,34.1,0,0,0,972.56,112.51Z"/><path class="cls-1" d="M606.42,140.43c0,1.95-.08,3.26,0,4.56.14,1.78-.71,2.36-2.36,2.33-2.42-.05-4.83-.06-7.25,0-1.71,0-2.34-.65-2.31-2.38.08-4.91,0-9.83,0-14.75q0-37.49,0-75c0-3.55,0-3.55,3.59-3.55,2,0,4,.11,6,0s2.61.57,2.59,2.55c-.08,8.75,0,17.5,0,26.25,0,1.13-.49,2.71.54,3.25s1.67-1.05,2.44-1.71c6.07-5.13,12.93-6.67,20.84-6,13.07,1.08,23,11.86,24.72,24.31,1.47,10.53,1.58,20.95-2.78,30.88-3.53,8-8.72,14.54-17.66,17.1-10.22,2.93-19.42,1.72-26.91-6.53C607.64,141.42,607.29,141.18,606.42,140.43Zm-.09-27.9c-.08,5.52.56,11.35,3.31,16.76,3.17,6.23,8.59,8.95,15.26,9,7.15.07,12.47-3.27,15.23-10a40.3,40.3,0,0,0,.94-29.44c-2.2-6.32-6.3-10.73-13.06-11.59a17.82,17.82,0,0,0-17.75,7.86C606.7,100.2,606.28,106.11,606.34,112.53Z"/><path class="cls-1" d="M1284.87,140.59c-1-.16-1.29.43-1.63.86-8.28,10.5-27.82,11.65-38.36.66A35.9,35.9,0,0,1,1235,121.6c-1.68-12,.16-23.32,6.87-33.65,7.82-12,23.69-14.65,35-9.08a21.32,21.32,0,0,1,5.2,3.84c.61.58,1.08,1.89,2.05,1.41s.4-1.68.4-2.55c0-7.25,0-14.5,0-21.75,0-2.08,0-4.17,0-6.25,0-1.37.48-2,1.89-2,2.75,0,5.5.06,8.25,0,1.53,0,2.11.67,2,2.12,0,.58,0,1.17,0,1.75q0,44.12,0,88.23c0,3.63,0,3.64-3.75,3.65-1.75,0-3.5-.07-5.25,0-2,.1-3-.6-2.8-2.73C1285,143.33,1284.87,142,1284.87,140.59ZM1248,113a33,33,0,0,0,2.87,15.36c2.78,6.57,7.85,9.9,14.88,10.24,7.42.36,12.72-3.24,15.71-9.71,4.43-9.6,4.58-19.63,1.2-29.6-2.51-7.4-8.73-12.07-15.82-11.89S1253.44,91.18,1250.3,99A32.33,32.33,0,0,0,1248,113Z"/><path class="cls-1" d="M336.44,114.33c0,7.84,0,14.17,0,20.5,0,3.08,1.34,4.17,4.41,3.65,2.86-.49,3-.4,3,2.45,0,.67,0,1.33,0,2-.09,5.57,1,4.71-5.29,5.84-4.24.76-8.5.31-11.65-3.41a9.21,9.21,0,0,1-2.08-4.19c-.35-1.73-.94-1.58-2-.54a32.25,32.25,0,0,1-25,9c-14-.9-22.3-12.89-19.69-25.63,1.84-9,7.9-13.54,16-15.93,5.6-1.64,11.46-1.85,17.23-2.58,2.56-.32,5.14-.52,7.66-1,3.86-.76,5.88-5,4.7-9.55a8.8,8.8,0,0,0-5.56-6.56,25.39,25.39,0,0,0-16.82-.69c-4.69,1.46-7.11,4.77-7.8,9.39-.29,1.93-1.09,2.54-2.93,2.45a60.54,60.54,0,0,0-6.74,0c-1.87.11-2.49-.57-2.42-2.42.31-8.77,4.17-15.15,12.47-18.39a40.92,40.92,0,0,1,33.16,1c5.55,2.56,8.42,7.17,9,13.38C336.8,100.7,336.12,108.27,336.44,114.33Zm-12.85,4.77c0-1.51,0-2.68,0-3.84.07-1.58-.12-2.3-2.07-1.54a51.44,51.44,0,0,1-13.88,2.76,36.49,36.49,0,0,0-9.94,2.16c-4.77,1.86-6.9,5.12-6.76,10.43.12,4.25,2.76,7.69,7.36,9,6.91,1.92,13.18,0,18.88-3.9C322.61,130.46,323.82,124.87,323.59,119.09Z"/><path class="cls-1" d="M454.66,116.56c-7.5,0-15,0-22.49,0-2,0-2.58.58-2.38,2.63a32.86,32.86,0,0,0,2.14,8.93c3.64,9.2,11.26,11.58,19.84,10.36,7-1,11.75-5.2,14.21-11.81a2.47,2.47,0,0,1,2.79-1.83c2.42,0,4.83,0,7.25,0,2.92,0,3.39.47,2.49,3.18-2.73,8.21-7.33,15-15.49,18.62-14.78,6.51-32.68,3.73-41.89-11.49a35,35,0,0,1-4.68-14.6c-.88-8.12-.54-16.12,2.53-23.77,4.35-10.86,12-18.25,23.71-20.28,14.53-2.52,29.61,4,34.72,18.3,2.34,6.55,2.36,13.38,2.48,20.2,0,1.81-1.33,1.59-2.49,1.59Zm-6.35-10.29h14c4.74,0,4.78,0,3.79-4.68s-3-9.33-7.31-11.75c-12.42-7-26.31-.58-28.75,14.46-.23,1.41.11,2.06,1.79,2C437.32,106.2,442.81,106.27,448.31,106.27Z"/><path class="cls-1" d="M776.49,116.57c-7.5,0-15,0-22.49,0-1.84,0-2.48.48-2.28,2.45.56,5.41,2,10.37,5.54,14.68,5.93,7.29,24.47,7.9,30.06-5.79,1.07-2.61,2.41-3.38,5-3.13,1.9.18,3.83,0,5.74,0,2.81,0,3.31.55,2.42,3.27a31.29,31.29,0,0,1-9.83,15c-5.79,4.71-12.53,6.43-19.91,6.67-9.29.31-17.14-2.62-23.56-9.31-5.35-5.56-7.89-12.34-8.76-19.93-1-9.1-.51-18,3.61-26.28,5.81-11.7,15.1-18.24,28.55-18.21,11.08,0,20.08,4.11,26.28,13.49,3,4.6,4.19,9.92,4.66,15.35.26,3,.21,6,.42,9,.14,2-.56,2.78-2.68,2.75C791.65,116.51,784.07,116.57,776.49,116.57Zm-6-10.32h13.72c4.69,0,4.75,0,3.79-4.65s-3-9.32-7.29-11.74c-12.48-7-26.34-.49-28.72,14.39-.22,1.39.09,2.08,1.79,2C759.36,106.18,764.93,106.25,770.5,106.25Z"/><path class="cls-1" d="M703.53,116.57c-7.5,0-15,.06-22.5,0-2.15,0-2.72.66-2.48,2.77a28.16,28.16,0,0,0,4.75,13.48c6,8.53,24.9,8.72,30.52-4.28,1.36-3.14,3-4.13,6.1-3.73a43.06,43.06,0,0,0,5,0c2.67,0,3.21.58,2.39,3.12A31.39,31.39,0,0,1,717.54,143c-5.77,4.75-12.51,6.5-19.89,6.77-9.39.34-17.31-2.62-23.79-9.4-5.35-5.59-7.87-12.41-8.71-20-1-8.81-.46-17.47,3.4-25.59C675.63,79.92,687.84,74.13,703,76.4c12.14,1.82,22.2,9.42,24.7,24.25.77,4.57.64,9.12.95,13.67.12,1.78-.65,2.29-2.35,2.27C718.69,116.53,711.11,116.57,703.53,116.57ZM697,106.25h14.22c4.51,0,4.61,0,3.65-4.47-1.06-4.92-3.11-9.44-7.6-12.1a19,19,0,0,0-28.47,14.61c-.14,1.45.06,2,1.76,2C686,106.18,691.53,106.26,697,106.25Z"/><path class="cls-1" d="M1200.94,116.59h-22c-3,0-3,0-2.73,3.13a26.4,26.4,0,0,0,4.62,13c6,8.62,25.06,8.74,30.62-4.44,1.24-2.94,2.77-3.9,5.72-3.55a48.2,48.2,0,0,0,5.24,0c2.74,0,3.3.66,2.42,3.33a31.49,31.49,0,0,1-9.66,14.88c-5.82,4.81-12.64,6.58-20.11,6.83-9.4.32-17.29-2.7-23.75-9.48-5.33-5.59-7.82-12.43-8.66-20-1-9.35-.37-18.47,4.09-26.91,6-11.3,15.21-17.49,28.31-17.38,11.09.09,20,4.23,26.22,13.62,2.85,4.33,3.94,9.34,4.53,14.39.38,3.3.22,6.65.42,10,.11,1.92-.55,2.64-2.56,2.61C1216.1,116.53,1208.52,116.59,1200.94,116.59Zm-6.37-10.37h14c4.72,0,4.82,0,3.81-4.57-1.07-4.84-3-9.46-7.53-11.9-12.53-6.81-26.06-.18-28.44,14.38-.25,1.55.14,2.18,1.91,2.14C1183.74,106.15,1189.16,106.22,1194.58,106.22Z"/><path class="cls-1" d="M220.29,84.73c3.51-2.8,6.35-5.86,10.38-7.06,9.46-2.83,18.7-3.11,27,3.4,3.71,2.92,5.45,7.06,6.34,11.57a55.92,55.92,0,0,1,1,11.17c0,13.41-.08,26.82,0,40.23,0,2.48-.6,3.5-3.17,3.29a44.86,44.86,0,0,0-6.74,0c-2.33.16-3.15-.54-3.12-3,.13-12.33.1-24.65,0-37,0-3.32-.22-6.65-.53-10-.56-5.87-4.77-9.73-11.07-10.17-8.18-.57-18.29,4.36-19.53,15.86-1,9.23-.35,18.45-.58,27.68-.12,4.74-.08,9.5,0,14.24,0,1.73-.61,2.4-2.32,2.35-2.58-.08-5.17-.12-7.74,0-2.14.11-2.66-.82-2.65-2.81.06-14.58,0-29.15,0-43.73q0-22.86,0-45.73c0-3.37,0-3.38,3.27-3.38,2.33,0,4.67.11,7,0,1.93-.12,2.42.7,2.41,2.48-.05,9.25,0,18.49,0,27.74Q220.29,83.29,220.29,84.73Z"/><path class="cls-1" d="M815,112.33c0-10.58.07-21.16-.06-31.74,0-2.47.77-3.21,3.13-3a61.36,61.36,0,0,0,7,0c1.52-.05,2.12.56,2,2.05-.07,1.25,0,2.5,0,3.75,0,.58-.09,1.33.52,1.56s1-.4,1.43-.81A24.58,24.58,0,0,1,839,77.65c7.8-2.56,15.62-2.64,23,1.14,5.76,2.94,8.41,8.24,9.5,14.45a77.36,77.36,0,0,1,.82,13.44c0,12.5-.05,25,0,37.49,0,2.35-.6,3.36-3.07,3.19a60.77,60.77,0,0,0-7.24,0c-2,.1-2.71-.59-2.7-2.7.09-13.75,0-27.5.05-41.24A25.2,25.2,0,0,0,858.34,96c-1.76-5.77-5.29-8.54-11.33-8.71-10.54-.29-17.91,7.45-18.83,15.42a112.73,112.73,0,0,0-.6,12.45c0,9.75-.07,19.5,0,29.25,0,2.14-.55,3-2.77,2.91a67.65,67.65,0,0,0-7.25,0c-2.09.1-2.69-.73-2.68-2.77C815,133.83,815,123.08,815,112.33Z"/><path class="cls-1" d="M1092.94,112.3c0-10.58.05-21.16,0-31.74,0-2.19.45-3.23,2.89-3a60.71,60.71,0,0,0,7.24,0c1.52,0,2.13.56,2,2.05-.07,1.25,0,2.5,0,3.75,0,.57-.14,1.3.46,1.58s1-.39,1.4-.78a24.59,24.59,0,0,1,13.49-7.56c11.43-2,23.21.08,27.65,11.46a39,39,0,0,1,2.2,14.22c0,14.08,0,28.16.06,42.23,0,2.26-.83,2.92-2.91,2.83a62.47,62.47,0,0,0-7,0c-2.33.16-3.16-.57-3.14-3.05.12-13.66.06-27.32.05-41a27,27,0,0,0-1.4-8.58c-1.52-4.54-5.59-7.3-11-7.43-10.61-.25-17.93,7.65-18.75,15.51-.34,3.24-.55,6.46-.57,9.7-.06,10.66-.09,21.33,0,32,0,2.25-.75,2.95-2.86,2.84a58.26,58.26,0,0,0-6.74,0c-2.35.15-3.17-.63-3.14-3.1C1093,133.62,1092.94,123,1092.94,112.3Z"/><path class="cls-1" d="M379.08,131q2.5-7.27,5-14.53,6.29-18.39,12.55-36.78a2.67,2.67,0,0,1,3.09-2.13c3,.15,6,.11,9,0,1.93-.06,2.54.37,1.76,2.41-5.4,14.13-10.71,28.29-16.05,42.44-2.81,7.46-5.66,14.92-8.4,22.41-.63,1.72-1.5,2.56-3.43,2.47-3-.14-6-.06-9,0a2.37,2.37,0,0,1-2.53-1.86q-11.83-32.3-23.76-64.55c-1.2-3.25-1.19-3.25,2.35-3.26,2.83,0,5.67.12,8.49,0a2.91,2.91,0,0,1,3.42,2.35q5.68,17.68,11.5,35.32c1.72,5.26,3.49,10.51,5.24,15.76Z"/><path class="cls-1" d="M1342.41,123.28c-2-.26-4.85,1-5.91-.66-1.37-2.18-.52-5.18-.19-7.8,1-8.21,5.66-14.38,11.34-20,2.72-2.69,5.67-5.17,8-8.23,5.45-7.16,4.2-17.87-2.59-22.47-9.39-6.36-23.21-.81-25.47,10.22a23.61,23.61,0,0,0-.76,5.92c.09,1.77-.8,2.31-2.45,2.27-2.66-.08-5.33-.09-8,0-1.76.06-2.35-.72-2.33-2.39.12-11.4,6.34-24.24,19.1-27.83,11.53-3.24,22.57-2.51,32,6.08,8.48,7.72,10.14,24.89,2.24,33-3.25,3.33-6.26,6.91-9.68,10.09-5.67,5.26-9.52,11.32-9,19.42.11,1.82-.73,2.57-2.56,2.42C1344.91,123.2,1343.66,123.28,1342.41,123.28Z"/><path class="cls-1" d="M542.35,112.79c0,10.57-.06,21.14.05,31.71,0,2.22-.68,3-2.83,2.83a64,64,0,0,0-7.24,0c-2.2.12-2.83-.73-2.82-2.9.09-14,0-28,0-41.95,0-7.32.06-14.65,0-22,0-2.09.73-2.83,2.75-2.75,2.41.1,4.83.11,7.24,0,2.1-.1,2.91.56,2.88,2.82C542.29,91.32,542.35,102.06,542.35,112.79Z"/><path class="cls-1" d="M177.53,116.55c-4.74,0-9.49-.07-14.23,0-2,0-2.71-.67-2.65-2.6.08-2.58.07-5.16,0-7.74,0-1.64.52-2.48,2.27-2.48q14.48,0,29,0c1.66,0,2.42.65,2.36,2.38q-.13,4,0,8c.05,1.81-.62,2.49-2.48,2.45C187,116.48,182.27,116.55,177.53,116.55Z"/><path class="cls-1" d="M133.54,116.55c-4.66,0-9.32-.09-14,0-2.13.06-2.8-.76-2.71-2.77.11-2.57.08-5.16,0-7.74,0-1.57.55-2.31,2.16-2.3q14.6,0,29.21,0c1.56,0,2.24.68,2.2,2.28-.07,2.74-.08,5.49,0,8.24.05,1.77-.74,2.3-2.41,2.27C143.2,116.5,138.37,116.55,133.54,116.55Z"/><path class="cls-1" d="M66.37,51.86c6.21,0,6.41,0,6,6.21-.59,10-1.32,19.9-1.57,29.87,0,1.85-.72,2.77-2.88,2.74-6.07-.09-6,0-6.35-6.14-.5-9.63-1.07-19.25-1.57-28.88-.19-3.77-.14-3.77,3.58-3.79Z"/><path class="cls-1" d="M104.3,143.92c0,3.64.17,8.56-1.77,13.23a15.72,15.72,0,0,1-10.09,9.3c-1.71.56-2.88.39-2.83-1.95.05-2.52-.18-4.68,3-6,2.88-1.16,4.71-7.21,4-10.39-.27-1.15-1-.85-1.71-.88-5.2-.21-5.2-.2-5.2-5.38,0-2.41.07-4.83,0-7.24-.06-1.65.47-2.48,2.24-2.45,3.41.06,6.82,0,10.23,0,1.57,0,2.26.59,2.22,2.21C104.25,137.18,104.3,139.92,104.3,143.92Z"/><path class="cls-1" d="M89.65,85.43c.19-1.87-1-4.84.43-6.31s4.57-.43,6.94-.55c1.82-.09,3.66,0,5.48,0,1.29,0,1.8.55,1.79,1.78,0,3.82,0,7.65,0,11.47a1.59,1.59,0,0,1-1.84,1.8q-5.48,0-11,0c-1.37,0-1.91-.62-1.85-2C89.71,89.69,89.65,87.77,89.65,85.43Z"/><path class="cls-1" d="M1335.79,140.18c0-7.17,0-7.17,7.15-7.17,6.71,0,6.77,0,6.67,6.62,0,2.45,1.11,5.55-.6,7.19s-4.62.49-7,.52c-6.21.07-6.21,0-6.21-6.16Z"/><path class="cls-1" d="M542.35,59.21c0,6.86,0,6.9-6.93,6.85-6.73,0-5.77.9-5.85-5.8,0-2.08,0-4.16,0-6.25,0-1.45.56-2.18,2-2.17,3,0,6,0,9,0,1.24,0,1.79.6,1.76,1.86C542.31,55.55,542.34,57.38,542.35,59.21Z"/></g></g></g></svg>