<svg xmlns="http://www.w3.org/2000/svg" width="1450.14" height="188.63" viewBox="0 0 1450.14 188.63"><defs><style>.cls-1{fill:#5a8497;}.cls-2{fill:#0a416a;}</style></defs><title>Asset 1</title><g id="Layer_2" data-name="Layer 2"><g id="Layer_1-2" data-name="Layer 1"><g id="IIR2kq.tif"><path class="cls-1" d="M1234.69,50.06q30.51,0,61,0c10.86,0,15.57-4.71,15.64-15.53,0-7,0-14,0-21,0-7.45,4.6-12.69,12.11-13.24a116,116,0,0,1,15.49,0c7.51.44,12.21,5.65,12.24,13.1s-.07,14.66,0,22c.13,9.84,5,14.65,14.88,14.72,4.5,0,9-.07,13.5,0,8.57.19,14.49,5.91,14.51,13.92s-5.95,13.68-14.57,13.87c-4.83.11-9.66,0-14.49,0-8.15.11-13.64,4.62-13.67,12.72,0,15.46.38,31,1.17,46.39,1,18.85,12,23.48,27.53,23.79,8,.17,12.93,4.37,13.89,12.06.92,7.45-4,14.51-11.39,15-14.72.88-29.43.35-43.13-5.87-12.5-5.67-22.8-13.89-26.92-27.79a30.14,30.14,0,0,1-1.13-8.35c-.1-17.16,0-34.33-.08-51.49a30.36,30.36,0,0,0-.64-6.94c-1.33-5.53-5.11-8.41-10.79-8.41q-52.25,0-104.49,0c-5.82,0-11.64.27-17.45.59a24,24,0,0,0-6.34,1.17c-6.07,2.08-9.09,6.38-8.63,11.89s4,9.73,10.41,10.26c10.43.86,20.93,1.07,31.41,1.12,13.34.07,26.35,1.88,38.14,8.26a85.29,85.29,0,0,1,18.14,13c14.25,13.56,8.19,37.74-1.54,48.86-8.29,9.48-18.77,13.95-31.35,13.92-29.49-.08-59,0-88.49,0-10.43,0-15.56-4.78-15.58-14.42,0-9.45,5.36-14.42,15.73-14.42,23.5,0,47,.05,70.49-.07a41.23,41.23,0,0,0,10.84-1.39c6.55-1.85,9.11-5.6,9.06-12,0-6-2.67-9.79-9-11.52a54.32,54.32,0,0,0-11.81-1.57c-15.45-.66-31-.63-46.36-1.82-13.49-1-25.42-6.33-34.56-16.85-12.26-14.12-9.25-49.95,15-58.27a103.68,103.68,0,0,1,29.22-5.34C1193.34,49.5,1214,50.06,1234.69,50.06Z"/><path class="cls-2" d="M334.33,118.78q0-27.5,0-55c0-8.58,5-13.7,13.59-13.71,49.83,0,99.67-.23,149.5.19,8.65.08,17.54,2,25.87,4.53,18.05,5.49,28,20.37,28.09,40.82.14,26.33,0,52.66,0,79,0,7.54-4.41,12.6-12,13.21a109.27,109.27,0,0,1-16,.06c-7.35-.48-12.14-5.91-12.15-13.26,0-18.16.14-36.33-.1-54.49a224.54,224.54,0,0,0-1.63-22.88c-1.07-9.18-6-14.68-15.2-15.91a109.07,109.07,0,0,0-20.92-.48c-6.3.37-10.27,5.49-10.27,12q0,39,0,78c0,12.48-4.7,17.14-17.27,17.15-3.5,0-7,.11-10.5,0-8.62-.34-13.52-5.39-13.53-14q0-39.24,0-78.5c0-10-5-14.89-15.09-14.9-6.16,0-12.33,0-18.49,0-8.4.08-13.59,5.33-13.6,13.84q-.06,39.75,0,79.5c0,8.54-4.83,13.65-13.43,14-4.49.19-9,.21-13.5,0-8.49-.41-13.31-5.65-13.31-14.17Q334.32,146.28,334.33,118.78Z"/><path class="cls-2" d="M86.56,50.06c23.49,0,47-.34,70.47.17a133.94,133.94,0,0,1,28,3.74c19,4.55,29.73,17.68,31.48,37.09.39,4.29.54,8.63.55,12.94q.07,35.23,0,70.47c0,8.16-5.29,13.42-13.37,13.52-3.83,0-7.67,0-11.5,0-11.26,0-15.92-4.72-15.93-16.18,0-19.33.14-38.66-.08-58a150.74,150.74,0,0,0-1.73-19.3c-1-6.86-7.81-12.36-16.75-13.37a102.93,102.93,0,0,0-16.93-.44c-8,.43-12.62,5.67-12.63,13.78q0,39.24,0,78.47c0,10.25-4.68,15-14.88,15-4.33,0-8.66.08-13,0-8.11-.16-13-5.13-13-13.18q0-39,0-78c0-11.53-4.83-16.28-16.51-16.28-5.67,0-11.34-.09-17,0-8.59.22-13.54,5.34-13.55,13.84q0,39.22,0,78.46c0,10.15-4.83,15-14.93,15.08-4,0-8,0-12,0C4.69,187.89,0,183.22,0,174.73V64.78c0-9.85,5-14.72,15.09-14.72Z"/><path class="cls-1" d="M1045,102.76c-1.06-15.53-5.56-20.62-19.42-22.73a90.12,90.12,0,0,0-12.91-1c-18.66-.1-37.32,0-56,0-9.49,0-15.19-5.37-15.33-14-.13-9.06,5.27-14.77,14.45-14.81,24.16-.09,48.33-.62,72.46.24a98.67,98.67,0,0,1,30.58,6c18.11,6.74,27,21.39,27.4,40.32.59,26.14.17,52.31.11,78.46,0,7.55-4.89,12.76-12.39,12.79-29,.12-58,.54-87-.14-17.55-.41-33.3-6.32-46.62-18.73-15.64-14.57-9.44-49.06,9.93-57.54a79.87,79.87,0,0,1,30.47-6.75c18.14-.42,36.28-.42,54.42-.74C1038.38,104,1041.58,103.21,1045,102.76Zm-35.68,57v.39h21.46c9.12-.06,14.29-4.92,14.33-13.48,0-9.38-5-14.64-14.2-14.69-8.65-.05-17.31-.21-25.95.06a184.4,184.4,0,0,0-20.34,1.62c-7.93,1.13-11.94,7.22-11.27,16.07.49,6.38,4.49,9.75,12.53,10C993.64,159.91,1001.46,159.74,1009.27,159.74Z"/><path class="cls-2" d="M634.57,104.68h7.33c22.17,0,44.33,0,66.5,0,11.83,0,16.65,4.89,16.36,16.24a12.42,12.42,0,0,1-10.25,12.37,39.43,39.43,0,0,1-7.44.65c-19.83,0-39.66-.17-59.49.16-2.83,0-6.77,1.92-8.1,4.18-1.17,2-.25,6.24,1.21,8.58,4,6.42,10.7,9.31,17.84,10.89a58.85,58.85,0,0,0,11.84,1.33c13.17.15,26.33,0,39.5.06,9.54,0,14.94,5.14,14.92,14.1,0,9.81-4.9,14.78-14.67,14.72-19.15-.1-38.32,0-57.45-.57a75.1,75.1,0,0,1-32.06-8.63c-16.24-8.37-25.45-22.21-29-39.69a93.12,93.12,0,0,1,1.12-44c6.54-23.61,22.95-36.85,46.17-41.93a148.76,148.76,0,0,1,27.15-3c15-.47,30-.22,45-.08,7.47.06,12.94,4.76,13.73,11.25,1.09,9-2,14.78-9.39,17a21,21,0,0,1-5.4.56c-17.45.57-34.94.58-52.34,1.81C644.17,81.7,635,91.72,634.57,104.68Z"/><path class="cls-1" d="M859.5,188c-17.16.13-34.18-.5-51-4.82-21.21-5.45-35.23-18.56-42-38.86-9.34-27.94-5-53.71,15.77-75.38,12.42-13,28.89-17.46,46.3-18.12,17.62-.66,35.27-.62,52.9-.74,9.93-.08,14.92,5.14,14.91,15.16,0,9.82-4.87,14.45-14.7,14.79-13.45.47-27,.66-40.3,2.22-11.83,1.38-22.48,6.52-30,16.22-9.59,12.32-9.15,26.25-3.87,39.84,4.93,12.7,15.68,18.91,28.92,19.64,15.11.83,30.28.62,45.42.78,9.8.1,14.52,4.65,14.54,14.25,0,10-4.75,15-14.38,15H859.5Z"/><path class="cls-2" d="M295.53,119.45q0,28,0,55.92c0,8.22-4.67,13-12.9,13.18q-7.74.16-15.48,0c-7.45-.17-12.32-5.22-12.33-12.73,0-23.14,0-46.27-.06-69.41,0-13.8-.38-27.6-.46-41.4-.07-10.37,4.9-15.3,15.23-15.36q6,0,12,0c8.87.07,14,5.1,14,13.87Q295.56,91.48,295.53,119.45Z"/><path class="cls-2" d="M273.07,35.39h-1.49c-17.12,0-22-5.51-19.93-22.59a12.23,12.23,0,0,1,9-10.86c11.71-3.8,26.24,1.94,31.25,12.33,5.65,11.71-.28,21.13-13.28,21.13Z"/><path class="cls-1" d="M1428.32,43.82c12.91.12,22,9.31,21.82,22.18-.13,12.47-10.26,22.09-23,21.87s-22.19-9.92-22-22.32S1415.39,43.7,1428.32,43.82Zm-.3,5.85c-9.43-.08-16,6.35-16.12,15.7-.08,9.9,6.31,16.65,15.8,16.68A15.88,15.88,0,0,0,1443.89,66,15.7,15.7,0,0,0,1428,49.67Z"/><path class="cls-1" d="M1437,63.28l-2.48,2.78c1.41,3.18,2.71,6.11,4.47,10h-7.32l-4.56-7.86-1.57.62c-.25,2.21-.5,4.43-.81,7.24h-6V54.87C1431.2,52.18,1439.43,54.19,1437,63.28Zm-6.56-1.39c0-.6-.07-1.2-.11-1.8l-5.19-2c.13,2.48.21,4,.33,6.45Z"/></g></g></g></svg>