<svg id="svg" version="1.1" xmlns="http://www.w3.org/2000/svg" xmlns:xlink="http://www.w3.org/1999/xlink" width="400" height="90.34907597535934" viewBox="0, 0, 400,90.34907597535934"><g id="svgg"><path id="path0" d="M10.542 8.098 C 10.072 8.244,9.401 8.569,9.050 8.819 C 7.708 9.775,7.803 6.996,7.803 45.202 L 7.803 79.952 8.780 80.894 C 11.227 83.253,16.209 82.864,17.865 80.184 C 18.423 79.282,18.523 11.136,17.967 10.062 C 17.006 8.204,13.320 7.229,10.542 8.098 M146.887 8.098 C 145.709 8.466,144.876 9.103,144.479 9.938 C 144.173 10.584,144.149 13.576,144.197 44.901 L 144.251 79.158 144.726 79.825 C 146.494 82.303,151.487 82.392,153.799 79.986 L 154.517 79.239 154.577 72.687 L 154.636 66.135 158.031 63.018 C 160.890 60.393,161.469 59.946,161.696 60.186 C 161.844 60.344,165.037 65.046,168.791 70.637 C 175.980 81.340,176.164 81.595,177.043 82.052 C 180.015 83.599,185.362 79.162,184.202 76.113 C 184.096 75.835,180.579 70.635,176.385 64.559 C 172.192 58.482,168.744 53.451,168.723 53.380 C 168.703 53.308,171.535 50.685,175.018 47.551 C 179.348 43.655,181.442 41.634,181.640 41.159 C 182.981 37.950,178.399 33.603,175.430 35.267 C 175.078 35.465,170.274 39.806,164.756 44.915 L 154.723 54.204 154.620 32.287 C 154.509 8.657,154.579 9.966,153.383 8.959 C 152.118 7.895,148.900 7.468,146.887 8.098 M40.144 34.975 C 39.214 35.281,25.636 43.722,24.846 44.484 C 23.581 45.705,24.272 48.869,26.215 50.759 C 28.752 53.227,30.281 53.218,34.298 50.715 L 37.269 48.863 37.372 64.328 C 37.466 78.536,37.503 79.836,37.829 80.334 C 39.603 83.041,44.931 83.180,47.214 80.580 L 47.844 79.863 47.843 58.566 C 47.842 34.242,48.023 36.450,45.952 35.396 C 44.646 34.732,41.559 34.508,40.144 34.975 M69.302 34.937 C 64.662 35.529,60.095 37.477,58.761 39.434 C 57.714 40.969,58.606 44.765,60.251 45.780 C 61.542 46.575,61.815 46.540,64.627 45.212 C 74.854 40.382,82.341 44.308,82.341 54.500 L 82.341 55.376 77.613 55.513 C 63.594 55.921,57.612 58.654,55.824 65.468 C 51.774 80.910,69.246 88.699,81.290 76.821 L 82.699 75.431 82.799 77.340 C 82.919 79.634,83.395 80.443,85.089 81.232 C 87.715 82.454,91.990 81.285,92.513 79.201 C 92.908 77.624,92.476 49.756,92.029 48.049 C 89.493 38.354,80.990 33.448,69.302 34.937 M118.275 34.845 C 108.501 35.892,102.509 41.717,101.452 51.198 C 101.174 53.691,101.168 63.574,101.444 66.016 C 102.655 76.760,109.659 82.544,121.458 82.544 C 132.587 82.544,140.032 76.815,135.699 71.585 C 134.166 69.735,132.861 69.644,129.753 71.170 C 121.536 75.208,113.604 73.020,112.014 66.277 C 111.632 64.655,111.571 53.005,111.936 51.293 C 113.431 44.288,121.391 42.032,129.969 46.183 C 132.835 47.570,134.343 47.096,135.752 44.366 C 138.656 38.733,129.344 33.660,118.275 34.845 M204.612 34.985 C 196.853 36.259,190.318 42.052,188.370 49.384 C 187.747 51.727,187.812 65.726,188.456 68.070 C 190.068 73.934,194.432 78.566,200.513 80.870 C 212.226 85.306,229.481 80.157,226.207 73.203 C 224.721 70.048,223.282 69.796,218.891 71.926 C 215.131 73.751,214.105 74.011,210.678 74.015 C 202.969 74.023,198.357 70.014,198.357 63.304 L 198.357 61.396 209.497 61.395 C 225.148 61.393,226.200 61.088,227.229 56.257 C 229.904 43.698,218.257 32.745,204.612 34.985 M254.886 35.012 C 251.457 35.757,247.423 38.832,245.727 41.992 C 245.406 42.589,245.396 42.536,245.388 40.225 C 245.381 38.103,245.330 37.768,244.918 37.158 C 242.954 34.244,236.204 35.038,235.626 38.250 C 235.561 38.614,235.534 47.967,235.567 59.035 L 235.626 79.158 236.102 79.825 C 237.870 82.303,242.862 82.392,245.175 79.986 L 245.893 79.238 245.996 67.083 L 246.099 54.928 246.761 53.031 C 248.832 47.104,252.834 44.154,258.821 44.143 C 262.300 44.137,263.555 43.455,264.389 41.120 C 265.213 38.811,264.089 35.822,262.083 34.984 C 261.204 34.616,256.623 34.634,254.886 35.012 M281.828 35.205 C 274.686 36.876,269.129 42.506,267.675 49.542 C 267.286 51.425,267.203 64.795,267.567 66.851 C 270.343 82.525,289.657 87.797,299.860 75.667 C 303.695 71.109,304.313 68.730,304.311 58.535 C 304.309 50.926,304.201 49.702,303.304 47.085 C 300.435 38.726,290.432 33.192,281.828 35.205 M327.616 35.116 C 324.330 35.770,320.213 38.528,318.426 41.273 C 318.105 41.765,318.091 41.694,318.081 39.589 C 318.075 38.371,317.963 37.156,317.829 36.863 C 317.029 35.107,313.394 34.933,312.230 36.595 C 311.649 37.424,311.754 79.829,312.338 80.572 C 313.531 82.087,316.460 82.136,317.794 80.662 C 318.152 80.268,318.179 79.445,318.287 65.636 C 318.389 52.698,318.442 50.886,318.753 49.795 C 321.694 39.471,334.569 37.944,340.102 47.263 C 341.838 50.187,341.761 49.394,341.883 65.738 C 341.989 79.872,342.002 80.256,342.402 80.698 C 343.708 82.140,346.637 82.083,347.809 80.593 L 348.255 80.027 348.255 65.493 C 348.255 53.706,348.199 50.675,347.960 49.453 C 346.062 39.746,336.879 33.275,327.616 35.116 M370.240 35.119 C 363.744 36.476,358.379 41.189,356.222 47.433 L 355.548 49.384 355.481 57.638 C 355.374 70.618,356.775 74.518,363.088 78.820 C 370.839 84.101,386.126 83.415,390.341 77.597 C 392.516 74.594,389.225 71.666,386.017 73.749 C 377.026 79.589,364.631 76.269,362.335 67.407 C 362.157 66.720,361.951 64.905,361.878 63.375 L 361.744 60.593 374.558 60.532 L 387.372 60.472 388.556 59.994 C 394.035 57.782,393.500 46.915,387.604 40.709 C 383.261 36.136,376.221 33.870,370.240 35.119 M377.926 41.075 C 382.442 42.778,385.552 46.980,385.786 51.695 C 385.988 55.749,386.708 55.531,372.914 55.602 L 361.743 55.660 361.874 52.913 C 362.116 47.884,363.733 44.756,367.331 42.360 C 370.212 40.440,374.776 39.887,377.926 41.075 M289.129 41.537 C 293.112 42.895,296.566 46.654,297.566 50.719 C 298.021 52.568,297.957 64.986,297.483 66.702 C 294.173 78.706,278.526 79.454,274.499 67.801 C 273.756 65.651,273.761 51.063,274.506 49.219 C 277.021 42.985,283.458 39.604,289.129 41.537 M210.425 43.020 C 214.683 44.024,217.665 47.574,217.656 51.628 C 217.650 54.674,217.934 54.594,207.012 54.609 L 198.316 54.620 198.391 52.002 C 198.576 45.574,204.021 41.510,210.425 43.020 M82.297 63.962 C 81.881 74.785,65.902 79.106,65.916 68.393 C 65.922 63.448,69.611 61.503,79.134 61.424 L 82.396 61.396 82.297 63.962 " stroke="none" fill="#000000" fill-rule="evenodd"></path></g></svg>