<?xml version="1.0" encoding="utf-8"?>
<!-- Generator: Adobe Illustrator 16.0.0, SVG Export Plug-In . SVG Version: 6.00 Build 0)  -->
<!DOCTYPE svg PUBLIC "-//W3C//DTD SVG 1.1//EN" "http://www.w3.org/Graphics/SVG/1.1/DTD/svg11.dtd">
<svg version="1.1" id="Layer_1" xmlns="http://www.w3.org/2000/svg" xmlns:xlink="http://www.w3.org/1999/xlink" x="0px" y="0px"
	 width="397px" height="156px" viewBox="0 0 397 156" enable-background="new 0 0 397 156" xml:space="preserve">
<g>
	<g>
		<path fill="#FFFFFF" d="M179.053,102.501c-3.328-0.283-6.195-0.601-8.6-0.954v-8.281c5.096,0.637,10.51,0.955,16.245,0.955
			c2.9,0,5.06-0.247,6.475-0.742c1.416-0.496,2.336-1.238,2.761-2.23c0.424-0.991,0.636-2.443,0.636-4.354
			c0-2.123-0.143-3.628-0.424-4.514c-0.284-0.885-0.78-1.485-1.486-1.806c-0.708-0.318-1.948-0.581-3.716-0.795l-11.679-1.593
			c-4.034-0.495-6.76-1.894-8.175-4.194c-1.416-2.298-2.123-5.927-2.123-10.883c0-4.387,0.778-7.75,2.335-10.084
			c1.556-2.338,3.698-3.911,6.423-4.725c2.724-0.814,6.247-1.221,10.565-1.221c2.688,0,5.503,0.142,8.439,0.422
			c2.935,0.285,5.324,0.675,7.166,1.17v8.174c-4.742-0.706-9.696-1.061-14.861-1.061c-3.753,0-6.37,0.443-7.857,1.326
			c-1.486,0.886-2.229,2.812-2.229,5.787c0,1.91,0.123,3.29,0.371,4.141c0.247,0.848,0.725,1.451,1.434,1.805
			c0.706,0.354,1.839,0.637,3.397,0.85l11.997,1.486c2.546,0.355,4.544,0.956,5.998,1.805c1.449,0.848,2.548,2.319,3.291,4.406
			c0.742,2.088,1.114,5.148,1.114,9.185c0,4.389-0.689,7.769-2.07,10.139c-1.381,2.371-3.397,4-6.05,4.886
			c-2.653,0.883-6.104,1.326-10.351,1.326C185.387,102.927,182.379,102.783,179.053,102.501z"/>
		<path fill="#FFFFFF" d="M215.571,33.702V23.19h10.724v10.512H215.571z M215.784,102.078V47.929h10.298v54.149H215.784z"/>
		<path fill="#FFFFFF" d="M268.653,102.078L256.55,82.436h-0.637l-11.997,19.643h-11.04l17.196-27.499l-16.56-26.65h11.465
			l11.467,18.793h0.53l11.468-18.793h10.934l-16.562,26.543l17.306,27.606H268.653z"/>
		<path fill="#FFFFFF" d="M284.897,122.568V114.5c5.944,0.282,10.687,0.424,14.225,0.424c4.601,0,7.927-0.442,9.981-1.326
			c2.052-0.888,3.379-2.479,3.981-4.778c0.601-2.302,0.902-6.036,0.902-11.2v-2.337h-0.636c-1.133,2.619-2.905,4.478-5.312,5.574
			c-2.404,1.099-5.412,1.645-9.023,1.645c-4.528,0-8.015-0.797-10.456-2.388c-2.441-1.593-4.178-4.355-5.202-8.281
			c-1.026-3.928-1.54-9.538-1.54-16.83c0-7.36,0.53-13.04,1.592-17.04c1.062-3.998,2.831-6.811,5.31-8.439
			c2.477-1.629,5.946-2.441,10.403-2.441c3.4,0,6.371,0.566,8.917,1.696c2.552,1.134,4.461,3.258,5.735,6.37h0.636l0.427-7.219
			h9.447v47.036c0,7.572-0.495,13.305-1.486,17.197c-0.992,3.894-3.113,6.778-6.368,8.654c-3.257,1.874-8.281,2.813-15.079,2.813
			C294.771,123.63,289.285,123.275,284.897,122.568z M309.265,92.15c1.447-0.813,2.527-2.106,3.235-3.875
			c0.565-1.416,0.956-3.148,1.169-5.205c0.211-2.051,0.318-4.777,0.318-8.175c0-3.184-0.091-5.785-0.267-7.803
			s-0.548-3.732-1.112-5.149c-0.711-1.98-1.808-3.415-3.292-4.3c-1.486-0.885-3.541-1.327-6.159-1.327
			c-3.467,0-5.929,0.391-7.379,1.167c-1.451,0.781-2.407,2.408-2.865,4.885c-0.463,2.479-0.69,6.655-0.69,12.527
			c0,5.806,0.247,9.927,0.742,12.37s1.469,4.071,2.921,4.885c1.448,0.814,3.873,1.221,7.271,1.221
			C305.775,93.371,307.81,92.965,309.265,92.15z"/>
		<path fill="#FFFFFF" d="M335.963,33.702V23.19h10.726v10.512H335.963z M336.175,102.078V47.929h10.301v54.149H336.175z"/>
		<path fill="#FFFFFF" d="M358.472,102.078V23.19h10.297v78.888H358.472z"/>
		<path fill="#FFFFFF" d="M380.763,102.078V23.19h10.3v78.888H380.763z"/>
	</g>
</g>
<g>
	<path opacity="0.4" fill="#FFFFFF" d="M74.418,1.761c6.095,0,13.276,4.96,13.276,13.276c0,8.314,0.079,40.51,0.079,40.51
		L74.467,63.17l-13.426-7.65c0,0-0.01-33.354-0.01-40.511C61.032,7.852,67.24,1.761,74.418,1.761z"/>
	<path opacity="0.4" fill="#FFFFFF" d="M74.386,155.564c-6.095,0-13.274-4.96-13.274-13.277c0-8.315-0.08-40.51-0.08-40.51
		l13.514-7.693l13.229,7.797c0,0,0,33.278,0,40.437C87.774,149.475,81.566,155.564,74.386,155.564z"/>
	<path opacity="0.4" fill="#FFFFFF" d="M141.013,40.406c3.042,5.281,2.328,13.98-4.878,18.131
		c-7.205,4.151-35.062,20.29-35.062,20.29l-13.35-7.803l0.09-15.422c0,0,28.837-16.61,35.039-20.183
		C129.053,31.846,137.43,34.186,141.013,40.406z"/>
	<path opacity="0.4" fill="#FFFFFF" d="M7.949,117.144c-3.042-5.28-2.329-13.979,4.877-18.13c7.205-4.152,35.063-20.29,35.063-20.29
		l13.246,7.724l0.012,15.5c0,0-28.836,16.611-35.037,20.184S11.532,123.365,7.949,117.144z"/>
	<path opacity="0.4" fill="#FFFFFF" d="M141.145,116.532c-2.991,5.31-10.836,9.132-18.082,5.052
		c-7.246-4.079-35.337-19.809-35.337-19.809l-0.113-15.333l13.558-7.744c0,0,28.764,16.156,35,19.668
		C142.407,101.876,144.667,110.275,141.145,116.532z"/>
	<path opacity="0.4" fill="#FFFFFF" d="M7.61,40.949c2.99-5.31,10.836-9.133,18.082-5.053c7.246,4.079,35.337,19.808,35.337,19.808
		l0.113,15.334l-13.323,7.916c0,0-28.998-16.328-35.234-19.84C6.348,55.604,4.086,47.205,7.61,40.949z"/>
	<polygon opacity="0.7" fill="#FFFFFF" points="87.799,55.561 87.723,71.102 74.467,63.156 	"/>
	<polygon opacity="0.5" fill="#FFFFFF" points="60.981,86.488 60.981,101.951 74.545,94.123 	"/>
	<polygon opacity="0.7" fill="#FFFFFF" points="87.606,86.488 87.723,71.024 101.053,78.775 	"/>
	<polygon opacity="0.7" fill="#FFFFFF" points="61.174,86.564 61.059,71.063 47.727,78.853 	"/>
	<polygon opacity="0.5" fill="#FFFFFF" points="61.042,55.499 61.167,70.978 74.42,63.127 	"/>
	<polygon opacity="0.5" fill="#FFFFFF" points="87.606,86.409 87.723,101.835 74.467,94.084 	"/>
	<polygon fill="#FFFFFF" points="74.403,63.118 87.761,71.011 87.645,86.372 74.571,94.175 60.981,86.488 60.981,71.102 	"/>
	<g>
		<g>
			<path fill="#FFFFFF" d="M87.918,15.18c0,7.41-6.006,13.417-13.418,13.417c-7.406,0-13.416-6.007-13.416-13.417
				c0-7.409,6.01-13.419,13.416-13.419C81.913,1.761,87.918,7.771,87.918,15.18z"/>
		</g>
	</g>
	<path fill="#FFFFFF" d="M142.731,109.928c0,7.409-6.006,13.418-13.417,13.418c-7.409,0-13.419-6.009-13.419-13.418
		c0-7.408,6.01-13.418,13.419-13.418C136.725,96.51,142.731,102.52,142.731,109.928"/>
	<g>
		<g>
			<path fill="#FFFFFF" d="M32.745,47.672c0,7.415-6.006,13.42-13.417,13.42S5.911,55.087,5.911,47.672
				c0-7.412,6.006-13.416,13.417-13.416S32.745,40.26,32.745,47.672z"/>
		</g>
	</g>
	<g>
		<g>
			<path fill="#FFFFFF" d="M87.918,142.062c0,7.41-6.006,13.417-13.418,13.417c-7.406,0-13.416-6.007-13.416-13.417
				c0-7.409,6.01-13.418,13.416-13.418C81.913,128.644,87.918,134.652,87.918,142.062z"/>
		</g>
	</g>
	<path fill="#FFFFFF" d="M142.73,47.311c0,7.412-6.003,13.414-13.415,13.414c-7.411,0-13.418-6.002-13.418-13.414
		c0-7.407,6.007-13.412,13.418-13.412C136.727,33.898,142.73,39.903,142.73,47.311"/>
	<g>
		<g>
			<path fill="#FFFFFF" d="M33.087,110.411c0,7.408-6.005,13.42-13.417,13.42c-7.41,0-13.418-6.012-13.418-13.42
				c0-7.403,6.008-13.416,13.418-13.416C27.083,96.995,33.087,103.008,33.087,110.411z"/>
		</g>
	</g>
</g>
</svg>
