<?xml version="1.0" encoding="utf-8"?>
<!-- Generator: Adobe Illustrator 16.0.0, SVG Export Plug-In . SVG Version: 6.00 Build 0)  -->
<!DOCTYPE svg PUBLIC "-//W3C//DTD SVG 1.1//EN" "http://www.w3.org/Graphics/SVG/1.1/DTD/svg11.dtd">
<svg version="1.1" id="Layer_1" xmlns="http://www.w3.org/2000/svg" xmlns:xlink="http://www.w3.org/1999/xlink" x="0px" y="0px"
	 width="841.89px" height="595.28px" viewBox="0 0 841.89 595.28" enable-background="new 0 0 841.89 595.28" xml:space="preserve">
<g>
	<g opacity="0.7">
		<g>
			<path fill="#BABABA" d="M160.86,354.231c-7.463,0-14.716-3.881-18.707-10.814c-5.932-10.316-2.386-23.498,7.936-29.436
				l175.193-100.814c10.306-5.934,23.487-2.381,29.425,7.936c5.938,10.315,2.399,23.494-7.928,29.432L171.593,351.351
				C168.202,353.298,164.505,354.231,160.86,354.231z"/>
		</g>
	</g>
	<g opacity="0.8">
		<g>
			<path fill="#B2B2B2" d="M334.073,355.237c-3.648,0-7.347-0.92-10.736-2.877L148.153,251.554
				c-10.316-5.942-13.869-19.127-7.932-29.439c5.938-10.317,19.117-13.871,29.438-7.934l175.189,100.812
				c10.315,5.945,13.865,19.119,7.934,29.439C348.789,351.36,341.531,355.237,334.073,355.237z"/>
		</g>
	</g>
	<g>
		<g>
			<path fill="#B0B0B0" d="M247.88,404.667c-11.9,0-21.555-9.654-21.555-21.553V180.982c0-11.904,9.654-21.555,21.555-21.555
				c11.91,0,21.559,9.65,21.559,21.555v202.132C269.438,395.013,259.79,404.667,247.88,404.667z"/>
		</g>
	</g>
	<g>
		<g>
			<path fill="#6D6E71" d="M269.44,181.068c0,11.949-9.686,21.637-21.639,21.637c-11.942,0-21.633-9.688-21.633-21.637
				s9.69-21.641,21.633-21.641C259.755,159.427,269.44,169.119,269.44,181.068z"/>
		</g>
	</g>
	<g>
		<g>
			<path fill="#6D6E71" d="M355.585,333.612c0,11.949-9.687,21.639-21.637,21.639c-11.947,0-21.639-9.689-21.639-21.639
				c0-11.947,9.691-21.639,21.639-21.639C345.898,311.974,355.585,321.665,355.585,333.612z"/>
		</g>
	</g>
	<g>
		<g>
			<path fill="#6D6E71" d="M180.715,232.966c0,11.958-9.686,21.641-21.636,21.641c-11.951,0-21.637-9.683-21.637-21.641
				c0-11.953,9.686-21.637,21.637-21.637C171.029,211.33,180.715,221.013,180.715,232.966z"/>
		</g>
	</g>
	<g>
		<g>
			<path fill="#6D6E71" d="M269.44,382.931c0,11.951-9.686,21.637-21.639,21.637c-11.942,0-21.633-9.686-21.633-21.637
				c0-11.949,9.69-21.639,21.633-21.639C259.755,361.292,269.44,370.981,269.44,382.931z"/>
		</g>
	</g>
	<g>
		<g>
			<path fill="#6D6E71" d="M357.582,231.883c0,11.954-9.68,21.633-21.633,21.633c-11.95,0-21.637-9.679-21.637-21.633
				c0-11.946,9.687-21.63,21.637-21.63C347.902,210.253,357.582,219.937,357.582,231.883z"/>
		</g>
	</g>
	<g>
		<g>
			<path fill="#6D6E71" d="M182.519,332.642c0,11.949-9.684,21.643-21.639,21.643c-11.948,0-21.637-9.693-21.637-21.643
				c0-11.938,9.688-21.635,21.637-21.635C172.835,311.007,182.519,320.704,182.519,332.642z"/>
		</g>
	</g>
</g>
<g>
	<path fill="#202020" d="M399.614,320.175c-4.814-0.41-8.961-0.869-12.441-1.382v-11.981c7.373,0.922,15.207,1.383,23.501,1.383
		c4.197,0,7.32-0.358,9.37-1.075c2.046-0.716,3.378-1.791,3.993-3.226c0.615-1.434,0.922-3.533,0.922-6.298
		c0-3.072-0.206-5.247-0.614-6.528c-0.41-1.279-1.128-2.15-2.15-2.611c-1.024-0.461-2.817-0.845-5.376-1.152L399.921,285
		c-5.836-0.715-9.78-2.738-11.827-6.067c-2.049-3.326-3.072-8.575-3.072-15.744c0-6.348,1.125-11.213,3.379-14.592
		c2.251-3.379,5.35-5.657,9.293-6.835c3.941-1.176,9.036-1.767,15.283-1.767c3.891,0,7.961,0.207,12.211,0.614
		c4.248,0.411,7.704,0.975,10.368,1.69v11.827c-6.861-1.022-14.03-1.536-21.504-1.536c-5.429,0-9.216,0.641-11.366,1.92
		c-2.15,1.281-3.226,4.07-3.226,8.371c0,2.765,0.177,4.762,0.538,5.991c0.357,1.229,1.049,2.1,2.073,2.611
		c1.022,0.514,2.662,0.922,4.916,1.229l17.356,2.15c3.687,0.514,6.578,1.382,8.679,2.611c2.098,1.229,3.687,3.355,4.762,6.375
		c1.075,3.021,1.612,7.45,1.612,13.287c0,6.351-0.998,11.239-2.995,14.669c-1.997,3.432-4.915,5.786-8.755,7.065
		s-8.832,1.92-14.976,1.92C408.777,320.789,404.426,320.583,399.614,320.175z"/>
	<path fill="#202020" d="M452.45,220.641v-15.207h15.514v15.207H452.45z M452.758,319.561v-78.337h14.899v78.337H452.758z"/>
	<path fill="#202020" d="M529.248,319.561l-17.51-28.416h-0.922l-17.356,28.416h-15.975l24.883-39.783l-23.962-38.554h16.589
		l16.589,27.188h0.769l16.589-27.188h15.82l-23.961,38.4l25.036,39.937H529.248z"/>
	<path fill="#202020" d="M552.747,349.206v-11.674c8.602,0.408,15.461,0.614,20.582,0.614c6.655,0,11.468-0.641,14.438-1.92
		c2.969-1.282,4.89-3.586,5.761-6.912c0.868-3.329,1.306-8.731,1.306-16.205v-3.379h-0.922c-1.64,3.789-4.2,6.478-7.68,8.063
		c-3.482,1.589-7.834,2.381-13.057,2.381c-6.555,0-11.597-1.152-15.13-3.456c-3.532-2.304-6.043-6.298-7.526-11.98
		c-1.485-5.684-2.227-13.798-2.227-24.346c0-10.649,0.768-18.867,2.304-24.653c1.536-5.784,4.095-9.854,7.68-12.211
		c3.583-2.354,8.602-3.533,15.053-3.533c4.916,0,9.217,0.821,12.903,2.458c3.686,1.639,6.451,4.711,8.294,9.216h0.922l0.614-10.445
		h13.67v68.046c0,10.956-0.717,19.25-2.15,24.883c-1.435,5.631-4.507,9.805-9.216,12.519c-4.711,2.713-11.98,4.071-21.812,4.071
		C567.032,350.742,559.095,350.229,552.747,349.206z M587.998,305.199c2.098-1.177,3.66-3.046,4.686-5.607
		c0.818-2.047,1.382-4.555,1.689-7.526c0.307-2.969,0.461-6.912,0.461-11.827c0-4.608-0.13-8.371-0.385-11.29
		c-0.257-2.918-0.794-5.4-1.612-7.45c-1.025-2.866-2.611-4.939-4.762-6.221c-2.15-1.279-5.122-1.92-8.909-1.92
		c-5.019,0-8.577,0.564-10.675,1.69c-2.101,1.128-3.482,3.482-4.147,7.065c-0.667,3.586-0.998,9.626-0.998,18.125
		c0,8.397,0.357,14.362,1.075,17.895c0.715,3.533,2.124,5.89,4.224,7.066c2.098,1.178,5.606,1.766,10.521,1.766
		C582.953,306.965,585.898,306.377,587.998,305.199z"/>
	<path fill="#202020" d="M626.628,220.641v-15.207h15.514v15.207H626.628z M626.936,319.561v-78.337h14.899v78.337H626.936z"/>
	<path fill="#202020" d="M659.189,319.561V205.434h14.899v114.126H659.189z"/>
	<path fill="#202020" d="M691.442,319.561V205.434h14.899v114.126H691.442z"/>
</g>
</svg>
