<svg xmlns="http://www.w3.org/2000/svg" viewBox="0 0 799.8 224.63" width="799.8" height="224.63"><defs><style>.cls-1{fill:#fff;}</style></defs><title>Asset 2</title><g id="Layer_2" data-name="Layer 2"><g id="Layer_1-2" data-name="Layer 1"><g id="wK2Wr2.tif"><path class="cls-1" d="M63.8,62.55Q76.4,33.25,89,4c.71-1.64.67-4.14,3.62-4,2.55.15,2.61,2.35,3.27,3.87Q124.24,69,152.46,134.15c1.92,4.42,3.92,8.81,6.07,13.12,3.2,6.42,8.3,10.1,15.6,10.86a80.94,80.94,0,0,0,21.89-.26c7.09-1.19,10.7-4.44,12.18-11.36a45.57,45.57,0,0,0,1.13-9.39q.07-53.23-.08-106.47a45.62,45.62,0,0,0-.92-7.4c-1.13-6.67-5-10.73-11.73-11.78a50,50,0,0,0-8.94-.7c-2.54.07-3.5-.51-3.48-3.26s1.18-2.88,3.33-2.87c24.66.12,49.33-.2,74,.39,13.54.32,26.31,4.33,36.68,13.65C322,40.09,314.46,77.52,284,89.9c-5.87,2.38-12,3.56-19.06,5,17.48,18.72,31,40.11,52.13,54.36a63.65,63.65,0,0,0,16,7.9c10.66,3.46,22.63-.5,23.35-14.91.21-4.32.67-8.62.66-13,0-30.66,0-61.32-.05-92a93.16,93.16,0,0,0-.88-12.44c-1.18-8.56-5.28-12.55-13.92-13.74a49.57,49.57,0,0,0-8-.36c-2.53.06-2.51-1.45-2.53-3.24s.17-2.91,2.35-2.85c28.13.74,56.32-1.69,84.37,1.43a43.1,43.1,0,0,1,26.78,13.3c13.29,13.92,13,35.8-.5,50.16a54.13,54.13,0,0,1-9.63,8c3,1.42,5.85,2.59,8.52,4,17.24,9.11,26.59,25.66,24.49,43.23-2.13,17.78-15.25,31.89-34.55,37a88.28,88.28,0,0,1-22.71,2.94c-36.49,0-73,0-109.47.09-3.66,0-6-.95-8.28-4-15.67-21.13-31.57-42.08-47.41-63.08-1.8-2.38-11.29-4.33-13.64-2.86-.85.53-.77,1.37-.77,2.19.11,14.66-.48,29.36.53,44,1,13.83,5.81,17.42,20.8,17.6,3.59,0,4.28,1.37,3.82,4.3-.52,3.33-3.2,1.75-4.79,1.75q-65.23.15-130.47.08c-2.33,0-4.67-.06-7,0-2,.07-3.47-.05-3.54-2.8s1.24-3.31,3.59-3.27a38.33,38.33,0,0,0,12.3-1.69c6.72-2.14,8.86-5.76,6.87-12.52-3-10.22-8.2-19.58-12.11-29.44-10.4-26.22-19.26-53-29-79.46-1-2.79-2.09-5.56-3.4-9L72.55,65.59C69.33,65.45,66.55,64.06,63.8,62.55Zm314.65,49.38a250.06,250.06,0,0,0,.84,26.15c.88,10.56,5.07,14.84,15.56,15.85a122.36,122.36,0,0,0,14.43.69c9.48-.21,18.6-1.84,25.63-9,9.65-9.88,11.11-22.07,8.73-34.79-3.14-16.79-15-26.06-32-26.09-9.49,0-19,.16-28.46-.08-3.58-.09-5,.62-4.79,4.57C378.71,96.34,378.45,103.51,378.45,111.93ZM231.28,49.52c0,10.32.14,20.65-.08,31-.07,3.34.55,4.67,4.24,4.45,6-.34,12-.06,18-.09,20.21-.12,31.92-9.86,34.32-29.94,2.57-21.45-8.62-40.52-34.13-40.06-6,.11-12,.23-18-.06-3.4-.16-4.54.64-4.44,4.27C231.46,29.2,231.28,39.36,231.28,49.52Zm147.18-5.23q0,13,0,26a4,4,0,0,1,0,.5c-.3,2.39.3,3.67,3.15,3.6,7.83-.18,15.68.24,23.49-.19,12.82-.7,21.86-7.71,24.91-19.4,4.81-18.47-2.78-41-29.84-40a153.17,153.17,0,0,1-17-.07c-4.21-.31-4.92,1.34-4.81,5C378.61,28,378.44,36.12,378.46,44.29Z"/><path class="cls-1" d="M687.23,4.68c12.14.54,26.86-1.26,41.4,1.2,17.78,3,32.75,10.54,39.9,28.35,9.33,23.24-2.51,47.54-27.14,56.48A53.71,53.71,0,0,1,727.88,94c-2.71.24-3.09,1.18-1.22,3.27,12,13.4,22.68,27.95,35.69,40.41,9.95,9.53,20.89,17.64,34.78,20.49,2.93.6,2.63,2.34,2.67,4.32,0,2.78-2,2.13-3.53,2.14-12.49,0-25-.1-37.48.1-2.85,0-4.14-1.4-5.57-3.31q-23.69-31.56-47.44-63.07c-2.34-3.1-10.22-5.14-13.8-3.68-1.55.63-1.14,1.85-1.13,2.9.06,13.82-.18,27.66.36,41.46.58,14.88,5.62,19.32,20.51,19.6,1.9,0,4.59-1.1,4.47,2.72-.07,2.19-.42,3.33-3,3.32q-33.24-.11-66.47,0c-2.63,0-2.93-1.16-3-3.31s.83-2.78,2.93-2.8c20.24-.19,22-7.33,22.27-23.09.58-34.14.18-68.3.16-102.45a31.78,31.78,0,0,0-.37-3.47c-1.69-15.1-5.39-18.48-20.6-19-1.45,0-3.69,1.1-4.19-1.34s-.79-4.93,3.34-4.73c6.32.31,12.66.09,19,.1Zm3.59,45.14h0c0,10.48.09,21-.06,31.43,0,2.77.64,3.75,3.57,3.66,7.31-.23,14.64.11,21.95-.19,16.28-.67,27-9.82,30.43-25.7a46.42,46.42,0,0,0,.4-16.38C745,27.52,735.38,17.35,720.29,15.42c-9-1.15-18.25-.42-27.39-.57-2.86,0-2,2.09-2,3.53C690.79,28.87,690.82,39.34,690.82,49.82Z"/><path class="cls-1" d="M560.08,169c-32.7-.09-65.73-21.79-78.75-54.46-15.18-38.07.45-81,37.19-102.14C566.2-15,627.52,5.26,647.74,55.19c14.91,36.8-.32,79.55-36.08,100.93C597.08,164.85,581.23,169.21,560.08,169Zm67.68-83.56c-.08-14.42-2.6-27.55-8.59-39.86-10.22-21-26.83-33.18-50.34-34.61-24.29-1.47-44.12,7.49-56,29.12-16.16,29.36-16.15,59.6,0,89.07,21.31,38.87,80.34,38.14,102.2,2A89.35,89.35,0,0,0,627.75,85.46Z"/><path class="cls-1" d="M63.8,62.55c2.74,1.51,5.53,2.9,8.75,3,7.68,4.83,15.86,8.85,22.6,15.16a78.81,78.81,0,0,1,17.75,25c1.52,3.31,1.46,4.88-2.94,5.34-16.77,1.75-32.72-1.54-48.43-6.93-1.55-.53-3-1.53-4.76-1.17-2.48-2.4-5.62-3.36-8.88-4-3.53-3.57-8.3-5.31-12.2-8.38-8.41-6.62-15.23-14.29-17.86-25-1.55-6.33-1.22-6.95,5.17-7.29a123.45,123.45,0,0,1,36,3.35C60.57,62.05,62.2,62.26,63.8,62.55Z"/><path class="cls-1" d="M47.88,99c3.26.69,6.4,1.65,8.88,4q-7.44,17.92-14.86,35.85A44.23,44.23,0,0,0,39.8,145c-1.43,5.75.67,9.77,6.32,11.71a41.89,41.89,0,0,0,13.26,2c1.94,0,3.55,0,3.52,2.78s-1.08,3.28-3.58,3.27q-28-.13-55.95,0c-2.17,0-3.34-.33-3.37-2.93,0-2.42.76-3.31,3.09-3.13,1.16.09,2.33,0,3.49,0,10.53-.22,17.77-4.94,21.9-14.92C34.7,128.72,41.39,113.89,47.88,99Z"/><path class="cls-1" d="M454.69,202.92c-2.48,6.77-4.51,12.21-6.47,17.68-.69,1.94-1.25,3.72-4,3.63-2.49-.09-2.88-1.85-3.48-3.56-3-8.63-6.05-17.25-8.94-25.92-.48-1.43-2.52-3.64.33-4.49,2.24-.67,5-1,6.12,2.39,1.64,5.24,3.39,10.43,5.12,15.64.26.77.69,1.49,1.59,3.41,2.36-6.61,4.32-12.3,6.44-17.93.64-1.71.61-4.19,3.52-4.09,2.64.09,2.42,2.41,3.06,3.94,2.27,5.43,3.13,11.41,6.67,17.6,2.15-6,3.91-10.92,5.69-15.86a25.7,25.7,0,0,1,1.44-3.72c1.38-2.51,3.84-1.8,5.79-1.32,2.45.6.82,2.54.42,3.66-3.25,9.07-6.65,18.09-10,27.14-.65,1.76-1.2,3.31-3.68,3.28s-2.76-1.78-3.67-3.36C457.69,215.73,456.75,209.73,454.69,202.92Z"/><path class="cls-1" d="M216.88,202.27c0,6.64,0,12.1,0,17.56,0,2.38-.26,4.07-3.47,4.08s-3.32-1.85-3.32-4.15c0-8.49-.09-17-.06-25.47,0-1.71-.82-3.95,1.49-4.78,2.11-.77,3.78.32,5.21,2,2.81,3.29,5.76,6.46,8.62,9.71,2.72,3.09,5.41,6.22,8.68,10,1.23-6,.68-11.24.75-16.42,0-2.32-.51-4.73,3.23-4.81s3.83,2.14,3.82,4.86c0,8.33,0,16.65,0,25,0,1.56.75,3.63-1.33,4.39s-3.84-.09-5.31-1.78c-5.23-6-10.52-12-15.81-18C219,203.93,218.42,203.58,216.88,202.27Z"/><path class="cls-1" d="M561.48,206.8a17.46,17.46,0,0,1-18.09,17.83c-10.34-.11-18-7.85-17.9-18.09.09-9.78,8-17.26,18.19-17.21S561.49,196.76,561.48,206.8Zm-18.06-11.13a11.22,11.22,0,0,0-11,11.2,11.54,11.54,0,0,0,11.46,11.43c5.8-.14,10.6-5.45,10.54-11.65A10.7,10.7,0,0,0,543.43,195.68Z"/><path class="cls-1" d="M693.8,202.67c3.9-3,5.95-5.78,8.18-8.4a18.49,18.49,0,0,1,3.07-3.27c2.36-1.68,5.79-1.88,7.41-.33s-1.59,3.08-2.76,4.52c-2.82,3.48-7.94,6.12-8.35,10.21s4.84,6.74,7.14,10.35c1.6,2.52,4.37,4.14,5.5,7.56-4.22.81-7.85,1.42-10.69-3.11-2.28-3.63-5.37-6.75-8.39-10.46-2.22,3.56-.9,7.06-1.08,10.34-.14,2.6-.66,3.87-3.68,3.84s-3.52-1.45-3.49-4q.15-13,0-26c0-2.61.56-4,3.6-3.93s3.63,1.57,3.54,4.1S693.8,199,693.8,202.67Z"/><path class="cls-1" d="M637.14,223.2c-5.58,1.61-9,.44-11.39-4.32-1.17-2.35-2.55-5-5.38-6.44-1.45,2.78-.9,5.46-.79,8s-1.09,3.34-3.58,3.38-3.14-.95-3.13-3.21c0-9.15,0-18.3-.09-27.45,0-1.88.47-3.26,2.79-3.16,3.48.15,7-.06,10.45.34,3.89.44,7,2.42,8,6.48,1,4.45.66,8.85-3.76,11.44-2.56,1.5-2.22,2.75-.75,4.65C632,216.2,634.41,219.54,637.14,223.2Zm-17.78-22.51c.71,1.5-1.38,4.93,2.8,4.64,3.16-.22,5.29-1.71,5.18-5.28-.1-3.18-2.16-4.14-4.9-4.35C618.5,195.39,619.57,198.29,619.36,200.69Z"/><path class="cls-1" d="M294.27,206.94c0-4.49.07-9,0-13.47-.06-2.56.94-3.57,3.52-3.49,4.15.13,8.31.06,12.47,0,2,0,3.05.66,3.06,2.87s-.7,3.11-2.87,3c-1.66-.08-3.33.08-5,0-2.66-.2-4.3.13-4.31,3.59s1.73,3.75,4.33,3.6c1.66-.09,3.32,0,5,0,2.08,0,2.44,1.24,2.4,2.94s-.28,3-2.38,3a32.19,32.19,0,0,1-4,0c-4-.55-5.62.81-5.34,5.13.2,3,.92,4.24,4,3.91a54,54,0,0,1,6,0c1.81,0,2.21,1.14,2.12,2.65s.17,3.22-2.09,3.22c-5,0-10,0-15-.09-2.34,0-1.87-1.93-1.89-3.32C294.24,215.92,294.28,211.43,294.27,206.94Z"/><path class="cls-1" d="M784.57,212.78c.1,5.68-2.48,9.42-7.34,11.08s-11.67-.15-14.57-3.88c-1-1.32-1.14-2.28.13-3.37s2.14-2.78,4.1-.94,3.85,3.2,6.67,2.6c2.18-.47,3.67-1.64,4.07-3.85s-.76-3.49-2.61-4.32c-2.28-1-4.61-1.91-6.86-3-3.95-1.89-5.6-5.07-4.87-9.4a9,9,0,0,1,7.4-7.8,15,15,0,0,1,10.2,1.37c1.29.62,2.74,1.72,1.54,3.56-.9,1.37-1.81,3-3.94,1.69a10.58,10.58,0,0,0-2.27-1c-2.58-.83-4.82-.08-5.78,2.38s.95,3.56,2.92,4.43c2.28,1,4.58,2,6.77,3.16A7.71,7.71,0,0,1,784.57,212.78Z"/><path class="cls-1" d="M368.48,209.93c0-2.49-.11-5,0-7.47.2-3.86.5-7.59-5.32-6.64-1.8.29-2.16-1.06-2.11-2.57s-.08-3.18,2.12-3.18q8.72,0,17.43,0c2.13,0,2.18,1.55,2.19,3.15,0,1.9-.89,2.85-2.75,2.55-4.75-.77-5,2-4.86,5.61.19,6.3,0,12.62.08,18.93,0,2.41-.61,3.65-3.38,3.55-2.52-.09-3.61-.87-3.49-3.49.15-3.48,0-7,0-10.46Z"/><path class="cls-1" d="M776.48,10.19c2.57-1,5.24-.42,7.86-.42a3.91,3.91,0,0,1,4,2.44,4.35,4.35,0,0,1-.86,5.05c-.76.77-2.92,1-1.2,2.85,1.44,1.53,2.5,3.92,5,3.55,1.54-.23,1.84-2.1,2.18-3.56,1.67-7-2.88-13-10.06-13.28-1,0-2.33.61-3.05-.8,4.83-2.42,11.31.34,13.92,5.9a12.64,12.64,0,0,1-6.56,17A12.44,12.44,0,0,1,771.23,22c-2.58-6.66,0-13.05,6.27-15.17,1.16,1.52-3.36,1.66-.87,3.48-.27-.81-.8-1-1.44-.48-4.26,3.24-4.38,11.6-.21,14.84.7.54,1.47.71,2-.29-1.88,1.17-.43,1.93.43,2.39,4.33,2.33,8.46,2.11,13-1.55-5.24.43-5.49-4.91-8.89-6.3-.85,2.32-.14,4.13,1.51,5.92-2.34,0-4.3.72-6.16-.42C779.3,20.71,779.11,13.16,776.48,10.19Zm4.63,3.68c.25,1.27-.71,3.24,1.85,3.1,1.87-.1,3.2-.93,3.08-3s-1.47-2.85-3.29-2.93C780.56,11,781.35,12.76,781.1,13.87Z"/></g></g></g></svg>