<svg width="330" height="80" viewBox="0 0 330 80" xmlns="http://www.w3.org/2000/svg"><title>vo-logo-white</title><path d="M80 40c0 22.092-17.91 40-40 40C17.908 80 0 62.092 0 40 0 17.91 17.909 0 40 0c22.09 0 40 17.909 40 40zm-20.997 1.28l-2.646-4.563 5.582-7.928-15.429 7.454-.313-2.242 4.508-7.355-.646-1.211 2.081-8.647-8.088 8.52-.486-4.705 2.419-7.055-3.228 1.084-2.819-8.64-2.817 8.64-3.228-1.084 2.418 7.055-.485 4.705-8.089-8.52 2.081 8.647-.646 1.211 4.509 7.355-.313 2.242-15.43-7.454 5.584 7.928-2.648 4.564 11.852 5.997.189 1.999-8.985-2.845 4.517 5.667.377 1.8 5.506 2.474.565 1.699-2.467-1.041 6.654 7.736v9.225h1.712v-9.225l6.655-7.736-2.467 1.04.566-1.698 5.506-2.475.377-1.799 4.515-5.667-8.983 2.845.188-2 11.852-5.996zm232.761 11.082c-4 0-5.942-3.62-5.942-7.298 0-5.28 2.884-7.536 5.942-7.536 3.529 0 5.941 2.967 5.941 7.536 0 4.687-2.764 7.298-5.94 7.298zm-37.175-1.01c-6.295 0-11.355-5.458-11.355-12.696 0-6.942 5.06-12.163 11.355-12.163 6.293 0 11.353 5.221 11.353 12.163 0 7.238-5.06 12.697-11.353 12.697zm-58.648.95c-3.706 0-6.883-2.788-6.883-7.357 0-4.628 3.177-7.536 6.883-7.536s6.883 2.908 6.883 7.536c0 4.569-3.177 7.357-6.883 7.357zM319 37c4.236 0 6 3 6 3l4-8s-2.94-3-10-3c-6.497 0-12.29 2.957-13 8-2.15-5.022-3.967-8-12-8s-9 4-9 4v-2.955h-9l-.06 3.164C273.62 23.774 265.732 17 255 17c-10.112 0-18.467 6.013-21.294 14.597l.294-2.552h-1.47C228 29.045 223.997 33 223 37v-7h-9.883v14.883c-.034-9.577-7.549-15.838-17.117-15.838-9.472 0-17.236 6.289-17.236 15.9 0 2.355.707 7.055.237 7.055-1.942 0-5.001-.56-5.001-4V38h6v-8h-6v-8h-10v8h-4v2c-1.902-1.326-5.93-2.955-11-3-8.081-.071-13.022 4.553-15 10.071V30h-10v31h10v-9.974c.637 4.246 6.95 9.974 15 9.974 8.47 0 13.413-5.197 13.413-5.197l-3.706-7.18S154.235 52 150 52c-5.118 0-7.176-3.674-7.176-7.293 0-3.62 2.411-7.298 7.235-7.298 4.177 0 7.12 2.967 7.12 2.967L160 36v2h4v11c0 10.264 8.15 12 12.973 12H180v-9c2.715 5.524 9.056 9 16 9 9.51 0 17.083-6.476 17.117-15.993L213 61h10l.294-12.436c0-1.661.176-3.025.53-4.154 1.47-4.568 5.411-5.339 7.822-5.339.357 0 .673.016.95.036C232.82 51.35 242.448 61 255 61c10.733 0 18.68-7.332 21-17v28h9V58c.118 0 4.058 3 9 3 8.06 0 14-6.323 14-15.993 0-.587.04-1.444 0-2.007 3.662 5.2 12.529 5.99 12.529 8.116 0 1.008-1.471 1.423-3 1.423C313.175 52.54 310 49 310 49l-5 8s5.413 4 13 4c7.825 0 12-4.604 12-9.826 0-9.848-14-9.789-14-12.103 0-1.068 1.472-2.071 3-2.071zM124 26h10v-8h-20l-7.117 23.86c-.823 2.67-1.588 6.824-1.588 6.824-.117 0-.882-4.154-1.705-6.824L96 18H85l15 43h10l14-38v3z" fill="#FFF"/></svg>