<svg xmlns="http://www.w3.org/2000/svg" viewBox="0 0 392.35 151.28" width="392.35" height="151.28"><defs><style>.cls-1,.cls-2{fill:#fff;}.cls-1{fill-rule:evenodd;}</style></defs><title>Asset 2</title><g id="Layer_2" data-name="Layer 2"><g id="Layer_2-2" data-name="Layer 2"><polygon class="cls-1" points="50.52 145.64 27.46 137.37 27.46 103.56 50.52 111.42 50.52 145.64"/><polygon class="cls-1" points="54.76 145.64 77.82 137.37 77.82 103.56 54.76 111.42 54.76 145.64"/><polygon class="cls-1" points="29.83 101.03 53.17 94.46 74.82 101.44 53.17 108.79 29.83 101.03"/><polygon class="cls-1" points="23.07 98.41 0 90.14 0 56.33 23.07 64.19 23.07 98.41"/><polygon class="cls-1" points="27.3 98.41 50.36 90.14 50.36 56.33 27.3 64.19 27.3 98.41"/><polygon class="cls-1" points="2.37 53.8 25.71 47.23 47.36 54.21 25.71 61.56 2.37 53.8"/><polygon class="cls-1" points="76.89 98.41 53.82 90.14 53.82 56.33 76.89 64.19 76.89 98.41"/><polygon class="cls-1" points="81.11 98.41 104.18 90.14 104.18 56.33 81.11 64.19 81.11 98.41"/><polygon class="cls-1" points="56.19 53.8 79.53 47.23 101.18 54.21 79.53 61.56 56.19 53.8"/><polygon class="cls-1" points="104.34 51.18 81.28 42.91 81.28 9.1 104.34 16.96 104.34 51.18"/><polygon class="cls-1" points="108.58 51.18 131.64 42.91 131.64 9.1 108.58 16.96 108.58 51.18"/><polygon class="cls-1" points="83.65 6.57 106.99 0 128.64 6.98 106.99 14.33 83.65 6.57"/><polygon class="cls-1" points="158.16 51.18 135.1 42.91 135.1 9.1 158.16 16.96 158.16 51.18"/><polygon class="cls-1" points="162.4 51.18 185.46 42.91 185.46 9.1 162.4 16.96 162.4 51.18"/><polygon class="cls-1" points="137.47 6.57 160.81 0 182.46 6.98 160.81 14.33 137.47 6.57"/><polygon class="cls-2" points="137.02 143.74 130.95 123.62 127.88 123.62 122.3 143.68 116.43 123.62 112.27 123.62 120.32 150.53 123.75 150.53 129.28 130.54 135.32 150.53 138.69 150.53 146.43 123.62 143.05 123.62 137.02 143.74"/><path class="cls-2" d="M168.93,126.52a10.73,10.73,0,0,0-8.47-3.65,11.41,11.41,0,0,0-8.89,4q-3.54,4-3.54,10.39t3.4,10.18a11.29,11.29,0,0,0,8.91,3.88,12,12,0,0,0,7.26-2.26,11,11,0,0,0,4.15-5.71l-3.9-.8q-2.1,5.3-7.23,5.3a8.3,8.3,0,0,1-5.4-2.13q-2.55-2.13-2.55-8.24h19.54Q172.14,130.17,168.93,126.52Zm-16.06,7.79a9.27,9.27,0,0,1,2.43-6,7.07,7.07,0,0,1,5.28-2.24,6.41,6.41,0,0,1,4,1.24,6.86,6.86,0,0,1,2.34,3,11.68,11.68,0,0,1,.74,4Z"/><path class="cls-2" d="M189.84,122.87q-5.05,0-7.92,5.23V114.19h-4.19v36.34h2l1.5-4.45q2.93,5.2,8.41,5.2a9.57,9.57,0,0,0,8-4.07,16.23,16.23,0,0,0,3.07-10.07q0-7-3.12-10.62A9.79,9.79,0,0,0,189.84,122.87Zm4.52,22.22a6,6,0,0,1-5.15,2.77,7.33,7.33,0,0,1-4.75-1.87q-2.25-1.87-2.54-6v-6a9,9,0,0,1,2.52-5.47,6.57,6.57,0,0,1,4.75-2.12,5.91,5.91,0,0,1,5.24,3q1.89,3,1.89,8.17A13,13,0,0,1,194.37,145.1Z"/><path class="cls-2" d="M226.22,135l-5.24-1q-4.18-.77-4.18-3.74a3.3,3.3,0,0,1,1.64-2.93,7.65,7.65,0,0,1,4.19-1q5.13,0,6.78,4.19l3.84-.83q-2-6.85-10.81-6.85a10.83,10.83,0,0,0-7.24,2.28,7.13,7.13,0,0,0-2.69,5.66,6.48,6.48,0,0,0,2,4.93,10.35,10.35,0,0,0,5.3,2.51l5.67,1.08q4.61.85,4.61,4a3.71,3.71,0,0,1-1.81,3.3,8,8,0,0,1-4.42,1.17q-7.09,0-8.42-5.07l-4,.83q2.26,7.72,11.83,7.72a13.32,13.32,0,0,0,8.15-2.28,7.12,7.12,0,0,0,3.06-6Q234.45,136.52,226.22,135Z"/><path class="cls-2" d="M257.82,126.52a10.73,10.73,0,0,0-8.47-3.65,11.41,11.41,0,0,0-8.89,4q-3.54,4-3.54,10.39t3.41,10.18a11.28,11.28,0,0,0,8.91,3.88A11.94,11.94,0,0,0,256.5,149a11,11,0,0,0,4.15-5.71l-3.9-.8q-2.1,5.3-7.23,5.3a8.3,8.3,0,0,1-5.4-2.13q-2.55-2.13-2.55-8.24H261.1Q261,130.17,257.82,126.52Zm-16.06,7.79a9.26,9.26,0,0,1,2.43-6,7.07,7.07,0,0,1,5.28-2.24,6.41,6.41,0,0,1,4,1.24,6.87,6.87,0,0,1,2.34,3,11.7,11.7,0,0,1,.74,4Z"/><path class="cls-2" d="M273.18,124.18q-2,1.31-3.9,5.71v-6.27h-3.67v26.92h4.19V136.29a10.4,10.4,0,0,1,2.45-6.75A7.36,7.36,0,0,1,278,127h.85v-4q-1-.1-1.65-.1A7.13,7.13,0,0,0,273.18,124.18Z"/><polygon class="cls-2" points="293.75 145.5 286.28 123.62 281.64 123.62 291.25 150.53 295.59 150.53 304.89 123.62 301.17 123.62 293.75 145.5"/><rect class="cls-2" x="308.24" y="114.19" width="4.49" height="4.65"/><rect class="cls-2" x="308.43" y="123.62" width="4.19" height="26.92"/><path class="cls-2" d="M328.09,126.35q5.37,0,6.44,6.66l3.77-.72A11.79,11.79,0,0,0,335,125.5a9.56,9.56,0,0,0-7-2.63,9.93,9.93,0,0,0-8.37,4.07,16.44,16.44,0,0,0-3.08,10.2,16.89,16.89,0,0,0,2.92,10,10.69,10.69,0,0,0,15.32,1.58,12,12,0,0,0,3.54-7l-3.77-.66q-1.38,6.7-6.57,6.7a5.86,5.86,0,0,1-5.2-2.86q-1.85-2.86-1.85-8a14.05,14.05,0,0,1,1.86-7.63A5.94,5.94,0,0,1,328.09,126.35Z"/><path class="cls-2" d="M363,126.52a10.73,10.73,0,0,0-8.47-3.65,11.41,11.41,0,0,0-8.89,4q-3.54,4-3.54,10.39t3.41,10.18a11.29,11.29,0,0,0,8.91,3.88A11.94,11.94,0,0,0,361.7,149a11,11,0,0,0,4.15-5.71l-3.9-.8q-2.1,5.3-7.23,5.3a8.3,8.3,0,0,1-5.4-2.13q-2.55-2.13-2.55-8.24h19.54Q366.23,130.17,363,126.52ZM347,134.31a9.25,9.25,0,0,1,2.43-6,7.07,7.07,0,0,1,5.28-2.24,6.41,6.41,0,0,1,4,1.24,6.86,6.86,0,0,1,2.34,3,11.68,11.68,0,0,1,.75,4Z"/><path class="cls-2" d="M383.49,135l-5.24-1q-4.18-.77-4.18-3.74a3.3,3.3,0,0,1,1.64-2.93,7.65,7.65,0,0,1,4.19-1q5.13,0,6.78,4.19l3.84-.83q-2-6.85-10.81-6.85a10.83,10.83,0,0,0-7.24,2.28,7.13,7.13,0,0,0-2.69,5.66,6.48,6.48,0,0,0,2,4.93,10.35,10.35,0,0,0,5.3,2.51l5.67,1.08q4.61.85,4.61,4a3.71,3.71,0,0,1-1.81,3.3,8,8,0,0,1-4.42,1.17q-7.09,0-8.42-5.07l-4,.83q2.26,7.72,11.83,7.72a13.32,13.32,0,0,0,8.15-2.28,7.12,7.12,0,0,0,3.06-6Q391.72,136.52,383.49,135Z"/><path class="cls-1" d="M274.16,66.09V59.63A1.6,1.6,0,0,1,275.8,58h29a1.62,1.62,0,0,1,1.67,1.63v5.54c0,.93-.79,2.14-2.18,4.07l-15,21.43c5.57-.13,11.47.7,16.53,3.55a3,3,0,0,1,1.54,2.52v6.9c0,1-1,2.05-2.13,1.48a33.38,33.38,0,0,0-30.62.06c-1,.54-2.06-.55-2.06-1.5V97.11a7.8,7.8,0,0,1,1.08-4.44L291,67.72H275.83A1.61,1.61,0,0,1,274.16,66.09Z"/><path class="cls-1" d="M170.45,106.47h-8.82a1.66,1.66,0,0,1-1.58-1.49V59.74a1.66,1.66,0,0,1,1.7-1.63H170a1.66,1.66,0,0,1,1.6,1.52v5.91h.16c2.14-5.71,6.17-8.38,11.6-8.38s9,2.67,11.44,8.38a13,13,0,0,1,22.38-3.43c2.8,3.81,2.22,9.33,2.22,14.19v28.55a1.66,1.66,0,0,1-1.7,1.63h-8.81a1.66,1.66,0,0,1-1.58-1.62v-24c0-1.9.16-6.67-.25-8.47-.66-3-2.63-3.9-5.18-3.9a5.85,5.85,0,0,0-5.27,3.71c-.91,2.29-.82,6.09-.82,8.66v24a1.66,1.66,0,0,1-1.7,1.63h-8.81a1.66,1.66,0,0,1-1.58-1.62v-24c0-5,.82-12.47-5.43-12.47s-6.09,7.24-6.09,12.47v24A1.66,1.66,0,0,1,170.45,106.47Z"/><path class="cls-1" d="M327.73,57.15c13,0,20,11.24,20,25.52,0,13.81-7.75,24.76-20,24.76-12.74,0-19.67-11.24-19.67-25.23S315.08,57.15,327.73,57.15Zm.08,10.4c-6.45,0-6.86,8.85-6.86,14.38s-.08,16.16,6.78,16.16,7.1-8.36,7.1-14.16c0-3.81-.16-8.38-1.31-12C332.55,68.79,330.59,67.55,327.82,67.55Z"/><path class="cls-1" d="M366.52,106.47h-8.78a1.66,1.66,0,0,1-1.58-1.62V59.58a1.67,1.67,0,0,1,1.69-1.48H366a1.68,1.68,0,0,1,1.57,1.27v6.92h.17c2.47-6.19,5.92-9.14,12-9.14A11.56,11.56,0,0,1,390,62.49c2.3,3.62,2.3,9.71,2.3,14.09V105a1.67,1.67,0,0,1-1.69,1.43h-8.84a1.66,1.66,0,0,1-1.57-1.43V80.48c0-5,.58-12.19-5.51-12.19a5.77,5.77,0,0,0-5.1,3.62,20.11,20.11,0,0,0-1.4,8.57v24.36A1.69,1.69,0,0,1,366.52,106.47Z"/><path class="cls-1" d="M252.06,84.87c0,3.44.08,6.3-1.65,9.35a7.16,7.16,0,0,1-6.1,4c-3.38,0-5.36-2.58-5.36-6.39,0-7.51,6.74-8.87,13.11-8.87Zm8.89,21.49a1.82,1.82,0,0,1-2.08.21,21.52,21.52,0,0,1-5.05-5.87c-4.84,4.93-8.27,6.41-14.54,6.41-7.42,0-13.2-4.58-13.2-13.74a15,15,0,0,1,9.4-14.41c4.78-2.1,11.46-2.48,16.58-3.05V74.75c0-2.1.17-4.58-1.07-6.39A5.89,5.89,0,0,0,246,66.07c-3.36,0-6.35,1.72-7.09,5.29A1.86,1.86,0,0,1,237.42,73l-8.54-.92a1.55,1.55,0,0,1-1.32-1.84c2-10.37,11.33-13.5,19.71-13.5,4.29,0,9.9,1.14,13.28,4.39,4.29,4,3.88,9.35,3.88,15.17V90c0,4.13,1.72,5.94,3.33,8.17a1.66,1.66,0,0,1,0,2.34c-1.8,1.51-5,4.29-6.76,5.86Z"/><path class="cls-1" d="M137.49,84.87c0,3.44.08,6.3-1.65,9.35a7.16,7.16,0,0,1-6.1,4c-3.38,0-5.36-2.58-5.36-6.39,0-7.51,6.74-8.87,13.11-8.87Zm8.89,21.49a1.82,1.82,0,0,1-2.08.21,21.51,21.51,0,0,1-5.05-5.87c-4.84,4.93-8.27,6.41-14.53,6.41-7.42,0-13.2-4.58-13.2-13.74a15,15,0,0,1,9.4-14.41c4.78-2.1,11.46-2.48,16.58-3.05V74.75c0-2.1.16-4.58-1.07-6.39a5.89,5.89,0,0,0-4.95-2.29c-3.36,0-6.35,1.72-7.09,5.29A1.86,1.86,0,0,1,122.85,73l-8.54-.92A1.55,1.55,0,0,1,113,70.21c2-10.37,11.32-13.5,19.71-13.5,4.29,0,9.9,1.14,13.28,4.39,4.29,4,3.88,9.35,3.88,15.17V90c0,4.13,1.72,5.94,3.33,8.17a1.66,1.66,0,0,1,0,2.34c-1.8,1.51-5,4.29-6.76,5.86Z"/></g></g></svg>