<svg xmlns="http://www.w3.org/2000/svg" viewBox="0 0 454.41 88.17" width="454.41" height="88.17"><defs><style>.cls-1{fill:#726f70;}.cls-2{fill:#047acd;}</style></defs><title>Asset 1</title><g id="Layer_2" data-name="Layer 2"><g id="Layer_1-2" data-name="Layer 1"><path class="cls-1" d="M157.11,11.95a27,27,0,0,1,4.64.39,14.31,14.31,0,0,1,4,1.25,7.7,7.7,0,0,1,2.76,2.24,5.51,5.51,0,0,1,1,3.42A4.76,4.76,0,0,1,168,23a10.76,10.76,0,0,1-3.6,2.06v.1a10.22,10.22,0,0,1,4.14,2.32,6,6,0,0,1,1.69,4.56,6.28,6.28,0,0,1-.68,2.89,6.66,6.66,0,0,1-2,2.32,9.92,9.92,0,0,1-3.26,1.54,16,16,0,0,1-4.38.55H140.8v-.94q1.46,0,1.46-.94V13.82q0-.94-1.46-.94v-.94Zm1,10.74a10.8,10.8,0,0,0,3.88-.6,2.43,2.43,0,0,0,1.54-2.53A2.43,2.43,0,0,0,162,17a10.8,10.8,0,0,0-3.88-.6h-10v6.26Zm0,11.89a8.37,8.37,0,0,0,4.72-1,3.23,3.23,0,0,0,0-5.37,8.37,8.37,0,0,0-4.72-1h-10v7.4Z"/><path class="cls-1" d="M204.35,17.58a1,1,0,0,0-.44-.86,3,3,0,0,0-1.54-.29H185.48v6.46H195.7a3.69,3.69,0,0,0,1.62-.29q.57-.29.57-1.49h.94v8.13h-.94q0-1.2-.57-1.54a3.19,3.19,0,0,0-1.62-.34H185.48v7.2h17.41a2.09,2.09,0,0,0,1.28-.37,1.16,1.16,0,0,0,.5-1h.94v7.14h-.94q0-.78-.5-.89a6.33,6.33,0,0,0-1.28-.1h-24.3v-.94a1,1,0,0,0,.65-.23.86.86,0,0,0,.29-.7V13.82a.86.86,0,0,0-.29-.7,1,1,0,0,0-.65-.24v-.94h23.77a2.6,2.6,0,0,0,1.54-.34,1.09,1.09,0,0,0,.44-.91h.94v6.88Z"/><path class="cls-1" d="M215.4,30.77l.52.26a1.65,1.65,0,0,0,.21.83,3.7,3.7,0,0,0,1.43,1.22A14.52,14.52,0,0,0,220,34.16a21.25,21.25,0,0,0,2.89.76,14.65,14.65,0,0,0,2.71.29q.88,0,2.29-.13a13.63,13.63,0,0,0,2.76-.55A7.75,7.75,0,0,0,233,33.37a2.28,2.28,0,0,0,1-1.93,2,2,0,0,0-.91-1.77,6.65,6.65,0,0,0-2.4-.83,26,26,0,0,0-3.39-.34q-1.9-.08-3.88-.23a35,35,0,0,1-3.88-.52,10.73,10.73,0,0,1-3.39-1.22,6.74,6.74,0,0,1-2.4-2.35,7.33,7.33,0,0,1-.91-3.88,7.24,7.24,0,0,1,.76-3.18,7.72,7.72,0,0,1,2.32-2.76,12.77,12.77,0,0,1,4-2,18.79,18.79,0,0,1,5.63-.76,24.21,24.21,0,0,1,4.8.42,36,36,0,0,1,3.52.89q1.49.47,2.5.89a4.66,4.66,0,0,0,1.7.42,1.44,1.44,0,0,0,1-.31l.63.42-3.6,6.52-.52-.21a2.91,2.91,0,0,0-.42-1.2,4.47,4.47,0,0,0-1.38-1.23,12,12,0,0,0-2.27-1.07,18.53,18.53,0,0,0-2.81-.76,16.29,16.29,0,0,0-3-.29,16,16,0,0,0-2.37.18,11.19,11.19,0,0,0-2.22.55,4.91,4.91,0,0,0-1.64,1,1.94,1.94,0,0,0-.65,1.49,2.13,2.13,0,0,0,.91,1.88,6.65,6.65,0,0,0,2.4.94,22.59,22.59,0,0,0,3.39.42q1.9.1,3.88.26a31.65,31.65,0,0,1,3.88.55,11.22,11.22,0,0,1,3.39,1.25,6.81,6.81,0,0,1,2.4,2.32,7.08,7.08,0,0,1,.91,3.81,6.69,6.69,0,0,1-1.44,4.43A10.11,10.11,0,0,1,235,37.86a16.1,16.1,0,0,1-4.62,1.33,34.19,34.19,0,0,1-4.61.34,30.67,30.67,0,0,1-5-.34,18.49,18.49,0,0,1-3.34-.83,22.25,22.25,0,0,1-2.11-.89,3.13,3.13,0,0,0-1.36-.39.87.87,0,0,0-.68.42l-.73-.42Z"/><path class="cls-1" d="M262.53,37.49q0,.94,1.15.94v.94h-8v-.94a1,1,0,0,0,.65-.23.86.86,0,0,0,.29-.7V16.74H248a1.77,1.77,0,0,0-.91.26,1.05,1.05,0,0,0-.44,1h-.94v-7.3h.94a1,1,0,0,0,.44,1,1.77,1.77,0,0,0,.91.26h23.15a1.77,1.77,0,0,0,.91-.26,1.05,1.05,0,0,0,.44-1h.94V18h-.94a1.05,1.05,0,0,0-.44-1,1.78,1.78,0,0,0-.91-.26h-8.6Z"/><path class="cls-1" d="M140.43,83.93V83q1.93,0,1.93-.94V58.39q0-.94-1.93-.94v-.94h18.35a14.42,14.42,0,0,1,7.87,1.85q2.87,1.85,2.87,6.28t-2.87,6.28a14.42,14.42,0,0,1-7.87,1.85H148.3v9.28q0,.94,1.67.94v.94Zm19-16a6,6,0,0,0,2.95-.68,2.76,2.76,0,0,0,1.23-2.66A2.76,2.76,0,0,0,162.35,62a6,6,0,0,0-2.95-.68H148.3V68Z"/><path class="cls-1" d="M193.25,56.51a21.39,21.39,0,0,1,4.54.44,10.25,10.25,0,0,1,3.49,1.41,6.48,6.48,0,0,1,2.24,2.5,8.27,8.27,0,0,1,.78,3.78,6.71,6.71,0,0,1-2,5.27,10.93,10.93,0,0,1-5.47,2.45l6.93,9.91a1.41,1.41,0,0,0,.86.63,4.39,4.39,0,0,0,.91.1v.94h-9.75V83a1.91,1.91,0,0,0,.81-.16q.34-.16.34-.42a1.19,1.19,0,0,0-.21-.6q-.21-.34-.63-.91l-5.73-8.13h-7.46v9.28a.8.8,0,0,0,.34.7,2.29,2.29,0,0,0,1.23.23v.94h-9V83q1.51,0,1.51-.94V58.39q0-.94-1.51-.94v-.94Zm-1.36,12.2a14.29,14.29,0,0,0,3.13-.29,5.51,5.51,0,0,0,2-.81,3,3,0,0,0,1-1.22,3.94,3.94,0,0,0,0-3.08,3,3,0,0,0-1-1.23,5.56,5.56,0,0,0-2-.81,14.29,14.29,0,0,0-3.13-.29h-9v7.72Z"/><path class="cls-1" d="M210,83a1.52,1.52,0,0,0,1.07-.68,11.18,11.18,0,0,0,.76-1.3l9.65-20.28q.36-.68.65-1.25a2.3,2.3,0,0,0,.29-1,.77.77,0,0,0-.36-.73,3.08,3.08,0,0,0-.78-.31v-.94h8.81v.94a4.2,4.2,0,0,0-.73.29.76.76,0,0,0-.37.76,2,2,0,0,0,.18.83q.18.42.55,1.09l10.84,21.22a1.77,1.77,0,0,0,.71.83,10.57,10.57,0,0,0,1,.52v.94h-9.18V83a1.23,1.23,0,0,0,.52-.16.5.5,0,0,0,.31-.47,3.24,3.24,0,0,0-.42-1.36l-2-3.86H218.79l-1.88,3.7a4.37,4.37,0,0,0-.52,1.56q0,.57,1,.57v.94H210Zm19.66-9.7-4.38-9.7-4.9,9.7Z"/><path class="cls-1" d="M277.08,80.18a1.37,1.37,0,0,1-.29,0l-.29,0a4.83,4.83,0,0,0-1.49.63q-1.17.63-3,1.41A26.2,26.2,0,0,1,268,83.52a19.68,19.68,0,0,1-4.8.57,23.59,23.59,0,0,1-6.31-.83,15.72,15.72,0,0,1-5.34-2.58,12.71,12.71,0,0,1-3.68-4.35,14.34,14.34,0,0,1,0-12.17,12.9,12.9,0,0,1,3.68-4.41,16.22,16.22,0,0,1,5.34-2.66,22.32,22.32,0,0,1,6.31-.89,25.64,25.64,0,0,1,4.82.42q2.16.42,3.78.89a20.85,20.85,0,0,1,2.55.89,4.61,4.61,0,0,0,1.15.42.53.53,0,0,0,.44-.26l.29-.42.78.63-4.07,6.31-.52-.36a1.89,1.89,0,0,0,0-.31c0-.1,0-.23-.08-.36q-.1-.57-1-1.17a10.81,10.81,0,0,0-2.32-1.07A23.91,23.91,0,0,0,266,61a14.29,14.29,0,0,0-2.84-.31,14,14,0,0,0-4.2.63,10.45,10.45,0,0,0-3.49,1.83,8.93,8.93,0,0,0-2.37,2.95,9.42,9.42,0,0,0,0,8A8.91,8.91,0,0,0,255.47,77,10.43,10.43,0,0,0,259,78.83a14,14,0,0,0,4.2.63,16.68,16.68,0,0,0,3.49-.39,21,21,0,0,0,3.34-1,11.07,11.07,0,0,0,2.53-1.36q1-.76,1-1.43a1,1,0,0,0-.21-.62l.73-.42,3.44,5.53Z"/><path class="cls-1" d="M300.18,82.06q0,.94,1.15.94v.94h-8V83a1,1,0,0,0,.65-.23.86.86,0,0,0,.29-.7V61.31h-8.6a1.79,1.79,0,0,0-.91.26,1.05,1.05,0,0,0-.44,1h-.94v-7.3h.94a1.05,1.05,0,0,0,.44,1,1.78,1.78,0,0,0,.91.26h23.15a1.78,1.78,0,0,0,.91-.26,1.05,1.05,0,0,0,.44-1h.94v7.3h-.94a1.05,1.05,0,0,0-.44-1,1.79,1.79,0,0,0-.91-.26h-8.6Z"/><path class="cls-1" d="M317.49,83q1.35,0,1.36-.94V58.39q0-.94-1.36-.94v-.94h8.66v.94q-1.36,0-1.36.94V82.06q0,.94,1.36.94v.94h-8.66Z"/><path class="cls-1" d="M363.94,80.18a1.37,1.37,0,0,1-.29,0l-.29,0a4.83,4.83,0,0,0-1.49.63q-1.17.63-3,1.41a26.2,26.2,0,0,1-4.09,1.36,19.68,19.68,0,0,1-4.8.57,23.59,23.59,0,0,1-6.31-.83,15.72,15.72,0,0,1-5.34-2.58,12.71,12.71,0,0,1-3.68-4.35,14.34,14.34,0,0,1,0-12.17,12.9,12.9,0,0,1,3.68-4.41,16.22,16.22,0,0,1,5.34-2.66A22.32,22.32,0,0,1,350,56.2a25.64,25.64,0,0,1,4.82.42q2.16.42,3.78.89a20.85,20.85,0,0,1,2.55.89,4.61,4.61,0,0,0,1.15.42.53.53,0,0,0,.44-.26l.29-.42.78.63-4.07,6.31-.52-.36a1.89,1.89,0,0,0,0-.31c0-.1,0-.23-.08-.36q-.1-.57-1-1.17a10.81,10.81,0,0,0-2.32-1.07,23.91,23.91,0,0,0-2.92-.78,14.29,14.29,0,0,0-2.84-.31,14,14,0,0,0-4.2.63,10.45,10.45,0,0,0-3.49,1.83A8.93,8.93,0,0,0,340,66.08a9.42,9.42,0,0,0,0,8A8.91,8.91,0,0,0,342.33,77a10.43,10.43,0,0,0,3.49,1.83,14,14,0,0,0,4.2.63,16.68,16.68,0,0,0,3.49-.39,21,21,0,0,0,3.34-1,11.07,11.07,0,0,0,2.53-1.36q1-.76,1-1.43a1,1,0,0,0-.21-.62l.73-.42,3.44,5.53Z"/><path class="cls-1" d="M369.26,83a1.53,1.53,0,0,0,1.07-.68,11.25,11.25,0,0,0,.76-1.3l9.65-20.28q.36-.68.65-1.25a2.3,2.3,0,0,0,.29-1,.77.77,0,0,0-.37-.73,3.07,3.07,0,0,0-.78-.31v-.94h8.81v.94a4.23,4.23,0,0,0-.73.29.76.76,0,0,0-.36.76,2,2,0,0,0,.18.83q.18.42.55,1.09l10.84,21.22a1.78,1.78,0,0,0,.7.83,10.6,10.6,0,0,0,1,.52v.94h-9.18V83a1.23,1.23,0,0,0,.52-.16.5.5,0,0,0,.31-.47,3.25,3.25,0,0,0-.42-1.36l-2-3.86H378.07l-1.88,3.7a4.38,4.38,0,0,0-.52,1.56q0,.57,1,.57v.94h-7.4Zm19.66-9.7-4.38-9.7-4.9,9.7Z"/><path class="cls-1" d="M432.86,84.93q0-.78-.5-.89a6.34,6.34,0,0,0-1.28-.1H406.27V83q1.56,0,1.56-.94V58.39q0-.94-1.56-.94v-.94h9v.94q-1.46,0-1.46.94V79.14h17.31a2.1,2.1,0,0,0,1.28-.36,1.17,1.17,0,0,0,.5-1h.94v7.14Z"/><path class="cls-1" d="M441.35,65.95V58.52h-2.78v-1h6.68v1h-2.79v7.43Z"/><path class="cls-1" d="M446.36,65.95V57.52H448l2,6q.28.83.4,1.25.14-.46.45-1.35l2-5.86h1.5v8.43h-1.08V58.9l-2.45,7.05h-1l-2.44-7.17v7.17Z"/><g id="IV7j3W.tif"><path class="cls-1" d="M50.91,44.11c0-14,0-27.91,0-41.87,0-1.44.4-2.1,1.83-2.05a1.9,1.9,0,0,0,.29,0c3.57-.44,4.06,0,4.06,3.46q0,41.14,0,82.28c0,1.49-.39,2.2-1.9,2.15-.24,0-.48.06-.72.07-3.25.21-3.56-.08-3.56-3.3Q50.91,64.46,50.91,44.11Z"/><path class="cls-2" d="M24.75,44.84c.33,1.13-.39,1.9-1.37,2.71q-9.84,8-19.59,16.14c-1,.82-1.46.79-2.25-.22C-.35,61-.4,61.05,2,59.1,7.49,54.56,13,50,18.55,45.5c.9-.73.88-1.08,0-1.8C12.61,38.89,6.76,34,.81,29.2c-1.09-.88-1-1.39-.18-2.35,2-2.26,1.94-2.3,4.29-.36,6.31,5.19,12.6,10.4,19,15.53C24.84,42.8,24.74,43.66,24.75,44.84Z"/><path class="cls-2" d="M67.37,44.64c-.41-1.41.31-2.18,1.29-3q9.9-8.06,19.7-16.23c.9-.75,1.34-.68,2,.2,2,2.53,2,2.51-.45,4.57C84.47,34.71,79,39.24,73.5,43.7c-.93.75-.84,1.1,0,1.8,6,4.85,11.87,9.75,17.83,14.6.83.68,1,1.11.23,2-2.15,2.48-2.1,2.53-4.69.4-6.08-5-12.14-10-18.25-15C67.66,46.71,66.91,45.94,67.37,44.64Z"/><path class="cls-2" d="M84.07,44.6c-.37-1.39.28-2.14,1.23-2.92q9.9-8,19.7-16.23c1-.81,1.43-.67,2.15.25,1.94,2.46,2,2.43-.49,4.47-5.41,4.45-10.79,8.92-16.24,13.32-1.05.85-1.18,1.25,0,2.17,5.94,4.79,11.8,9.69,17.73,14.5.84.68.91,1.07.19,1.92-2.16,2.52-2.13,2.57-4.67.47-6-5-12.07-10-18.14-14.91C84.44,46.79,83.49,46,84.07,44.6Z"/><path class="cls-2" d="M41.37,44.61c.4,1.34-.32,2.12-1.3,2.93q-9.9,8.06-19.7,16.23c-.87.72-1.31.73-2-.18-2-2.55-2.08-2.52.42-4.57,5.48-4.51,10.95-9,16.46-13.52.89-.72.9-1.07,0-1.8-6-4.84-11.87-9.76-17.82-14.61-.83-.68-1.06-1.1-.26-2,2.16-2.51,2.11-2.54,4.7-.41,6.07,5,12.14,10,18.25,15C41.08,42.48,41.75,43.27,41.37,44.61Z"/></g></g></g></svg>