<svg version="1.0" xmlns="http://www.w3.org/2000/svg" width="354.667" height="402.667" viewBox="0 0 266 302"><g fill="white"><path d="M60.7 1.4c-2.2.8-5 2.5-6.4 3.8C48.7 10.4 49 4.3 49 118c0 57.7.3 105 .8 105 .4 0 4.8-2.4 9.7-5.3l9-5.3.3-94.7c.1-52.1.4-94.7.6-94.7.2 0 169.2 97.4 172.9 99.7.5.3-3 2.7-7.7 5.5-4.8 2.7-8.4 5.3-8.1 5.8.2.4 4.6 3.1 9.6 6l9.2 5.2 3.2-1.8c9.4-5 14-8.9 15.9-13.5 2.7-6.7 1.6-12.9-3.2-18-2.6-2.6-31.5-19.9-93.7-55.7C118 27.6 76.1 3.6 74.5 2.7 69.8.3 64.9-.1 60.7 1.4z"/><path d="M12.3 29.1C7.8 30.4 2.3 36.2 1 40.9.3 43.6.1 79.3.2 153.2l.3 108.4 2.7 4.1c3.6 5.5 10.4 8.8 16.3 8 3.4-.5 25.3-12.7 94.7-52.8 49.7-28.6 90.4-52.2 90.5-52.3.1-.1-4.3-2.8-9.8-6l-10-5.7-81.6 47C58.5 229.8 21.4 251 20.9 251s-.9-40.2-.9-100c0-60 .4-100 .9-100s4.4 2 8.5 4.5c4.2 2.5 7.9 4.5 8.2 4.5.2 0 .3-5.3.2-11.7l-.3-11.7-8.3-4.3c-8.4-4.4-11.1-4.9-16.9-3.2z"/><path d="M79.2 72.7l.3 11.7 81.8 47.2 81.8 47.2-3.3 2c-6.5 4-170 98.2-170.4 98.2-.2 0-.4-4.5-.4-10.1 0-5.5-.4-9.9-.8-9.7-.4.1-4.9 2.7-10 5.6l-9.2 5.4v9.4c0 10.5 1 13.6 6 17.8 4.5 3.8 10.1 5.2 14.9 3.8 3.2-1 173.1-98.3 187.1-107.2 6-3.9 8.4-8.1 8.5-15.1 0-10.9 5.1-7.5-93.5-64.4-48.6-28.1-89.4-51.6-90.7-52.3l-2.4-1.3.3 11.8z"/></g></svg>
