<svg xmlns="http://www.w3.org/2000/svg" viewBox="0 0 703.17 63.24" width="703.17" height="63.24"><defs><style>.cls-1,.cls-2{fill:#fff;}.cls-2{fill-rule:evenodd;}</style></defs><title>Asset 2</title><g id="Layer_2" data-name="Layer 2"><g id="Layer_1-2" data-name="Layer 1"><path class="cls-1" d="M20.19,35a4.4,4.4,0,0,0,4.4,4.4H78.92a6.14,6.14,0,1,0,0-12.29l-54.87,0a3.86,3.86,0,0,1-3.86-3.86V35Z"/><path class="cls-1" d="M0,5.23A5.2,5.2,0,0,1,5.22,0L80.8,0a5.08,5.08,0,0,1,5.08,5.08V18.65a4.45,4.45,0,0,0-4.45-4.45H18.53a4.39,4.39,0,0,0-4.38,4.41v40A4.45,4.45,0,0,0,18.61,63H5.08A5.08,5.08,0,0,1,0,57.94L0,5.23Z"/><path class="cls-1" d="M407.79,58.57A4.45,4.45,0,0,0,412.24,63H398.71a5.08,5.08,0,0,1-5.08-5.08l0-53.46A4.45,4.45,0,0,0,389.21,0h13.53a5.08,5.08,0,0,1,5.08,5.08l0,53.46Z"/><path class="cls-1" d="M303.17,14.23a5.59,5.59,0,0,1-5.59-5.59v-3A5.63,5.63,0,0,1,303.17,0h74.09a5.08,5.08,0,0,1,5.08,5.08V18.65a4.45,4.45,0,0,0-4.45-4.45H335.46a4.39,4.39,0,0,0-4.38,4.41v40A4.45,4.45,0,0,0,335.55,63H322a5.08,5.08,0,0,1-5.08-5.08l0-43.7Z"/><path class="cls-1" d="M287.55,49.18v9.35A4.45,4.45,0,0,0,292,63H278.47a5.08,5.08,0,0,1-5.08-5.08l0-18.58-46.79,0a4.4,4.4,0,0,1-4.4-4.4V23.24a3.86,3.86,0,0,0,3.86,3.86l47.85,0V14.17l-53.38,0a4.39,4.39,0,0,0-4.38,4.41v40A4.45,4.45,0,0,0,220.63,63H207.1A5.08,5.08,0,0,1,202,57.94l0-52.71a5.2,5.2,0,0,1,5.2-5.2l75.58,0a5.08,5.08,0,0,1,5.08,5.08v7l0,17.06c0,5.71-5,10-10.71,10a10,10,0,0,1,10.32,10Z"/><polygon class="cls-1" points="98.49 39.84 98.49 23.2 122.99 23.2 122.99 39.84 98.49 39.84 98.49 39.84"/><path class="cls-1" d="M494.74,14.23v43.7A5.08,5.08,0,0,0,499.81,63h13.53a4.45,4.45,0,0,1-4.45-4.45l0-53.3a5.2,5.2,0,0,0-5.2-5.2H428.19a5.2,5.2,0,0,0-5.2,5.2l0,52.67A5.08,5.08,0,0,0,428,63h13.53a4.45,4.45,0,0,1-4.45-4.45l0-40a4.39,4.39,0,0,1,4.41-4.38l53.17,0Z"/><polygon class="cls-1" points="154.06 0.07 154.06 16.7 129.49 16.7 129.49 0.07 154.06 0.07 154.06 0.07"/><polygon class="cls-1" points="154.06 46.34 154.06 62.98 129.49 62.98 129.49 46.34 154.06 46.34 154.06 46.34"/><polygon class="cls-1" points="160.56 39.84 160.56 23.2 185.07 23.2 185.07 39.84 160.56 39.84 160.56 39.84"/><path class="cls-1" d="M123,.06V16.7H98.49V14.56A14.56,14.56,0,0,1,113,0L123,.06Z"/><path class="cls-1" d="M160.56.06V16.7h24.5V14.56A14.56,14.56,0,0,0,170.51,0l-9.94.06Z"/><path class="cls-1" d="M123,62.92V46.28H98.49v2.14A14.56,14.56,0,0,0,113,63l9.94-.06Z"/><path class="cls-1" d="M160.56,62.92V46.28h24.5v2.14A14.56,14.56,0,0,1,170.51,63l-9.94-.06Z"/><path class="cls-1" d="M624,14.23a5.59,5.59,0,0,1-5.59-5.59v-3A5.63,5.63,0,0,1,624,0h74.09a5.08,5.08,0,0,1,5.08,5.08V18.65a4.45,4.45,0,0,0-4.45-4.45H656.29a4.39,4.39,0,0,0-4.38,4.41v40A4.45,4.45,0,0,0,656.38,63H642.85a5.08,5.08,0,0,1-5.08-5.08V14.23Z"/><path class="cls-1" d="M542.78,35a4.4,4.4,0,0,0,4.4,4.4H595.5a6.14,6.14,0,0,0,0-12.29l-48.86,0a3.86,3.86,0,0,1-3.86-3.86V35Z"/><path class="cls-1" d="M541.14,14.28a4.39,4.39,0,0,0-4.41,4.38V48.92L604,49a4.45,4.45,0,0,0,4.45-4.45V57.94A5.08,5.08,0,0,1,603.39,63l-75.58,0a5.2,5.2,0,0,1-5.2-5.2V5.23a5.2,5.2,0,0,1,5.2-5.2l75.58,0a5.08,5.08,0,0,1,5.08,5.08V18.7A4.45,4.45,0,0,0,604,14.24l-62.88,0Z"/><path class="cls-2" d="M689.35,56.09a6.15,6.15,0,1,1,6.15,6.15,6.15,6.15,0,0,1-6.15-6.15Zm-1,0a7.15,7.15,0,1,1,7.15,7.15,7.15,7.15,0,0,1-7.15-7.15Zm6.32-3.25v2.7h.61q.81,0,.81-1.39a2.18,2.18,0,0,0-.12-.78.88.88,0,0,0-.28-.42.83.83,0,0,0-.47-.11Zm-1.38-1.56h2a3.69,3.69,0,0,1,.89.08,1.32,1.32,0,0,1,.62.44,2.49,2.49,0,0,1,.49,1,5,5,0,0,1,.18,1.38,3.13,3.13,0,0,1-.89,2.53l1.16,4.21h-1.5l-.84-3.81h-.71V60.9h-1.38V51.29Z"/></g></g></svg>