<svg xmlns="http://www.w3.org/2000/svg" viewBox="0 0 788.51 214.73"><defs><style>.cls-1{fill:#f48da1;}.cls-2{fill:#293896;}.cls-3{fill:#fff;}.cls-4{fill:#fff203;}.cls-5,.cls-9{fill:none;}.cls-5{stroke:#293896;stroke-width:0.2px;}.cls-6{fill:#ef4056;}.cls-7{fill:#f386a7;}.cls-8{fill:#231f20;}</style></defs><title>Asset 1</title><g id="Layer_2" data-name="Layer 2"><g id="Layer_1-2" data-name="Layer 1"><rect class="cls-1" x="1.59" y="1.42" width="147.6" height="129.63"/><path class="cls-2" d="M97.44,81.16c-3.05.42-9,1-11.91,1.32-2.62.27-5.46.4-8.41.57-2.63.15-5.37,0-8.16,0a69.43,69.43,0,0,1-8.43-.33c-5.75-.69-6.95-1.5-8.5-1.69a84.18,84.18,0,0,1-8.31-1.56,42.41,42.41,0,0,0-5.84-1,9.17,9.17,0,0,1-.72-1.31,46.86,46.86,0,0,1-2.92-8A103.91,103.91,0,0,1,32,58.33a15.45,15.45,0,0,0-1.14-4c-.76-2.53-.5-4-.63-6.82S30,38,30.13,35.2a29.57,29.57,0,0,1,1.11-7.64,42.81,42.81,0,0,1,3.15-8c1-2.16,1.53-4.14,3-6.06,1.7-2.2,2.11-3.18,3-4a4,4,0,0,1,.8-.24c2.08-.69,4-.9,5.06-1.24.26,0,1.35.09,1.6.09.47,0,3.47.1,7.94.21,2.34.05,5.07.27,8,.33,2.67.07,5.54.09,8.5.15,2.7,0,5.48-.08,8.24,0,2.55,0,5.1.23,7.56.25,2.67,0,5.25-.09,7.65-.12,2.72,0,5.22-.13,7.39-.21a65.14,65.14,0,0,0,7.24-.38,33.33,33.33,0,0,1,6.32-.8,5.3,5.3,0,0,1,1,.47,24.65,24.65,0,0,1,3.5,2.18,101.9,101.9,0,0,0,.11,11.59c.26,2.49.7,5.32,1.08,8.23.36,2.74.54,4.92.93,7.57s1.35,6.47,1.67,8.61c.61,3.88.77,1.79,1.31,5,.71,4.2.31,3.76.78,8.6a61.74,61.74,0,0,1-.63,11.37c-.45,2.85-1.64,5.06-2.57,5.45a44.17,44.17,0,0,1-6.9,1.5c-3.17.5-2.91.13-4.81.5a58.21,58.21,0,0,1-9.37,1.09c-3.13.3-.74.56-4.4,1.06-.27,0-.65.3-1,.35"/><path class="cls-3" d="M45.64,14.09c1.1-2.42,2.06-2.24,4.35-2.4a27.56,27.56,0,0,1,5.19.61c1.45.23,1.47-.21,3.38.31a28.8,28.8,0,0,0,3.91.63c1.74.26,7,1.42,9.05,1.64,1.84.18,3.79,1.16,5.77,1.3s3.81.31,5.72.4,3.84.14,5.69.2,3.92-.36,5.72-.38c2,0,3.84-.38,5.47-.51a25.24,25.24,0,0,0,5.26-.86,11.74,11.74,0,0,1,5.73-.29,5.13,5.13,0,0,1,4.26,3c.64,1.43.26,2.82.63,5.39.19,1.23-.39,3.28-.42,5.79,0,1.71.07,3.64.09,5.68,0,1.86.29,3.81.33,5.79s0,3.87.07,5.77.16,4,.23,5.78c.06,2.06.11,3.94.16,5.54.13,3.31.61,2.47.3,5.51-.29,2.77.62,3.29-2,5.36a9.5,9.5,0,0,1-5.06,2.1c-.71.07-2.52.65-5.23,1.31-1.5.38-3.27.77-5.25,1.22-1.59.36-3.42.61-5.29,1-1.68.32-3.41.51-5.26.81-1.67.27-3.49.34-5.28.56s-3.46,0-5.22.2-3.29.29-5,.37c-1.37.06,0,.45-.71.69-1.69.56-2.14.36-5.35.3-1.61,0-3.2,0-5.17-.12-1.71-.1-3.62-.26-5.4-.45s-3.51-.74-5.19-1.07c-1.89-.37-3.8-.35-5.28-.95-1.88-.75-3.41-1.52-4.09-2.72-.54-1-.68-3.22-.89-5.66-.12-1.57,0-3.4,0-5.4,0-1.66-.31-3.44-.26-5.32s0-3.56.12-5.42.16-3.53.29-5.31.63-3.54.78-5.3.48-3.52.66-5.23.13-3.49.32-5.12c.22-1.81.66-3.49.89-5.07.27-2,.08-3.77.34-5.22a10,10,0,0,1,1.66-4.45"/><path class="cls-2" d="M136,115a32,32,0,0,1-8.9,1.33c-1.89,0-4.64.24-8,.39-2.41.1-4.92-.33-7.91-.16-2.42.14-5,.11-7.75.29s-5.53.52-8.44.74c-2.63.2-4.13-.12-6.87.12s-4.92-.66-7.75-.4c-2.56.26-7,.3-9.52.56s-5.62,1.32-8.18,1.62-4.82.11-7.35.44-5.68,1.22-8.16,1.59-5.13.82-7.48,1.25c-2.54.46-5,.73-7.1,1.23-2,.44-3.72,1.13-5.29,1.61a60.32,60.32,0,0,1-8.93,2.14c-4.87.67-7-.32-8.37-2.28-1.19-1.75-1.61-4.56-1.93-7a42.4,42.4,0,0,0-.79-4.31c-.75-4-1.4-6.55,1-9.08a20.18,20.18,0,0,1,6-4c3.7-2,2.23-1.71,7.48-3.82q3.11-1.25,7.65-2.72c2.34-.76,5.07-1.26,8-2.07q3.65-1,7.94-2c2.54-.58,5.19-1.37,8.08-1.92q3.84-.75,8.1-1.43c2.73-.45,5.62-.76,8.62-1.16,2.67-.35,5.45-.6,8.34-.91,2.57-.27,5.19-.76,7.93-1s6.36,0,9.18-.15c2.5-.16,4.14-.66,6.78-.79s5.22-.18,7.92-.26,5.34-.16,8.12-.2c2.3,0,4.65-.17,7-.19,3.89,0,7.69.21,9.66,1.48,2.95,1.88,2.61,3,2.73,6.71.14,4.18-.26,2.15.42,6.28.73,4.46.83,8.35,1.12,12.23.16,2-1.18,3.75-3.44,5.8"/><path class="cls-3" d="M28.85,108.25a2.5,2.5,0,0,0,2.51-2.61,2.72,2.72,0,0,0-2.51-2.85,2.58,2.58,0,0,0-2.33,2.85,2.36,2.36,0,0,0,2.33,2.61"/><path class="cls-3" d="M43.93,115.75a2.52,2.52,0,0,0,2.58-2.6,2.4,2.4,0,0,0-2.58-2.31,2.31,2.31,0,0,0-2.47,2.31c0,3.4,1.79,2.49,2.47,2.6"/><path class="cls-3" d="M35.41,117.55A2.74,2.74,0,0,0,38,114.86a2.56,2.56,0,0,0-2.61-2.49,2.35,2.35,0,0,0-2.34,2.49,2.52,2.52,0,0,0,2.34,2.69"/><path class="cls-3" d="M68.53,106.81a2.74,2.74,0,0,0,2.62-2.68,2.43,2.43,0,0,0-2.62-2.3c-1.39,0-3.09.56-2.49,2.37.44,1.32,1.1,2.6,2.49,2.6"/><path class="cls-3" d="M54.19,109.84a2.34,2.34,0,0,0,2.33-2.36,2.26,2.26,0,0,0-2.33-2.27,2.11,2.11,0,0,0-2.12,2.27,2.19,2.19,0,0,0,2.12,2.36"/><path class="cls-3" d="M47.45,108c1.35.3,2.42-1.17,2.42-2.55a2.47,2.47,0,0,0-2.42-2.56A2.52,2.52,0,0,0,45,105.41c0,1.39,0,2,2.49,2.55"/><path class="cls-3" d="M62.43,98.9c1.39,0,2.48-.36,2.48-1.75a2.62,2.62,0,0,0-2.71-2.43,2.55,2.55,0,0,0-2.64,2.43c0,1.4,1.49,1.75,2.88,1.75"/><path class="cls-3" d="M69.55,95.21a2.59,2.59,0,0,0,2.64-2.48,2.65,2.65,0,0,0-5.27,0,2.57,2.57,0,0,0,2.63,2.48"/><path class="cls-4" d="M26.72,117.7a1.8,1.8,0,0,0,1.82-1.88,2,2,0,0,0-1.82-2.06A1.86,1.86,0,0,0,25,115.82a1.7,1.7,0,0,0,1.68,1.88"/><path class="cls-4" d="M48.44,97.76a2,2,0,0,0,1.89-1.94A1.85,1.85,0,0,0,48.44,94a1.69,1.69,0,0,0-1.69,1.8,1.82,1.82,0,0,0,1.69,1.94"/><path class="cls-4" d="M39.9,106.42c1,0,1.79-.26,1.79-1.27a1.88,1.88,0,0,0-2-1.75,1.83,1.83,0,0,0-1.91,1.75c0,1,1.07,1.27,2.07,1.27"/><path class="cls-4" d="M62.1,110.85A1.87,1.87,0,0,0,64,109.07a1.91,1.91,0,0,0-3.81,0,1.85,1.85,0,0,0,1.89,1.78"/><path class="cls-4" d="M98.15,111.76a3.65,3.65,0,0,0,3.56-3.62,3.7,3.7,0,0,0-3.64-3.59,3.38,3.38,0,0,0-3.24,3.61,3.43,3.43,0,0,0,3.31,3.6"/><path class="cls-4" d="M94,99.66A3.81,3.81,0,0,0,97.67,96,3.64,3.64,0,0,0,94,92.57,3.35,3.35,0,0,0,90.57,96,3.53,3.53,0,0,0,94,99.66"/><path class="cls-4" d="M114.7,100.6a3.33,3.33,0,0,0,3.45-3.35A3.26,3.26,0,0,0,114.7,94a3.05,3.05,0,0,0-3.2,3.26,3.13,3.13,0,0,0,3.2,3.35"/><path class="cls-4" d="M107.34,107.42a3.73,3.73,0,0,0,3.5-3.75,3.24,3.24,0,0,0-3.5-3.17c-1.94,0-3.83,1.24-3.83,3.17a4,4,0,0,0,3.83,3.75"/><path class="cls-5" d="M85.1,50.91v1.84m-12-3.28v1.65M51.6,56.06l-1.13,2M109.9,44.41l-.07,2.31m-7.76-17.19L98.75,40.34m-14.43,7.6L60.72,34.68v-3M74.24,47.18l10.08.77m13.61-5.59L84.36,49.24l-3.1-8.95M61.13,34.77l19.79,3,20.93-6.89,8.25,10L98.75,43m-39-6.9L52.38,53.37l21.17-7.11L102.23,30V27m-51.46,37L53.27,59l-4.92-2.5-2.51,4.9ZM75.89,51H70.37v5.51h5.52ZM88.09,52.5H82.56V58h5.53Zm24.77-5.71h-5.52v5.5h5.52ZM105,21.53H99.52v5.52H105ZM63.54,26H58v5.52h5.52Z"/><path class="cls-6" d="M102,34.23a2.57,2.57,0,1,0-2.59-2.56A2.56,2.56,0,0,0,102,34.23"/><path class="cls-6" d="M73.25,49.77a2.71,2.71,0,1,0-2.7-2.71,2.71,2.71,0,0,0,2.7,2.71"/><path class="cls-6" d="M81.19,41.06a2.57,2.57,0,1,0-2.57-2.57,2.58,2.58,0,0,0,2.57,2.57"/><path class="cls-7" d="M52.66,56.67a2.57,2.57,0,1,0-2.57-2.56,2.57,2.57,0,0,0,2.57,2.56"/><path class="cls-7" d="M98.67,45a2.57,2.57,0,1,0-2.57-2.57A2.57,2.57,0,0,0,98.67,45"/><path class="cls-4" d="M60.62,38.07A2.57,2.57,0,1,0,58,35.51a2.57,2.57,0,0,0,2.58,2.56"/><path class="cls-4" d="M109.58,44.81A2.57,2.57,0,1,0,107,42.24a2.57,2.57,0,0,0,2.57,2.57"/><path class="cls-4" d="M85.2,51.24a2.57,2.57,0,1,0-2.57-2.57,2.57,2.57,0,0,0,2.57,2.57"/><path class="cls-8" d="M244.91,27C242.58,15.22,233.17,9.3,221.68,9.3c-19.75,0-28.11,16.26-28.11,33.57,0,18.93,8.36,34.73,28.22,34.73,14.52,0,22.89-10.23,23.93-23.93h11c-2.09,20.68-15,33.22-35.89,33.22-25.79,0-38.33-19-38.33-43.21S196.24,0,221.79,0c17.31,0,31.6,9.3,34.15,27Z"/><path class="cls-8" d="M265.93,2h9.88V33.69H276c3.25-7.2,11.73-10.22,18.93-10.22,15.8,0,20.67,9.06,20.67,22V84.92h-9.87V44.26c0-7.32-4.65-12.08-12.2-12.08-12,0-17.77,8-17.77,18.81V84.92h-9.88Z"/><path class="cls-8" d="M377,65.86c-2.67,13.24-12.2,20.45-25.67,20.45-19.17,0-28.23-13.24-28.81-31.6,0-18,11.85-31.24,28.23-31.24,21.26,0,27.76,19.86,27.18,34.38H333c-.35,10.45,5.58,19.75,18.7,19.75,8.14,0,13.83-3.95,15.57-11.73Zm-9.53-16.72c-.46-9.41-7.54-17-17.31-17-10.34,0-16.49,7.78-17.19,17Z"/><path class="cls-8" d="M427.85,44.14c-1.51-7.55-6.73-12-14.87-12-14.29,0-18.7,11.26-18.7,23.46,0,11,5,22,17.54,22C421.35,77.6,427,72,428.32,63h10.1C436.22,77.6,427,86.31,411.94,86.31c-18.34,0-28.11-12.78-28.11-30.67s9.3-32.17,28.34-32.17c13.6,0,24.52,6.39,25.91,20.67Z"/><polygon class="cls-8" points="446.55 1.98 456.43 1.98 456.43 51.11 483.84 24.86 497.08 24.86 473.27 46.7 498.83 84.92 486.28 84.92 465.72 53.56 456.43 62.15 456.43 84.92 446.55 84.92 446.55 1.98"/><path class="cls-8" d="M534.37,2h36.35c16.5,0,25.45,9.18,25.45,24.51s-9,24.62-25.45,24.51H545.4V84.92h-11Zm11,39.72H567c12.42.12,18.11-5.34,18.11-15.22S579.44,11.27,567,11.27H545.4Z"/><path class="cls-8" d="M628.81,23.47c19,0,29.15,13.82,29.15,31.48s-10.11,31.36-29.15,31.36-29.16-13.83-29.16-31.36,10.11-31.48,29.16-31.48m0,54.13c10.34,0,18.7-8.13,18.7-22.65s-8.36-22.76-18.7-22.76S610.1,40.31,610.1,54.95s8.37,22.65,18.71,22.65"/><path class="cls-8" d="M677.47,14.06H667.6V2h9.87Zm-9.87,10.8h9.86V84.91H667.6Z"/><path class="cls-8" d="M689.9,24.86h9.29v9.53h.23c4.18-7.43,10.91-10.92,19.52-10.92,15.8,0,20.67,9.06,20.67,22V84.92h-9.87V44.26c0-7.32-4.65-12.08-12.2-12.08-12,0-17.77,8-17.77,18.82V84.92H689.9Z"/><path class="cls-8" d="M765.29,24.86h12v8.71h-12V70.86c0,4.53,1.28,5.34,7.44,5.34h4.53v8.71H769.7c-10.21,0-14.28-2.09-14.28-13.13V33.57H745.19V24.86h10.23v-18h9.87Z"/><path class="cls-8" d="M201.8,113.13c-.4-3.76-2.9-5.37-6.51-5.37-2.94,0-5.88,1.06-5.88,4.49,0,3.23,4.2,3.71,8.41,4.66s8.38,2.44,8.38,7.58c0,5.59-5.47,7.84-10.25,7.84-5.89,0-10.85-2.87-10.85-9.27h3.31c0,4.41,3.67,6.32,7.65,6.32,3.16,0,6.65-1,6.65-4.79,0-3.6-4.19-4.22-8.38-5.14s-8.42-2.12-8.42-6.95c0-5.33,4.74-7.68,9.52-7.68,5.36,0,9.44,2.54,9.66,8.31Z"/><path class="cls-8" d="M222.76,104.81c8.35,0,12.57,6.62,12.57,13.75s-4.22,13.75-12.57,13.75-12.57-6.62-12.57-13.75,4.23-13.75,12.57-13.75m0,24.56c6.4,0,9.08-5.52,9.08-10.81s-2.68-10.8-9.08-10.8-9.07,5.51-9.07,10.8,2.68,10.81,9.07,10.81"/><polygon class="cls-8" points="240.77 105.44 258.01 105.44 258.01 108.38 244.26 108.38 244.26 116.73 256.32 116.73 256.32 119.66 244.26 119.66 244.26 131.68 240.77 131.68 240.77 105.44"/><polygon class="cls-8" points="269.48 108.38 260.73 108.38 260.73 105.44 281.72 105.44 281.72 108.38 272.97 108.38 272.97 131.68 269.48 131.68 269.48 108.38"/><polygon class="cls-8" points="310.91 131.68 307.27 131.68 301.27 109.63 301.21 109.63 295.13 131.68 291.5 131.68 284.77 105.44 288.34 105.44 293.48 127.27 293.56 127.27 299.44 105.44 303.23 105.44 309.03 127.27 309.11 127.27 314.44 105.44 317.93 105.44 310.91 131.68"/><path class="cls-8" d="M327.52,105.44h3.86l10.26,26.25h-3.86l-2.86-7.9h-11.1l-2.94,7.9h-3.6Zm-2.61,15.4h8.9l-4.38-12.23h-.07Z"/><path class="cls-8" d="M345.53,105.44h12.36c4.93,0,8,2.68,8,6.87,0,3.16-1.4,5.77-4.55,6.65V119c3.06.59,3.67,2.83,3.94,5.41s.07,5.44,1.54,7.24h-3.9c-1-1.06-.44-3.9-1-6.47s-1-4.74-4.38-4.74H349v11.21h-3.5Zm10.78,12.09c3.27,0,6.07-.85,6.07-4.67,0-2.56-1.4-4.48-4.67-4.48H349v9.15Z"/><polygon class="cls-8" points="372.04 105.44 390.17 105.44 390.17 108.38 375.54 108.38 375.54 116.73 389.17 116.73 389.17 119.66 375.54 119.66 375.54 128.74 390.28 128.74 390.28 131.68 372.04 131.68 372.04 105.44"/><polygon class="cls-8" points="413.32 108.38 404.58 108.38 404.58 105.44 425.56 105.44 425.56 108.38 416.81 108.38 416.81 131.68 413.32 131.68 413.32 108.38"/><polygon class="cls-8" points="429.79 105.44 447.92 105.44 447.92 108.38 433.28 108.38 433.28 116.73 446.92 116.73 446.92 119.66 433.28 119.66 433.28 128.74 448.02 128.74 448.02 131.68 429.79 131.68 429.79 105.44"/><path class="cls-8" d="M472,113.34c-.73-3.72-3.71-5.58-7.35-5.58-6.26,0-8.9,5.15-8.9,10.62,0,6,2.64,11,8.93,11,4.6,0,7.25-3.24,7.57-7.57h3.49c-.65,6.54-4.74,10.52-11.35,10.52-8.17,0-12.14-6-12.14-13.68s4.34-13.82,12.42-13.82c5.48,0,10,2.94,10.81,8.53Z"/><polygon class="cls-8" points="481.44 105.44 484.93 105.44 484.93 116.73 498.75 116.73 498.75 105.44 502.24 105.44 502.24 131.68 498.75 131.68 498.75 119.66 484.93 119.66 484.93 131.68 481.44 131.68 481.44 105.44"/><polygon class="cls-8" points="509.26 105.44 512.98 105.44 526.79 126.72 526.87 126.72 526.87 105.44 530.18 105.44 530.18 131.68 526.36 131.68 512.65 110.62 512.58 110.62 512.58 131.68 509.26 131.68 509.26 105.44"/><path class="cls-8" d="M548.26,104.81c8.34,0,12.57,6.62,12.57,13.75s-4.23,13.75-12.57,13.75-12.57-6.62-12.57-13.75,4.23-13.75,12.57-13.75m0,24.56c6.4,0,9.08-5.52,9.08-10.81s-2.69-10.8-9.08-10.8-9.08,5.51-9.08,10.8,2.68,10.81,9.08,10.81"/><polygon class="cls-8" points="566.09 105.44 569.58 105.44 569.58 128.74 583.49 128.74 583.49 131.68 566.09 131.68 566.09 105.44"/><path class="cls-8" d="M598.36,104.81c8.35,0,12.58,6.62,12.58,13.75s-4.22,13.75-12.58,13.75-12.57-6.62-12.57-13.75,4.24-13.75,12.57-13.75m0,24.56c6.4,0,9.08-5.52,9.08-10.81s-2.68-10.8-9.08-10.8-9.08,5.51-9.08,10.8,2.68,10.81,9.08,10.81"/><path class="cls-8" d="M636.15,128.42a10.28,10.28,0,0,1-8.42,3.9c-7.83,0-12.5-6.4-12.5-13.25,0-7.64,4.19-14.26,12.5-14.26,5.73,0,10.29,2.57,11.28,8.71h-3.49c-.7-4-3.9-5.77-7.79-5.77-6.36,0-9,5.51-9,11.14,0,5.47,3.16,10.47,9,10.47,5.4,0,8.64-3.79,8.42-8.57h-8.38v-2.94h11.51v13.83h-2.21Z"/><rect class="cls-8" x="645.89" y="105.44" width="3.49" height="26.24"/><polygon class="cls-8" points="656.59 105.44 674.72 105.44 674.72 108.38 660.08 108.38 660.08 116.73 673.72 116.73 673.72 119.66 660.08 119.66 660.08 128.74 674.83 128.74 674.83 131.68 656.59 131.68 656.59 105.44"/><path class="cls-8" d="M695.55,113.13c-.41-3.76-2.9-5.37-6.5-5.37-2.95,0-5.88,1.06-5.88,4.49,0,3.23,4.19,3.71,8.42,4.66s8.38,2.44,8.38,7.58c0,5.59-5.48,7.84-10.26,7.84-5.88,0-10.84-2.87-10.84-9.27h3.31c0,4.41,3.68,6.32,7.64,6.32,3.16,0,6.65-1,6.65-4.79,0-3.6-4.18-4.22-8.38-5.14s-8.41-2.12-8.41-6.95c0-5.33,4.73-7.68,9.51-7.68,5.37,0,9.45,2.54,9.67,8.31Z"/><polygon class="cls-8" points="716.46 105.44 719.96 105.44 719.96 128.74 733.85 128.74 733.85 131.68 716.46 131.68 716.46 105.44"/><polygon class="cls-8" points="741.03 108.38 732.28 108.38 732.28 105.44 753.27 105.44 753.27 108.38 744.52 108.38 744.52 131.68 741.03 131.68 741.03 108.38"/><path class="cls-8" d="M757.5,105.44h9c8.08,0,12.61,4,12.61,12.49,0,8.79-3.86,13.75-12.61,13.75h-9Zm3.5,23.31h5.8c2.39,0,8.83-.66,8.83-10.34,0-6.24-2.32-10-8.75-10H761Z"/><rect class="cls-8" x="781.94" y="127.6" width="4.08" height="4.08"/><path class="cls-8" d="M775.84,5.75a6.87,6.87,0,1,1-6.93,6.84,6.83,6.83,0,0,1,6.93-6.84m0,12.73a5.67,5.67,0,0,0,5.64-5.9,5.66,5.66,0,1,0-11.32,0,5.68,5.68,0,0,0,5.68,5.9M773.15,8.6h3.11c1.91,0,2.82.75,2.82,2.3A2.07,2.07,0,0,1,777,13.08l2.3,3.55h-1.34l-2.19-3.45H774.4v3.45h-1.25Zm1.25,3.56h1.31c1.1,0,2.12-.05,2.12-1.32,0-1.07-.92-1.23-1.76-1.23H774.4Z"/><rect class="cls-9" y="0.01" width="788.51" height="214.73"/></g></g></svg>