<svg xmlns="http://www.w3.org/2000/svg" viewBox="0 0 784.44 132.32"><defs><style>.cls-1{fill:#fff;}.cls-2{fill:none;}</style></defs><title>Asset 2</title><g id="Layer_2" data-name="Layer 2"><g id="Layer_1-2" data-name="Layer 1"><path class="cls-1" d="M243.32,27C241,15.22,231.59,9.3,220.09,9.3,200.34,9.3,192,25.56,192,42.87c0,18.93,8.36,34.73,28.22,34.73,14.52,0,22.89-10.23,23.93-23.93h11c-2.09,20.68-15,33.22-35.89,33.22-25.79,0-38.33-19-38.33-43.21S194.65,0,220.21,0c17.31,0,31.6,9.3,34.15,27Z"/><path class="cls-1" d="M264.34,2h9.88V33.69h.23c3.25-7.2,11.73-10.22,18.93-10.22,15.8,0,20.67,9.06,20.67,22V84.92h-9.87V44.26c0-7.32-4.65-12.08-12.2-12.08-12,0-17.77,8-17.77,18.81V84.92h-9.88Z"/><path class="cls-1" d="M375.39,65.86c-2.67,13.24-12.2,20.45-25.67,20.45-19.17,0-28.23-13.24-28.81-31.6,0-18,11.85-31.24,28.23-31.24,21.26,0,27.76,19.86,27.18,34.38h-45C331,68.3,336.95,77.6,350.07,77.6c8.14,0,13.83-3.95,15.57-11.73Zm-9.53-16.72c-.46-9.41-7.54-17-17.31-17-10.34,0-16.49,7.78-17.19,17Z"/><path class="cls-1" d="M426.27,44.14c-1.51-7.55-6.73-12-14.87-12-14.29,0-18.7,11.26-18.7,23.46,0,11,5,22,17.54,22,9.53,0,15.22-5.57,16.49-14.64h10.1c-2.2,14.64-11.37,23.35-26.48,23.35-18.34,0-28.11-12.78-28.11-30.67s9.3-32.17,28.34-32.17c13.6,0,24.52,6.39,25.91,20.67Z"/><polygon class="cls-1" points="444.96 1.98 454.84 1.98 454.84 51.11 482.26 24.86 495.49 24.86 471.68 46.7 497.24 84.92 484.69 84.92 464.13 53.56 454.84 62.15 454.84 84.92 444.96 84.92 444.96 1.98"/><path class="cls-1" d="M532.78,2h36.35c16.5,0,25.45,9.18,25.45,24.51s-9,24.62-25.45,24.51H543.82V84.92h-11Zm11,39.72h21.61c12.42.12,18.11-5.34,18.11-15.22s-5.69-15.22-18.11-15.22H543.82Z"/><path class="cls-1" d="M627.22,23.47c19,0,29.15,13.82,29.15,31.48s-10.11,31.36-29.15,31.36-29.16-13.83-29.16-31.36,10.11-31.48,29.16-31.48m0,54.13c10.34,0,18.7-8.13,18.7-22.65s-8.36-22.76-18.7-22.76-18.71,8.13-18.71,22.76,8.37,22.65,18.71,22.65"/><path class="cls-1" d="M675.88,14.06H666V2h9.87ZM666,24.86h9.86V84.91H666Z"/><path class="cls-1" d="M688.32,24.86h9.29v9.53h.23C702,27,708.75,23.47,717.36,23.47c15.8,0,20.67,9.06,20.67,22V84.92h-9.87V44.26c0-7.32-4.65-12.08-12.2-12.08-12,0-17.77,8-17.77,18.82V84.92h-9.87Z"/><path class="cls-1" d="M763.7,24.86h12v8.71h-12V70.86c0,4.53,1.28,5.34,7.44,5.34h4.53v8.71h-7.55c-10.21,0-14.28-2.09-14.28-13.13V33.57H743.61V24.86h10.23v-18h9.87Z"/><path class="cls-1" d="M200.22,113.13c-.4-3.76-2.9-5.37-6.51-5.37-2.94,0-5.88,1.06-5.88,4.49,0,3.23,4.2,3.71,8.41,4.66s8.38,2.44,8.38,7.58c0,5.59-5.47,7.84-10.25,7.84-5.89,0-10.85-2.87-10.85-9.27h3.31c0,4.41,3.67,6.32,7.65,6.32,3.16,0,6.65-1,6.65-4.79,0-3.6-4.19-4.22-8.38-5.14s-8.42-2.12-8.42-6.95c0-5.33,4.74-7.68,9.52-7.68,5.36,0,9.44,2.54,9.66,8.31Z"/><path class="cls-1" d="M221.17,104.81c8.35,0,12.57,6.62,12.57,13.75s-4.22,13.75-12.57,13.75-12.57-6.62-12.57-13.75,4.23-13.75,12.57-13.75m0,24.56c6.4,0,9.08-5.52,9.08-10.81s-2.68-10.8-9.08-10.8-9.07,5.51-9.07,10.8,2.68,10.81,9.07,10.81"/><polygon class="cls-1" points="239.18 105.44 256.42 105.44 256.42 108.38 242.68 108.38 242.68 116.73 254.74 116.73 254.74 119.66 242.68 119.66 242.68 131.68 239.18 131.68 239.18 105.44"/><polygon class="cls-1" points="267.89 108.38 259.14 108.38 259.14 105.44 280.13 105.44 280.13 108.38 271.39 108.38 271.39 131.68 267.89 131.68 267.89 108.38"/><polygon class="cls-1" points="309.33 131.68 305.68 131.68 299.69 109.63 299.62 109.63 293.55 131.68 289.91 131.68 283.18 105.44 286.75 105.44 291.9 127.27 291.97 127.27 297.85 105.44 301.64 105.44 307.44 127.27 307.52 127.27 312.85 105.44 316.34 105.44 309.33 131.68"/><path class="cls-1" d="M325.94,105.44h3.86l10.26,26.25h-3.86l-2.86-7.9h-11.1l-2.94,7.9h-3.6Zm-2.61,15.4h8.9l-4.38-12.23h-.07Z"/><path class="cls-1" d="M343.94,105.44H356.3c4.93,0,8,2.68,8,6.87,0,3.16-1.4,5.77-4.55,6.65V119c3.06.59,3.67,2.83,3.94,5.41s.07,5.44,1.54,7.24h-3.9c-1-1.06-.44-3.9-1-6.47s-1-4.74-4.38-4.74h-8.52v11.21h-3.5Zm10.78,12.09c3.27,0,6.07-.85,6.07-4.67,0-2.56-1.4-4.48-4.67-4.48h-8.68v9.15Z"/><polygon class="cls-1" points="370.45 105.44 388.58 105.44 388.58 108.38 373.96 108.38 373.96 116.73 387.58 116.73 387.58 119.66 373.96 119.66 373.96 128.74 388.69 128.74 388.69 131.68 370.45 131.68 370.45 105.44"/><polygon class="cls-1" points="411.74 108.38 402.99 108.38 402.99 105.44 423.98 105.44 423.98 108.38 415.23 108.38 415.23 131.68 411.74 131.68 411.74 108.38"/><polygon class="cls-1" points="428.2 105.44 446.33 105.44 446.33 108.38 431.69 108.38 431.69 116.73 445.34 116.73 445.34 119.66 431.69 119.66 431.69 128.74 446.44 128.74 446.44 131.68 428.2 131.68 428.2 105.44"/><path class="cls-1" d="M470.44,113.34c-.73-3.72-3.71-5.58-7.35-5.58-6.26,0-8.9,5.15-8.9,10.62,0,6,2.64,11,8.93,11,4.6,0,7.25-3.24,7.57-7.57h3.49c-.65,6.54-4.74,10.52-11.35,10.52-8.17,0-12.14-6-12.14-13.68s4.34-13.82,12.42-13.82c5.48,0,10,2.94,10.81,8.53Z"/><polygon class="cls-1" points="479.85 105.44 483.34 105.44 483.34 116.73 497.17 116.73 497.17 105.44 500.66 105.44 500.66 131.68 497.17 131.68 497.17 119.66 483.34 119.66 483.34 131.68 479.85 131.68 479.85 105.44"/><polygon class="cls-1" points="507.68 105.44 511.39 105.44 525.21 126.72 525.28 126.72 525.28 105.44 528.59 105.44 528.59 131.68 524.77 131.68 511.06 110.62 510.99 110.62 510.99 131.68 507.68 131.68 507.68 105.44"/><path class="cls-1" d="M546.68,104.81c8.34,0,12.57,6.62,12.57,13.75s-4.23,13.75-12.57,13.75-12.57-6.62-12.57-13.75,4.23-13.75,12.57-13.75m0,24.56c6.4,0,9.08-5.52,9.08-10.81s-2.69-10.8-9.08-10.8-9.08,5.51-9.08,10.8,2.68,10.81,9.08,10.81"/><polygon class="cls-1" points="564.51 105.44 568 105.44 568 128.74 581.9 128.74 581.9 131.68 564.51 131.68 564.51 105.44"/><path class="cls-1" d="M596.77,104.81c8.35,0,12.58,6.62,12.58,13.75s-4.22,13.75-12.58,13.75-12.57-6.62-12.57-13.75,4.24-13.75,12.57-13.75m0,24.56c6.4,0,9.08-5.52,9.08-10.81s-2.68-10.8-9.08-10.8-9.08,5.51-9.08,10.8,2.68,10.81,9.08,10.81"/><path class="cls-1" d="M634.57,128.42a10.28,10.28,0,0,1-8.42,3.9c-7.83,0-12.5-6.4-12.5-13.25,0-7.64,4.19-14.26,12.5-14.26,5.73,0,10.29,2.57,11.28,8.71h-3.49c-.7-4-3.9-5.77-7.79-5.77-6.36,0-9,5.51-9,11.14,0,5.47,3.16,10.47,9,10.47,5.4,0,8.64-3.79,8.42-8.57h-8.38v-2.94h11.51v13.83h-2.21Z"/><rect class="cls-1" x="644.31" y="105.44" width="3.49" height="26.24"/><polygon class="cls-1" points="655.01 105.44 673.13 105.44 673.13 108.38 658.5 108.38 658.5 116.73 672.13 116.73 672.13 119.66 658.5 119.66 658.5 128.74 673.24 128.74 673.24 131.68 655.01 131.68 655.01 105.44"/><path class="cls-1" d="M694,113.13c-.41-3.76-2.9-5.37-6.5-5.37-2.95,0-5.88,1.06-5.88,4.49,0,3.23,4.19,3.71,8.42,4.66s8.38,2.44,8.38,7.58c0,5.59-5.48,7.84-10.26,7.84-5.88,0-10.84-2.87-10.84-9.27h3.31c0,4.41,3.68,6.32,7.64,6.32,3.16,0,6.65-1,6.65-4.79,0-3.6-4.18-4.22-8.38-5.14s-8.41-2.12-8.41-6.95c0-5.33,4.73-7.68,9.51-7.68,5.37,0,9.45,2.54,9.67,8.31Z"/><polygon class="cls-1" points="714.88 105.44 718.38 105.44 718.38 128.74 732.26 128.74 732.26 131.68 714.88 131.68 714.88 105.44"/><polygon class="cls-1" points="739.44 108.38 730.7 108.38 730.7 105.44 751.68 105.44 751.68 108.38 742.94 108.38 742.94 131.68 739.44 131.68 739.44 108.38"/><path class="cls-1" d="M755.91,105.44h9c8.08,0,12.61,4,12.61,12.49,0,8.79-3.86,13.75-12.61,13.75h-9Zm3.5,23.31h5.8c2.39,0,8.83-.66,8.83-10.34,0-6.24-2.32-10-8.75-10h-5.88Z"/><rect class="cls-1" x="780.36" y="127.6" width="4.08" height="4.08"/><path class="cls-1" d="M774.25,5.75a6.87,6.87,0,1,1-6.93,6.84,6.83,6.83,0,0,1,6.93-6.84m0,12.73a5.67,5.67,0,0,0,5.64-5.9,5.66,5.66,0,1,0-11.32,0,5.68,5.68,0,0,0,5.68,5.9M771.57,8.6h3.11c1.91,0,2.82.75,2.82,2.3a2.07,2.07,0,0,1-2.12,2.18l2.3,3.55h-1.34l-2.19-3.45h-1.33v3.45h-1.25Zm1.25,3.56h1.31c1.1,0,2.12-.05,2.12-1.32,0-1.07-.92-1.23-1.76-1.23h-1.66Z"/><path class="cls-2" d="M29.31,54.29a15.45,15.45,0,0,1,1.14,4,103.9,103.9,0,0,0,2.2,10.84,46.86,46.86,0,0,0,2.92,8,9.18,9.18,0,0,0,.72,1.31,42.41,42.41,0,0,1,5.84,1,84.2,84.2,0,0,0,8.31,1.56c1.55.19,2.75,1,8.5,1.69a69.42,69.42,0,0,0,8.43.33c2.79,0,5.53.1,8.16,0,3-.17,5.79-.3,8.41-.57,2.89-.29,8.86-.9,11.91-1.32.38,0,.76-.31,1-.35,3.66-.5,1.26-.76,4.4-1.06a58.22,58.22,0,0,0,9.37-1.09c1.89-.37,1.64,0,4.81-.5a44.16,44.16,0,0,0,6.9-1.5c.93-.39,2.12-2.6,2.57-5.45a61.74,61.74,0,0,0,.63-11.37c-.47-4.84-.08-4.4-.78-8.6-.53-3.25-.7-1.15-1.31-5-.32-2.14-1.28-5.94-1.67-8.61s-.56-4.84-.93-7.57c-.38-2.91-.82-5.74-1.08-8.23a101.9,101.9,0,0,1-.11-11.59A24.65,24.65,0,0,0,116.18,8a5.3,5.3,0,0,0-1-.47,33.33,33.33,0,0,0-6.32.8,65.14,65.14,0,0,1-7.24.38c-2.17.08-4.67.19-7.39.21-2.41,0-5,.13-7.65.12-2.46,0-5-.21-7.56-.25-2.77,0-5.54.09-8.24,0-3-.05-5.82-.08-8.5-.15-3-.06-5.71-.28-8-.33-4.47-.11-7.47-.21-7.94-.21-.25,0-1.34-.12-1.6-.09-1.09.34-3,.55-5.06,1.24a4,4,0,0,0-.8.24c-.85.81-1.27,1.79-3,4-1.48,1.92-2,3.9-3,6.06a42.81,42.81,0,0,0-3.15,8,29.57,29.57,0,0,0-1.11,7.64c-.13,2.78,0,9.51.13,12.27S28.55,51.76,29.31,54.29Zm9.8-4.49c.09-1.74.16-3.53.29-5.31s.63-3.54.78-5.3.48-3.52.66-5.23.13-3.49.32-5.12c.22-1.81.66-3.49.89-5.07.27-2,.08-3.77.34-5.22A10,10,0,0,1,44,14.09c1.1-2.42,2.06-2.24,4.35-2.4a27.56,27.56,0,0,1,5.19.61c1.45.23,1.47-.21,3.38.31a28.8,28.8,0,0,0,3.91.63c1.74.26,7,1.42,9.05,1.64,1.84.18,3.79,1.16,5.77,1.3s3.81.31,5.72.4,3.84.14,5.69.2,3.92-.36,5.72-.38c2,0,3.84-.38,5.47-.51a25.23,25.23,0,0,0,5.26-.86,11.74,11.74,0,0,1,5.73-.29,5.13,5.13,0,0,1,4.26,3c.64,1.43.26,2.82.63,5.39.19,1.23-.39,3.28-.42,5.79,0,1.71.07,3.65.09,5.68,0,1.86.29,3.81.33,5.79s0,3.87.07,5.77.16,4,.23,5.78c.06,2.06.11,3.94.16,5.54.13,3.31.61,2.47.3,5.51-.29,2.77.62,3.29-2,5.36a9.5,9.5,0,0,1-5.06,2.1c-.71.07-2.52.65-5.23,1.31-1.5.38-3.27.77-5.25,1.22-1.59.36-3.42.61-5.29,1-1.68.32-3.41.51-5.26.81-1.67.27-3.49.34-5.28.56s-3.46,0-5.22.2-3.29.29-5,.37c-1.37.06,0,.45-.71.69-1.69.56-2.14.36-5.35.3-1.61,0-3.2,0-5.17-.12-1.71-.1-3.62-.26-5.4-.45s-3.51-.74-5.19-1.07c-1.89-.37-3.8-.35-5.28-.95-1.88-.75-3.41-1.52-4.09-2.72-.54-1-.68-3.22-.89-5.66-.12-1.57,0-3.4,0-5.4,0-1.66-.31-3.44-.26-5.32S39,51.66,39.1,49.8Z"/><path class="cls-2" d="M136.36,90.67c-.12-3.72.22-4.83-2.73-6.71-2-1.27-5.76-1.49-9.66-1.48-2.4,0-4.75.14-7,.19-2.78,0-5.48.11-8.12.2s-5.35.13-7.92.26-4.28.64-6.78.79c-2.82.19-6.52-.07-9.18.15s-5.36.73-7.93,1c-2.89.31-5.67.56-8.34.91-3,.4-5.89.71-8.62,1.16s-5.55.93-8.1,1.43c-2.89.55-5.55,1.34-8.08,1.92q-4.3,1-7.94,2c-3,.81-5.68,1.31-8,2.07Q23.34,96,20.23,97.23C15,99.34,16.45,99.06,12.75,101a20.18,20.18,0,0,0-6,4c-2.41,2.52-1.75,5.07-1,9.08a42.39,42.39,0,0,1,.79,4.31c.32,2.43.74,5.25,1.93,7,1.33,2,3.5,3,8.37,2.28a60.31,60.31,0,0,0,8.93-2.14c1.57-.48,3.31-1.17,5.29-1.61,2.15-.5,4.55-.77,7.1-1.23,2.35-.43,4.87-.84,7.48-1.25s5.5-1.24,8.16-1.59,4.7-.14,7.35-.44,5.56-1.34,8.18-1.62,7-.31,9.52-.56c2.82-.27,5,.63,7.75.4s4.24.08,6.87-.12c2.91-.22,5.73-.56,8.44-.74s5.33-.15,7.75-.29c3-.17,5.5.26,7.91.16,3.4-.15,6.14-.43,8-.39a32,32,0,0,0,8.9-1.33c2.26-2,3.6-3.78,3.44-5.8-.29-3.88-.39-7.77-1.12-12.23C136.1,92.82,136.5,94.84,136.36,90.67Zm-111.22,27a1.7,1.7,0,0,1-1.68-1.88,1.86,1.86,0,0,1,1.68-2.06A2,2,0,0,1,27,115.82,1.8,1.8,0,0,1,25.14,117.7Zm2.13-9.46a2.36,2.36,0,0,1-2.33-2.61,2.58,2.58,0,0,1,2.33-2.85,2.72,2.72,0,0,1,2.51,2.85A2.5,2.5,0,0,1,27.27,108.25Zm6.56,9.31a2.52,2.52,0,0,1-2.34-2.69,2.35,2.35,0,0,1,2.34-2.49,2.56,2.56,0,0,1,2.61,2.49A2.74,2.74,0,0,1,33.83,117.55Zm4.49-11.13c-1,0-2.07-.26-2.07-1.27a1.83,1.83,0,0,1,1.91-1.75,1.88,1.88,0,0,1,2,1.75C40.11,106.17,39.32,106.42,38.31,106.42Zm4,9.33c-.67-.11-2.52.8-2.47-2.6a2.31,2.31,0,0,1,2.47-2.31,2.4,2.4,0,0,1,2.58,2.31A2.52,2.52,0,0,1,42.34,115.75ZM45.86,108c-2.53-.56-2.49-1.17-2.49-2.55a2.52,2.52,0,0,1,2.49-2.56,2.47,2.47,0,0,1,2.42,2.56C48.28,106.79,47.21,108.26,45.86,108Zm1-10.2a1.82,1.82,0,0,1-1.69-1.94A1.69,1.69,0,0,1,46.85,94a1.85,1.85,0,0,1,1.89,1.8A2,2,0,0,1,46.85,97.76Zm5.75,12.08a2.19,2.19,0,0,1-2.12-2.36,2.11,2.11,0,0,1,2.12-2.27,2.26,2.26,0,0,1,2.33,2.27A2.34,2.34,0,0,1,52.6,109.84Zm7.91,1a1.85,1.85,0,0,1-1.89-1.78,1.91,1.91,0,0,1,3.81,0A1.87,1.87,0,0,1,60.51,110.85Zm.33-11.95c-1.39,0-2.88-.36-2.88-1.75a2.55,2.55,0,0,1,2.64-2.43,2.62,2.62,0,0,1,2.71,2.43C63.32,98.55,62.23,98.9,60.84,98.9Zm6.1,7.91c-1.39,0-2-1.28-2.49-2.6-.6-1.81,1.1-2.37,2.49-2.37a2.43,2.43,0,0,1,2.62,2.3A2.74,2.74,0,0,1,66.94,106.81Zm1-11.61a2.57,2.57,0,0,1-2.63-2.48,2.65,2.65,0,0,1,5.27,0A2.59,2.59,0,0,1,68,95.21ZM89,96a3.35,3.35,0,0,1,3.39-3.44A3.64,3.64,0,0,1,96.08,96a3.81,3.81,0,0,1-3.71,3.66A3.53,3.53,0,0,1,89,96Zm7.58,15.75a3.43,3.43,0,0,1-3.31-3.6,3.38,3.38,0,0,1,3.24-3.61,3.7,3.7,0,0,1,3.64,3.59A3.65,3.65,0,0,1,96.56,111.76Zm9.19-4.34a4,4,0,0,1-3.83-3.75c0-1.93,1.89-3.17,3.83-3.17a3.24,3.24,0,0,1,3.5,3.17A3.73,3.73,0,0,1,105.75,107.42Zm7.37-6.83a3.13,3.13,0,0,1-3.2-3.35,3.05,3.05,0,0,1,3.2-3.26,3.26,3.26,0,0,1,3.45,3.26A3.33,3.33,0,0,1,113.12,100.6Z"/><path class="cls-1" d="M0,1.42V131.05H147.6V1.42ZM28.55,35.2a29.57,29.57,0,0,1,1.11-7.64,42.81,42.81,0,0,1,3.15-8c1-2.16,1.53-4.14,3-6.06,1.7-2.2,2.11-3.18,3-4a4,4,0,0,1,.8-.24c2.08-.69,4-.9,5.06-1.24.26,0,1.35.09,1.6.09.47,0,3.47.1,7.94.21,2.34.05,5.07.27,8,.33,2.67.07,5.54.09,8.5.15,2.7,0,5.48-.08,8.24,0,2.55,0,5.1.23,7.56.25,2.67,0,5.25-.09,7.65-.12,2.72,0,5.22-.13,7.39-.21a65.14,65.14,0,0,0,7.24-.38,33.33,33.33,0,0,1,6.32-.8,5.3,5.3,0,0,1,1,.47,24.65,24.65,0,0,1,3.5,2.18,101.9,101.9,0,0,0,.11,11.59c.26,2.49.7,5.32,1.08,8.23.36,2.74.54,4.92.93,7.57s1.35,6.47,1.67,8.61c.61,3.88.77,1.79,1.31,5,.71,4.2.31,3.76.78,8.6a61.74,61.74,0,0,1-.63,11.37c-.45,2.85-1.64,5.06-2.57,5.45a44.16,44.16,0,0,1-6.9,1.5c-3.17.5-2.91.13-4.81.5a58.22,58.22,0,0,1-9.37,1.09c-3.13.3-.74.56-4.4,1.06-.27,0-.65.3-1,.35-3.05.42-9,1-11.91,1.32-2.62.27-5.46.4-8.41.57-2.63.15-5.37,0-8.16,0a69.42,69.42,0,0,1-8.43-.33c-5.75-.69-6.95-1.5-8.5-1.69a84.2,84.2,0,0,1-8.31-1.56,42.41,42.41,0,0,0-5.84-1,9.18,9.18,0,0,1-.72-1.31,46.86,46.86,0,0,1-2.92-8,103.9,103.9,0,0,1-2.2-10.84,15.45,15.45,0,0,0-1.14-4c-.76-2.53-.5-4-.63-6.82S28.41,38,28.55,35.2ZM134.45,115a32,32,0,0,1-8.9,1.33c-1.89,0-4.64.24-8,.39-2.41.1-4.92-.33-7.91-.16-2.42.14-5,.11-7.75.29s-5.53.52-8.44.74c-2.63.2-4.13-.12-6.87.12s-4.92-.66-7.75-.4c-2.56.26-7,.3-9.52.56s-5.62,1.32-8.18,1.62-4.82.11-7.35.44-5.68,1.22-8.16,1.59-5.13.82-7.48,1.25c-2.54.46-5,.73-7.1,1.23-2,.44-3.72,1.13-5.29,1.61a60.31,60.31,0,0,1-8.93,2.14c-4.87.67-7-.32-8.37-2.28-1.19-1.75-1.61-4.56-1.93-7a42.39,42.39,0,0,0-.79-4.31c-.75-4-1.4-6.55,1-9.08a20.18,20.18,0,0,1,6-4c3.7-2,2.23-1.71,7.48-3.82q3.11-1.25,7.65-2.72c2.34-.76,5.07-1.26,8-2.07q3.65-1,7.94-2c2.54-.58,5.19-1.37,8.08-1.92q3.84-.75,8.1-1.43c2.73-.45,5.62-.76,8.62-1.16,2.67-.35,5.45-.6,8.34-.91,2.57-.27,5.19-.76,7.93-1s6.36,0,9.18-.15c2.5-.16,4.14-.66,6.78-.79s5.22-.18,7.92-.26,5.34-.16,8.12-.2c2.3,0,4.65-.17,7-.19,3.89,0,7.69.21,9.66,1.48,2.95,1.88,2.61,3,2.73,6.71.14,4.18-.26,2.15.42,6.28.73,4.46.83,8.35,1.12,12.23C138.06,111.2,136.71,112.94,134.45,115Z"/><path class="cls-1" d="M27.27,102.79a2.58,2.58,0,0,0-2.33,2.85,2.36,2.36,0,0,0,2.33,2.61,2.5,2.5,0,0,0,2.51-2.61A2.72,2.72,0,0,0,27.27,102.79Z"/><path class="cls-1" d="M42.34,110.84a2.31,2.31,0,0,0-2.47,2.31c0,3.4,1.79,2.49,2.47,2.6a2.52,2.52,0,0,0,2.58-2.6A2.4,2.4,0,0,0,42.34,110.84Z"/><path class="cls-1" d="M33.83,112.37a2.35,2.35,0,0,0-2.34,2.49,2.52,2.52,0,0,0,2.34,2.69,2.74,2.74,0,0,0,2.61-2.69A2.56,2.56,0,0,0,33.83,112.37Z"/><path class="cls-1" d="M66.94,101.84c-1.39,0-3.09.56-2.49,2.37.44,1.32,1.1,2.6,2.49,2.6a2.74,2.74,0,0,0,2.62-2.68A2.43,2.43,0,0,0,66.94,101.84Z"/><path class="cls-1" d="M52.6,105.21a2.11,2.11,0,0,0-2.12,2.27,2.19,2.19,0,0,0,2.12,2.36,2.34,2.34,0,0,0,2.33-2.36A2.26,2.26,0,0,0,52.6,105.21Z"/><path class="cls-1" d="M45.86,102.85a2.52,2.52,0,0,0-2.49,2.56c0,1.39,0,2,2.49,2.55,1.35.3,2.42-1.17,2.42-2.55A2.47,2.47,0,0,0,45.86,102.85Z"/><path class="cls-1" d="M60.61,94.72A2.55,2.55,0,0,0,58,97.15c0,1.4,1.49,1.75,2.88,1.75s2.48-.36,2.48-1.75A2.62,2.62,0,0,0,60.61,94.72Z"/><path class="cls-1" d="M68,90.33a2.5,2.5,0,0,0-2.63,2.39,2.64,2.64,0,0,0,5.27,0A2.52,2.52,0,0,0,68,90.33Z"/><path class="cls-1" d="M25.14,113.77a1.86,1.86,0,0,0-1.68,2.06,1.7,1.7,0,0,0,1.68,1.88A1.8,1.8,0,0,0,27,115.82,2,2,0,0,0,25.14,113.77Z"/><path class="cls-1" d="M46.85,94a1.69,1.69,0,0,0-1.69,1.8,1.82,1.82,0,0,0,1.69,1.94,2,2,0,0,0,1.89-1.94A1.85,1.85,0,0,0,46.85,94Z"/><path class="cls-1" d="M38.15,103.41a1.83,1.83,0,0,0-1.91,1.75c0,1,1.07,1.27,2.07,1.27s1.79-.26,1.79-1.27A1.88,1.88,0,0,0,38.15,103.41Z"/><path class="cls-1" d="M60.51,107.34a1.8,1.8,0,0,0-1.89,1.73,1.91,1.91,0,0,0,3.81,0A1.82,1.82,0,0,0,60.51,107.34Z"/><path class="cls-1" d="M96.49,104.55a3.38,3.38,0,0,0-3.24,3.61,3.43,3.43,0,0,0,3.31,3.6,3.65,3.65,0,0,0,3.56-3.62A3.7,3.7,0,0,0,96.49,104.55Z"/><path class="cls-1" d="M96.08,96a3.64,3.64,0,0,0-3.71-3.44A3.35,3.35,0,0,0,89,96a3.53,3.53,0,0,0,3.39,3.66A3.81,3.81,0,0,0,96.08,96Z"/><path class="cls-1" d="M113.12,94a3.05,3.05,0,0,0-3.2,3.26,3.13,3.13,0,0,0,3.2,3.35,3.33,3.33,0,0,0,3.45-3.35A3.26,3.26,0,0,0,113.12,94Z"/><path class="cls-1" d="M105.75,100.5c-1.94,0-3.83,1.24-3.83,3.17a4,4,0,0,0,3.83,3.75,3.73,3.73,0,0,0,3.5-3.75A3.24,3.24,0,0,0,105.75,100.5Z"/><polygon class="cls-1" points="50.71 60.94 50.87 60.63 48.36 59.45 48.23 59.68 50.71 60.94"/><polygon class="cls-1" points="48.17 59.37 45.87 58.29 45.79 58.44 48.05 59.59 48.17 59.37"/><polygon class="cls-1" points="103.45 21.53 97.93 21.53 97.93 23.24 103.45 23.11 103.45 21.53"/><path class="cls-1" d="M80.38,42.34l.13.38,14.94-8.49-5.55,1.83-8.79,5A2.54,2.54,0,0,1,80.38,42.34Z"/><path class="cls-1" d="M105.42,42.24a2.54,2.54,0,0,1,.13-.77l-5.89,1.11a2.55,2.55,0,0,1-1,1.9l5.91-1.12A2.57,2.57,0,0,1,105.42,42.24Z"/><path class="cls-1" d="M77.21,44.84,75,46.07l5.51,3.09a2.59,2.59,0,0,1,.29-.34L80,46.4Z"/><path class="cls-1" d="M94.52,42.46a2.56,2.56,0,0,1,2.28-2.53l1.26-4.08a2.55,2.55,0,0,1-1.21-2.07l-.43.14-15.84,9,1.33,3.83a2.59,2.59,0,0,0-.44.49l.75.42.51.29-.42,0-1.12-.09a2.56,2.56,0,0,1,.28-.59l-1.23-.69L81,48.69a2.55,2.55,0,0,1,3.92.85l8.7-4.41a2.49,2.49,0,0,1,.91-2.67Z"/><path class="cls-1" d="M53.15,52.58a2.56,2.56,0,0,1,.5,1.4L68,49.17s0-.07,0-.1a2.7,2.7,0,0,1,4.67-1.86l2-1.14-14.1-7.92a2.57,2.57,0,0,1-3.9,1.51L51.53,51.58h0A2.56,2.56,0,0,1,53.15,52.58Z"/><path class="cls-1" d="M96.34,33.73l.53-.3a2.56,2.56,0,0,1,1-1.76h0l-.47.15-6.59,3.74Z"/><path class="cls-1" d="M77,44.72l-1.17-.66L64.7,37.81l-4.13-.62a1.9,1.9,0,0,1,0,.76l14.26,8Z"/><path class="cls-1" d="M72.76,47.36a2.68,2.68,0,0,1,.62,1.7s0,.1,0,.15l6.86.52a2.55,2.55,0,0,1,.21-.4l-5.6-3.15Z"/><path class="cls-1" d="M97,39.9h.07l.2,0L98.49,36c-.08,0-.17-.06-.25-.1Z"/><path class="cls-1" d="M99.75,29.16v0l.13,0Z"/><path class="cls-1" d="M39.28,65.93c.21,2.44.35,4.71.89,5.66.67,1.21,2.2,2,4.09,2.72,1.48.6,3.39.57,5.28.95,1.68.33,3.4.87,5.19,1.07s3.69.35,5.4.45c2,.11,3.56.09,5.17.12,3.21.06,3.67.26,5.35-.3.74-.24-.66-.63.71-.69,1.68-.07,3.34-.22,5-.37s3.54,0,5.22-.2,3.6-.29,5.28-.56c1.85-.29,3.58-.48,5.26-.81,1.86-.37,3.69-.61,5.29-1,2-.45,3.75-.84,5.25-1.22,2.71-.66,4.52-1.23,5.23-1.31a9.5,9.5,0,0,0,5.06-2.1c2.64-2.07,1.73-2.59,2-5.36.31-3-.18-2.21-.3-5.51-.05-1.6-.1-3.49-.16-5.54-.07-1.82-.17-3.77-.23-5.78s0-3.84-.07-5.77-.32-3.93-.33-5.79c0-2-.12-4-.09-5.68,0-2.51.61-4.56.42-5.79-.37-2.57,0-4-.63-5.39a5.13,5.13,0,0,0-4.26-3,11.74,11.74,0,0,0-5.73.29,25.23,25.23,0,0,1-5.26.86c-1.63.13-3.47.48-5.47.51-1.81,0-3.73.42-5.72.38s-3.77-.11-5.69-.2-3.84-.26-5.72-.4-3.93-1.12-5.77-1.3c-2-.22-7.31-1.38-9.05-1.64A28.8,28.8,0,0,1,57,12.62c-1.92-.53-1.93-.09-3.38-.31a27.56,27.56,0,0,0-5.19-.61c-2.3.16-3.25,0-4.35,2.4a10,10,0,0,0-1.66,4.45c-.27,1.45-.07,3.27-.34,5.22-.23,1.58-.67,3.26-.89,5.07C41,30.46,41,32.2,40.83,34s-.5,3.46-.66,5.23-.65,3.51-.78,5.3-.2,3.57-.29,5.31S39,53.48,39,55.22s.25,3.66.26,5.32C39.25,62.53,39.16,64.36,39.28,65.93Zm16.05-38h1.1V26H62v5.52h-.9V33.6H55.33ZM45.72,58.4l.07,0,1-1.91.91.46a2.47,2.47,0,0,1-.18-.88,2.56,2.56,0,0,1,1-2,2.57,2.57,0,0,1,2.57-2.56l.25,0,5.14-12a2.54,2.54,0,0,1-1-2A2.58,2.58,0,0,1,58,34.94V33.7h.2V35a2.56,2.56,0,0,1,2.33,2l3.66.55L61.56,36a2.36,2.36,0,0,0,0-1l15.69,2.37,2.07.31L81.69,37l15.69-5.16.48-.27a2.57,2.57,0,0,1,1.69-2.28v-.1H96.83V23.44h1.1V21.53h5.52v5.52h-.9v2.11h-1.68a2.54,2.54,0,0,1,1.46,4.22l5.2,6.33a2.55,2.55,0,0,1,3,2.53,2.54,2.54,0,0,1-1,2,2.56,2.56,0,0,1-2.17,2.51v0h3.87v5.5h-.9V54.4h-5.72V48.7h1.1V46.79h1a2.52,2.52,0,0,1-2.24-3.21l-5.87,1.11a2.56,2.56,0,0,1-5,.63L85,49.72a2.55,2.55,0,0,1-.58,2.78H86.5V58h-.9v2.11H79.88V54.41H81V52.63a2.47,2.47,0,0,1-.81-2.7l-6.82-.52A2.71,2.71,0,0,1,72.5,51h1.8v5.51h-.9v2.11H67.69V52.95h1.1V51h0A2.68,2.68,0,0,1,68,49.37L53.64,54.2a2.54,2.54,0,0,1-1,1.93,2.56,2.56,0,0,1-1.87,2.45l.9.46-1,1.91.11.05,0,.09-2.54,5-.09,0-5-2.55Z"/><path class="cls-1" d="M98.49,36l-1.19,3.88a2.57,2.57,0,0,1,2.38,2.55s0,.07,0,.11l5.89-1.11a2.57,2.57,0,0,1,.23-.49l-4.52-5.5a2.56,2.56,0,0,1-1.84.77A2.49,2.49,0,0,1,98.49,36Z"/><path class="cls-1" d="M101.4,35.31l4.5,5.47a2.55,2.55,0,0,1,1.64-1.07l-5.2-6.33a2.64,2.64,0,0,1-.33.3A2.54,2.54,0,0,1,101.4,35.31Z"/><path class="cls-1" d="M79,43l.16.45,1.33-.76-.13-.38A2.57,2.57,0,0,1,79,43Z"/><path class="cls-1" d="M80.25,46.55l1.23.69a2.59,2.59,0,0,1,.44-.49l-1.33-3.83-1.33.76Z"/><path class="cls-1" d="M78.82,43l-.22,0a2.54,2.54,0,0,1-.79-.14l-2,1.13,1.17.66,2-1.14Z"/><polygon class="cls-1" points="79.08 43.77 77.21 44.84 79.99 46.4 79.08 43.77"/><path class="cls-1" d="M90.79,35.56l6.59-3.74L81.69,37a2.55,2.55,0,0,1,.49,1.41Z"/><path class="cls-1" d="M81.18,40.51a2.55,2.55,0,0,1-.07.54l8.79-5-7.74,2.55A2.54,2.54,0,0,1,81.18,40.51Z"/><path class="cls-1" d="M77.82,42.93a2.55,2.55,0,0,1-1.6-3.38L64.7,37.81l11.12,6.25Z"/><path class="cls-1" d="M77,38.5h0a2.55,2.55,0,0,1,.23-1L61.57,35.08a2.36,2.36,0,0,1,0,1l2.66,1.49,12.1,1.83A2.59,2.59,0,0,1,77,38.5Z"/><path class="cls-1" d="M97.86,31.54l-.48.27.47-.15S97.86,31.58,97.86,31.54Z"/><polygon class="cls-1" points="61.05 31.49 61.95 31.49 61.95 25.98 56.43 25.98 56.43 27.89 61.05 27.89 61.05 31.49"/><path class="cls-1" d="M45.87,58.29l2.31,1.08.59-1.06A2.58,2.58,0,0,1,47.68,57l-.91-.46-1,1.91h0Z"/><path class="cls-1" d="M48.94,58.41l-.58,1,2.52,1.17-.16.31h0l1-1.91-.9-.46a2.57,2.57,0,0,1-.71.11A2.54,2.54,0,0,1,48.94,58.41Z"/><path class="cls-1" d="M107.2,46.79l-.21,0-.23,0h-1V48.7h1.39Z"/><polygon class="cls-1" points="110.38 48.7 110.38 52.3 111.28 52.3 111.28 46.79 107.4 46.79 107.35 48.7 110.38 48.7"/><path class="cls-1" d="M70.4,51.75A2.67,2.67,0,0,1,68.84,51h0v1.91H70.4Z"/><path class="cls-1" d="M70.66,51.78H70.6v1.18h2.81v3.6h.9V51H72.5A2.68,2.68,0,0,1,70.66,51.78Z"/><path class="cls-1" d="M82.41,53.22A2.57,2.57,0,0,1,81,52.63v1.77h1.44Z"/><path class="cls-1" d="M82.61,54.41h3V58h.9V52.5H84.43a2.57,2.57,0,0,1-1.81.75Z"/><polygon class="cls-1" points="102.55 27.05 103.45 27.05 103.45 23.11 97.93 23.24 97.93 23.44 102.55 23.44 102.55 27.05"/><path class="cls-1" d="M99.55,31.1l0,0h0Z"/><path class="cls-1" d="M99.75,31.14l.23.05.08-.26-.31.1Z"/><polygon class="cls-1" points="97.84 31.66 97.84 31.67 97.86 31.66 97.84 31.66"/><path class="cls-1" d="M100.82,31.54l-.55-.67-.21.07-.08.26A2.56,2.56,0,0,1,100.82,31.54Z"/><path class="cls-1" d="M102,33.68h0a2.64,2.64,0,0,0,.33-.3l-.5-.61A2.54,2.54,0,0,1,102,33.68Z"/><path class="cls-1" d="M100.49,29.53l-.19.62.35-.2v-.79h-.77l-.13,0v1.27l.55-.31Z"/><path class="cls-1" d="M99.55,29.26a2.57,2.57,0,0,0-1.69,2.28l1.69-1Z"/><path class="cls-1" d="M97.86,31.66a2.55,2.55,0,0,1,1.57-.55h.07l0,0v-.52l-1.69,1s0,.08,0,.12Z"/><polygon class="cls-1" points="100.06 30.93 100.3 30.16 99.75 30.47 99.75 31.04 100.06 30.93"/><path class="cls-1" d="M100.65,30l-.35.2-.24.78.21-.07.55.67a2.55,2.55,0,0,1,1,1.23l.5.61a2.54,2.54,0,0,0-1.46-4.22h-.22Z"/><path class="cls-1" d="M81.18,40.51a2.54,2.54,0,0,0,1-1.91l-1.42.47a2.56,2.56,0,0,1,.43,1.42Z"/><path class="cls-1" d="M77,38.5a2.51,2.51,0,0,1,1.57-.57,2.56,2.56,0,0,1,2,1l1.56-.51A2.55,2.55,0,0,0,81.69,37l-2.36.78-2.07-.31a2.55,2.55,0,0,0-.23,1Z"/><path class="cls-1" d="M51.56,51.58l-.77,1.8,2.35-.79A2.56,2.56,0,0,0,51.56,51.58Z"/><path class="cls-1" d="M50.46,53.58l.86-2-.25,0a2.57,2.57,0,0,0-2.57,2.56,2.54,2.54,0,0,1,1.57-.55A2.58,2.58,0,0,1,50.46,53.58Z"/><path class="cls-1" d="M52.65,56.12h0a2.54,2.54,0,0,0,1-1.93l-1.43.48A2.57,2.57,0,0,1,52.65,56.12Z"/><path class="cls-1" d="M52.08,54.51,53.64,54a2.56,2.56,0,0,0-.5-1.4l-2.35.79.77-1.8h0l-.87,2A2.56,2.56,0,0,1,52.08,54.51Z"/><path class="cls-1" d="M99.66,42.58l-1.57.3a2.52,2.52,0,0,1,.58,1.61h0A2.55,2.55,0,0,0,99.66,42.58Z"/><path class="cls-1" d="M97.29,39.92l-.13.42.13-.42-.2,0H97l-.63,2a2.59,2.59,0,0,1,1.7.94l1.57-.3s0-.07,0-.11A2.57,2.57,0,0,0,97.29,39.92Z"/><path class="cls-1" d="M94.52,42.46a2.54,2.54,0,0,1,1.57-.55h.1l.61-2A2.56,2.56,0,0,0,94.52,42.46Z"/><path class="cls-1" d="M106.33,41.32l.32.39a2.54,2.54,0,0,1,.34,0,2.58,2.58,0,0,1,2.58,2.57h0a2.54,2.54,0,0,0,1-2,2.55,2.55,0,0,0-3-2.53l1,1.19Z"/><path class="cls-1" d="M105.42,42.24a2.53,2.53,0,0,1,1-.49l-.32-.38-.55.1A2.54,2.54,0,0,0,105.42,42.24Z"/><path class="cls-1" d="M105.9,40.78l.44.53,2.18-.41-1-1.19A2.55,2.55,0,0,0,105.9,40.78Z"/><path class="cls-1" d="M106.11,41.36l-.32-.39a2.57,2.57,0,0,0-.23.49Z"/><polygon class="cls-1" points="82.74 47.94 82.23 47.66 82.31 47.91 82.74 47.94"/><path class="cls-1" d="M82.32,47.91l-.09-.25-.75-.42a2.56,2.56,0,0,0-.28.59Z"/></g></g></svg>