<?xml version="1.0" encoding="UTF-8" standalone="no"?>
<svg
   xmlns:dc="http://purl.org/dc/elements/1.1/"
   xmlns:cc="http://creativecommons.org/ns#"
   xmlns:rdf="http://www.w3.org/1999/02/22-rdf-syntax-ns#"
   xmlns:svg="http://www.w3.org/2000/svg"
   xmlns="http://www.w3.org/2000/svg"
   xmlns:sodipodi="http://sodipodi.sourceforge.net/DTD/sodipodi-0.dtd"
   xmlns:inkscape="http://www.inkscape.org/namespaces/inkscape"
   inkscape:version="1.0 (4035a4f, 2020-05-01)"
   sodipodi:docname="trendmicroapexone_dark.svg"
   width="300"
   height="102.536"
   viewBox="0 0 300 102.536"
   id="svg9080"
   version="1.1">
  <sodipodi:namedview
     inkscape:current-layer="svg9080"
     inkscape:window-maximized="1"
     inkscape:window-y="296"
     inkscape:window-x="1680"
     inkscape:cy="51.268002"
     inkscape:cx="150"
     inkscape:zoom="3.5066667"
     showgrid="false"
     id="namedview77"
     inkscape:window-height="1313"
     inkscape:window-width="2560"
     inkscape:pageshadow="2"
     inkscape:pageopacity="0"
     guidetolerance="10"
     gridtolerance="10"
     objecttolerance="10"
     borderopacity="1"
     bordercolor="#666666"
     pagecolor="#ffffff" />
  <defs
     id="defs9082" />
  <metadata
     id="metadata9085">
    <rdf:RDF>
      <cc:Work
         rdf:about="">
        <dc:format>image/svg+xml</dc:format>
        <dc:type
           rdf:resource="http://purl.org/dc/dcmitype/StillImage" />
        <dc:title></dc:title>
      </cc:Work>
    </rdf:RDF>
  </metadata>
  <g
     style="fill:#ffffff"
     inkscape:export-ydpi="96"
     inkscape:export-xdpi="96"
     id="layer1"
     transform="translate(-269.5437,-508.23375)">
    <g
       style="fill:#ffffff"
       id="g8985"
       transform="matrix(3.7307125,0,0,-3.7307125,331.37241,529.48233)">
      <path
         d="M 0,0 H 7.33 V -1.504 H 4.634 v -7.548 h -1.94 v 7.548 l -2.694,0 z"
         style="fill:#ffffff;fill-opacity:1;fill-rule:nonzero;stroke:none"
         id="path8987" />
    </g>
    <g
       style="fill:#ffffff"
       id="g8989"
       transform="matrix(3.7307125,0,0,-3.7307125,372.93926,535.09219)">
      <path
         d="m 0,0 h 2.397 c 0.848,-0.013 1.35,-0.349 1.35,-1.145 0,-0.799 -0.502,-1.224 -1.35,-1.235 H 0 Z m 0,-3.955 h 2.051 c 0,0 1.271,-2.788 1.434,-3.593 h 2.39 l -1.836,3.722 c 1.294,0.334 1.629,1.877 1.629,3.049 0,1.837 -2.049,2.338 -3.767,2.281 H -1.942 V -7.548 H 0 Z"
         style="fill:#ffffff;fill-opacity:1;fill-rule:nonzero;stroke:none"
         id="path8991" />
    </g>
    <g
       style="fill:#ffffff"
       id="g8993"
       transform="matrix(3.7307125,0,0,-3.7307125,403.83816,529.48233)">
      <path
         d="M 0,0 H 6.492 V -1.504 H 1.942 V -3.632 H 6.128 V -5.136 H 1.942 V -7.548 H 6.628 V -9.052 H 0 Z"
         style="fill:#ffffff;fill-opacity:1;fill-rule:nonzero;stroke:none"
         id="path8995" />
    </g>
    <g
       style="fill:#ffffff"
       id="g8997"
       transform="matrix(3.7307125,0,0,-3.7307125,457.68875,563.25199)">
      <path
         d="M 0,0 -3.324,6.019 -3.351,5.994 V 0 h -1.815 v 9.052 h 2.407 L 0.546,3.137 0.571,3.161 V 9.052 H 2.387 V 0 Z"
         style="fill:#ffffff;fill-opacity:1;fill-rule:nonzero;stroke:none"
         id="path8999" />
    </g>
    <g
       style="fill:#ffffff"
       id="g9001"
       transform="matrix(3.7307125,0,0,-3.7307125,484.36001,535.35408)">
      <path
         d="M 0,0 H 1.004 C 3.309,0.024 3.648,-1.51 3.648,-2.951 3.648,-4.394 3.309,-6 1.004,-5.974 H 0 Z M -1.942,-7.478 H 1.14 c 2.821,-0.025 4.576,1.378 4.576,4.527 0,3.146 -1.755,4.55 -4.576,4.525 h -3.082 z"
         style="fill:#ffffff;fill-opacity:1;fill-rule:nonzero;stroke:none"
         id="path9003" />
    </g>
    <g
       style="fill:#ffffff"
       id="g9005"
       transform="matrix(3.7307125,0,0,-3.7307125,354.00217,591.00437)">
      <path
         d="M 0,0 H -0.939 V 3.957 L -1.928,0 H -2.903 L -3.892,3.957 -3.907,0 h -0.94 v 5.024 h 1.516 l 0.904,-3.423 0.906,3.423 H 0 Z"
         style="fill:#ffffff;fill-opacity:1;fill-rule:nonzero;stroke:none"
         id="path9007" />
    </g>
    <path
       d="m 382.55743,591.00402 h -3.77548 v -18.7431 h 3.77548 z"
       style="fill:#ffffff;fill-opacity:1;fill-rule:nonzero;stroke:none"
       id="path9009" />
    <g
       style="fill:#ffffff"
       id="g9011"
       transform="matrix(3.7307125,0,0,-3.7307125,457.0411,578.9094)">
      <path
         d="M 0,0 C -0.063,-0.136 -0.171,-0.229 -0.324,-0.281 -0.405,-0.31 -0.501,-0.325 -0.613,-0.33 -0.729,-0.34 -0.899,-0.343 -1.117,-0.343 h -0.119 -0.751 v 1.275 h 0.793 c 0.364,0 0.598,-0.004 0.701,-0.013 C -0.387,0.91 -0.289,0.877 -0.2,0.821 -0.104,0.764 -0.039,0.695 0,0.61 0.04,0.521 0.06,0.42 0.06,0.309 0.06,0.192 0.04,0.089 0,0 m 0.089,-1.153 0.313,0.093 c 0.244,0.098 0.434,0.279 0.565,0.498 0.138,0.225 0.171,0.613 0.171,0.893 0,0.267 -0.098,0.555 -0.227,0.784 C 0.76,1.377 0.552,1.557 0.286,1.656 0.16,1.699 0.043,1.726 -0.065,1.741 -0.258,1.768 -0.525,1.782 -0.866,1.782 h -2.133 v -5.024 h 1.012 v 1.98 l 0.965,0.011 1.071,-1.991 h 1.215 z"
         style="fill:#ffffff;fill-opacity:1;fill-rule:nonzero;stroke:none"
         id="path9013" />
    </g>
    <g
       style="fill:#ffffff"
       id="g9015"
       transform="matrix(3.7307125,0,0,-3.7307125,494.54112,586.86627)">
      <path
         d="m 0,0 c -0.238,-0.215 -0.535,-0.323 -0.891,-0.323 -0.284,0 -0.529,0.068 -0.735,0.204 -0.164,0.107 -0.298,0.249 -0.402,0.427 -0.078,0.136 -0.135,0.274 -0.173,0.415 -0.052,0.19 -0.078,0.417 -0.078,0.679 0,0.469 0.09,0.85 0.266,1.145 0.235,0.386 0.609,0.581 1.122,0.581 0.543,0 0.929,-0.214 1.159,-0.645 C 0.417,2.203 0.493,1.848 0.493,1.416 0.493,0.771 0.329,0.298 0,0 M 0.937,3.248 C 0.504,3.75 -0.107,3.999 -0.896,3.999 -1.672,3.999 -2.272,3.764 -2.693,3.297 -3.114,2.829 -3.325,2.188 -3.325,1.375 c 0,-0.693 0.171,-1.264 0.514,-1.719 0.423,-0.566 1.067,-0.849 1.928,-0.849 0.825,0 1.449,0.267 1.874,0.799 0.365,0.459 0.549,1.056 0.549,1.789 0,0.768 -0.202,1.386 -0.603,1.853"
         style="fill:#ffffff;fill-opacity:1;fill-rule:nonzero;stroke:none"
         id="path9017" />
    </g>
    <g
       style="fill:#ffffff"
       id="g9019"
       transform="matrix(3.7307125,0,0,-3.7307125,419.22212,578.41361)">
      <path
         d="m 0,0 c -0.082,0.299 -0.243,0.862 -1.104,0.862 -0.501,0 -1.236,-0.334 -1.236,-1.746 0,-0.898 0.353,-1.703 1.236,-1.703 0.577,0 0.979,0.327 1.104,0.938 h 1.042 c -0.207,-1.084 -0.916,-1.837 -2.166,-1.837 -1.327,0 -2.278,0.891 -2.278,2.615 0,1.747 1.006,2.632 2.291,2.632 1.493,0 2.099,-1.024 2.153,-1.761 z"
         style="fill:#ffffff;fill-opacity:1;fill-rule:nonzero;stroke:none"
         id="path9021" />
    </g>
    <g
       style="fill:#ffffff"
       id="g9023"
       transform="matrix(3.7307125,0,0,-3.7307125,507.16322,565.38671)">
      <path
         d="M 0,0 H -0.541 V -1.439 H -0.757 V 0 H -1.294 V 0.194 H 0 Z"
         style="fill:#ffffff;fill-opacity:1;fill-rule:nonzero;stroke:none"
         id="path9025" />
    </g>
    <g
       style="fill:#ffffff"
       id="g9027"
       transform="matrix(3.7307125,0,0,-3.7307125,513.79085,570.75595)">
      <path
         d="M 0,0 H -0.205 V 1.367 L -0.68,0 H -0.874 L -1.341,1.39 -1.347,0 h -0.208 v 1.633 h 0.326 l 0.385,-1.156 0.043,-0.135 0.029,-0.107 0.094,0.262 0.391,1.136 H 0 Z"
         style="fill:#ffffff;fill-opacity:1;fill-rule:nonzero;stroke:none"
         id="path9029" />
    </g>
    <g
       style="fill:#ffffff"
       id="g9035"
       transform="matrix(3.7307125,0,0,-3.7307125,308.55985,529.51367)" />
  </g>
</svg>
