<svg xmlns="http://www.w3.org/2000/svg" viewBox="0 0 515.95 154.96" width="515.95" height="154.96"><defs><style>.cls-1{fill:#fff;}</style></defs><title>Asset 2</title><g id="Layer_2" data-name="Layer 2"><g id="Layer_1-2" data-name="Layer 1"><g id="biUXQa.tif"><path class="cls-1" d="M18.58,154.67H0V72.61H45c9.4,0,14.53,4.92,14.71,14.37.15,7.82.14,15.65,0,23.48s-4.79,12.62-12.84,12.77c-9.15.17-18.3,0-28.26,0v31.41Zm22.2-58.55c-1.26-1.62-2.42-2.75-3.4-2.9-3.79,0-6.79-.12-9.76,0s-5.9-.68-8.88.53c-.13,3.73-.66,7.31.33,10.84,20.81.15,19,1.21,21.71-2.47Z"/><path class="cls-1" d="M174.7,27.24c2.13-9.9,1.8-20.55,11.88-27.24,7.11,7.17-1.11,14.49.4,21.55,7.6,2.19,14-5.85,22.44-2.3-5.07,10.64-15.68,11.08-24.16,14.57-1.5,7.17,1.16,9.17,12.39,9.31-2,4.83-6.5,6.35-10.49,7.43C180.7,52.3,177,55.89,174.89,62.18c-5.65,16.55-25.36,23.47-40.7,17.76-3.69-1.37-5.44-3.64-5.46-7.35-.06-10.91-1.29-22,5.83-31.68,1.48-2,1.61-5,2.53-7.45.79-2.11,1.58-4.35,4.26-4.82,1.83,2.39-1.9,4.35.28,7.18,5.95-4.11,14.66-4.18,17.38-13.32a16.2,16.2,0,0,1,8.81-10.27C166.75,18.91,165.1,25.46,174.7,27.24Z"/><path class="cls-1" d="M374.46,115c.23-2,.48-3.28-.59-5.41-11.16-1.42-22.89-.09-34.85-.71V91.06h19.34c7,0,14-.1,21,0,8.56.14,14.13,5.54,14.25,14.06q.25,18,0,36c-.1,8.14-5.78,13.69-13.92,13.81-8.82.12-17.65,0-26.48,0-12.27,0-16.11-3.37-17.46-15.38-.58-5.17.29-10.29,1.33-15.27,1.23-5.86,6.4-9.18,13.21-9.23C358.26,115,366.21,115,374.46,115ZM374,130.51c-13-2.14-18.67-.86-19.34,5,6.31,3,13.08.77,20,1.51C374.51,134.59,375.23,132.67,374,130.51Z"/><path class="cls-1" d="M123.61,154.78H105V113.12c-6.31-4.54-13.26-1.15-20.19-2.6v44H65.93V72.85h18.6V91.93h23.26c10.63,0,15.84,5.32,15.83,16C123.59,123.38,123.61,138.83,123.61,154.78Z"/><path class="cls-1" d="M260.71,154.52c0-12.72,0-25,0-37.35,0-2.33.39-4.79-2.73-6.13H240.72V154.5H222V72.72H240.4V91.93h23.23c10.68,0,16,5.28,16,15.89,0,15.46,0,30.91,0,46.71Z"/><path class="cls-1" d="M157.6,154.92V136.34H194c1-1.53.54-3,.46-4.55-7.41,0-14.66-.07-21.92,0-12.3.14-16.92-4.29-16.87-16.71,0-4.44-.56-8.87,1-13.32,2.18-6.41,5.47-9.68,12.14-9.77,14.14-.2,28.29-.06,42.78-.06v18c-10.77,0-21.53,0-32.29,0-2.2,0-4.38-.13-5.47,2.38.76,2.36,2.77,2,4.55,2,7,.06,14-.07,21,.13,9.1.25,12.69,2.93,13.89,11.55.93,6.7,1,13.61-.95,20.25-1.69,5.69-5,8.5-10.81,8.57C187,155,172.54,154.92,157.6,154.92Z"/><path class="cls-1" d="M492.48,92.44h23.07l-24,30.29,24.37,31.78H492.73l-11.95-17.89v17.88H462V73.43h18.2v35.05l1.09.45Z"/><path class="cls-1" d="M418.1,154.7H398.66c0-13.08-.1-26,.05-38.94.05-4.44-.8-8.95.71-13.35,2.32-6.73,7.09-10.41,14.07-10.47,9.32-.07,18.65-.08,28,0,8.23.08,15.05,6.27,15.14,14.16.18,15.65,0,31.3,0,47a7.47,7.47,0,0,1-.42,1.61H437.71q0-10.35,0-20.75c0-5.83-.05-11.66,0-17.48,0-2.3-.18-4.33-2.33-5.26H418.1Z"/><path class="cls-1" d="M315.71,154.76H296.56V93.07H277.64V72.81h56.14V93.09H315.71Z"/><path class="cls-1" d="M132,91.28h18.23v63.23H132Z"/></g></g></g></svg>