<svg xmlns="http://www.w3.org/2000/svg" viewBox="0 0 455.91 422.56" width="455.91" height="422.56"><defs><style>.cls-1{fill:#fff;}</style></defs><title>Asset 3</title><g id="Layer_2" data-name="Layer 2"><g id="Layer_1-2" data-name="Layer 1"><path class="cls-1" d="M318.77,177.61l.21,0a1.31,1.31,0,0,0-.21-.22h0Z"/><path class="cls-1" d="M318.75,191.41v.07h0Z"/><polygon class="cls-1" points="313.25 164.92 313.26 164.92 313.25 164.91 313.25 164.92"/><path class="cls-1" d="M329.92,218.55l0,0v0Z"/><path class="cls-1" d="M320.71,256.92l-.06.08.12,0Z"/><path class="cls-1" d="M119.78,335l0,0,0-.05S119.78,335,119.78,335Z"/><path class="cls-1" d="M110.28,297.26a1.91,1.91,0,0,0,.07.32l.09-.09A1.21,1.21,0,0,1,110.28,297.26Z"/><path class="cls-1" d="M362.22,190.63a4.16,4.16,0,0,1,.1-.49l-.61.25C361.89,190.46,362.06,190.54,362.22,190.63Z"/><path class="cls-1" d="M360.81,49.56a8.06,8.06,0,0,0,.49-1.05C361.13,48.86,361,49.21,360.81,49.56Z"/><path class="cls-1" d="M221.68,43.19v0h0Z"/><path class="cls-1" d="M36.35,151.08l.18.09Z"/><path class="cls-1" d="M234.28,105.93s0,0,0,0Z"/><path class="cls-1" d="M219.21,9.94a.77.77,0,0,0,.27-.43Z"/><path class="cls-1" d="M124.34,298.23l0,0h0Z"/><path class="cls-1" d="M1.47,136v0l.1.13A1.39,1.39,0,0,1,1.47,136Z"/><path class="cls-1" d="M240.27,421.87c.07-.05.12-.12.19-.18A.85.85,0,0,0,240.27,421.87Z"/><path class="cls-1" d="M214.37,104.6a8.93,8.93,0,0,1,.94,1.12,4.49,4.49,0,0,0-.57-1.3A.32.32,0,0,0,214.37,104.6Z"/><path class="cls-1" d="M163.26,152.93a12.87,12.87,0,0,0,1.82-.33A6.94,6.94,0,0,0,163.26,152.93Z"/><path class="cls-1" d="M171.45,135.78l0-.12a3,3,0,0,0-.54,0A1.44,1.44,0,0,1,171.45,135.78Z"/><path class="cls-1" d="M274.79,397.93l.09.06c0-.05,0-.09,0-.15Z"/><path class="cls-1" d="M74.47,311.75l-.23.18.24,0S74.47,311.81,74.47,311.75Z"/><path class="cls-1" d="M259.79,101.94a1.73,1.73,0,0,0-.81.07A5.8,5.8,0,0,1,259.79,101.94Z"/><path class="cls-1" d="M380.34,202.89a1.71,1.71,0,0,0-.26-.42C380.16,202.62,380.25,202.76,380.34,202.89Z"/><path class="cls-1" d="M428.24,155.87a3.61,3.61,0,0,0-.51-.74C427.72,155.24,428.07,155.62,428.24,155.87Z"/><path class="cls-1" d="M348.42,364.52v0h0Z"/><path class="cls-1" d="M183.77,397.89l0,0,0,0,0,.07h0Z"/><path class="cls-1" d="M450,140.7a2.13,2.13,0,0,1,.45.39,3.29,3.29,0,0,1,.44-.32A6,6,0,0,0,450,140.7Z"/><path class="cls-1" d="M268.76,148.88c-.05.15-.1.29-.15.44A.56.56,0,0,0,268.76,148.88Z"/><path class="cls-1" d="M80.22,205.43h0l0,0S80.22,205.42,80.22,205.43Z"/><path class="cls-1" d="M184.75,361.94l0,0h0v0Z"/><path class="cls-1" d="M275.76,318.42l0,0v0Z"/><path class="cls-1" d="M96.33,320.9h0Z"/><path class="cls-1" d="M96.48,350.3l-.16-.29-.38.25Z"/><path class="cls-1" d="M357,266.29l.38-.77A7.56,7.56,0,0,0,357,266.29Z"/><path class="cls-1" d="M57.21,152.1c-5.5-3.28-11.07-6.43-16.63-9.62-9-5.17-18-10.4-27.07-15.47a8.95,8.95,0,0,0-9.24,15.33c7.83,4.54,15.64,9.11,23.5,13.61,6.77,3.88,13.58,7.68,20.37,11.52h0a8.88,8.88,0,0,0,12.12-3.15A9,9,0,0,0,57.21,152.1ZM1.46,136v0a1.39,1.39,0,0,0,.09.15Zm34.88,15,.18.09Z"/><path class="cls-1" d="M388.3,231.92h0a84.53,84.53,0,0,0-3.08-14,14.24,14.24,0,0,0-1.38-4.61,2.62,2.62,0,0,0-.58-1.88,36.19,36.19,0,0,0-2.91-8.52h0a56.28,56.28,0,0,0-5.52-12.51h0a5.1,5.1,0,0,0-1.59-2.94h0l-.49-1a45.23,45.23,0,0,0-6.37-11.52h0a127.91,127.91,0,0,0-15.63-21,22.71,22.71,0,0,0-1.65-2.1c-4.93-5-9.49-10.4-15.32-14.45h0a78.88,78.88,0,0,0-12-9.54c-6.38-4-12.29-8.81-19.49-11.41-.69-.43-1.37-.88-2.07-1.29-4.37-2.5-9.17-4-13.83-5.77h0a14.49,14.49,0,0,0-5.51-2h0a11.82,11.82,0,0,0-4.5-1.5h0a2,2,0,0,0-1.54-.48h0a23.76,23.76,0,0,0-7-2,6.72,6.72,0,0,0-4-1,1.71,1.71,0,0,0-.66-.23,14,14,0,0,0-4.83-.78h0c-.74-.68-1.67-.41-2.53-.49h0a35.48,35.48,0,0,0-11-1.5h0c-1.94-.94-4-.28-6-.5h0c-.69-.65-1.57-.47-2.38-.46-7.72.06-15.47-.45-23.15.55-3.34.43-6.75.38-10,1.41h0c-1,.14-2.1-.3-3,.49h0a23.2,23.2,0,0,0-7.49,1.51,8.6,8.6,0,0,0-4.5,1h0a27.76,27.76,0,0,0-8.49,2.52,43.13,43.13,0,0,0-8,2.49,63.65,63.65,0,0,0-10,4h0c-2,.46-3.65,1.7-5.5,2.5h0c-3,1.13-5.61,3.12-8.5,4.51h0l-9,5.49c-2.88,1.09-4.94,3.43-7.5,5-.84,0-1.32.6-1.87,1.11-4.73,4.46-10.19,8.11-14.51,13-3.12,3.55-7.18,6.14-10,10a68,68,0,0,1-5.67,7.13A26.92,26.92,0,0,0,95.28,167l-.61,1.41h0a42.89,42.89,0,0,0-8,11.47c-1.09,1.79-2.39,3.47-2.91,5.55a18.09,18.09,0,0,0-2.53,6h0l-.93,1.53h0c-.36.45-.93.84-1.06,1.35-1.06,4.31-3.52,8.06-4.78,12.33-1.37,4.65-3.22,9.18-4.42,13.88-2,7.7-4.13,15.39-4.28,23.43a154.32,154.32,0,0,0-1,23.42c0,.88-.28,1.84.48,2.59h0c.22,1.66-.49,3.42.5,5,.2,1.5-.42,3.08.5,4.5h0a27.51,27.51,0,0,0,1,7.51h0a9.32,9.32,0,0,0,1,4.54c0,.7-.1,1.44.49,2a9.33,9.33,0,0,0,1,5c0,.69-.1,1.42.49,2a5.63,5.63,0,0,0,1,3.56h0a8.54,8.54,0,0,0,1,3.48h0a5.9,5.9,0,0,0,1,3h0a1.74,1.74,0,0,0,.42,1.46,19.62,19.62,0,0,0,2.06,6h0a4.16,4.16,0,0,0,1,2.48h0l.46,1.09A8,8,0,0,0,78.7,325h0a4.65,4.65,0,0,0,1,2.49,3,3,0,0,0,1,2h0a11.53,11.53,0,0,0,2,4h0a7.86,7.86,0,0,0,1.54,2.92h0a5.43,5.43,0,0,0,1.45,2.62h0a15.76,15.76,0,0,0,2.58,4.8h0a6.74,6.74,0,0,0,2,3h0A21.42,21.42,0,0,0,93.73,352a7.24,7.24,0,0,0,2,2.94A4.44,4.44,0,0,0,97.19,357h0l1,1.41a52.79,52.79,0,0,0,6,7.15h0a80.57,80.57,0,0,0,12.15,12.79,6.64,6.64,0,0,0,2.36,2.1h0c.81.81,1.58,1.68,2.45,2.43a159.7,159.7,0,0,0,37.07,24,124.3,124.3,0,0,0,19.45,7.52,105.65,105.65,0,0,0,17,4.69c7.57,1.45,15.14,3,22.91,2.83,2.67.93,5.44.48,8.16.43,4.39-.07,8.8.54,13.16-.43l1.4-.11a.85.85,0,0,1,.19-.18c-.06.06-.12.13-.19.18a41.24,41.24,0,0,0,10-1c10.6-1.36,21-3.48,31-7.4a27.58,27.58,0,0,0,6.63-2.5h0c.63.2.88-.42,1.34-.6a62,62,0,0,0,13.06-5.81h0a65.46,65.46,0,0,0,12.46-7.13,11.53,11.53,0,0,0,4-2.51,44.46,44.46,0,0,0,9.63-6.95h0a5.19,5.19,0,0,0,2.39-1.94h0c1.57-.65,2.67-1.93,3.91-3a121.88,121.88,0,0,0,15.61-15.52,82.75,82.75,0,0,0,8.51-10.46c3.86-5,7.66-10.08,10.44-15.8a2.66,2.66,0,0,0,1-1.81,63.86,63.86,0,0,0,4.46-8.56,115.18,115.18,0,0,0,10.54-28.4,1.25,1.25,0,0,0,.2-.54,19.72,19.72,0,0,0,1.32-6h0a3.24,3.24,0,0,0,.5-2.55,2.45,2.45,0,0,0,.48-2,16.15,16.15,0,0,0,1-5.34,17.48,17.48,0,0,0,1-6.53h0c.11-.56.26-1.13.33-1.7a148.18,148.18,0,0,0,.73-25.91A125.79,125.79,0,0,0,388.3,231.92Zm-113.51,166,.08-.09c0,.05,0,.1,0,.15ZM171.47,135.66l0,.12a1.44,1.44,0,0,0-.52-.11A3,3,0,0,1,171.47,135.66ZM168,152.74c5-.4,10.07-1,15.14-.77s10.08.63,15.12,1h0c.5.58,1.23.34,1.84.52,2,.59,4.34-.11,6.09,1.5-3.11,3.06-6.47,5.88-9.06,9.44h0a88.47,88.47,0,0,0-10.94,12.5l-3.5,3.43h0a191.09,191.09,0,0,0-25,16h0a10,10,0,0,0-3.48,2.54h0a10.39,10.39,0,0,0-4,3h0a12.89,12.89,0,0,0-4.48,3.6h0a14.49,14.49,0,0,0-5,4,11.15,11.15,0,0,0-4,3.49,5.15,5.15,0,0,0-2.47,2,8.29,8.29,0,0,0-2.51,2.44h0c-2,.79-3.16,2.52-4.48,4.07a28.06,28.06,0,0,0-5,5h0a14.8,14.8,0,0,0-4.51,5h0c-1.4.61-2.06,1.94-3,3h0a25.83,25.83,0,0,0-4.5,5.5,5.25,5.25,0,0,0-2,2,3.89,3.89,0,0,0-2,3h0l-.5.5a35.27,35.27,0,0,0-5.56,7.52l-1.85-4a8.63,8.63,0,0,0-1-3.48h0l-2.55-11h0l-1-9.52v-7.42a3.66,3.66,0,0,0,.25-2.12l.77-6.67a2.74,2.74,0,0,0,.35-.09c1.53-1.73,1.56-3.94,1.88-6,0-.19,0-.38,0-.56,1.3-1,1.18-2.42.3-4,1.51.39,1.76-.88,2.16-1.79a66,66,0,0,1,9.43-15.77,3.56,3.56,0,0,0,.93-2c0-.06,0-.11,0-.16a6.74,6.74,0,0,0,4.24-4.52v0A50.06,50.06,0,0,0,119.8,169h0a45.36,45.36,0,0,0,7-4.59h0c1.93-.3,3.31-1.71,5-2.49h0l8-3.47h0c1.81,0,3.3-1.13,5-1.54h0c3-.83,6.1-1.27,9-2.45a.47.47,0,0,1,.19-.29c-.06.1-.11.19-.19.29.85-.11,1.78.23,2.5-.5h0a22.46,22.46,0,0,0,7-1,6.94,6.94,0,0,1,1.82-.33,12.87,12.87,0,0,1-1.82.33C164.83,152.87,166.42,152.87,168,152.74Zm46.38-48.14a.32.32,0,0,1,.37-.18,4.49,4.49,0,0,1,.57,1.3A8.93,8.93,0,0,0,214.37,104.6Zm19.91,1.34h0S234.29,105.93,234.28,105.93Zm20,35,15-6.48a10.12,10.12,0,0,0,3.51-1h0l8.88-1.52a2.09,2.09,0,0,0,.21.29,7.47,7.47,0,0,0,3.92.45,27.06,27.06,0,0,1,14.3,3.8,28.11,28.11,0,0,1,10.13,10,4.6,4.6,0,0,0-4,.23l0,0c-.52-1.38-1.81-1.19-2.86-1.2-5-.08-10.11-.28-15.15.07-2.65.19-5.49-.29-8,1.28a.63.63,0,0,0-.06.47h-.07a13.31,13.31,0,0,0-4.48.52h0a8.13,8.13,0,0,0-3.42.46h0a8.63,8.63,0,0,0-3.48.53h0L261.33,150c-1.78-.48-3.51,1-5.32.08a39.43,39.43,0,0,0-7.29-3c-.69-.2-2-.28-1.48-1.72h0l7-4.39Zm90.38,37.51c.42.18.82.4,1.21.62l4,4v0a1.9,1.9,0,0,0,.33.59l.32.25a7,7,0,0,0,1.37,1.84,1.76,1.76,0,0,0-.07.32,2.54,2.54,0,0,0,1.85,2.55l.3.52a1.46,1.46,0,0,0-.09.17c-.08,2.4,1.56,4.17,2.31,6.27.28.51.57,1,.86,1.5s.45,1.2.69,1.8h0c.1.85-.18,1.77.49,2.51h0c.17,1.17-.28,2.42.48,3.5h0a68.92,68.92,0,0,1-1.73,17.9c-.43,1.95-2.07,3.45-1.74,5.58-.93-3.34-3.53-5.77-5.28-8.57-2.6-4.15-6.59-7.52-9.91-11.31-1.67-1.9-4.44-3-4.31-6.12.23-4.84,1.29-9.62,1-14.5h0q0-2.75,0-5.5,0-4.5,0-9h1l.23,0h.23l2,1.21h0a1.64,1.64,0,0,0,1.38.87h0c.07,1.22.82,1.72,2,1.77l.12,0A1.6,1.6,0,0,0,344.64,178.48Zm-31.38-13.57h0Zm5.52,12.5a1.31,1.31,0,0,1,.21.22l-.21,0v-.19h0Zm0,14,0,.08h0Zm11.17,27.14h0v0ZM305,176.94a14.12,14.12,0,0,0-5.77-3.51,15.65,15.65,0,0,0-6.5-4c0-.8-.78-1-1.22-1.39-1.06-1-2.65-1.34-3.7-2.37.82,0,1.71.11,2.24-.63l.28.1a13.55,13.55,0,0,0,3.22.17,120.51,120.51,0,0,1,23,1.84l.23,0a4.42,4.42,0,0,0,0,2.16,66,66,0,0,1,.59,12c0,1.13.57,2.69-.48,3.26s-2-.87-3-1.35c-2.27-1.09-3.48-3.61-6-4.42l-.25.19s0,0,0,0C306.44,178.83,305.88,177.67,305,176.94Zm15.68,80,.06.11-.12,0Zm-3.56,28.79a1.22,1.22,0,0,0-1.38.24c-1.9,2.2-4.54,3.68-6.09,6.21-.61-.08-1.06.47-1.53.82a30,30,0,0,0-3.19,3l-.14.17c-.48-.11-1,.25-1.49.35,1.76-3.7,4.1-6.92,5.68-10.56.37-.86,1.08-1.65.29-2.58a8.09,8.09,0,0,0,2-4.46c2.16-3.85,4.39-7.67,5.5-12a62.92,62.92,0,0,0,5.5-13.5h0a79,79,0,0,0,5.3-15.69,4.87,4.87,0,0,0,.2-.81c1.18-2.21,1.18-4.84,2.49-7h0c1.21.52,1.19-1.18,2.14-1.4,1.91,3.62,5,6.36,7.28,9.85,1.58,2.47,2.38,5.48,4.89,7.37.93.7.46,1.79.12,2.76s-1.38,2.17-.49,3.46c-1,.47-1.51,1.16-1,2.26-2.94,1.81-4.31,4.77-5.66,7.74,0,.1.07.25.18.37a10.27,10.27,0,0,0-5.43,7c-.94-.26-1.51.38-2,1-1.79,2.22-3.86,4.21-5.41,6.62a7.4,7.4,0,0,1-1.32,2s0,.09,0,.13c-2.86,1.13-4.19,3.9-6.21,5.93a.75.75,0,0,0-.1.79Zm45.08-95.08c-.16-.09-.33-.17-.51-.25l.61-.25A4.16,4.16,0,0,0,362.22,190.63ZM119.78,335s0,0,0-.07l0,.05Zm-9.5-37.75a1.21,1.21,0,0,0,.16.23l-.09.09A1.91,1.91,0,0,1,110.28,297.26Zm14.06,1v0h0Zm-40.4-22.9c.95-1.34.61-2.82.46-4.28a45.51,45.51,0,0,1-.18-9.11l.43.64h0a10.79,10.79,0,0,0,1.56,3.88h0a4.53,4.53,0,0,0,1,2.44h0c.19,1.59,1.57,2.78,1.53,4.45-.79,1.85-2,3.5-2.47,5.54-.16.64-.13,1.78-.93,2.3a4.41,4.41,0,0,0-.44-1.68,2.78,2.78,0,0,1-.21-.45,2.72,2.72,0,0,0-1-3.62l-.09-.09A2.06,2.06,0,0,0,83.94,275.32ZM96.33,320.9h0Zm3.26,5.41a3.19,3.19,0,0,0-.38-1.54,5.69,5.69,0,0,1-.76-1.47,82.77,82.77,0,0,1-1.3-12.52c0-2.75.79-5.36,1.07-8a5.74,5.74,0,0,0,.75-2.54c.91-2.14,1.31-4.45,2.08-6.64h0l.63.52h0a49.61,49.61,0,0,0,6.56,8.85h0a25.27,25.27,0,0,0,4.51,5.47,38,38,0,0,0,5.8,6.78,5.74,5.74,0,0,1,1.73,5.35c-.42,3.27-.71,6.57-1.06,9.85-.24-.09-.49,0-.76.43a4.74,4.74,0,0,0-.47,2.65c0,3.72,0,7.45,0,11.17,0,1.52-.8,2.2-1.93,1.07-2.66-2.67-6.55-4-8.33-7.64-.38-.77-.92-1.76-2-1.73l-.05-.11c-.86-1.11-1.44-2.46-2.7-3.23.2-.85-.09-1.43-1.16-1.58l.06,0c.45-2.13-.88-3.5-2.08-4.93Zm85.14,35.59,0,0h0v0ZM80.22,205.43s0,0,0,0l0,0ZM209.66,347.88c-3.32,1-6.84,1.38-10,3a2.69,2.69,0,0,0,.12.25l-.22-.11c-2.37-2.14-5.37-3.1-8.2-4.36a.9.9,0,0,0-.75,0l0-.1c-2-2-4.7-2.75-7.05-4.11C170.71,335,158.41,326.87,147.33,317c-2.42-2.16-5.42-3.81-6.9-6.93,1.52-1.54,1.08-3.74,1.5-5.65a5.22,5.22,0,0,1-.3-1.58l.66-2.28a3.66,3.66,0,0,0,.29-1l5.64-19.61h0l.62-2a1,1,0,0,0,.41-1l3.53-9.44h0a118,118,0,0,0,5-11.57h0a126.94,126.94,0,0,0,5.52-11.49.9.9,0,0,0,.44-1l.53-1.11h0c2.46-3.79,4.46-7.83,6.53-11.83h0l12-19.46h0c.56-.71,1.16-1.38,1.68-2.12,3.64-5.24,7.33-10.44,11.33-15.41h0c3.74-1.92,7.43-4,11.23-5.74,6-2.85,12.16-5.54,18.24-8.3a3.78,3.78,0,0,0,2.53-1h0a2.62,2.62,0,0,0,.9-.14,2.87,2.87,0,0,0,.77.18c2.33-.56,4.73-1,6.48-2.85a.15.15,0,0,0,.07-.1c2.81.66,5.06-.82,7.36-2.08.07-.13.15-.24.23-.36,1.8.27,3.53.27,4.81-1.24a4,4,0,0,0,.71.13c2.61-.22,5.09-1.12,7.67-1.52.24-.08.48-.14.72-.21l10.72,5.16c4.48,3,9.35,5.31,14,8,1.63,2.28,4.59,2.63,6.5,4.5l6,4c2,2.36,4.88,3.6,7.26,5.48,4.11,3.25,8.42,6.26,11.77,10.36.29.35.56.72,1,.52,1.77-.91.82.51.92,1,0,.08,0,.15,0,.23a4.43,4.43,0,0,0,0,.71,10,10,0,0,1-.2,1.66c-1.56,6.68-3.16,13.35-4.75,20-1.82,3.64-2.36,7.72-4,11.43a61.26,61.26,0,0,0-2,6.08h0c-1.66,2.63-2.1,5.76-3.5,8.5a2.94,2.94,0,0,0-1,2.5h0a26.48,26.48,0,0,0-3.5,8.5,23.29,23.29,0,0,0-4,8c-2.11,2.4-2.85,5.56-4.51,8.19-3.45,5.46-6.09,11.37-10,16.58-3.43,4.57-5.86,9.85-9.41,14.38a6.32,6.32,0,0,0-1.12,2.72,11,11,0,0,1-2.17,4.9,13.68,13.68,0,0,1-1.44.64,9.82,9.82,0,0,0-5.21,3.53,2.64,2.64,0,0,1-.05.27l-.58.29-.08.05a2.06,2.06,0,0,0-.17-.3c-1.26-.23-2.24.5-3.28,1-5,2.32-9.63,5.24-14.68,7.44-3.05,1.33-6.21,2.42-9.22,3.82C224,343.58,216.83,345.71,209.66,347.88Zm66.09-29.46,0,0v0ZM357,266.29a7.56,7.56,0,0,1,.38-.77Zm-88.37-117c.05-.15.1-.29.15-.44A.56.56,0,0,1,268.61,149.32ZM124.23,251.69l.36-.24c1.47-1.24,3.28-2.24,3.21-4.54,1.22-.49,2.66-.79,2.56-2.39l.1,0a10,10,0,0,0,3.12-2.68c.88-1,2.46-1.65,2.21-3.4a6.56,6.56,0,0,0,4.72-4.21A4.18,4.18,0,0,1,141,234c1.09-.78,2.41-1.38,2.31-3.05,1.69,0,2.36-1,2.62-2.47,1.38.12,2.3-.31,2.26-1.89l0,0c1.58-.8,3.6-1.12,3.95-3.27.68-.09,1.32-.38,2-.49l-7,14.06a75.57,75.57,0,0,0-4.87,10h0a201.2,201.2,0,0,0-10,24.49.46.46,0,0,0-.11.41,100.64,100.64,0,0,0-4.39,13.5c-.13,0-.26.06-.39.1-1.63,2.28-1.81,5-2.43,7.63a1.76,1.76,0,0,1-.14.27,2.71,2.71,0,0,1-1.66-1.16c-1.11-1.42-2.15-2.89-3.28-4.29-.53-.65-.92-1.55-2-1.47,0,0,0-.07,0-.11,0-1.78-1.19-2.9-2.37-4l-.13-.08c0-1.26-.69-2-2.06-2.33l0,0c0-2.8-1.74-4.64-3.6-6.41h.1a149.16,149.16,0,0,1,8.66-13.59c1-1.33,2.55-2.48,2.39-4.47l0,0C122.89,254.56,124,253.32,124.23,251.69ZM96.48,350.3l-.54,0,.38-.25Zm47.78,4.65c-4.79-.73-4.87-.8-5.26-5.52-.06-.66-.2-1.32-.22-2a104,104,0,0,1-.1-11.18,44,44,0,0,1,5.08,4.34c.83.88,1.66,1.39,2.83.68a1,1,0,0,0,.25-.26c.24,1.24,1.34,1.75,2.23,2.37,5.63,3.9,11.32,7.72,17.14,11.34a3.62,3.62,0,0,0,1.53.67,1.72,1.72,0,0,1-.77.2C159.39,355.49,151.8,356.09,144.26,354.95ZM337,350.5q-1,.82-2,1.61a7.73,7.73,0,0,0-4.14,2.85l-.81.51c-3,.9-5.55,2.61-8.35,3.86a104.25,104.25,0,0,1-23.85,7c-1,.19-2.33,0-3.15.82-.27,0-.55,0-.83-.09a197.38,197.38,0,0,1-24.6,1,4.49,4.49,0,0,0-1.95.38,4,4,0,0,0-.27.86l-.24-.43c-6.82-.8-13.66-1.37-20.39-2.82-5.73-1.24-11.52-2.24-17.09-4.13,1.84-2.07,4.61-2.1,7-2.82,1.54-.47,2.53-2.2,3.76-2,2.9.51,4.74-1.64,6.94-2.5,3.76-1.48,7.28-3.72,11.17-5,1-.35,1.85-1.25,3.25-.8s3.29.51,2.51-2.35c1.19.31,2.73,2,2.64-.69,0-.53.6-.78,1.12-.8,1.67-.08,2.39-1.33,3.15-2.53,5.53-3.29,11.11-6.5,16.55-9.92,1.9-1.2,4.15-2,5.46-4.07h0a14.14,14.14,0,0,0,4-2.5,26.91,26.91,0,0,0,6-4.5,39.31,39.31,0,0,0,9-7,18.49,18.49,0,0,0,5.49-4.5l1-1c1.49-.25,2.19-1.44,3-2.5h0a13.78,13.78,0,0,0,4.49-4,48.09,48.09,0,0,0,6.5-6.5c1.47-1.86,3.75-2.92,5-5h0a1.57,1.57,0,0,0,1-1.46h0c1.45-.58,2.23-1.92,3.13-3,2.17-2.63,4.85-4.87,6.38-8,2.22-1.74,3.5-4.2,5-6.51l1.5-1.5a3.16,3.16,0,0,0,1.51-1.5l0-.51a8.11,8.11,0,0,1,.79-.23,37.7,37.7,0,0,1,2.29,8.54,36,36,0,0,0,1.44,5.2c1,3.08.64,6.39,1.5,9.5.17,2.48.36,5,.49,7.44.26,4.93-1.22,9.68-1.49,14.56l-2.32,8.15c-.37.73-.76,1.45-1.19,2.14-.72,1.63-2,3-2.49,4.74v0a73.1,73.1,0,0,1-14.46,19.13A19.76,19.76,0,0,0,337,350.5ZM183.77,397.82l0,0,0,0h0Zm15.68-16.21c-2,1.1-4.45.73-6.19,2.32-1,1.37-3,.63-4,2l-9.09,2.39-.21,0c-.06,0-.14.08-.21.13-.85.1-1.79-.28-2.5.5-3.5-.1-7,.55-10.5,0l-3.11-.3-1.28-.74c-2.38-1-4.48-2.58-7.07-3.08h0c-.25-.7-.94-1.05-1.49-1.48a36.53,36.53,0,0,1-8-8.67l-.14-.18c1.2-1.32,2.71,0,4,0,11.24,0,22.5.22,33.63-1.63,2.2-.37,4.46.06,6.6-.78,2.57-1,5.17-2,8-1.67h0c.78.26,1.57.48,2.34.77,3.94,1.48,7.83,3.12,11.8,4.51C208.72,376.62,200,381.29,199.45,381.6ZM380.34,202.89c-.09-.13-.18-.28-.26-.42A1.71,1.71,0,0,1,380.34,202.89ZM259.79,101.94a5.8,5.8,0,0,0-.81.07A1.73,1.73,0,0,1,259.79,101.94Zm-46.1,15.28a1.86,1.86,0,0,1-.2-.52l.27.21c3.17,1.23,6.24.76,9.3-.26a5.36,5.36,0,0,0,1.23.45c5.77.54,11.58-.13,17.35.71,1.52.22,3.1.7,4.67.06a3.45,3.45,0,0,0,.35-.55,1.15,1.15,0,0,1,.11.09,3.07,3.07,0,0,0,3.82.79,2.65,2.65,0,0,0,.15-.3l0,0a1.43,1.43,0,0,0,2.23.67c.74.87,1.85.95,2.86,1.23a1.44,1.44,0,0,0-.73.8,1.12,1.12,0,0,0,0,.23h0a87.63,87.63,0,0,0-18.83,10.06,79.22,79.22,0,0,0-12.05,8.48h0a3.23,3.23,0,0,0-.48,0c-.49-.08-1-.13-1.47-.25a171,171,0,0,0-22.53-3.76h0l-3-.5c-.2-.14-.4-.38-.61-.39a228.13,228.13,0,0,0-24-.55c-.29,0-.57.29-.85.44h0c-2.16.25-4.4-.58-6.5.5h0l0,0v0c-1.5-1.31-3.24-.83-4.9-.55l-1,.17a6.62,6.62,0,0,0,4-2.49h.6c2.65-1,5.44-1.74,7.51-3.87a1.46,1.46,0,0,0,0-.26c3.14.12,5.79-1.39,8.51-2.64l.07-.05c.14,0,.27,0,.42-.07a21.91,21.91,0,0,0,4.49-1.15c.59-.18,1.33-.28,1.66-.84h.38c2.36-.72,5.07-.48,6.91-2.59a1.33,1.33,0,0,0-.08-.13,3.27,3.27,0,0,0,4.58-.85l-.13-.15h0a21.3,21.3,0,0,0,6-1.19,9.37,9.37,0,0,0,1.32.45C208,118.43,211,118.84,213.69,117.23ZM74.47,311.75c0,.05,0,.1,0,.14l-.24,0Zm174.28,90.6c-1.29.19-2.67.07-3.84.86-.13.19-.26.38-.37.57a4,4,0,0,0-3.44-.65,76.14,76.14,0,0,1-9.21.42,19.5,19.5,0,0,0-5.66.85,1.83,1.83,0,0,0-.48.41c-1.62-1.63-6.62-1.88-9.4-.45h-.08a1,1,0,0,0,.08-.19,1.32,1.32,0,0,0-.82-.8,114.49,114.49,0,0,1-16.29-2.29c0-.05,0-.11,0-.16,3.48-.08,17.27-6.06,20.16-7.33.13-.06,18.16-10.47,17.88-10.58l-3.15-1.14a3.31,3.31,0,0,0,1.46.1,11.78,11.78,0,0,0,5.12,1h0l0,0a12,12,0,0,0,5,1l.66.07a2.8,2.8,0,0,0,1.87.4h0l1,.06h0c5.27,1.26,10.65,1.49,16,1.89.29.15.57.43.86.44a208.42,208.42,0,0,0,26.16-.61c2.07-.22,4.14-1.19,6.27-.57-1.23.63-2.46,1.25-3.65,1.94-1.62.93-3.63,1.27-4.73,3a.62.62,0,0,0,.1.24l-.06-.06v0a.34.34,0,0,1,0,0,2.17,2.17,0,0,0-.36-.28,1.79,1.79,0,0,0-1.22,0c-3.59,1.5-7.18,3-10.8,4.39-.59.23-1.18.6-1.15,1.4a2.4,2.4,0,0,0-2.77,0c-1.87.9-4.3.68-5.79,2.37a6.81,6.81,0,0,0-.83,0C261.09,399.89,255,401.46,248.75,402.36Zm99.67-37.83v0h0Z"/><path class="cls-1" d="M219.21,9.94v39c0,3.65-.15,7.3,0,11,.13,4.57,4,8,8.77,8s8.84-3.38,8.89-7.9c.11-9,0-18.09,0-27.14h0q0-7.75,0-15.5h0c0-2.32.1-4.64.09-7a11.75,11.75,0,0,0-.55-4.9c-1.67-3.8-6.09-6.24-9.94-5.37-4.65,1-8,5-7.2,9.77Zm2.47,33.24v0h0Zm-2.2-33.68a.77.77,0,0,1-.27.43Z"/><path class="cls-1" d="M97.21,53h0c1.15,2.08,2.27,4.19,3.47,6.24,4,6.78,7.65,13.74,12,20.3a98.42,98.42,0,0,0,6.8,11.86C121.83,95,127,96,131.09,93.85a8.88,8.88,0,0,0,4.11-10.44h0a6.86,6.86,0,0,0-.49-1.63c-4.16-6.94-7.84-14.17-12.41-20.86A246.61,246.61,0,0,0,108.42,37c-2.43-3.66-7.92-4.14-11.73-1.75a8.73,8.73,0,0,0-3.3,11.34A35.64,35.64,0,0,0,97.21,53Z"/><path class="cls-1" d="M325,93.92a9.08,9.08,0,0,0,12-3.2c.84-1.33,1.49-2.77,2.23-4.16a10.18,10.18,0,0,0,1.9-3.14h0a.38.38,0,0,0,.1-.35,4.62,4.62,0,0,0,1.5-2.6h0a169.88,169.88,0,0,0,9-15.4.75.75,0,0,1-.08-.19l.08.19q4.83-7.56,9-15.52c.15-.35.32-.7.49-1.05a8.06,8.06,0,0,1-.49,1.05c2.59-3.18,3.77-6.67,1.87-10.58a8.46,8.46,0,0,0-8.42-5.06,7.78,7.78,0,0,0-7.19,3.67c-3.63,5.82-7.16,11.73-10.31,17.84-3.51,5.74-7,11.47-10.14,17.45-1.82,3.07-3.83,6-5.41,9.23A8.9,8.9,0,0,0,325,93.92Z"/><path class="cls-1" d="M455.13,130.8a8.83,8.83,0,0,0-11.42-4.35,75.38,75.38,0,0,0-12.06,6.92h0a16.15,16.15,0,0,0-4.16,2.23c-5.58,3.3-11.42,6.15-16.81,9.78-4.17,1.9-8,4.45-11.93,6.75-3.54,2.06-4.56,5.39-4,9.22.53,3.64,2.81,5.9,6.27,7a9,9,0,0,0,7.65-1.14q9.8-5.67,19.58-11.38h0c7.83-4.2,15.48-8.72,23.11-13.28C456.21,140.56,456.67,134.26,455.13,130.8Zm-27.4,24.33a3.61,3.61,0,0,1,.51.74C428.07,155.62,427.72,155.24,427.73,155.14ZM450,140.7a6,6,0,0,1,.89.07,3.29,3.29,0,0,0-.44.32A2.13,2.13,0,0,0,450,140.7Z"/></g></g></svg>