<svg xmlns="http://www.w3.org/2000/svg" viewBox="0 0 997.99 334.54" width="997.99" height="334.54"><defs><style>.cls-1{fill:#fff;}</style></defs><title>Asset 2</title><g id="Layer_2" data-name="Layer 2"><g id="Layer_1-2" data-name="Layer 1"><path class="cls-1" d="M271.71,287.16l-13.93,43.78H135.88V173.35h29.57V305.73h69.2L274.8,173.21h44.8l39.07,129,.89-.13V173c28.17-.57,56-3.82,83.49,2.11,30.41,6.56,43.17,43.21,23.46,66.42a32.67,32.67,0,0,1-10.16,7.92c.13.37.15.83.35.94,18.54,9.95,20.92,26.67,18.45,45.06-2.33,17.41-12.85,27.83-29.43,32.76-10.17,3-20.58,4-31.06,4.3-26.15.77-52.24-1.65-78.81-1.35l-13.63-44ZM389,308c14,0,27.64.68,41.09-2,10.82-2.17,16-8.46,16.25-18.91.3-14.81-4-22-15.6-24.66-13.75-3.13-27.72-1-41.73-1.57Zm.2-111.48V239c9.61,0,18.9,0,28.19,0a51.73,51.73,0,0,0,14.28-1.86c10.52-3,14.74-9.44,14.15-21.46-.52-10.63-5.06-15.77-15.91-17.69C416.6,195.61,403.13,196.86,389.23,196.48Zm-92.3-2.2c-4.47,23.28-13.18,45.21-19.41,67.89h38.74C310,239.31,301.59,217.46,296.93,194.28Z"/><path class="cls-1" d="M165.45,137h70.48v24.23H135.4V3.42H258.08c12.35,45.45,28.35,90,38.67,136.45C307.42,93.64,323.14,49.16,335.6,3.49H460.29V27.92H389.92V68.06h66V92.21H389.79V136.9h70.52v24.32H359.41V29.38l-1-.18L318.31,161.41H274.56l-40.13-133H165.56V68h65.61V92.09H165.45Z"/><path class="cls-1" d="M776.25,45.61c1.19,39,.4,77.19.67,115.63H749.54V3.46h34.7c20.31,37.7,41.75,75.06,61.89,113.25C845.39,79,846,41.31,845.84,3.4h27.46V161.2H838.45Z"/><path class="cls-1" d="M31.85,161.31H0L36.85,97.44a6.21,6.21,0,0,0-1.17-.92C15.29,87.36,9.2,70.33,9.93,49.6c.52-14.79,4.68-27.87,17.73-36.6,9.4-6.29,20.12-8.61,31.09-9.77,21.59-2.28,43.2-.51,65.13,0V161.11H95V103.5H66.37ZM94.68,27.44C81.06,28,67.9,27,55,30.07,46.4,32.13,40.7,37.32,39.74,46.34c-1.75,16.35,1.51,27.18,17.38,31,12.38,3,25,2.41,37.57,1.67Z"/><path class="cls-1" d="M471.69,3.17c23.72-.34,47-2.61,70.23.78A72.13,72.13,0,0,1,561.07,9.3C576.46,16.18,583.8,28.67,585.16,45a79.27,79.27,0,0,1-.56,19.43c-2.28,14-9.5,24.23-22.11,30.69-1.32.67-2.61,1.4-4,2.17l36.91,64H563.52L529,103.41H500.68v57.81h-29Zm29,76c12.93.44,25.43,1.29,37.67-1.86C551.44,73.91,557,65.57,556.2,51.18c-.74-13.72-6.43-19.94-20.27-22.11-1.64-.26-3.29-.47-5-.6-10-.79-20.07-1-30.26-.91Z"/><path class="cls-1" d="M969.37,138V100H957.76V77.38H998V160c-7.37,2-15,2.77-22.56,3.52-15.42,1.53-30.9,2.73-46.32.32-27.09-4.24-43.1-20.09-47.27-49.1-3.17-22.09-3.5-44.58.47-66.66C887.58,18.74,904.52,3.82,934,.82c17.61-1.79,47.63.4,63.65,4.69V28.2c-10.94-.5-21.7-.94-32.45-1.51-9.65-.52-19.28-.83-28.86.84-13,2.27-21.54,9.82-24,22.75a172.17,172.17,0,0,0-.15,64c2.84,15.37,11.52,22.09,27.22,24C949.34,139.42,959.24,138.86,969.37,138Z"/><path class="cls-1" d="M697.26,5.19V27.84l-30.72-2.15a132.54,132.54,0,0,0-26.4.29c-8.84,1.14-14.28,4.89-15.66,11-1.88,8.28,1.1,15,9.17,19.7,9.67,5.59,20.36,8.9,30.6,13.22,9.2,3.88,18.36,7.79,26.09,14.32a37.64,37.64,0,0,1,13.36,24.86c1.89,14.65.94,28.67-9.7,40.27-8,8.77-18.57,12.88-30,14.45-21.5,3-42.83.54-64-3.24a6.51,6.51,0,0,1-1.47-.71V137.08c14.36,1.56,28.58,2.2,42.8,2.61a68.77,68.77,0,0,0,19.3-1.73c6.56-1.69,11.39-5.36,12.78-12.44,1.54-7.83.52-14.94-6-20.36-4.54-3.76-9.94-5.94-15.29-8.25-11.12-4.8-22.71-8.53-33.29-14.52-20.24-11.45-28.52-30.75-23.05-53.34,3.2-13.23,11.8-21.19,24.49-25.11S645.83-.37,658.84.21A199.48,199.48,0,0,1,697.26,5.19Z"/><path class="cls-1" d="M483.35,306.81c14.87,1.58,29.29,2.39,43.76,2.53,6,.06,12,0,17.85-1.43,6.56-1.65,11.74-5.14,13.21-12.12,1.65-7.86.92-15.32-5.92-20.9-4.31-3.52-9.35-5.69-14.4-7.86-10.83-4.65-22-8.45-32.5-13.94-23-12.07-30.17-31.91-24.06-56.31,3.36-13.39,13.28-20.25,25.89-23.7,14.51-4,29.34-3.67,44.16-2.63A165.92,165.92,0,0,1,582.12,175v22.53c-12.33-.82-24.54-1.78-36.76-2.39a99.81,99.81,0,0,0-21.43.76c-8.4,1.39-13.32,4.93-14.56,10.86-1.72,8.29.85,14.58,8.31,19.12,9.28,5.65,19.74,8.7,29.62,13.05,5.47,2.41,11.08,4.56,16.35,7.35,18.75,9.91,27.91,22.64,25.22,50-1.68,17.07-11.9,27.55-27.53,34.14-17.21,7.26-64.57,3.45-78-1Z"/><path class="cls-1" d="M738.64,161.26H709.12V3.47h29.52Z"/></g></g></svg>