<svg xmlns="http://www.w3.org/2000/svg" xmlns:xlink="http://www.w3.org/1999/xlink" style="isolation:isolate" viewBox="1123.044 453.491 93.911 147.019" width="93.911" height="147.019"><path d=" M 1180.143 521.337 L 1193.478 527.466 L 1207.698 534.002 C 1212.807 536.35 1216.956 542.822 1216.956 548.445 L 1216.956 559.839 L 1216.956 571.233 C 1216.956 576.856 1212.807 583.328 1207.698 585.676 L 1193.478 592.212 L 1179.257 598.748 C 1174.148 601.097 1165.852 601.097 1160.742 598.748 L 1146.522 592.212 L 1132.302 585.676 C 1127.193 583.328 1123.044 576.856 1123.044 571.233 L 1123.044 559.839 L 1123.044 548.445 C 1123.044 547.762 1123.106 547.067 1123.222 546.367 L 1123.222 468.669 C 1123.222 463.978 1126.844 458.993 1131.305 457.544 L 1142.555 453.889 C 1147.016 452.439 1150.637 455.071 1150.637 459.761 L 1150.637 525.574 L 1150.659 525.564 C 1150.644 525.577 1150.636 525.584 1150.637 525.585 L 1166.521 543.39 L 1141.468 543.944 C 1141.093 543.931 1140.817 543.934 1140.632 543.956 C 1139.762 544.057 1139.006 544.357 1138.368 544.854 C 1137.607 545.508 1137.519 546.14 1138.1 546.751 L 1178.18 589.359 C 1178.858 589.988 1179.859 590.225 1181.188 590.071 C 1181.371 590.05 1181.689 589.985 1182.141 589.876 C 1182.903 589.647 1183.457 589.314 1183.802 588.878 C 1184.146 588.443 1184.201 588.013 1183.966 587.587 L 1168.776 557.871 L 1194.905 556.344 C 1195.092 556.35 1195.368 556.332 1195.735 556.289 C 1196.56 556.194 1197.252 555.959 1197.812 555.583 C 1198.588 555.068 1198.823 554.49 1198.516 553.847 L 1180.143 521.337 Z " fill-rule="evenodd" fill="#fefefe"/></svg>
