<svg xmlns="http://www.w3.org/2000/svg" viewBox="0 0 1689.28 188.09" width="1689.28" height="188.09"><title>Asset 1</title><g id="Layer_2" data-name="Layer 2"><g id="Layer_1-2" data-name="Layer 1"><path d="M0,89.09C.94,83.73,1.65,78.31,2.86,73c15.5-67.66,99.34-96,152.69-51.66a11.06,11.06,0,0,1,1.17,1.45c-4.67,8.11-9.38,16.3-14.11,24.48a27.28,27.28,0,0,1-1.71,2.35c-30.07-28.11-68.63-21.5-89.65-.2-22.74,23-24.2,58.7-4,84.2,16.92,21.32,59.34,36.51,94.28,3.94L157,164.33A90.75,90.75,0,0,1,119.93,184,95.74,95.74,0,0,1,1.41,106.81C.93,103.9.47,101,0,98.09Z"/><path d="M1241,188.09c-4.89-2-10-3.57-14.61-6.14-25.76-14.43-28.84-48.76-6.26-67.81,11.78-9.94,25.69-13.63,40.72-13.85,12.13-.18,24.27,0,36.38,0,.84-12.94-8.4-23.72-21.9-26.2-14.4-2.64-27.7,1.09-40.71,6.69-1.68.72-3.33,1.5-5,2.21-.27.11-.64,0-1.36-.1L1216,61.58c23.58-11.34,47.33-19.22,73.45-13.17,23.55,5.46,39.88,25,40.59,49.49.73,25,.38,49.95.49,74.92,0,4.14,0,8.27,0,12.75h-32.21V171c-8.42,9.2-18.19,13.43-28.29,17.07Zm56.82-64.83c-11.27,0-22.21-.06-33.15,0a28.11,28.11,0,0,0-8.39,1c-3.9,1.28-8,2.68-11.26,5-12,8.67-11,25,2,32.21,10.49,5.83,21.47,4.87,32.36,1,9.83-3.45,16.64-10.1,18.31-20.52C1298.6,136.15,1297.82,129.92,1297.82,123.26Z"/><path d="M645,188.09c-8.84-4-18.41-7-26.39-12.34-25.6-17.15-36.74-46.88-29.41-75.42,7.24-28.15,33.6-50.45,63.2-53.45a73.44,73.44,0,0,1,80.26,62.35c4.86,32.72-18.38,67-52.11,76.93-1.88.55-3.7,1.28-5.55,1.92ZM618.65,117c-.68,22.65,17.66,43.15,38.8,44.36,24.94,1.42,43.06-20.54,43.72-41.38C701.93,95.8,684,74.72,662,74.1,638.47,73.43,619.39,92.33,618.65,117Z"/><path d="M1410,188.09c-11.84-3.59-23-8.49-32.55-16.6-21.48-18.14-30.7-47.21-22.86-72.91,8.32-27.28,33.61-48.44,61-51.58,20-2.29,37.84,2.62,54.27,15.2l-14.61,25.35c-9.86-9.62-21.11-14.65-34.54-13.28-10,1-18.37,5.71-25.11,13.1-15.35,16.84-15.41,43.42-.46,60.28,12.38,14,36.67,21.94,60.58.48L1470,172.91c-8.76,7.89-19.31,11.69-30,15.18Z"/><path d="M975.21,4.93h4.67c28.65,0,57.31-.12,86,0,15.64.09,29.65,5,40.15,17,17,19.47,13.36,48.58-7.64,63.74-2,1.43-4,2.75-6.39,4.36,4,2.57,7.69,4.71,11.13,7.22,19.85,14.51,26.8,38.39,16.77,59.17-8.51,17.62-23.88,25.74-42.45,28.59a111.12,111.12,0,0,1-16.42,1c-26.65.1-53.31,0-80,0h-5.81Zm32,152c19.36,0,38.3.33,57.22-.23,4.87-.14,10.15-2.29,14.41-4.88,14.56-8.86,15.47-28.68,2.17-39.33-5.82-4.66-12.58-6.58-20-6.57q-25,0-49.9,0c-1.27,0-2.53.21-3.94.34ZM1007,77.12c18,0,35.37.54,52.63-.32,5.52-.28,11.57-3.32,16.12-6.77,8.94-6.77,9.06-20.24,1.25-28.33-6.39-6.61-14.56-8.36-23.27-8.41-14.16-.09-28.31,0-42.47,0-1.28,0-2.57.19-4,.31-.09,1.57-.22,2.87-.23,4.17C1007,50.72,1007,63.67,1007,77.12Z"/><path d="M460.64,163.64v20.18H428.37V3.16h32.19V68c3.3-3.47,5.49-6.12,8-8.4,24.79-22.38,63.79-19.49,85.1,6.25,24,29,22,78.49-4.13,104.56-23.81,23.71-63.22,22.41-85.5-2.83ZM538.14,116l1.25-.48c-2.18-7.58-3.32-15.67-6.75-22.64C526,79.43,514.52,72.29,499.3,72.23S473,79.4,465.84,92.72c-5.36,9.95-6.18,20.62-4.76,31.56,3.53,27.3,30.15,43.17,54,31.77C531.71,148.14,537.63,133.44,538.14,116Z"/><path d="M1614.41,186.09c-11.67,0-22.48.14-33.29-.15-1.61,0-3.74-1.8-4.65-3.34-8.45-14.33-17-28.62-24.85-43.28-3.89-7.25-8.92-10.75-17.13-9.78a83.54,83.54,0,0,1-9.29.05v56.22h-31.94V5H1525V99.92c6.91,0,13.2.24,19.46-.08,5-.25,7.22-4.33,9.41-8.1,7.45-12.8,14.93-25.58,22.19-38.49,1.67-3,3.55-4.17,7-4.09,10.12.25,20.25.09,31.2.09-1,2-1.65,3.44-2.43,4.8-11.38,19.75-22.68,39.54-34.25,59.18-2,3.36-1.82,5.68.1,9,11.47,19.5,22.69,39.15,34,58.76C1612.52,182.36,1613.23,183.83,1614.41,186.09Z"/><path d="M266.84,98.59c-1.44-21.08-16.55-28.82-35.29-26.89-9.75,1-19.2,5-28.77,7.66a41.11,41.11,0,0,0-5,2.23L185.68,60.68c.32-.69.38-1.13.6-1.25C209.22,47.92,233,40.59,258.92,46.75c24.24,5.77,39.82,25.18,40.42,51.19.65,28,.13,56,.11,84a11.76,11.76,0,0,1-.34,1.81H267.33V171.25c-7.18,4.17-13.76,9-21.1,12-15.5,6.3-31.33,5.68-46.62-1.11-15.9-7.07-24.72-19.54-25.31-37-.55-16.23,7.27-28.36,20.62-37,10.5-6.84,22.22-9.54,34.65-9.55Zm0,23.8c-14,0-27.73-.58-41.4.32-4.66.31-9.7,3.59-13.46,6.81-8.56,7.33-8.43,19.8.12,27.18,11,9.48,23.58,8.36,36.23,4.14,9.66-3.22,16.52-9.71,18.31-19.87C267.74,134.89,266.87,128.47,266.87,122.39Z"/><path d="M784,185.87H751.77V49.6h32.11V67c8.26-10.26,17.52-16.29,28.87-19,33.58-8,62.84,13.7,63.61,48.11.65,29.13.13,58.29.11,87.44a18.58,18.58,0,0,1-.3,2.23h-31c0-1.79,0-3.56,0-5.32,0-25.15.06-50.3,0-75.45,0-12.62-4.78-22.83-16.61-28.45C812,68.71,789.72,78.8,784.8,96.17a25.7,25.7,0,0,0-.76,6.89Q784,141.53,784,180Z"/><path d="M1149.56,4.92h31.62v181h-31.62Z"/><path d="M323.53,47.92h32.17V68.55c14.37-12.13,29.86-19.57,48.4-21.13v28c-6.13.93-12.29,1.37-18.18,2.85-18.31,4.62-30,19.72-30.06,38.64-.11,20.31,0,40.62,0,60.93,0,1.81,0,3.62,0,5.83h-32.3Z"/><polygon points="1674.8 136.02 1645.83 136.02 1631.35 161.11 1645.83 186.19 1674.8 186.19 1689.28 161.11 1674.8 136.02"/></g></g></svg>