<svg xmlns="http://www.w3.org/2000/svg" width="1721.1" height="479.72" viewBox="0 0 1721.1 479.72"><defs><style>.cls-1{fill:#1da2d6;}.cls-2{fill:#d72127;}</style></defs><title>Asset 1</title><g id="Layer_2" data-name="Layer 2"><g id="Layer_1-2" data-name="Layer 1"><g id="m74LLs.tif"><path class="cls-1" d="M304.74,0c2.47,38.59,3.39,77.08,2.76,115.71-10,4.39-15.85,11.84-16.82,22.81q-34.18,19.92-68.17,39.69c-20.81-21.82-49.92-18.17-66.25-4.81s-22.37,37.63-13.47,57c5.19,11.29,13.15,19.9,24.66,24.81s23.12,5.07,35,1.38q17.4,26.82,34.77,53.59a68.44,68.44,0,0,0-4.5,6.09,68.06,68.06,0,0,0-3.12,6.89L122.78,343.7c-9.18-10.18-22.19-8.46-29.1-1.31-6.51,6.74-8.36,19.92,2.41,29.14.62,16.82,1.25,33.78,1.87,50.76-1.79,1.15-3.31.42-4.64-.6-7.6-5.81-15.48-11.31-22.66-17.61a207.5,207.5,0,0,1-50-66.05A211.63,211.63,0,0,1,3.13,286,146.14,146.14,0,0,1,0,254.58c.23-10.66-.39-21.39.7-32a227.55,227.55,0,0,1,6.08-33A204.75,204.75,0,0,1,45.33,113q39.18-49.35,99-69.42c15.23-5.13,30.88-8.77,47-9.76A306.3,306.3,0,0,1,222.45,33a206.16,206.16,0,0,1,66.26,14.21c.76.29,1.55.51,2.59.84Z"/><path class="cls-2" d="M231,190.71,294.57,154c7.21,9.59,16.53,13.94,28.43,10.79a25.25,25.25,0,0,0,16.08-12.65c6.8-12.29,2.41-30.24-14.3-36.65-.6-16.81-1.22-33.74-1.85-51.17,35.12,22.12,61.7,51.43,79.21,88.41C427.34,206,430.66,261,410.83,316.5,390.36,373.79,351.77,415.31,296,439.68s-112.2,23.6-168.71.6q-5.85,19.74-11.7,39.44l-.52-.05q-1.65-52.46-3.28-104.88c8.48-2.65,13.46-7.92,15.14-16.42l103.83-20.1a26.16,26.16,0,0,0,16.1,15.56,24.68,24.68,0,0,0,17.55-.49,26,26,0,0,0,16-28.3c-1.95-11.19-12.55-23-29.3-21.2-11.61-18-23.29-36.18-34.93-54.28C234.51,233.39,239.43,213.91,231,190.71Z"/><path class="cls-2" d="M946.29,285.48V123.92c.54,0,1-.14,1.48-.14,49.25,0,98.5,0,147.75.11a85.56,85.56,0,0,1,27.24,4.28c13.17,4.46,21.23,13.33,23.56,27.07a70,70,0,0,1-.65,27.27c-2.24,9.94-8.32,16.18-17.84,19.33-1.34.44-2.66.94-4,1.43-.11,0-.16.26-.36.64,1.59.3,3.11.6,4.62.87,13.1,2.4,20.85,9.82,23.54,22.82a70.87,70.87,0,0,1-.09,29.75c-3.18,14.55-13.47,24.24-28.61,26.43a146.83,146.83,0,0,1-20.62,1.63q-76.62.19-153.25.07Zm49.47-38.74c.67,0,1.23.08,1.79.09,28.49,0,57,0,85.48-.05a54.31,54.31,0,0,0,10.87-1.09c5.42-1.13,8.3-4.87,8.54-10.23.28-6.37-2.32-11.09-7.54-12.66a33.84,33.84,0,0,0-9.54-1.41c-29-.1-58-.06-87-.06h-2.62Zm.07-84.26v25.35h87.41c.92,0,1.84,0,2.75,0,7.06-.4,11.07-3.62,11.81-10.13.89-7.84-1.9-13.31-9.22-14.7a29.32,29.32,0,0,0-5.46-.47q-42.24,0-84.48,0Z"/><path class="cls-2" d="M1504.79,123.83H1508q72,0,144,0c11.76,0,23.47.4,34.9,3.48,20.13,5.44,31.31,18.57,33.21,39.34.66,7.2.89,14.46,1,21.69.14,14.17.1,28.33,0,42.49a78.92,78.92,0,0,1-3.33,23.38c-4.37,13.82-13.87,22.32-27.4,26.67-11.94,3.85-24.3,4.6-36.73,4.61q-73.23,0-146.46,0c-.73,0-1.46-.06-2.31-.1Zm49.41,120.35h2.92c19.32,0,38.64,0,58,0,11.16,0,22.34.15,33.47-.45,14.37-.77,20.71-6.76,22.16-18.7a176,176,0,0,0,0-42.36c-1.33-11.11-6.74-16-17.92-17.87a76.28,76.28,0,0,0-12.18-.87c-27.9-.07-55.8,0-83.7,0h-2.76Z"/><path class="cls-2" d="M1353.35,222.15c2.81.8,5.63,1.45,8.34,2.4,10.1,3.54,15.63,11,17.29,21.28a123.09,123.09,0,0,1,1.22,16.4c.19,7.65,0,15.3,0,23.1h-49.34c0-1.82.06-3.63,0-5.43-.26-7.73-.16-15.5-1-23.18-.83-7.91-5.6-12.05-13.48-12.9a61.11,61.11,0,0,0-6.48-.42q-37.74,0-75.48,0h-1.81v42h-49.37V123.78h2.76q74.23,0,148.47,0a63.77,63.77,0,0,1,23.45,4.06c11.8,4.63,18.53,13.58,21,25.64a125.27,125.27,0,0,1,.94,42.75c-2,14-11.18,21.48-24.23,25-.64.17-1.28.33-1.91.52C1353.64,221.8,1353.53,222,1353.35,222.15Zm-120.66-18.7h2.39q29.85,0,59.71,0c7.75,0,15.49,0,23.23-.17s13.27-3.94,14.18-11a81.59,81.59,0,0,0-.17-17.6c-.44-4.8-3.65-8.07-8.32-9.19a50.29,50.29,0,0,0-11.56-1.52c-25.82-.13-51.63-.07-77.45-.07-.64,0-1.28.09-2,.13Z"/><path class="cls-2" d="M631.55,181.13V123.94H680.9V285.35H631.7V224.44H527.33V285.3H477.8V145.85L435.62,124H527v57.18Z"/><path class="cls-2" d="M759.36,123.9l54.33,66,54.36-66h59.66L838.45,229.13v56.05H789.11V229.37L699.69,123.9Z"/><path class="cls-2" d="M1466.48,285.37h-49.13V124h49.13Z"/><path class="cls-1" d="M1616.36,366.46h23.93c1.22,7.67,2.59,8.8,10.49,8.81q15,0,30,0a21.22,21.22,0,0,0,3.47-.32c5-.82,7-3.59,5.7-8.47a5.06,5.06,0,0,0-2.81-3.09,28.57,28.57,0,0,0-8-1.5c-11.81-.31-23.64-.26-35.45-.67a94.12,94.12,0,0,1-14.05-1.82c-7.34-1.38-11.66-5.87-12.15-13.44a94.55,94.55,0,0,1-.16-15.69c.94-9.12,6-14.11,15.68-15.78a94.26,94.26,0,0,1,14.61-1.43q17.37-.32,34.74,0a85,85,0,0,1,14.6,1.48c9.61,1.87,13.9,7.36,14.52,17.82.12,2,0,4,0,6.16H1688c-.15-.29-.37-.51-.36-.71.37-5.07-2.22-6.89-7.54-7-10.49-.15-21-.09-31.48-.06a13.49,13.49,0,0,0-3.68.55c-3,.88-4.1,2.57-4.07,5.76s.78,4.57,4.08,5.3a42.28,42.28,0,0,0,8.4.91c9.41.15,18.83-.07,28.23.25a111.8,111.8,0,0,1,17.82,1.83c10,2,13.94,6.27,14.92,16.29a67.56,67.56,0,0,1-.51,16.38c-1.16,7.78-6.73,12.33-15.67,13.23-7.52.76-15.08,1.35-22.64,1.43-12.57.13-25.15-.07-37.71-.47a39.6,39.6,0,0,1-10.9-2.27,13.21,13.21,0,0,1-9.32-10.78C1616.91,375.05,1616.77,370.82,1616.36,366.46Z"/><path class="cls-1" d="M1334,366.45h24.19a9.62,9.62,0,0,1,.23,1c.68,6.1,2.13,7.63,8.37,7.72,11,.14,22,.11,33,0,4.8,0,7.43-1.7,7.88-4.94.69-5-.74-7-4.65-7.53a122,122,0,0,0-13.88-1.29c-9.08-.23-18.18.14-27.24-.27a102.14,102.14,0,0,1-16.47-2.37,12.13,12.13,0,0,1-10.13-11.26,93.12,93.12,0,0,1-.18-17.9c.79-8.25,5.55-13.21,13.64-14.75a103.78,103.78,0,0,1,16.56-1.86c11.41-.28,22.83-.22,34.24,0a95.6,95.6,0,0,1,14.63,1.4c9.59,1.68,14.28,7.42,14.83,17.55.12,2.14,0,4.28,0,6.57h-23.42a6,6,0,0,1-.39-1.18c-.49-4.77-1.73-6.38-6.43-6.46-11.32-.2-22.66-.17-34,0-3.84.05-6.07,2.19-6.27,5.16-.29,4.48,1.35,6.42,6,6.78,3.73.28,7.48.45,11.22.53,10.24.2,20.49.21,30.72.54a61.2,61.2,0,0,1,11.1,1.49c9.28,2.05,13.45,6.55,14.41,16a70.3,70.3,0,0,1,0,14.43c-1,9.25-6.41,14.47-16.13,15.42-8.35.83-16.76,1.35-25.15,1.45-11.73.15-23.49,0-35.22-.48a40.44,40.44,0,0,1-11.37-2.45c-4.21-1.43-7.43-4.49-8.34-8.94C1334.73,376.19,1334.51,371.39,1334,366.45Z"/><path class="cls-1" d="M761.3,314v77.7h-37l-44.67-56.44v56.37H655.74v-77.6h36.9l44.73,56.54V314Z"/><path class="cls-1" d="M949.7,391.8H923.25L915.86,378H867.69l-7,13.73H834.06l42-77.83h31Zm-73.14-30.68h30.29l-15.36-29C886.39,342,881.54,351.47,876.56,361.12Z"/><path class="cls-1" d="M509.21,313.93h31q21.13,38.52,42.65,77.7H556.34L549,378H500.88l-7,13.75H467.22Zm15.43,18.22-14.89,28.91H540Z"/><path class="cls-1" d="M1196,391.69V364.84l-42.85-50.79H1182l26,31.85L1234,314h28.4a12.18,12.18,0,0,1-1,1.65c-13.35,15.76-26.74,31.48-40,47.29a7.72,7.72,0,0,0-1.62,4.44c-.16,7.16-.07,14.33-.07,21.49v2.86Z"/><path class="cls-1" d="M1046.2,371.84h53.32v19.87h-76.85V314.07h23.53Z"/><path class="cls-1" d="M1536.37,314.2v77.44h-23.6V314.2Z"/></g></g></g></svg>