<?xml version="1.0" encoding="utf-8"?>
<!-- Generator: Adobe Illustrator 23.0.1, SVG Export Plug-In . SVG Version: 6.00 Build 0)  -->
<svg version="1.1" id="Layer_1" xmlns="http://www.w3.org/2000/svg" xmlns:xlink="http://www.w3.org/1999/xlink" x="0px" y="0px"
	 viewBox="0 0 489.47 133.75" style="enable-background:new 0 0 489.47 133.75;" xml:space="preserve">
<style type="text/css">
	.st0{fill:#757B7F;}
	.st1{fill:#114C8C;}
	.st2{fill:#888D91;}
</style>
<g>
	<path class="st0" d="M101.92,107.2h12.81c6.68,0,9.02,2.34,9.02,8.87v8.76c0,6.54-2.34,8.91-9.02,8.91h-12.81V107.2z
		 M114.26,131.12c4.93,0,6.42-1.21,6.42-6.25v-8.58c0-5.18-1.35-6.46-6.42-6.46h-9.42v21.29H114.26z"/>
	<path class="st0" d="M154.89,107.2h2.96v26.54h-2.96V107.2z"/>
	<path class="st0" d="M198.39,106.88h3.36c6.43,0,9.57,2.08,9.57,6.87v1.13h-3.03c0-0.11,0-0.22,0-0.33c0-4.02-1.97-4.89-6.72-4.89
		h-2.34c-2.63,0-4.49,0.07-5.95,1.31c-1.31,1.13-1.39,2.88-1.39,5.73v7.56c0,2.85,0.07,4.6,1.39,5.73c1.5,1.28,3.36,1.31,5.95,1.31
		h2.34c2.37,0,4.05-0.03,5.4-1.17c1.2-1.02,1.31-2.66,1.31-5.26v-1.64h-7.38v-2.7h10.4v4.45c0,6.83-2.48,9.09-9.57,9.09h-3.36
		c-7.08,0-9.57-2.27-9.57-9.09v-9.02C188.82,109.14,191.31,106.88,198.39,106.88z"/>
	<path class="st0" d="M242.23,107.2h2.96v26.54h-2.96V107.2z"/>
	<path class="st0" d="M273.57,107.2h19.86v2.81h-8.47v23.73h-2.96v-23.73h-8.43V107.2z"/>
	<path class="st0" d="M325.79,107.2h4.82l9.86,26.54h-3.03l-2.52-6.79h-13.43l-2.49,6.79h-3.03L325.79,107.2z M333.97,124.33
		l-5.3-14.31h-0.95l-5.26,14.31H333.97z"/>
	<path class="st0" d="M369.63,107.2h2.88v23.77h15.04v2.77h-17.93V107.2z"/>
</g>
<polygon class="st1" points="42.39,0 0,81.71 21.74,81.71 42.39,37.89 63.04,81.71 84.78,81.71 "/>
<path class="st1" d="M91.37,81.71V5.16h20.87v76.55H91.37z"/>
<path class="st1" d="M199.88,81.71V5.16h20.87v57.66h29.1v18.89H199.88z"/>
<path class="st1" d="M406.33,11.86v21.42c-6.92-7.03-14.72-10.54-23.5-10.54c-5.82,0-10.76,1.98-14.82,5.93
	c-4.06,3.95-6.04,8.9-6.04,14.83c0,5.93,1.98,10.87,6.04,14.83c4.06,3.84,9,5.82,14.82,5.82c8.78,0,16.58-3.51,23.5-10.54v21.42
	c-6.81,5.16-14.6,7.8-23.5,7.8c-11.64,0-21.52-3.73-29.65-11.2c-8.02-7.47-12.08-16.8-12.08-28.12c0-11.31,4.06-20.65,12.08-28.11
	c8.13-7.58,18.01-11.31,29.65-11.31C391.73,4.06,399.53,6.7,406.33,11.86z"/>
<path class="st1" d="M418.09,81.71V5.16h20.87v34.26l24.27-34.26h25.04l-28.44,37.89l29.65,38.66h-25.81l-24.71-33.6v33.6H418.09z"
	/>
<path class="st1" d="M174.4,53.37c7.91-3.62,13.07-12.08,13.07-21.85c0-7.36-2.64-13.51-8.02-18.67
	c-5.38-5.16-11.86-7.69-19.44-7.69H125.2v18.89h34.26c4.06,0,7.25,3.3,7.25,8.13c0,5.71-3.41,9-9,9l-32.51,0v40.53h20.87V57.88h7.69
	h0.22l15.6,23.83h23.94L174.4,53.37z"/>
<path class="st1" d="M312.68,45.49c-1.04,9.42-9.04,16.78-18.73,16.78c-9.69,0-17.7-7.36-18.73-16.78H254.7
	c1.08,20.77,18.22,37.28,39.25,37.28c21.03,0,38.17-16.52,39.25-37.28H312.68z"/>
<path class="st2" d="M264.95,41.35c1.07-15.08,13.65-27.03,29-27.03c15.35,0,27.93,11.95,29,27.03h10.25
	c-1.08-20.77-18.22-37.28-39.25-37.28c-21.04,0-38.17,16.52-39.25,37.28H264.95z"/>
</svg>
