<svg xmlns="http://www.w3.org/2000/svg" viewBox="0 0 1065.53 89.79" width="1065.53" height="89.79"><defs><style>.cls-1{fill:#fff;}</style></defs><title>Asset 2</title><g id="Layer_2" data-name="Layer 2"><g id="Layer_1-2" data-name="Layer 1"><g id="AfQKGp.tif"><path class="cls-1" d="M703.6,88.65h-8c-.59-.85-.31-1.79-.31-2.67q0-17.75,0-35.5a26.56,26.56,0,0,0-1.45-9.57,9.32,9.32,0,0,0-6.9-6.26c-11.18-2.5-20.19,3.49-21.2,15.64-1,11.71-.21,23.48-.38,35.23,0,1,0,2,0,3.1h-8a7.85,7.85,0,0,1-.32-3.3q-.07-18.25-.12-36.49c0-.5,0-1-.06-1.5-.41-6.79-3.06-11.12-7.68-12.55C642.5,32.72,634.9,35,631,40c-3.41,4.41-4.14,9.54-4.18,14.85-.07,10.33,0,20.66,0,31,0,.89,0,1.79,0,2.81h-8.3c0-10.05,0-20.09,0-30.13s.34-20.14-.94-30.4a34.17,34.17,0,0,1,8-.06l.9,8.76c4.52-7.18,10.84-10.3,18.79-10.23s14.52,2.69,18.21,10.66A21.29,21.29,0,0,1,679.09,26.9a25,25,0,0,1,13,1.1c7,2.69,9.92,8.45,11.09,15.39a31.1,31.1,0,0,1,.47,5q.09,19.62.08,39.24A7.53,7.53,0,0,1,703.6,88.65Z"/><path class="cls-1" d="M0,78.14l3.55-6.72C5.7,73,7.67,74.65,9.83,76c10.59,6.6,22,7.6,33.74,4.06,6.21-1.88,9.89-6.34,10.34-13.18a10.51,10.51,0,0,0-5-10.14c-4.67-3.13-10.09-4.2-15.4-5.51-6.21-1.53-12.5-2.77-18.39-5.37C6.92,42.23,1.66,36.48,1.6,27s3.92-16.3,12-20.87A35.75,35.75,0,0,1,30.86,1.92c10.05-.18,19.45,2,27.5,8.41,1.16.93,2.23,2,3.44,3.08l-3.64,6.88a65.73,65.73,0,0,0-8.23-6,34.81,34.81,0,0,0-29.6-2.5C11.11,15,7.11,26.52,12.43,33.8c1.58,2.16,3.86,3.35,6.2,4.45,7,3.27,14.58,4.34,21.89,6.45a58.18,58.18,0,0,1,11.21,4C63.61,54.93,66.46,69.05,58,79.54,53.43,85.16,47.21,87.91,40.35,89c-10,1.6-19.92.82-29.35-3.29A35.77,35.77,0,0,1,0,78.14Z"/><path class="cls-1" d="M773.57,88.67h-8.22V79.41c-2,2.31-3.35,4.24-5.28,5.65-12.76,9.35-32.27,4.27-38.62-10.51-5.05-11.76-4.83-23.74,1.37-35.14,8.74-16.08,30.07-15.68,38.91-6.93,1.16,1.15,2.18,2.44,3.48,3.92V28.08a45.38,45.38,0,0,1,8.36-.09Zm-8.31-30.35c-.07-4.81-.58-9.33-2.44-13.62-2.63-6.08-7.13-9.77-13.78-10.46-7.25-.75-13.82.74-17.79,7.47-5.89,10-5.86,20.52-1.24,30.88,2.78,6.24,8.31,9.09,15.09,9.36,7,.28,12.77-1.89,16.5-8.21C764.46,68.9,765.12,63.57,765.26,58.32Z"/><path class="cls-1" d="M432.51.19a50.56,50.56,0,0,1,8.26,0V36.49a21.12,21.12,0,0,1,12.46-9,29,29,0,0,1,17.41.6c6.87,2.48,10.2,7.86,11.61,14.71a30.64,30.64,0,0,1,.57,6.2c0,13.15,0,26.3,0,39.59h-8.45c0-1.08,0-2.06,0-3q0-18.62-.08-37.25a19.34,19.34,0,0,0-.8-5.16c-1.32-4.74-4.27-7.88-9.26-8.65-7.8-1.21-14.77.26-19.86,6.88-2.93,3.81-3.58,8.33-3.59,13,0,10.58,0,21.17,0,31.75,0,.81,0,1.62,0,2.53h-8.26Z"/><path class="cls-1" d="M290.36,58.12H245.54c-.65,12,5.09,20.55,13.14,22.73a28.69,28.69,0,0,0,18.55-1.05A35.85,35.85,0,0,0,286,74.4c1.49,2,2.32,4.33,3.48,6.58a25.07,25.07,0,0,1-9.43,6,36.11,36.11,0,0,1-24.45,1.1C247.7,85.59,242,80.42,239.1,72.62c-4-10.94-3.82-21.88,1.76-32.31,5.91-11,17.37-15.31,29-13.39,11.9,2,19.46,11,20.36,23.65A32.72,32.72,0,0,1,290.36,58.12Zm-8.15-7c-.8-11-7.11-17.33-17.12-17.42a18.36,18.36,0,0,0-18.92,17.42Z"/><path class="cls-1" d="M225,81c-5.81,5.32-12.67,7.8-20.21,8.43-15.26,1.27-27.9-5.79-31.73-21.13a40.27,40.27,0,0,1,.84-22.87A27.61,27.61,0,0,1,184.52,31.1c9.56-6.6,26.19-6.38,34.19,2.75,4.61,5.26,6.5,11.48,7,18.24.15,1.89,0,3.81,0,6h-45a29,29,0,0,0,2.69,13.76c3.57,7.28,11,10.81,20.57,10,6.61-.55,12.27-3.28,17.52-7.58ZM181.41,51h36.21c-1.18-11.88-7.68-17.05-16.75-17.34C190.55,33.39,183.67,39.46,181.41,51Z"/><path class="cls-1" d="M1065.28,58.06h-44.61c-1.11,13.72,6.37,23.62,19.51,23.91a30.59,30.59,0,0,0,20.8-7.51c1.6,2,2.28,4.27,3.37,6.19-.2,1.12-1,1.46-1.67,2-10.88,8.78-29.45,9.36-40.17,1.21-6.17-4.69-9.4-11.13-10.45-18.66-1.43-10.3-.28-20.12,6.31-28.65,9.49-12.27,29.61-13.52,40-2.49,4.42,4.69,6.2,10.54,6.81,16.79A25.07,25.07,0,0,1,1065.28,58.06Zm-8.11-6.9c-.37-11-7.4-17.64-17.9-17.48a18.1,18.1,0,0,0-17.95,17.48Z"/><path class="cls-1" d="M850.8.2h7.91V35.68c.84.23,1-.25,1.22-.55,7.06-10.08,23.61-10.31,31.57-5.71,6,3.49,8.77,9.22,9.13,15.76.8,14.38.17,28.8.35,43.39h-8.06a5.69,5.69,0,0,1-.28-2.94c0-11.08,0-22.16,0-33.24a38.58,38.58,0,0,0-.8-8.44c-1.18-5.24-4.26-8.65-9.63-9.51-8.76-1.4-17.9,1.39-21.76,10.56a25.85,25.85,0,0,0-1.59,10c-.06,10.25,0,20.49,0,30.74,0,.9,0,1.79,0,2.82h-8Z"/><path class="cls-1" d="M553.29,58.15c-.08,8.73-2.15,16.75-8.17,23.42-11.15,12.34-38.5,12-45.72-10.65-3.74-11.73-3.21-23.45,4.22-33.84,6.53-9.13,16.06-11.74,26.7-10.14,14.27,2.15,20.94,13.44,22.49,24.49A52,52,0,0,1,553.29,58.15Zm-8.7-.84a33.37,33.37,0,0,0-2.42-12.41c-2.74-6.17-7.31-10-14.16-10.67-7.24-.67-13.69,1-17.68,7.66C505,50.84,504.94,60.48,508.11,70c4.09,12.28,20.32,16.25,29.83,7.47C543.82,72.06,544.45,64.71,544.58,57.31Z"/><path class="cls-1" d="M355.25,88.69h-8.07c-.64-.81-.33-1.76-.34-2.63,0-12.74.09-25.49-.14-38.23-.1-5.56-1.81-10.77-7.8-12.69-10.9-3.5-23.73,1.53-25.38,15.24a104.75,104.75,0,0,0-.24,12c0,8.66,0,17.32,0,26,0,.07-.09.13-.23.32h-8c-.6-20.15.66-40.35-.87-60.68A43.44,43.44,0,0,1,312,28l.91,9.13a21.42,21.42,0,0,1,12.77-9.54A28.37,28.37,0,0,1,343,28.1c8.5,3.1,11.85,10.07,12.1,18.34C355.55,60.42,355.25,74.42,355.25,88.69Z"/><path class="cls-1" d="M954.83,88.62h-8.11c-.6-20.16.71-40.21-1-60.19a15.28,15.28,0,0,1,7.73-.22c.54,1.34.24,2.87.47,4.32s.31,2.76.5,4.5l1.95-2.51c7.42-9.68,26.31-10.86,34.83-2.17,3.5,3.57,4.78,8.09,5.48,12.85.32,2.17.31,40.75,0,43.37h-7.89a9.79,9.79,0,0,1-.34-3.9c-.06-12.08,0-24.15-.17-36.22-.21-12.79-8.56-15.89-19-13.83-9.61,1.9-14.47,8.89-14.52,19.83-.05,10.41,0,20.82,0,31.23C954.83,86.59,954.83,87.5,954.83,88.62Z"/><path class="cls-1" d="M416.11,34.94l-3.19,6.58c-3.78-3-7.55-5.54-12.09-6.62a24.07,24.07,0,0,0-13.52.32,8.85,8.85,0,0,0-6.49,8.52c-.1,4,1.9,6.88,6,8.5,5.42,2.11,11.24,2.78,16.77,4.51s10.5,4.39,12.59,10.31c2.82,8-.46,15.56-8.64,19.68-9.83,5-28.43,3.95-37.54-5.62l3-6.59c3.74,2.9,7.51,5.44,12,6.5,5.75,1.34,11.5,1.76,17.2-.2,4.15-1.43,6.11-4,6.2-8.05.08-3.68-1.73-6.35-5.64-8-4.4-1.84-9.12-2.48-13.73-3.56-3.83-.9-7.53-2.12-10.66-4.59-9.59-7.54-8.24-20.79,2.73-27.1,9.44-5.43,26.07-3.37,33.85,4.2C415.4,34.06,415.7,34.46,416.11,34.94Z"/><path class="cls-1" d="M123.48,34.91l-3.37,6.67c-3.54-2.63-7-5.18-11.21-6.44-12.46-3.7-23,2.11-25.89,14.71A33.25,33.25,0,0,0,84.3,70.41c3.24,7.87,10.3,12.06,18.83,11.5a26.69,26.69,0,0,0,14-5.23l3-2.11,3.39,6.67Q111.31,91.88,95.68,89c-10.22-1.87-17-8.12-20.33-17.8a38.53,38.53,0,0,1,.35-26.87c4.53-12,15.14-18.64,27.89-17.79C111.09,27.05,117.88,29.22,123.48,34.91Z"/><path class="cls-1" d="M835.27,74.65a37.29,37.29,0,0,1,3.29,6.65,31.18,31.18,0,0,1-23.11,8.22c-16.7-.71-25.72-13.18-26.74-27.6-.51-7.17.24-14.15,3.56-20.63,5.61-10.95,17.48-16.56,30-14.39,6.2,1.07,11.84,3.22,16.39,8l-3.26,6.48c-2.35-1.54-4.4-3.11-6.63-4.33-10.51-5.74-25.8-4.13-30.26,11.54A35.71,35.71,0,0,0,798,65.43c3.32,16.94,18.62,19.23,29.52,14.2A43.26,43.26,0,0,0,835.27,74.65Z"/><path class="cls-1" d="M570.84,34.91H559.35V28h11.35V12.43l8.58-3.31V27.84H596.9v7.09h-17.5c0,9.15,0,18,0,26.78,0,4-.26,8,.28,12,.71,5.22,3.53,7.82,8.74,8.06a22.93,22.93,0,0,0,8.16-1.18v7.81c-5.41,1.33-10.79,1.81-16-.25-8-3.17-9.71-10.1-9.76-17.73-.07-10.91,0-21.83,0-32.74C570.84,36.84,570.84,36,570.84,34.91Z"/><path class="cls-1" d="M143.69,88.7h-8.31c-.6-20.17.73-40.31-.94-60.6,2.46-.56,5-.2,7.61-.23,1.11,2.74.36,5.67,1.34,8.62,5.83-8.83,14-11.11,23.73-9.44v7.69c-2.78-.08-5.31-.49-7.88-.35-10.44.57-15.18,9.06-15.39,16.81-.32,11.74-.13,23.49-.16,35.24C143.69,87.1,143.69,87.75,143.69,88.7Z"/><path class="cls-1" d="M919.61,28.07a43.21,43.21,0,0,1,8.07-.09V88.56h-8.07Z"/><path class="cls-1" d="M918.54,3.43H929v10.2H918.54Z"/></g></g></g></svg>