<?xml version="1.0" encoding="utf-8"?>
<!-- Generator: Adobe Illustrator 24.0.3, SVG Export Plug-In . SVG Version: 6.00 Build 0)  -->
<svg version="1.1" id="Layer_1" xmlns="http://www.w3.org/2000/svg" xmlns:xlink="http://www.w3.org/1999/xlink" x="0px" y="0px"
	 viewBox="0 0 350 350" style="enable-background:new 0 0 350 350;" xml:space="preserve">
<style type="text/css">
	.st0{fill:#FFFFFF;}
</style>
<title>Artboard</title>
<desc>Created with Sketch.</desc>
<g id="Page-1">
	<g id="Artboard">
		<g id="Vault_VerticalLogo_FullColor" transform="translate(73.000000, 25.000000)">
			<path id="Shape" class="st0" d="M27.1,232.9v-5.5h-5v5.5h-2.6v-13.3h2.6v5.6h5.1v-5.6h2.6v13.3H27.1z M39.1,232.9h-2l-0.2-0.7
				c-0.9,0.6-1.9,0.8-3,0.8c-1.8,0-2.6-1.2-2.6-2.8s0.9-2.6,2.9-2.6h2.3v-1c0-1.1-0.3-1.4-1.9-1.4c-0.9,0-1.9,0.1-2.8,0.3l-0.3-1.8
				c1.1-0.3,2.3-0.4,3.4-0.4c3.1,0,4,1.1,4,3.4L39.1,232.9z M36.5,229.3h-1.9c-0.8,0-1,0.2-1,0.9s0.2,1,1,1c0.7,0,1.3-0.2,1.9-0.5
				L36.5,229.3z M44.3,233.1c-1.2,0-2.3-0.2-3.4-0.5l0.3-1.8c1,0.3,2,0.4,3,0.4c1.1,0,1.3-0.2,1.3-1c0-0.7,0-0.9-1.7-1.3
				c-2.4-0.6-2.6-1.1-2.6-3s0.9-2.8,3.7-2.8c1,0,2,0.1,3,0.3l-0.2,1.9c-0.9-0.2-1.8-0.3-2.7-0.3c-1.1,0-1.3,0.2-1.3,0.8
				c0,0.6,0,0.8,1.4,1.1c2.8,0.7,3.1,1.1,3.1,3C48.1,232.1,47.4,233.1,44.3,233.1z M55.8,232.9v-6.7c0-0.5-0.2-0.8-0.8-0.8
				c-0.9,0.1-1.8,0.4-2.6,0.8v6.6h-2.6v-13.4l2.6,0.4v4.2c1.1-0.6,2.4-0.9,3.7-0.9c1.6,0,2.2,1.1,2.2,2.8v6.9H55.8z M60.4,222v-2.3
				H63v2.3H60.4z M60.4,232.9v-9.5H63v9.6L60.4,232.9z M64.9,223.4c0-2.4,1.5-3.8,4.9-3.8c1.2,0,2.5,0.2,3.7,0.4l-0.3,2.1
				c-1.1-0.2-2.2-0.4-3.3-0.5c-1.8,0-2.3,0.6-2.3,2v5c0,1.4,0.6,2,2.3,2c1.1,0,2.2-0.1,3.3-0.2l0.3,2.1c-1.2,0.3-2.5,0.4-3.7,0.4
				c-3.4,0-4.9-1.4-4.9-3.8L64.9,223.4z M78.9,233.1c-3.4,0-4.3-1.8-4.3-3.8V227c0-2,0.9-3.8,4.3-3.8c3.4,0,4.3,1.8,4.3,3.8v2.4
				C83.2,231.3,82.3,233.1,78.9,233.1L78.9,233.1z M78.9,225.3c-1.3,0-1.9,0.6-1.9,1.6v2.6c0,1.1,0.5,1.6,1.9,1.6
				c1.3,0,1.9-0.6,1.9-1.6v-2.6c0.1-1.2-0.5-1.7-1.9-1.7V225.3z M90.3,225.4c-0.9,0.4-1.8,0.9-2.6,1.4v6.2H85v-9.6h2.1l0.2,1.1
				c0.8-0.5,1.7-0.9,2.6-1.3L90.3,225.4z M100.2,229.8c0.1,0.9-0.2,1.8-0.8,2.5c-0.6,0.7-1.6,1-2.5,0.9c-0.9,0-1.7-0.1-2.6-0.3v3.9
				l-2.6,0.4v-13.8h2l0.2,0.8c0.9-0.7,2-1,3.2-1c2,0,3.1,1.1,3.1,3.3L100.2,229.8z M94.3,230.9c0.7,0.2,1.5,0.2,2.2,0.3
				c0.9,0,1.3-0.4,1.3-1.3v-3.5c0-0.8-0.3-1.2-1.2-1.2c-0.8,0-1.6,0.3-2.2,0.9L94.3,230.9z"/>
			<polygon id="Shape_1_" class="st0" points="56.7,243.5 67.4,243.5 51.1,298.3 35.8,298.3 19.5,243.5 30.2,243.5 43.5,289.1 			
				"/>
			<path id="Shape_2_" class="st0" d="M97.3,298.2h-8.2l-0.7-2.6c-3.5,2.3-7.7,3.5-11.9,3.5c-7.3,0-10.4-5-10.4-11.9
				c0-8.1,3.5-11.2,11.7-11.2h9.6v-4.2c0-4.4-1.2-6-7.6-6c-3.7,0-7.4,0.4-11.1,1.2l-1.2-7.6c4.5-1.2,9.1-1.9,13.7-1.9
				c12.6,0,16.3,4.4,16.3,14.5V298.2z M87.3,283.1h-7.4c-3.3,0-4.2,0.9-4.2,3.9c0,3,0.9,4,4,4c2.7,0,5.3-0.7,7.6-2.1L87.3,283.1z"/>
			<path id="Shape_3_" class="st0" d="M113.1,258.3v27.9c0,2.1,0.9,3.2,3.2,3.2c3.7-0.4,7.2-1.6,10.4-3.4v-27.8h10v40h-7.6l-1-3.5
				c-5,2.5-10.4,4-15.9,4.3c-6.7,0-9-4.7-9-11.8v-29H113.1z"/>
			<polygon id="Shape_4_" class="st0" points="142.1,298.2 142.1,241.9 152.1,240.5 152.1,298.3 			"/>
			<path id="Shape_5_" class="st0" d="M182,297.4c-2.8,1-5.8,1.5-8.8,1.6c-7.3,0-11-3.4-11-10.6v-22.3h-6v-7.8h6v-9.9l10-1.4v11.3
				h10.3l-0.6,7.8h-9.6V287c-0.1,1,0.2,2,0.9,2.7c0.7,0.7,1.7,1,2.7,0.9c1.7,0,3.4-0.3,5-0.8L182,297.4z"/>
			<path id="Shape_6_" class="st0" d="M0,0l100.6,201.9L201.9,0H0z M112.6,40.5h11.7v11.6h-11.7V40.5z M89.3,87.5H77.6V75.7h11.7
				V87.5z M89.3,69.9H77.6V58.1h11.7V69.9z M89.3,52.4H77.6V40.5h11.7V52.4z M107,104.9H95.1V93.2H107V104.9z M107,87.4H95.1V75.7
				H107V87.4z M107,69.8H95.1V58.1H107V69.8z M107,52.2H95.1V40.5H107V52.2z M112.7,58h11.7v11.7h-11.8L112.7,58z M112.7,87.3V75.7
				h11.7v11.7L112.7,87.3z"/>
		</g>
	</g>
</g>
</svg>
