<svg xmlns="http://www.w3.org/2000/svg" viewBox="0 0 182.3 56.9" width="182.3" height="56.9"><defs><style>.cls-1{fill:#fff;}</style></defs><title>Asset 2</title><g id="Layer_2" data-name="Layer 2"><g id="Layer_1-2" data-name="Layer 1"><g id="Type"><path class="cls-1" d="M47.7,53H46.4V42.8H42.8V41.6h8.5v1.2H47.7Z"/><path class="cls-1" d="M60.2,48.8a4.86,4.86,0,0,1-1.1,3.3,3.7,3.7,0,0,1-2.9,1.2,4.23,4.23,0,0,1-2-.5,4.06,4.06,0,0,1-1.4-1.5,6,6,0,0,1-.5-2.4,4.83,4.83,0,0,1,1-3.3,3.7,3.7,0,0,1,2.9-1.2A3.49,3.49,0,0,1,59,45.6,3.76,3.76,0,0,1,60.2,48.8Zm-6.5,0a3.73,3.73,0,0,0,.7,2.5,2.32,2.32,0,0,0,1.9.9,2.2,2.2,0,0,0,1.9-.9,4.37,4.37,0,0,0,.7-2.5,3.73,3.73,0,0,0-.7-2.5,2.13,2.13,0,0,0-1.9-.8,2.41,2.41,0,0,0-1.9.8A4.14,4.14,0,0,0,53.7,48.8Z"/><path class="cls-1" d="M69.5,44.5v.8l-1.6.2a4.35,4.35,0,0,1,.4.7,3,3,0,0,1,.2,1,2.52,2.52,0,0,1-.9,2,3.37,3.37,0,0,1-2.3.8,1.48,1.48,0,0,1-.7-.1,1.21,1.21,0,0,0-.8,1.1.55.55,0,0,0,.3.5,2.15,2.15,0,0,0,1,.2h1.5a3.28,3.28,0,0,1,2.1.6,2.06,2.06,0,0,1,.7,1.7,2.66,2.66,0,0,1-1.1,2.2,6.23,6.23,0,0,1-3.3.7,4.76,4.76,0,0,1-2.6-.6,2,2,0,0,1-.9-1.8,1.9,1.9,0,0,1,.5-1.3,2.73,2.73,0,0,1,1.4-.8,1.21,1.21,0,0,1-.5-.5,1.45,1.45,0,0,1-.2-.7,1.88,1.88,0,0,1,.2-.8,2.85,2.85,0,0,1,.8-.7,3.13,3.13,0,0,1-1.1-.9,2.41,2.41,0,0,1-.4-1.5,3.11,3.11,0,0,1,.8-2.2,3.65,3.65,0,0,1,2.4-.8,5,5,0,0,1,1.2.2Zm-6.8,10a1.25,1.25,0,0,0,.6,1.1A3.53,3.53,0,0,0,65,56a4.77,4.77,0,0,0,2.4-.5,1.56,1.56,0,0,0,.8-1.3,1.05,1.05,0,0,0-.4-1,3,3,0,0,0-1.6-.3H64.6a2.12,2.12,0,0,0-1.4.4A1.35,1.35,0,0,0,62.7,54.5Zm.7-7.3a2.17,2.17,0,0,0,.5,1.4,2,2,0,0,0,1.4.5c1.3,0,1.9-.6,1.9-1.8a1.65,1.65,0,0,0-1.9-1.9,2,2,0,0,0-1.4.5C63.5,46.1,63.4,46.6,63.4,47.2Z"/><path class="cls-1" d="M74.8,53.2a3.77,3.77,0,0,1-3-1.2,4.59,4.59,0,0,1-1.1-3.2,4.83,4.83,0,0,1,1-3.3,3.42,3.42,0,0,1,2.7-1.2,3.1,3.1,0,0,1,2.5,1.1,4.1,4.1,0,0,1,.9,2.8V49H71.9a3.2,3.2,0,0,0,.8,2.3,2.79,2.79,0,0,0,2,.8,6.6,6.6,0,0,0,2.7-.6v1.2a9.29,9.29,0,0,1-1.3.4A4.89,4.89,0,0,1,74.8,53.2Zm-.3-7.8a1.86,1.86,0,0,0-1.6.7,3.61,3.61,0,0,0-.7,1.9h4.5a3.56,3.56,0,0,0-.5-1.9A2.61,2.61,0,0,0,74.5,45.4Z"/><path class="cls-1" d="M83,52.1a2,2,0,0,0,.7-.1,4.33,4.33,0,0,0,.5-.1v1c-.1.1-.3.1-.6.2s-.5.1-.7.1c-1.7,0-2.5-.9-2.5-2.6V45.5H79.2v-.6l1.2-.5.5-1.8h.7v2h2.5v1H81.6v5a1.59,1.59,0,0,0,.4,1.2C82.3,52.1,82.5,52.1,83,52.1Z"/><path class="cls-1" d="M91.7,53V47.5a2.54,2.54,0,0,0-.5-1.6,2.07,2.07,0,0,0-1.5-.5,2.44,2.44,0,0,0-2,.7,3.84,3.84,0,0,0-.6,2.4V53H85.8V40.9h1.3v3.7a3.75,3.75,0,0,1-.1,1.1h.1a3.57,3.57,0,0,1,1.1-1,2.93,2.93,0,0,1,1.6-.4,3.17,3.17,0,0,1,2.3.7,3.29,3.29,0,0,1,.8,2.4V53Z"/><path class="cls-1" d="M99.2,53.2a3.77,3.77,0,0,1-3-1.2,4.59,4.59,0,0,1-1.1-3.2,4.83,4.83,0,0,1,1-3.3,3.42,3.42,0,0,1,2.7-1.2,3.1,3.1,0,0,1,2.5,1.1,4.1,4.1,0,0,1,.9,2.8V49H96.3a3.2,3.2,0,0,0,.8,2.3,2.79,2.79,0,0,0,2,.8,6.6,6.6,0,0,0,2.7-.6v1.2a9.29,9.29,0,0,1-1.3.4A4.89,4.89,0,0,1,99.2,53.2Zm-.3-7.8a1.86,1.86,0,0,0-1.6.7,3.61,3.61,0,0,0-.7,1.9h4.5a3.56,3.56,0,0,0-.5-1.9A2.61,2.61,0,0,0,98.9,45.4Z"/><path class="cls-1" d="M108.5,44.4a3.08,3.08,0,0,1,1,.1l-.2,1.2a3.44,3.44,0,0,0-.9-.1,2.5,2.5,0,0,0-1.8.8,3,3,0,0,0-.7,2.1V53h-1.3V44.5h1.1l.1,1.6h.1a3.61,3.61,0,0,1,1.1-1.3A2.41,2.41,0,0,1,108.5,44.4Z"/><path class="cls-1" d="M115.1,42.2a1.45,1.45,0,0,1,.2-.7.72.72,0,0,1,1,0c.2.1.2.4.2.6a1.45,1.45,0,0,1-.2.7c-.2.1-.3.2-.5.2a.76.76,0,0,1-.5-.2A.85.85,0,0,1,115.1,42.2ZM116.5,53h-1.3V44.5h1.3Z"/><path class="cls-1" d="M124.8,50.7a2,2,0,0,1-.9,1.8,4.4,4.4,0,0,1-2.5.6,6,6,0,0,1-2.6-.5V51.4a6.94,6.94,0,0,0,1.3.5,6.75,6.75,0,0,0,1.4.2,3.51,3.51,0,0,0,1.6-.3c.4-.2.5-.5.5-1a1.22,1.22,0,0,0-.4-.9,9.26,9.26,0,0,0-1.7-.8,9.26,9.26,0,0,1-1.7-.8,1.78,1.78,0,0,1-.7-.8,3,3,0,0,1-.2-1,1.94,1.94,0,0,1,.8-1.6,3.92,3.92,0,0,1,2.3-.6,6.6,6.6,0,0,1,2.7.6l-.5,1.1a5.32,5.32,0,0,0-2.3-.5,2.65,2.65,0,0,0-1.4.3,1,1,0,0,0-.5.8,1.42,1.42,0,0,0,.2.6c.1.2.3.3.6.5a15.07,15.07,0,0,0,1.5.6,6.59,6.59,0,0,1,2.1,1.1A2.5,2.5,0,0,1,124.8,50.7Z"/><path class="cls-1" d="M135,53.2a3.34,3.34,0,0,1-1.5-.3,3.45,3.45,0,0,1-1.2-.9h-.1a7.08,7.08,0,0,1,.1,1.4v3.5H131V44.5h1.1l.2,1.2h.1a2.34,2.34,0,0,1,1.2-1,3.65,3.65,0,0,1,1.5-.3,3.09,3.09,0,0,1,2.6,1.2,5.39,5.39,0,0,1,.9,3.3,5.39,5.39,0,0,1-.9,3.3A4.06,4.06,0,0,1,135,53.2Zm-.2-7.7a2.23,2.23,0,0,0-1.9.7,3.71,3.71,0,0,0-.6,2.3v.3a4.33,4.33,0,0,0,.6,2.6,2.27,2.27,0,0,0,1.9.8,2,2,0,0,0,1.7-.9,4.4,4.4,0,0,0,.6-2.5,4.4,4.4,0,0,0-.6-2.5A1.69,1.69,0,0,0,134.8,45.5Z"/><path class="cls-1" d="M148.2,48.8a4.86,4.86,0,0,1-1.1,3.3,3.7,3.7,0,0,1-2.9,1.2,4.23,4.23,0,0,1-2-.5,4.06,4.06,0,0,1-1.4-1.5,6,6,0,0,1-.5-2.4,4.83,4.83,0,0,1,1-3.3,3.7,3.7,0,0,1,2.9-1.2,3.49,3.49,0,0,1,2.8,1.2A4.08,4.08,0,0,1,148.2,48.8Zm-6.5,0a3.73,3.73,0,0,0,.7,2.5,2.32,2.32,0,0,0,1.9.9,2.2,2.2,0,0,0,1.9-.9,4.37,4.37,0,0,0,.7-2.5,3.73,3.73,0,0,0-.7-2.5,2.13,2.13,0,0,0-1.9-.8,2.41,2.41,0,0,0-1.9.8A4.14,4.14,0,0,0,141.7,48.8Z"/><path class="cls-1" d="M157.4,53l-1.6-5q-.15-.45-.6-2.1h-.1c-.2.9-.4,1.6-.5,2.1L153,53h-1.5l-2.3-8.5h1.4c.6,2.1,1,3.8,1.3,4.9a12.09,12.09,0,0,1,.5,2.3h.1a6.15,6.15,0,0,1,.3-1.1,8.11,8.11,0,0,1,.3-1.1l1.6-4.9h1.4l1.5,4.9a13.12,13.12,0,0,1,.6,2.3h.1a5.07,5.07,0,0,1,.2-.9c.1-.4.6-2.5,1.6-6.3h1.3L159,53Z"/><path class="cls-1" d="M166.5,53.2a3.77,3.77,0,0,1-3-1.2,4.59,4.59,0,0,1-1.1-3.2,4.83,4.83,0,0,1,1-3.3,3.42,3.42,0,0,1,2.7-1.2,3.1,3.1,0,0,1,2.5,1.1,4.1,4.1,0,0,1,.9,2.8V49h-5.9a3.2,3.2,0,0,0,.8,2.3,2.79,2.79,0,0,0,2,.8,6.6,6.6,0,0,0,2.7-.6v1.2a9.29,9.29,0,0,1-1.3.4A5.28,5.28,0,0,1,166.5,53.2Zm-.4-7.8a1.86,1.86,0,0,0-1.6.7,3.61,3.61,0,0,0-.7,1.9h4.5a3.56,3.56,0,0,0-.5-1.9A2.61,2.61,0,0,0,166.1,45.4Z"/><path class="cls-1" d="M175.7,44.4a3.08,3.08,0,0,1,1,.1l-.2,1.2a3.44,3.44,0,0,0-.9-.1,2.5,2.5,0,0,0-1.8.8,3,3,0,0,0-.7,2.1V53h-1.3V44.5h1.1l.1,1.6h.1a3.61,3.61,0,0,1,1.1-1.3A2.82,2.82,0,0,1,175.7,44.4Z"/><path class="cls-1" d="M178.1,52.2a1.88,1.88,0,0,1,.2-.8,1,1,0,0,1,1.4,0,1,1,0,0,1,.3.8,1.14,1.14,0,0,1-.3.8.91.91,0,0,1-.7.3,1.45,1.45,0,0,1-.7-.2A2,2,0,0,1,178.1,52.2Z"/></g><g id="Icons"><path class="cls-1" d="M91.1,23.2l-4.8-2.8-.3.5a5.12,5.12,0,0,1-4.4,2.6,5.5,5.5,0,0,1,0-11A4.81,4.81,0,0,1,86,15.1l.4.5,4.8-2.8-.4-.6a10.52,10.52,0,0,0-9.1-4.9c-7.3,0-11.2,5.5-11.2,10.7a11.1,11.1,0,0,0,20.3,5.9Z"/><path class="cls-1" d="M90.9,28.7h6.6l2-4.9h9.9l2,4.9H118L106,.2h-5.9L101.7,4,90.9,28.7m13.5-17.3,2.7,6.7h-5.4Z"/><path class="cls-1" d="M120.6,28.7h5.8V15.9h3.8V10.5h-3.8V8a2.07,2.07,0,0,1,2.1-2.2,3.51,3.51,0,0,1,1.6.3l.6.3,2.4-5.2-.7-.3a11.8,11.8,0,0,0-3.6-.6,8,8,0,0,0-6.2,2.5,8.08,8.08,0,0,0-2,5.5v2.3H118V16h2.5Z"/><polygon class="cls-1" points="43.1 0 43.1 28.7 49.4 28.7 49.4 12.3 55.5 16.8 61.6 12.3 61.6 28.7 67.9 28.7 67.9 0 55.5 9.4 43.1 0"/><path class="cls-1" d="M143.1,7.3c-7.3,0-11.2,5.5-11.2,10.7s3.9,10.7,11.2,10.7h0a12.06,12.06,0,0,0,8.9-4.3l-4.7-2.6a6.08,6.08,0,0,1-4.3,1.9,5.13,5.13,0,0,1-5-3.6h15.7V18.7C153.7,10.8,147.5,7.3,143.1,7.3Zm-5,8a4.62,4.62,0,0,1,4.5-3.1,5,5,0,0,1,4.7,3.1Z"/><path class="cls-1" d="M166.7,7.3c-7.3,0-11.2,5.5-11.2,10.7s3.9,10.7,11.2,10.7h0a12.06,12.06,0,0,0,8.9-4.3l-4.7-2.6a6.08,6.08,0,0,1-4.3,1.9,5.13,5.13,0,0,1-5-3.6h15.7V18.7C177.3,10.8,171.1,7.3,166.7,7.3Zm-5,8.1a4.62,4.62,0,0,1,4.5-3.1,5,5,0,0,1,4.7,3.1Z"/><path class="cls-1" d="M176.5,6.3h2.4v.5h-1V9.4h-.5V6.8h-1V6.3Z"/><path class="cls-1" d="M179.3,6.3h.7l.8,2.4h0l.8-2.4h.7v3H182V7h0l-.8,2.3h-.4l-1-2.3h0V9.3h-.5Z"/><polygon class="cls-1" points="6.4 24.4 6.4 9.9 15.5 14.2 15.5 7.2 0 0 0 28.5 15.5 35.7 15.5 28.7 6.4 24.4"/><polygon class="cls-1" points="24.7 24.4 24.7 9.9 15.5 14.2 15.5 7.2 31 0 31 28.5 15.5 35.7 15.5 28.7 24.7 24.4"/></g></g></g></svg>