<svg id="Layer_1" data-name="Layer 1" xmlns="http://www.w3.org/2000/svg" viewBox="0 0 609 130" width="609px" height="130px"><defs><style>.cls-1{fill:#fff;}</style></defs><title>Artboard 1</title><path class="cls-1" d="M213.2,74.3l-3.6,10.2h-.3a72.42,72.42,0,0,0-3.5-10L186.5,26H167.6v77.3h12.5V55.6c0-3,0-6.4-.1-10.6-.1-2.1-.3-3.7-.4-4.9h.3a46.71,46.71,0,0,0,1.8,6.6l23.2,56.4h8.8l23-56.9a60.58,60.58,0,0,0,1.5-6.1h.3c-.3,5.7-.5,10.8-.6,13.9v49h13.3V25.8H233Zm50.6-26.7h13V103h-13Zm6.6-23.4a7.79,7.79,0,0,0-5.5,2.2,7.37,7.37,0,0,0,0,10.7,7.71,7.71,0,0,0,5.5,2.1,8,8,0,0,0,5.5-2.1,7,7,0,0,0,2.3-5.3,7.41,7.41,0,0,0-2.3-5.4,7.29,7.29,0,0,0-5.5-2.2m52.5,22.9a36.26,36.26,0,0,0-7.3-.8,31.37,31.37,0,0,0-15.8,3.9,26.12,26.12,0,0,0-10.4,10.7,34,34,0,0,0-3.6,16,29.68,29.68,0,0,0,3.5,14.3,24,24,0,0,0,9.8,9.9,28.85,28.85,0,0,0,14.3,3.5,31.43,31.43,0,0,0,15.7-3.7l.1-.1v-12l-.5.4a22.35,22.35,0,0,1-6.3,3.3,19.27,19.27,0,0,1-6.2,1.2c-5.2,0-9.3-1.5-12.2-4.8s-4.5-7.6-4.5-13.1c0-5.7,1.5-10.2,4.6-13.5a16.05,16.05,0,0,1,12.2-5,21.28,21.28,0,0,1,12.4,4.2l.5.4V49.2l-.1-.1a30.15,30.15,0,0,0-6.2-2m42.9-.4a13.72,13.72,0,0,0-8.8,3.1c-2.2,1.8-3.7,4.4-5,7.5h-.1V47.6h-13V103h13V74.7c0-4.8,1-8.8,3.2-11.7a10,10,0,0,1,8.4-4.5,32.07,32.07,0,0,1,3.9.5,10.26,10.26,0,0,1,3.1,1.3l.5.4v-13l-.3-.1a9.88,9.88,0,0,0-4.9-.9m35.4-.3c-9.1,0-16.4,2.7-21.5,8S372,67,372,76.2c0,8.6,2.6,15.6,7.6,20.7s11.8,7.6,20.3,7.6c8.9,0,16-2.7,21.1-8.1s7.7-12.6,7.7-21.5-2.4-15.8-7.3-20.9c-4.7-5.1-11.6-7.6-20.2-7.6M411.6,89c-2.4,3.1-6.2,4.6-10.9,4.6s-8.5-1.5-11.2-4.8c-2.7-3.1-4-7.6-4-13.3,0-5.9,1.4-10.4,4-13.6s6.4-4.8,11.1-4.8,8.2,1.5,10.8,4.6,4,7.6,4,13.5c-.2,6-1.3,10.7-3.8,13.8m46.1-18.4c-4.1-1.7-6.7-3-7.9-4.1a5.68,5.68,0,0,1-1.5-4.2,4.65,4.65,0,0,1,2.1-4,9.63,9.63,0,0,1,5.7-1.5,25.89,25.89,0,0,1,6.7,1,17.24,17.24,0,0,1,5.8,2.7l.5.4V48.7l-.3-.1a36.08,36.08,0,0,0-5.9-1.7,40.09,40.09,0,0,0-6.4-.6c-6.2,0-11.3,1.5-15.3,4.8a14.78,14.78,0,0,0-5.9,12.2,15.88,15.88,0,0,0,1.3,6.8,15.16,15.16,0,0,0,4,5.2,34.85,34.85,0,0,0,8,4.5c3,1.3,5.3,2.3,6.7,3.1a13.57,13.57,0,0,1,3,2.4,5.69,5.69,0,0,1,.8,3.1c0,3.7-2.8,5.5-8.5,5.5a22.44,22.44,0,0,1-7.2-1.3,27.82,27.82,0,0,1-7.3-3.7l-.5-.4v12.7l.3.1a38.79,38.79,0,0,0,7,2.2,44.65,44.65,0,0,0,7.5.9c6.7,0,12.2-1.5,16.1-4.8A15.31,15.31,0,0,0,472.6,87a14,14,0,0,0-3.2-9.5,40.55,40.55,0,0,0-11.7-6.9m49.2-24.2c-9.1,0-16.4,2.7-21.5,8s-7.7,12.6-7.7,21.8c0,8.6,2.6,15.6,7.6,20.7s11.8,7.6,20.3,7.6c8.9,0,16-2.7,21.1-8.1s7.7-12.6,7.7-21.5S532,59.1,527.1,54c-4.7-5.1-11.6-7.6-20.2-7.6M517.2,89c-2.4,3.1-6.2,4.6-10.9,4.6s-8.5-1.5-11.2-4.8c-2.7-3.1-4-7.6-4-13.3,0-5.9,1.4-10.4,4-13.6s6.4-4.8,11.1-4.8c4.5,0,8.2,1.5,10.8,4.6s4,7.6,4,13.5-1.3,10.7-3.8,13.8"/><path class="cls-1" d="M603.9,58.3V47.6H590.8V31.2l-.4.1L578,35l-.3.1V47.6H558.1v-7c0-3.2.8-5.7,2.2-7.3a7.76,7.76,0,0,1,6.1-2.4,14.59,14.59,0,0,1,5.8,1.3l.5.3V21.2l-.3-.1a25,25,0,0,0-17.7,1.4,17.34,17.34,0,0,0-7.1,7.1A20.46,20.46,0,0,0,545,39.9v7.7h-9.1V58.2H545V103h13.1V58.3h19.6V86.8c0,11.7,5.5,17.6,16.5,17.6a34.27,34.27,0,0,0,5.5-.6,18,18,0,0,0,4.1-1.3l.1-.1V91.7l-.5.4a8.45,8.45,0,0,1-2.7,1.2,9.15,9.15,0,0,1-2.6.4c-2.6,0-4.4-.6-5.7-2.1s-1.8-3.7-1.8-7.1V58.3h13.3Z"/><path class="cls-1" d="M0,0H61.3V61.3H0Z"/><path class="cls-1" d="M67.7,0H129V61.3H67.7Z"/><path class="cls-1" d="M0,67.7H61.3V129H0Z"/><path class="cls-1" d="M67.7,67.7H129V129H67.7Z"/></svg>