<svg xmlns="http://www.w3.org/2000/svg" width="2360.53" height="1612.11" viewBox="0 0 2360.53 1612.11"><defs><style>.cls-1{fill:#fff;}.cls-2{fill:#019dce;}.cls-3{fill:#2e3438;}</style></defs><title>Asset 1</title><g id="Layer_2" data-name="Layer 2"><g id="Layer_1-2" data-name="Layer 1"><g id="Wjp8R3.tif"><path class="cls-1" d="M2.86,1.28C2.32-.28,1.39-.34,0,.7L2.19,2.09C3,5.57,5.84,7.58,8,10.07,72.78,85.83,135,163.63,192.76,244.93c34.95,49.19,68.24,99.45,96.59,152.82,4.2,7.91,8.73,15.69,11.73,23.86-1,3.44-3.5,5.28-5.46,7.49Q174.31,566.48,161.26,749.27a524,524,0,0,0,12.9,156.8c55.52,237.2,266.5,407.5,510,411.19,31.66.48,63.33.1,95,.09,27,0,53.92-1.86,81-.29,35.07,2,69.61,6.84,103.31,16.71,52.45,15.37,99.08,40.76,136.42,81.46,20.73,22.59,37.17,47.82,46.36,77.38,8.9,28.61,17.68,57.25,25,86.32,2.77,11,5.62,22,8.48,33.17,2.92-1.5,2.59-3.74,3-5.6,9.38-39.54,20.84-78.48,33-117.25,6.16-19.69,15.83-37.36,28-53.78,32.11-43.35,74.65-72.7,124.5-92,55.24-21.39,113-28.23,171.64-27.05q63,1.27,126,1.1a530.44,530.44,0,0,0,95.45-8.45c102.93-18.92,194-62.86,269.34-135.46C2167.66,1041.52,2221.3,880,2191.9,692.07c-14.19-90.66-52.59-171.47-110.32-242.91-7.93-9.82-16.28-19.3-24.36-28.84,22.54-46.66,49.43-90.28,78.21-132.75,60.28-89,127.06-172.91,196.74-254.62,9.21-10.8,18.52-21.5,28.37-32.91-5.46.14-9.29,2.43-13.36,3.66-91.87,27.71-185.09,50-279,69.56Q1922,103.69,1774,124.06q-107.9,15-216.34,25-80.61,7.53-161.47,11.84-89.35,4.89-178.85,6.23c-88.36,1.17-176.6-2.17-264.8-7.13q-64.38-3.62-128.6-9.12-89.08-7.77-177.83-19c-49.56-6.27-99-13.17-148.35-21Q405.52,96.19,314,77.59C218.7,58.2,124.12,35.91,30.7,8.81,21.48,6.13,12.52,2.4,2.86,1.28Z"/><path class="cls-2" d="M2.87,1.28C12.52,2.4,21.48,6.13,30.7,8.81,124.12,35.91,218.7,58.2,314,77.59q91.52,18.63,183.75,33.29c49.32,7.86,98.79,14.75,148.35,21q88.74,11.23,177.83,19,64.21,5.6,128.6,9.12c88.2,5,176.44,8.3,264.8,7.13q89.48-1.19,178.85-6.23,80.83-4.43,161.47-11.84,108.44-10.13,216.34-25,148-20.51,294.21-50.82c93.89-19.55,187.11-41.85,279-69.56,4.07-1.23,7.9-3.51,13.36-3.66-9.84,11.42-19.16,22.12-28.37,32.91-69.67,81.71-136.45,165.66-196.74,254.62-28.78,42.47-55.67,86.09-78.21,132.75,8.08,9.55,16.43,19,24.36,28.84,57.73,71.44,96.13,152.25,110.32,242.91,29.4,187.89-24.23,349.46-161.29,481.53-75.34,72.6-166.41,116.54-269.34,135.46a530.44,530.44,0,0,1-95.45,8.45q-63,.07-126-1.1c-58.69-1.18-116.4,5.66-171.64,27.05-49.86,19.31-92.39,48.66-124.5,92-12.17,16.42-21.83,34.09-28,53.78-12.14,38.77-23.6,77.71-33,117.25-.44,1.87-.11,4.1-3,5.6-2.86-11.17-5.71-22.16-8.48-33.17-7.31-29.07-16.09-57.71-25-86.32-9.19-29.56-25.64-54.79-46.36-77.38-37.35-40.7-84-66.09-136.42-81.46-33.7-9.88-68.24-14.68-103.31-16.71-27-1.57-54,.29-81,.29-31.67,0-63.34.39-95-.09-243.51-3.69-454.5-174-510-411.19a524,524,0,0,1-12.9-156.8q12.82-182.65,134.36-320.16c2-2.22,4.47-4.05,5.46-7.49-3-8.18-7.53-16-11.73-23.86C261,344.38,227.7,294.13,192.76,244.93,135,163.63,72.78,85.83,8,10.07c-2.13-2.49-5-4.49-5.78-8Q2.52,1.68,2.87,1.28Zm1056,1268.09c-.54.58-.43,1,.47,1.16l-.68-1c.11-3.54-2-6.28-3.39-9.26-51.68-113.58-111.89-222.52-178.93-327.71C761,751.52,627.52,584.77,479.64,429.39c-2.23-2.34-4-5.42-8-6.26-1.77,1.09-3.77,2.23-5.68,3.51C321.24,523.35,249.1,696.51,285.47,869.17c38,180.57,190,319.58,381.33,335.71,41.17,3.47,82.56,3.75,123.88,1.87,35.15-1.6,69.85,1.5,104.33,7.93,53.69,10,104.68,28.13,153.86,51.65C1052,1267.82,1054.73,1271.05,1058.85,1269.37Zm829.83-847.64c-21.52,22.21-41.86,44.21-62.06,66.34-111.35,122-213.65,251.16-305.52,388.49-82.55,123.41-155.77,252.06-217.17,387.33-1,2.25-2.73,4.39-2.28,7.28,3.92-.13,6.59-2.3,9.5-3.7a676.85,676.85,0,0,1,69.93-29.36c50.21-17.58,101.59-29.23,155-31.42,15-.62,30,.2,44.93.44,30.31.49,60.6.37,90.92-1.05,23-1.08,45.9-2.78,68.44-7.26,97.16-19.29,179.36-65.53,243-141.42,92.9-110.72,122.44-237.86,90.08-378.57C2056.53,605.18,2020,541.44,1968,486.67A414.67,414.67,0,0,0,1888.68,421.72Z"/><path class="cls-2" d="M2.19,2.09,0,.7c1.39-1,2.32-1,2.87.57Q2.52,1.68,2.19,2.09Z"/><path class="cls-1" d="M1058.64,1269.5l.68,1c-.9-.2-1-.58-.47-1.16Z"/><path class="cls-3" d="M1409.65,1152.49c17.63-35.48,35.81-70.69,57.36-104,54.89-84.8,115.53-165.47,177.25-245.35,1-1.3,2.19-2.45,3.71-4.14l145.79,99.25,1.81-1.35-68.19-207.22,105.32-144.15a285.49,285.49,0,0,1,52,53.65c43.85,58.78,64.44,125,61.55,198.19-5.63,142.79-112.26,264-252.9,288.52a342.29,342.29,0,0,1-73.65,4.81c-51.39-2.22-99.76,9.34-146.42,29.77A421.89,421.89,0,0,0,1417.8,1150c-2.21,1.39-4.06,3.53-6.95,3.64A15.36,15.36,0,0,0,1409.65,1152.49Z"/><path class="cls-3" d="M1410.86,1153.66c-.22.88-.54,1.59-1.66,1.09-.62-.91-.09-1.59.46-2.26A15.7,15.7,0,0,1,1410.86,1153.66Z"/><path class="cls-3" d="M522,546.43,626.66,689.66,558.29,897.47l1.58,1.08,145.45-99c2.88.86,3.78,2.78,5,4.32,59.49,77,117.78,154.87,171.34,236.18,23.13,35.12,42.22,72.48,61.71,109.64.6,1.14,1.44,2.24.65,4.56-3.45-.55-6-3.11-8.83-4.86-39.61-24.68-81.84-43-127.64-52.7a270.18,270.18,0,0,0-65.51-6c-47.72,1.65-94.71-2.48-139.19-21.11-107-44.83-173.16-124.37-191.12-238.93C394.52,721,430.49,627.82,512.55,552.79,515.19,550.37,517.55,547.37,522,546.43Z"/></g></g></g></svg>