<svg xmlns="http://www.w3.org/2000/svg" width="2358.33" height="1612.08" viewBox="0 0 2358.33 1612.08"><defs><style>.cls-1{fill:#fff;}</style></defs><title>Asset 2</title><g id="Layer_2" data-name="Layer 2"><g id="Layer_1-2" data-name="Layer 1"><path class="cls-1" d="M.67,1.24C10.32,2.37,19.28,6.1,28.51,8.77c93.42,27.11,188,49.39,283.29,68.79q91.52,18.63,183.75,33.29c49.32,7.86,98.79,14.75,148.35,21q88.74,11.23,177.83,19,64.21,5.6,128.6,9.12c88.2,5,176.44,8.3,264.8,7.13q89.48-1.19,178.85-6.23,80.83-4.43,161.47-11.84,108.44-10.13,216.34-25,148-20.51,294.21-50.82c93.89-19.55,187.11-41.85,279-69.56,4.07-1.23,7.9-3.51,13.36-3.66-9.84,11.42-19.16,22.12-28.37,32.91-69.67,81.71-136.45,165.66-196.74,254.62-28.78,42.47-55.67,86.09-78.21,132.75,8.08,9.55,16.43,19,24.36,28.84,57.73,71.44,96.13,152.25,110.32,242.91,29.4,187.89-24.23,349.46-161.29,481.53-75.34,72.6-166.41,116.54-269.34,135.46a530.44,530.44,0,0,1-95.45,8.45q-63,.07-126-1.1c-58.69-1.18-116.4,5.66-171.64,27.05-49.86,19.31-92.39,48.66-124.5,92-12.17,16.42-21.83,34.09-28,53.78-12.14,38.77-23.6,77.71-33,117.25-.44,1.87-.11,4.1-3,5.6-2.86-11.17-5.71-22.16-8.48-33.17-7.31-29.07-16.09-57.71-25-86.32-9.19-29.56-25.64-54.79-46.36-77.38-37.35-40.7-84-66.09-136.42-81.46-33.7-9.88-68.24-14.68-103.31-16.71-27-1.57-54,.29-81,.29-31.67,0-63.34.39-95-.09-243.51-3.69-454.5-174-510-411.19a524,524,0,0,1-12.9-156.8q12.82-182.65,134.36-320.16c2-2.22,4.47-4.05,5.46-7.49-3-8.18-7.53-16-11.73-23.86C258.8,344.35,225.51,294.1,190.56,244.9,132.81,163.6,70.58,85.8,5.78,10,3.65,7.55.78,5.54,0,2.06Q.33,1.64.67,1.24Zm1056,1268.09c-.54.58-.43,1,.47,1.16l-.68-1c.11-3.54-2-6.28-3.39-9.26-51.68-113.58-111.89-222.52-178.93-327.71-115.35-181-248.81-347.77-396.69-503.15-2.23-2.34-4-5.42-8-6.26-1.77,1.09-3.77,2.23-5.68,3.51C319,523.32,246.9,696.48,283.28,869.14c38,180.57,190,319.58,381.33,335.71,41.17,3.47,82.56,3.75,123.88,1.87,35.15-1.6,69.85,1.5,104.33,7.93,53.69,10,104.68,28.13,153.86,51.65C1049.76,1267.79,1052.54,1271,1056.66,1269.33Zm829.83-847.64C1865,443.9,1844.63,465.9,1824.43,488c-111.35,122-213.65,251.16-305.52,388.49-82.55,123.41-155.77,252.06-217.17,387.33-1,2.25-2.73,4.39-2.28,7.28,3.92-.13,6.59-2.3,9.5-3.7a676.85,676.85,0,0,1,69.93-29.36c50.21-17.58,101.59-29.23,155-31.42,15-.62,30,.2,44.93.44,30.31.49,60.6.37,90.92-1.05,23-1.08,45.9-2.78,68.44-7.26,97.16-19.29,179.36-65.53,243-141.42,92.9-110.72,122.44-237.86,90.08-378.57-16.94-73.65-53.48-137.39-105.48-192.16A414.67,414.67,0,0,0,1886.49,421.69Z"/><path class="cls-1" d="M1407.46,1152.45c17.63-35.48,35.81-70.69,57.36-104,54.89-84.8,115.53-165.47,177.25-245.35,1-1.3,2.19-2.45,3.71-4.14l145.79,99.25,1.81-1.35L1725.2,689.66l105.32-144.15a285.49,285.49,0,0,1,52,53.65c43.85,58.78,64.44,125,61.55,198.19-5.63,142.79-112.26,264-252.9,288.52a342.29,342.29,0,0,1-73.65,4.81c-51.39-2.22-99.76,9.34-146.42,29.77a421.89,421.89,0,0,0-55.48,29.53c-2.21,1.39-4.06,3.53-6.95,3.64A15.36,15.36,0,0,0,1407.46,1152.45Z"/><path class="cls-1" d="M519.79,546.4,624.46,689.63,556.09,897.44l1.58,1.08,145.45-99c2.88.86,3.78,2.78,5,4.32,59.49,77,117.78,154.87,171.34,236.18,23.13,35.12,42.22,72.48,61.71,109.64.6,1.14,1.44,2.24.65,4.56-3.45-.55-6-3.11-8.83-4.86-39.61-24.68-81.84-43-127.64-52.7a270.18,270.18,0,0,0-65.51-6c-47.72,1.65-94.71-2.48-139.19-21.11-107-44.83-173.16-124.37-191.12-238.93C392.33,721,428.3,627.78,510.35,552.76,513,550.34,515.36,547.34,519.79,546.4Z"/></g></g></svg>